# Blender 5.0.1
# www.blender.org
mtllib ToiletPaper02.mtl
o ToiletPaper02
v 0.000000 0.000000 -0.035000
v 0.000000 0.100000 -0.035000
v 0.024749 0.000000 -0.024749
v 0.024749 0.100000 -0.024749
v 0.035000 0.000000 0.000000
v 0.035000 0.100000 0.000000
v 0.024749 0.000000 0.024749
v 0.024749 0.100000 0.024749
v 0.000000 0.000000 0.035000
v 0.000000 0.100000 0.035000
v -0.024749 0.000000 0.024749
v -0.024749 0.100000 0.024749
v -0.035000 0.000000 0.000000
v -0.035000 0.100000 0.000000
v -0.024749 0.000000 -0.024749
v -0.024749 0.100000 -0.024749
v -0.018888 0.100000 0.007823
v 0.007823 0.100000 0.018888
v 0.018888 0.100000 -0.007823
v -0.007823 0.100000 -0.018888
v -0.018888 0.000000 0.007823
v -0.007823 0.000000 -0.018888
v 0.018888 0.000000 -0.007823
v 0.007823 0.000000 0.018888
vn 0.3827 -0.0000 -0.9239
vn 0.9239 -0.0000 -0.3827
vn 0.9239 -0.0000 0.3827
vn 0.3827 -0.0000 0.9239
vn -0.3827 -0.0000 0.9239
vn -0.9239 -0.0000 0.3827
vn -0.0000 1.0000 -0.0000
vn -0.9239 -0.0000 -0.3827
vn -0.3827 -0.0000 -0.9239
vn -0.0000 -1.0000 -0.0000
vt 0.875000 0.625000
vt 1.000000 1.000000
vt 0.875000 1.000000
vt 0.750000 0.625000
vt 0.750000 1.000000
vt 0.625000 0.625000
vt 0.625000 1.000000
vt 0.500000 0.625000
vt 0.500000 1.000000
vt 0.375000 0.625000
vt 0.375000 1.000000
vt 0.250000 0.625000
vt 0.250000 1.000000
vt 0.250000 0.375000
vt 0.250000 0.250000
vt 0.375000 0.250000
vt 0.125000 0.625000
vt 0.125000 1.000000
vt -0.000000 0.625000
vt -0.000000 1.000000
vt 0.125000 0.375000
vt 0.125000 0.250000
vt 0.000000 0.250000
vt 0.125000 0.000000
vt 0.125000 0.125000
vt 0.000000 0.125000
vt 0.250000 0.125000
vt 0.250000 0.000000
vt 0.375000 0.125000
vt 0.750000 0.250000
vt 0.625000 0.250000
vt 0.125000 -0.000000
vt 0.500000 0.250000
vt 1.000000 0.250000
vt 0.875000 0.250000
vt 1.000000 0.625000
s 0
usemtl ToiletPaper
f 2/1/1 3/2/1 1/3/1
f 4/4/2 5/3/2 3/5/2
f 6/6/3 7/5/3 5/7/3
f 8/8/4 9/7/4 7/9/4
f 10/10/5 11/9/5 9/11/5
f 12/12/6 13/11/6 11/13/6
f 4/14/7 19/15/7 6/16/7
f 14/17/8 15/13/8 13/18/8
f 16/19/9 1/18/9 15/20/9
f 1/21/10 22/22/10 15/23/10
f 12/24/7 17/25/7 14/26/7
f 18/27/7 12/24/7 10/28/7
f 8/29/7 18/27/7 10/28/7
f 14/26/7 20/22/7 16/23/7
f 18/30/1 21/6/1 17/31/1
f 20/22/7 4/14/7 2/21/7
f 19/15/7 8/29/7 6/16/7
f 16/23/7 20/22/7 2/21/7
f 22/22/10 13/26/10 15/23/10
f 13/26/10 21/25/10 11/32/10
f 11/32/10 24/27/10 9/28/10
f 1/21/10 23/15/10 22/22/10
f 17/31/3 22/8/3 20/33/3
f 23/15/10 3/14/10 5/16/10
f 23/15/10 7/29/10 24/27/10
f 9/28/10 24/27/10 7/29/10
f 20/34/5 23/1/5 19/35/5
f 19/35/8 24/4/8 18/30/8
f 2/1/1 4/36/1 3/2/1
f 4/4/2 6/1/2 5/3/2
f 6/6/3 8/4/3 7/5/3
f 8/8/4 10/6/4 9/7/4
f 10/10/5 12/8/5 11/9/5
f 12/12/6 14/10/6 13/11/6
f 14/17/8 16/12/8 15/13/8
f 16/19/9 2/17/9 1/18/9
f 18/27/7 17/25/7 12/24/7
f 14/26/7 17/25/7 20/22/7
f 18/30/1 24/4/1 21/6/1
f 20/22/7 19/15/7 4/14/7
f 19/15/7 18/27/7 8/29/7
f 22/22/10 21/25/10 13/26/10
f 11/24/10 21/25/10 24/27/10
f 1/21/10 3/14/10 23/15/10
f 17/31/3 21/6/3 22/8/3
f 23/15/10 5/16/10 7/29/10
f 20/34/5 22/36/5 23/1/5
f 19/35/8 23/1/8 24/4/8
