# Blender 5.0.1
# www.blender.org
mtllib WetToiletPaper02.mtl
o WetToiletPaper02
v -0.000006 0.000000 -0.034397
v -0.000006 0.100000 -0.034397
v 0.024322 0.000000 -0.024320
v 0.024322 0.100000 -0.024320
v 0.034399 0.000000 0.000008
v 0.034399 0.100000 0.000008
v 0.024322 0.000000 0.024336
v 0.024322 0.100000 0.024336
v -0.000006 0.000000 0.034413
v -0.000006 0.100000 0.034413
v -0.024334 0.000000 0.024336
v -0.024334 0.100000 0.024336
v -0.034411 0.000000 0.000008
v -0.034411 0.100000 0.000008
v -0.024334 0.000000 -0.024320
v -0.024334 0.100000 -0.024320
v -0.018888 0.100000 0.007823
v 0.007823 0.100000 0.018888
v 0.018888 0.100000 -0.007823
v -0.007823 0.100000 -0.018888
v -0.018888 0.000000 0.007823
v -0.007823 0.000000 -0.018888
v 0.018888 0.000000 -0.007823
v 0.007823 0.000000 0.018888
v 0.001116 0.034187 -0.033694
v 0.001777 0.068012 -0.025011
v 0.027679 0.064850 -0.018777
v 0.019036 0.032529 -0.028796
v 0.028149 0.063154 -0.003688
v 0.028211 0.038694 0.002466
v 0.019691 0.060699 0.022316
v 0.022468 0.033433 0.022681
v 0.001401 0.071887 0.034550
v -0.000118 0.032601 0.031613
v -0.021206 0.065482 0.031697
v -0.022708 0.032267 0.023575
v -0.033099 0.066490 -0.000076
v -0.031931 0.033424 0.001057
v -0.024712 0.064633 -0.026544
v -0.022731 0.027286 -0.018804
v -0.017400 0.062698 0.012876
v -0.014459 0.034559 0.008980
v -0.011428 0.068550 -0.019450
v -0.011197 0.034265 -0.013549
v 0.010050 0.067892 0.014606
v 0.001332 0.026500 0.015728
v 0.016932 0.069605 -0.008333
v 0.019920 0.030158 -0.006693
vn 0.2167 -0.1318 -0.9673
vn 0.9855 -0.1623 -0.0489
vn 0.9467 -0.1268 0.2960
vn 0.5083 -0.1038 0.8549
vn -0.1757 0.1900 0.9659
vn -0.9366 -0.0102 0.3503
vn -0.0000 1.0000 -0.0000
vn -0.9523 0.0293 -0.3038
vn 0.0498 0.0622 -0.9968
vn -0.0000 -1.0000 -0.0000
vn 0.3849 -0.0184 -0.9228
vn 0.9234 0.0313 0.3825
vn -0.3826 -0.0215 0.9237
vn -0.8915 -0.2624 -0.3693
vn -0.3746 0.2048 -0.9043
vn -0.4758 -0.2026 -0.8559
vn -0.9160 0.1305 -0.3794
vn -0.9144 -0.1281 -0.3840
vn -0.9224 0.0564 0.3821
vn -0.9256 -0.0197 0.3781
vn -0.3824 0.0410 0.9231
vn -0.3250 -0.2107 0.9219
vn 0.3814 0.0804 0.9209
vn 0.3657 0.0497 0.9294
vn 0.9216 0.0700 0.3817
vn 0.9499 0.1007 0.2960
vn 0.9195 0.0970 -0.3809
vn 0.9530 -0.1791 -0.2444
vn 0.3819 -0.0648 -0.9219
vn 0.2764 0.2339 -0.9321
vn -0.9238 -0.0130 -0.3827
vn -0.7731 0.1461 -0.6172
vn -0.3827 0.0091 0.9238
vn -0.2120 0.0245 0.9770
vn 0.9181 -0.1120 0.3803
vn 0.9813 0.0390 0.1884
vn 0.0869 -0.1303 -0.9877
vn 0.0357 0.1407 -0.9894
vn 0.3713 -0.2423 -0.8963
vn 0.9235 0.0279 -0.3825
vn 0.9068 -0.1915 0.3756
vn 0.3826 0.0236 0.9236
vn -0.3826 -0.0147 0.9238
vn -0.9232 -0.0371 0.3824
vn -0.9233 -0.0352 -0.3824
vn -0.3673 -0.2807 -0.8867
vn 0.3826 -0.0164 -0.9238
vn 0.9810 -0.1305 0.1437
vn -0.2336 -0.1721 0.9570
vn -0.7729 0.0502 -0.6326
vn -0.5366 0.0349 -0.8431
vn 0.0244 0.2481 -0.9684
vn -0.8948 0.0802 -0.4393
vn -0.9532 -0.0439 -0.2990
vn -0.9230 0.0555 0.3809
vn -0.9361 -0.0430 0.3491
vn -0.3352 0.0795 0.9388
vn -0.1053 -0.0701 0.9920
vn 0.3649 0.0662 0.9287
vn 0.5181 -0.0836 0.8512
vn 0.9440 0.1318 0.3025
vn 0.9455 0.0817 0.3152
vn 0.9362 0.1693 -0.3081
vn 0.9995 -0.0055 -0.0318
vn 0.2646 0.0111 -0.9643
vn 0.2538 0.2238 -0.9410
vn -0.9571 0.0663 -0.2822
vn -0.9527 -0.0843 -0.2921
vn -0.3657 0.0253 0.9304
vn -0.3655 0.1555 0.9177
vn 0.9791 0.0652 0.1927
vn 0.9864 0.0835 0.1417
vn 0.3785 0.1481 -0.9137
vn 0.3481 -0.0986 -0.9323
vt 0.875000 0.750000
vt 1.000000 0.625000
vt 1.000000 0.750000
vt 0.750000 0.750000
vt 0.875000 0.625000
vt 0.625000 0.750000
vt 0.750000 0.625000
vt 0.500000 0.625000
vt 0.500000 0.750000
vt 0.375000 0.750000
vt 0.250000 0.625000
vt 0.250000 0.750000
vt 0.250000 0.375000
vt 0.250000 0.250000
vt 0.375000 0.250000
vt 0.125000 0.750000
vt -0.000000 0.625000
vt 0.000000 0.750000
vt 0.125000 0.375000
vt 0.125000 0.250000
vt 0.000000 0.250000
vt 0.125000 0.000000
vt 0.125000 0.125000
vt 0.000000 0.125000
vt 0.250000 0.000000
vt 0.375000 0.125000
vt 0.250000 0.125000
vt 0.750000 0.500000
vt 0.625000 0.625000
vt 0.625000 0.500000
vt 0.500000 0.500000
vt 0.875000 0.500000
vt 0.000000 0.875000
vt 0.125000 1.000000
vt -0.000000 1.000000
vt 0.125000 0.875000
vt 0.250000 0.875000
vt 0.250000 1.000000
vt 0.375000 0.875000
vt 0.375000 1.000000
vt 0.500000 0.875000
vt 0.500000 1.000000
vt 0.625000 0.875000
vt 0.625000 1.000000
vt 0.750000 0.875000
vt 0.750000 1.000000
vt 0.875000 1.000000
vt 0.875000 0.875000
vt 1.000000 0.875000
vt 1.000000 1.000000
vt 0.875000 0.250000
vt 0.750000 0.375000
vt 0.750000 0.250000
vt 1.000000 0.250000
vt 0.875000 0.375000
vt 1.000000 0.500000
vt 0.625000 0.250000
vt 0.500000 0.375000
vt 0.500000 0.250000
vt 0.625000 0.375000
vt 0.375000 0.625000
vt 0.125000 0.625000
vt 1.000000 0.375000
s 0
usemtl WetToiletPaper
f 26/1/1 4/2/1 27/3/1
f 27/4/2 6/5/2 29/1/2
f 29/6/3 8/7/3 31/4/3
f 8/8/4 33/6/4 31/9/4
f 33/10/5 12/8/5 35/9/5
f 12/11/6 37/10/6 35/12/6
f 4/13/7 19/14/7 6/15/7
f 37/16/8 16/11/8 39/12/8
f 16/17/9 26/16/9 39/18/9
f 1/19/10 22/20/10 15/21/10
f 12/22/7 17/23/7 14/24/7
f 10/25/7 17/23/7 12/22/7
f 8/26/7 18/27/7 10/25/7
f 17/23/7 16/21/7 14/24/7
f 46/28/11 21/29/11 42/30/11
f 20/20/7 4/13/7 2/19/7
f 6/15/7 18/27/7 8/26/7
f 16/21/7 20/20/7 2/19/7
f 15/21/10 21/23/10 13/24/10
f 13/24/10 21/23/10 11/22/10
f 21/23/10 9/25/10 11/22/10
f 22/20/10 3/13/10 23/14/10
f 44/31/12 21/29/12 22/8/12
f 23/14/10 3/13/10 5/15/10
f 24/27/10 5/15/10 7/26/10
f 9/25/10 24/27/10 7/26/10
f 48/32/13 22/2/13 23/5/13
f 46/28/14 23/5/14 24/7/14
f 40/33/15 1/34/15 15/35/15
f 39/18/16 25/36/16 40/33/16
f 13/34/17 40/37/17 15/38/17
f 38/36/18 39/12/18 40/37/18
f 11/38/19 38/39/19 13/40/19
f 36/37/20 37/10/20 38/39/20
f 9/40/21 36/41/21 11/42/21
f 34/39/22 35/9/22 36/41/22
f 7/42/23 34/43/23 9/44/23
f 31/9/24 34/43/24 32/41/24
f 5/44/25 32/45/25 7/46/25
f 30/43/26 31/4/26 32/45/26
f 28/45/27 5/47/27 3/46/27
f 27/4/28 30/48/28 28/45/28
f 1/47/29 28/49/29 3/50/29
f 26/1/30 28/49/30 25/48/30
f 19/51/31 45/52/31 18/53/31
f 45/52/32 48/32/32 46/28/32
f 20/54/33 47/55/33 19/51/33
f 47/55/34 44/56/34 48/32/34
f 17/57/35 43/58/35 20/59/35
f 41/60/36 44/31/36 43/58/36
f 17/57/37 45/52/37 41/60/37
f 45/52/38 42/30/38 41/60/38
f 26/1/39 2/5/39 4/2/39
f 27/4/40 4/7/40 6/5/40
f 29/6/41 6/29/41 8/7/41
f 8/8/42 10/29/42 33/6/42
f 33/10/43 10/61/43 12/8/43
f 12/11/44 14/61/44 37/10/44
f 37/16/45 14/62/45 16/11/45
f 16/17/46 2/62/46 26/16/46
f 10/25/7 18/27/7 17/23/7
f 17/23/7 20/20/7 16/21/7
f 46/28/47 24/7/47 21/29/47
f 20/20/7 19/14/7 4/13/7
f 6/15/7 19/14/7 18/27/7
f 15/21/10 22/20/10 21/23/10
f 21/23/10 24/27/10 9/25/10
f 22/20/10 1/19/10 3/13/10
f 44/31/48 42/30/48 21/29/48
f 24/27/10 23/14/10 5/15/10
f 48/32/49 44/56/49 22/2/49
f 46/28/50 48/32/50 23/5/50
f 40/33/51 25/36/51 1/34/51
f 39/18/52 26/16/52 25/36/52
f 13/34/53 38/36/53 40/37/53
f 38/36/54 37/16/54 39/12/54
f 11/38/55 36/37/55 38/39/55
f 36/37/56 35/12/56 37/10/56
f 9/40/57 34/39/57 36/41/57
f 34/39/58 33/10/58 35/9/58
f 7/42/59 32/41/59 34/43/59
f 31/9/60 33/6/60 34/43/60
f 5/44/61 30/43/61 32/45/61
f 30/43/62 29/6/62 31/4/62
f 28/45/63 30/48/63 5/47/63
f 27/4/64 29/1/64 30/48/64
f 1/47/65 25/48/65 28/49/65
f 26/1/66 27/3/66 28/49/66
f 19/51/67 47/55/67 45/52/67
f 45/52/68 47/55/68 48/32/68
f 20/54/69 43/63/69 47/55/69
f 47/55/70 43/63/70 44/56/70
f 17/57/71 41/60/71 43/58/71
f 41/60/72 42/30/72 44/31/72
f 17/57/73 18/53/73 45/52/73
f 45/52/74 46/28/74 42/30/74
