# Blender 5.0.1
# www.blender.org
mtllib WetToiletPaper01.mtl
o WetToiletPaper01
v -0.000012 0.000000 -0.047268
v -0.000012 0.100000 -0.047268
v 0.033429 0.000000 -0.033416
v 0.033429 0.100000 -0.033416
v 0.047281 0.000000 0.000025
v 0.047281 0.100000 0.000025
v 0.033429 0.000000 0.033466
v 0.033429 0.100000 0.033466
v -0.000012 0.000000 0.047317
v -0.000012 0.100000 0.047317
v -0.033453 0.000000 0.033466
v -0.033453 0.100000 0.033466
v -0.047304 0.000000 0.000025
v -0.047304 0.100000 0.000025
v -0.033453 0.000000 -0.033416
v -0.033453 0.100000 -0.033416
v -0.018888 0.100000 0.007823
v 0.007823 0.100000 0.018888
v 0.018888 0.100000 -0.007823
v -0.007823 0.100000 -0.018888
v -0.018888 0.000000 0.007823
v -0.007823 0.000000 -0.018888
v 0.018888 0.000000 -0.007823
v 0.007823 0.000000 0.018888
v 0.001048 0.034187 -0.045411
v 0.001675 0.068012 -0.037159
v 0.035779 0.064850 -0.027305
v 0.027565 0.032529 -0.036827
v 0.040155 0.063154 -0.003479
v 0.040214 0.038694 0.002370
v 0.028187 0.060699 0.030722
v 0.030826 0.033433 0.031068
v 0.001318 0.071887 0.046277
v -0.000125 0.032601 0.043487
v -0.029653 0.065482 0.039636
v -0.031081 0.032267 0.031918
v -0.044886 0.066490 -0.000046
v -0.043775 0.033424 0.001031
v -0.032985 0.064633 -0.034687
v -0.031102 0.027286 -0.027331
v -0.017483 0.062698 0.012939
v -0.014529 0.034559 0.009025
v -0.011483 0.068550 -0.019540
v -0.011251 0.034265 -0.013611
v 0.010097 0.067892 0.014677
v 0.001337 0.026500 0.015804
v 0.017011 0.069605 -0.008370
v 0.020014 0.030158 -0.006723
vn 0.2618 -0.1483 -0.9537
vn 0.9672 -0.1690 -0.1897
vn 0.9369 -0.1471 0.3173
vn 0.4585 -0.1226 0.8802
vn -0.2361 0.1457 0.9607
vn -0.9332 -0.0389 0.3572
vn -0.0000 1.0000 -0.0000
vn -0.9458 -0.0008 -0.3249
vn -0.0745 0.0348 -0.9966
vn -0.0000 -1.0000 -0.0000
vn 0.3858 -0.0166 -0.9225
vn 0.9234 0.0335 0.3825
vn -0.3826 -0.0194 0.9237
vn -0.8918 -0.2613 -0.3694
vn -0.3722 0.2325 -0.8986
vn -0.4488 -0.1944 -0.8722
vn -0.9116 0.1627 -0.3776
vn -0.9158 -0.1216 -0.3829
vn -0.9205 0.0857 0.3813
vn -0.9250 -0.0187 0.3795
vn -0.3817 0.0723 0.9215
vn -0.3412 -0.1988 0.9187
vn 0.3804 0.1092 0.9184
vn 0.3708 0.0477 0.9275
vn 0.9194 0.0989 0.3808
vn 0.9408 0.0952 0.3252
vn 0.9073 0.1885 -0.3758
vn 0.9467 -0.1579 -0.2807
vn 0.3825 -0.0279 -0.9235
vn 0.3129 0.2196 -0.9240
vn -0.9238 -0.0152 -0.3826
vn -0.7731 0.1468 -0.6171
vn -0.3827 0.0070 0.9239
vn -0.2120 0.0247 0.9770
vn 0.9178 -0.1147 0.3802
vn 0.9813 0.0392 0.1884
vn 0.0871 -0.1321 -0.9874
vn 0.0357 0.1414 -0.9893
vn 0.3693 -0.2623 -0.8915
vn 0.9239 -0.0048 -0.3827
vn 0.9032 -0.2102 0.3741
vn 0.3826 -0.0161 0.9238
vn -0.3822 -0.0522 0.9226
vn -0.9218 -0.0673 0.3818
vn -0.9219 -0.0657 -0.3819
vn -0.3653 -0.2980 -0.8819
vn 0.3826 -0.0138 -0.9238
vn 0.9812 -0.1288 0.1437
vn -0.2333 -0.1708 0.9573
vn -0.7729 0.0519 -0.6324
vn -0.4994 0.0624 -0.8641
vn -0.0922 0.2376 -0.9670
vn -0.8988 0.1077 -0.4249
vn -0.9456 -0.0423 -0.3226
vn -0.9204 0.0860 0.3815
vn -0.9331 -0.0429 0.3571
vn -0.3491 0.1082 0.9308
vn -0.1969 -0.0623 0.9784
vn 0.3685 0.0950 0.9248
vn 0.4744 -0.0797 0.8767
vn 0.9312 0.1500 0.3321
vn 0.9388 0.0822 0.3344
vn 0.9366 0.1349 -0.3235
vn 0.9822 -0.0415 -0.1834
vn 0.3101 0.0420 -0.9498
vn 0.2891 0.2022 -0.9357
vn -0.9572 0.0642 -0.2824
vn -0.9526 -0.0847 -0.2921
vn -0.3656 0.0232 0.9305
vn -0.3655 0.1562 0.9176
vn 0.9793 0.0632 0.1923
vn 0.9863 0.0839 0.1417
vn 0.3785 0.1467 -0.9139
vn 0.3480 -0.0991 -0.9322
vt 0.875000 0.750000
vt 1.000000 0.625000
vt 1.000000 0.750000
vt 0.750000 0.750000
vt 0.875000 0.625000
vt 0.625000 0.750000
vt 0.750000 0.625000
vt 0.500000 0.625000
vt 0.500000 0.750000
vt 0.375000 0.750000
vt 0.250000 0.625000
vt 0.250000 0.750000
vt 0.250000 0.375000
vt 0.250000 0.250000
vt 0.375000 0.250000
vt 0.125000 0.750000
vt -0.000000 0.625000
vt 0.000000 0.750000
vt 0.125000 0.375000
vt 0.125000 0.250000
vt 0.000000 0.250000
vt 0.125000 0.000000
vt 0.125000 0.125000
vt 0.000000 0.125000
vt 0.250000 0.000000
vt 0.375000 0.125000
vt 0.250000 0.125000
vt 0.750000 0.500000
vt 0.625000 0.625000
vt 0.625000 0.500000
vt 0.500000 0.500000
vt 0.875000 0.500000
vt 0.000000 0.875000
vt 0.125000 1.000000
vt -0.000000 1.000000
vt 0.125000 0.875000
vt 0.250000 0.875000
vt 0.250000 1.000000
vt 0.375000 0.875000
vt 0.375000 1.000000
vt 0.500000 0.875000
vt 0.500000 1.000000
vt 0.625000 0.875000
vt 0.625000 1.000000
vt 0.750000 0.875000
vt 0.750000 1.000000
vt 0.875000 0.875000
vt 0.875000 1.000000
vt 1.000000 0.875000
vt 1.000000 1.000000
vt 0.875000 0.250000
vt 0.750000 0.375000
vt 0.750000 0.250000
vt 1.000000 0.250000
vt 0.875000 0.375000
vt 1.000000 0.500000
vt 0.625000 0.250000
vt 0.500000 0.375000
vt 0.500000 0.250000
vt 0.625000 0.375000
vt 0.375000 0.625000
vt 0.125000 0.625000
vt 1.000000 0.375000
s 0
usemtl WetToiletPaper
f 26/1/1 4/2/1 27/3/1
f 27/4/2 6/5/2 29/1/2
f 29/6/3 8/7/3 31/4/3
f 8/8/4 33/6/4 31/9/4
f 33/10/5 12/8/5 35/9/5
f 12/11/6 37/10/6 35/12/6
f 4/13/7 19/14/7 6/15/7
f 37/16/8 16/11/8 39/12/8
f 16/17/9 26/16/9 39/18/9
f 1/19/10 22/20/10 15/21/10
f 12/22/7 17/23/7 14/24/7
f 10/25/7 17/23/7 12/22/7
f 8/26/7 18/27/7 10/25/7
f 17/23/7 16/21/7 14/24/7
f 46/28/11 21/29/11 42/30/11
f 20/20/7 4/13/7 2/19/7
f 6/15/7 18/27/7 8/26/7
f 16/21/7 20/20/7 2/19/7
f 15/21/10 21/23/10 13/24/10
f 13/24/10 21/23/10 11/22/10
f 21/23/10 9/25/10 11/22/10
f 22/20/10 3/13/10 23/14/10
f 44/31/12 21/29/12 22/8/12
f 23/14/10 3/13/10 5/15/10
f 24/27/10 5/15/10 7/26/10
f 9/25/10 24/27/10 7/26/10
f 48/32/13 22/2/13 23/5/13
f 46/28/14 23/5/14 24/7/14
f 40/33/15 1/34/15 15/35/15
f 39/18/16 25/36/16 40/33/16
f 13/34/17 40/37/17 15/38/17
f 38/36/18 39/12/18 40/37/18
f 11/38/19 38/39/19 13/40/19
f 36/37/20 37/10/20 38/39/20
f 9/40/21 36/41/21 11/42/21
f 34/39/22 35/9/22 36/41/22
f 7/42/23 34/43/23 9/44/23
f 31/9/24 34/43/24 32/41/24
f 5/44/25 32/45/25 7/46/25
f 30/43/26 31/4/26 32/45/26
f 3/46/27 30/47/27 5/48/27
f 27/4/28 30/47/28 28/45/28
f 1/48/29 28/49/29 3/50/29
f 26/1/30 28/49/30 25/47/30
f 19/51/31 45/52/31 18/53/31
f 45/52/32 48/32/32 46/28/32
f 20/54/33 47/55/33 19/51/33
f 47/55/34 44/56/34 48/32/34
f 17/57/35 43/58/35 20/59/35
f 41/60/36 44/31/36 43/58/36
f 17/57/37 45/52/37 41/60/37
f 45/52/38 42/30/38 41/60/38
f 26/1/39 2/5/39 4/2/39
f 27/4/40 4/7/40 6/5/40
f 29/6/41 6/29/41 8/7/41
f 8/8/42 10/29/42 33/6/42
f 33/10/43 10/61/43 12/8/43
f 12/11/44 14/61/44 37/10/44
f 37/16/45 14/62/45 16/11/45
f 16/17/46 2/62/46 26/16/46
f 10/25/7 18/27/7 17/23/7
f 17/23/7 20/20/7 16/21/7
f 46/28/47 24/7/47 21/29/47
f 20/20/7 19/14/7 4/13/7
f 6/15/7 19/14/7 18/27/7
f 15/21/10 22/20/10 21/23/10
f 21/23/10 24/27/10 9/25/10
f 22/20/10 1/19/10 3/13/10
f 44/31/48 42/30/48 21/29/48
f 24/27/10 23/14/10 5/15/10
f 48/32/49 44/56/49 22/2/49
f 46/28/50 48/32/50 23/5/50
f 40/33/51 25/36/51 1/34/51
f 39/18/52 26/16/52 25/36/52
f 13/34/53 38/36/53 40/37/53
f 38/36/54 37/16/54 39/12/54
f 11/38/55 36/37/55 38/39/55
f 36/37/56 35/12/56 37/10/56
f 9/40/57 34/39/57 36/41/57
f 34/39/58 33/10/58 35/9/58
f 7/42/59 32/41/59 34/43/59
f 31/9/60 33/6/60 34/43/60
f 5/44/61 30/43/61 32/45/61
f 30/43/62 29/6/62 31/4/62
f 3/46/63 28/45/63 30/47/63
f 27/4/64 29/1/64 30/47/64
f 1/48/65 25/47/65 28/49/65
f 26/1/66 27/3/66 28/49/66
f 19/51/67 47/55/67 45/52/67
f 45/52/68 47/55/68 48/32/68
f 20/54/69 43/63/69 47/55/69
f 47/55/70 43/63/70 44/56/70
f 17/57/71 41/60/71 43/58/71
f 41/60/72 42/30/72 44/31/72
f 17/57/73 18/53/73 45/52/73
f 45/52/74 46/28/74 42/30/74
