# Blender 5.0.1
# www.blender.org
mtllib WetToiletPaperRoll.mtl
o WetToiletPaperRoll
v 0.022343 0.000000 -0.009255
v -0.009255 0.000000 -0.022343
v -0.022343 0.000000 0.009255
v 0.009255 0.000000 0.022343
v -0.009255 0.100000 -0.022343
v -0.022343 0.100000 0.009255
v 0.009255 0.100000 0.022343
v 0.022343 0.100000 -0.009255
v -0.018888 0.100000 0.007823
v 0.007823 0.100000 0.018888
v 0.018888 0.100000 -0.007823
v -0.007823 0.100000 -0.018888
v -0.018888 0.000000 0.007823
v -0.007823 0.000000 -0.018888
v 0.018888 0.000000 -0.007823
v 0.007823 0.000000 0.018888
v 0.019354 0.063556 -0.007772
v 0.023146 0.033764 -0.013158
v -0.011577 0.067432 -0.019960
v -0.008105 0.030928 -0.018188
v -0.024144 0.068627 0.009339
v -0.020793 0.032401 0.011193
v 0.010107 0.063956 0.025816
v 0.009313 0.033233 0.023898
v -0.020746 0.068264 0.009102
v -0.017646 0.033840 0.010128
v -0.008093 0.066109 -0.016850
v -0.006368 0.030103 -0.016141
v 0.008460 0.066350 0.022330
v 0.008172 0.033555 0.018769
v 0.015677 0.062881 -0.005209
v 0.018945 0.033406 -0.010971
vn -0.0000 1.0000 -0.0000
vn 0.1682 -0.1171 -0.9788
vn 0.9366 0.0182 0.3499
vn -0.0000 -1.0000 -0.0000
vn -0.3875 -0.0424 0.9209
vn 0.3822 0.0488 -0.9228
vn -0.9147 0.0676 -0.3984
vn 0.9210 -0.0793 0.3815
vn -0.2108 0.0920 0.9732
vn -0.9238 0.0082 -0.3827
vn -0.9232 0.0378 -0.3824
vn -0.9155 -0.1046 -0.3884
vn -0.3826 0.0244 0.9236
vn -0.4328 0.0061 0.9014
vn 0.9222 -0.0601 0.3820
vn 0.9632 -0.0415 0.2656
vn 0.3810 -0.0945 -0.9197
vn 0.3654 -0.0104 -0.9308
vn -0.9678 -0.0437 -0.2481
vn -0.9656 0.0365 -0.2576
vn -0.4266 0.1002 0.8989
vn -0.1698 -0.2071 0.9635
vn 0.9238 0.0157 0.3826
vn 0.9203 0.0517 0.3877
vn 0.3820 -0.0595 -0.9222
vn 0.4131 0.0101 -0.9106
vn 0.3804 0.1092 -0.9183
vn 0.9237 -0.0195 0.3826
vn -0.3824 -0.0369 0.9232
vn 0.3173 -0.0066 -0.9483
vn -0.9205 0.0854 -0.3813
vn 0.9140 -0.0608 0.4011
vn -0.3819 -0.0656 0.9219
vn -0.9398 -0.0305 -0.3403
vn -0.9170 0.0516 -0.3954
vn -0.9148 -0.1059 -0.3897
vn -0.4237 0.0769 0.9025
vn -0.3873 -0.0475 0.9207
vn 0.9632 0.0483 0.2646
vn 0.9351 0.0558 0.3499
vn 0.3584 -0.0673 -0.9311
vn 0.1388 0.1932 -0.9713
vn -0.9226 0.0529 -0.3821
vn -0.9396 -0.0377 -0.3402
vn -0.3820 0.0585 0.9223
vn -0.4402 -0.0034 0.8979
vn 0.8972 -0.0348 0.4403
vn 0.8980 0.0937 0.4300
vn 0.4064 -0.0854 -0.9097
vn 0.3168 0.0996 -0.9432
vt 0.625000 0.375000
vt 0.750000 0.500000
vt 0.625000 0.500000
vt 0.750000 0.375000
vt 0.875000 0.500000
vt 1.000000 0.500000
vt 0.875000 0.375000
vt 1.000000 0.375000
vt 1.000000 0.625000
vt 0.750000 0.625000
vt 0.500000 0.375000
vt 0.625000 0.625000
vt 0.500000 0.625000
vt 0.500000 0.500000
vt 0.875000 0.625000
vt 0.500000 0.250000
vt 0.625000 0.250000
vt 0.750000 0.250000
vt 0.875000 0.250000
vt 1.000000 0.250000
s 0
usemtl WetToiletPaper
f 6/1/1 10/2/1 9/3/1
f 10/4/1 8/5/1 11/2/1
f 8/6/1 12/7/1 11/8/1
f 1/9/2 20/5/2 18/6/2
f 24/5/3 1/10/3 18/2/3
f 3/3/4 14/11/4 13/1/4
f 2/5/4 15/8/4 14/6/4
f 22/2/5 4/12/5 24/3/5
f 26/3/6 16/10/6 13/12/6
f 20/3/7 3/13/7 22/14/7
f 1/4/4 16/5/4 15/2/4
f 4/4/4 13/3/4 16/1/4
f 28/14/8 13/12/8 14/13/8
f 5/14/1 9/1/1 12/3/1
f 28/6/9 15/15/9 32/5/9
f 30/2/10 15/15/10 16/10/10
f 19/1/11 6/16/11 5/17/11
f 19/1/12 22/14/12 21/11/12
f 21/4/13 7/17/13 6/18/13
f 22/2/14 23/1/14 21/4/14
f 7/19/15 17/4/15 8/18/15
f 24/5/16 17/4/16 23/7/16
f 8/20/17 19/7/17 5/19/17
f 17/8/18 20/5/18 19/7/18
f 10/18/19 31/7/19 29/4/19
f 31/7/20 30/2/20 29/4/20
f 11/19/21 27/8/21 31/7/21
f 31/7/22 28/6/22 32/5/22
f 9/17/23 27/11/23 12/16/23
f 27/11/24 26/3/24 28/14/24
f 10/18/25 25/1/25 9/17/25
f 29/4/26 26/3/26 25/1/26
f 6/1/1 7/4/1 10/2/1
f 10/4/1 7/7/1 8/5/1
f 8/6/1 5/5/1 12/7/1
f 1/9/27 2/15/27 20/5/27
f 24/5/28 4/15/28 1/10/28
f 3/3/4 2/14/4 14/11/4
f 2/5/4 1/7/4 15/8/4
f 22/2/29 3/10/29 4/12/29
f 26/3/30 30/2/30 16/10/30
f 20/3/31 2/12/31 3/13/31
f 1/4/4 4/7/4 16/5/4
f 4/4/4 3/2/4 13/3/4
f 28/14/32 26/3/32 13/12/32
f 5/14/1 6/11/1 9/1/1
f 28/6/33 14/9/33 15/15/33
f 30/2/34 32/5/34 15/15/34
f 19/1/35 21/11/35 6/16/35
f 19/1/36 20/3/36 22/14/36
f 21/4/37 23/1/37 7/17/37
f 22/2/38 24/3/38 23/1/38
f 7/19/39 23/7/39 17/4/39
f 24/5/40 18/2/40 17/4/40
f 8/20/41 17/8/41 19/7/41
f 17/8/42 18/6/42 20/5/42
f 10/18/43 11/19/43 31/7/43
f 31/7/44 32/5/44 30/2/44
f 11/19/45 12/20/45 27/8/45
f 31/7/46 27/8/46 28/6/46
f 9/17/47 25/1/47 27/11/47
f 27/11/48 25/1/48 26/3/48
f 10/18/49 29/4/49 25/1/49
f 29/4/50 30/2/50 26/3/50
