# Blender 5.0.1
# www.blender.org
mtllib TrashCan01.mtl
o TrashCan01
v -0.000000 -0.000000 0.149099
v -0.000000 -0.000000 0.149099
v -0.000000 -0.000000 0.149099
v -0.105429 -0.000000 0.105429
v -0.105429 -0.000000 0.105429
v -0.105429 -0.000000 0.105429
v -0.149099 -0.000000 -0.000000
v -0.149099 -0.000000 -0.000000
v -0.149099 -0.000000 -0.000000
v -0.105429 0.000000 -0.105429
v -0.105429 0.000000 -0.105429
v -0.105429 0.000000 -0.105429
v 0.000000 0.000000 -0.149099
v 0.000000 0.000000 -0.149099
v 0.000000 0.000000 -0.149099
v 0.105429 0.000000 -0.105429
v 0.105429 0.000000 -0.105429
v 0.105429 0.000000 -0.105429
v 0.149099 0.000000 0.000000
v 0.149099 0.000000 0.000000
v 0.149099 0.000000 0.000000
v 0.105429 -0.000000 0.105429
v 0.105429 -0.000000 0.105429
v 0.105429 -0.000000 0.105429
v 0.000000 0.451814 0.162458
v 0.000000 0.451814 0.162458
v 0.000000 0.451814 0.162458
v -0.114875 0.451814 0.114875
v -0.114875 0.451814 0.114875
v -0.114875 0.451814 0.114875
v -0.162458 0.451814 0.000000
v -0.162458 0.451814 0.000000
v -0.162458 0.451814 0.000000
v -0.114875 0.451814 -0.114875
v -0.114875 0.451814 -0.114875
v -0.114875 0.451814 -0.114875
v 0.000000 0.451814 -0.162458
v 0.000000 0.451814 -0.162458
v 0.000000 0.451814 -0.162458
v 0.000000 0.451814 -0.162458
v 0.114875 0.451814 -0.114875
v 0.114875 0.451814 -0.114875
v 0.114875 0.451814 -0.114875
v 0.162458 0.451814 0.000000
v 0.162458 0.451814 0.000000
v 0.162458 0.451814 0.000000
v 0.114875 0.451814 0.114875
v 0.114875 0.451814 0.114875
v 0.114875 0.451814 0.114875
v -0.128857 0.451814 0.128857
v -0.128857 0.451814 0.128857
v -0.128857 0.451814 0.128857
v 0.000000 0.451814 0.182232
v 0.000000 0.451814 0.182232
v 0.000000 0.451814 0.182232
v -0.182232 0.451814 -0.000000
v -0.182232 0.451814 -0.000000
v -0.182232 0.451814 -0.000000
v -0.128857 0.451814 -0.128857
v -0.128857 0.451814 -0.128857
v -0.128857 0.451814 -0.128857
v 0.000000 0.451814 -0.182232
v 0.000000 0.451814 -0.182232
v 0.000000 0.451814 -0.182232
v 0.000000 0.451814 -0.182232
v 0.128857 0.451814 -0.128857
v 0.128857 0.451814 -0.128857
v 0.128857 0.451814 -0.128857
v 0.182232 0.451814 -0.000000
v 0.182232 0.451814 -0.000000
v 0.182232 0.451814 -0.000000
v 0.128857 0.451814 0.128857
v 0.128857 0.451814 0.128857
v 0.128857 0.451814 0.128857
v -0.096851 0.023173 0.096851
v -0.096851 0.023173 0.096851
v -0.096851 0.023173 0.096851
v 0.000000 0.023173 0.136969
v 0.000000 0.023173 0.136969
v 0.000000 0.023173 0.136969
v -0.136969 0.023173 -0.000000
v -0.136969 0.023173 -0.000000
v -0.136969 0.023173 -0.000000
v -0.096851 0.023173 -0.096852
v -0.096851 0.023173 -0.096852
v -0.096851 0.023173 -0.096852
v 0.000000 0.023173 -0.136969
v 0.000000 0.023173 -0.136969
v 0.000000 0.023173 -0.136969
v 0.096852 0.023173 -0.096852
v 0.096852 0.023173 -0.096852
v 0.096852 0.023173 -0.096852
v 0.136969 0.023173 -0.000000
v 0.136969 0.023173 -0.000000
v 0.136969 0.023173 -0.000000
v 0.096852 0.023173 0.096851
v 0.096852 0.023173 0.096851
v 0.096852 0.023173 0.096851
vn -0.0000 -1.0000 -0.0000
vn -0.9225 0.0549 -0.3821
vn 0.3818 -0.0676 0.9218
vn 0.9218 -0.0676 -0.3818
vn -0.3818 -0.0676 -0.9218
vn -0.9218 -0.0676 0.3818
vn 0.9218 -0.0676 0.3818
vn 0.3818 -0.0676 -0.9218
vn -0.9218 -0.0676 -0.3818
vn -0.3818 -0.0676 0.9218
vn -0.0000 1.0000 -0.0000
vn -0.3821 0.0549 0.9225
vn 0.9225 0.0549 0.3821
vn 0.3821 0.0549 -0.9225
vn -0.3821 0.0549 -0.9225
vn -0.9225 0.0549 0.3821
vn 0.3821 0.0549 0.9225
vn 0.9225 0.0549 -0.3821
vt 0.031250 0.250000
vt 0.031250 0.125000
vt 0.125000 0.031250
vt 0.250000 0.031250
vt 0.343750 0.125000
vt 0.343750 0.250000
vt 0.250000 0.343750
vt 0.125000 0.343750
vt 0.625000 1.000000
vt 0.750000 1.000000
vt 0.750000 0.562500
vt 0.625000 0.562500
vt 0.500000 1.000000
vt 0.500000 0.562500
vt 0.875000 0.562500
vt 0.875000 1.000000
vt 0.125000 0.562500
vt 0.125000 1.000000
vt 0.000000 1.000000
vt 0.000000 0.562500
vt 0.375000 0.562500
vt 0.375000 1.000000
vt 0.250000 1.000000
vt 0.250000 0.562500
vt 1.000000 0.562500
vt 1.000000 1.000000
vt 0.500000 0.500000
vt 0.375000 0.500000
vt 0.375000 0.531250
vt 0.500000 0.531250
vt 0.250000 0.500000
vt 0.250000 0.531250
vt 0.125000 0.500000
vt 0.125000 0.531250
vt 0.000000 0.500000
vt 0.000000 0.531250
vt 1.000000 0.500000
vt 0.875000 0.500000
vt 0.875000 0.531250
vt 1.000000 0.531250
vt 0.750000 0.500000
vt 0.750000 0.531250
vt 0.625000 0.500000
vt 0.625000 0.531250
vt 0.375000 0.125000
vt 0.468750 0.031250
vt 0.593750 0.031250
vt 0.687500 0.125000
vt 0.687500 0.250000
vt 0.593750 0.343750
vt 0.468750 0.343750
vt 0.375000 0.250000
s 0
usemtl TrashCan01
f 22/1/1 1/2/1 4/3/1
f 4/3/1 7/4/1 10/5/1
f 10/5/1 13/6/1 16/7/1
f 16/7/1 19/8/1 22/1/1
f 22/1/1 4/3/1 10/5/1
f 10/5/1 16/7/1 22/1/1
f 49/9/2 45/10/2 94/11/2
f 49/9/2 94/11/2 98/12/2
f 23/12/3 73/9/3 54/13/3
f 23/12/3 54/13/3 2/14/3
f 18/15/4 68/16/4 70/10/4
f 18/15/4 70/10/4 20/11/4
f 11/17/5 60/18/5 65/19/5
f 11/17/5 65/19/5 15/20/5
f 6/21/6 52/22/6 58/23/6
f 6/21/6 58/23/6 9/24/6
f 21/11/7 71/10/7 74/9/7
f 21/11/7 74/9/7 24/12/7
f 14/25/8 64/26/8 67/16/8
f 14/25/8 67/16/8 17/15/8
f 8/24/9 57/23/9 61/18/9
f 8/24/9 61/18/9 12/17/9
f 3/14/10 55/13/10 51/22/10
f 3/14/10 51/22/10 5/21/10
f 25/27/11 28/28/11 50/29/11
f 25/27/11 50/29/11 53/30/11
f 28/28/11 31/31/11 56/32/11
f 28/28/11 56/32/11 50/29/11
f 31/31/11 34/33/11 59/34/11
f 31/31/11 59/34/11 56/32/11
f 34/33/11 37/35/11 62/36/11
f 34/33/11 62/36/11 59/34/11
f 38/37/11 41/38/11 66/39/11
f 38/37/11 66/39/11 63/40/11
f 41/38/11 44/41/11 69/42/11
f 41/38/11 69/42/11 66/39/11
f 44/41/11 47/43/11 72/44/11
f 44/41/11 72/44/11 69/42/11
f 47/43/11 25/27/11 53/30/11
f 47/43/11 53/30/11 72/44/11
f 75/45/11 78/46/11 96/47/11
f 96/47/11 93/48/11 90/49/11
f 90/49/11 87/50/11 84/51/11
f 84/51/11 81/52/11 75/45/11
f 75/45/11 96/47/11 90/49/11
f 90/49/11 84/51/11 75/45/11
f 42/16/12 40/26/12 89/25/12
f 42/16/12 89/25/12 91/15/12
f 36/18/13 33/23/13 83/24/13
f 36/18/13 83/24/13 86/17/13
f 29/22/14 26/13/14 79/14/14
f 29/22/14 79/14/14 76/21/14
f 27/13/15 48/9/15 97/12/15
f 27/13/15 97/12/15 80/14/15
f 46/10/16 43/16/16 92/15/16
f 46/10/16 92/15/16 95/11/16
f 39/19/17 35/18/17 85/17/17
f 39/19/17 85/17/17 88/20/17
f 32/23/18 30/22/18 77/21/18
f 32/23/18 77/21/18 82/24/18
