# Blender 5.1.1
# www.blender.org
mtllib FridgeDoorsUL.mtl
o FridgeDoorsUL
v -0.800000 2.200000 0.550000
v -0.800000 0.685952 0.550000
v -0.008833 2.200000 0.550000
v -0.008833 0.685952 0.550000
v -0.102786 0.721492 0.456438
v -0.102786 0.892903 0.456438
v -0.102786 0.721492 0.274725
v -0.102786 0.892903 0.274725
v -0.690457 0.721492 0.456438
v -0.690457 0.892903 0.456438
v -0.690457 0.721492 0.274725
v -0.690457 0.892903 0.274725
v -0.674406 0.892903 0.290775
v -0.118837 0.892903 0.290775
v -0.118837 0.892903 0.440388
v -0.674406 0.892903 0.440388
v -0.674406 0.734698 0.440388
v -0.118837 0.734698 0.440388
v -0.118837 0.734698 0.290775
v -0.674406 0.734698 0.290775
v -0.102786 1.246011 0.456438
v -0.102786 1.417422 0.456438
v -0.102786 1.246011 0.274725
v -0.102786 1.417422 0.274725
v -0.690457 1.246011 0.456438
v -0.690457 1.417422 0.456438
v -0.690457 1.246011 0.274725
v -0.690457 1.417422 0.274725
v -0.674406 1.417422 0.290775
v -0.118837 1.417422 0.290775
v -0.118837 1.417422 0.440388
v -0.674406 1.417422 0.440388
v -0.674406 1.259217 0.440388
v -0.118837 1.259217 0.440388
v -0.118837 1.259217 0.290775
v -0.674406 1.259217 0.290775
v -0.102786 1.770529 0.456438
v -0.102786 1.941941 0.456438
v -0.102786 1.770529 0.274725
v -0.102786 1.941941 0.274725
v -0.690457 1.770529 0.456438
v -0.690457 1.941941 0.456438
v -0.690457 1.770529 0.274725
v -0.690457 1.941941 0.274725
v -0.674406 1.941941 0.290775
v -0.118837 1.941941 0.290775
v -0.118837 1.941941 0.440388
v -0.674406 1.941941 0.440388
v -0.674406 1.783736 0.440388
v -0.118837 1.783736 0.440388
v -0.118837 1.783736 0.290775
v -0.674406 1.783736 0.290775
v -0.785168 2.185168 0.450000
v -0.800000 2.200000 0.464832
v -0.785168 0.700784 0.450000
v -0.800000 0.685952 0.464832
v -0.023665 2.185168 0.450000
v -0.008833 2.200000 0.464832
v -0.023665 0.700784 0.450000
v -0.008833 0.685952 0.464832
v -0.084304 0.783502 0.599882
v -0.084304 1.733054 0.599882
v -0.084304 0.783502 0.531032
v -0.084304 1.733054 0.531032
v -0.154897 0.783502 0.599882
v -0.154897 1.733054 0.599882
v -0.154897 0.783502 0.531032
v -0.154897 1.733054 0.531032
vn -0.0000 -1.0000 -0.0000
vn -0.0000 -0.0000 1.0000
vn -1.0000 -0.0000 -0.0000
vn -0.0000 1.0000 -0.0000
vn 1.0000 -0.0000 -0.0000
vn -0.0000 -0.0000 -1.0000
vn -0.7071 -0.0000 -0.7071
vn -0.0000 0.7071 -0.7071
vn -0.0000 -0.7071 -0.7071
vn 0.7071 -0.0000 -0.7071
vt 0.968750 0.192135
vt 0.812500 0.218750
vt 0.812500 0.192135
vt 0.968750 0.218750
vt 0.812500 0.500000
vt 0.785885 0.500000
vt 0.785885 0.218750
vt 0.968750 0.526615
vt 0.812500 0.526615
vt 1.000000 0.218750
vt 0.973385 0.500000
vt 1.000000 0.500000
vt 0.500000 0.906250
vt 0.437500 0.843750
vt 0.437500 0.906250
vt 0.500000 0.781250
vt 0.687500 0.843750
vt 0.687500 0.781250
vt 0.437500 0.781250
vt 0.500000 0.843750
vt 0.687500 0.718750
vt 0.500000 1.000000
vt 0.437500 0.937500
vt 0.437500 1.000000
vt 0.504846 0.849271
vt 0.682654 0.849270
vt 0.687500 0.906250
vt 0.682654 0.900730
vt 0.504846 0.900729
vt 0.687500 1.000000
vt 0.500000 0.937500
vt 0.687500 0.937500
vt 0.781250 0.497245
vt 0.781250 0.221505
vt 0.965821 0.531250
vt 0.815429 0.187500
vt 0.965821 0.187500
vt 0.965821 0.221505
vt 0.973385 0.218750
vt 0.965821 0.497245
vt 0.815429 0.221505
vt 0.815429 0.497245
vt 0.750000 0.687500
vt 0.781250 1.000000
vt 0.781250 0.687500
vt 0.812500 0.687500
vt 0.843750 1.000000
vt 0.843750 0.687500
vt 0.812500 1.000000
vt 0.750000 0.937500
vt 0.718750 0.968750
vt 0.750000 0.968750
vt 0.718750 1.000000
vt 0.750000 1.000000
vt 0.968750 0.500000
vt 0.500000 0.718750
vt 0.815429 0.531250
vt 0.718750 0.937500
s 1
usemtl Fridge.003
f 60/1/1 2/2/1 56/3/1
f 4/4/2 1/5/2 2/2/2
f 2/2/3 54/6/3 56/7/3
f 1/5/4 58/8/4 54/9/4
f 4/10/5 58/11/5 3/12/5
f 7/13/5 6/14/5 5/15/5
f 11/16/6 8/17/6 7/18/6
f 9/19/3 12/20/3 11/16/3
f 5/21/1 11/16/1 7/18/1
f 17/22/5 13/23/5 16/24/5
f 13/25/4 8/17/4 12/20/4
f 14/26/4 6/27/4 8/17/4
f 15/28/4 10/13/4 6/27/4
f 16/29/4 12/20/4 10/13/4
f 17/29/4 19/26/4 20/25/4
f 18/30/6 16/31/6 15/32/6
f 19/31/3 15/24/3 14/23/3
f 20/22/2 14/32/2 13/31/2
f 23/13/5 22/14/5 21/15/5
f 27/16/6 24/17/6 23/18/6
f 25/19/3 28/20/3 27/16/3
f 21/21/1 27/16/1 23/18/1
f 33/22/5 29/23/5 32/24/5
f 29/25/4 24/17/4 28/20/4
f 30/26/4 22/27/4 24/17/4
f 31/28/4 26/13/4 22/27/4
f 32/29/4 28/20/4 26/13/4
f 33/29/4 35/26/4 36/25/4
f 34/30/6 32/31/6 31/32/6
f 35/31/3 31/24/3 30/23/3
f 36/22/2 30/32/2 29/31/2
f 39/13/5 38/14/5 37/15/5
f 43/16/6 40/17/6 39/18/6
f 41/19/3 44/20/3 43/16/3
f 37/21/1 43/16/1 39/18/1
f 49/22/5 45/23/5 48/24/5
f 45/25/4 40/17/4 44/20/4
f 46/26/4 38/27/4 40/17/4
f 47/28/4 42/13/4 38/27/4
f 48/29/4 44/20/4 42/13/4
f 49/29/4 51/26/4 52/25/4
f 50/30/6 48/31/6 47/32/6
f 51/31/3 47/24/3 46/23/3
f 52/22/2 46/32/2 45/31/2
f 56/7/7 53/33/7 55/34/7
f 57/35/8 54/9/8 58/8/8
f 60/1/9 55/36/9 59/37/9
f 59/38/10 58/11/10 60/39/10
f 57/40/6 55/41/6 53/42/6
f 63/43/5 62/44/5 61/45/5
f 65/46/3 68/47/3 67/48/3
f 61/45/2 66/49/2 65/46/2
f 61/50/1 67/51/1 63/52/1
f 66/52/4 64/53/4 68/54/4
f 60/1/1 4/4/1 2/2/1
f 4/4/2 3/55/2 1/5/2
f 2/2/3 1/5/3 54/6/3
f 1/5/4 3/55/4 58/8/4
f 4/10/5 60/39/5 58/11/5
f 7/13/5 8/20/5 6/14/5
f 11/16/6 12/20/6 8/17/6
f 9/19/3 10/14/3 12/20/3
f 5/21/1 9/56/1 11/16/1
f 17/22/5 20/31/5 13/23/5
f 13/25/4 14/26/4 8/17/4
f 14/26/4 15/28/4 6/27/4
f 15/28/4 16/29/4 10/13/4
f 16/29/4 13/25/4 12/20/4
f 17/29/4 18/28/4 19/26/4
f 18/30/6 17/22/6 16/31/6
f 19/31/3 18/22/3 15/24/3
f 20/22/2 19/30/2 14/32/2
f 23/13/5 24/20/5 22/14/5
f 27/16/6 28/20/6 24/17/6
f 25/19/3 26/14/3 28/20/3
f 21/21/1 25/56/1 27/16/1
f 33/22/5 36/31/5 29/23/5
f 29/25/4 30/26/4 24/17/4
f 30/26/4 31/28/4 22/27/4
f 31/28/4 32/29/4 26/13/4
f 32/29/4 29/25/4 28/20/4
f 33/29/4 34/28/4 35/26/4
f 34/30/6 33/22/6 32/31/6
f 35/31/3 34/22/3 31/24/3
f 36/22/2 35/30/2 30/32/2
f 39/13/5 40/20/5 38/14/5
f 43/16/6 44/20/6 40/17/6
f 41/19/3 42/14/3 44/20/3
f 37/21/1 41/56/1 43/16/1
f 49/22/5 52/31/5 45/23/5
f 45/25/4 46/26/4 40/17/4
f 46/26/4 47/28/4 38/27/4
f 47/28/4 48/29/4 42/13/4
f 48/29/4 45/25/4 44/20/4
f 49/29/4 50/28/4 51/26/4
f 50/30/6 49/22/6 48/31/6
f 51/31/3 50/22/3 47/24/3
f 52/22/2 51/30/2 46/32/2
f 56/7/7 54/6/7 53/33/7
f 57/35/8 53/57/8 54/9/8
f 60/1/9 56/3/9 55/36/9
f 59/38/10 57/40/10 58/11/10
f 57/40/6 59/38/6 55/41/6
f 63/43/5 64/54/5 62/44/5
f 65/46/3 66/49/3 68/47/3
f 61/45/2 62/44/2 66/49/2
f 61/50/1 65/58/1 67/51/1
f 66/52/4 62/51/4 64/53/4
