# Blender 5.1.1
# www.blender.org
mtllib FridgeDoorsDL.mtl
o FridgeDoorsDL
v -0.800000 0.000000 0.550000
v -0.800000 0.670315 0.550000
v -0.008833 0.000000 0.550000
v -0.008833 0.670315 0.550000
v -0.123835 0.555313 0.450000
v -0.684998 0.555313 0.450000
v -0.684998 0.115002 0.450000
v -0.123835 0.115002 0.450000
v -0.123835 0.555313 -0.246965
v -0.684998 0.555313 -0.246965
v -0.123835 0.115002 -0.246965
v -0.684998 0.115002 -0.246965
v -0.161134 0.555313 0.412701
v -0.647699 0.555313 0.412701
v -0.647699 0.555313 -0.209666
v -0.161134 0.555313 -0.209666
v -0.161134 0.141543 0.412701
v -0.647699 0.141543 0.412701
v -0.161134 0.141543 -0.209666
v -0.647699 0.141543 -0.209666
v -0.800000 0.000000 0.464832
v -0.785168 0.014832 0.450000
v -0.800000 0.670315 0.464832
v -0.785168 0.655483 0.450000
v -0.023665 0.014832 0.450000
v -0.008833 0.000000 0.464832
v -0.008833 0.670315 0.464832
v -0.023665 0.655483 0.450000
v -0.100963 0.632181 0.599882
v -0.706289 0.632182 0.599882
v -0.100963 0.632181 0.531032
v -0.706289 0.632182 0.531032
v -0.100963 0.561589 0.599882
v -0.706289 0.561589 0.599882
v -0.100963 0.561589 0.531032
v -0.706289 0.561589 0.531032
vn -0.0000 -0.0000 -1.0000
vn -0.0000 -0.0000 1.0000
vn -1.0000 -0.0000 -0.0000
vn -0.0000 1.0000 -0.0000
vn -0.0000 -1.0000 -0.0000
vn 1.0000 -0.0000 -0.0000
vn 0.7071 -0.0000 -0.7071
vn -0.0000 0.7071 -0.7071
vn -0.7071 -0.0000 -0.7071
vn -0.0000 -0.7071 -0.7071
vt 0.965821 0.153484
vt 0.835212 0.134805
vt 0.815429 0.153484
vt 0.835212 0.052695
vt 0.965821 0.034016
vt 0.815429 0.034016
vt 0.968750 0.031250
vt 0.812500 0.156250
vt 0.812500 0.031250
vt 0.218750 0.906250
vt 0.125000 0.750000
vt 0.218750 0.750000
vt 0.946038 0.052695
vt 0.812500 0.182865
vt 0.968750 0.156250
vt 0.968750 0.182865
vt 0.812500 0.004635
vt 0.968750 0.004635
vt 0.995365 0.156250
vt 0.995365 0.031250
vt 0.125000 0.906250
vt -0.000000 1.000000
vt 0.125000 1.000000
vt 0.281250 0.906250
vt 0.281250 1.000000
vt -0.000000 0.750000
vt 0.437500 0.906250
vt 0.343750 0.750000
vt 0.437500 0.750000
vt 0.335442 0.758362
vt 0.227058 0.897888
vt 0.343750 0.906250
vt 0.335442 0.897888
vt 0.227058 0.758362
vt 0.406250 0.906250
vt 0.406250 1.000000
vt 1.000000 0.034016
vt 1.000000 0.153484
vt 0.965821 0.187500
vt 0.785885 0.031250
vt 0.781250 0.153484
vt 0.781250 0.034016
vt 0.815429 0.000000
vt 0.785885 0.156250
vt 0.750000 0.750000
vt 0.781250 0.968750
vt 0.781250 0.750000
vt 0.812500 0.750000
vt 0.843750 0.968750
vt 0.843750 0.750000
vt 0.812500 0.968750
vt 0.750000 0.937500
vt 0.718750 0.968750
vt 0.750000 0.968750
vt 0.718750 1.000000
vt 0.750000 1.000000
vt 0.946038 0.134805
vt -0.000000 0.906250
vt 0.815429 0.187500
vt 0.965821 0.000000
vt 0.718750 0.937500
s 1
usemtl Fridge.001
f 28/1/1 6/2/1 24/3/1
f 7/4/1 25/5/1 22/6/1
f 3/7/2 2/8/2 1/9/2
f 10/10/3 7/11/3 6/12/3
f 8/13/1 28/1/1 25/5/1
f 23/14/4 4/15/4 27/16/4
f 3/7/5 21/17/5 26/18/5
f 6/2/1 22/6/1 24/3/1
f 27/19/6 3/7/6 26/20/6
f 11/21/1 10/22/1 9/23/1
f 18/24/6 15/23/6 14/25/6
f 12/21/5 8/26/5 7/11/5
f 11/27/6 5/28/6 8/29/6
f 13/30/4 6/12/4 5/28/4
f 6/12/4 15/31/4 10/10/4
f 15/31/4 9/32/4 10/10/4
f 16/33/4 5/28/4 9/32/4
f 19/33/4 18/34/4 17/30/4
f 17/35/1 14/25/1 13/36/1
f 20/24/2 16/36/2 15/25/2
f 19/23/3 13/24/3 16/21/3
f 27/19/7 25/37/7 28/38/7
f 28/39/8 23/14/8 27/16/8
f 21/40/9 24/41/9 22/42/9
f 22/43/10 26/18/10 21/17/10
f 1/9/3 23/44/3 21/40/3
f 31/45/4 30/46/4 29/47/4
f 33/48/5 36/49/5 35/50/5
f 29/47/2 34/51/2 33/48/2
f 29/52/6 35/53/6 31/54/6
f 34/54/3 32/55/3 36/56/3
f 28/1/1 5/57/1 6/2/1
f 7/4/1 8/13/1 25/5/1
f 3/7/2 4/15/2 2/8/2
f 10/10/3 12/21/3 7/11/3
f 8/13/1 5/57/1 28/1/1
f 23/14/4 2/8/4 4/15/4
f 3/7/5 1/9/5 21/17/5
f 6/2/1 7/4/1 22/6/1
f 27/19/6 4/15/6 3/7/6
f 11/21/1 12/58/1 10/22/1
f 18/24/6 20/21/6 15/23/6
f 12/21/5 11/58/5 8/26/5
f 11/27/6 9/32/6 5/28/6
f 13/30/4 14/34/4 6/12/4
f 6/12/4 14/34/4 15/31/4
f 15/31/4 16/33/4 9/32/4
f 16/33/4 13/30/4 5/28/4
f 19/33/4 20/31/4 18/34/4
f 17/35/1 18/24/1 14/25/1
f 20/24/2 19/35/2 16/36/2
f 19/23/3 17/25/3 13/24/3
f 27/19/7 26/20/7 25/37/7
f 28/39/8 24/59/8 23/14/8
f 21/40/9 23/44/9 24/41/9
f 22/43/10 25/60/10 26/18/10
f 1/9/3 2/8/3 23/44/3
f 31/45/4 32/54/4 30/46/4
f 33/48/5 34/51/5 36/49/5
f 29/47/2 30/46/2 34/51/2
f 29/52/6 33/61/6 35/53/6
f 34/54/3 30/53/3 32/55/3
