# Blender 5.1.1
# www.blender.org
mtllib FridgeBody.mtl
o FridgeBody
v -0.800000 0.000000 0.450000
v -0.800000 2.200000 0.450000
v -0.800000 -0.000000 -0.400000
v -0.800000 2.200000 -0.400000
v 0.800000 0.000000 0.450000
v 0.800000 2.200000 0.450000
v 0.800000 -0.000000 -0.400000
v 0.800000 2.200000 -0.400000
v -0.700000 2.100000 0.450000
v -0.700000 0.100000 0.450000
v 0.700000 0.100000 0.450000
v 0.700000 2.100000 0.450000
v -0.700000 0.100000 -0.287306
v -0.700000 2.100000 -0.287306
v 0.700000 2.100000 -0.287306
v 0.700000 0.100000 -0.287306
v -0.040000 0.107390 0.442313
v -0.040000 2.117610 0.442313
v -0.040000 0.107390 -0.293887
v -0.040000 2.117610 -0.293887
v 0.040000 0.107390 0.442313
v 0.040000 2.117610 0.442313
v 0.040000 0.107390 -0.293887
v 0.040000 2.117610 -0.293887
v -0.708806 0.726846 0.438955
v 0.708806 0.726846 0.438955
v -0.708806 0.726846 -0.287429
v 0.708806 0.726846 -0.287429
v -0.708806 0.651845 0.438955
v 0.708806 0.651845 0.438955
v -0.708806 0.651845 -0.287429
v 0.708806 0.651845 -0.287429
v -0.708805 1.251845 0.438955
v 0.708806 1.251845 0.438955
v -0.708805 1.251845 -0.287429
v 0.708806 1.251845 -0.287429
v -0.708805 1.203050 0.438955
v 0.708806 1.203050 0.438955
v -0.708805 1.203050 -0.287429
v 0.708806 1.203050 -0.287429
v -0.708805 1.776845 0.438955
v 0.708806 1.776845 0.438955
v -0.708805 1.776845 -0.287429
v 0.708806 1.776845 -0.287429
v -0.708805 1.728050 0.438955
v 0.708806 1.728050 0.438955
v -0.708805 1.728050 -0.287429
v 0.708806 1.728050 -0.287429
vn -0.0000 -0.0000 -1.0000
vn -1.0000 -0.0000 -0.0000
vn 1.0000 -0.0000 -0.0000
vn -0.0000 -1.0000 -0.0000
vn -0.0000 1.0000 -0.0000
vn -0.0000 -0.0000 1.0000
vt 0.312500 0.406250
vt 0.000000 -0.000000
vt 0.312500 0.000000
vt 0.468750 0.406250
vt 0.468750 0.000000
vt 0.375000 0.718750
vt 0.687500 0.562500
vt 0.687500 0.718750
vt 0.687500 0.406250
vt 0.375000 0.562500
vt 0.000000 0.656250
vt 0.250000 0.531250
vt 0.250000 0.656250
vt 0.488281 0.387784
vt 0.761719 0.018466
vt 0.488281 0.018466
vt 0.781250 0.406250
vt 0.781250 0.000000
vt 0.761719 0.387784
vt -0.000000 0.406250
vt 0.250000 0.750000
vt -0.000000 0.750000
vt 0.000000 0.531250
vt 0.250000 0.406250
vt 0.375000 0.750000
vt 0.375000 0.406250
vt 0.968750 1.000000
vt 0.843750 0.656250
vt 0.968750 0.656250
vt 1.000000 0.656250
vt 1.000000 1.000000
vt 0.843750 0.718750
vt 0.968750 0.937500
vt 0.843750 0.937500
vt 1.000000 0.718750
vt 1.000000 0.937500
vt 0.843750 1.000000
vt 0.968750 0.718750
s 1
usemtl Fridge
f 4/1/1 7/2/1 3/3/1
f 2/4/2 3/3/2 1/5/2
f 8/4/3 5/3/3 7/5/3
f 7/6/4 1/7/4 3/8/4
f 8/9/5 2/10/5 6/7/5
f 9/11/4 15/12/4 12/13/4
f 1/5/6 9/14/6 2/4/6
f 1/5/6 11/15/6 10/16/6
f 6/17/6 11/15/6 5/18/6
f 2/4/6 12/19/6 6/17/6
f 13/20/6 15/21/6 14/22/6
f 11/12/5 13/11/5 10/23/5
f 10/24/3 14/25/3 9/21/3
f 12/25/2 16/24/2 11/26/2
f 18/27/2 19/28/2 17/29/2
f 24/27/3 21/28/3 23/29/3
f 22/27/6 17/30/6 21/31/6
f 26/32/5 27/33/5 25/34/5
f 31/33/4 30/32/4 29/34/4
f 25/35/6 30/33/6 26/36/6
f 34/32/5 35/33/5 33/34/5
f 39/33/4 38/32/4 37/34/4
f 33/35/6 38/33/6 34/36/6
f 42/32/5 43/33/5 41/34/5
f 47/33/4 46/32/4 45/34/4
f 41/35/6 46/33/6 42/36/6
f 4/1/1 8/20/1 7/2/1
f 2/4/2 4/1/2 3/3/2
f 8/4/3 6/1/3 5/3/3
f 7/6/4 5/10/4 1/7/4
f 8/9/5 4/26/5 2/10/5
f 9/11/4 14/23/4 15/12/4
f 1/5/6 10/16/6 9/14/6
f 1/5/6 5/18/6 11/15/6
f 6/17/6 12/19/6 11/15/6
f 2/4/6 9/14/6 12/19/6
f 13/20/6 16/24/6 15/21/6
f 11/12/5 16/13/5 13/11/5
f 10/24/3 13/26/3 14/25/3
f 12/25/2 15/21/2 16/24/2
f 18/27/2 20/37/2 19/28/2
f 24/27/3 22/37/3 21/28/3
f 22/27/6 18/29/6 17/30/6
f 26/32/5 28/38/5 27/33/5
f 31/33/4 32/38/4 30/32/4
f 25/35/6 29/38/6 30/33/6
f 34/32/5 36/38/5 35/33/5
f 39/33/4 40/38/4 38/32/4
f 33/35/6 37/38/6 38/33/6
f 42/32/5 44/38/5 43/33/5
f 47/33/4 48/38/4 46/32/4
f 41/35/6 45/38/6 46/33/6
