# Blender 5.1.1
# www.blender.org
mtllib FridgeDoorsDR.mtl
o FridgeDoorsDR
v 0.800000 0.000000 0.550000
v 0.800000 0.670315 0.550000
v 0.008833 0.000000 0.550000
v 0.008833 0.670315 0.550000
v 0.684998 0.115002 0.450000
v 0.684998 0.555313 0.450000
v 0.123835 0.555313 0.450000
v 0.123835 0.115002 0.450000
v 0.684998 0.555313 -0.246965
v 0.684998 0.115002 -0.246965
v 0.123835 0.115002 -0.246965
v 0.123835 0.555313 -0.246965
v 0.647699 0.555313 0.412701
v 0.161134 0.555313 0.412701
v 0.161134 0.555313 -0.209666
v 0.647699 0.555313 -0.209666
v 0.161134 0.141543 0.412701
v 0.647699 0.141543 0.412701
v 0.647699 0.141543 -0.209666
v 0.161134 0.141543 -0.209666
v 0.785168 0.014832 0.450000
v 0.800000 0.000000 0.464832
v 0.800000 0.670315 0.464832
v 0.785168 0.655483 0.450000
v 0.023665 0.014832 0.450000
v 0.008833 0.000000 0.464832
v 0.023665 0.655483 0.450000
v 0.008833 0.670315 0.464832
v 0.100963 0.632181 0.599882
v 0.706289 0.632182 0.599882
v 0.100963 0.632181 0.531032
v 0.706289 0.632182 0.531032
v 0.100963 0.561589 0.599882
v 0.706289 0.561589 0.599882
v 0.100963 0.561589 0.531032
v 0.706289 0.561589 0.531032
vn -0.0000 -0.0000 -1.0000
vn -0.0000 -0.0000 1.0000
vn 1.0000 -0.0000 -0.0000
vn -0.0000 -1.0000 -0.0000
vn -0.0000 1.0000 -0.0000
vn -1.0000 -0.0000 -0.0000
vn 0.7071 -0.0000 -0.7071
vn -0.0000 -0.7071 -0.7071
vn -0.7071 -0.0000 -0.7071
vn -0.0000 0.7071 -0.7071
vt 0.835212 0.052695
vt 0.965821 0.034016
vt 0.815429 0.034016
vt 0.968750 0.031250
vt 0.812500 0.156250
vt 0.812500 0.031250
vt 0.968750 0.156250
vt 0.995365 0.031250
vt 0.995365 0.156250
vt 0.125000 0.906250
vt -0.000000 0.750000
vt 0.125000 0.750000
vt 0.835212 0.134805
vt 0.815429 0.153484
vt 0.812500 0.004635
vt 0.968750 0.004635
vt 0.812500 0.182865
vt 0.968750 0.182865
vt 0.785885 0.156250
vt 0.785885 0.031250
vt 0.946038 0.134805
vt 0.965821 0.153484
vt -0.000000 0.906250
vt 0.125000 1.000000
vt 0.281250 0.906250
vt 0.406250 1.000000
vt 0.281250 1.000000
vt 0.437500 0.906250
vt 0.343750 0.750000
vt 0.437500 0.750000
vt 0.218750 0.906250
vt 0.218750 0.750000
vt 0.335442 0.758362
vt 0.227058 0.758362
vt 0.227058 0.897888
vt 0.343750 0.906250
vt 0.335442 0.897888
vt 0.406250 0.906250
vt 1.000000 0.034016
vt 1.000000 0.153484
vt 0.815429 0.000000
vt 0.781250 0.153484
vt 0.965821 0.187500
vt 0.815429 0.187500
vt 0.946038 0.052695
vt 0.781250 0.968750
vt 0.750000 0.750000
vt 0.781250 0.750000
vt 0.843750 0.968750
vt 0.812500 0.750000
vt 0.843750 0.750000
vt 0.812500 0.968750
vt 0.718750 0.968750
vt 0.750000 0.937500
vt 0.750000 0.968750
vt 0.718750 1.000000
vt 0.750000 1.000000
vt -0.000000 1.000000
vt 0.965821 0.000000
vt 0.781250 0.034016
vt 0.718750 0.937500
s 1
usemtl Fridge.002
f 8/1/1 21/2/1 25/3/1
f 1/4/2 4/5/2 3/6/2
f 2/7/3 22/8/3 23/9/3
f 11/10/4 5/11/4 8/12/4
f 7/13/1 25/3/1 27/14/1
f 1/4/4 26/15/4 22/16/4
f 28/17/5 2/7/5 23/18/5
f 3/6/6 28/19/6 26/20/6
f 6/21/1 27/14/1 24/22/1
f 11/23/1 9/24/1 10/10/1
f 20/25/2 16/26/2 15/27/2
f 10/28/3 6/29/3 5/30/3
f 12/31/6 8/12/6 7/32/6
f 13/33/5 7/32/5 6/29/5
f 14/34/5 12/31/5 7/32/5
f 15/35/5 9/36/5 12/31/5
f 16/37/5 6/29/5 9/36/5
f 19/37/5 17/34/5 18/33/5
f 19/10/6 13/27/6 16/24/6
f 17/27/3 15/10/3 14/25/3
f 18/38/1 14/27/1 13/26/1
f 23/9/7 21/39/7 24/40/7
f 25/41/8 22/16/8 26/15/8
f 27/42/9 26/20/9 28/19/9
f 28/17/10 24/43/10 27/44/10
f 5/45/1 24/22/1 21/2/1
f 30/46/5 31/47/5 29/48/5
f 36/49/4 33/50/4 35/51/4
f 34/52/2 29/48/2 33/50/2
f 35/53/6 29/54/6 31/55/6
f 32/56/3 34/55/3 36/57/3
f 8/1/1 5/45/1 21/2/1
f 1/4/2 2/7/2 4/5/2
f 2/7/3 1/4/3 22/8/3
f 11/10/4 10/23/4 5/11/4
f 7/13/1 8/1/1 25/3/1
f 1/4/4 3/6/4 26/15/4
f 28/17/5 4/5/5 2/7/5
f 3/6/6 4/5/6 28/19/6
f 6/21/1 7/13/1 27/14/1
f 11/23/1 12/58/1 9/24/1
f 20/25/2 19/38/2 16/26/2
f 10/28/3 9/36/3 6/29/3
f 12/31/6 11/10/6 8/12/6
f 13/33/5 14/34/5 7/32/5
f 14/34/5 15/35/5 12/31/5
f 15/35/5 16/37/5 9/36/5
f 16/37/5 13/33/5 6/29/5
f 19/37/5 20/35/5 17/34/5
f 19/10/6 18/25/6 13/27/6
f 17/27/3 20/24/3 15/10/3
f 18/38/1 17/25/1 14/27/1
f 23/9/7 22/8/7 21/39/7
f 25/41/8 21/59/8 22/16/8
f 27/42/9 25/60/9 26/20/9
f 28/17/10 23/18/10 24/43/10
f 5/45/1 6/21/1 24/22/1
f 30/46/5 32/55/5 31/47/5
f 36/49/4 34/52/4 33/50/4
f 34/52/2 30/46/2 29/48/2
f 35/53/6 33/61/6 29/54/6
f 32/56/3 30/53/3 34/55/3
