# Blender 5.1.1
# www.blender.org
mtllib Knife.mtl
o Knife
v -0.031975 0.008575 0.150011
v -0.036224 0.010000 -0.162000
v -0.035169 0.010000 -0.122199
v -0.035131 0.008575 -0.016269
v 0.028230 0.005079 -0.016269
v -0.023522 0.005000 0.195049
v -0.001879 0.010000 -0.162000
v -0.003927 0.008575 -0.016269
v -0.005734 0.010000 -0.122199
v -0.035235 0.008575 0.069833
v -0.006877 0.008575 0.067302
v -0.009602 0.008575 0.145096
v -0.005657 0.010000 -0.023139
v -0.035557 0.010000 -0.023139
v -0.031975 0.001425 0.150011
v 0.019045 0.004921 0.138805
v -0.036224 -0.000000 -0.162000
v -0.035169 -0.000000 -0.122199
v -0.035131 0.001425 -0.016269
v -0.001879 -0.000000 -0.162000
v -0.003927 0.001425 -0.016269
v -0.005734 -0.000000 -0.122199
v -0.035235 0.001425 0.069833
v 0.025593 0.004921 0.064230
v -0.006877 0.001425 0.067302
v -0.009602 0.001425 0.145096
v -0.005657 -0.000000 -0.023139
v -0.035557 -0.000000 -0.023139
vn -0.0000 1.0000 -0.0000
vn 0.1088 0.9940 0.0056
vn 0.1114 0.9938 0.0043
vn 0.1131 0.9935 0.0097
vn 0.0167 0.9970 0.0760
vn 0.1499 0.9823 0.1121
vn 0.1275 0.9918 0.0045
vn -0.0000 0.9792 0.2031
vn -0.0000 -1.0000 -0.0000
vn 0.1085 -0.9941 0.0033
vn 0.1114 -0.9938 0.0030
vn 0.1076 -0.9942 0.0094
vn 0.0167 -0.9970 0.0760
vn 0.1443 -0.9833 0.1106
vn 0.1221 -0.9925 0.0043
vn -0.0000 -0.9792 0.2031
vn -0.9992 -0.0000 0.0406
vn 1.0000 -0.0000 -0.0008
vn -0.0000 -0.0000 -1.0000
vn -0.9981 -0.0000 0.0619
vn -0.9828 -0.0000 0.1845
vn -0.9996 -0.0000 0.0265
vn 0.9953 -0.0000 0.0964
vn -1.0000 -0.0000 -0.0012
vn 0.9697 -0.0000 -0.2442
vn 0.9696 -0.0000 -0.2445
vn -1.0000 -0.0000 -0.0039
vn 0.1081 0.9941 0.0055
vn 0.1127 0.9936 0.0099
vn 0.1129 -0.9936 0.0017
vn 0.1079 -0.9941 0.0095
vt 0.750000 0.625000
vt 0.625000 0.875000
vt 0.625000 0.625000
vt 0.875000 0.375000
vt 0.750000 0.375000
vt 0.625000 0.375000
vt 0.750000 0.875000
vt 0.625000 1.000000
vt 0.625000 0.125000
vt 0.750000 -0.000000
vt 0.750000 0.125000
vt 0.875000 0.125000
vt 0.625000 0.500000
vt 0.250000 0.875000
vt 0.375000 0.625000
vt 0.250000 0.625000
vt 0.500000 0.375000
vt 0.375000 0.375000
vt 0.250000 0.375000
vt 0.250000 1.000000
vt 0.375000 0.875000
vt 0.250000 0.125000
vt 0.375000 0.125000
vt 0.375000 0.000000
vt 0.500000 0.125000
vt 0.250000 0.500000
vt 0.375000 0.500000
vt 0.875000 0.625000
vt 1.000000 0.875000
vt 0.875000 0.875000
vt 0.125000 1.000000
vt 0.000000 0.875000
vt 0.000000 1.000000
vt 0.500000 0.500000
vt 0.500000 0.625000
vt 0.625000 -0.000000
vt 0.500000 0.875000
vt 0.500000 1.000000
vt 0.000000 0.750000
vt 0.125000 0.750000
vt 0.000000 0.625000
vt 0.875000 1.000000
vt 1.000000 1.000000
vt 1.000000 0.500000
vt 1.000000 0.625000
vt 0.750000 1.000000
vt 0.750000 0.500000
vt 0.375000 1.000000
vt 0.125000 0.875000
vt 0.875000 0.500000
s 1
usemtl Knife
f 13/1/1 3/2/1 14/3/1
f 24/4/2 8/1/3 11/5/4
f 11/5/1 4/3/1 10/6/1
f 9/7/1 2/8/1 3/2/1
f 1/9/5 6/10/5 12/11/5
f 6/10/6 16/12/6 12/11/6
f 12/11/1 10/6/1 1/9/1
f 16/12/7 11/5/7 12/11/7
f 4/13/8 13/1/8 14/3/8
f 18/14/9 27/15/9 28/16/9
f 21/15/10 24/17/11 25/18/12
f 19/16/9 25/18/9 23/19/9
f 17/20/9 22/21/9 18/14/9
f 15/22/13 26/23/13 6/24/13
f 6/24/14 26/23/14 16/25/14
f 26/23/9 23/19/9 25/18/9
f 25/18/15 16/25/15 26/23/15
f 19/26/16 27/15/16 21/27/16
f 10/17/17 15/9/17 1/25/17
f 13/28/18 22/29/18 9/30/18
f 7/31/19 17/32/19 2/33/19
f 14/3/20 19/34/20 4/35/20
f 6/36/21 1/25/21 15/9/21
f 2/8/22 18/37/22 3/38/22
f 8/39/19 5/40/19 21/41/19
f 9/42/23 20/29/23 7/43/23
f 4/35/24 23/6/24 10/17/24
f 8/28/25 27/44/25 13/45/26
f 3/37/27 28/3/27 14/35/27
f 13/1/1 9/7/1 3/2/1
f 24/4/2 5/28/28 8/1/3
f 11/5/1 8/1/1 4/3/1
f 9/7/1 7/46/1 2/8/1
f 12/11/1 11/5/1 10/6/1
f 16/12/29 24/4/2 11/5/4
f 4/13/8 8/47/8 13/1/8
f 18/14/9 22/21/9 27/15/9
f 21/15/10 5/35/30 24/17/11
f 19/16/9 21/15/9 25/18/9
f 17/20/9 20/48/9 22/21/9
f 26/23/9 15/22/9 23/19/9
f 25/18/12 24/17/11 16/25/31
f 19/26/16 28/16/16 27/15/16
f 10/17/17 23/6/17 15/9/17
f 13/28/18 27/45/18 22/29/18
f 7/31/19 20/49/19 17/32/19
f 14/3/20 28/13/20 19/34/20
f 2/8/22 17/2/22 18/37/22
f 9/42/23 22/30/23 20/29/23
f 4/35/24 19/3/24 23/6/24
f 8/28/25 21/50/25 27/44/25
f 3/37/27 18/2/27 28/3/27
