# Blender 5.0.1
# www.blender.org
mtllib StickyNote02.mtl
o StickyNote02
v 0.040000 0.000000 -0.040000
v -0.040000 0.000000 -0.040000
v 0.040000 0.007799 0.040000
v -0.040000 0.004352 0.040000
v 0.040000 0.000000 -0.022273
v -0.000000 0.000000 -0.040000
v -0.040000 0.000000 -0.021002
v 0.000000 0.004352 0.040000
v -0.000000 0.000000 -0.021002
vn -0.0000 0.9975 -0.0712
vn -0.0039 0.9922 -0.1243
vn -0.0000 1.0000 -0.0000
vn -0.0857 0.9938 -0.0709
vt 0.000000 0.781250
vt 0.500000 -0.000000
vt 0.500000 0.781250
vt 1.000000 -0.000000
vt 1.000000 0.781250
vt 0.500000 1.000000
vt 1.000000 1.000000
vt 0.000000 1.000000
vt 0.000000 -0.000000
s 0
usemtl 32x32grid
f 7/1/1 8/2/1 9/3/1
f 9/3/2 3/4/2 5/5/2
f 6/6/3 5/5/3 1/7/3
f 2/8/3 9/3/3 6/6/3
f 7/1/1 4/9/1 8/2/1
f 9/3/4 8/2/4 3/4/4
f 6/6/3 9/3/3 5/5/3
f 2/8/3 7/1/3 9/3/3
