# Blender 5.0.1
# www.blender.org
mtllib StickyNoteStack02.mtl
o StickyNoteStack02
v 0.040000 0.000000 -0.040000
v -0.040000 0.000000 -0.040000
v 0.040000 0.000000 0.040000
v -0.040000 0.000000 0.040000
v 0.040000 0.018594 0.040000
v 0.040000 0.018594 -0.040000
v -0.040000 0.018594 -0.040000
v -0.040000 0.018594 0.040000
v 0.040000 0.020631 0.040000
v 0.040000 0.018641 -0.040000
v -0.040000 0.018641 -0.040000
v -0.040000 0.024296 0.040000
v 0.040000 0.018641 -0.018102
v -0.000000 0.018641 -0.040000
v -0.040000 0.018641 -0.020040
v 0.000000 0.020631 0.040000
v -0.000000 0.018641 -0.018102
vn -0.0000 -1.0000 -0.0000
vn -0.0000 1.0000 -0.0000
vn -1.0000 -0.0000 -0.0000
vn 1.0000 -0.0000 -0.0000
vn -0.0000 -0.0000 1.0000
vn -0.0000 -0.0000 -1.0000
vn 0.0912 0.9953 -0.0341
vn -0.0000 0.9994 -0.0342
vn 0.0045 0.9956 -0.0938
vt 0.218750 1.000000
vt 1.000000 0.218750
vt 0.218750 0.218750
vt 0.031250 0.218750
vt 0.031250 1.000000
vt 1.000000 0.031250
vt 0.218750 0.031250
vt 0.500000 0.718750
vt -0.000000 0.000000
vt 0.500000 0.000000
vt 1.000000 0.000000
vt 1.000000 0.718750
vt 0.500000 1.000000
vt 1.000000 1.000000
vt -0.000000 0.718750
vt -0.000000 1.000000
s 0
usemtl 32x32grid
f 17/8/7 12/9/7 16/10/7
f 17/8/8 9/11/8 13/12/8
f 14/13/2 13/12/2 10/14/2
f 14/13/2 15/15/2 17/8/2
f 17/8/9 15/15/9 12/9/9
f 17/8/8 16/10/8 9/11/8
f 14/13/2 17/8/2 13/12/2
f 14/13/2 11/16/2 15/15/2
usemtl StickyNoteStack
f 3/1/1 2/2/1 1/3/1
f 7/2/2 5/1/2 6/3/2
f 4/1/3 7/4/3 2/3/3
f 1/4/4 5/1/4 3/5/4
f 3/3/5 8/6/5 4/2/5
f 2/6/6 6/3/6 1/7/6
f 3/1/1 4/14/1 2/2/1
f 7/2/2 8/14/2 5/1/2
f 4/1/3 8/5/3 7/4/3
f 1/4/4 6/3/4 5/1/4
f 3/3/5 5/7/5 8/6/5
f 2/6/6 7/2/6 6/3/6
