# Blender 5.0.1
# www.blender.org
mtllib StickyNoteStack01.mtl
o StickyNoteStack01
v 0.040000 0.000000 -0.040000
v -0.040000 0.000000 -0.040000
v 0.040000 0.000000 0.040000
v -0.040000 0.000000 0.040000
v 0.040000 0.018594 0.040000
v 0.040000 0.018594 -0.040000
v -0.040000 0.018594 -0.040000
v -0.040000 0.018594 0.040000
vn -0.0000 -1.0000 -0.0000
vn -0.0000 1.0000 -0.0000
vn -1.0000 -0.0000 -0.0000
vn 1.0000 -0.0000 -0.0000
vn -0.0000 -0.0000 1.0000
vn -0.0000 -0.0000 -1.0000
vt 0.218750 1.000000
vt 1.000000 0.218750
vt 0.218750 0.218750
vt 0.031250 0.218750
vt 0.031250 1.000000
vt 1.000000 0.031250
vt 0.218750 0.031250
vt 1.000000 1.000000
s 0
usemtl StickyNoteStack
f 3/1/1 2/2/1 1/3/1
f 7/2/2 5/1/2 6/3/2
f 4/1/3 7/4/3 2/3/3
f 1/4/4 5/1/4 3/5/4
f 3/3/5 8/6/5 4/2/5
f 2/6/6 6/3/6 1/7/6
f 3/1/1 4/8/1 2/2/1
f 7/2/2 8/8/2 5/1/2
f 4/1/3 8/5/3 7/4/3
f 1/4/4 6/3/4 5/1/4
f 3/3/5 5/7/5 8/6/5
f 2/6/6 7/2/6 6/3/6
