# Blender 5.0.1
# www.blender.org
mtllib BigCardboardBox02.mtl
o BigCardboardBox02
v -0.200000 0.000000 0.200000
v -0.200000 0.400000 0.200000
v -0.200000 0.000000 -0.200000
v -0.200000 0.400000 -0.200000
v 0.200000 0.000000 0.200000
v 0.200000 0.400000 0.200000
v 0.200000 0.000000 -0.200000
v 0.200000 0.400000 -0.200000
vn -1.0000 -0.0000 -0.0000
vn -0.0000 -0.0000 -1.0000
vn 1.0000 -0.0000 -0.0000
vn -0.0000 -0.0000 1.0000
vn -0.0000 -1.0000 -0.0000
vn -0.0000 1.0000 -0.0000
vt 0.312500 0.312500
vt 0.000000 0.000000
vt 0.312500 0.000000
vt 0.656250 0.656250
vt 0.343750 0.343750
vt 0.656250 0.343750
vt 1.000000 0.312500
vt 0.687500 0.000000
vt 1.000000 0.000000
vt 0.312500 0.656250
vt 0.000000 0.343750
vt 0.312500 0.343750
vt 0.343750 0.656250
vt 0.343750 1.000000
vt 0.656250 0.687500
vt 0.656250 1.000000
vt 0.000000 0.312500
vt 0.687500 0.312500
vt 0.000000 0.656250
vt 0.343750 0.687500
s 0
usemtl CardboardBox
f 2/1/1 3/2/1 1/3/1
f 4/4/2 7/5/2 3/6/2
f 8/7/3 5/8/3 7/9/3
f 6/10/4 1/11/4 5/12/4
f 7/13/5 1/6/5 3/4/5
f 4/14/6 6/15/6 8/16/6
f 2/1/1 4/17/1 3/2/1
f 4/4/2 8/13/2 7/5/2
f 8/7/3 6/18/3 5/8/3
f 6/10/4 2/19/4 1/11/4
f 7/13/5 5/5/5 1/6/5
f 4/14/6 2/20/6 6/15/6
