# Blender 5.0.1
# www.blender.org
mtllib FoldedTowel.mtl
o FoldedTowel
v -0.138458 0.005000 -0.150000
v -0.138458 0.095000 -0.150000
v 0.138458 0.005000 -0.150000
v 0.138458 0.095000 -0.150000
v -0.138458 0.005000 0.124986
v -0.138458 0.030014 0.150000
v -0.138458 0.069986 0.150000
v -0.138458 0.095000 0.124986
v 0.138458 0.030014 0.150000
v 0.138458 0.005000 0.124986
v 0.138458 0.095000 0.124986
v 0.138458 0.069986 0.150000
v -0.135127 0.050000 -0.136424
v 0.135127 0.050000 -0.136424
v 0.135127 0.050000 0.121679
v -0.135127 0.050000 0.121679
vn -0.0000 -0.2888 -0.9574
vn -0.0000 -0.7071 0.7071
vn -0.0000 0.7071 0.7071
vn -0.0000 -1.0000 -0.0000
vn -0.9854 -0.0612 -0.1591
vn -0.0000 -0.0000 1.0000
vn -0.0000 1.0000 -0.0000
vn 0.9932 -0.0000 -0.1168
vn 0.9973 -0.0738 -0.0000
vn -0.9973 -0.0738 -0.0000
vn -0.9973 0.0738 -0.0000
vn 0.9973 0.0738 -0.0000
vn -0.0000 0.2888 -0.9574
vn -0.9953 0.0686 -0.0686
vn -1.0000 -0.0000 -0.0000
vn 0.9953 0.0686 -0.0686
vn 0.9953 -0.0686 -0.0686
vt 0.249906 0.875674
vt 0.312406 0.438174
vt 0.312406 0.875674
vt -0.000094 0.037152
vt 0.437406 0.000674
vt 0.437406 0.037152
vt 0.437406 0.037152
vt 0.874906 0.000674
vt 0.874906 0.037152
vt -0.000094 0.438174
vt 0.437406 0.438174
vt 0.090165 0.938174
vt -0.000094 0.896484
vt 0.062406 0.896484
vt 0.409647 0.875674
vt 0.465165 0.438174
vt 0.465165 0.875674
vt 0.874906 0.438174
vt 0.187406 0.479863
vt 0.159647 0.438174
vt 0.215165 0.438174
vt 0.187406 0.938174
vt 0.124906 0.479863
vt 0.062406 0.438174
vt 0.124906 0.896484
vt 0.124906 0.438174
vt 0.249906 0.479863
vt 0.249906 0.938174
vt 0.374906 0.438174
vt 0.374906 0.875674
vt 0.249906 0.438174
vt -0.000094 0.000674
vt 0.034647 0.938174
vt 0.409647 0.438174
vt 0.124906 0.938174
s 0
usemtl FoldedTowel
f 2/1/1 14/2/1 13/3/1
f 10/4/2 6/5/2 5/6/2
f 8/7/3 12/8/3 11/9/3
f 3/10/4 5/6/4 1/11/4
f 6/12/5 8/13/5 16/14/5
f 12/15/6 6/16/6 9/17/6
f 2/11/7 11/9/7 4/18/7
f 15/19/8 12/20/8 9/21/8
f 14/22/9 11/23/9 15/19/9
f 13/24/10 8/13/10 2/10/10
f 5/25/11 13/24/11 1/26/11
f 14/22/12 10/27/12 3/28/12
f 13/3/13 3/29/13 1/30/13
f 2/1/1 4/31/1 14/2/1
f 10/4/2 9/32/2 6/5/2
f 8/7/3 7/5/3 12/8/3
f 3/10/4 10/4/4 5/6/4
f 16/14/14 5/25/14 6/12/14
f 6/12/15 7/33/15 8/13/15
f 12/15/6 7/34/6 6/16/6
f 2/11/7 8/7/7 11/9/7
f 9/21/16 10/27/16 15/19/16
f 15/19/17 11/23/17 12/20/17
f 14/22/9 4/35/9 11/23/9
f 13/24/10 16/14/10 8/13/10
f 5/25/11 16/14/11 13/24/11
f 14/22/12 15/19/12 10/27/12
f 13/3/13 14/2/13 3/29/13
