# Blender 5.0.1
# www.blender.org
mtllib BrokenSmallCardboardPackage.mtl
o BrokenSmallCardboardPackage
v -0.083667 -0.002082 0.065958
v -0.079599 0.030970 0.060181
v -0.082951 0.001004 -0.061810
v -0.079226 0.028713 -0.059910
v 0.078528 0.001955 0.064458
v 0.082123 0.029886 0.066447
v 0.081373 -0.001763 -0.060642
v 0.080521 0.030548 -0.062699
v -0.103064 0.016034 0.065098
v -0.104418 0.015513 -0.064336
v 0.104766 0.013736 -0.064910
v 0.105851 0.012940 0.067314
v -0.080206 0.015259 0.053770
v 0.080951 0.015317 0.054310
v -0.079421 0.015684 -0.054844
v 0.082541 0.015219 -0.052135
v -0.084030 0.002224 0.002508
v -0.083289 0.027816 -0.000659
v -0.001339 0.000278 -0.064250
v 0.003471 0.029152 -0.061327
v 0.083587 0.001196 -0.000025
v 0.080426 0.030517 0.000273
v 0.000668 0.000313 0.063290
v 0.000916 0.027722 0.067436
v -0.092578 0.023078 0.064303
v -0.096171 0.007846 -0.063514
v 0.091997 0.007702 -0.064194
v 0.092978 0.008100 0.064243
v -0.093015 0.007036 0.062780
v -0.090621 0.022602 -0.060203
v 0.093949 0.022019 -0.065585
v 0.092677 0.022924 0.064397
v -0.092007 0.015142 0.059785
v 0.104307 0.015516 0.000003
v 0.089749 0.014162 -0.060493
v -0.103957 0.017755 0.000981
v -0.000771 0.015475 0.054721
v -0.079415 0.020870 0.060451
v -0.076980 0.009746 0.059800
v 0.092643 0.015603 0.058224
v 0.077518 0.023821 0.061005
v 0.078202 0.010167 0.063287
v -0.088152 0.014299 -0.057130
v -0.080478 0.023328 -0.059418
v -0.078902 0.007514 -0.060122
v 0.004385 0.016497 -0.056140
v 0.075710 0.023192 -0.058336
v 0.081631 0.006289 -0.061102
v -0.000675 0.022556 -0.062567
v -0.000451 0.007608 -0.059221
v -0.002342 0.010595 0.059723
v 0.001297 0.023813 0.062111
v -0.088925 0.008182 -0.000313
v 0.091647 0.006642 -0.001726
v -0.079157 0.031736 -0.032058
v -0.079856 0.000175 0.033099
v 0.094326 0.021096 0.001094
v -0.091829 0.022935 0.000006
v -0.041034 -0.000903 -0.066399
v 0.035526 0.031569 -0.064081
v 0.078460 0.001527 -0.034036
v 0.079160 0.028805 0.033639
v 0.039825 -0.000253 0.065433
v -0.040664 0.031966 0.064145
v -0.079119 -0.000197 -0.031036
v -0.082025 0.027936 0.029089
v 0.039284 0.000037 -0.065672
v -0.041558 0.032602 -0.067151
v 0.082363 -0.002303 0.033875
v 0.078133 0.032605 -0.035521
v -0.040258 0.001140 0.065262
v 0.039927 0.030626 0.064008
v 0.041019 0.029447 0.035653
v 0.041206 0.030928 0.000485
v 0.041242 0.032402 -0.032339
v 0.000374 0.030870 0.035392
v -0.001305 0.031238 0.002836
v -0.002425 0.029009 -0.035686
v -0.041713 0.030028 -0.031530
v -0.037952 0.030760 -0.002854
v -0.039352 0.030528 0.037470
v 0.043835 0.002022 -0.034838
v 0.036026 0.002130 0.002089
v 0.039770 -0.001253 0.033285
v -0.001169 0.001326 0.031486
v -0.000167 -0.000091 -0.002247
v -0.000362 0.001243 -0.032512
v -0.036610 -0.001848 0.034378
v -0.036555 -0.000361 -0.001837
v -0.039408 0.002218 -0.029199
vn -0.4686 0.8784 -0.0942
vn -0.3699 -0.2830 -0.8849
vn 0.5387 0.8391 -0.0763
vn 0.5669 0.8237 0.0082
vn 0.3875 -0.9052 0.1746
vn 0.3082 -0.7461 0.5902
vn 0.0978 0.4155 0.9043
vn 0.5734 -0.8192 0.0065
vn 0.1935 0.1318 -0.9722
vn -0.5320 -0.8442 0.0655
vn 0.0089 -0.6645 0.7473
vn -0.0446 0.1393 0.9893
vn -0.5490 -0.5374 0.6402
vn -0.0269 0.7198 0.6937
vn 0.3815 -0.2189 -0.8981
vn -0.0178 0.3361 -0.9417
vn 0.0449 -0.7091 -0.7037
vn -0.2457 0.4161 -0.8755
vn -0.5561 0.6165 -0.5575
vn -0.3116 0.3884 -0.8672
vn -0.2798 -0.0458 -0.9590
vn -0.0387 -0.5170 -0.8551
vn 0.1352 0.1003 -0.9857
vn 0.0145 -0.5172 -0.8558
vn 0.0478 0.7053 -0.7073
vn -0.0254 0.5677 -0.8228
vn -0.0901 0.3022 -0.9490
vn 0.2925 -0.4609 -0.8379
vn 0.0959 -0.3203 -0.9425
vn 0.0845 -0.1101 -0.9903
vn -0.0101 0.7353 0.6777
vn 0.0521 0.3409 0.9386
vn 0.0168 0.1418 0.9898
vn -0.2247 -0.6572 0.7195
vn -0.2048 -0.6304 0.7487
vn -0.2125 -0.5583 0.8020
vn -0.1721 0.8763 0.4499
vn 0.0372 0.6264 0.7786
vn -0.3866 0.5666 0.7277
vn 0.0028 -0.6179 0.7862
vn 0.1115 -0.7973 0.5932
vn -0.1019 0.0248 0.9945
vn -0.7561 -0.6513 -0.0637
vn -0.6698 -0.7314 -0.1279
vn -0.5396 -0.8405 -0.0503
vn 0.1308 0.5437 -0.8290
vn 0.1677 0.5801 -0.7971
vn 0.4019 0.3412 -0.8498
vn 0.5489 -0.8332 -0.0662
vn 0.6861 -0.7090 0.1628
vn 0.4266 -0.9043 -0.0130
vn 0.4349 0.2639 0.8609
vn 0.1180 0.3311 0.9362
vn 0.2790 0.7784 0.5624
vn 0.3592 -0.4420 0.8220
vn 0.1719 -0.4779 0.8614
vn 0.2855 0.0308 0.9579
vn 0.5444 -0.8340 -0.0902
vn -0.0200 0.9983 -0.0548
vn 0.3900 -0.9207 -0.0134
vn -0.4376 0.8992 -0.0071
vn 0.0577 -0.9979 0.0309
vn 0.5335 0.8456 -0.0171
vn 0.6015 0.7987 0.0168
vn 0.6086 0.7933 -0.0175
vn 0.5605 0.8281 0.0124
vn -0.5419 -0.7536 -0.3720
vn -0.3644 -0.3615 -0.8582
vn -0.2671 -0.4195 -0.8676
vn -0.4503 0.8924 -0.0275
vn -0.5558 0.8308 0.0300
vn -0.4951 0.8686 0.0176
vn -0.5287 0.8478 -0.0415
vn 0.6973 -0.7168 0.0018
vn -0.7861 -0.6145 0.0661
vn -0.5493 -0.8340 -0.0508
vn -0.4618 -0.8867 0.0229
vn -0.5237 -0.8495 0.0646
vn -0.1280 -0.8038 0.5809
vn -0.0092 -0.2867 0.9580
vn -0.0554 -0.6432 0.7637
vn 0.0137 -0.3395 0.9405
vn -0.0473 0.3150 0.9479
vn -0.0398 0.3399 0.9396
vn -0.0208 0.4710 0.8819
vn -0.0050 0.5205 0.8539
vn 0.0279 0.5633 -0.8258
vn 0.0082 0.6214 -0.7834
vn 0.1159 -0.0603 -0.9914
vn -0.0079 0.6243 -0.7811
vn -0.1013 0.2449 -0.9642
vn 0.0544 -0.3740 -0.9258
vn -0.1839 -0.0470 -0.9818
vn -0.0384 -0.5399 -0.8408
vn 0.5573 0.8279 0.0636
vn 0.4274 0.9039 -0.0150
vn -0.4932 0.8688 0.0436
vn -0.5981 0.8013 -0.0164
vn -0.0613 0.9981 0.0036
vn 0.0460 0.9984 -0.0315
vn 0.0236 0.9993 -0.0305
vn -0.0005 0.9983 0.0583
vn 0.0107 0.9986 0.0516
vn 0.0195 0.9992 -0.0347
vn -0.0889 0.9935 0.0714
vn 0.0098 0.9989 0.0449
vn 0.0096 0.9991 0.0421
vn 0.0352 0.9986 -0.0402
vn -0.0762 0.9970 -0.0125
vn -0.0080 0.9999 0.0117
vn -0.0041 0.9983 -0.0577
vn 0.0735 0.9970 0.0225
vn -0.0035 0.9952 0.0978
vn -0.0242 -0.9942 -0.1049
vn -0.0197 -0.9998 -0.0012
vn -0.0512 -0.9961 0.0717
vn 0.0560 -0.9975 0.0436
vn 0.0665 -0.9968 -0.0443
vn -0.0049 -0.9995 0.0305
vn -0.0616 -0.9977 -0.0282
vn -0.0325 -0.9954 -0.0904
vn 0.0858 -0.9955 -0.0408
vn -0.0156 -0.9954 0.0945
vn 0.0252 -0.9963 0.0825
vn -0.0483 -0.9967 0.0649
vn -0.0596 -0.9965 -0.0586
vn 0.0729 -0.9955 -0.0599
vn -0.0490 -0.9983 -0.0329
vn 0.3607 -0.9316 -0.0439
vn -0.6822 -0.7306 0.0299
vn -0.0056 -0.7654 0.6436
vn 0.0042 0.8669 0.4985
vn 0.0090 0.5429 -0.8397
vn 0.0313 -0.5967 -0.8018
vn -0.0035 -0.7290 -0.6845
vn -0.0162 0.3353 -0.9420
vn -0.0074 0.7170 0.6971
vn 0.0109 -0.6647 0.7470
vn -0.6684 -0.7437 -0.0107
vn 0.5714 -0.8203 0.0265
vn -0.0420 0.9947 -0.0938
vn -0.0263 -0.9906 0.1346
vn 0.4869 0.8733 -0.0125
vn 0.4888 0.8724 0.0093
vn -0.3936 0.9192 -0.0130
vn -0.3932 0.9194 -0.0066
vn -0.0649 0.9979 -0.0013
vn -0.0588 0.9915 0.1161
vn -0.0121 0.9970 -0.0765
vn 0.0107 0.9989 0.0449
vn 0.0190 0.9989 0.0422
vn 0.0146 0.9991 -0.0410
vn 0.0468 0.9931 -0.1079
vn -0.0731 0.9958 -0.0555
vn 0.0349 0.9993 0.0095
vn -0.0652 0.9930 0.0987
vn -0.0766 0.9970 -0.0120
vn -0.0139 0.9999 0.0053
vn 0.0229 0.9993 -0.0285
vn 0.0335 0.9968 0.0722
vn 0.1052 0.9933 -0.0484
vn -0.0231 -0.9944 -0.1035
vn -0.0141 -0.9999 -0.0076
vn -0.0170 -0.9925 0.1209
vn -0.0582 -0.9932 -0.1007
vn 0.0180 -0.9998 0.0067
vn 0.0208 -0.9979 0.0612
vn -0.0161 -0.9994 0.0311
vn 0.0069 -0.9990 -0.0441
vn 0.0079 -0.9991 0.0422
vn 0.0862 -0.9956 -0.0367
vn -0.0223 -0.9993 0.0311
vn 0.0650 -0.9928 -0.1004
vn -0.0455 -0.9981 -0.0411
vn -0.0492 -0.9947 0.0904
vn 0.0568 -0.9951 0.0810
vt 0.031250 0.093750
vt 0.031250 0.070312
vt 0.093750 0.093750
vt 0.343750 0.562500
vt 0.343750 0.539062
vt 0.361602 0.539062
vt 0.156250 0.070312
vt 0.281250 0.070312
vt 0.218750 0.093750
vt 0.093750 0.000000
vt 0.031250 0.023438
vt 0.031250 0.000000
vt 0.379454 0.484375
vt 0.361602 0.507812
vt 0.361602 0.484375
vt 0.343750 0.437500
vt 0.361602 0.460938
vt 0.343750 0.460938
vt 0.156250 0.046875
vt 0.156250 0.023438
vt 0.656250 0.468750
vt 0.656250 0.492188
vt 0.638398 0.492188
vt 0.500000 0.484375
vt 0.500000 0.507812
vt 0.656250 0.437500
vt 0.656250 0.460938
vt 0.638398 0.460938
vt 0.656250 0.484375
vt 0.656250 0.507812
vt 0.638398 0.484375
vt 0.500000 0.460938
vt 0.656250 0.515625
vt 0.656250 0.539062
vt 0.638398 0.515625
vt 0.500000 0.492188
vt 0.620546 0.515625
vt 0.500000 0.515625
vt 0.500000 0.539062
vt 0.343750 0.515625
vt 0.343750 0.492188
vt 0.361602 0.515625
vt 0.361602 0.492188
vt 0.379454 0.515625
vt 0.343750 0.468750
vt 0.638398 0.539062
vt 0.578125 0.562500
vt 0.500000 0.562500
vt 0.421875 0.562500
vt 0.421875 0.468750
vt 0.500000 0.468750
vt 0.578125 0.468750
vt 0.656250 0.562500
vt 0.421875 0.437500
vt 0.500000 0.437500
vt 0.578125 0.437500
vt 0.638398 0.507812
vt 0.620546 0.484375
vt 0.656250 0.531250
vt 0.578125 0.531250
vt 0.500000 0.531250
vt 0.421875 0.531250
vt 0.343750 0.531250
vt 0.156250 0.000000
vt 0.281250 0.000000
vt 0.281250 0.023438
vt 0.218750 0.000000
vt 0.281250 0.046875
vt 0.343750 0.484375
vt 0.343750 0.507812
vt 0.078125 0.781250
vt 0.000000 0.718750
vt 0.078125 0.718750
vt 0.343750 0.375000
vt 0.421875 0.375000
vt 0.281250 0.093750
vt 0.031250 0.046875
vt 0.156250 0.093750
vt 0.078125 0.843750
vt 0.000000 0.781250
vt 0.000000 0.906250
vt 0.078125 0.906250
vt 0.234375 0.906250
vt 0.312500 0.968750
vt 0.234375 0.968750
vt 0.312500 0.843750
vt 0.312500 0.906250
vt 0.234375 0.843750
vt 0.312500 0.781250
vt 0.234375 0.718750
vt 0.312500 0.718750
vt 0.000000 0.968750
vt 0.078125 0.968750
vt 0.156250 0.843750
vt 0.234375 0.781250
vt 0.156250 0.781250
vt 0.156250 0.968750
vt 0.156250 0.906250
vt 0.156250 0.718750
vt 0.343750 0.500000
vt 0.421875 0.500000
vt 0.343750 0.625000
vt 0.421875 0.625000
vt 0.500000 0.500000
vt 0.500000 0.625000
vt 0.500000 0.375000
vt 0.578125 0.500000
vt 0.578125 0.375000
vt 0.578125 0.625000
vt 0.656250 0.500000
vt 0.656250 0.375000
vt 0.656250 0.625000
vt 0.000000 0.843750
s 0
usemtl CardboardBox
f 4/1/1 30/2/1 55/3/1
f 8/4/2 31/5/2 47/6/2
f 6/1/3 32/2/3 62/3/3
f 57/7/4 31/8/4 70/9/4
f 69/10/5 28/11/5 5/12/5
f 13/13/6 38/14/6 33/15/6
f 1/16/7 39/17/7 29/18/7
f 34/19/8 28/11/8 54/20/8
f 3/21/9 26/22/9 45/23/9
f 36/19/10 26/11/10 53/20/10
f 38/14/11 37/24/11 52/25/11
f 5/26/12 28/27/12 42/28/12
f 12/29/13 32/30/13 40/31/13
f 42/28/14 37/24/14 51/32/14
f 10/33/15 30/34/15 43/35/15
f 50/36/16 15/37/16 46/38/16
f 47/6/17 46/38/17 49/39/17
f 11/40/18 27/41/18 35/42/18
f 35/42/19 48/43/19 16/44/19
f 35/42/20 27/41/20 48/43/20
f 27/41/21 7/45/21 48/43/21
f 49/39/22 15/37/22 44/46/22
f 68/47/23 20/48/23 49/39/23
f 60/49/24 8/4/24 47/6/24
f 48/43/25 46/38/25 16/44/25
f 67/50/26 19/51/26 50/36/26
f 59/52/27 3/21/27 45/23/27
f 43/35/28 44/46/28 15/37/28
f 43/35/29 30/34/29 44/46/29
f 30/34/30 4/53/30 44/46/30
f 39/17/31 37/24/31 13/13/31
f 71/54/32 23/55/32 51/32/32
f 63/56/33 5/26/33 42/28/33
f 40/31/34 41/57/34 14/58/34
f 40/31/35 32/30/35 41/57/35
f 32/30/36 6/59/36 41/57/36
f 42/28/37 40/31/37 14/58/37
f 42/28/38 28/27/38 40/31/38
f 28/27/39 12/29/39 40/31/39
f 41/57/40 37/24/40 14/58/40
f 72/60/41 24/61/41 52/25/41
f 64/62/42 2/63/42 38/14/42
f 17/64/43 53/20/43 65/10/43
f 1/65/44 29/66/44 56/67/44
f 29/66/45 36/19/45 53/20/45
f 45/23/46 43/35/46 15/37/46
f 45/23/47 26/22/47 43/35/47
f 26/22/48 10/33/48 43/35/48
f 21/64/49 54/20/49 69/10/49
f 7/65/50 27/66/50 61/67/50
f 11/68/51 54/20/51 27/66/51
f 29/18/52 33/15/52 9/69/52
f 29/18/53 39/17/53 33/15/53
f 39/17/54 13/13/54 33/15/54
f 33/15/55 25/70/55 9/69/55
f 33/15/56 38/14/56 25/70/56
f 38/14/57 2/63/57 25/70/57
f 61/67/58 54/20/58 21/64/58
f 81/71/59 2/72/59 64/73/59
f 27/66/60 54/20/60 61/67/60
f 58/7/61 25/8/61 66/9/61
f 84/54/62 5/74/62 63/75/62
f 31/8/63 8/76/63 70/9/63
f 34/19/64 32/2/64 12/77/64
f 31/8/65 34/19/65 11/68/65
f 22/78/66 57/7/66 70/9/66
f 47/6/67 35/42/67 16/44/67
f 47/6/68 31/5/68 35/42/68
f 31/5/69 11/40/69 35/42/69
f 36/19/70 30/2/70 10/77/70
f 25/8/71 36/19/71 9/68/71
f 18/78/72 58/7/72 66/9/72
f 25/8/73 2/76/73 66/9/73
f 54/20/74 28/11/74 69/10/74
f 56/67/75 53/20/75 17/64/75
f 29/66/76 53/20/76 56/67/76
f 65/10/77 26/11/77 3/12/77
f 53/20/78 26/11/78 65/10/78
f 24/61/79 64/62/79 52/25/79
f 52/25/80 64/62/80 38/14/80
f 6/59/81 72/60/81 41/57/81
f 41/57/82 72/60/82 52/25/82
f 23/55/83 63/56/83 51/32/83
f 51/32/84 63/56/84 42/28/84
f 1/16/85 71/54/85 39/17/85
f 39/17/86 71/54/86 51/32/86
f 19/51/87 59/52/87 50/36/87
f 50/36/88 59/52/88 45/23/88
f 7/45/89 67/50/89 48/43/89
f 48/43/90 67/50/90 50/36/90
f 20/48/91 60/49/91 49/39/91
f 49/39/92 60/49/92 47/6/92
f 4/53/93 68/47/93 44/46/93
f 44/46/94 68/47/94 49/39/94
f 57/7/95 22/78/95 62/3/95
f 32/2/96 57/7/96 62/3/96
f 58/7/97 18/78/97 55/3/97
f 30/2/98 58/7/98 55/3/98
f 80/79/99 66/80/99 81/71/99
f 55/81/100 80/79/100 79/82/100
f 75/83/101 8/84/101 60/85/101
f 75/83/102 22/86/102 70/87/102
f 74/88/103 62/89/103 22/86/103
f 62/89/104 72/90/104 6/91/104
f 4/92/105 79/82/105 68/93/105
f 75/83/106 77/94/106 74/88/106
f 77/94/107 73/95/107 74/88/107
f 76/96/108 72/90/108 73/95/108
f 20/97/109 75/83/109 60/85/109
f 77/94/110 81/71/110 76/96/110
f 78/98/111 80/79/111 77/94/111
f 68/93/112 78/98/112 20/97/112
f 81/71/113 24/99/113 76/96/113
f 21/100/114 84/54/114 83/101/114
f 82/49/115 21/100/115 83/101/115
f 7/102/116 82/49/116 67/103/116
f 83/101/117 85/55/117 86/104/117
f 87/48/118 83/101/118 86/104/118
f 67/103/119 87/48/119 19/105/119
f 84/54/120 23/106/120 85/55/120
f 87/48/121 89/107/121 90/47/121
f 89/107/122 85/55/122 88/56/122
f 88/56/123 23/106/123 71/108/123
f 19/105/124 90/47/124 59/109/124
f 65/53/125 89/107/125 17/110/125
f 89/107/126 56/26/126 17/110/126
f 56/26/127 71/108/127 1/111/127
f 59/109/128 65/53/128 3/112/128
f 34/19/129 12/77/129 28/11/129
f 36/19/130 10/77/130 26/11/130
f 38/14/131 13/13/131 37/24/131
f 42/28/132 14/58/132 37/24/132
f 50/36/133 45/23/133 15/37/133
f 47/6/134 16/44/134 46/38/134
f 49/39/135 46/38/135 15/37/135
f 48/43/136 50/36/136 46/38/136
f 39/17/137 51/32/137 37/24/137
f 41/57/138 52/25/138 37/24/138
f 29/66/139 9/68/139 36/19/139
f 11/68/140 34/19/140 54/20/140
f 81/71/141 66/80/141 2/72/141
f 84/54/142 69/16/142 5/74/142
f 34/19/143 57/7/143 32/2/143
f 31/8/144 57/7/144 34/19/144
f 36/19/145 58/7/145 30/2/145
f 25/8/146 58/7/146 36/19/146
f 80/79/147 18/113/147 66/80/147
f 55/81/148 18/113/148 80/79/148
f 75/83/149 70/87/149 8/84/149
f 75/83/150 74/88/150 22/86/150
f 74/88/151 73/95/151 62/89/151
f 62/89/152 73/95/152 72/90/152
f 4/92/153 55/81/153 79/82/153
f 75/83/154 78/98/154 77/94/154
f 77/94/155 76/96/155 73/95/155
f 76/96/156 24/99/156 72/90/156
f 20/97/157 78/98/157 75/83/157
f 77/94/158 80/79/158 81/71/158
f 78/98/159 79/82/159 80/79/159
f 68/93/160 79/82/160 78/98/160
f 81/71/161 64/73/161 24/99/161
f 21/100/162 69/16/162 84/54/162
f 82/49/163 61/4/163 21/100/163
f 7/102/164 61/4/164 82/49/164
f 83/101/165 84/54/165 85/55/165
f 87/48/166 82/49/166 83/101/166
f 67/103/167 82/49/167 87/48/167
f 84/54/168 63/75/168 23/106/168
f 87/48/169 86/104/169 89/107/169
f 89/107/170 86/104/170 85/55/170
f 88/56/171 85/55/171 23/106/171
f 19/105/172 87/48/172 90/47/172
f 65/53/173 90/47/173 89/107/173
f 89/107/174 88/56/174 56/26/174
f 56/26/175 88/56/175 71/108/175
f 59/109/176 90/47/176 65/53/176
