# Blender 5.0.1
# www.blender.org
mtllib CellDoor01.mtl
o CellDoor01
v -0.500000 0.000000 0.060000
v -0.500000 0.000000 -0.060000
v 0.500000 0.000000 0.060000
v 0.500000 0.000000 -0.060000
v -0.500000 2.000000 0.060000
v -0.500000 2.000000 -0.060000
v 0.500000 2.000000 -0.060000
v 0.500000 2.000000 0.060000
v -0.440181 1.940181 0.060000
v -0.440181 0.059819 0.060000
v 0.440181 0.059819 0.060000
v 0.440181 1.940181 0.060000
v 0.440181 0.059819 -0.060000
v -0.440181 0.059819 -0.060000
v -0.440181 1.940181 -0.060000
v 0.440181 1.940181 -0.060000
v -0.422668 1.922668 0.050000
v -0.422668 0.077332 0.050000
v 0.422668 0.077332 0.050000
v 0.422668 1.922668 0.050000
v 0.422668 0.077332 -0.050000
v -0.422668 0.077332 -0.050000
v -0.422668 1.922668 -0.050000
v 0.422668 1.922668 -0.050000
v -0.500000 1.000000 0.060000
v 0.500000 1.000000 0.060000
v -0.500000 1.000000 -0.060000
v 0.500000 1.000000 -0.060000
v -0.440181 1.000000 0.060000
v 0.440181 1.000000 0.060000
v 0.440181 1.000000 -0.060000
v -0.440181 1.000000 -0.060000
v -0.422668 1.000000 0.050000
v 0.422668 1.000000 0.050000
v 0.422668 1.000000 -0.050000
v -0.422668 1.000000 -0.050000
v -0.200265 0.590903 0.050000
v -0.200265 0.486429 0.050000
v 0.200265 0.486429 0.050000
v 0.200265 0.590903 0.050000
v 0.200265 1.509097 -0.050000
v -0.200265 1.509097 -0.050000
v -0.200265 1.613571 -0.050000
v 0.200265 1.613571 -0.050000
v 0.200265 0.486429 -0.050000
v -0.200265 0.486429 -0.050000
v -0.200265 0.590903 -0.050000
v 0.200265 0.590903 -0.050000
v -0.200265 1.613571 0.050000
v -0.200265 1.509097 0.050000
v 0.200265 1.509097 0.050000
v 0.200265 1.613571 0.050000
v -0.101238 1.614664 -0.016478
v -0.101238 1.508083 -0.016478
v 0.023491 1.508083 -0.008555
v 0.023491 1.614664 -0.008555
v -0.004336 1.508083 0.024621
v -0.004336 1.614664 0.024621
v -0.019154 1.508083 -0.016066
v -0.019154 1.614664 -0.016066
v -0.115168 1.508083 0.024521
v -0.115168 1.614664 0.024521
v -0.143710 1.508083 -0.008042
v -0.143710 1.614664 -0.008042
v 0.144815 1.508083 -0.003389
v 0.144815 1.614664 -0.003389
v 0.110597 1.508083 0.023145
v 0.110597 1.614664 0.023145
v 0.104726 1.508083 -0.019756
v 0.104726 1.614664 -0.019756
vn -0.0000 -1.0000 -0.0000
vn -1.0000 -0.0000 -0.0000
vn -0.0000 1.0000 -0.0000
vn 1.0000 -0.0000 -0.0000
vn -0.0000 -0.0000 1.0000
vn -0.0000 -0.0000 -1.0000
vn 0.4959 -0.0000 0.8684
vn -0.0000 0.4959 0.8684
vn -0.4959 -0.0000 0.8684
vn -0.0000 -0.4959 0.8684
vn -0.0000 0.4959 -0.8684
vn 0.4959 -0.0000 -0.8684
vn -0.0000 -0.4959 -0.8684
vn -0.4959 -0.0000 -0.8684
vn -0.1948 -0.0000 -0.9808
vn -0.7520 -0.0000 0.6591
vn 0.7662 -0.0000 0.6426
vn 0.9468 -0.0000 0.3217
vn -0.9396 -0.0000 0.3422
vn 0.1734 -0.0000 -0.9848
vn 0.6128 -0.0000 0.7902
vn -0.9908 -0.0000 0.1356
vn 0.3780 -0.0000 -0.9258
vt 0.125000 0.968750
vt 0.281250 0.906250
vt 0.281250 0.968750
vt 0.968750 0.406250
vt 0.906250 0.812500
vt 0.906250 0.406250
vt 0.406250 0.906250
vt -0.000000 0.968750
vt -0.000000 0.906250
vt 0.406250 0.843750
vt 0.062500 0.906250
vt 0.062500 0.968750
vt 0.843750 0.812500
vt 0.843750 0.406250
vt 0.408844 0.405200
vt 0.434359 0.026985
vt 0.432840 0.405222
vt 0.812703 0.003604
vt 0.410418 0.002900
vt 0.812985 0.405598
vt 0.787976 0.783510
vt 0.788989 0.405576
vt 0.409669 0.807546
vt 0.811959 0.807546
vt 0.402411 0.002900
vt 0.024180 0.027953
vt 0.000131 0.003988
vt 0.404281 0.405424
vt 0.379089 0.783902
vt 0.380284 0.405443
vt 0.000767 0.807495
vt 0.403043 0.807980
vt 0.000131 0.405756
vt 0.024126 0.405737
vt 0.442100 0.034743
vt 0.440945 0.405229
vt 0.788676 0.027594
vt 0.780222 0.775768
vt 0.780884 0.405568
vt 0.433654 0.783506
vt 0.378493 0.027010
vt 0.031955 0.035674
vt 0.371344 0.776147
vt 0.372179 0.405450
vt 0.024779 0.783496
vt 0.032231 0.405731
vt 0.032542 0.775753
vt 0.370760 0.034788
vt 0.780909 0.035335
vt 0.441409 0.775750
vt 0.906250 0.000000
vt 0.843750 0.000000
vt 0.125000 0.906250
vt 0.281250 0.843750
vt 0.968750 0.000000
vt 0.125000 0.843750
vt 0.530727 0.241179
vt 0.530852 0.199232
vt 0.691605 0.199415
vt 0.691596 0.241340
vt 0.121717 0.609829
vt 0.282484 0.609907
vt 0.282396 0.651882
vt 0.121739 0.651741
vt 0.121410 0.199695
vt 0.282127 0.199337
vt 0.121445 0.241598
vt 0.282283 0.241306
vt 0.530450 0.609661
vt 0.530495 0.651618
vt 0.691232 0.609696
vt 0.691169 0.651625
vt 0.343750 0.906250
vt 0.343750 0.968750
vt 0.468750 0.843750
vt 0.500000 0.906250
vt 0.468750 0.906250
vt 0.500000 0.843750
vt 0.531250 0.906250
vt 0.437500 0.843750
vt 0.437500 0.906250
vt 0.968750 0.812500
vt 0.406250 0.968750
vt -0.000000 0.843750
vt 0.531250 0.843750
s 0
usemtl CellDoor01
f 37/1/1 48/2/1 40/3/1
f 25/4/2 6/5/2 27/6/2
f 4/7/1 1/8/1 2/9/1
f 6/9/3 8/10/3 7/7/3
f 43/11/4 50/1/4 42/12/4
f 28/6/4 8/13/4 26/14/4
f 25/15/5 10/16/5 29/17/5
f 3/18/5 10/16/5 1/19/5
f 26/20/5 12/21/5 30/22/5
f 5/23/5 12/21/5 8/24/5
f 2/25/6 13/26/6 4/27/6
f 27/28/6 15/29/6 32/30/6
f 7/31/6 15/29/6 6/32/6
f 28/33/6 13/26/6 31/34/6
f 29/17/7 18/35/7 33/36/7
f 11/37/8 18/35/8 10/16/8
f 30/22/9 20/38/9 34/39/9
f 9/40/10 20/38/10 12/21/10
f 14/41/11 21/42/11 13/26/11
f 32/30/12 23/43/12 36/44/12
f 16/45/13 23/43/13 15/29/13
f 31/34/14 21/42/14 35/46/14
f 31/34/14 24/47/14 16/45/14
f 32/30/12 22/48/12 14/41/12
f 30/22/9 19/49/9 11/37/9
f 29/17/7 17/50/7 9/40/7
f 28/33/6 16/45/6 7/31/6
f 27/28/6 14/41/6 2/25/6
f 26/20/5 11/37/5 3/18/5
f 25/15/5 9/40/5 5/23/5
f 4/51/4 26/14/4 3/52/4
f 39/53/3 46/54/3 38/2/3
f 1/55/2 27/6/2 2/51/2
f 42/54/3 51/53/3 41/56/3
f 18/35/5 37/57/5 33/36/5
f 19/49/5 38/58/5 18/35/5
f 34/39/5 39/59/5 19/49/5
f 34/39/5 37/57/5 40/60/5
f 36/44/6 41/61/6 35/46/6
f 23/43/6 42/62/6 36/44/6
f 24/47/6 43/63/6 23/43/6
f 24/47/6 41/61/6 44/64/6
f 22/48/6 45/65/6 21/42/6
f 36/44/6 46/66/6 22/48/6
f 36/44/6 48/67/6 47/68/6
f 21/42/6 48/67/6 35/46/6
f 17/50/5 50/69/5 49/70/5
f 33/36/5 51/71/5 50/69/5
f 20/38/5 51/71/5 34/39/5
f 17/50/5 52/72/5 20/38/5
f 44/1/1 49/2/1 43/3/1
f 44/73/2 51/3/2 52/2/2
f 48/53/2 39/12/2 40/11/2
f 38/74/4 47/2/4 37/73/4
f 64/75/15 54/76/15 63/77/15
f 62/78/16 63/79/16 61/76/16
f 56/80/17 57/77/17 55/81/17
f 53/80/18 61/77/18 54/81/18
f 58/78/19 59/79/19 57/76/19
f 60/75/20 55/76/20 59/77/20
f 66/80/21 67/77/21 65/81/21
f 68/78/22 69/79/22 67/76/22
f 70/75/23 65/76/23 69/77/23
f 37/1/1 47/53/1 48/2/1
f 25/4/2 5/82/2 6/5/2
f 4/7/1 3/83/1 1/8/1
f 6/9/3 5/84/3 8/10/3
f 43/11/4 49/53/4 50/1/4
f 28/6/4 7/5/4 8/13/4
f 25/15/5 1/19/5 10/16/5
f 3/18/5 11/37/5 10/16/5
f 26/20/5 8/24/5 12/21/5
f 5/23/5 9/40/5 12/21/5
f 2/25/6 14/41/6 13/26/6
f 27/28/6 6/32/6 15/29/6
f 7/31/6 16/45/6 15/29/6
f 28/33/6 4/27/6 13/26/6
f 29/17/7 10/16/7 18/35/7
f 11/37/8 19/49/8 18/35/8
f 30/22/9 12/21/9 20/38/9
f 9/40/10 17/50/10 20/38/10
f 14/41/11 22/48/11 21/42/11
f 32/30/12 15/29/12 23/43/12
f 16/45/13 24/47/13 23/43/13
f 31/34/14 13/26/14 21/42/14
f 31/34/14 35/46/14 24/47/14
f 32/30/12 36/44/12 22/48/12
f 30/22/9 34/39/9 19/49/9
f 29/17/7 33/36/7 17/50/7
f 28/33/6 31/34/6 16/45/6
f 27/28/6 32/30/6 14/41/6
f 26/20/5 30/22/5 11/37/5
f 25/15/5 29/17/5 9/40/5
f 4/51/4 28/6/4 26/14/4
f 39/53/3 45/56/3 46/54/3
f 1/55/2 25/4/2 27/6/2
f 42/54/3 50/2/3 51/53/3
f 18/35/5 38/58/5 37/57/5
f 19/49/5 39/59/5 38/58/5
f 34/39/5 40/60/5 39/59/5
f 34/39/5 33/36/5 37/57/5
f 36/44/6 42/62/6 41/61/6
f 23/43/6 43/63/6 42/62/6
f 24/47/6 44/64/6 43/63/6
f 24/47/6 35/46/6 41/61/6
f 22/48/6 46/66/6 45/65/6
f 36/44/6 47/68/6 46/66/6
f 36/44/6 35/46/6 48/67/6
f 21/42/6 45/65/6 48/67/6
f 17/50/5 33/36/5 50/69/5
f 33/36/5 34/39/5 51/71/5
f 20/38/5 52/72/5 51/71/5
f 17/50/5 49/70/5 52/72/5
f 44/1/1 52/53/1 49/2/1
f 44/73/2 41/74/2 51/3/2
f 48/53/2 45/1/2 39/12/2
f 38/74/4 46/3/4 47/2/4
f 64/75/15 53/78/15 54/76/15
f 62/78/16 64/85/16 63/79/16
f 56/80/17 58/75/17 57/77/17
f 53/80/18 62/75/18 61/77/18
f 58/78/19 60/85/19 59/79/19
f 60/75/20 56/78/20 55/76/20
f 66/80/21 68/75/21 67/77/21
f 68/78/22 70/85/22 69/79/22
f 70/75/23 66/78/23 65/76/23
