# Blender 5.0.1
# www.blender.org
mtllib FoodTray.mtl
o FoodTray
v -0.191537 0.000000 0.146076
v -0.213576 0.000000 0.124037
v 0.213576 0.000000 0.124037
v 0.191537 0.000000 0.146076
v -0.213576 0.000000 -0.124037
v -0.191537 0.000000 -0.146076
v 0.191537 0.000000 -0.146076
v 0.213576 0.000000 -0.124037
v -0.187063 0.010000 -0.148502
v -0.216002 0.010000 -0.119563
v -0.216002 0.010000 0.119563
v -0.187063 0.010000 0.148502
v 0.187063 0.010000 0.148502
v 0.216002 0.010000 0.119563
v 0.216002 0.010000 -0.119563
v 0.187063 0.010000 -0.148502
v -0.225000 0.013416 -0.128734
v -0.218008 0.017289 -0.121597
v -0.189097 0.017289 -0.150508
v -0.196234 0.013416 -0.157500
v -0.196234 0.013416 0.157500
v -0.189097 0.017289 0.150508
v -0.218008 0.017289 0.121597
v -0.225000 0.013416 0.128734
v 0.225000 0.013416 0.128734
v 0.218008 0.017289 0.121597
v 0.189097 0.017289 0.150508
v 0.196234 0.013416 0.157500
v 0.196234 0.013416 -0.157500
v 0.189097 0.017289 -0.150508
v 0.218008 0.017289 -0.121597
v 0.225000 0.013416 -0.128734
v -0.196269 0.000000 -0.157500
v -0.225000 0.000000 -0.128769
v 0.225000 0.000000 -0.128769
v 0.196269 0.000000 -0.157500
v 0.196269 0.000000 0.157500
v 0.225000 0.000000 0.128769
v -0.225000 0.000000 0.128769
v -0.196269 0.000000 0.157500
v -0.191537 0.002375 -0.146076
v -0.213576 0.002375 -0.124037
v 0.213576 0.002375 -0.124037
v 0.191537 0.002375 -0.146076
v 0.191537 0.002375 0.146076
v 0.213576 0.002375 0.124037
v -0.213576 0.002375 0.124037
v -0.191537 0.002375 0.146076
vn -1.0000 -0.0000 -0.0000
vn -0.0000 1.0000 -0.0000
vn -0.2556 0.9324 -0.2556
vn 0.2556 0.9324 -0.2556
vn 0.2556 0.9324 0.2556
vn -0.2556 0.9324 0.2556
vn -0.4846 0.8748 -0.0000
vn -0.0000 0.8748 0.4846
vn 0.4846 0.8748 -0.0000
vn -0.0000 0.8748 -0.4846
vn -0.7071 0.0019 -0.7071
vn 0.6584 0.3648 0.6584
vn 0.9642 0.2653 -0.0000
vn -0.0000 0.2653 0.9642
vn -0.0000 -0.0000 -1.0000
vn 0.6584 0.3648 -0.6584
vn -0.0000 0.2653 -0.9642
vn -0.7071 0.0019 0.7071
vn -0.0000 -0.0000 1.0000
vn 1.0000 -0.0000 -0.0000
vn 0.7071 0.0019 0.7071
vn -0.6584 0.3649 -0.6584
vn -0.9642 0.2653 -0.0000
vn -0.6584 0.3648 0.6584
vn 0.7071 0.0019 -0.7071
vn -0.0000 -1.0000 -0.0000
vn 0.7071 -0.0000 -0.7071
vn -0.7071 -0.0000 0.7071
vn -0.7071 -0.0000 -0.7071
vn 0.7071 -0.0000 0.7071
vn 0.6584 0.3649 0.6584
vn -0.6584 0.3648 -0.6584
vt 0.367425 0.414336
vt 0.366111 0.276450
vt 0.367425 0.276450
vt 0.029553 0.264200
vt 0.178550 0.280285
vt 0.162465 0.504319
vt 0.168597 0.255434
vt 0.188553 0.243331
vt 0.172564 0.259320
vt 0.184666 0.029155
vt 0.172564 0.009199
vt 0.188553 0.025188
vt 0.033424 0.013085
vt 0.013468 0.025188
vt 0.029457 0.009199
vt 0.017354 0.239364
vt 0.029457 0.259320
vt 0.013468 0.243331
vt 0.033424 0.255434
vt 0.017354 0.029155
vt 0.168597 0.013085
vt 0.184666 0.239364
vt 0.454833 0.168314
vt 0.447406 0.025188
vt 0.454833 0.025168
vt 0.453409 0.009199
vt 0.377615 0.315147
vt 0.373398 0.292411
vt 0.377615 0.292400
vt 0.401167 0.010886
vt 0.419394 0.104454
vt 0.415178 0.104549
vt 0.405351 0.429809
vt 0.401167 0.281108
vt 0.405351 0.281638
vt 0.353131 0.264982
vt 0.358052 0.419615
vt 0.350696 0.420426
vt 0.419961 0.127173
vt 0.415745 0.127289
vt 0.405224 0.276228
vt 0.401167 0.274741
vt 0.445980 0.184284
vt 0.447406 0.168294
vt 0.396287 0.164049
vt 0.373398 0.009199
vt 0.380793 0.009360
vt 0.380792 0.287520
vt 0.388353 0.186465
vt 0.395752 0.186626
vt 0.430410 0.295646
vt 0.424841 0.280691
vt 0.428977 0.279576
vt 0.426275 0.296776
vt 0.430410 0.430818
vt 0.426275 0.429688
vt 0.428977 0.446888
vt 0.353127 0.442879
vt 0.360486 0.442096
vt 0.349918 0.015548
vt 0.368518 0.025168
vt 0.362168 0.027798
vt 0.362168 0.240720
vt 0.352548 0.259320
vt 0.349918 0.252970
vt 0.212032 0.252970
vt 0.193433 0.243351
vt 0.199782 0.240720
vt 0.199782 0.027798
vt 0.209402 0.009199
vt 0.212032 0.015548
vt 0.352548 0.009199
vt 0.193433 0.025168
vt 0.368518 0.243351
vt 0.209402 0.259320
vt 0.345816 0.276450
vt 0.333566 0.501622
vt 0.183430 0.489372
vt 0.447897 0.206526
vt 0.447282 0.358084
vt 0.445980 0.358229
vt 0.445980 0.189308
vt 0.449199 0.206381
vt 0.367203 0.264200
vt 0.368518 0.264200
vt 0.441100 0.274696
vt 0.424841 0.123687
vt 0.426150 0.123720
vt 0.426580 0.106401
vt 0.439791 0.009199
vt 0.441100 0.009231
vt 0.368518 0.426586
vt 0.366111 0.414336
vt 0.425271 0.106368
vt 0.029553 0.504319
vt 0.013468 0.488234
vt 0.013468 0.280285
vt 0.162465 0.264200
vt 0.178550 0.488234
vt 0.445980 0.009199
vt 0.373398 0.315137
vt 0.405145 0.009199
vt 0.401167 0.430889
vt 0.360486 0.264200
vt 0.453409 0.184284
vt 0.388889 0.163859
vt 0.373398 0.287331
vt 0.424841 0.445773
vt 0.183430 0.276450
vt 0.195680 0.264200
vt 0.333566 0.264200
vt 0.345816 0.489372
vt 0.195680 0.501622
vt 0.447282 0.189163
vt 0.439791 0.274663
vt 0.367203 0.426586
s 0
usemtl 64x64grid
f 3/1/1 43/2/1 8/3/1
f 14/4/2 16/5/2 10/6/2
f 18/7/3 20/8/3 17/9/3
f 30/10/4 32/11/4 29/12/4
f 26/13/5 28/14/5 25/15/5
f 22/16/6 24/17/6 21/18/6
f 23/19/7 17/9/7 24/17/7
f 22/16/8 28/14/8 27/20/8
f 31/21/9 25/15/9 32/11/9
f 30/10/10 20/8/10 19/22/10
f 39/23/1 17/24/1 34/25/1
f 17/24/11 33/26/11 34/25/11
f 9/27/12 18/28/12 10/29/12
f 10/30/13 23/31/13 11/32/13
f 16/33/14 19/34/14 9/35/14
f 33/36/15 29/37/15 36/38/15
f 22/39/16 11/32/16 23/31/16
f 12/40/17 27/41/17 13/42/17
f 39/23/18 21/43/18 24/44/18
f 37/45/19 21/46/19 40/47/19
f 35/48/20 25/49/20 38/50/20
f 25/49/21 37/45/21 38/50/21
f 26/51/22 13/52/22 27/53/22
f 14/54/23 31/55/23 15/56/23
f 30/57/24 15/56/24 31/55/24
f 35/58/25 29/37/25 32/59/25
f 5/60/26 33/61/26 6/62/26
f 7/63/26 35/64/26 8/65/26
f 3/66/26 37/67/26 4/68/26
f 1/69/26 39/70/26 2/71/26
f 2/71/26 34/72/26 5/60/26
f 4/68/26 40/73/26 1/69/26
f 6/62/26 36/74/26 7/63/26
f 8/65/26 38/75/26 3/66/26
f 41/76/26 43/77/26 45/78/26
f 1/79/15 45/80/15 4/81/15
f 2/82/27 48/83/27 1/79/27
f 8/3/28 44/84/28 7/85/28
f 7/86/19 41/87/19 6/88/19
f 5/89/20 47/90/20 2/91/20
f 4/92/29 46/93/29 3/1/29
f 6/88/30 42/94/30 5/89/30
f 3/1/1 46/93/1 43/2/1
f 10/6/2 11/95/2 12/96/2
f 12/96/2 13/97/2 14/4/2
f 14/4/2 15/98/2 16/5/2
f 16/5/2 9/99/2 10/6/2
f 10/6/2 12/96/2 14/4/2
f 18/7/3 19/22/3 20/8/3
f 30/10/4 31/21/4 32/11/4
f 26/13/5 27/20/5 28/14/5
f 22/16/6 23/19/6 24/17/6
f 23/19/7 18/7/7 17/9/7
f 22/16/8 21/18/8 28/14/8
f 31/21/9 26/13/9 25/15/9
f 30/10/10 29/12/10 20/8/10
f 39/23/1 24/44/1 17/24/1
f 17/24/11 20/100/11 33/26/11
f 9/27/31 19/101/31 18/28/31
f 10/30/13 18/102/13 23/31/13
f 16/33/14 30/103/14 19/34/14
f 33/36/15 20/104/15 29/37/15
f 22/39/16 12/40/16 11/32/16
f 12/40/17 22/39/17 27/41/17
f 39/23/18 40/105/18 21/43/18
f 37/45/19 28/106/19 21/46/19
f 35/48/20 32/107/20 25/49/20
f 25/49/21 28/106/21 37/45/21
f 26/51/32 14/54/32 13/52/32
f 14/54/23 26/51/23 31/55/23
f 30/57/24 16/108/24 15/56/24
f 35/58/25 36/38/25 29/37/25
f 5/60/26 34/72/26 33/61/26
f 7/63/26 36/74/26 35/64/26
f 3/66/26 38/75/26 37/67/26
f 1/69/26 40/73/26 39/70/26
f 2/71/26 39/70/26 34/72/26
f 4/68/26 37/67/26 40/73/26
f 6/62/26 33/61/26 36/74/26
f 8/65/26 35/64/26 38/75/26
f 45/78/26 48/109/26 47/110/26
f 47/110/26 42/111/26 41/76/26
f 41/76/26 44/112/26 43/77/26
f 43/77/26 46/113/26 45/78/26
f 45/78/26 47/110/26 41/76/26
f 1/79/15 48/83/15 45/80/15
f 2/82/27 47/114/27 48/83/27
f 8/3/28 43/2/28 44/84/28
f 7/86/19 44/115/19 41/87/19
f 5/89/20 42/94/20 47/90/20
f 4/92/29 45/116/29 46/93/29
f 6/88/30 41/87/30 42/94/30
