# Blender 5.0.1
# www.blender.org
mtllib Matress02.mtl
o Matress02
v 0.475000 0.050000 0.053719
v -0.475000 0.050000 0.059064
v -0.332500 0.071582 -0.010676
v 0.332500 0.071582 -0.012458
v 0.332500 0.015361 0.031115
v -0.332500 0.015361 0.032897
v 0.332500 0.000000 0.136283
v -0.332500 0.000000 0.137176
v 0.332500 0.152446 0.077038
v -0.332500 0.152446 0.083248
v -0.332500 0.115361 0.132285
v 0.332500 0.115361 0.129574
v -0.332500 0.100000 0.241365
v 0.332500 0.100000 0.233296
v -0.308464 0.000000 1.016240
v 0.308423 0.000000 1.016298
v -0.309207 0.100000 1.014959
v 0.308764 0.100000 1.015496
v -0.287827 0.000000 1.133518
v -0.284927 0.015000 1.150000
v -0.475000 0.015000 0.959927
v -0.459775 0.000000 0.965075
v -0.411037 0.000000 1.082446
v -0.419329 0.015000 1.094329
v 0.459128 0.000000 0.965298
v 0.475000 0.015000 0.959927
v 0.287823 0.000000 1.133518
v 0.284927 0.015000 1.150000
v 0.410395 0.000000 1.082711
v 0.419329 0.015000 1.094329
v -0.460490 0.729798 -0.078058
v -0.475000 0.741842 -0.064236
v -0.256708 0.927174 -0.076893
v -0.284927 0.933588 -0.062820
v -0.405169 0.865937 -0.079507
v -0.419329 0.877983 -0.065535
v 0.269901 0.939894 -0.004437
v 0.284927 0.942219 0.016670
v 0.475000 0.741842 -0.037092
v 0.459236 0.745834 -0.052863
v 0.409027 0.883210 -0.018402
v 0.419329 0.889920 -0.002409
v -0.284927 0.085000 1.150000
v -0.287892 0.100000 1.133507
v -0.459325 0.100000 0.965130
v -0.475000 0.085000 0.959927
v -0.419329 0.085000 1.094329
v -0.410534 0.100000 1.082670
v 0.475000 0.085000 0.959927
v 0.459225 0.100000 0.965200
v 0.284927 0.085000 1.150000
v 0.287849 0.100000 1.133508
v 0.419329 0.085000 1.094329
v 0.410460 0.100000 1.082684
v -0.460054 0.752360 0.023267
v -0.475000 0.741842 0.005735
v -0.284927 0.930175 0.007043
v -0.272696 0.914051 0.023130
v -0.419329 0.874570 0.004320
v -0.416985 0.854367 0.021049
v 0.284927 0.918243 0.082425
v 0.288739 0.897844 0.096008
v 0.462243 0.738264 0.055704
v 0.475000 0.741842 0.032382
v 0.419329 0.865935 0.063368
v 0.406907 0.851991 0.076146
v 0.475000 0.015000 0.132860
v 0.459243 0.000000 0.135488
v 0.459294 0.071582 -0.014043
v 0.475000 0.077645 0.000650
v 0.459296 0.015361 0.029530
v 0.475000 0.028622 0.038669
v -0.475000 0.078370 0.005417
v -0.460291 0.071582 -0.009078
v -0.459947 0.000000 0.137976
v -0.475000 0.015000 0.135754
v -0.460114 0.015361 0.034492
v -0.475000 0.028611 0.044006
v 0.475000 0.142621 0.055940
v 0.460019 0.149895 0.075031
v 0.459347 0.100000 0.226112
v 0.475000 0.085000 0.235486
v 0.459415 0.115361 0.127159
v 0.475000 0.104017 0.114168
v -0.475000 0.085000 0.264992
v -0.459455 0.100000 0.248555
v -0.459595 0.152446 0.088787
v -0.475000 0.142195 0.075643
v -0.459540 0.115361 0.134703
v -0.475000 0.104268 0.122109
vn 0.0006 0.9892 0.1465
vn 0.0054 0.8170 0.5767
vn -0.0002 -0.9893 -0.1457
vn -0.0021 -0.6126 -0.7904
vn -0.0000 -1.0000 -0.0000
vn -0.0000 1.0000 -0.0000
vn -0.7192 -0.6277 0.2979
vn -0.2785 -0.6862 0.6719
vn -0.0000 -0.7396 0.6731
vn 0.2787 -0.6854 0.6727
vn 0.7048 -0.6463 0.2925
vn 0.6962 0.4034 -0.5938
vn 0.2492 0.8253 -0.5068
vn -0.0099 0.9947 -0.1025
vn -0.2383 0.6099 -0.7558
vn -0.5781 0.2289 -0.7832
vn -0.7100 0.6399 0.2941
vn -0.2787 0.6859 0.6722
vn -0.0000 0.7398 0.6728
vn 0.2787 0.6854 0.6728
vn 0.7059 0.6449 0.2930
vn 0.8327 0.2503 0.4939
vn 0.3041 0.4820 0.8217
vn -0.0930 0.5397 0.8367
vn -0.2516 0.5812 0.7739
vn -0.7879 0.3360 0.5161
vn 0.6764 -0.7290 -0.1054
vn 0.6989 -0.4381 -0.5653
vn -0.7279 -0.4202 -0.5418
vn -0.6975 -0.7089 -0.1041
vn 0.7426 0.5582 0.3701
vn 0.6466 0.7538 0.1175
vn -0.6317 0.7682 0.1036
vn -0.7307 0.5307 0.4295
vn 0.6911 -0.0415 -0.7216
vn 0.8765 0.0125 0.4813
vn -0.7018 -0.7123 0.0001
vn 0.6895 -0.7243 -0.0000
vn -0.7169 -0.0729 -0.6933
vn 0.6918 0.7220 0.0001
vn -0.6789 0.0850 0.7293
vn -0.6914 0.7225 -0.0000
vn -0.0000 -0.0000 1.0000
vn -0.3827 -0.0000 0.9239
vn -0.9239 -0.0000 0.3827
vn -1.0000 -0.0000 -0.0000
vn 0.9239 -0.0000 0.3827
vn 1.0000 -0.0000 -0.0000
vn 0.3827 -0.0000 0.9239
vn -0.0124 -0.0956 -0.9953
vn -0.9254 0.3786 0.0185
vn -0.0027 -0.1024 -0.9947
vn 0.0021 0.2440 -0.9698
vn -0.3827 0.9228 0.0451
vn -0.0219 0.9986 0.0488
vn 0.0189 -0.0575 -0.9982
vn 0.3827 0.8680 0.3165
vn 0.9360 0.3519 -0.0000
vn -0.1220 0.0730 0.9898
vn 0.0152 -0.0245 0.9996
vn 0.0093 0.0780 0.9969
vn 0.1195 -0.1190 0.9857
vn -0.0009 -0.9895 -0.1445
vn -0.0099 -0.6126 -0.7904
vn -0.0009 -0.9892 -0.1468
vn 0.0254 0.8333 0.5523
vn 0.0029 0.9882 0.1534
vn 0.0027 0.9902 0.1394
vn 0.0263 0.7973 0.6030
vn 0.0017 0.9902 0.1394
vn 0.0025 0.7976 0.6032
vn -0.0004 -0.9895 -0.1445
vn -0.7161 -0.6314 0.2974
vn -0.2787 -0.6854 0.6728
vn 0.2785 -0.6863 0.6719
vn 0.7072 -0.6434 0.2929
vn 0.6849 0.4001 -0.6090
vn 0.3274 0.8851 -0.3306
vn 0.0354 0.9342 -0.3549
vn -0.2351 0.6055 -0.7603
vn -0.5690 0.2228 -0.7915
vn -0.7074 0.6430 0.2936
vn -0.2788 0.6850 0.6731
vn 0.2785 0.6863 0.6719
vn 0.7084 0.6419 0.2934
vn 0.6146 0.1602 0.7724
vn 0.3450 0.5640 0.7502
vn -0.0833 0.6714 0.7364
vn -0.2624 0.5972 0.7580
vn -0.8060 0.3507 0.4768
vn 0.6767 -0.7287 -0.1053
vn 0.6984 -0.4386 -0.5656
vn -0.7245 -0.4236 -0.5437
vn -0.6940 -0.7122 -0.1056
vn 0.7306 0.5653 0.3829
vn 0.6494 0.7513 0.1178
vn -0.6343 0.7661 0.1038
vn -0.7258 0.5329 0.4350
vn 0.7016 -0.0404 -0.7115
vn 0.7909 0.0240 0.6115
vn -0.7058 -0.7084 -0.0000
vn 0.6869 -0.7268 0.0001
vn -0.7188 -0.0726 -0.6914
vn 0.6891 0.7247 -0.0000
vn -0.7789 0.0675 0.6235
vn -0.6943 0.7197 0.0001
vn 0.0551 -0.0330 -0.9979
vn -0.9222 0.3868 -0.0000
vn -0.0124 -0.1042 -0.9945
vn 0.1195 0.3486 -0.9296
vn -0.0256 0.9392 0.3425
vn 0.0356 -0.0436 -0.9984
vn 0.9161 0.3767 0.1374
vn 0.0433 0.1085 0.9932
vn -0.1296 -0.0328 0.9910
vn -0.0484 0.0824 0.9954
vn 0.2530 0.0308 0.9670
vn -0.0018 -0.9897 -0.1435
vn -0.0018 -0.9893 -0.1457
vn 0.0110 0.8169 0.5767
vn 0.0083 0.9892 0.1465
vn 0.0076 0.9910 0.1337
vn 0.0120 0.7779 0.6283
vt 0.092720 0.288186
vt 0.277382 0.264311
vt 0.278116 0.293203
vt 0.092056 0.304947
vt 0.278311 0.311112
vt 0.548167 0.313310
vt 0.377976 0.297003
vt 0.549405 0.297835
vt 0.547869 0.322159
vt 0.378804 0.312292
vt 0.384035 0.065269
vt 0.548925 0.067576
vt 0.265683 0.067942
vt 0.094614 0.258307
vt 0.116924 0.063177
vt 0.588462 0.081349
vt 0.579666 0.046719
vt 0.594244 0.082356
vt 0.544463 0.035996
vt 0.575903 0.051109
vt 0.389304 0.033733
vt 0.544268 0.029857
vt 0.353824 0.043487
vt 0.389657 0.027669
vt 0.344162 0.077981
vt 0.357612 0.047913
vt 0.355061 0.531926
vt 0.338197 0.495776
vt 0.344137 0.496155
vt 0.386477 0.552984
vt 0.351075 0.535613
vt 0.525108 0.537454
vt 0.391201 0.547725
vt 0.566370 0.522891
vt 0.532651 0.541635
vt 0.586589 0.491126
vt 0.570998 0.527376
vt 0.090591 0.041493
vt 0.079500 0.072313
vt 0.073985 0.072682
vt 0.123049 0.034441
vt 0.093737 0.045709
vt 0.123597 0.028971
vt 0.261459 0.038882
vt 0.293265 0.047933
vt 0.261278 0.033458
vt 0.302486 0.079133
vt 0.289882 0.051923
vt 0.280535 0.503824
vt 0.294266 0.474392
vt 0.300506 0.476517
vt 0.246873 0.512143
vt 0.277043 0.499545
vt 0.108998 0.506753
vt 0.247931 0.506179
vt 0.105137 0.512143
vt 0.073250 0.490548
vt 0.055522 0.465389
vt 0.071218 0.496758
vt 0.344125 0.298522
vt 0.341331 0.314541
vt 0.338346 0.299914
vt 0.347401 0.322566
vt 0.347482 0.314457
vt 0.579406 0.321796
vt 0.585398 0.314134
vt 0.584859 0.321956
vt 0.583540 0.299570
vt 0.579535 0.313991
vt 0.315854 0.310491
vt 0.320000 0.293640
vt 0.322698 0.311473
vt 0.311182 0.264400
vt 0.314303 0.292054
vt 0.061298 0.253186
vt 0.050652 0.287023
vt 0.056298 0.247766
vt 0.055032 0.302811
vt 0.056383 0.285711
vt 0.341607 0.322550
vt 0.338197 0.078913
vt 0.581262 0.487926
vt 0.316535 0.261147
vt 0.049020 0.301873
vt 0.261222 0.032557
vt 0.124940 0.011094
vt 0.261793 0.015746
vt 0.122753 0.028440
vt 0.084495 0.025266
vt 0.116800 0.012895
vt 0.090121 0.041531
vt 0.058619 0.064430
vt 0.075251 0.033528
vt 0.054514 0.252552
vt 0.055061 0.071289
vt 0.073131 0.073164
vt 0.308368 0.079412
vt 0.309077 0.041204
vt 0.323430 0.072506
vt 0.326893 0.078608
vt 0.317264 0.260791
vt 0.308745 0.079431
vt 0.293923 0.048263
vt 0.269229 0.017406
vt 0.301337 0.032813
vt 0.379165 0.321446
vt 0.021532 0.490266
vt 0.071714 0.513707
vt 0.054715 0.529843
vt 0.026859 0.481096
vt 0.048519 0.301921
vt 0.049522 0.477575
vt 0.069513 0.508323
vt 0.102693 0.531371
vt 0.067205 0.526311
vt 0.105001 0.513382
vt 0.244346 0.530888
vt 0.246532 0.512871
vt 0.279867 0.535681
vt 0.299136 0.535619
vt 0.313305 0.485360
vt 0.333053 0.495926
vt 0.322804 0.312053
vt 0.330344 0.488684
vt 0.306527 0.483294
vt 0.061664 0.466728
vt 0.338872 0.315396
vt 0.313281 0.260097
vt 0.339878 0.284880
vt 0.345459 0.317607
vt 0.337187 0.336395
vt 0.316266 0.326537
vt 0.027798 0.304263
vt 0.051303 0.310769
vt 0.028522 0.321944
vt 0.021103 0.305746
vt 0.028069 0.279647
vt 0.058841 0.253455
vt 0.320114 0.302437
vt 0.047538 0.293872
vt 0.307944 0.079819
vt 0.589055 0.300977
vt 0.124369 0.027905
vt 0.090447 0.040811
vt 0.073489 0.072433
vt 0.032982 0.284038
vt 0.294015 0.048111
vt 0.337185 0.299828
vt 0.261815 0.032856
vt 0.041294 0.480224
vt 0.026399 0.327028
vt 0.282054 0.517658
vt 0.283668 0.519181
vt 0.340707 0.343960
s 0
usemtl 64x64grid
f 11/1/1 14/2/1 12/3/1
f 10/4/2 12/3/2 9/5/2
f 6/6/3 7/7/3 8/8/3
f 3/9/4 5/10/4 6/6/4
f 8/8/5 16/11/5 15/12/5
f 18/13/6 13/14/6 17/15/6
f 22/16/7 24/17/7 21/18/7
f 19/19/8 24/17/8 23/20/8
f 27/21/9 20/22/9 19/19/9
f 27/21/10 30/23/10 28/24/10
f 25/25/11 30/23/11 29/26/11
f 41/27/12 39/28/12 40/29/12
f 41/27/13 38/30/13 42/31/13
f 33/32/14 38/30/14 37/33/14
f 35/34/15 34/35/15 33/32/15
f 35/34/16 32/36/16 36/37/16
f 47/38/17 45/39/17 46/40/17
f 47/38/18 44/41/18 48/42/18
f 43/43/19 52/44/19 44/41/19
f 53/45/20 52/44/20 51/46/20
f 53/45/21 50/47/21 54/48/21
f 65/49/22 63/50/22 64/51/22
f 61/52/23 66/53/23 65/49/23
f 61/52/24 58/54/24 62/55/24
f 57/56/25 60/57/25 58/54/25
f 56/58/26 60/57/26 59/59/26
f 68/60/27 72/61/27 67/62/27
f 69/63/28 72/61/28 71/64/28
f 74/65/29 78/66/29 73/67/29
f 75/68/30 78/66/30 77/69/30
f 80/70/31 84/71/31 79/72/31
f 81/73/32 84/71/32 83/74/32
f 86/75/33 90/76/33 85/77/33
f 87/78/34 90/76/34 89/79/34
f 40/29/35 70/80/35 69/63/35
f 80/70/36 64/51/36 63/50/36
f 21/18/37 75/68/37 22/16/37
f 26/81/38 68/60/38 67/62/38
f 73/67/39 31/82/39 74/65/39
f 50/47/40 82/83/40 81/73/40
f 87/78/41 56/58/41 88/84/41
f 45/39/42 85/77/42 46/40/42
f 15/12/5 23/20/5 22/16/5
f 51/85/43 20/86/43 28/87/43
f 43/88/44 24/89/44 20/90/44
f 16/11/5 19/19/5 15/12/5
f 47/91/45 21/92/45 24/93/45
f 85/94/46 21/95/46 46/96/46
f 8/8/5 22/16/5 75/68/5
f 16/11/5 29/26/5 27/21/5
f 49/97/47 30/98/47 26/99/47
f 26/100/48 82/101/48 49/102/48
f 7/7/5 25/25/5 16/11/5
f 53/103/49 28/104/49 30/105/49
f 4/106/50 35/34/50 69/63/50
f 32/107/51 59/108/51 36/109/51
f 32/110/46 88/111/46 56/112/46
f 3/9/52 31/82/52 4/106/52
f 40/29/53 37/33/53 41/27/53
f 59/113/54 34/114/54 36/115/54
f 57/116/55 38/117/55 34/114/55
f 69/63/56 33/32/56 40/29/56
f 61/118/57 42/119/57 38/117/57
f 42/120/58 64/121/58 39/122/58
f 79/123/48 39/124/48 64/125/48
f 48/42/6 17/15/6 45/39/6
f 44/41/6 18/13/6 17/15/6
f 45/39/6 13/14/6 86/75/6
f 54/48/6 18/13/6 52/44/6
f 50/47/6 14/2/6 18/13/6
f 55/126/59 10/4/59 60/57/59
f 62/55/60 9/5/60 80/70/60
f 58/54/61 10/4/61 9/5/61
f 62/55/62 63/50/62 66/53/62
f 1/127/48 82/128/48 67/129/48
f 67/129/48 72/130/48 1/127/48
f 5/10/63 68/60/63 7/7/63
f 4/106/64 71/64/64 5/10/64
f 72/130/48 70/131/48 1/127/48
f 1/127/48 70/131/48 79/132/48
f 2/133/46 88/134/46 73/135/46
f 73/135/46 78/136/46 2/133/46
f 74/65/64 6/6/64 77/69/64
f 77/69/65 8/8/65 75/68/65
f 78/136/46 76/137/46 2/133/46
f 2/133/46 76/137/46 85/138/46
f 79/132/48 84/139/48 1/127/48
f 9/5/66 83/74/66 80/70/66
f 12/3/67 81/73/67 83/74/67
f 84/139/48 82/128/48 1/127/48
f 89/79/68 13/14/68 11/1/68
f 85/138/46 90/140/46 2/133/46
f 87/78/69 11/1/69 10/4/69
f 90/140/46 88/134/46 2/133/46
f 11/1/70 13/14/70 14/2/70
f 10/4/71 11/1/71 12/3/71
f 6/6/72 5/10/72 7/7/72
f 3/9/4 4/106/4 5/10/4
f 8/8/5 7/7/5 16/11/5
f 18/13/6 14/2/6 13/14/6
f 22/16/73 23/20/73 24/17/73
f 19/19/74 20/22/74 24/17/74
f 27/21/9 28/24/9 20/22/9
f 27/21/75 29/26/75 30/23/75
f 25/25/76 26/81/76 30/23/76
f 41/27/77 42/31/77 39/28/77
f 41/27/78 37/33/78 38/30/78
f 33/32/79 34/35/79 38/30/79
f 35/34/80 36/37/80 34/35/80
f 35/34/81 31/82/81 32/36/81
f 47/38/82 48/42/82 45/39/82
f 47/38/83 43/43/83 44/41/83
f 43/43/19 51/46/19 52/44/19
f 53/45/84 54/48/84 52/44/84
f 53/45/85 49/141/85 50/47/85
f 65/49/86 66/53/86 63/50/86
f 61/52/87 62/55/87 66/53/87
f 61/52/88 57/56/88 58/54/88
f 57/56/89 59/59/89 60/57/89
f 56/58/90 55/126/90 60/57/90
f 68/60/91 71/64/91 72/61/91
f 69/63/92 70/80/92 72/61/92
f 74/65/93 77/69/93 78/66/93
f 75/68/94 76/142/94 78/66/94
f 80/70/95 83/74/95 84/71/95
f 81/73/96 82/83/96 84/71/96
f 86/75/97 89/79/97 90/76/97
f 87/78/98 88/84/98 90/76/98
f 40/29/99 39/28/99 70/80/99
f 80/70/100 79/72/100 64/51/100
f 21/18/101 76/142/101 75/68/101
f 26/81/102 25/25/102 68/60/102
f 73/67/103 32/36/103 31/82/103
f 50/47/104 49/141/104 82/83/104
f 87/78/105 55/126/105 56/58/105
f 45/39/106 86/75/106 85/77/106
f 15/12/5 19/19/5 23/20/5
f 51/85/43 43/143/43 20/86/43
f 43/88/44 47/144/44 24/89/44
f 16/11/5 27/21/5 19/19/5
f 47/91/45 46/145/45 21/92/45
f 85/94/46 76/146/46 21/95/46
f 8/8/5 15/12/5 22/16/5
f 16/11/5 25/25/5 29/26/5
f 49/97/47 53/147/47 30/98/47
f 26/100/48 67/148/48 82/101/48
f 7/7/5 68/60/5 25/25/5
f 53/103/49 51/149/49 28/104/49
f 4/106/107 31/82/107 35/34/107
f 32/107/108 56/150/108 59/108/108
f 32/110/46 73/151/46 88/111/46
f 3/9/109 74/65/109 31/82/109
f 40/29/110 33/32/110 37/33/110
f 59/113/54 57/116/54 34/114/54
f 57/116/111 61/118/111 38/117/111
f 69/63/112 35/34/112 33/32/112
f 61/118/57 65/152/57 42/119/57
f 42/120/113 65/153/113 64/121/113
f 79/123/48 70/154/48 39/124/48
f 48/42/6 44/41/6 17/15/6
f 44/41/6 52/44/6 18/13/6
f 45/39/6 17/15/6 13/14/6
f 54/48/6 50/47/6 18/13/6
f 50/47/6 81/73/6 14/2/6
f 55/126/114 87/78/114 10/4/114
f 62/55/115 58/54/115 9/5/115
f 58/54/116 60/57/116 10/4/116
f 62/55/117 80/70/117 63/50/117
f 5/10/118 71/64/118 68/60/118
f 4/106/64 69/63/64 71/64/64
f 74/65/64 3/9/64 6/6/64
f 77/69/119 6/6/119 8/8/119
f 9/5/120 12/3/120 83/74/120
f 12/3/121 14/2/121 81/73/121
f 89/79/122 86/75/122 13/14/122
f 87/78/123 89/79/123 11/1/123
