# Blender 5.0.1
# www.blender.org
mtllib Toothbrush01.mtl
o Toothbrush01
v -0.007663 -0.000035 0.028091
v -0.007663 -0.000035 0.028091
v -0.007663 -0.000035 0.028091
v -0.007663 -0.000035 0.028091
v -0.006214 0.009129 0.029539
v -0.006214 0.009129 0.029539
v -0.006214 0.009129 0.029539
v -0.006214 0.009129 0.029539
v -0.006128 0.000023 -0.066028
v -0.006128 0.000023 -0.066028
v -0.006128 0.000023 -0.066028
v -0.006128 0.008115 -0.066028
v -0.006128 0.008115 -0.066028
v -0.006128 0.008115 -0.066028
v 0.007663 -0.000035 0.028091
v 0.007663 -0.000035 0.028091
v 0.007663 -0.000035 0.028091
v 0.007663 -0.000035 0.028091
v 0.006214 0.009129 0.029539
v 0.006214 0.009129 0.029539
v 0.006214 0.009129 0.029539
v 0.006214 0.009129 0.029539
v 0.006128 0.000023 -0.066028
v 0.006128 0.000023 -0.066028
v 0.006128 0.000023 -0.066028
v 0.006128 0.008115 -0.066028
v 0.006128 0.008115 -0.066028
v 0.006128 0.008115 -0.066028
v -0.007663 -0.000035 0.067258
v -0.007663 -0.000035 0.067258
v -0.007663 -0.000035 0.067258
v -0.006214 0.009129 0.065810
v -0.006214 0.009129 0.065810
v -0.006214 0.009129 0.065810
v -0.006214 0.009129 0.065810
v 0.006214 0.009129 0.065810
v 0.006214 0.009129 0.065810
v 0.006214 0.009129 0.065810
v 0.006214 0.009129 0.065810
v 0.007663 -0.000035 0.067258
v 0.007663 -0.000035 0.067258
v 0.007663 -0.000035 0.067258
v -0.006128 0.000023 0.019572
v -0.006128 0.000023 0.019572
v -0.006128 0.000023 0.019572
v -0.006128 0.000023 0.019572
v -0.006128 0.007466 0.019572
v -0.006128 0.007466 0.019572
v -0.006128 0.007466 0.019572
v -0.006128 0.007466 0.019572
v 0.006128 0.000023 0.019572
v 0.006128 0.000023 0.019572
v 0.006128 0.000023 0.019572
v 0.006128 0.000023 0.019572
v 0.006128 0.007466 0.019572
v 0.006128 0.007466 0.019572
v 0.006128 0.007466 0.019572
v 0.006128 0.007466 0.019572
v -0.007730 0.008115 -0.048893
v -0.007730 0.008115 -0.048893
v -0.007730 0.008115 -0.048893
v -0.007730 0.008115 -0.048893
v 0.007730 0.000023 -0.048893
v 0.007730 0.000023 -0.048893
v 0.007730 0.000023 -0.048893
v -0.007730 0.000023 -0.048893
v -0.007730 0.000023 -0.048893
v -0.007730 0.000023 -0.048893
v 0.007730 0.008115 -0.048893
v 0.007730 0.008115 -0.048893
v 0.007730 0.008115 -0.048893
v 0.007730 0.008115 -0.048893
v 0.007663 0.009129 0.028091
v 0.007663 0.009129 0.028091
v 0.007663 0.009129 0.028091
v 0.007663 0.009129 0.028091
v -0.007663 0.009129 0.028091
v -0.007663 0.009129 0.028091
v -0.007663 0.009129 0.028091
v -0.007663 0.009129 0.028091
v 0.007663 0.009129 0.067258
v 0.007663 0.009129 0.067258
v 0.007663 0.009129 0.067258
v -0.007663 0.009129 0.067258
v -0.007663 0.009129 0.067258
v -0.007663 0.009129 0.067258
v 0.006251 0.019295 0.029431
v 0.006251 0.019295 0.029431
v 0.006251 0.019295 0.029431
v -0.006251 0.019295 0.029431
v -0.006251 0.019295 0.029431
v -0.006251 0.019295 0.029431
v 0.006251 0.019295 0.065918
v 0.006251 0.019295 0.065918
v 0.006251 0.019295 0.065918
v -0.006251 0.019295 0.065918
v -0.006251 0.019295 0.065918
v -0.006251 0.019295 0.065918
vn -0.9957 -0.0000 -0.0931
vn -0.0000 -0.0000 -1.0000
vn 0.9842 -0.0000 -0.1773
vn -1.0000 -0.0000 -0.0000
vn -0.0000 -1.0000 -0.0068
vn -0.0000 0.9815 -0.1915
vn -0.0000 -0.0000 1.0000
vn -0.0000 -1.0000 -0.0000
vn 1.0000 -0.0037 -0.0000
vn 1.0000 -0.0000 -0.0000
vn -0.0000 1.0000 0.0095
vn 0.9997 -0.0000 0.0234
vn -0.9842 -0.0000 -0.1773
vn 0.9957 -0.0000 -0.0931
vn -0.0000 1.0000 -0.0000
vn -0.9997 -0.0000 0.0234
vn -0.0000 -0.0107 0.9999
vn -1.0000 -0.0037 -0.0000
vn -0.0000 -0.0107 -0.9999
vt 0.250000 0.875000
vt 0.125000 0.875000
vt 0.125000 1.000000
vt 0.250000 1.000000
vt 0.875000 0.750000
vt 1.000000 0.750000
vt 1.000000 0.875000
vt 0.875000 0.875000
vt 0.500000 0.500000
vt 0.375000 0.500000
vt 0.375000 0.375000
vt 0.500000 0.375000
vt 0.125000 0.375000
vt 0.250000 0.375000
vt 0.250000 0.000000
vt 0.125000 0.000000
vt 0.250000 0.500000
vt 0.625000 0.750000
vt 0.750000 0.750000
vt 0.750000 0.875000
vt 0.625000 0.875000
vt 0.375000 0.000000
vt 1.000000 0.125000
vt 1.000000 0.500000
vt 0.875000 0.500000
vt 0.875000 0.125000
vt 0.500000 0.000000
vt 0.375000 0.875000
vt 0.500000 0.875000
vt 0.125000 0.500000
vt 0.500000 1.000000
vt 0.375000 1.000000
vt 0.250000 0.250000
vt 0.375000 0.250000
vt 0.375000 0.125000
vt 0.250000 0.125000
vt 0.750000 0.500000
vt 0.750000 0.125000
vt 0.750000 0.000000
vt 0.875000 0.000000
vt 0.625000 0.500000
vt 0.625000 0.125000
vt 0.875000 0.625000
vt 0.750000 0.625000
s 0
usemtl Toothbrush01
f 67/1/1 61/2/1 14/3/1
f 67/1/1 14/3/1 11/4/1
f 9/5/2 12/6/2 26/7/2
f 9/5/2 26/7/2 23/8/2
f 53/9/3 57/10/3 75/11/3
f 53/9/3 75/11/3 17/12/3
f 80/13/4 4/14/4 31/15/4
f 80/13/4 31/15/4 86/16/4
f 43/17/5 51/10/5 15/11/5
f 43/17/5 15/11/5 1/14/5
f 55/10/6 47/17/6 77/14/6
f 55/10/6 77/14/6 73/11/6
f 40/18/7 81/19/7 84/20/7
f 40/18/7 84/20/7 29/21/7
f 2/14/8 16/11/8 41/22/8
f 2/14/8 41/22/8 30/15/8
f 39/23/9 22/24/9 89/25/9
f 39/23/9 89/25/9 95/26/9
f 18/12/10 76/11/10 83/22/10
f 18/12/10 83/22/10 42/27/10
f 69/28/11 59/1/11 48/17/11
f 69/28/11 48/17/11 56/10/11
f 66/1/8 63/28/8 52/10/8
f 66/1/8 52/10/8 44/17/8
f 65/29/12 72/28/12 58/10/12
f 65/29/12 58/10/12 54/9/12
f 3/14/13 79/13/13 49/30/13
f 3/14/13 49/30/13 45/17/13
f 25/31/14 28/32/14 71/28/14
f 25/31/14 71/28/14 64/29/14
f 10/4/8 24/32/8 63/28/8
f 10/4/8 63/28/8 66/1/8
f 27/32/15 13/4/15 60/1/15
f 27/32/15 60/1/15 70/28/15
f 46/17/16 50/30/16 62/2/16
f 46/17/16 62/2/16 68/1/16
f 5/33/15 20/34/15 74/11/15
f 5/33/15 74/11/15 78/14/15
f 37/35/15 32/36/15 85/15/15
f 37/35/15 85/15/15 82/22/15
f 33/22/15 6/11/15 78/14/15
f 33/22/15 78/14/15 85/15/15
f 19/14/15 36/15/15 82/22/15
f 19/14/15 82/22/15 74/11/15
f 87/25/15 90/37/15 96/38/15
f 87/25/15 96/38/15 93/26/15
f 34/39/17 38/40/17 94/26/17
f 34/39/17 94/26/17 97/38/17
f 8/38/18 35/37/18 98/41/18
f 8/38/18 98/41/18 92/42/18
f 21/37/19 7/25/19 91/43/19
f 21/37/19 91/43/19 88/44/19
