# Blender 5.0.1
# www.blender.org
mtllib StandingFrame.mtl
o StandingFrame
v -0.033988 0.008526 0.024237
v -0.033988 0.114861 0.005488
v -0.040000 0.000000 0.010509
v -0.040000 0.118177 -0.010329
v 0.033988 0.008526 0.024237
v 0.033988 0.114861 0.005488
v 0.040000 0.000000 0.010509
v 0.040000 0.118177 -0.010329
v -0.010000 0.000000 -0.012134
v -0.010000 0.106414 -0.002824
v -0.010000 0.000872 -0.022096
v -0.010000 0.107285 -0.012786
v 0.010000 0.000000 -0.012134
v 0.010000 0.106414 -0.002824
v 0.010000 0.000872 -0.022096
v 0.010000 0.107285 -0.012786
v -0.040000 0.002605 0.025281
v -0.040000 0.120782 0.004444
v 0.040000 0.120782 0.004444
v 0.040000 0.002605 0.025281
v -0.033988 0.007787 0.020047
v -0.033988 0.114122 0.001297
v 0.033988 0.114122 0.001297
v 0.033988 0.007787 0.020047
vn -1.0000 -0.0000 -0.0000
vn -0.0000 -0.1736 -0.9848
vn 1.0000 -0.0000 -0.0000
vn -0.0000 -0.9848 0.1736
vn -0.0000 0.9848 -0.1736
vn -0.0000 0.0872 -0.9962
vn -0.0000 -0.0872 0.9962
vn -0.0000 -0.9962 -0.0872
vn -0.0000 0.9962 0.0872
vn -0.0000 0.1736 0.9848
vt 0.875000 0.500000
vt 1.000000 0.125000
vt 0.875000 0.125000
vt 0.625000 0.125000
vt 0.625000 0.500000
vt 0.500000 0.125000
vt 0.375000 0.500000
vt 0.375000 0.125000
vt 0.625000 -0.000000
vt 0.625000 0.625000
vt 0.875000 0.625000
vt 0.875000 1.000000
vt 1.000000 0.625000
vt 0.750000 1.000000
vt 0.750000 0.625000
vt 0.625000 1.000000
vt 0.500000 0.625000
vt 0.500000 0.500000
vt 1.000000 0.500000
vt 0.125000 0.500000
vt 0.000000 0.125000
vt 0.125000 0.125000
vt 0.375000 -0.000000
vt 0.125000 0.625000
vt 0.125000 0.000000
vt 0.000000 0.500000
vt 0.375000 0.625000
vt 0.875000 0.000000
vt 1.000000 1.000000
vt 0.500000 1.000000
vt 0.125000 -0.000000
s 0
usemtl StandingFrame
f 18/1/1 3/2/1 17/3/1
f 4/1/2 7/4/2 3/3/2
f 8/5/3 20/6/3 7/4/3
f 6/7/1 24/6/1 5/8/1
f 7/3/4 17/9/4 3/4/4
f 4/10/5 19/1/5 8/11/5
f 10/12/1 11/13/1 9/11/1
f 12/14/6 15/11/6 11/15/6
f 16/14/3 13/10/3 15/15/3
f 14/16/7 9/17/7 13/10/7
f 15/10/8 9/18/8 11/17/8
f 12/11/9 14/19/9 16/13/9
f 2/20/10 17/21/10 1/22/10
f 6/7/10 20/6/10 19/18/10
f 1/22/10 20/23/10 5/8/10
f 6/7/10 18/24/10 2/20/10
f 23/7/10 21/22/10 24/8/10
f 5/23/5 21/22/5 1/25/5
f 1/21/3 22/20/3 2/26/3
f 2/20/4 23/27/4 6/7/4
f 18/1/1 4/19/1 3/2/1
f 4/1/2 8/5/2 7/4/2
f 8/5/3 19/18/3 20/6/3
f 6/7/1 23/18/1 24/6/1
f 7/3/4 20/28/4 17/9/4
f 4/10/5 18/5/5 19/1/5
f 10/12/1 12/29/1 11/13/1
f 12/14/6 16/12/6 15/11/6
f 16/14/3 14/16/3 13/10/3
f 14/16/7 10/30/7 9/17/7
f 15/10/8 13/5/8 9/18/8
f 12/11/9 10/1/9 14/19/9
f 2/20/10 18/26/10 17/21/10
f 6/7/10 5/8/10 20/6/10
f 1/22/10 17/31/10 20/23/10
f 6/7/10 19/27/10 18/24/10
f 23/7/10 22/20/10 21/22/10
f 5/23/5 24/8/5 21/22/5
f 1/21/3 21/22/3 22/20/3
f 2/20/4 22/24/4 23/27/4
