# Blender 5.1.1
# www.blender.org
mtllib GlockBullet.mtl
o GlockBullet
v -0.001535 0.096578 -0.034070
v -0.001535 0.096578 -0.050415
v 0.001535 0.096578 -0.034070
v 0.001535 0.096578 -0.050415
v 0.003706 0.098749 -0.034070
v 0.003706 0.098749 -0.050415
v 0.003706 0.101819 -0.034070
v 0.003706 0.101819 -0.050415
v 0.001535 0.103990 -0.034070
v 0.001535 0.103990 -0.050415
v -0.001535 0.103990 -0.034070
v -0.001535 0.103990 -0.050415
v -0.003706 0.101819 -0.034070
v -0.003706 0.101819 -0.050415
v -0.003706 0.098749 -0.034070
v -0.003706 0.098749 -0.050415
v 0.001007 0.097854 -0.053719
v -0.001007 0.097854 -0.053719
v 0.002430 0.099278 -0.053719
v 0.002430 0.101291 -0.053719
v 0.001007 0.102714 -0.053719
v -0.001007 0.102714 -0.053719
v -0.002430 0.101291 -0.053719
v -0.002430 0.099278 -0.053719
v 0.000000 0.100284 -0.055384
vn -0.0000 -1.0000 -0.0000
vn 0.7071 -0.7071 -0.0000
vn 1.0000 -0.0000 -0.0000
vn 0.7071 0.7071 -0.0000
vn -0.0000 1.0000 -0.0000
vn -0.7071 0.7071 -0.0000
vn -0.6596 -0.6596 -0.3603
vn -1.0000 -0.0000 -0.0000
vn -0.7071 -0.7071 -0.0000
vn -0.0000 -0.0000 1.0000
vn -0.5650 -0.0000 -0.8251
vn -0.0000 -0.9328 -0.3603
vn 0.9328 -0.0000 -0.3603
vn -0.6596 0.6596 -0.3603
vn 0.6596 0.6596 -0.3603
vn -0.9328 -0.0000 -0.3603
vn 0.6596 -0.6596 -0.3603
vn -0.0000 0.9328 -0.3603
vn -0.0000 0.5650 -0.8251
vn 0.5650 -0.0000 -0.8251
vn -0.0000 -0.5650 -0.8251
vn -0.3995 -0.3995 -0.8251
vn -0.3995 0.3995 -0.8251
vn 0.3995 0.3995 -0.8251
vn 0.3995 -0.3995 -0.8251
vt 0.625000 0.875000
vt 0.000000 1.000000
vt 0.000000 0.875000
vt 0.625000 0.000000
vt 0.000000 0.125000
vt 0.000000 0.000000
vt 0.625000 0.125000
vt 0.000000 0.250000
vt 0.625000 0.250000
vt 0.000000 0.375000
vt 0.625000 0.375000
vt 0.000000 0.500000
vt 0.625000 0.500000
vt 0.000000 0.625000
vt 0.977156 0.401694
vt 0.899515 0.457412
vt 0.899515 0.413281
vt 0.625000 0.625000
vt 0.000000 0.750000
vt 0.625000 0.750000
vt 0.958172 0.130428
vt 0.873929 0.333809
vt 0.670548 0.249567
vt 0.662338 0.909188
vt 0.716196 0.909188
vt 0.689267 0.987984
vt 0.774628 0.774975
vt 0.852268 0.830692
vt 0.774628 0.842279
vt 0.902195 0.404781
vt 0.979836 0.460498
vt 0.902195 0.472085
vt 0.976827 0.776845
vt 0.899186 0.832562
vt 0.899186 0.788432
vt 0.978070 0.527641
vt 0.900429 0.583359
vt 0.900429 0.539229
vt 0.901634 0.974439
vt 0.979274 0.918722
vt 0.979274 0.962852
vt 0.856536 0.965721
vt 0.778895 0.910003
vt 0.856536 0.898416
vt 0.900429 0.655785
vt 0.978070 0.711502
vt 0.900429 0.723090
vt 0.655655 0.646861
vt 0.709513 0.646801
vt 0.682671 0.725627
vt 0.658104 0.396808
vt 0.711962 0.396808
vt 0.685033 0.475604
vt 0.786464 0.399845
vt 0.840322 0.399845
vt 0.813393 0.478641
vt 0.843405 0.716016
vt 0.789546 0.716016
vt 0.816475 0.637220
vt 0.712127 0.846599
vt 0.658269 0.846599
vt 0.685198 0.767803
vt 0.716743 0.596943
vt 0.662887 0.597429
vt 0.689103 0.518393
vt 0.838276 0.597473
vt 0.784418 0.597473
vt 0.811347 0.518677
vt 0.625000 1.000000
vt 0.977156 0.468999
vt 0.670548 0.130429
vt 0.754791 0.046185
vt 0.873930 0.046185
vt 0.958173 0.249566
vt 0.754791 0.333809
vt 0.852268 0.786562
vt 0.979836 0.416368
vt 0.976827 0.844149
vt 0.978070 0.594946
vt 0.901634 0.907135
vt 0.778895 0.954134
vt 0.978070 0.667372
s 0
usemtl GlockBullet
f 2/1/1 3/2/1 1/3/1
f 4/4/2 5/5/2 3/6/2
f 6/7/3 7/8/3 5/5/3
f 8/9/4 9/10/4 7/8/4
f 10/11/5 11/12/5 9/10/5
f 12/13/6 13/14/6 11/12/6
f 2/15/7 24/16/7 18/17/7
f 14/18/8 15/19/8 13/14/8
f 16/20/9 1/3/9 15/19/9
f 7/21/10 11/22/10 15/23/10
f 24/24/11 23/25/11 25/26/11
f 2/27/12 17/28/12 4/29/12
f 6/30/13 20/31/13 8/32/13
f 14/33/14 22/34/14 23/35/14
f 10/36/15 20/37/15 21/38/15
f 16/39/16 23/40/16 24/41/16
f 4/42/17 19/43/17 6/44/17
f 10/45/18 22/46/18 12/47/18
f 22/48/19 21/49/19 25/50/19
f 20/51/20 19/52/20 25/53/20
f 17/54/21 18/55/21 25/56/21
f 18/57/22 24/58/22 25/59/22
f 23/60/23 22/61/23 25/62/23
f 21/63/24 20/64/24 25/65/24
f 19/66/25 17/67/25 25/68/25
f 2/1/1 4/69/1 3/2/1
f 4/4/2 6/7/2 5/5/2
f 6/7/3 8/9/3 7/8/3
f 8/9/4 10/11/4 9/10/4
f 10/11/5 12/13/5 11/12/5
f 12/13/6 14/18/6 13/14/6
f 2/15/7 16/70/7 24/16/7
f 14/18/8 16/20/8 15/19/8
f 16/20/9 2/1/9 1/3/9
f 15/23/10 1/71/10 3/72/10
f 3/72/10 5/73/10 7/21/10
f 7/21/10 9/74/10 11/22/10
f 11/22/10 13/75/10 15/23/10
f 15/23/10 3/72/10 7/21/10
f 2/27/12 18/76/12 17/28/12
f 6/30/13 19/77/13 20/31/13
f 14/33/14 12/78/14 22/34/14
f 10/36/15 8/79/15 20/37/15
f 16/39/16 14/80/16 23/40/16
f 4/42/17 17/81/17 19/43/17
f 10/45/18 21/82/18 22/46/18
