# Blender 5.1.1
# www.blender.org
mtllib GlockHandle.mtl
o GlockHandle
v 0.012180 0.078810 0.000734
v 0.012180 0.085958 0.006297
v -0.012180 0.085958 0.006297
v -0.012180 0.078810 0.000734
v 0.012180 0.085959 -0.030626
v 0.012180 0.077034 -0.019572
v -0.012180 0.077034 -0.019572
v -0.012180 0.085959 -0.030626
v 0.007294 0.017471 -0.008026
v 0.009505 0.017651 -0.005882
v -0.009505 0.017651 -0.005882
v -0.007294 0.017471 -0.008026
v 0.012180 0.026532 0.021015
v 0.007205 0.026925 0.025506
v -0.007205 0.026925 0.025506
v -0.012180 0.026532 0.021015
v -0.012180 0.024098 -0.006809
v -0.007205 0.023658 -0.011841
v 0.007205 0.023658 -0.011841
v 0.012180 0.024098 -0.006809
v 0.009505 0.019793 0.017632
v 0.007401 0.019936 0.019345
v -0.007401 0.019936 0.019345
v -0.009505 0.019793 0.017632
v 0.012180 0.059628 0.007575
v 0.007205 0.060013 0.011986
v -0.007205 0.060013 0.011986
v -0.012180 0.059628 0.007575
v -0.012180 0.057404 -0.017836
v -0.007205 0.056964 -0.022871
v 0.007205 0.056964 -0.022871
v 0.012180 0.057404 -0.017836
v 0.007205 0.082359 0.021680
v 0.011154 0.085139 0.021896
v -0.011154 0.085139 0.021896
v -0.007205 0.082359 0.021680
v 0.012180 0.084379 0.008575
v 0.007205 0.080698 0.013887
v 0.007205 0.072918 0.008907
v 0.012180 0.076725 0.003626
v -0.012180 0.076725 0.003626
v -0.007205 0.072918 0.008907
v -0.007205 0.080698 0.013887
v -0.012180 0.084379 0.008575
v -0.009333 0.078985 -0.086999
v 0.012180 0.072060 -0.022817
v 0.007205 0.068443 -0.026991
v 0.007205 0.076174 -0.061821
v 0.012180 0.079524 -0.051143
v -0.012180 0.079524 -0.051143
v -0.007205 0.076174 -0.061821
v -0.007205 0.068443 -0.026991
v -0.012180 0.072060 -0.022817
v -0.005724 0.049155 -0.030335
v -0.005724 0.052456 -0.031818
v -0.005724 0.049155 -0.068245
v -0.005724 0.060689 -0.065586
v 0.005724 0.049155 -0.030335
v 0.005724 0.052456 -0.031818
v 0.005724 0.049155 -0.068245
v 0.005724 0.060689 -0.065586
v -0.005724 0.049180 -0.062091
v 0.005724 0.049180 -0.062091
v -0.005724 0.071182 -0.062091
v -0.005724 0.071182 -0.065586
v 0.005724 0.071182 -0.065586
v 0.005724 0.071182 -0.062091
v -0.005724 0.052456 -0.055514
v -0.005724 0.057829 -0.062091
v 0.005724 0.057829 -0.062091
v 0.005724 0.052456 -0.055514
v -0.005724 0.077196 -0.053638
v -0.005724 0.077196 -0.074039
v 0.005724 0.077196 -0.074039
v 0.005724 0.077196 -0.053638
v -0.005724 0.053103 -0.025947
v -0.005724 0.055632 -0.028445
v 0.005724 0.055632 -0.028445
v 0.005724 0.053103 -0.025947
v -0.005724 0.048577 -0.019446
v -0.005724 0.068908 -0.024893
v 0.005724 0.068908 -0.024893
v 0.005724 0.048577 -0.019446
v 0.011251 0.090463 0.005565
v 0.012180 0.089534 0.005716
v -0.012180 0.089534 0.005716
v -0.011251 0.090463 0.005565
v -0.011251 0.090463 -0.031193
v -0.012180 0.089534 -0.031076
v 0.012180 0.089534 -0.031076
v 0.011251 0.090463 -0.031193
v 0.011606 0.089534 0.019896
v 0.011251 0.090463 0.019036
v -0.011251 0.090463 0.019036
v -0.011606 0.089534 0.019896
v 0.009333 0.078985 -0.086999
v -0.012180 0.079563 -0.084207
v 0.011251 0.090463 -0.084207
v -0.012180 0.089534 -0.084207
v 0.012180 0.079563 -0.084207
v 0.012180 0.089534 -0.084207
v -0.007205 0.076174 -0.086999
v -0.011251 0.090463 -0.084207
v 0.007205 0.076174 -0.086999
v 0.010347 0.090463 -0.086999
v -0.010347 0.090463 -0.086999
v -0.002373 0.079815 -0.063227
v -0.000662 0.083946 -0.125501
v 0.002373 0.079815 -0.063227
v 0.000662 0.083946 -0.125501
v 0.005729 0.083171 -0.063227
v 0.001597 0.084882 -0.125501
v 0.005729 0.087917 -0.063227
v 0.001597 0.086205 -0.125501
v 0.002373 0.091272 -0.063227
v 0.000662 0.087141 -0.125501
v -0.002373 0.091272 -0.063227
v -0.000662 0.087141 -0.125501
v -0.005729 0.087917 -0.063227
v -0.001597 0.086205 -0.125501
v -0.005729 0.083171 -0.063227
v -0.001597 0.084882 -0.125501
v -0.007205 0.076174 -0.120610
v -0.006663 0.077722 -0.124589
v -0.009333 0.078985 -0.120610
v -0.007628 0.078985 -0.124589
v 0.007205 0.076174 -0.120610
v 0.006663 0.077722 -0.124589
v -0.008648 0.090463 -0.124589
v -0.010347 0.090463 -0.120610
v 0.010347 0.090463 -0.120610
v 0.008648 0.090463 -0.124589
v 0.007628 0.078985 -0.124589
v 0.009333 0.078985 -0.120610
v 0.002373 0.079815 -0.125501
v -0.002373 0.079815 -0.125501
v 0.005729 0.083171 -0.125501
v 0.005729 0.087917 -0.125501
v 0.002373 0.091272 -0.125501
v -0.002373 0.091272 -0.125501
v -0.005729 0.087917 -0.125501
v -0.005729 0.083171 -0.125501
v 0.000662 0.083946 -0.124530
v -0.000662 0.083946 -0.124530
v 0.001597 0.084882 -0.124530
v 0.001597 0.086205 -0.124530
v 0.000662 0.087141 -0.124530
v -0.000662 0.087141 -0.124530
v -0.001597 0.086205 -0.124530
v -0.001597 0.084882 -0.124530
v -0.002830 0.093550 -0.036635
v 0.002830 0.093550 -0.036635
v 0.006832 0.097552 -0.036635
v 0.006832 0.103212 -0.036635
v 0.002830 0.107214 -0.036635
v -0.002830 0.107214 -0.036635
v -0.006832 0.103212 -0.036635
v -0.006832 0.097552 -0.036635
v 0.002205 0.095058 -0.126038
v -0.002205 0.095058 -0.126038
v 0.005324 0.098177 -0.126038
v 0.005324 0.102588 -0.126038
v 0.002205 0.105707 -0.126038
v -0.002205 0.105707 -0.126038
v -0.005324 0.102588 -0.126038
v -0.005324 0.098177 -0.126038
v 0.002830 0.093551 -0.126038
v -0.002830 0.093550 -0.126038
v 0.006832 0.097552 -0.126038
v 0.006832 0.103212 -0.126038
v 0.002830 0.107214 -0.126038
v -0.002830 0.107214 -0.126038
v -0.006832 0.103212 -0.126038
v -0.006832 0.097552 -0.126038
v 0.002205 0.095058 -0.037722
v -0.002205 0.095058 -0.037722
v 0.005324 0.098177 -0.037722
v 0.005324 0.102588 -0.037722
v 0.002205 0.105707 -0.037722
v -0.002205 0.105707 -0.037722
v -0.005324 0.102588 -0.037722
v -0.005324 0.098177 -0.037722
v 0.010265 0.108500 -0.060070
v 0.008294 0.110471 -0.060099
v -0.004431 0.110471 -0.060099
v 0.010265 0.100333 -0.060070
v 0.010265 0.108500 -0.031171
v 0.008294 0.110471 -0.031201
v -0.004375 0.110471 -0.031201
v 0.010265 0.100333 -0.031171
v 0.010265 0.093529 -0.031171
v -0.007296 0.110471 -0.031201
v -0.007296 0.093529 -0.031201
v 0.008294 0.110471 0.000667
v 0.010265 0.108500 0.000667
v -0.007296 0.093529 0.000667
v 0.010265 0.093529 0.000667
v -0.007296 0.110471 0.000667
v -0.012634 0.020028 0.020234
v -0.007473 0.020438 0.024920
v -0.007473 0.017159 -0.011488
v -0.012634 0.017616 -0.006270
v 0.012634 0.017616 -0.006270
v 0.007473 0.017159 -0.011488
v 0.007473 0.020438 0.024920
v 0.012634 0.020028 0.020234
v -0.009505 0.079103 -0.000505
v -0.007401 0.079245 0.001208
v -0.007294 0.076780 -0.026162
v -0.009505 0.076961 -0.024018
v 0.009505 0.076961 -0.024018
v 0.007294 0.076780 -0.026162
v 0.007401 0.079245 0.001208
v 0.009505 0.079103 -0.000505
vn -0.6678 -0.0395 0.7433
vn -0.7115 -0.0087 -0.7026
vn 0.7115 -0.0087 -0.7026
vn -0.6479 0.2866 0.7057
vn -0.7030 -0.2236 -0.6751
vn 0.7030 -0.2236 -0.6751
vn 0.6697 -0.0422 0.7414
vn 0.6544 0.2860 0.6999
vn 0.7922 -0.3313 0.5124
vn -0.7941 -0.3277 0.5119
vn -0.5606 -0.8099 0.1726
vn 0.6546 -0.7502 0.0932
vn 0.6608 0.1742 0.7301
vn -0.6529 0.1704 0.7380
vn 0.6757 -0.7128 -0.1878
vn -0.7466 -0.6495 -0.1442
vn 0.6569 -0.4974 -0.5666
vn -0.5599 -0.8286 -0.0010
vn -0.7008 -0.2410 -0.6714
vn 0.7169 -0.2243 -0.6601
vn 0.6891 0.2119 0.6930
vn -0.0000 -0.0542 -0.9985
vn 0.9976 0.0694 -0.0063
vn -0.9976 0.0694 -0.0063
vn -0.0000 0.3783 0.9257
vn -0.0000 -0.0901 0.9959
vn 1.0000 -0.0000 -0.0000
vn -1.0000 -0.0000 -0.0000
vn -0.0000 -0.3144 -0.9493
vn -0.0000 0.2321 0.9727
vn -0.0000 -0.3378 -0.9412
vn -0.0000 -0.9780 0.2085
vn -0.0000 -0.5391 0.8422
vn -0.0000 -1.0000 -0.0000
vn -0.0000 -0.9762 -0.2167
vn -0.0000 0.2246 -0.9745
vn -0.0000 0.7281 -0.6855
vn -0.0000 -1.0000 -0.0008
vn -0.0000 -1.0000 0.0041
vn -0.0000 -0.8148 0.5798
vn -0.0000 -0.0000 -1.0000
vn -0.0000 0.7744 0.6327
vn -0.0000 1.0000 -0.0000
vn -0.0000 -0.0000 1.0000
vn -0.0000 -0.8148 -0.5798
vn -0.0000 -0.8207 -0.5713
vn -0.0000 -0.7434 0.6689
vn -0.0000 0.2584 -0.9660
vn -0.7071 0.7071 -0.0000
vn 0.7071 0.7071 -0.0000
vn -0.9217 0.3862 0.0373
vn 0.9217 0.3862 0.0373
vn 0.6893 0.6893 -0.2232
vn 0.9953 -0.0742 0.0615
vn -0.9953 -0.0742 0.0615
vn -0.0000 -0.0771 0.9970
vn 0.5630 -0.8265 -0.0000
vn -0.6893 0.6893 -0.2232
vn -0.7003 -0.0000 -0.7138
vn 0.8226 -0.0727 -0.5640
vn -0.6569 -0.4974 -0.5666
vn -0.0000 0.4141 0.9102
vn -0.0000 0.6794 0.7337
vn 0.7071 -0.7071 -0.0000
vn -0.7071 -0.7071 -0.0000
vn 0.7512 -0.5742 -0.3257
vn -0.0000 -0.9320 -0.3625
vn 0.9161 -0.0814 -0.3925
vn -0.7544 -0.5713 -0.3232
vn -0.9167 -0.0810 -0.3914
vn -0.7972 -0.6037 -0.0000
vn -0.9961 -0.0880 -0.0000
vn 0.7972 -0.6037 -0.0000
vn 0.9961 -0.0880 -0.0000
vn -0.0017 -0.0000 1.0000
vn -0.0018 0.0003 1.0000
vn -0.0000 0.0029 1.0000
vn -0.0150 -0.0000 0.9999
vn -0.0029 -0.9962 0.0865
vn 0.0024 -0.9960 0.0895
vn -0.0008 -0.9964 0.0845
vn 0.0023 -0.9960 0.0897
vn -0.0000 -0.9960 0.0897
vn -0.0000 -0.9959 0.0907
vn -0.0000 -0.9960 0.0896
vn -0.0006 -0.9959 0.0906
vn -0.0008 -0.9959 0.0901
vn -0.0000 0.2924 0.9563
vn -0.0000 -0.2924 -0.9563
vn -0.6891 0.2119 0.6930
vn 0.6238 -0.2286 -0.7474
vn -0.6238 -0.2286 -0.7474
vn -0.6697 -0.0422 0.7414
vn -0.7113 -0.0085 -0.7028
vn 0.7113 -0.0085 -0.7028
vn -0.6544 0.2860 0.6999
vn -0.7028 -0.2236 -0.6753
vn 0.7028 -0.2236 -0.6753
vn 0.6678 -0.0395 0.7433
vn 0.6479 0.2866 0.7057
vn 0.7941 -0.3277 0.5119
vn -0.7922 -0.3313 0.5124
vn -0.6546 -0.7502 0.0932
vn 0.5606 -0.8099 0.1726
vn 0.6529 0.1704 0.7380
vn -0.6608 0.1742 0.7301
vn 0.7466 -0.6495 -0.1442
vn -0.6757 -0.7128 -0.1878
vn -0.5630 -0.8265 -0.0000
vn -0.7169 -0.2243 -0.6601
vn 0.7008 -0.2410 -0.6714
vn 0.9975 0.0704 -0.0062
vn -0.9975 0.0704 -0.0062
vn 0.9923 0.1019 0.0706
vn 0.9992 0.0066 0.0405
vn -0.9992 0.0066 0.0405
vn -0.9923 0.1019 0.0706
vn -0.0000 -0.0772 0.9970
vn 0.5599 -0.8286 -0.0010
vn -0.8226 -0.0727 -0.5640
vn 0.7003 -0.0000 -0.7138
vn 0.7544 -0.5713 -0.3232
vn 0.9167 -0.0810 -0.3914
vn -0.7512 -0.5742 -0.3256
vn -0.9161 -0.0814 -0.3925
vn -0.0023 -0.9960 0.0897
vn 0.0008 -0.9964 0.0845
vn -0.0024 -0.9960 0.0895
vn 0.0029 -0.9962 0.0865
vn 0.0006 -0.9959 0.0906
vn -0.0000 -0.9965 0.0830
vn 0.0068 -0.9959 0.0907
vn -0.0000 -0.9965 0.0837
vn 0.0063 -0.9959 0.0907
vn -0.0007 -0.9959 0.0901
vt 0.598801 0.058454
vt 0.616501 0.037066
vt 0.619448 0.056917
vt 0.664027 0.252308
vt 0.687437 0.271832
vt 0.664429 0.273595
vt 0.593656 0.271357
vt 0.616751 0.252314
vt 0.616427 0.273051
vt 0.616654 0.169902
vt 0.595232 0.172970
vt 0.684971 0.384141
vt 0.663108 0.387747
vt 0.595841 0.383952
vt 0.617775 0.387619
vt 0.683314 0.057801
vt 0.664471 0.035915
vt 0.687825 0.036304
vt 0.665205 0.170312
vt 0.662184 0.056662
vt 0.478393 0.549110
vt 0.486310 0.586653
vt 0.461779 0.569934
vt 0.334711 0.548827
vt 0.326794 0.586371
vt 0.310790 0.565836
vt 0.356566 0.526668
vt 0.341579 0.524926
vt 0.456538 0.526950
vt 0.686642 0.173381
vt 0.664316 0.213588
vt 0.617522 0.213572
vt 0.596552 0.229977
vt 0.517903 0.684442
vt 0.477607 0.762134
vt 0.499391 0.670062
vt 0.295167 0.683930
vt 0.335087 0.761816
vt 0.316587 0.796994
vt 0.483512 0.878322
vt 0.475693 0.868189
vt 0.494670 0.877361
vt 0.336489 0.867879
vt 0.662783 0.425852
vt 0.618041 0.425866
vt 0.595729 0.432317
vt 0.914791 0.630952
vt 0.924381 0.437491
vt 0.924381 0.632380
vt 0.475936 0.045491
vt 0.555052 0.007766
vt 0.471537 0.025064
vt 0.473537 0.231017
vt 0.552653 0.268741
vt 0.557051 0.248315
vt 0.553141 0.141028
vt 0.563515 0.027032
vt 0.475447 0.364279
vt 0.465073 0.250282
vt 0.471537 0.207462
vt 0.550038 0.206219
vt 0.471625 0.420381
vt 0.542466 0.442941
vt 0.555434 0.381137
vt 0.428231 0.482456
vt 0.384615 0.507992
vt 0.384615 0.482456
vt 0.456536 0.577423
vt 0.428231 0.452855
vt 0.356568 0.577141
vt 0.333631 0.595481
vt 0.304387 0.249588
vt 0.258212 0.330273
vt 0.258212 0.249588
vt 0.456306 0.695761
vt 0.483479 0.660259
vt 0.304387 0.138406
vt 0.313748 0.669640
vt 0.356709 0.695546
vt 0.218038 0.114697
vt 0.204088 0.095731
vt 0.218038 0.095731
vt 0.186655 0.100605
vt 0.173167 0.108028
vt 0.173167 0.100605
vt 0.204088 0.085871
vt 0.218038 0.034989
vt 0.218038 0.085871
vt 0.173167 0.027635
vt 0.186655 0.011014
vt 0.186655 0.027635
vt 0.204088 0.131509
vt 0.204088 0.114697
vt 0.280989 0.004847
vt 0.302051 0.015372
vt 0.280955 0.032565
vt 0.280751 0.032395
vt 0.301846 0.015203
vt 0.280784 0.004678
vt 0.173167 0.062637
vt 0.186655 0.049030
vt 0.186655 0.062637
vt 0.261064 0.004574
vt 0.269538 0.041547
vt 0.173167 0.049030
vt 0.382753 0.004889
vt 0.261268 0.004743
vt 0.269742 0.041716
vt 0.382548 0.004719
vt 0.218038 0.131509
vt 0.204088 0.148131
vt 0.269498 0.075170
vt 0.307763 0.094490
vt 0.280700 0.075184
vt 0.280904 0.075354
vt 0.242593 0.094581
vt 0.269702 0.075340
vt 0.204088 0.025531
vt 0.218038 0.012839
vt 0.218038 0.025531
vt 0.377783 0.015294
vt 0.396594 0.017388
vt 0.377988 0.015463
vt 0.396798 0.017557
vt 0.388785 0.025652
vt 0.204088 0.034989
vt 0.400114 0.068210
vt 0.186655 0.108028
vt 0.173167 0.130048
vt 0.399909 0.068040
vt 0.417445 0.002909
vt 0.372176 0.579526
vt 0.368759 0.696895
vt 0.367978 0.579018
vt 0.440928 0.579809
vt 0.444345 0.697178
vt 0.440137 0.697523
vt 0.372967 0.536579
vt 0.369860 0.533745
vt 0.445126 0.579301
vt 0.440137 0.536862
vt 0.443244 0.534028
vt 0.440273 0.867876
vt 0.444491 0.867888
vt 0.438194 0.877072
vt 0.372256 0.697484
vt 0.367692 0.867729
vt 0.368039 0.697100
vt 0.372189 0.579786
vt 0.440423 0.536554
vt 0.440423 0.579786
vt 0.440423 0.697756
vt 0.372189 0.697756
vt 0.479473 0.595763
vt 0.455782 0.695830
vt 0.328527 0.660451
vt 0.372189 0.867893
vt 0.372659 0.516927
vt 0.428231 0.507992
vt 0.440186 0.516927
vt 0.440749 0.697623
vt 0.444968 0.697259
vt 0.495936 0.797401
vt 0.371909 0.867737
vt 0.373944 0.876943
vt 0.334740 0.880368
vt 0.440423 0.867893
vt 0.374931 0.876857
vt 0.477381 0.880686
vt 0.441403 0.878290
vt 0.317467 0.876960
vt 0.328620 0.877974
vt 0.441552 0.532401
vt 0.371294 0.532401
vt 0.440480 0.536456
vt 0.372366 0.536456
vt 0.734794 0.797779
vt 0.750320 0.997339
vt 0.734794 0.997339
vt 0.750320 0.797779
vt 0.765846 0.997339
vt 0.765846 0.797779
vt 0.781372 0.997339
vt 0.781373 0.797779
vt 0.796899 0.997339
vt 0.796899 0.797779
vt 0.812425 0.997339
vt 0.812425 0.797779
vt 0.827951 0.997339
vt 0.781247 0.811599
vt 0.796729 0.797762
vt 0.796729 0.811599
vt 0.827951 0.797779
vt 0.843477 0.997339
vt 0.843477 0.797779
vt 0.859003 0.997339
vt 0.342478 0.451783
vt 0.353059 0.440224
vt 0.347466 0.452830
vt 0.259949 0.451662
vt 0.304387 0.437981
vt 0.302650 0.451662
vt 0.305552 0.451776
vt 0.341997 0.437919
vt 0.220195 0.451759
vt 0.209614 0.440200
vt 0.220676 0.437896
vt 0.257121 0.451752
vt 0.257600 0.437896
vt 0.304387 0.330273
vt 0.258212 0.437981
vt 0.305815 0.470042
vt 0.259890 0.465981
vt 0.302711 0.465981
vt 0.209377 0.330188
vt 0.220676 0.330188
vt 0.309092 0.506933
vt 0.256786 0.470042
vt 0.353296 0.437919
vt 0.341997 0.330212
vt 0.353296 0.330212
vt 0.437681 0.876857
vt 0.432529 0.997495
vt 0.374931 0.984725
vt 0.305073 0.330212
vt 0.771462 0.752753
vt 0.755224 0.750268
vt 0.765978 0.739513
vt 0.768464 0.759992
vt 0.768464 0.755752
vt 0.765978 0.776231
vt 0.755224 0.765476
vt 0.771462 0.762990
vt 0.781187 0.776231
vt 0.775703 0.762990
vt 0.791941 0.765476
vt 0.778701 0.755752
vt 0.778701 0.759992
vt 0.781187 0.739513
vt 0.791941 0.750268
vt 0.775703 0.752753
vt 0.750283 0.811599
vt 0.765765 0.797762
vt 0.765765 0.811599
vt 0.843180 0.811588
vt 0.858662 0.797750
vt 0.858662 0.811588
vt 0.812216 0.811588
vt 0.827698 0.797750
vt 0.827698 0.811588
vt 0.781247 0.797762
vt 0.734801 0.811599
vt 0.750283 0.797762
vt 0.843180 0.797750
vt 0.796734 0.811588
vt 0.812216 0.797750
vt 0.828739 0.740939
vt 0.813915 0.748934
vt 0.826739 0.736109
vt 0.818744 0.765069
vt 0.818744 0.750934
vt 0.826739 0.779894
vt 0.813915 0.767070
vt 0.828739 0.775064
vt 0.844875 0.779894
vt 0.842875 0.775064
vt 0.857699 0.767070
vt 0.852870 0.765069
vt 0.857699 0.748934
vt 0.852870 0.750934
vt 0.844875 0.736109
vt 0.828739 0.740939
vt 0.842875 0.740939
vt 0.852909 0.750970
vt 0.842914 0.775100
vt 0.818784 0.765105
vt 0.875192 0.703837
vt 0.890772 0.990332
vt 0.875192 0.990332
vt 0.890772 0.703837
vt 0.906351 0.990332
vt 0.984249 0.703837
vt 0.999829 0.990332
vt 0.984249 0.990332
vt 0.968670 0.703837
vt 0.968670 0.990332
vt 0.953090 0.703837
vt 0.953090 0.990332
vt 0.953101 0.987154
vt 0.937590 0.704142
vt 0.953101 0.704142
vt 0.968612 0.987154
vt 0.968612 0.704142
vt 0.937590 0.987154
vt 0.922079 0.704142
vt 0.984122 0.987154
vt 0.984122 0.704142
vt 0.937510 0.703837
vt 0.937510 0.990332
vt 0.999633 0.987154
vt 0.999633 0.704142
vt 0.891058 0.987154
vt 0.875547 0.704142
vt 0.891058 0.704142
vt 0.922079 0.987154
vt 0.906569 0.704142
vt 0.906569 0.987154
vt 0.906351 0.703837
vt 0.921931 0.990332
vt 0.921931 0.703837
vt 0.618670 0.812318
vt 0.711277 0.788400
vt 0.711277 0.812318
vt 0.618765 0.821249
vt 0.711371 0.821249
vt 0.593171 0.965786
vt 0.532027 0.939646
vt 0.593171 0.939646
vt 0.613070 0.999965
vt 0.715098 0.936587
vt 0.715098 0.999965
vt 0.715098 0.875442
vt 0.612976 0.936587
vt 0.612976 0.875442
vt 0.618765 0.861849
vt 0.711371 0.862028
vt 0.532027 0.998635
vt 0.542196 0.998635
vt 0.586309 0.998635
vt 0.593171 0.991773
vt 0.593247 0.935950
vt 0.538982 0.935950
vt 0.593247 0.876979
vt 0.532123 0.876979
vt 0.532123 0.929090
vt 0.671086 0.490562
vt 0.687027 0.487838
vt 0.677497 0.495798
vt 0.670761 0.574264
vt 0.687027 0.568899
vt 0.671308 0.584853
vt 0.626329 0.574264
vt 0.610064 0.568899
vt 0.619594 0.567710
vt 0.626005 0.490562
vt 0.610064 0.487838
vt 0.625783 0.473513
vt 0.671308 0.473513
vt 0.677496 0.567710
vt 0.625783 0.584853
vt 0.619594 0.495798
vt 0.610063 0.487838
vt 0.627006 0.491587
vt 0.676464 0.497921
vt 0.670267 0.572492
vt 0.868951 0.630952
vt 0.914791 0.436063
vt 0.731766 0.648695
vt 0.778276 0.453806
vt 0.778276 0.648695
vt 0.859362 0.437491
vt 0.868951 0.436063
vt 0.723304 0.647550
vt 0.731766 0.453806
vt 0.859362 0.632380
vt 0.786738 0.452661
vt 0.997005 0.452661
vt 0.997005 0.647550
vt 0.786738 0.647550
vt 0.594062 0.037877
vt 0.687342 0.251131
vt 0.593863 0.251031
vt 0.502314 0.566119
vt 0.351325 0.569651
vt 0.471525 0.525209
vt 0.685059 0.229977
vt 0.684997 0.432317
vt 0.473154 0.157887
vt 0.486122 0.219690
vt 0.556963 0.197131
vt 0.478550 0.429469
vt 0.557051 0.430713
vt 0.384615 0.452855
vt 0.258212 0.138406
vt 0.329707 0.659914
vt 0.173167 0.011014
vt 0.218038 0.148131
vt 0.242388 0.094411
vt 0.307967 0.094659
vt 0.204088 0.012839
vt 0.388580 0.025483
vt 0.417649 0.003079
vt 0.186655 0.130048
vt 0.372967 0.697241
vt 0.372189 0.536554
vt 0.484577 0.660734
vt 0.357322 0.695548
vt 0.370730 0.878145
vt 0.859003 0.797779
vt 0.305073 0.437919
vt 0.215207 0.452806
vt 0.209377 0.437896
vt 0.257600 0.330188
vt 0.253509 0.506933
vt 0.437681 0.984725
vt 0.380083 0.997495
vt 0.734801 0.797762
vt 0.796734 0.797750
vt 0.818784 0.750970
vt 0.828779 0.740975
vt 0.842914 0.740975
vt 0.852909 0.765105
vt 0.828779 0.775100
vt 0.999829 0.703837
vt 0.875547 0.987154
vt 0.618670 0.788400
vt 0.619595 0.495798
vt 0.626692 0.572492
vt 0.620496 0.567431
vt 0.620496 0.497921
vt 0.669954 0.491587
vt 0.676464 0.567431
vt 0.723304 0.452661
s 0
usemtl Glock19
f 16/1/1 200/2/1 15/3/1
f 201/4/2 17/5/2 18/6/2
f 20/7/3 204/8/3 19/9/3
f 16/1/4 27/10/4 28/11/4
f 18/6/5 29/12/5 30/13/5
f 32/14/6 19/9/6 31/15/6
f 13/16/7 205/17/7 206/18/7
f 13/16/8 26/19/8 14/20/8
f 38/21/9 40/22/9 37/23/9
f 43/24/10 41/25/10 42/26/10
f 35/27/11 43/24/11 36/28/11
f 34/29/12 38/21/12 37/23/12
f 25/30/13 39/31/13 26/19/13
f 28/11/14 42/32/14 41/33/14
f 47/34/15 49/35/15 46/36/15
f 52/37/16 50/38/16 51/39/16
f 96/40/17 100/41/17 104/42/17
f 97/43/18 51/39/18 50/38/18
f 29/12/19 52/44/19 30/13/19
f 32/14/20 47/45/20 46/46/20
f 12/47/21 210/48/21 11/49/21
f 18/6/22 204/8/22 201/4/22
f 20/50/23 206/51/23 203/52/23
f 199/53/24 17/54/24 202/55/24
f 26/19/25 15/3/25 14/20/25
f 205/17/26 15/3/26 200/2/26
f 20/50/27 25/56/27 13/57/27
f 28/58/28 17/54/28 16/59/28
f 30/13/29 19/9/29 18/6/29
f 46/60/27 1/61/27 25/56/27
f 39/31/30 27/10/30 26/19/30
f 41/62/28 7/63/28 29/64/28
f 52/44/31 31/15/31 30/13/31
f 38/65/32 36/66/32 43/67/32
f 40/22/27 2/68/27 37/23/27
f 43/67/33 39/69/33 38/65/33
f 41/25/28 3/70/28 4/71/28
f 51/72/34 104/73/34 48/74/34
f 46/36/27 5/75/27 6/76/27
f 48/74/35 52/77/35 51/72/35
f 53/78/28 8/79/28 50/38/28
f 57/80/36 60/81/36 56/82/36
f 55/83/37 78/84/37 59/85/37
f 63/86/38 54/87/38 62/88/38
f 60/81/39 62/88/39 56/82/39
f 67/89/40 72/90/40 64/91/40
f 57/80/41 66/92/41 61/93/41
f 62/94/28 68/95/28 69/96/28
f 70/97/27 71/98/27 63/99/27
f 71/100/42 69/101/42 68/102/42
f 70/97/27 60/103/27 61/104/27
f 68/102/43 59/85/43 71/100/43
f 70/105/44 64/91/44 69/101/44
f 54/106/28 68/95/28 62/94/28
f 56/107/28 69/96/28 57/108/28
f 71/98/27 58/109/27 63/99/27
f 65/110/45 74/111/45 66/92/45
f 66/112/27 75/113/27 67/114/27
f 64/115/28 73/116/28 65/117/28
f 79/118/46 80/119/46 76/120/46
f 59/121/27 79/122/27 58/109/27
f 55/123/28 76/124/28 77/125/28
f 58/126/47 76/120/47 54/87/47
f 76/124/28 81/127/28 77/125/28
f 77/128/48 82/129/48 78/84/48
f 79/122/27 82/130/27 83/131/27
f 57/108/28 64/115/28 65/117/28
f 67/114/27 61/104/27 66/112/27
f 87/132/49 89/133/49 86/134/49
f 84/135/50 90/136/50 91/137/50
f 94/138/51 86/134/51 95/139/51
f 85/140/52 93/141/52 92/142/52
f 98/143/53 101/144/53 105/145/53
f 88/146/49 99/147/49 89/148/49
f 87/149/43 93/150/43 84/151/43
f 87/149/43 91/152/43 88/153/43
f 2/68/54 92/142/54 34/29/54
f 1/154/27 5/155/27 85/140/27
f 3/70/55 35/27/55 95/139/55
f 7/156/28 3/70/28 89/133/28
f 91/152/43 103/157/43 88/153/43
f 8/79/28 99/147/28 97/43/28
f 5/75/27 100/41/27 101/144/27
f 35/158/56 33/159/56 34/160/56
f 101/144/50 91/161/50 90/162/50
f 100/41/57 48/163/57 104/42/57
f 99/147/58 103/164/58 106/165/58
f 99/147/59 45/166/59 97/43/59
f 98/167/43 106/168/43 103/157/43
f 101/144/60 96/169/60 105/170/60
f 102/171/61 97/43/61 45/172/61
f 35/158/62 92/173/62 95/174/62
f 95/174/63 93/175/63 94/176/63
f 136/177/34 109/178/34 107/179/34
f 135/180/64 111/181/64 109/178/64
f 137/182/27 113/183/27 111/181/27
f 138/184/50 115/185/50 113/183/50
f 139/186/43 117/187/43 115/185/43
f 140/188/49 119/189/49 117/187/49
f 122/190/50 144/191/50 108/192/50
f 141/193/28 121/194/28 119/189/28
f 142/195/65 107/196/65 121/194/65
f 133/197/66 127/198/66 128/199/66
f 128/200/67 123/201/67 124/202/67
f 132/203/68 134/204/68 133/197/68
f 126/205/69 123/206/69 125/207/69
f 129/208/70 125/207/70 130/209/70
f 102/210/34 127/211/34 104/73/34
f 126/212/41 128/213/41 124/214/41
f 125/207/71 102/215/71 45/216/71
f 45/216/72 130/209/72 125/207/72
f 129/217/41 133/218/41 126/212/41
f 127/219/73 96/220/73 104/221/73
f 105/222/43 132/223/43 130/224/43
f 134/204/74 105/225/74 96/220/74
f 108/226/41 135/227/41 136/228/41
f 112/229/41 135/227/41 110/230/41
f 112/229/41 138/231/41 137/232/41
f 114/233/41 139/234/41 138/231/41
f 116/235/41 140/236/41 139/234/41
f 120/237/41 140/236/41 118/238/41
f 120/237/41 142/239/41 141/240/41
f 108/226/41 142/239/41 122/241/41
f 118/242/64 149/243/64 120/244/64
f 114/245/65 147/246/65 116/247/65
f 110/248/49 145/249/49 112/250/49
f 120/244/27 150/251/27 122/190/27
f 116/252/34 148/253/34 118/242/34
f 112/250/28 146/254/28 114/245/28
f 108/255/43 143/256/43 110/248/43
f 160/257/41 167/258/41 168/259/41
f 161/260/41 167/258/41 159/261/41
f 161/260/41 170/262/41 169/263/41
f 162/264/41 171/265/41 170/262/41
f 163/266/41 172/267/41 171/265/41
f 164/268/41 173/269/41 172/267/41
f 165/270/41 174/271/41 173/269/41
f 160/272/41 174/271/41 166/273/41
f 181/274/41 179/275/41 177/276/41
f 168/277/34 152/278/34 151/279/34
f 167/280/64 153/281/64 152/278/64
f 174/282/65 151/283/65 158/284/65
f 173/285/28 158/284/28 157/286/28
f 172/287/49 157/286/49 156/288/49
f 182/289/50 160/290/50 166/291/50
f 181/292/27 166/291/27 165/293/27
f 176/294/43 159/295/43 160/290/43
f 180/296/64 165/293/64 164/297/64
f 171/298/43 156/288/43 155/299/43
f 179/300/34 164/297/34 163/301/34
f 178/302/65 163/303/65 162/304/65
f 175/305/49 161/306/49 159/295/49
f 177/307/28 162/304/28 161/306/28
f 169/308/27 154/309/27 153/281/27
f 170/310/50 155/299/50 154/309/50
f 187/311/27 186/312/27 183/313/27
f 188/314/50 183/313/50 184/315/50
f 190/316/75 193/317/75 191/318/75
f 191/319/43 196/320/43 197/321/43
f 198/322/27 193/323/27 192/324/27
f 189/325/43 184/315/43 185/326/43
f 192/327/44 193/317/44 189/328/44
f 193/317/76 190/316/76 189/328/76
f 189/328/77 190/316/77 188/329/77
f 190/316/78 187/330/78 188/329/78
f 198/331/41 194/332/41 196/333/41
f 196/333/41 194/332/41 197/334/41
f 194/332/41 195/335/41 197/334/41
f 23/336/79 199/337/79 24/338/79
f 12/339/80 202/340/80 201/341/80
f 9/342/81 203/343/81 10/344/81
f 22/345/82 206/346/82 205/347/82
f 23/336/83 205/347/83 200/348/83
f 24/338/84 202/340/84 11/349/84
f 12/339/85 204/350/85 9/342/85
f 21/351/86 203/343/86 206/352/86
f 209/353/87 211/354/87 213/355/87
f 9/356/88 209/357/88 12/47/88
f 23/358/89 213/359/89 22/360/89
f 9/356/90 211/361/90 212/362/90
f 24/363/91 208/364/91 23/358/91
f 10/365/28 214/366/28 211/361/28
f 11/49/27 207/367/27 24/368/27
f 21/369/92 213/359/92 214/366/92
f 16/1/93 199/370/93 200/2/93
f 201/4/94 202/371/94 17/5/94
f 20/7/95 203/372/95 204/8/95
f 16/1/96 15/3/96 27/10/96
f 18/6/97 17/5/97 29/12/97
f 32/14/98 20/7/98 19/9/98
f 13/16/99 14/20/99 205/17/99
f 13/16/100 25/30/100 26/19/100
f 38/21/101 39/373/101 40/22/101
f 43/24/102 44/374/102 41/25/102
f 35/27/103 44/374/103 43/24/103
f 34/29/104 33/375/104 38/21/104
f 25/30/105 40/376/105 39/31/105
f 28/11/106 27/10/106 42/32/106
f 47/34/107 48/163/107 49/35/107
f 52/37/108 53/78/108 50/38/108
f 97/43/109 102/171/109 51/39/109
f 29/12/110 53/377/110 52/44/110
f 32/14/111 31/15/111 47/45/111
f 12/47/21 209/357/21 210/48/21
f 18/6/22 19/9/22 204/8/22
f 20/50/112 13/57/112 206/51/112
f 199/53/113 16/59/113 17/54/113
f 26/19/25 27/10/25 15/3/25
f 205/17/26 14/20/26 15/3/26
f 20/50/27 32/378/27 25/56/27
f 28/58/28 29/64/28 17/54/28
f 30/13/29 31/15/29 19/9/29
f 25/56/27 32/378/27 46/60/27
f 46/60/27 6/379/27 1/61/27
f 1/61/27 40/380/27 25/56/27
f 39/31/30 42/32/30 27/10/30
f 29/64/28 28/58/28 41/62/28
f 41/62/28 4/381/28 7/63/28
f 7/63/28 53/382/28 29/64/28
f 52/44/31 47/45/31 31/15/31
f 38/65/32 33/159/32 36/66/32
f 40/22/27 1/154/27 2/68/27
f 43/67/33 42/383/33 39/69/33
f 41/25/28 44/374/28 3/70/28
f 51/72/34 102/210/34 104/73/34
f 46/36/27 49/35/27 5/75/27
f 48/74/35 47/384/35 52/77/35
f 53/78/28 7/385/28 8/79/28
f 57/80/36 61/93/36 60/81/36
f 55/83/37 77/128/37 78/84/37
f 63/86/38 58/126/38 54/87/38
f 60/81/39 63/86/39 62/88/39
f 67/89/40 75/386/40 72/90/40
f 57/80/41 65/110/41 66/92/41
f 71/100/42 70/105/42 69/101/42
f 70/97/27 63/99/27 60/103/27
f 68/102/43 55/83/43 59/85/43
f 70/105/44 67/89/44 64/91/44
f 54/106/28 55/123/28 68/95/28
f 56/107/28 62/94/28 69/96/28
f 71/98/27 59/121/27 58/109/27
f 65/110/45 73/387/45 74/111/45
f 66/112/27 74/388/27 75/113/27
f 64/115/28 72/389/28 73/116/28
f 79/118/46 83/390/46 80/119/46
f 59/121/27 78/391/27 79/122/27
f 55/123/28 54/106/28 76/124/28
f 58/126/47 79/118/47 76/120/47
f 76/124/28 80/392/28 81/127/28
f 77/128/48 81/393/48 82/129/48
f 79/122/27 78/391/27 82/130/27
f 57/108/28 69/96/28 64/115/28
f 67/114/27 70/97/27 61/104/27
f 87/132/49 88/394/49 89/133/49
f 84/135/50 85/140/50 90/136/50
f 94/138/49 87/132/49 86/134/49
f 85/140/50 84/135/50 93/141/50
f 88/146/49 103/164/49 99/147/49
f 87/149/43 94/395/43 93/150/43
f 87/149/43 84/151/43 91/152/43
f 34/29/114 37/23/114 2/68/114
f 2/68/115 85/140/115 92/142/115
f 85/140/27 2/68/27 1/154/27
f 1/154/27 6/396/27 5/155/27
f 5/155/27 90/136/27 85/140/27
f 95/139/116 86/134/116 3/70/116
f 3/70/117 44/374/117 35/27/117
f 89/133/28 8/397/28 7/156/28
f 7/156/28 4/71/28 3/70/28
f 3/70/28 86/134/28 89/133/28
f 91/152/43 98/167/43 103/157/43
f 97/43/28 50/38/28 8/79/28
f 8/79/28 89/148/28 99/147/28
f 101/144/27 90/162/27 5/75/27
f 5/75/27 49/35/27 100/41/27
f 35/158/118 36/66/118 33/159/118
f 101/144/50 98/143/50 91/161/50
f 100/41/119 49/35/119 48/163/119
f 99/147/120 106/398/120 45/166/120
f 98/167/43 105/222/43 106/168/43
f 101/144/121 100/41/121 96/169/121
f 35/158/62 34/160/62 92/173/62
f 95/174/63 92/173/63 93/175/63
f 136/177/34 135/180/34 109/178/34
f 135/180/64 137/182/64 111/181/64
f 137/182/27 138/184/27 113/183/27
f 138/184/50 139/186/50 115/185/50
f 139/186/43 140/188/43 117/187/43
f 140/188/49 141/193/49 119/189/49
f 122/190/50 150/251/50 144/191/50
f 141/193/28 142/195/28 121/194/28
f 142/195/65 136/399/65 107/196/65
f 133/197/122 134/204/122 127/198/122
f 128/200/67 127/211/67 123/201/67
f 132/203/123 131/400/123 134/204/123
f 126/205/124 124/401/124 123/206/124
f 129/208/125 126/205/125 125/207/125
f 102/210/34 123/201/34 127/211/34
f 126/212/41 133/218/41 128/213/41
f 125/207/71 123/402/71 102/215/71
f 45/216/72 106/403/72 130/209/72
f 129/217/41 132/404/41 133/218/41
f 127/219/73 134/204/73 96/220/73
f 130/224/43 106/168/43 105/222/43
f 105/222/43 131/405/43 132/223/43
f 132/223/43 129/406/43 130/224/43
f 134/204/74 131/400/74 105/225/74
f 108/226/41 110/230/41 135/227/41
f 112/229/41 137/232/41 135/227/41
f 112/229/41 114/233/41 138/231/41
f 114/233/41 116/235/41 139/234/41
f 116/235/41 118/238/41 140/236/41
f 120/237/41 141/240/41 140/236/41
f 120/237/41 122/241/41 142/239/41
f 108/226/41 136/228/41 142/239/41
f 118/242/64 148/253/64 149/243/64
f 114/245/65 146/254/65 147/246/65
f 110/248/49 143/256/49 145/249/49
f 120/244/27 149/243/27 150/251/27
f 116/252/34 147/407/34 148/253/34
f 112/250/28 145/249/28 146/254/28
f 108/255/43 144/408/43 143/256/43
f 160/257/41 159/261/41 167/258/41
f 161/260/41 169/263/41 167/258/41
f 161/260/41 162/264/41 170/262/41
f 162/264/41 163/266/41 171/265/41
f 163/266/41 164/268/41 172/267/41
f 164/268/41 165/270/41 173/269/41
f 165/270/41 166/273/41 174/271/41
f 160/272/41 168/259/41 174/271/41
f 177/276/41 175/409/41 176/410/41
f 176/410/41 182/411/41 181/274/41
f 181/274/41 180/412/41 179/275/41
f 179/275/41 178/413/41 177/276/41
f 177/276/41 176/410/41 181/274/41
f 168/277/34 167/280/34 152/278/34
f 167/280/64 169/308/64 153/281/64
f 174/282/65 168/414/65 151/283/65
f 173/285/28 174/282/28 158/284/28
f 172/287/49 173/285/49 157/286/49
f 182/289/50 176/294/50 160/290/50
f 181/292/27 182/289/27 166/291/27
f 176/294/43 175/305/43 159/295/43
f 180/296/64 181/292/64 165/293/64
f 171/298/43 172/287/43 156/288/43
f 179/300/34 180/296/34 164/297/34
f 178/302/65 179/415/65 163/303/65
f 175/305/49 177/307/49 161/306/49
f 177/307/28 178/302/28 162/304/28
f 169/308/27 170/310/27 154/309/27
f 170/310/50 171/298/50 155/299/50
f 187/311/27 190/416/27 186/312/27
f 188/314/50 187/311/50 183/313/50
f 191/319/43 193/323/43 196/320/43
f 198/322/27 196/320/27 193/323/27
f 189/325/43 188/314/43 184/315/43
f 23/336/126 200/348/126 199/337/126
f 12/339/127 11/349/127 202/340/127
f 9/342/128 204/350/128 203/343/128
f 22/345/129 21/417/129 206/346/129
f 23/336/83 22/345/83 205/347/83
f 24/338/130 199/337/130 202/340/130
f 12/339/85 201/341/85 204/350/85
f 21/351/84 10/344/84 203/343/84
f 213/355/131 208/418/131 207/419/131
f 207/419/132 210/420/132 209/353/132
f 209/353/133 212/421/133 211/354/133
f 211/354/134 214/422/134 213/355/134
f 213/355/135 207/419/135 209/353/135
f 9/356/88 212/362/88 209/357/88
f 23/358/89 208/364/89 213/359/89
f 9/356/90 10/365/90 211/361/90
f 24/363/91 207/423/91 208/364/91
f 10/365/28 21/369/28 214/366/28
f 11/49/27 210/48/27 207/367/27
f 21/369/92 22/360/92 213/359/92
