# Blender 5.1.1
# www.blender.org
mtllib GlockMagHole.mtl
o GlockMagHole
v 0.007473 0.013960 -0.010577
v 0.010394 0.013851 -0.006436
v -0.010394 0.013851 -0.006436
v -0.007473 0.013960 -0.010577
v 0.010394 0.016348 0.021879
v -0.010394 0.016348 0.021879
v 0.010394 0.019213 0.020546
v 0.007473 0.016658 -0.010815
v 0.010394 0.016811 -0.006697
v -0.010394 0.016811 -0.006697
v -0.007473 0.016658 -0.010815
v -0.010394 0.019213 0.020546
v -0.007168 0.018312 0.020195
v -0.008508 0.018183 0.018726
v -0.008542 0.080003 -0.002793
v -0.007197 0.080003 -0.001374
v -0.008508 0.016256 -0.005787
v -0.007168 0.015907 -0.007082
v -0.008508 0.016024 -0.005747
v -0.007197 0.080003 -0.027935
v -0.008542 0.080003 -0.026532
v 0.008508 0.018183 0.018726
v 0.007168 0.018312 0.020195
v 0.007197 0.080003 -0.001374
v 0.008542 0.080003 -0.002793
v 0.007168 0.015907 -0.007082
v 0.008508 0.016256 -0.005787
v 0.008508 0.016024 -0.005747
v 0.008542 0.080003 -0.026532
v 0.007197 0.080003 -0.027935
v -0.007168 0.021975 0.017726
v -0.008508 0.021620 0.016412
v 0.008508 0.021620 0.016412
v 0.007168 0.021975 0.017726
v -0.007168 0.073191 0.000880
v -0.008508 0.072770 -0.000410
v -0.007824 0.065849 -0.021621
v -0.006613 0.065534 -0.022588
v 0.006613 0.065534 -0.022588
v 0.007824 0.065849 -0.021621
v 0.008508 0.072770 -0.000410
v 0.007168 0.073191 0.000880
v -0.008508 0.078363 -0.002254
v -0.007168 0.078783 -0.000965
v -0.007824 0.071478 -0.023353
v -0.006588 0.071155 -0.024345
v 0.006588 0.071155 -0.024345
v 0.007824 0.071478 -0.023353
v 0.008508 0.078363 -0.002254
v 0.007168 0.078783 -0.000965
v -0.008508 0.065751 -0.021923
v -0.007168 0.065335 -0.023196
v 0.007168 0.065335 -0.023196
v 0.008508 0.065751 -0.021923
v -0.008508 0.071349 -0.023748
v -0.007168 0.070934 -0.025021
v 0.007168 0.070934 -0.025021
v 0.008508 0.071349 -0.023748
v 0.008508 0.016605 0.000832
v 0.008542 0.080003 -0.020118
v 0.008508 0.017798 0.000110
v 0.008508 0.073222 -0.018009
v 0.008508 0.067625 -0.016178
v -0.008508 0.016605 0.000832
v -0.008508 0.017798 0.000110
v -0.008508 0.073222 -0.018009
v -0.008542 0.080003 -0.020118
v -0.008508 0.067625 -0.016178
v -0.007824 0.067600 -0.016255
v 0.007824 0.067600 -0.016255
v -0.007824 0.073198 -0.018082
v 0.007824 0.073198 -0.018082
v -0.004398 0.089876 -0.004610
v -0.005220 0.089876 -0.006033
v -0.005226 0.085579 -0.028357
v -0.004403 0.085579 -0.029763
v 0.004403 0.085579 -0.029763
v 0.005226 0.085579 -0.028357
v 0.005220 0.089876 -0.006033
v 0.004398 0.089876 -0.004610
v -0.005220 0.089876 -0.018644
v 0.005220 0.089876 -0.018644
v -0.004339 0.089876 -0.018644
v 0.004339 0.089876 -0.018644
v 0.004397 0.086003 -0.028664
v -0.004397 0.086003 -0.028664
v 0.004392 0.089876 -0.006033
v -0.004392 0.089876 -0.006033
v -0.007358 0.020094 0.003429
v 0.007358 0.020094 0.003429
v 0.007456 0.017501 -0.005920
v -0.007456 0.017501 -0.005920
v 0.007449 0.023358 0.014108
v -0.007449 0.023358 0.014108
v -0.002743 0.086188 -0.003386
v 0.002743 0.086188 -0.003386
v -0.002740 0.086188 -0.004809
v 0.002740 0.086188 -0.004809
v 0.007358 0.074450 -0.012985
v 0.007449 0.078231 -0.002933
v 0.007456 0.071345 -0.022742
v -0.007449 0.078231 -0.002933
v -0.007358 0.074450 -0.012985
v -0.007456 0.071345 -0.022742
v 0.004530 0.031905 0.014460
v 0.005281 0.031155 0.014707
v 0.005281 0.030094 0.015056
v 0.002719 0.030094 0.015056
v 0.002719 0.031155 0.014707
v 0.003470 0.031905 0.014460
v 0.004530 0.029344 0.015302
v 0.003470 0.029344 0.015302
v 0.002719 0.030094 0.012016
v 0.003470 0.029344 0.012249
v 0.002719 0.031155 0.011687
v 0.003470 0.031905 0.011454
v 0.004530 0.031905 0.011454
v 0.005281 0.031155 0.011687
v 0.005281 0.030094 0.012016
v 0.004530 0.029344 0.012249
v -0.005281 0.030094 0.015056
v -0.005281 0.031155 0.014707
v -0.004530 0.031905 0.014460
v -0.004530 0.029344 0.015302
v -0.002719 0.031155 0.014707
v -0.003470 0.029344 0.015302
v -0.002719 0.030094 0.015056
v -0.003470 0.031905 0.014460
v -0.005281 0.030094 0.012016
v -0.005281 0.031155 0.011687
v -0.004530 0.031905 0.011454
v -0.004530 0.029344 0.012249
v -0.003470 0.029344 0.012249
v -0.002719 0.030094 0.012016
v -0.002719 0.031155 0.011687
v -0.003470 0.031905 0.011454
v 0.005281 0.039119 0.012087
v 0.005281 0.038058 0.012436
v 0.004530 0.039869 0.011840
v 0.004530 0.037308 0.012683
v 0.002719 0.038058 0.012436
v 0.002719 0.039119 0.012087
v 0.003470 0.037308 0.012683
v 0.003470 0.039869 0.011840
v 0.005281 0.039119 0.009213
v 0.005281 0.038058 0.009543
v 0.004530 0.039869 0.008980
v 0.004530 0.037308 0.009776
v 0.002719 0.038058 0.009543
v 0.002719 0.039119 0.009213
v 0.003470 0.037308 0.009776
v 0.003470 0.039869 0.008980
v -0.005281 0.038058 0.012436
v -0.005281 0.039119 0.012087
v -0.004530 0.037308 0.012683
v -0.004530 0.039869 0.011840
v -0.002719 0.039119 0.012087
v -0.003470 0.039869 0.011840
v -0.003470 0.037308 0.012683
v -0.002719 0.038058 0.012436
v -0.005281 0.038058 0.009543
v -0.005281 0.039119 0.009213
v -0.004530 0.039869 0.008980
v -0.003470 0.039869 0.008980
v -0.004530 0.037308 0.009776
v -0.003470 0.037308 0.009776
v -0.002719 0.039119 0.009213
v -0.002719 0.038058 0.009543
v 0.002719 0.046962 0.009507
v 0.003470 0.047713 0.009260
v 0.004530 0.045151 0.010103
v 0.005281 0.046962 0.009507
v 0.005281 0.045902 0.009856
v 0.004530 0.047713 0.009260
v 0.003470 0.045151 0.010103
v 0.002719 0.045902 0.009856
v 0.005281 0.046962 0.006777
v 0.005281 0.045902 0.007107
v 0.002719 0.045902 0.007107
v 0.002719 0.046962 0.006777
v 0.003470 0.047713 0.006544
v 0.004530 0.045151 0.007340
v 0.004530 0.047713 0.006544
v 0.003470 0.045151 0.007340
v -0.005281 0.045902 0.009856
v -0.005281 0.046962 0.009507
v -0.004530 0.047713 0.009260
v -0.004530 0.045151 0.010103
v -0.003470 0.045151 0.010103
v -0.002719 0.046962 0.009507
v -0.003470 0.047713 0.009260
v -0.002719 0.045902 0.009856
v -0.005281 0.045902 0.007107
v -0.005281 0.046962 0.006777
v -0.004530 0.047713 0.006544
v -0.003470 0.045151 0.007340
v -0.003470 0.047713 0.006544
v -0.004530 0.045151 0.007340
v -0.002719 0.046962 0.006777
v -0.002719 0.045902 0.007107
v 0.002719 0.053775 0.007266
v 0.002719 0.054836 0.006917
v 0.003470 0.053025 0.007513
v 0.003470 0.055586 0.006670
v 0.004530 0.055586 0.006670
v 0.005281 0.054836 0.006917
v 0.005281 0.053775 0.007266
v 0.004530 0.053025 0.007513
v 0.005281 0.053775 0.004662
v 0.005281 0.054836 0.004332
v 0.002719 0.053775 0.004662
v 0.002719 0.054836 0.004332
v 0.003470 0.055586 0.004099
v 0.004530 0.053025 0.004895
v 0.004530 0.055586 0.004099
v 0.003470 0.053025 0.004895
v -0.004530 0.053025 0.007513
v -0.004530 0.055586 0.006670
v -0.002719 0.054836 0.006917
v -0.002719 0.053775 0.007266
v -0.003470 0.055586 0.006670
v -0.003470 0.053025 0.007513
v -0.005281 0.053775 0.007266
v -0.005281 0.054836 0.006917
v -0.005281 0.053775 0.004662
v -0.004530 0.053025 0.004895
v -0.005281 0.054836 0.004332
v -0.004530 0.055586 0.004099
v -0.003470 0.055586 0.004099
v -0.002719 0.054836 0.004332
v -0.002719 0.053775 0.004662
v -0.003470 0.053025 0.004895
v 0.005281 0.062672 0.004340
v 0.005281 0.061611 0.004689
v 0.002719 0.061611 0.004689
v 0.002719 0.062672 0.004340
v 0.003470 0.063422 0.004093
v 0.004530 0.060860 0.004936
v 0.004530 0.063422 0.004093
v 0.003470 0.060860 0.004936
v 0.002719 0.061611 0.002228
v 0.002719 0.062672 0.001899
v 0.004530 0.063422 0.001666
v 0.003470 0.060860 0.002461
v 0.003470 0.063422 0.001666
v 0.004530 0.060860 0.002461
v 0.005281 0.062672 0.001899
v 0.005281 0.061611 0.002228
v -0.005281 0.061611 0.004689
v -0.005281 0.062672 0.004340
v -0.004530 0.060860 0.004936
v -0.004530 0.063422 0.004093
v -0.003470 0.063422 0.004093
v -0.002719 0.062672 0.004340
v -0.002719 0.061611 0.004689
v -0.003470 0.060860 0.004936
v -0.005281 0.062672 0.001899
v -0.005281 0.061611 0.002228
v -0.004530 0.060860 0.002461
v -0.004530 0.063422 0.001666
v -0.002719 0.061611 0.002228
v -0.002719 0.062672 0.001899
v -0.003470 0.063422 0.001666
v -0.003470 0.060860 0.002461
v 0.002719 0.069652 0.002044
v 0.002719 0.070713 0.001695
v 0.003470 0.068902 0.002291
v 0.003470 0.071463 0.001448
v 0.004530 0.071463 0.001448
v 0.005281 0.070713 0.001695
v 0.005281 0.069652 0.002044
v 0.004530 0.068902 0.002291
v 0.002719 0.070713 -0.000598
v 0.002719 0.069652 -0.000269
v 0.003470 0.068902 -0.000036
v 0.003470 0.071463 -0.000831
v 0.004530 0.068902 -0.000036
v 0.005281 0.070713 -0.000598
v 0.004530 0.071463 -0.000831
v 0.005281 0.069652 -0.000269
v -0.004530 0.071463 0.001448
v -0.003470 0.071463 0.001448
v -0.002719 0.069652 0.002044
v -0.002719 0.070713 0.001695
v -0.005281 0.069652 0.002044
v -0.005281 0.070713 0.001695
v -0.004530 0.068902 0.002291
v -0.003470 0.068902 0.002291
v -0.005281 0.069652 -0.000269
v -0.004530 0.068902 -0.000036
v -0.005281 0.070713 -0.000598
v -0.004530 0.071463 -0.000831
v -0.003470 0.071463 -0.000831
v -0.002719 0.070713 -0.000598
v -0.002719 0.069652 -0.000269
v -0.003470 0.068902 -0.000036
vn -0.0000 -0.9997 -0.0264
vn -0.0000 -0.0878 -0.9961
vn -0.0100 0.9967 -0.0803
vn -0.0000 0.4217 0.9067
vn 1.0000 -0.0000 -0.0000
vn 0.8155 -0.0508 -0.5765
vn -1.0000 -0.0000 -0.0000
vn -0.8155 -0.0508 -0.5765
vn -0.0000 -0.9961 0.0878
vn -0.7060 -0.1187 -0.6982
vn 0.7060 -0.1187 -0.6982
vn -0.7111 0.2078 0.6717
vn 0.6932 0.4025 0.5979
vn -0.6937 0.4026 0.5973
vn -0.7071 -0.2192 -0.6723
vn 0.7071 -0.2192 -0.6723
vn 0.7116 0.2195 0.6674
vn -0.7122 0.2193 0.6668
vn -0.6446 -0.2249 -0.7307
vn 0.6446 -0.2249 -0.7307
vn 0.7112 0.2201 0.6677
vn -0.7116 0.2202 0.6672
vn -0.7044 -0.2192 -0.6751
vn 0.7044 -0.2192 -0.6751
vn 0.7103 0.2064 0.6730
vn -0.0000 0.5589 0.8293
vn -1.0000 -0.0051 -0.0000
vn -0.7880 0.4145 0.4552
vn -0.0000 0.3174 0.9483
vn -0.0000 -0.3100 -0.9507
vn -0.0000 -0.3059 -0.9521
vn 0.9998 -0.0191 0.0062
vn -0.0000 0.3125 0.9499
vn -0.0000 0.3134 0.9496
vn -0.0000 -0.2982 -0.9545
vn -0.0000 0.9507 -0.3102
vn -0.0000 -0.9507 0.3102
vn 1.0000 -0.0046 0.0015
vn -1.0000 -0.0040 -0.0000
vn -0.1177 -0.3087 -0.9439
vn 0.1177 -0.3087 -0.9439
vn -0.0000 1.0000 -0.0000
vn 0.7076 0.1988 -0.6781
vn -0.8338 0.2578 -0.4882
vn 0.8695 0.4519 -0.1994
vn 0.9478 0.3189 -0.0000
vn -0.0000 -0.3115 -0.9503
vn -0.9478 0.3189 -0.0000
vn 0.0052 0.3128 0.9498
vn 0.6666 0.3960 0.6316
vn -0.8695 0.4519 -0.1994
vn -0.5211 0.7971 -0.3051
vn 0.5211 0.7971 -0.3051
vn -0.9999 -0.0029 -0.0097
vn 0.9121 0.4101 0.0024
vn -0.0000 0.9328 -0.3605
vn -0.0000 0.9145 -0.4046
vn -1.0000 0.0025 0.0081
vn -0.0000 0.9636 -0.2673
vn -0.0000 0.9563 -0.2923
vn 1.0000 0.0023 0.0078
vn -0.0000 0.2982 0.9545
vn 1.0000 -0.0029 -0.0091
vn -0.0000 -0.2966 -0.9550
vn -0.9121 0.4100 0.0039
vn -0.0052 0.3128 0.9498
vn -0.0000 0.3094 0.9509
vn -0.0000 -0.2295 -0.9733
vn 0.9818 -0.1792 0.0636
vn -0.0000 0.3746 0.9272
vn 0.9817 -0.1906 0.0042
vn -0.9688 -0.2290 0.0949
vn -0.9834 -0.1756 0.0460
vn -0.7071 0.7071 -0.0000
vn -0.7071 -0.7071 -0.0000
vn -0.0000 -1.0000 -0.0000
vn 0.7071 -0.7071 -0.0000
vn 0.7071 0.7071 -0.0000
vn -0.0000 0.9961 -0.0878
vn 0.0718 0.9936 -0.0876
vn -0.0000 0.9993 -0.0369
vn -0.7103 0.2064 0.6730
vn 0.6937 0.4026 0.5973
vn -0.6932 0.4025 0.5979
vn 0.7122 0.2193 0.6668
vn -0.7116 0.2195 0.6674
vn -0.6433 -0.2257 -0.7316
vn 0.6433 -0.2257 -0.7316
vn 0.7116 0.2202 0.6672
vn -0.7112 0.2201 0.6677
vn -0.7071 -0.2191 -0.6723
vn 0.7071 -0.2191 -0.6723
vn 0.7111 0.2078 0.6717
vn -0.9998 -0.0191 0.0062
vn -0.6666 0.3960 0.6316
vn 1.0000 -0.0051 -0.0000
vn 0.9316 0.1136 0.3453
vn 0.7919 0.1901 0.5803
vn -0.7380 0.2109 0.6409
vn 1.0000 -0.0040 -0.0000
vn -1.0000 -0.0046 0.0015
vn -0.1119 -0.3082 -0.9447
vn 0.1119 -0.3082 -0.9447
vn 0.8338 0.2578 -0.4882
vn -0.7076 0.1988 -0.6781
vn 0.7880 0.4145 0.4552
vn -1.0000 -0.0029 -0.0091
vn 0.9121 0.4100 0.0039
vn -1.0000 0.0023 0.0078
vn 1.0000 0.0025 0.0081
vn 0.9999 -0.0029 -0.0097
vn -0.9121 0.4101 0.0024
vn 0.0883 -0.2778 -0.9566
vn -0.0883 -0.2778 -0.9566
vn 0.9834 -0.1756 0.0460
vn 0.9688 -0.2290 0.0949
vn -0.9817 -0.1906 0.0042
vn -0.9818 -0.1792 0.0636
vt 0.899653 0.365701
vt 0.911807 0.313275
vt 0.911807 0.374270
vt 0.831277 0.003064
vt 0.889858 0.012495
vt 0.831277 0.012495
vt 0.992931 0.374170
vt 0.900595 0.365601
vt 0.912684 0.313175
vt 0.726679 0.012495
vt 0.668098 0.003064
vt 0.726679 0.003064
vt 0.905921 0.012495
vt 0.994457 0.003064
vt 0.994457 0.012495
vt 0.905921 0.003064
vt 0.815215 0.012495
vt 0.815215 0.003064
vt 0.995209 0.313275
vt 0.995209 0.374270
vt 0.912094 0.047827
vt 0.906009 0.048120
vt 0.911999 0.047077
vt 0.859955 0.048120
vt 0.853870 0.047827
vt 0.853965 0.047077
vt 0.727468 0.240325
vt 0.720727 0.236347
vt 0.727393 0.236072
vt 0.773534 0.042200
vt 0.778683 0.029746
vt 0.779691 0.042867
vt 0.726468 0.041861
vt 0.721416 0.029679
vt 0.727199 0.027874
vt 0.912094 0.215135
vt 0.906009 0.215134
vt 0.853869 0.215135
vt 0.859955 0.215134
vt 0.772290 0.215794
vt 0.778415 0.215849
vt 0.727766 0.215763
vt 0.720375 0.042525
vt 0.809624 0.320194
vt 0.805501 0.335719
vt 0.805472 0.320155
vt 0.850863 0.335719
vt 0.846740 0.320194
vt 0.850892 0.320155
vt 0.772392 0.235067
vt 0.778367 0.216179
vt 0.778363 0.235081
vt 0.727467 0.235067
vt 0.721492 0.216179
vt 0.727467 0.216164
vt 0.905647 0.235692
vt 0.909395 0.262083
vt 0.903727 0.262939
vt 0.855304 0.262084
vt 0.859849 0.234646
vt 0.861164 0.263094
vt 0.772299 0.240279
vt 0.778966 0.236308
vt 0.778811 0.242354
vt 0.931670 0.046841
vt 0.932716 0.042483
vt 0.772764 0.027874
vt 0.930397 0.240305
vt 0.977893 0.260780
vt 0.925904 0.261231
vt 0.720917 0.242438
vt 0.734724 0.268141
vt 0.731680 0.271847
vt 0.772351 0.236072
vt 0.984582 0.215220
vt 0.931372 0.215150
vt 0.834293 0.046841
vt 0.833248 0.042483
vt 0.833951 0.238873
vt 0.784099 0.259144
vt 0.782532 0.253788
vt 0.781382 0.215220
vt 0.780713 0.042493
vt 0.766774 0.149965
vt 0.766899 0.126869
vt 0.758478 0.207378
vt 0.739192 0.201213
vt 0.741462 0.180071
vt 0.772392 0.216164
vt 0.931319 0.215407
vt 0.984516 0.234276
vt 0.931318 0.234309
vt 0.846811 0.335757
vt 0.809554 0.335757
vt 0.834364 0.215375
vt 0.781166 0.234244
vt 0.781121 0.215342
vt 0.848676 0.359204
vt 0.847440 0.354769
vt 0.851024 0.358353
vt 0.807853 0.359204
vt 0.809088 0.354769
vt 0.810573 0.356480
vt 0.807933 0.359323
vt 0.809168 0.354629
vt 0.810720 0.356533
vt 0.848756 0.359323
vt 0.847520 0.354629
vt 0.851104 0.358213
vt 0.845956 0.356480
vt 0.845969 0.356533
vt 0.834592 0.215150
vt 0.853643 0.235308
vt 0.838151 0.260760
vt 0.777021 0.029714
vt 0.911584 0.236475
vt 0.985250 0.042493
vt 0.988943 0.029714
vt 0.866760 0.335494
vt 0.789604 0.335494
vt 0.789854 0.319934
vt 0.851024 0.374519
vt 0.805504 0.374519
vt 0.805504 0.358353
vt 0.851104 0.374363
vt 0.805584 0.374363
vt 0.805584 0.358213
vt 0.928489 0.215407
vt 0.837194 0.215375
vt 0.834365 0.234278
vt 0.734913 0.272120
vt 0.860570 0.281455
vt 0.904022 0.280549
vt 0.898393 0.281525
vt 0.833501 0.291589
vt 0.794343 0.293256
vt 0.866395 0.282588
vt 0.967380 0.293365
vt 0.929769 0.290992
vt 0.765167 0.267959
vt 0.758793 0.260251
vt 0.929213 0.293570
vt 0.902226 0.283430
vt 0.768207 0.271634
vt 0.764993 0.271916
vt 0.862376 0.284484
vt 0.813914 0.214747
vt 0.780312 0.033522
vt 0.812440 0.031938
vt 0.743516 0.264300
vt 0.741108 0.260366
vt 0.866560 0.286867
vt 0.834025 0.294281
vt 0.852874 0.029944
vt 0.852870 0.214973
vt 0.794468 0.296007
vt 0.967206 0.296007
vt 0.984951 0.349720
vt 0.952784 0.321678
vt 0.984951 0.321493
vt 0.952784 0.349535
vt 0.912302 0.321507
vt 0.920000 0.214850
vt 0.881042 0.030050
vt 0.921475 0.032044
vt 0.953923 0.215292
vt 0.981831 0.033579
vt 0.982150 0.215242
vt 0.953603 0.033629
vt 0.881073 0.029944
vt 0.876962 0.132534
vt 0.876963 0.109555
vt 0.860404 0.076987
vt 0.858396 0.076986
vt 0.872120 0.052660
vt 0.856975 0.109540
vt 0.856975 0.132514
vt 0.756412 0.264171
vt 0.741150 0.264953
vt 0.758811 0.264838
vt 0.881057 0.215024
vt 0.858178 0.241763
vt 0.919581 0.266734
vt 0.954010 0.264745
vt 0.982237 0.264695
vt 0.881042 0.254343
vt 0.852871 0.254237
vt 0.814332 0.266628
vt 0.779990 0.215185
vt 0.914568 0.142795
vt 0.904119 0.150602
vt 0.914568 0.150602
vt 0.893670 0.143426
vt 0.904119 0.142795
vt 0.883221 0.144318
vt 0.893670 0.151198
vt 0.872772 0.144949
vt 0.883221 0.152040
vt 0.862323 0.144949
vt 0.872772 0.152636
vt 0.851874 0.152040
vt 0.862323 0.152636
vt 0.851874 0.144318
vt 0.841424 0.151198
vt 0.841424 0.143426
vt 0.830975 0.150602
vt 0.904119 0.142795
vt 0.862323 0.152636
vt 0.914568 0.142772
vt 0.904119 0.150205
vt 0.914568 0.150205
vt 0.893670 0.143403
vt 0.904119 0.142772
vt 0.883221 0.144295
vt 0.893670 0.150801
vt 0.872772 0.144926
vt 0.883221 0.151643
vt 0.862323 0.144926
vt 0.872772 0.152239
vt 0.851874 0.151643
vt 0.862323 0.152239
vt 0.851874 0.144295
vt 0.841424 0.150801
vt 0.841424 0.143403
vt 0.830975 0.150205
vt 0.914568 0.142888
vt 0.904119 0.149952
vt 0.914568 0.149952
vt 0.893670 0.143519
vt 0.904119 0.142888
vt 0.883221 0.144411
vt 0.893670 0.150548
vt 0.872772 0.145042
vt 0.883221 0.151390
vt 0.862323 0.145042
vt 0.872772 0.151986
vt 0.851874 0.151390
vt 0.862323 0.151986
vt 0.851874 0.144411
vt 0.841424 0.150548
vt 0.830975 0.149952
vt 0.841424 0.143519
vt 0.830975 0.142888
vt 0.883221 0.144411
vt 0.862323 0.145042
vt 0.872772 0.151986
vt 0.862323 0.151986
vt 0.914568 0.142308
vt 0.904119 0.149003
vt 0.914568 0.149003
vt 0.893670 0.142939
vt 0.893670 0.149599
vt 0.883221 0.143832
vt 0.872772 0.144463
vt 0.883221 0.150441
vt 0.862323 0.144463
vt 0.872772 0.151037
vt 0.851874 0.150441
vt 0.862323 0.151037
vt 0.851874 0.143832
vt 0.841424 0.149599
vt 0.841424 0.142939
vt 0.830975 0.149003
vt 0.904119 0.149003
vt 0.914568 0.149003
vt 0.904119 0.142308
vt 0.872772 0.151037
vt 0.862323 0.151037
vt 0.841424 0.149599
vt 0.830975 0.149003
vt 0.914568 0.143137
vt 0.904119 0.149464
vt 0.914568 0.149464
vt 0.893670 0.143768
vt 0.904119 0.143137
vt 0.883221 0.144661
vt 0.893670 0.150060
vt 0.872772 0.145291
vt 0.883221 0.150902
vt 0.862323 0.145291
vt 0.872772 0.151498
vt 0.851874 0.150902
vt 0.862323 0.151498
vt 0.851874 0.144661
vt 0.841424 0.150060
vt 0.841424 0.143768
vt 0.830975 0.149464
vt 0.914568 0.142811
vt 0.904119 0.148760
vt 0.914568 0.148760
vt 0.893670 0.143442
vt 0.893670 0.149356
vt 0.883221 0.144335
vt 0.883221 0.150198
vt 0.872772 0.144965
vt 0.872772 0.150794
vt 0.862323 0.144965
vt 0.851874 0.150198
vt 0.862323 0.150794
vt 0.851874 0.144335
vt 0.841424 0.149356
vt 0.841424 0.143442
vt 0.830975 0.148760
vt 0.904119 0.142811
vt 0.851874 0.150198
vt 0.733259 0.149856
vt 0.733279 0.153457
vt 0.899653 0.321844
vt 0.889858 0.003064
vt 0.992931 0.313175
vt 0.912684 0.374170
vt 0.900595 0.321744
vt 0.668098 0.012495
vt 0.721630 0.215817
vt 0.721495 0.235081
vt 0.979507 0.255665
vt 0.766919 0.123272
vt 0.764531 0.120719
vt 0.764615 0.102810
vt 0.767044 0.100278
vt 0.764406 0.147414
vt 0.764489 0.129402
vt 0.764257 0.173977
vt 0.764365 0.156098
vt 0.766754 0.153562
vt 0.766598 0.176525
vt 0.764135 0.201242
vt 0.764212 0.182660
vt 0.766577 0.180121
vt 0.766464 0.203788
vt 0.764107 0.209927
vt 0.766450 0.207385
vt 0.767206 0.069680
vt 0.764778 0.067122
vt 0.764658 0.094126
vt 0.764736 0.075806
vt 0.767186 0.073277
vt 0.767065 0.096682
vt 0.761101 0.129388
vt 0.761037 0.147403
vt 0.758711 0.126835
vt 0.758647 0.149939
vt 0.758722 0.123237
vt 0.761133 0.120704
vt 0.761197 0.102792
vt 0.758786 0.100236
vt 0.758797 0.096638
vt 0.761230 0.094108
vt 0.761289 0.075785
vt 0.758858 0.073226
vt 0.758869 0.069628
vt 0.761322 0.067100
vt 0.735209 0.066929
vt 0.738659 0.066951
vt 0.741113 0.069512
vt 0.741128 0.073113
vt 0.735357 0.093966
vt 0.735259 0.075624
vt 0.738702 0.075644
vt 0.738784 0.093984
vt 0.741217 0.096543
vt 0.758637 0.153537
vt 0.761005 0.156088
vt 0.760921 0.173970
vt 0.741228 0.100144
vt 0.735495 0.120590
vt 0.735403 0.102660
vt 0.738819 0.102677
vt 0.758552 0.176508
vt 0.738893 0.120605
vt 0.741305 0.123162
vt 0.758540 0.180106
vt 0.760885 0.182654
vt 0.760827 0.201238
vt 0.741315 0.126762
vt 0.735626 0.147317
vt 0.735538 0.129284
vt 0.738926 0.129298
vt 0.758483 0.203779
vt 0.738995 0.147328
vt 0.741384 0.149882
vt 0.760808 0.209924
vt 0.741393 0.153482
vt 0.735932 0.209903
vt 0.739230 0.209906
vt 0.739026 0.156021
vt 0.735745 0.173912
vt 0.735668 0.156011
vt 0.739082 0.173920
vt 0.741553 0.207362
vt 0.741540 0.203761
vt 0.741451 0.176471
vt 0.735885 0.201209
vt 0.735790 0.182606
vt 0.739117 0.182612
vt 0.984562 0.215374
vt 0.866510 0.319934
vt 0.848676 0.374302
vt 0.807853 0.374302
vt 0.848756 0.374157
vt 0.807933 0.374157
vt 0.928489 0.234309
vt 0.837194 0.234278
vt 0.898512 0.285806
vt 0.912302 0.349706
vt 0.876964 0.105977
vt 0.875544 0.103446
vt 0.875546 0.085631
vt 0.876965 0.083102
vt 0.875542 0.130002
vt 0.875544 0.112084
vt 0.875540 0.156429
vt 0.875542 0.138640
vt 0.876962 0.136112
vt 0.876960 0.158961
vt 0.875538 0.183551
vt 0.875539 0.165067
vt 0.876959 0.162539
vt 0.876957 0.186083
vt 0.875538 0.192189
vt 0.876957 0.189661
vt 0.876968 0.052661
vt 0.875548 0.050131
vt 0.875546 0.076993
vt 0.875547 0.058769
vt 0.876967 0.056239
vt 0.876966 0.079524
vt 0.873536 0.112083
vt 0.873534 0.130000
vt 0.872116 0.109552
vt 0.872115 0.132529
vt 0.873534 0.138638
vt 0.873532 0.156427
vt 0.872114 0.136107
vt 0.872113 0.158955
vt 0.873532 0.165065
vt 0.873531 0.183547
vt 0.872113 0.162533
vt 0.872111 0.186075
vt 0.873530 0.192185
vt 0.858392 0.192161
vt 0.860400 0.192164
vt 0.872111 0.189653
vt 0.861819 0.189637
vt 0.861819 0.186059
vt 0.860400 0.183528
vt 0.858392 0.183524
vt 0.858393 0.165044
vt 0.860401 0.165047
vt 0.861820 0.162519
vt 0.861821 0.158942
vt 0.872116 0.105974
vt 0.860401 0.156410
vt 0.858394 0.156408
vt 0.858394 0.138622
vt 0.873536 0.103445
vt 0.873538 0.085630
vt 0.860402 0.138624
vt 0.861822 0.136096
vt 0.872118 0.083099
vt 0.872118 0.079521
vt 0.861822 0.132519
vt 0.873538 0.076992
vt 0.860402 0.129988
vt 0.873539 0.058768
vt 0.858394 0.129986
vt 0.858395 0.112071
vt 0.860403 0.112073
vt 0.861822 0.109544
vt 0.872119 0.056238
vt 0.861822 0.105967
vt 0.873540 0.050130
vt 0.860403 0.103436
vt 0.858397 0.050128
vt 0.860405 0.050129
vt 0.858395 0.103434
vt 0.861825 0.052659
vt 0.858396 0.085622
vt 0.860403 0.085623
vt 0.861823 0.083094
vt 0.861825 0.056236
vt 0.858397 0.058765
vt 0.860404 0.058766
vt 0.861824 0.079517
vt 0.856974 0.162513
vt 0.856973 0.186052
vt 0.856974 0.158936
vt 0.856974 0.136091
vt 0.856975 0.105963
vt 0.856976 0.083092
vt 0.856976 0.079515
vt 0.856977 0.056235
vt 0.856977 0.052658
vt 0.856973 0.189629
vt 0.881073 0.254237
vt 0.875766 0.241763
vt 0.779903 0.264638
vt 0.830975 0.142795
vt 0.830975 0.142772
vt 0.904119 0.142772
vt 0.830975 0.142772
vt 0.830975 0.142308
vt 0.830975 0.143137
vt 0.830975 0.143137
vt 0.830975 0.142811
vt 0.830975 0.142811
vt 0.732973 0.100102
vt 0.733108 0.123127
vt 0.732952 0.096500
vt 0.732812 0.073063
vt 0.732789 0.069462
vt 0.733583 0.207354
vt 0.733561 0.203753
vt 0.733422 0.180055
vt 0.733401 0.176454
vt 0.733128 0.126728
s 0
usemtl Glock19
f 4/1/1 2/2/1 3/3/1
f 11/4/2 1/5/2 4/6/2
f 7/7/3 8/8/3 10/9/3
f 6/10/4 7/11/4 12/12/4
f 2/13/5 7/14/5 5/15/5
f 1/5/6 9/16/6 2/13/6
f 12/12/7 3/17/7 6/10/7
f 10/18/8 4/6/8 3/17/8
f 3/3/9 5/19/9 6/20/9
f 17/21/10 18/22/10 19/23/10
f 26/24/11 27/25/11 28/26/11
f 16/27/12 43/28/12 44/29/12
f 34/30/13 22/31/13 33/32/13
f 31/33/14 14/34/14 13/35/14
f 18/22/15 51/36/15 52/37/15
f 54/38/16 26/24/16 53/39/16
f 42/40/17 33/32/17 41/41/17
f 35/42/18 32/43/18 31/33/18
f 46/44/19 37/45/19 45/46/19
f 40/47/20 47/48/20 48/49/20
f 50/50/21 41/51/21 49/52/21
f 44/53/22 36/54/22 35/55/22
f 56/56/23 21/57/23 20/58/23
f 29/59/24 57/60/24 30/61/24
f 24/62/25 49/63/25 25/64/25
f 65/65/7 19/23/7 64/66/7
f 34/30/26 13/35/26 23/67/26
f 66/68/27 15/69/27 67/70/27
f 15/71/28 73/72/28 74/73/28
f 24/62/29 44/29/29 50/74/29
f 52/37/30 26/24/30 18/22/30
f 65/65/7 36/75/7 68/76/7
f 20/58/31 57/60/31 56/56/31
f 28/26/5 61/77/5 59/78/5
f 62/79/32 25/80/32 49/81/32
f 61/77/5 41/82/5 33/83/5
f 34/30/33 207/84/33 172/85/33
f 266/86/33 288/87/33 254/88/33
f 50/50/34 35/55/34 42/89/34
f 68/90/7 43/91/7 66/92/7
f 46/44/35 39/93/35 38/94/35
f 63/95/5 49/96/5 41/97/5
f 37/98/36 52/99/36 51/100/36
f 40/101/36 53/102/36 39/103/36
f 45/104/37 56/105/37 46/106/37
f 48/107/37 57/108/37 58/109/37
f 39/103/36 52/99/36 38/110/36
f 46/106/37 57/108/37 47/111/37
f 27/25/5 63/112/5 61/77/5
f 58/113/38 60/114/38 62/79/38
f 59/78/5 33/83/5 22/115/5
f 17/21/7 68/76/7 51/36/7
f 55/116/39 67/70/39 21/57/39
f 32/117/7 64/66/7 14/118/7
f 48/49/5 70/119/5 40/47/5
f 45/46/7 69/120/7 71/121/7
f 68/122/36 37/98/36 51/100/36
f 40/101/36 63/123/36 54/124/36
f 62/125/37 48/107/37 58/109/37
f 45/104/37 66/126/37 55/127/37
f 66/92/40 69/128/40 68/90/40
f 70/129/41 62/130/41 63/95/41
f 88/131/42 74/73/42 73/72/42
f 30/61/43 78/132/43 29/59/43
f 20/58/44 75/133/44 76/134/44
f 29/59/45 78/132/45 82/135/45
f 60/114/46 79/136/46 25/80/46
f 20/58/47 77/137/47 30/61/47
f 67/70/48 74/138/48 81/139/48
f 24/62/49 80/140/49 96/141/49
f 21/57/48 67/70/48 81/139/48
f 25/64/50 80/140/50 24/62/50
f 75/133/51 21/57/51 81/139/51
f 60/114/46 29/59/46 82/135/46
f 75/133/52 83/142/52 86/143/52
f 79/144/42 87/145/42 80/140/42
f 78/132/53 77/137/53 85/146/53
f 99/147/54 91/148/54 90/149/54
f 97/150/55 73/72/55 95/151/55
f 76/134/56 85/152/56 77/137/56
f 78/132/57 84/153/57 82/135/57
f 76/134/52 75/133/52 86/143/52
f 99/147/58 93/154/58 100/155/58
f 82/135/42 87/156/42 79/136/42
f 81/139/42 88/157/42 83/142/42
f 92/158/59 90/159/59 91/160/59
f 89/161/60 93/162/60 90/159/60
f 103/163/61 94/164/61 89/165/61
f 104/166/62 91/167/62 101/168/62
f 103/163/63 92/169/63 104/166/63
f 94/170/64 225/171/64 194/172/64
f 151/173/64 148/174/64 134/175/64
f 100/155/64 177/176/64 209/177/64
f 98/178/65 80/140/65 87/145/65
f 97/179/42 96/141/42 98/180/42
f 73/72/66 16/27/66 95/151/66
f 24/62/67 95/151/67 16/27/67
f 102/181/68 98/182/68 100/155/68
f 83/183/69 104/166/69 86/184/69
f 86/184/70 101/168/70 85/185/70
f 88/186/71 103/163/71 83/183/71
f 87/187/72 99/147/72 100/155/72
f 84/188/73 101/189/73 99/147/73
f 112/190/42 120/191/42 114/192/42
f 107/193/74 120/191/74 111/194/74
f 106/195/7 119/196/7 107/193/7
f 105/197/75 118/198/75 106/195/75
f 110/199/76 117/200/76 105/197/76
f 110/199/77 115/201/77 116/202/77
f 109/203/5 113/204/5 115/201/5
f 108/205/78 114/206/78 113/204/78
f 124/190/42 133/191/42 132/192/42
f 127/193/74 133/191/74 126/207/74
f 125/195/7 134/196/7 127/193/7
f 128/197/75 135/198/75 125/195/75
f 123/199/76 136/200/76 128/197/76
f 123/199/77 130/201/77 131/208/77
f 122/203/5 129/204/5 130/201/5
f 121/205/78 132/206/78 129/204/78
f 143/209/42 148/210/42 151/211/42
f 138/212/74 148/210/74 140/213/74
f 137/214/7 146/215/7 138/212/7
f 139/216/75 145/217/75 137/214/75
f 144/218/76 147/219/76 139/216/76
f 144/218/77 150/220/77 152/221/77
f 142/222/5 149/223/5 150/220/5
f 141/224/78 151/225/78 149/223/78
f 155/209/42 166/210/42 165/211/42
f 166/210/74 160/212/74 168/215/74
f 168/215/7 157/214/7 167/217/7
f 158/216/75 167/217/75 157/214/75
f 156/218/76 164/219/76 158/216/76
f 156/218/77 162/220/77 163/221/77
f 154/222/5 161/223/5 162/220/5
f 153/224/78 165/225/78 161/223/78
f 175/226/42 182/227/42 184/228/42
f 173/229/74 182/227/74 171/230/74
f 172/231/7 178/232/7 173/229/7
f 174/233/75 177/234/75 172/231/75
f 170/235/76 183/236/76 174/233/76
f 170/235/77 180/237/77 181/238/77
f 169/239/5 179/240/5 180/237/5
f 184/241/78 176/242/78 175/243/78
f 188/226/42 196/227/42 198/228/42
f 196/227/74 192/229/74 200/232/74
f 190/244/7 200/232/7 192/229/7
f 191/233/75 199/234/75 190/244/75
f 187/245/76 197/246/76 191/233/76
f 187/245/77 194/237/77 195/247/77
f 186/239/5 193/240/5 194/237/5
f 185/242/78 198/241/78 193/240/78
f 203/248/42 214/249/42 216/250/42
f 214/249/74 207/251/74 209/252/74
f 206/253/7 209/252/7 207/251/7
f 205/254/75 210/255/75 206/253/75
f 204/256/76 215/257/76 205/254/76
f 204/256/77 212/258/77 213/259/77
f 202/260/5 211/261/5 212/258/5
f 201/262/78 216/263/78 211/261/78
f 217/248/42 232/264/42 226/265/42
f 220/251/74 232/264/74 222/266/74
f 219/253/7 231/252/7 220/251/7
f 221/254/75 230/255/75 219/253/75
f 218/256/76 229/267/76 221/254/76
f 218/256/77 227/258/77 228/268/77
f 224/260/5 225/269/5 227/258/5
f 223/262/78 226/270/78 225/269/78
f 240/271/42 246/272/42 244/273/42
f 234/274/74 246/272/74 238/275/74
f 233/276/7 248/277/7 234/274/7
f 239/278/75 247/279/75 233/276/75
f 237/280/76 243/281/76 239/278/76
f 237/280/77 242/282/77 245/283/77
f 236/284/5 241/285/5 242/282/5
f 235/286/78 244/287/78 241/285/78
f 251/271/42 264/272/42 259/273/42
f 255/274/74 264/272/74 256/275/74
f 254/276/7 261/277/7 255/274/7
f 253/278/75 262/279/75 254/276/75
f 252/280/76 263/281/76 253/278/76
f 252/280/77 257/282/77 260/283/77
f 250/284/5 258/285/5 257/282/5
f 249/286/78 259/287/78 258/285/78
f 267/288/42 277/289/42 275/290/42
f 277/289/74 271/291/74 280/292/74
f 270/293/7 280/292/7 271/291/7
f 278/294/75 269/295/75 279/296/75
f 268/297/76 279/296/76 269/295/76
f 268/297/77 273/298/77 276/299/77
f 266/300/5 274/301/5 273/298/5
f 265/302/78 275/303/78 274/301/78
f 287/288/42 296/289/42 290/290/42
f 283/291/74 296/289/74 288/304/74
f 284/293/7 295/292/7 283/291/7
f 282/295/75 294/294/75 284/293/75
f 281/297/76 293/296/76 282/295/76
f 281/297/77 291/305/77 292/299/77
f 286/300/5 289/301/5 291/305/5
f 285/302/78 290/303/78 289/301/78
f 223/306/33 224/307/33 35/42/33
f 4/1/1 1/308/1 2/2/1
f 11/4/2 8/309/2 1/5/2
f 10/9/79 12/310/79 7/7/79
f 7/7/80 9/311/80 8/8/80
f 8/8/81 11/312/81 10/9/81
f 6/10/4 5/313/4 7/11/4
f 2/13/5 9/16/5 7/14/5
f 1/5/6 8/309/6 9/16/6
f 12/12/7 10/18/7 3/17/7
f 10/18/8 11/4/8 4/6/8
f 3/3/9 2/2/9 5/19/9
f 16/27/82 15/71/82 43/28/82
f 34/30/83 23/67/83 22/31/83
f 31/33/84 32/43/84 14/34/84
f 18/22/15 17/21/15 51/36/15
f 54/38/16 27/25/16 26/24/16
f 42/40/85 34/30/85 33/32/85
f 35/42/86 36/314/86 32/43/86
f 46/44/87 38/94/87 37/45/87
f 40/47/88 39/93/88 47/48/88
f 50/50/89 42/89/89 41/51/89
f 44/53/90 43/315/90 36/54/90
f 56/56/91 55/116/91 21/57/91
f 29/59/92 58/113/92 57/60/92
f 24/62/93 50/74/93 49/63/93
f 65/65/7 17/21/7 19/23/7
f 34/30/26 31/33/26 13/35/26
f 66/68/94 43/316/94 15/69/94
f 15/71/95 16/27/95 73/72/95
f 24/62/29 16/27/29 44/29/29
f 52/37/30 53/39/30 26/24/30
f 65/65/7 32/117/7 36/75/7
f 20/58/31 30/61/31 57/60/31
f 28/26/5 27/25/5 61/77/5
f 62/79/96 60/114/96 25/80/96
f 61/77/5 63/112/5 41/82/5
f 173/317/33 171/318/33 139/319/33
f 173/317/33 139/319/33 137/320/33
f 208/321/33 174/322/33 172/85/33
f 207/84/33 208/321/33 172/85/33
f 238/323/33 205/324/33 206/325/33
f 234/326/33 238/323/33 206/325/33
f 272/327/33 239/328/33 233/329/33
f 271/330/33 272/327/33 233/329/33
f 42/40/33 269/331/33 270/332/33
f 42/40/33 270/332/33 271/330/33
f 107/333/33 111/334/33 34/30/33
f 140/335/33 105/336/33 106/337/33
f 106/337/33 107/333/33 34/30/33
f 34/30/33 42/40/33 271/330/33
f 34/30/33 271/330/33 233/329/33
f 140/335/33 106/337/33 34/30/33
f 138/338/33 140/335/33 34/30/33
f 34/30/33 233/329/33 234/326/33
f 34/30/33 234/326/33 206/325/33
f 137/320/33 138/338/33 34/30/33
f 173/317/33 137/320/33 34/30/33
f 34/30/33 206/325/33 207/84/33
f 172/85/33 173/317/33 34/30/33
f 170/339/33 174/322/33 208/321/33
f 170/339/33 208/321/33 203/340/33
f 169/341/33 170/339/33 203/340/33
f 169/341/33 203/340/33 201/342/33
f 176/343/97 169/341/97 201/342/97
f 139/319/33 171/318/33 175/344/33
f 144/345/33 139/319/33 175/344/33
f 144/345/33 175/344/33 176/343/33
f 142/346/33 144/345/33 176/343/33
f 141/347/98 142/346/98 176/343/98
f 105/336/33 140/335/33 143/348/33
f 105/336/33 143/348/33 141/347/33
f 110/349/33 105/336/33 141/347/33
f 109/350/33 110/349/33 141/347/33
f 108/351/99 109/350/99 141/347/99
f 34/30/33 111/334/33 112/352/33
f 124/353/33 31/33/33 34/30/33
f 126/354/33 124/353/33 34/30/33
f 34/30/33 112/352/33 108/351/33
f 126/354/33 34/30/33 108/351/33
f 127/355/33 126/354/33 108/351/33
f 127/355/33 108/351/33 141/347/33
f 125/356/33 127/355/33 141/347/33
f 125/356/33 141/347/33 176/343/33
f 155/357/33 123/358/33 128/359/33
f 128/359/33 125/356/33 176/343/33
f 128/359/33 176/343/33 201/342/33
f 159/360/33 155/357/33 128/359/33
f 160/361/33 159/360/33 128/359/33
f 128/359/33 201/342/33 202/362/33
f 204/363/33 205/324/33 238/323/33
f 160/361/33 128/359/33 202/362/33
f 202/362/33 204/363/33 238/323/33
f 202/362/33 238/323/33 240/364/33
f 157/365/33 160/361/33 202/362/33
f 188/366/33 156/367/33 158/368/33
f 158/368/33 157/365/33 202/362/33
f 202/362/33 240/364/33 235/369/33
f 158/368/33 202/362/33 235/369/33
f 189/370/33 188/366/33 158/368/33
f 192/371/33 189/370/33 158/368/33
f 158/368/33 235/369/33 236/372/33
f 237/373/33 239/328/33 272/327/33
f 192/371/33 158/368/33 236/372/33
f 236/372/33 237/373/33 272/327/33
f 236/372/33 272/327/33 267/374/33
f 190/375/33 192/371/33 236/372/33
f 217/376/33 187/377/33 191/378/33
f 191/378/33 190/375/33 236/372/33
f 236/372/33 267/374/33 265/379/33
f 191/378/33 236/372/33 265/379/33
f 222/380/33 217/376/33 191/378/33
f 220/381/33 222/380/33 191/378/33
f 191/378/33 265/379/33 266/86/33
f 268/382/33 269/331/33 42/40/33
f 220/381/33 191/378/33 266/86/33
f 268/382/33 42/40/33 35/42/33
f 219/383/33 220/381/33 266/86/33
f 266/86/33 268/382/33 35/42/33
f 35/42/33 281/384/33 282/385/33
f 266/86/33 35/42/33 282/385/33
f 221/386/33 219/383/33 266/86/33
f 251/387/33 218/388/33 221/386/33
f 256/389/33 251/387/33 221/386/33
f 266/86/33 282/385/33 284/390/33
f 266/86/33 284/390/33 283/391/33
f 255/392/33 256/389/33 221/386/33
f 255/392/33 221/386/33 266/86/33
f 266/86/33 283/391/33 288/87/33
f 288/87/33 287/393/33 252/394/33
f 288/87/33 252/394/33 253/395/33
f 254/88/33 255/392/33 266/86/33
f 288/87/33 253/395/33 254/88/33
f 50/50/34 44/53/34 35/55/34
f 68/90/7 36/396/7 43/91/7
f 46/44/35 47/48/35 39/93/35
f 63/95/5 62/130/5 49/96/5
f 37/98/36 38/110/36 52/99/36
f 40/101/36 54/124/36 53/102/36
f 45/104/37 55/127/37 56/105/37
f 48/107/37 47/111/37 57/108/37
f 39/103/36 53/102/36 52/99/36
f 46/106/37 56/105/37 57/108/37
f 27/25/5 54/38/5 63/112/5
f 58/113/100 29/59/100 60/114/100
f 59/78/5 61/77/5 33/83/5
f 17/21/7 65/65/7 68/76/7
f 55/116/101 66/68/101 67/70/101
f 32/117/7 65/65/7 64/66/7
f 48/49/5 72/397/5 70/119/5
f 45/46/7 37/45/7 69/120/7
f 68/122/36 69/398/36 37/98/36
f 40/101/36 70/399/36 63/123/36
f 62/125/37 72/400/37 48/107/37
f 45/104/37 71/401/37 66/126/37
f 66/92/102 71/402/102 69/128/102
f 70/129/103 72/403/103 62/130/103
f 30/61/104 77/137/104 78/132/104
f 20/58/105 21/57/105 75/133/105
f 60/114/46 82/135/46 79/136/46
f 20/58/47 76/134/47 77/137/47
f 67/70/48 15/69/48 74/138/48
f 25/64/106 79/144/106 80/140/106
f 75/133/57 81/139/57 83/142/57
f 99/147/107 101/189/107 91/148/107
f 97/150/108 88/131/108 73/72/108
f 76/134/56 86/404/56 85/152/56
f 78/132/53 85/146/53 84/153/53
f 99/147/109 90/149/109 93/154/109
f 82/135/42 84/153/42 87/156/42
f 81/139/42 74/138/42 88/157/42
f 92/158/59 89/161/59 90/159/59
f 89/161/60 94/405/60 93/162/60
f 103/163/110 102/181/110 94/164/110
f 104/166/62 92/169/62 91/167/62
f 103/163/111 89/165/111 92/169/111
f 193/406/64 198/407/64 163/408/64
f 193/406/64 163/408/64 162/409/64
f 226/410/64 195/411/64 194/172/64
f 225/171/64 226/410/64 194/172/64
f 259/412/64 228/413/64 227/414/64
f 258/415/64 259/412/64 227/414/64
f 290/416/64 260/417/64 257/418/64
f 289/419/64 290/416/64 257/418/64
f 102/181/64 292/420/64 291/421/64
f 102/181/64 291/421/64 289/419/64
f 129/422/64 132/423/64 94/170/64
f 165/424/64 131/425/64 130/426/64
f 130/426/64 129/422/64 94/170/64
f 94/170/64 102/181/64 289/419/64
f 94/170/64 289/419/64 257/418/64
f 165/424/64 130/426/64 94/170/64
f 161/427/64 165/424/64 94/170/64
f 94/170/64 257/418/64 258/415/64
f 94/170/64 258/415/64 227/414/64
f 162/409/64 161/427/64 94/170/64
f 193/406/64 162/409/64 94/170/64
f 94/170/64 227/414/64 225/171/64
f 194/172/64 193/406/64 94/170/64
f 197/428/64 195/411/64 226/410/64
f 197/428/64 226/410/64 232/429/64
f 199/430/64 197/428/64 232/429/64
f 199/430/64 232/429/64 231/431/64
f 229/432/64 228/413/64 259/412/64
f 229/432/64 259/412/64 264/433/64
f 230/434/64 229/432/64 264/433/64
f 230/434/64 264/433/64 261/435/64
f 263/436/64 260/417/64 290/416/64
f 263/436/64 290/416/64 296/437/64
f 262/438/64 263/436/64 296/437/64
f 262/438/64 296/437/64 295/439/64
f 293/440/64 292/420/64 102/181/64
f 102/181/64 100/155/64 279/441/64
f 102/181/64 279/441/64 276/442/64
f 294/443/64 293/440/64 102/181/64
f 294/443/64 102/181/64 276/442/64
f 294/443/64 276/442/64 273/444/64
f 295/439/64 294/443/64 273/444/64
f 295/439/64 273/444/64 274/445/64
f 262/438/64 295/439/64 274/445/64
f 275/446/64 277/447/64 243/448/64
f 262/438/64 274/445/64 275/446/64
f 261/435/64 262/438/64 275/446/64
f 275/446/64 243/448/64 245/449/64
f 275/446/64 245/449/64 242/450/64
f 230/434/64 261/435/64 275/446/64
f 231/431/64 230/434/64 275/446/64
f 231/431/64 275/446/64 242/450/64
f 199/430/64 231/431/64 242/450/64
f 199/430/64 242/450/64 241/451/64
f 200/452/64 199/430/64 241/451/64
f 244/453/64 246/454/64 215/455/64
f 200/452/64 241/451/64 244/453/64
f 163/408/64 198/407/64 196/456/64
f 163/408/64 196/456/64 200/452/64
f 164/457/64 163/408/64 200/452/64
f 244/453/64 215/455/64 213/458/64
f 244/453/64 213/458/64 212/459/64
f 164/457/64 200/452/64 244/453/64
f 167/460/64 164/457/64 244/453/64
f 167/460/64 244/453/64 212/459/64
f 168/461/64 167/460/64 212/459/64
f 168/461/64 212/459/64 211/462/64
f 131/425/64 165/424/64 166/463/64
f 168/461/64 211/462/64 216/464/64
f 131/425/64 166/463/64 168/461/64
f 136/465/64 131/425/64 168/461/64
f 168/461/64 216/464/64 214/466/64
f 214/466/64 183/467/64 181/468/64
f 214/466/64 181/468/64 180/469/64
f 136/465/64 168/461/64 214/466/64
f 135/470/64 136/465/64 214/466/64
f 135/470/64 214/466/64 180/469/64
f 134/175/64 135/470/64 180/469/64
f 134/175/64 180/469/64 179/471/64
f 94/170/64 132/423/64 133/472/64
f 134/175/64 179/471/64 184/473/64
f 94/170/64 133/472/64 134/175/64
f 120/474/64 93/154/64 94/170/64
f 114/475/64 120/474/64 94/170/64
f 134/175/64 184/473/64 182/476/64
f 114/475/64 94/170/64 134/175/64
f 113/477/64 114/475/64 134/175/64
f 182/476/64 147/478/64 152/479/64
f 182/476/64 152/479/64 150/480/64
f 115/481/64 113/477/64 134/175/64
f 148/174/64 117/482/64 116/483/64
f 116/483/64 115/481/64 134/175/64
f 134/175/64 182/476/64 150/480/64
f 134/175/64 150/480/64 149/484/64
f 148/174/64 116/483/64 134/175/64
f 134/175/64 149/484/64 151/173/64
f 247/485/64 243/448/64 277/447/64
f 247/485/64 277/447/64 280/486/64
f 215/455/64 246/454/64 248/487/64
f 210/488/64 215/455/64 248/487/64
f 183/467/64 214/466/64 209/177/64
f 177/176/64 183/467/64 209/177/64
f 147/478/64 182/476/64 178/489/64
f 145/490/64 147/478/64 178/489/64
f 117/482/64 148/174/64 146/491/64
f 118/492/64 117/482/64 146/491/64
f 93/154/64 120/474/64 119/493/64
f 93/154/64 119/493/64 118/492/64
f 278/494/64 279/441/64 100/155/64
f 280/486/64 278/494/64 100/155/64
f 100/155/64 93/154/64 118/492/64
f 100/155/64 118/492/64 146/491/64
f 247/485/64 280/486/64 100/155/64
f 248/487/64 247/485/64 100/155/64
f 100/155/64 146/491/64 145/490/64
f 100/155/64 145/490/64 178/489/64
f 210/488/64 248/487/64 100/155/64
f 209/177/64 210/488/64 100/155/64
f 100/155/64 178/489/64 177/176/64
f 98/178/112 96/141/112 80/140/112
f 97/179/42 95/151/42 96/141/42
f 24/62/67 96/141/67 95/151/67
f 102/181/113 88/495/113 97/496/113
f 98/182/114 87/187/114 100/155/114
f 102/181/68 97/496/68 98/182/68
f 83/183/115 103/163/115 104/166/115
f 86/184/70 104/166/70 101/168/70
f 88/186/116 102/181/116 103/163/116
f 87/187/117 84/188/117 99/147/117
f 84/188/118 85/497/118 101/189/118
f 112/190/42 111/194/42 120/191/42
f 107/193/74 119/196/74 120/191/74
f 106/195/7 118/198/7 119/196/7
f 105/197/75 117/200/75 118/198/75
f 110/199/76 116/202/76 117/200/76
f 110/199/77 109/203/77 115/201/77
f 109/203/5 108/205/5 113/204/5
f 108/205/78 112/498/78 114/206/78
f 124/190/42 126/207/42 133/191/42
f 127/193/74 134/196/74 133/191/74
f 125/195/7 135/198/7 134/196/7
f 128/197/75 136/200/75 135/198/75
f 123/199/76 131/208/76 136/200/76
f 123/199/77 122/203/77 130/201/77
f 122/203/5 121/205/5 129/204/5
f 121/205/78 124/498/78 132/206/78
f 143/209/42 140/213/42 148/210/42
f 138/212/74 146/215/74 148/210/74
f 137/214/7 145/217/7 146/215/7
f 139/216/75 147/219/75 145/217/75
f 144/218/76 152/221/76 147/219/76
f 144/218/77 142/222/77 150/220/77
f 142/222/5 141/224/5 149/223/5
f 141/224/78 143/499/78 151/225/78
f 155/209/42 159/500/42 166/210/42
f 166/210/74 159/500/74 160/212/74
f 168/215/7 160/212/7 157/214/7
f 158/216/75 164/219/75 167/217/75
f 156/218/76 163/221/76 164/219/76
f 156/218/77 154/222/77 162/220/77
f 154/222/5 153/224/5 161/223/5
f 153/224/78 155/501/78 165/225/78
f 175/226/42 171/230/42 182/227/42
f 173/229/74 178/232/74 182/227/74
f 172/231/7 177/234/7 178/232/7
f 174/233/75 183/236/75 177/234/75
f 170/235/76 181/238/76 183/236/76
f 170/235/77 169/239/77 180/237/77
f 169/239/5 176/242/5 179/240/5
f 184/241/78 179/240/78 176/242/78
f 188/226/42 189/230/42 196/227/42
f 196/227/74 189/230/74 192/229/74
f 190/244/7 199/234/7 200/232/7
f 191/233/75 197/246/75 199/234/75
f 187/245/76 195/247/76 197/246/76
f 187/245/77 186/239/77 194/237/77
f 186/239/5 185/242/5 193/240/5
f 185/242/78 188/243/78 198/241/78
f 203/248/42 208/266/42 214/249/42
f 214/249/74 208/266/74 207/251/74
f 206/253/7 210/255/7 209/252/7
f 205/254/75 215/257/75 210/255/75
f 204/256/76 213/259/76 215/257/76
f 204/256/77 202/260/77 212/258/77
f 202/260/5 201/262/5 211/261/5
f 201/262/78 203/502/78 216/263/78
f 217/248/42 222/266/42 232/264/42
f 220/251/74 231/252/74 232/264/74
f 219/253/7 230/255/7 231/252/7
f 221/254/75 229/267/75 230/255/75
f 218/256/76 228/268/76 229/267/76
f 218/256/77 224/260/77 227/258/77
f 224/260/5 223/262/5 225/269/5
f 223/262/78 217/502/78 226/270/78
f 240/271/42 238/275/42 246/272/42
f 234/274/74 248/277/74 246/272/74
f 233/276/7 247/279/7 248/277/7
f 239/278/75 243/281/75 247/279/75
f 237/280/76 245/283/76 243/281/76
f 237/280/77 236/284/77 242/282/77
f 236/284/5 235/286/5 241/285/5
f 235/286/78 240/503/78 244/287/78
f 251/271/42 256/275/42 264/272/42
f 255/274/74 261/277/74 264/272/74
f 254/276/7 262/279/7 261/277/7
f 253/278/75 263/281/75 262/279/75
f 252/280/76 260/283/76 263/281/76
f 252/280/77 250/284/77 257/282/77
f 250/284/5 249/286/5 258/285/5
f 249/286/78 251/504/78 259/287/78
f 267/288/42 272/304/42 277/289/42
f 277/289/74 272/304/74 271/291/74
f 270/293/7 278/294/7 280/292/7
f 278/294/75 270/293/75 269/295/75
f 268/297/76 276/299/76 279/296/76
f 268/297/77 266/300/77 273/298/77
f 266/300/5 265/302/5 274/301/5
f 265/302/78 267/505/78 275/303/78
f 287/288/42 288/304/42 296/289/42
f 283/291/74 295/292/74 296/289/74
f 284/293/7 294/294/7 295/292/7
f 282/295/75 293/296/75 294/294/75
f 281/297/76 292/299/76 293/296/76
f 281/297/77 286/300/77 291/305/77
f 286/300/5 285/302/5 289/301/5
f 285/302/78 287/506/78 290/303/78
f 154/507/33 156/367/33 188/366/33
f 154/507/33 188/366/33 185/508/33
f 123/358/33 155/357/33 153/509/33
f 122/510/33 123/358/33 153/509/33
f 31/33/33 124/353/33 121/511/33
f 31/33/33 121/511/33 122/510/33
f 286/512/33 281/384/33 35/42/33
f 252/394/33 287/393/33 285/513/33
f 285/513/33 286/512/33 35/42/33
f 35/42/33 31/33/33 122/510/33
f 35/42/33 122/510/33 153/509/33
f 252/394/33 285/513/33 35/42/33
f 250/514/33 252/394/33 35/42/33
f 35/42/33 153/509/33 154/507/33
f 35/42/33 154/507/33 185/508/33
f 249/515/33 250/514/33 35/42/33
f 218/388/33 251/387/33 249/515/33
f 224/307/33 218/388/33 249/515/33
f 35/42/33 185/508/33 186/516/33
f 186/516/33 187/377/33 217/376/33
f 186/516/33 217/376/33 223/306/33
f 224/307/33 249/515/33 35/42/33
f 35/42/33 186/516/33 223/306/33
