# Blender 5.1.1
# www.blender.org
mtllib GlockSlide.mtl
o GlockSlide
v 0.011223 0.090921 0.016987
v 0.009036 0.090921 0.019174
v 0.011223 0.109281 0.016987
v 0.009036 0.111468 0.016987
v 0.009036 0.109281 0.019174
v -0.009036 0.090921 0.019174
v -0.011223 0.090921 0.016987
v -0.009036 0.111468 0.016987
v -0.011223 0.109281 0.016987
v -0.009036 0.109281 0.019174
v 0.009036 0.090921 -0.124706
v 0.011223 0.090921 -0.120717
v 0.009036 0.111468 -0.122519
v 0.011223 0.109281 -0.120717
v 0.009036 0.109281 -0.124706
v -0.011223 0.090921 -0.120717
v -0.009036 0.090921 -0.124706
v -0.009036 0.111468 -0.122519
v -0.009036 0.109281 -0.124706
v -0.011223 0.109281 -0.120717
v -0.009036 0.111468 0.012911
v -0.011223 0.109281 0.012911
v 0.009036 0.111468 0.012911
v 0.011223 0.109281 0.012911
v -0.011223 0.090921 0.012911
v 0.011223 0.090921 0.012911
v -0.009036 0.111468 0.008921
v 0.011223 0.109281 0.008921
v -0.011223 0.090921 0.008921
v -0.011223 0.109281 0.008921
v 0.009036 0.111468 0.008921
v 0.011223 0.090921 0.008921
v -0.009162 0.109281 0.012911
v 0.009162 0.109281 0.012911
v -0.009162 0.109281 0.008921
v 0.009162 0.109281 0.008921
v -0.006018 0.116156 0.012378
v 0.006018 0.116156 0.012378
v -0.006018 0.116156 0.009453
v 0.006018 0.116156 0.009453
v -0.002083 0.116156 0.012378
v 0.002083 0.116156 0.012378
v -0.002083 0.116156 0.009453
v 0.002083 0.116156 0.009453
v -0.007548 0.112880 0.012631
v -0.007548 0.112880 0.009200
v 0.007548 0.112880 0.009200
v 0.007548 0.112880 0.012631
v 0.002224 0.112880 0.012631
v -0.002224 0.112880 0.012631
v -0.002224 0.112880 0.009200
v 0.002224 0.112880 0.009200
v -0.009036 0.111468 -0.031482
v -0.009036 0.111468 -0.060099
v 0.011223 0.109281 -0.031482
v 0.011223 0.109281 -0.060070
v -0.011223 0.090921 -0.031482
v -0.011223 0.090921 -0.060070
v -0.011223 0.109281 -0.060070
v -0.011223 0.109281 -0.031482
v 0.009036 0.111468 -0.060099
v 0.009036 0.111468 -0.031482
v 0.011223 0.090921 -0.060070
v 0.011223 0.090921 -0.031482
v 0.011223 0.100998 -0.060070
v 0.011223 0.100998 -0.031482
v -0.004297 0.111468 -0.060099
v -0.004297 0.111468 -0.031482
v 0.010265 0.108500 -0.031482
v 0.010265 0.108500 -0.060070
v 0.008294 0.110471 -0.060099
v 0.008294 0.110471 -0.031482
v -0.004375 0.110471 -0.060099
v -0.004375 0.110471 -0.031482
v 0.010265 0.101036 -0.060070
v 0.010265 0.101036 -0.031482
v -0.001630 0.111326 -0.113182
v -0.001630 0.115654 -0.114450
v -0.001630 0.111326 -0.121236
v -0.001630 0.115654 -0.118013
v 0.001630 0.111326 -0.113182
v 0.001630 0.115654 -0.114450
v 0.001630 0.111326 -0.121236
v 0.001630 0.115654 -0.118013
v -0.006527 0.097641 -0.124706
v -0.006527 0.103047 -0.124706
v 0.002703 0.106871 -0.124706
v -0.002703 0.106871 -0.124706
v -0.002703 0.093817 -0.124706
v 0.006527 0.097641 -0.124706
v 0.006527 0.103047 -0.124706
v 0.002703 0.093817 -0.124706
v 0.010265 0.108500 0.002178
v 0.008294 0.110471 0.002178
v -0.004375 0.110471 0.002178
v 0.010265 0.101036 0.002178
v 0.010265 0.108500 -0.080601
v 0.008294 0.110471 -0.080631
v -0.004375 0.110471 -0.080631
v 0.010265 0.101036 -0.080601
v -0.009061 0.110471 -0.060099
v -0.009061 0.110471 -0.031482
v 0.010265 0.094731 -0.060070
v 0.010265 0.094731 -0.031482
v -0.009009 0.110471 0.002178
v 0.010265 0.094731 0.002227
v 0.010265 0.094731 -0.080408
v -0.009114 0.110471 -0.080631
vn 0.5773 0.5774 0.5774
vn -0.5773 0.5774 0.5774
vn 0.7903 0.4333 -0.4333
vn -0.7903 0.4333 -0.4333
vn 0.7071 -0.0000 0.7071
vn -0.0000 0.7071 0.7071
vn -0.7071 -0.0000 0.7071
vn -0.7071 0.7071 -0.0000
vn -0.8769 -0.0000 -0.4807
vn -0.0000 0.7071 -0.7071
vn 0.8769 -0.0000 -0.4807
vn 0.7071 0.7071 -0.0000
vn -0.0000 -1.0000 -0.0000
vn -0.0000 -0.0000 1.0000
vn 1.0000 -0.0000 -0.0000
vn -0.0000 1.0000 -0.0000
vn -1.0000 -0.0000 -0.0000
vn -0.0000 -0.0000 -1.0000
vn -0.9061 0.4231 -0.0000
vn 0.9061 0.4231 -0.0000
vn -0.0000 0.0770 -0.9970
vn -0.0000 0.0770 0.9970
vn -0.0000 0.0774 0.9970
vn -0.0000 0.0774 -0.9970
vn 0.9125 0.4090 -0.0000
vn -0.9125 0.4090 -0.0000
vn -0.9991 -0.0430 -0.0000
vn 0.9991 -0.0430 -0.0000
vn 0.9969 -0.0782 -0.0000
vn -0.0067 0.0082 0.9999
vn 0.0402 0.9992 -0.0000
vn -0.0000 0.5974 -0.8020
vn -0.0000 0.2811 0.9597
vn -0.7071 -0.7071 -0.0000
vn -0.0077 0.0058 1.0000
vt 0.156194 0.008334
vt 0.146250 0.008334
vt 0.151222 -0.000342
vt 0.088149 0.008334
vt 0.078205 0.008334
vt 0.083177 -0.000342
vt 0.146275 0.475556
vt 0.156219 0.469719
vt 0.151920 0.483803
vt 0.088175 0.475556
vt 0.082530 0.483803
vt 0.078231 0.469719
vt 0.000114 0.539375
vt 0.059577 0.529357
vt 0.059577 0.539375
vt 0.146250 -0.001684
vt 0.059577 0.460809
vt 0.000114 0.470827
vt 0.000114 0.460809
vt 0.088175 0.273396
vt 0.078231 0.273300
vt 0.059577 0.000092
vt 0.000114 0.014827
vt 0.000114 0.000092
vt 0.088175 0.485573
vt 0.059577 0.985357
vt 0.000114 1.000092
vt 0.000114 0.985357
vt 0.156194 0.021535
vt 0.146250 0.021535
vt 0.087827 0.997998
vt 0.080744 0.788659
vt 0.153441 0.985078
vt 0.000114 0.529357
vt 0.059577 0.470827
vt 0.000114 0.552576
vt 0.059577 0.552576
vt 0.088149 0.021535
vt 0.000114 0.211245
vt 0.059577 0.014827
vt 0.059577 0.211245
vt 0.240069 0.843570
vt 0.231942 0.805870
vt 0.240069 0.784107
vt 0.059577 0.447607
vt 0.000114 0.565498
vt 0.059577 0.565498
vt 0.080744 0.539095
vt 0.146358 0.532012
vt 0.153441 0.552297
vt 0.146275 0.049860
vt 0.156219 0.180714
vt 0.146275 0.180714
vt 0.026942 0.696352
vt 0.000114 0.696352
vt 0.103410 0.180714
vt 0.000114 0.447607
vt 0.059577 0.434685
vt 0.080744 0.565219
vt 0.080744 0.552297
vt 0.146778 0.029273
vt 0.153406 0.042195
vt 0.146778 0.042195
vt 0.081242 0.029273
vt 0.087870 0.042195
vt 0.081242 0.042195
vt 0.184385 0.609123
vt 0.176150 0.593948
vt 0.183729 0.593948
vt 0.088274 0.049278
vt 0.146374 0.049278
vt 0.153406 0.029273
vt 0.146374 0.022189
vt 0.088274 0.022189
vt 0.087870 0.029273
vt 0.176150 0.577086
vt 0.183729 0.562023
vt 0.183729 0.577086
vt 0.175495 0.546849
vt 0.176150 0.562023
vt 0.231436 0.672078
vt 0.253558 0.691230
vt 0.230615 0.691230
vt 0.231456 0.672253
vt 0.253578 0.691405
vt 0.230634 0.691405
vt 0.183729 0.578885
vt 0.205634 0.562923
vt 0.216746 0.593663
vt 0.205634 0.593663
vt 0.271902 0.651207
vt 0.262496 0.672253
vt 0.271882 0.651032
vt 0.262476 0.672078
vt 0.185109 0.531232
vt 0.174771 0.531232
vt 0.174771 0.624739
vt 0.185109 0.624739
vt 0.205510 0.672078
vt 0.183388 0.691230
vt 0.174470 0.672078
vt 0.215927 0.548350
vt 0.216746 0.562923
vt 0.205530 0.672253
vt 0.183408 0.691405
vt 0.174490 0.672253
vt 0.215927 0.608236
vt 0.165064 0.651032
vt 0.165084 0.651207
vt 0.103410 0.273396
vt 0.146275 0.273396
vt 0.107985 0.272397
vt 0.104810 0.181559
vt 0.107985 0.181559
vt 0.000114 0.788939
vt 0.026942 0.788939
vt 0.110570 0.181992
vt 0.150497 0.185642
vt 0.110283 0.185154
vt 0.150991 0.238072
vt 0.148039 0.261898
vt 0.147949 0.238207
vt 0.000114 0.434685
vt 0.059577 0.303832
vt 0.000114 0.303832
vt 0.153441 0.565219
vt 0.080744 0.696073
vt 0.153441 0.696073
vt 0.088175 0.180713
vt 0.078231 0.049860
vt 0.088175 0.049860
vt 0.078231 0.180713
vt 0.059577 0.696352
vt 0.059577 0.788939
vt 0.138229 0.255739
vt 0.128787 0.259139
vt 0.135289 0.253140
vt 0.150909 0.214429
vt 0.148245 0.190569
vt 0.151326 0.188139
vt 0.110527 0.272183
vt 0.150454 0.268533
vt 0.152848 0.271670
vt 0.137670 0.198436
vt 0.128228 0.195036
vt 0.130454 0.191778
vt 0.155030 0.272060
vt 0.151986 0.181315
vt 0.155030 0.181315
vt 0.200223 0.748714
vt 0.190859 0.738477
vt 0.200223 0.738477
vt 0.190859 0.722973
vt 0.200223 0.722973
vt 0.212657 0.752356
vt 0.252660 0.751895
vt 0.232171 0.723547
vt 0.252660 0.723547
vt 0.178425 0.752356
vt 0.178425 0.729215
vt 0.189666 0.805870
vt 0.181538 0.784107
vt 0.202048 0.793488
vt 0.219559 0.793487
vt 0.181538 0.843570
vt 0.189666 0.823381
vt 0.202048 0.835763
vt 0.219559 0.835763
vt 0.231942 0.823381
vt 0.198447 0.916939
vt 0.202938 0.862432
vt 0.202938 0.916939
vt 0.186421 0.916939
vt 0.198447 0.862432
vt 0.223351 0.862432
vt 0.223351 0.916939
vt 0.202938 0.963280
vt 0.198447 0.996480
vt 0.198447 0.963232
vt 0.223351 0.963280
vt 0.202938 0.996528
vt 0.186421 0.996480
vt 0.186421 0.963232
vt 0.230901 0.963280
vt 0.230816 0.862432
vt 0.223351 0.996528
vt 0.230986 0.996528
vt 0.176262 0.916939
vt 0.186421 0.862432
vt 0.176262 0.862352
vt 0.176262 0.996167
vt 0.088149 -0.001684
vt 0.146275 0.485573
vt 0.059577 1.000092
vt 0.146358 0.997998
vt 0.080744 0.985078
vt 0.153441 0.788659
vt 0.087827 0.532012
vt 0.153441 0.539095
vt 0.078205 0.021535
vt 0.156219 0.049860
vt 0.175495 0.609123
vt 0.184385 0.546849
vt 0.176150 0.578885
vt 0.206332 0.691230
vt 0.206453 0.548350
vt 0.206352 0.691405
vt 0.206453 0.608236
vt 0.104810 0.272397
vt 0.152890 0.182505
vt 0.156219 0.273300
vt 0.151091 0.264366
vt 0.131013 0.262397
vt 0.147869 0.214258
vt 0.110241 0.269021
vt 0.134730 0.201035
vt 0.151986 0.272060
vt 0.190859 0.748714
vt 0.212657 0.729215
vt 0.232171 0.751895
vt 0.230901 0.916939
vt 0.176262 0.963232
s 0
usemtl Glock19
f 3/1/1 4/2/1 5/3/1
f 8/4/2 9/5/2 10/6/2
f 13/7/3 14/8/3 15/9/3
f 18/10/4 19/11/4 20/12/4
f 3/13/5 2/14/5 1/15/5
f 8/4/6 5/16/6 4/2/6
f 7/17/7 10/18/7 9/19/7
f 54/20/8 20/12/8 59/21/8
f 17/22/9 20/23/9 19/24/9
f 13/7/10 19/25/10 18/10/10
f 12/26/11 15/27/11 14/28/11
f 4/2/12 24/29/12 23/30/12
f 11/31/13 63/32/13 16/33/13
f 5/34/14 6/35/14 2/14/14
f 24/36/15 1/15/15 26/37/15
f 8/4/16 23/30/16 21/38/16
f 59/39/17 16/40/17 58/41/17
f 19/42/18 85/43/18 17/44/18
f 9/19/17 25/45/17 7/17/17
f 28/46/15 26/37/15 32/47/15
f 1/48/13 6/49/13 25/50/13
f 21/38/8 9/5/8 8/4/8
f 31/51/12 55/52/12 62/53/12
f 66/54/15 55/55/15 28/46/15
f 68/56/16 31/51/16 62/53/16
f 22/57/17 29/58/17 25/45/17
f 25/50/13 32/59/13 26/60/13
f 34/61/16 28/62/16 36/63/16
f 22/64/16 35/65/16 30/66/16
f 46/67/19 37/68/19 39/69/19
f 30/66/14 35/65/14 27/70/14
f 27/70/14 36/63/14 31/71/14
f 36/63/14 28/62/14 31/71/14
f 24/72/18 34/61/18 23/73/18
f 34/61/18 21/74/18 23/73/18
f 22/64/18 21/74/18 33/75/18
f 42/76/16 40/77/16 44/78/16
f 48/79/20 40/77/20 38/80/20
f 51/81/21 39/82/21 43/83/21
f 49/84/22 38/85/22 42/86/22
f 37/68/16 43/87/16 39/69/16
f 49/88/16 51/89/16 50/90/16
f 34/91/23 48/92/23 49/84/23
f 35/93/24 46/94/24 51/81/24
f 36/95/25 48/79/25 34/96/25
f 33/97/26 46/67/26 35/98/26
f 52/99/21 40/100/21 47/101/21
f 49/88/27 44/102/27 52/103/27
f 50/104/22 37/105/22 45/106/22
f 43/107/28 50/90/28 51/89/28
f 35/93/24 52/99/24 36/108/24
f 47/101/24 36/108/24 52/99/24
f 34/91/23 50/104/23 33/109/23
f 45/106/23 33/109/23 50/104/23
f 13/7/16 67/110/16 61/111/16
f 68/112/29 73/113/29 67/114/29
f 14/28/15 56/115/15 65/116/15
f 68/117/18 72/118/18 74/119/18
f 61/111/12 14/8/12 13/7/12
f 65/120/14 70/121/14 75/122/14
f 30/123/17 57/124/17 29/58/17
f 60/125/17 58/41/17 57/124/17
f 29/126/13 64/127/13 32/59/13
f 57/128/13 63/32/13 64/127/13
f 53/129/8 30/130/8 27/131/8
f 53/129/8 59/21/8 60/132/8
f 65/116/15 64/133/15 63/134/15
f 53/129/16 67/110/16 54/20/16
f 27/131/16 68/56/16 53/129/16
f 66/54/15 32/47/15 64/133/15
f 12/26/15 65/116/15 63/134/15
f 18/10/16 67/110/16 13/7/16
f 56/135/30 71/136/30 70/137/30
f 66/138/18 69/139/18 55/140/18
f 67/141/14 71/142/14 61/143/14
f 55/144/18 72/145/18 62/146/18
f 65/147/31 76/148/31 66/149/31
f 78/150/16 84/151/16 80/152/16
f 80/152/32 83/153/32 79/154/32
f 80/152/17 77/155/17 78/150/17
f 82/156/33 77/157/33 81/158/33
f 84/151/15 81/159/15 83/160/15
f 90/161/18 11/162/18 92/163/18
f 11/162/18 89/164/18 92/163/18
f 89/164/18 17/44/18 85/43/18
f 15/165/18 90/161/18 91/166/18
f 19/42/18 87/167/18 88/168/18
f 15/165/18 91/166/18 87/167/18
f 19/42/18 88/168/18 86/169/18
f 69/170/34 94/171/34 72/172/34
f 76/173/17 93/174/17 69/170/17
f 72/172/13 95/175/13 74/176/13
f 71/177/34 97/178/34 70/179/34
f 73/180/13 98/181/13 71/177/13
f 70/179/17 100/182/17 75/183/17
f 74/176/13 101/184/13 73/180/13
f 105/185/13 74/176/13 95/175/13
f 99/186/13 101/184/13 108/187/13
f 75/183/17 104/188/17 76/173/17
f 96/189/17 104/188/17 106/190/17
f 107/191/17 75/183/17 100/182/17
f 3/13/5 5/34/5 2/14/5
f 8/4/6 10/192/6 5/16/6
f 7/17/7 6/35/7 10/18/7
f 54/20/8 18/10/8 20/12/8
f 17/22/9 16/40/9 20/23/9
f 13/7/10 15/193/10 19/25/10
f 12/26/11 11/194/11 15/27/11
f 4/2/12 3/1/12 24/29/12
f 16/33/13 17/195/13 11/31/13
f 11/31/13 12/196/13 63/32/13
f 63/32/13 58/197/13 16/33/13
f 5/34/14 10/18/14 6/35/14
f 24/36/15 3/13/15 1/15/15
f 8/4/16 4/2/16 23/30/16
f 59/39/17 20/23/17 16/40/17
f 19/42/18 86/169/18 85/43/18
f 9/19/17 22/57/17 25/45/17
f 28/46/15 24/36/15 26/37/15
f 25/50/13 26/60/13 1/48/13
f 1/48/13 2/198/13 6/49/13
f 6/49/13 7/199/13 25/50/13
f 21/38/8 22/200/8 9/5/8
f 31/51/12 28/201/12 55/52/12
f 22/57/17 30/123/17 29/58/17
f 25/50/13 29/126/13 32/59/13
f 34/61/16 24/72/16 28/62/16
f 22/64/16 33/75/16 35/65/16
f 46/67/19 45/202/19 37/68/19
f 27/70/14 35/65/14 36/63/14
f 34/61/18 33/75/18 21/74/18
f 42/76/16 38/80/16 40/77/16
f 48/79/20 47/203/20 40/77/20
f 51/81/21 46/94/21 39/82/21
f 49/84/22 48/92/22 38/85/22
f 37/68/16 41/204/16 43/87/16
f 49/88/16 52/103/16 51/89/16
f 36/95/25 47/203/25 48/79/25
f 33/97/26 45/202/26 46/67/26
f 52/99/21 44/205/21 40/100/21
f 49/88/27 42/206/27 44/102/27
f 50/104/22 41/207/22 37/105/22
f 43/107/28 41/208/28 50/90/28
f 35/93/24 51/81/24 52/99/24
f 34/91/23 49/84/23 50/104/23
f 68/112/29 74/209/29 73/113/29
f 68/117/18 62/210/18 72/118/18
f 61/111/12 56/211/12 14/8/12
f 65/120/14 56/212/14 70/121/14
f 30/123/17 60/125/17 57/124/17
f 60/125/17 59/39/17 58/41/17
f 29/126/13 57/128/13 64/127/13
f 57/128/13 58/197/13 63/32/13
f 53/129/8 60/132/8 30/130/8
f 53/129/8 54/20/8 59/21/8
f 65/116/15 66/54/15 64/133/15
f 53/129/16 68/56/16 67/110/16
f 27/131/16 31/51/16 68/56/16
f 66/54/15 28/46/15 32/47/15
f 12/26/15 14/28/15 65/116/15
f 18/10/16 54/20/16 67/110/16
f 56/135/35 61/213/35 71/136/35
f 66/138/18 76/214/18 69/139/18
f 67/141/14 73/215/14 71/142/14
f 55/144/18 69/216/18 72/145/18
f 65/147/31 75/217/31 76/148/31
f 78/150/16 82/218/16 84/151/16
f 80/152/32 84/151/32 83/153/32
f 80/152/17 79/219/17 77/155/17
f 82/156/33 78/220/33 77/157/33
f 84/151/15 82/218/15 81/159/15
f 11/162/18 17/44/18 89/164/18
f 15/165/18 11/162/18 90/161/18
f 19/42/18 15/165/18 87/167/18
f 69/170/34 93/174/34 94/171/34
f 76/173/17 96/189/17 93/174/17
f 72/172/13 94/171/13 95/175/13
f 71/177/34 98/181/34 97/178/34
f 73/180/13 99/186/13 98/181/13
f 70/179/17 97/178/17 100/182/17
f 74/176/13 102/221/13 101/184/13
f 105/185/13 102/221/13 74/176/13
f 99/186/13 73/180/13 101/184/13
f 75/183/17 103/222/17 104/188/17
f 96/189/17 76/173/17 104/188/17
f 107/191/17 103/222/17 75/183/17
