# Blender 5.1.1
# www.blender.org
mtllib GlockTrigger.mtl
o GlockTrigger
v 0.003674 0.072937 -0.035927
v 0.003674 0.063525 -0.035429
v 0.003674 0.072937 -0.029239
v 0.003674 0.062385 -0.031176
v -0.003674 0.072937 -0.035927
v -0.003674 0.063525 -0.035429
v -0.003674 0.072937 -0.029239
v -0.003674 0.062385 -0.031176
v 0.003674 0.054630 -0.038225
v 0.003674 0.055268 -0.040602
v -0.003674 0.054630 -0.038225
v -0.003674 0.055268 -0.040602
vn 1.0000 -0.0000 -0.0000
vn -1.0000 -0.0000 -0.0000
vn -0.0000 -0.6726 0.7400
vn -0.0000 -0.0529 -0.9986
vn -0.0000 -0.1806 0.9836
vn -0.0000 -0.9659 -0.2588
vn -0.0000 0.5310 -0.8474
vt 0.384459 0.140613
vt 0.379317 0.155975
vt 0.378129 0.140594
vt 0.401956 0.155975
vt 0.396815 0.140613
vt 0.403145 0.140594
vt 0.361563 0.140675
vt 0.372130 0.125606
vt 0.372130 0.140675
vt 0.419711 0.154241
vt 0.409144 0.140687
vt 0.419711 0.140687
vt 0.372130 0.156102
vt 0.349477 0.127062
vt 0.353249 0.138324
vt 0.349477 0.138324
vt 0.385074 0.127220
vt 0.388614 0.127231
vt 0.419711 0.126674
vt 0.396199 0.127220
vt 0.388614 0.153515
vt 0.392660 0.153515
vt 0.361563 0.125606
vt 0.409144 0.154241
vt 0.361563 0.156102
vt 0.353249 0.127062
vt 0.409144 0.126674
vt 0.392660 0.127231
s 0
usemtl Glock19
f 2/1/1 3/2/1 4/3/1
f 7/4/2 6/5/2 8/6/2
f 8/7/3 9/8/3 4/9/3
f 5/10/4 2/11/4 6/12/4
f 3/13/5 8/7/5 4/9/5
f 10/14/6 11/15/6 12/16/6
f 2/1/1 9/17/1 10/18/1
f 2/11/7 12/19/7 6/12/7
f 6/5/2 11/20/2 8/6/2
f 2/1/1 1/21/1 3/2/1
f 7/4/2 5/22/2 6/5/2
f 8/7/3 11/23/3 9/8/3
f 5/10/4 1/24/4 2/11/4
f 3/13/5 7/25/5 8/7/5
f 10/14/6 9/26/6 11/15/6
f 2/1/1 4/3/1 9/17/1
f 2/11/7 10/27/7 12/19/7
f 6/5/2 12/28/2 11/20/2
