# Blender 5.1.1
# www.blender.org
mtllib GlockMag.mtl
o GlockMag
v 0.007473 0.013960 -0.010577
v 0.010394 0.013851 -0.006436
v -0.010394 0.013851 -0.006436
v -0.007473 0.013960 -0.010577
v 0.010394 0.016348 0.021879
v -0.010394 0.016348 0.021879
v 0.010394 0.019213 0.020546
v 0.007473 0.016658 -0.010815
v 0.010394 0.016811 -0.006697
v -0.010394 0.016811 -0.006697
v -0.007473 0.016658 -0.010815
v -0.010394 0.019213 0.020546
v -0.007168 0.018312 0.020195
v -0.008508 0.018183 0.018726
v -0.008542 0.080003 -0.002793
v -0.007197 0.080003 -0.001374
v -0.008508 0.016256 -0.005787
v -0.007168 0.015907 -0.007082
v -0.008508 0.016024 -0.005747
v -0.007197 0.080003 -0.027935
v -0.008542 0.080003 -0.026532
v 0.008508 0.018183 0.018726
v 0.007168 0.018312 0.020195
v 0.007197 0.080003 -0.001374
v 0.008542 0.080003 -0.002793
v 0.007168 0.015907 -0.007082
v 0.008508 0.016256 -0.005787
v 0.008508 0.016024 -0.005747
v 0.008542 0.080003 -0.026532
v 0.007197 0.080003 -0.027935
v -0.007168 0.021975 0.017726
v -0.008508 0.021620 0.016412
v 0.008508 0.021620 0.016412
v 0.007168 0.021975 0.017726
v -0.007168 0.073191 0.000880
v -0.008508 0.072770 -0.000410
v -0.007824 0.065849 -0.021621
v -0.006613 0.065534 -0.022588
v 0.006613 0.065534 -0.022588
v 0.007824 0.065849 -0.021621
v 0.008508 0.072770 -0.000410
v 0.007168 0.073191 0.000880
v -0.008508 0.078363 -0.002254
v -0.007168 0.078783 -0.000965
v -0.007824 0.071478 -0.023353
v -0.006588 0.071155 -0.024345
v 0.006588 0.071155 -0.024345
v 0.007824 0.071478 -0.023353
v 0.008508 0.078363 -0.002254
v 0.007168 0.078783 -0.000965
v -0.008508 0.065751 -0.021923
v -0.007168 0.065335 -0.023196
v 0.007168 0.065335 -0.023196
v 0.008508 0.065751 -0.021923
v -0.008508 0.071349 -0.023748
v -0.007168 0.070934 -0.025021
v 0.007168 0.070934 -0.025021
v 0.008508 0.071349 -0.023748
v 0.008508 0.016605 0.000832
v 0.008542 0.080003 -0.020118
v 0.008508 0.017798 0.000110
v 0.008508 0.073222 -0.018009
v 0.008508 0.067625 -0.016178
v -0.008508 0.016605 0.000832
v -0.008508 0.017798 0.000110
v -0.008508 0.073222 -0.018009
v -0.008542 0.080003 -0.020118
v -0.008508 0.067625 -0.016178
v -0.007824 0.067600 -0.016255
v 0.007824 0.067600 -0.016255
v -0.007824 0.073198 -0.018082
v 0.007824 0.073198 -0.018082
v -0.004398 0.089876 -0.004610
v -0.005220 0.089876 -0.006033
v -0.005226 0.085579 -0.028357
v -0.004403 0.085579 -0.029763
v 0.004403 0.085579 -0.029763
v 0.005226 0.085579 -0.028357
v 0.005220 0.089876 -0.006033
v 0.004398 0.089876 -0.004610
v -0.005220 0.089876 -0.018644
v 0.005220 0.089876 -0.018644
v -0.004339 0.089876 -0.018644
v 0.004339 0.089876 -0.018644
v 0.004397 0.086003 -0.028664
v -0.004397 0.086003 -0.028664
v 0.004392 0.089876 -0.006033
v -0.004392 0.089876 -0.006033
v -0.007358 0.020094 0.003429
v 0.007358 0.020094 0.003429
v 0.007456 0.017501 -0.005920
v -0.007456 0.017501 -0.005920
v 0.007449 0.023358 0.014108
v -0.007449 0.023358 0.014108
v -0.002743 0.086188 -0.003386
v 0.002743 0.086188 -0.003386
v -0.002740 0.086188 -0.004809
v 0.002740 0.086188 -0.004809
v 0.007358 0.074450 -0.012985
v 0.007449 0.078231 -0.002933
v 0.007456 0.071345 -0.022742
v -0.007449 0.078231 -0.002933
v -0.007358 0.074450 -0.012985
v -0.007456 0.071345 -0.022742
vn -0.0000 -0.9997 -0.0264
vn -0.0000 -0.0878 -0.9961
vn -0.0100 0.9967 -0.0803
vn -0.0000 0.4217 0.9067
vn 1.0000 -0.0000 -0.0000
vn 0.8155 -0.0508 -0.5765
vn -1.0000 -0.0000 -0.0000
vn -0.8155 -0.0508 -0.5765
vn -0.0000 -0.9961 0.0878
vn -0.7060 -0.1187 -0.6982
vn 0.7060 -0.1187 -0.6982
vn -0.7111 0.2078 0.6717
vn 0.6932 0.4025 0.5979
vn -0.6937 0.4026 0.5973
vn -0.7071 -0.2192 -0.6723
vn 0.7071 -0.2192 -0.6723
vn 0.7116 0.2195 0.6674
vn -0.7122 0.2193 0.6668
vn -0.6446 -0.2249 -0.7307
vn 0.6446 -0.2249 -0.7307
vn 0.7112 0.2201 0.6677
vn -0.7116 0.2202 0.6672
vn -0.7044 -0.2192 -0.6751
vn 0.7044 -0.2192 -0.6751
vn 0.7103 0.2064 0.6730
vn -0.0000 0.5589 0.8293
vn -1.0000 -0.0051 -0.0000
vn -0.7880 0.4145 0.4552
vn -0.0000 0.3174 0.9483
vn -0.0000 -0.3100 -0.9507
vn -0.0000 -0.3059 -0.9521
vn 0.9998 -0.0191 0.0062
vn -0.0000 0.3125 0.9499
vn -0.0000 0.3134 0.9496
vn -0.0000 -0.2982 -0.9545
vn -0.0000 0.9507 -0.3102
vn -0.0000 -0.9507 0.3102
vn 1.0000 -0.0046 0.0015
vn -1.0000 -0.0040 -0.0000
vn -0.1177 -0.3087 -0.9439
vn 0.1177 -0.3087 -0.9439
vn -0.0000 1.0000 -0.0000
vn 0.7076 0.1988 -0.6781
vn -0.8338 0.2578 -0.4882
vn 0.8695 0.4519 -0.1994
vn 0.9478 0.3189 -0.0000
vn -0.0000 -0.3115 -0.9503
vn -0.9478 0.3189 -0.0000
vn 0.0052 0.3128 0.9498
vn 0.6666 0.3960 0.6316
vn -0.8695 0.4519 -0.1994
vn -0.5211 0.7971 -0.3051
vn 0.5211 0.7971 -0.3051
vn -0.9999 -0.0029 -0.0097
vn 0.9121 0.4101 0.0024
vn -0.0000 0.9328 -0.3605
vn -0.0000 0.9145 -0.4046
vn -1.0000 0.0025 0.0081
vn -0.0000 0.9636 -0.2673
vn -0.0000 0.9563 -0.2923
vn 1.0000 0.0023 0.0078
vn -0.0000 0.2982 0.9545
vn 1.0000 -0.0029 -0.0091
vn -0.0000 -0.2966 -0.9550
vn -0.9121 0.4100 0.0039
vn -0.0052 0.3128 0.9498
vn -0.0000 0.3094 0.9509
vn -0.0000 -0.2295 -0.9733
vn 0.9818 -0.1792 0.0636
vn -0.0000 0.3746 0.9272
vn 0.9817 -0.1906 0.0042
vn -0.9688 -0.2290 0.0949
vn -0.9834 -0.1756 0.0460
vn -0.0000 0.9961 -0.0878
vn 0.0718 0.9936 -0.0876
vn -0.0000 0.9993 -0.0369
vn -0.7103 0.2064 0.6730
vn 0.6937 0.4026 0.5973
vn -0.6932 0.4025 0.5979
vn 0.7122 0.2193 0.6668
vn -0.7116 0.2195 0.6674
vn -0.6433 -0.2257 -0.7316
vn 0.6433 -0.2257 -0.7316
vn 0.7116 0.2202 0.6672
vn -0.7112 0.2201 0.6677
vn -0.7071 -0.2191 -0.6723
vn 0.7071 -0.2191 -0.6723
vn 0.7111 0.2078 0.6717
vn -0.9998 -0.0191 0.0062
vn -0.6666 0.3960 0.6316
vn 1.0000 -0.0051 -0.0000
vn 1.0000 -0.0040 -0.0000
vn -1.0000 -0.0046 0.0015
vn -0.1119 -0.3082 -0.9447
vn 0.1119 -0.3082 -0.9447
vn 0.8338 0.2578 -0.4882
vn -0.7076 0.1988 -0.6781
vn 0.7880 0.4145 0.4552
vn -1.0000 -0.0029 -0.0091
vn 0.9121 0.4100 0.0039
vn -1.0000 0.0023 0.0078
vn 1.0000 0.0025 0.0081
vn 0.9999 -0.0029 -0.0097
vn -0.9121 0.4101 0.0024
vn -0.0883 -0.2778 -0.9566
vn 0.0883 -0.2778 -0.9566
vn 0.9834 -0.1756 0.0460
vn 0.9688 -0.2290 0.0949
vn -0.9817 -0.1906 0.0042
vn -0.9818 -0.1792 0.0636
vt 0.899653 0.365701
vt 0.911807 0.313275
vt 0.911807 0.374270
vt 0.831277 0.003064
vt 0.889858 0.012495
vt 0.831277 0.012495
vt 0.992931 0.374170
vt 0.900595 0.365601
vt 0.912684 0.313175
vt 0.726679 0.012495
vt 0.668098 0.003064
vt 0.726679 0.003064
vt 0.905921 0.012495
vt 0.994457 0.003064
vt 0.994457 0.012495
vt 0.905921 0.003064
vt 0.815215 0.012495
vt 0.815215 0.003064
vt 0.995209 0.313275
vt 0.995209 0.374270
vt 0.912094 0.047827
vt 0.906009 0.048120
vt 0.911999 0.047077
vt 0.859955 0.048120
vt 0.853870 0.047827
vt 0.853965 0.047077
vt 0.727468 0.240325
vt 0.720727 0.236347
vt 0.727393 0.236072
vt 0.773534 0.042200
vt 0.778683 0.029746
vt 0.779691 0.042867
vt 0.726468 0.041861
vt 0.721416 0.029679
vt 0.727199 0.027874
vt 0.912094 0.215135
vt 0.906009 0.215134
vt 0.853869 0.215135
vt 0.859955 0.215134
vt 0.772290 0.215794
vt 0.778415 0.215849
vt 0.727766 0.215763
vt 0.720375 0.042525
vt 0.809624 0.320194
vt 0.805501 0.335719
vt 0.805472 0.320155
vt 0.850863 0.335719
vt 0.846740 0.320194
vt 0.850892 0.320155
vt 0.772392 0.235067
vt 0.778367 0.216179
vt 0.778363 0.235081
vt 0.727467 0.235067
vt 0.721492 0.216179
vt 0.727467 0.216164
vt 0.905647 0.235692
vt 0.909395 0.262083
vt 0.903727 0.262939
vt 0.855304 0.262084
vt 0.859849 0.234646
vt 0.861164 0.263094
vt 0.772299 0.240279
vt 0.778966 0.236308
vt 0.778811 0.242354
vt 0.931670 0.046841
vt 0.932716 0.042483
vt 0.772764 0.027874
vt 0.930397 0.240305
vt 0.977893 0.260780
vt 0.925904 0.261231
vt 0.720917 0.242438
vt 0.734724 0.268141
vt 0.731680 0.271847
vt 0.772351 0.236072
vt 0.984582 0.215220
vt 0.931372 0.215150
vt 0.834293 0.046841
vt 0.833248 0.042483
vt 0.833951 0.238873
vt 0.784099 0.259144
vt 0.782532 0.253788
vt 0.781382 0.215220
vt 0.780713 0.042493
vt 0.772392 0.216164
vt 0.931319 0.215407
vt 0.984516 0.234276
vt 0.931318 0.234309
vt 0.846811 0.335757
vt 0.809554 0.335757
vt 0.834364 0.215375
vt 0.781166 0.234244
vt 0.781121 0.215342
vt 0.848676 0.359204
vt 0.847440 0.354769
vt 0.851024 0.358353
vt 0.807853 0.359204
vt 0.809088 0.354769
vt 0.810573 0.356480
vt 0.807933 0.359323
vt 0.809168 0.354629
vt 0.810720 0.356533
vt 0.848756 0.359323
vt 0.847520 0.354629
vt 0.851104 0.358213
vt 0.845956 0.356480
vt 0.845969 0.356533
vt 0.834592 0.215150
vt 0.853643 0.235308
vt 0.838151 0.260760
vt 0.777021 0.029714
vt 0.911584 0.236475
vt 0.985250 0.042493
vt 0.988943 0.029714
vt 0.866760 0.335494
vt 0.789604 0.335494
vt 0.789854 0.319934
vt 0.851024 0.374519
vt 0.805504 0.374519
vt 0.805504 0.358353
vt 0.851104 0.374363
vt 0.805584 0.374363
vt 0.805584 0.358213
vt 0.928489 0.215407
vt 0.837194 0.215375
vt 0.834365 0.234278
vt 0.734913 0.272120
vt 0.860570 0.281455
vt 0.904022 0.280549
vt 0.898393 0.281525
vt 0.833501 0.291589
vt 0.794343 0.293256
vt 0.866395 0.282588
vt 0.967380 0.293365
vt 0.929769 0.290992
vt 0.765167 0.267959
vt 0.758793 0.260251
vt 0.929213 0.293570
vt 0.902226 0.283430
vt 0.768207 0.271634
vt 0.764993 0.271916
vt 0.862376 0.284484
vt 0.813914 0.214747
vt 0.780312 0.033522
vt 0.812440 0.031938
vt 0.743516 0.264300
vt 0.741108 0.260366
vt 0.866560 0.286867
vt 0.834025 0.294281
vt 0.852874 0.029944
vt 0.852870 0.214973
vt 0.794468 0.296007
vt 0.967206 0.296007
vt 0.984951 0.349720
vt 0.952784 0.321678
vt 0.984951 0.321493
vt 0.952784 0.349535
vt 0.912302 0.321507
vt 0.920000 0.214850
vt 0.881042 0.030050
vt 0.921475 0.032044
vt 0.953923 0.215292
vt 0.981831 0.033579
vt 0.982150 0.215242
vt 0.953603 0.033629
vt 0.881073 0.029944
vt 0.881057 0.215024
vt 0.756412 0.264171
vt 0.741150 0.264953
vt 0.758811 0.264838
vt 0.875766 0.241763
vt 0.919581 0.266734
vt 0.954010 0.264745
vt 0.982237 0.264695
vt 0.881042 0.254343
vt 0.852871 0.254237
vt 0.814332 0.266628
vt 0.779990 0.215185
vt 0.899653 0.321844
vt 0.889858 0.003064
vt 0.992931 0.313175
vt 0.912684 0.374170
vt 0.900595 0.321744
vt 0.668098 0.012495
vt 0.721630 0.215817
vt 0.721495 0.235081
vt 0.979507 0.255665
vt 0.984562 0.215374
vt 0.866510 0.319934
vt 0.848676 0.374302
vt 0.807853 0.374302
vt 0.848756 0.374157
vt 0.807933 0.374157
vt 0.928489 0.234309
vt 0.837194 0.234278
vt 0.898512 0.285806
vt 0.912302 0.349706
vt 0.858178 0.241763
vt 0.881073 0.254237
vt 0.779903 0.264638
s 0
usemtl Glock19
f 4/1/1 2/2/1 3/3/1
f 11/4/2 1/5/2 4/6/2
f 7/7/3 8/8/3 10/9/3
f 6/10/4 7/11/4 12/12/4
f 2/13/5 7/14/5 5/15/5
f 1/5/6 9/16/6 2/13/6
f 12/12/7 3/17/7 6/10/7
f 10/18/8 4/6/8 3/17/8
f 3/3/9 5/19/9 6/20/9
f 17/21/10 18/22/10 19/23/10
f 26/24/11 27/25/11 28/26/11
f 16/27/12 43/28/12 44/29/12
f 34/30/13 22/31/13 33/32/13
f 31/33/14 14/34/14 13/35/14
f 18/22/15 51/36/15 52/37/15
f 54/38/16 26/24/16 53/39/16
f 42/40/17 33/32/17 41/41/17
f 35/42/18 32/43/18 31/33/18
f 46/44/19 37/45/19 45/46/19
f 40/47/20 47/48/20 48/49/20
f 50/50/21 41/51/21 49/52/21
f 44/53/22 36/54/22 35/55/22
f 56/56/23 21/57/23 20/58/23
f 29/59/24 57/60/24 30/61/24
f 24/62/25 49/63/25 25/64/25
f 65/65/7 19/23/7 64/66/7
f 34/30/26 13/35/26 23/67/26
f 66/68/27 15/69/27 67/70/27
f 15/71/28 73/72/28 74/73/28
f 24/62/29 44/29/29 50/74/29
f 52/37/30 26/24/30 18/22/30
f 65/65/7 36/75/7 68/76/7
f 20/58/31 57/60/31 56/56/31
f 28/26/5 61/77/5 59/78/5
f 62/79/32 25/80/32 49/81/32
f 61/77/5 41/82/5 33/83/5
f 42/40/33 31/33/33 34/30/33
f 50/50/34 35/55/34 42/84/34
f 68/85/7 43/86/7 66/87/7
f 46/44/35 39/88/35 38/89/35
f 63/90/5 49/91/5 41/92/5
f 37/93/36 52/94/36 51/95/36
f 40/96/36 53/97/36 39/98/36
f 45/99/37 56/100/37 46/101/37
f 48/102/37 57/103/37 58/104/37
f 39/98/36 52/94/36 38/105/36
f 46/101/37 57/103/37 47/106/37
f 27/25/5 63/107/5 61/77/5
f 58/108/38 60/109/38 62/79/38
f 59/78/5 33/83/5 22/110/5
f 17/21/7 68/76/7 51/36/7
f 55/111/39 67/70/39 21/57/39
f 32/112/7 64/66/7 14/113/7
f 48/49/5 70/114/5 40/47/5
f 45/46/7 69/115/7 71/116/7
f 68/117/36 37/93/36 51/95/36
f 40/96/36 63/118/36 54/119/36
f 62/120/37 48/102/37 58/104/37
f 45/99/37 66/121/37 55/122/37
f 66/87/40 69/123/40 68/85/40
f 70/124/41 62/125/41 63/90/41
f 88/126/42 74/73/42 73/72/42
f 30/61/43 78/127/43 29/59/43
f 20/58/44 75/128/44 76/129/44
f 29/59/45 78/127/45 82/130/45
f 60/109/46 79/131/46 25/80/46
f 20/58/47 77/132/47 30/61/47
f 67/70/48 74/133/48 81/134/48
f 24/62/49 80/135/49 96/136/49
f 21/57/48 67/70/48 81/134/48
f 25/64/50 80/135/50 24/62/50
f 75/128/51 21/57/51 81/134/51
f 60/109/46 29/59/46 82/130/46
f 75/128/52 83/137/52 86/138/52
f 79/139/42 87/140/42 80/135/42
f 78/127/53 77/132/53 85/141/53
f 99/142/54 91/143/54 90/144/54
f 97/145/55 73/72/55 95/146/55
f 76/129/56 85/147/56 77/132/56
f 78/127/57 84/148/57 82/130/57
f 76/129/52 75/128/52 86/138/52
f 99/142/58 93/149/58 100/150/58
f 82/130/42 87/151/42 79/131/42
f 81/134/42 88/152/42 83/137/42
f 92/153/59 90/154/59 91/155/59
f 89/156/60 93/157/60 90/154/60
f 103/158/61 94/159/61 89/160/61
f 104/161/62 91/162/62 101/163/62
f 103/158/63 92/164/63 104/161/63
f 100/150/64 94/165/64 102/166/64
f 98/167/65 80/135/65 87/140/65
f 97/168/42 96/136/42 98/169/42
f 73/72/66 16/27/66 95/146/66
f 24/62/67 95/146/67 16/27/67
f 97/170/68 100/150/68 102/166/68
f 83/171/69 104/161/69 86/172/69
f 86/172/70 101/163/70 85/173/70
f 88/174/71 103/158/71 83/171/71
f 87/175/72 99/142/72 100/150/72
f 84/176/73 101/177/73 99/142/73
f 4/1/1 1/178/1 2/2/1
f 11/4/2 8/179/2 1/5/2
f 10/9/74 12/180/74 7/7/74
f 7/7/75 9/181/75 8/8/75
f 8/8/76 11/182/76 10/9/76
f 6/10/4 5/183/4 7/11/4
f 2/13/5 9/16/5 7/14/5
f 1/5/6 8/179/6 9/16/6
f 12/12/7 10/18/7 3/17/7
f 10/18/8 11/4/8 4/6/8
f 3/3/9 2/2/9 5/19/9
f 16/27/77 15/71/77 43/28/77
f 34/30/78 23/67/78 22/31/78
f 31/33/79 32/43/79 14/34/79
f 18/22/15 17/21/15 51/36/15
f 54/38/16 27/25/16 26/24/16
f 42/40/80 34/30/80 33/32/80
f 35/42/81 36/184/81 32/43/81
f 46/44/82 38/89/82 37/45/82
f 40/47/83 39/88/83 47/48/83
f 50/50/84 42/84/84 41/51/84
f 44/53/85 43/185/85 36/54/85
f 56/56/86 55/111/86 21/57/86
f 29/59/87 58/108/87 57/60/87
f 24/62/88 50/74/88 49/63/88
f 65/65/7 17/21/7 19/23/7
f 34/30/26 31/33/26 13/35/26
f 66/68/89 43/186/89 15/69/89
f 15/71/90 16/27/90 73/72/90
f 24/62/29 16/27/29 44/29/29
f 52/37/30 53/39/30 26/24/30
f 65/65/7 32/112/7 36/75/7
f 20/58/31 30/61/31 57/60/31
f 28/26/5 27/25/5 61/77/5
f 62/79/91 60/109/91 25/80/91
f 61/77/5 63/107/5 41/82/5
f 42/40/33 35/42/33 31/33/33
f 50/50/34 44/53/34 35/55/34
f 68/85/7 36/187/7 43/86/7
f 46/44/35 47/48/35 39/88/35
f 63/90/5 62/125/5 49/91/5
f 37/93/36 38/105/36 52/94/36
f 40/96/36 54/119/36 53/97/36
f 45/99/37 55/122/37 56/100/37
f 48/102/37 47/106/37 57/103/37
f 39/98/36 53/97/36 52/94/36
f 46/101/37 56/100/37 57/103/37
f 27/25/5 54/38/5 63/107/5
f 58/108/92 29/59/92 60/109/92
f 59/78/5 61/77/5 33/83/5
f 17/21/7 65/65/7 68/76/7
f 55/111/93 66/68/93 67/70/93
f 32/112/7 65/65/7 64/66/7
f 48/49/5 72/188/5 70/114/5
f 45/46/7 37/45/7 69/115/7
f 68/117/36 69/189/36 37/93/36
f 40/96/36 70/190/36 63/118/36
f 62/120/37 72/191/37 48/102/37
f 45/99/37 71/192/37 66/121/37
f 66/87/94 71/193/94 69/123/94
f 70/124/95 72/194/95 62/125/95
f 30/61/96 77/132/96 78/127/96
f 20/58/97 21/57/97 75/128/97
f 60/109/46 82/130/46 79/131/46
f 20/58/47 76/129/47 77/132/47
f 67/70/48 15/69/48 74/133/48
f 25/64/98 79/139/98 80/135/98
f 75/128/57 81/134/57 83/137/57
f 99/142/99 101/177/99 91/143/99
f 97/145/100 88/126/100 73/72/100
f 76/129/56 86/195/56 85/147/56
f 78/127/53 85/141/53 84/148/53
f 99/142/101 90/144/101 93/149/101
f 82/130/42 84/148/42 87/151/42
f 81/134/42 74/133/42 88/152/42
f 92/153/59 89/156/59 90/154/59
f 89/156/60 94/196/60 93/157/60
f 103/158/102 102/166/102 94/159/102
f 104/161/62 92/164/62 91/162/62
f 103/158/103 89/160/103 92/164/103
f 100/150/64 93/149/64 94/165/64
f 98/167/104 96/136/104 80/135/104
f 97/168/42 95/146/42 96/136/42
f 24/62/67 96/136/67 95/146/67
f 98/197/105 87/175/105 100/150/105
f 102/166/106 88/198/106 97/170/106
f 97/170/68 98/197/68 100/150/68
f 83/171/107 103/158/107 104/161/107
f 86/172/70 104/161/70 101/163/70
f 88/174/108 102/166/108 103/158/108
f 87/175/109 84/176/109 99/142/109
f 84/176/110 85/199/110 101/177/110
