# Blender 5.0.1
# www.blender.org
mtllib ShoesCabinet.mtl
o ShoesCabinet
v -0.480000 0.050000 0.200000
v -0.480000 0.510000 0.200000
v -0.500000 0.030000 -0.200000
v -0.500000 0.530000 -0.200000
v 0.480000 0.050000 0.200000
v 0.480000 0.510000 0.200000
v 0.500000 0.030000 -0.200000
v 0.500000 0.530000 -0.200000
v -0.500000 0.030000 0.200000
v -0.500000 0.530000 0.200000
v 0.500000 0.530000 0.200000
v 0.500000 0.030000 0.200000
v -0.480000 0.050000 -0.180000
v -0.480000 0.510000 -0.180000
v 0.480000 0.510000 -0.180000
v 0.480000 0.050000 -0.180000
v 0.480000 0.530000 -0.200000
v -0.480000 0.530000 -0.200000
v 0.480000 0.530000 0.200000
v -0.480000 0.530000 0.200000
v 0.500000 0.580000 -0.200000
v 0.500000 0.580000 0.200000
v -0.500000 0.580000 -0.200000
v -0.500000 0.580000 0.200000
v 0.480000 0.580000 -0.200000
v -0.480000 0.580000 -0.200000
v 0.480000 0.580000 0.200000
v -0.480000 0.580000 0.200000
v 0.480000 0.530000 -0.180000
v -0.480000 0.530000 -0.180000
v 0.480000 0.580000 -0.180000
v -0.480000 0.580000 -0.180000
v 0.444984 0.000000 -0.154975
v 0.444984 0.030000 -0.154975
v 0.444984 0.000000 -0.184975
v 0.444984 0.030000 -0.184975
v 0.474984 0.000000 -0.154975
v 0.474984 0.030000 -0.154975
v 0.474984 0.000000 -0.184975
v 0.474984 0.030000 -0.184975
v -0.474983 0.000000 -0.154975
v -0.474983 0.030000 -0.154975
v -0.474983 0.000000 -0.184975
v -0.474983 0.030000 -0.184975
v -0.444983 0.000000 -0.154975
v -0.444983 0.030000 -0.154975
v -0.444983 0.000000 -0.184975
v -0.444983 0.030000 -0.184975
v 0.444984 0.000000 0.184978
v 0.444984 0.030000 0.184978
v 0.444984 0.000000 0.154978
v 0.444984 0.030000 0.154978
v 0.474984 0.000000 0.184978
v 0.474984 0.030000 0.184978
v 0.474984 0.000000 0.154978
v 0.474984 0.030000 0.154978
v -0.474983 0.000000 0.184978
v -0.474983 0.030000 0.184978
v -0.474983 0.000000 0.154978
v -0.474983 0.030000 0.154978
v -0.444983 0.000000 0.184978
v -0.444983 0.030000 0.184978
v -0.444983 0.000000 0.154978
v -0.444983 0.030000 0.154978
vn 1.0000 -0.0000 -0.0000
vn -0.0000 -0.0000 1.0000
vn -0.0000 -1.0000 -0.0000
vn -1.0000 -0.0000 -0.0000
vn -0.0000 1.0000 -0.0000
vn -0.0000 -0.0000 -1.0000
vt 0.156250 0.781250
vt 0.000000 0.968750
vt 0.000000 0.781250
vt 0.312500 0.156250
vt 0.156250 0.375000
vt 0.312500 0.375000
vt 0.165122 0.789214
vt 0.562876 0.781268
vt 0.554758 0.789214
vt 0.437500 0.375000
vt -0.000000 0.156250
vt 0.437500 0.156250
vt -0.000000 -0.000000
vt 0.437500 -0.000000
vt 0.281250 0.375000
vt 0.125000 0.156250
vt 0.281250 0.156250
vt 0.718750 0.968750
vt 0.562500 0.781250
vt 0.718750 0.781250
vt 0.157005 0.781268
vt 0.165122 0.971973
vt 0.157005 0.979919
vt 0.562876 0.979919
vt 0.562500 0.625000
vt 0.165122 0.979919
vt 0.554758 0.971973
vt 0.554758 0.979919
vt 0.554758 0.999785
vt 0.500000 0.406250
vt 0.531250 0.562500
vt 0.500000 0.562500
vt 0.071102 0.562603
vt 0.491000 0.554765
vt 0.491000 0.562603
vt 0.158051 0.781175
vt 0.164420 0.968797
vt 0.156399 0.968797
vt 0.560430 0.781175
vt 0.562082 0.968798
vt 0.554061 0.968797
vt 0.499748 0.405839
vt 0.071102 0.554765
vt 0.062354 0.562603
vt 0.062354 0.405839
vt 0.156399 0.999971
vt 0.062500 0.562500
vt 0.500000 0.593750
vt 0.062500 0.593750
vt 0.562500 1.000000
vt 0.562500 0.968750
vt 0.157005 0.999785
vt 0.554061 0.999971
vt 0.156250 0.968750
vt 0.000000 1.000000
vt 0.031250 0.406250
vt 0.062500 0.406250
vt 0.031250 0.625000
vt 0.000000 0.656250
vt 0.000000 0.625000
vt 0.031250 0.656250
vt 0.000000 0.687500
vt 0.031250 0.687500
vt 0.000000 0.718750
vt 0.031250 0.718750
vt 0.000000 0.750000
vt 0.031250 0.593750
vt 0.000000 0.593750
vt 0.156250 0.156250
vt -0.000000 0.375000
vt 0.125000 0.375000
vt 0.156250 0.625000
vt 0.562876 0.999785
vt 0.531250 0.406250
vt 0.491000 0.405839
vt 0.499748 0.562603
vt 0.071102 0.405839
vt 0.164420 0.999971
vt 0.718750 1.000000
vt 0.165122 0.999785
vt 0.562082 0.999971
vt 0.156250 1.000000
vt 0.031250 0.562500
vt 0.031250 0.750000
s 0
usemtl ShoesCabinet
f 7/1/1 11/2/1 12/3/1
f 1/4/1 14/5/1 2/6/1
f 1/7/2 12/8/2 5/9/2
f 15/10/2 13/11/2 16/12/2
f 2/13/3 15/12/3 6/14/3
f 6/15/4 16/16/4 5/17/4
f 5/14/5 13/11/5 1/13/5
f 10/18/4 3/19/4 9/20/4
f 9/21/2 2/22/2 10/23/2
f 11/24/2 5/9/2 12/8/2
f 7/1/3 9/25/3 3/19/3
f 2/22/2 20/26/2 10/23/2
f 6/27/2 11/24/2 19/28/2
f 11/24/2 27/29/2 19/28/2
f 19/30/4 31/31/4 29/32/4
f 26/33/5 31/34/5 25/35/5
f 6/27/2 20/26/2 2/22/2
f 7/36/6 17/37/6 8/38/6
f 3/39/6 4/40/6 18/41/6
f 3/39/6 17/37/6 7/36/6
f 22/42/5 25/35/5 31/34/5
f 32/43/5 23/44/5 24/45/5
f 17/37/6 21/46/6 8/38/6
f 30/47/2 31/48/2 32/49/2
f 10/18/4 23/50/4 4/51/4
f 20/26/2 24/52/2 10/23/2
f 4/40/6 26/53/6 18/41/6
f 8/54/1 22/55/1 11/2/1
f 30/47/1 28/56/1 20/57/1
f 29/32/5 20/57/5 19/30/5
f 26/53/6 17/37/6 18/41/6
f 34/58/4 35/59/4 33/60/4
f 36/61/6 39/62/6 35/59/6
f 40/63/1 37/64/1 39/62/1
f 38/65/2 33/66/2 37/64/2
f 39/67/3 33/60/3 35/68/3
f 42/58/4 43/59/4 41/60/4
f 44/61/6 47/62/6 43/59/6
f 48/63/1 45/64/1 47/62/1
f 46/65/2 41/66/2 45/64/2
f 47/67/3 41/60/3 43/68/3
f 50/58/4 51/59/4 49/60/4
f 52/61/6 55/62/6 51/59/6
f 56/63/1 53/64/1 55/62/1
f 54/65/2 49/66/2 53/64/2
f 55/67/3 49/60/3 51/68/3
f 58/58/4 59/59/4 57/60/4
f 60/61/6 63/62/6 59/59/6
f 64/63/1 61/64/1 63/62/1
f 62/65/2 57/66/2 61/64/2
f 63/67/3 57/60/3 59/68/3
f 7/1/1 8/54/1 11/2/1
f 1/4/1 13/69/1 14/5/1
f 1/7/2 9/21/2 12/8/2
f 15/10/2 14/70/2 13/11/2
f 2/13/3 14/11/3 15/12/3
f 6/15/4 15/71/4 16/16/4
f 5/14/5 16/12/5 13/11/5
f 10/18/4 4/51/4 3/19/4
f 9/21/2 1/7/2 2/22/2
f 11/24/2 6/27/2 5/9/2
f 7/1/3 12/72/3 9/25/3
f 11/24/2 22/73/2 27/29/2
f 19/30/4 27/74/4 31/31/4
f 26/33/5 32/43/5 31/34/5
f 6/27/2 19/28/2 20/26/2
f 3/39/6 18/41/6 17/37/6
f 31/34/5 27/75/5 22/42/5
f 22/42/5 21/76/5 25/35/5
f 24/45/5 28/77/5 32/43/5
f 32/43/5 26/33/5 23/44/5
f 17/37/6 25/78/6 21/46/6
f 30/47/2 29/32/2 31/48/2
f 10/18/4 24/79/4 23/50/4
f 20/26/2 28/80/2 24/52/2
f 4/40/6 23/81/6 26/53/6
f 8/54/1 21/82/1 22/55/1
f 30/47/1 32/83/1 28/56/1
f 29/32/5 30/47/5 20/57/5
f 26/53/6 25/78/6 17/37/6
f 34/58/4 36/61/4 35/59/4
f 36/61/6 40/63/6 39/62/6
f 40/63/1 38/65/1 37/64/1
f 38/65/2 34/84/2 33/66/2
f 39/67/3 37/58/3 33/60/3
f 42/58/4 44/61/4 43/59/4
f 44/61/6 48/63/6 47/62/6
f 48/63/1 46/65/1 45/64/1
f 46/65/2 42/84/2 41/66/2
f 47/67/3 45/58/3 41/60/3
f 50/58/4 52/61/4 51/59/4
f 52/61/6 56/63/6 55/62/6
f 56/63/1 54/65/1 53/64/1
f 54/65/2 50/84/2 49/66/2
f 55/67/3 53/58/3 49/60/3
f 58/58/4 60/61/4 59/59/4
f 60/61/6 64/63/6 63/62/6
f 64/63/1 62/65/1 61/64/1
f 62/65/2 58/84/2 57/66/2
f 63/67/3 61/58/3 57/60/3
