# Blender 5.0.1
# www.blender.org
mtllib ShoesCabinetDrawer.mtl
o ShoesCabinetDrawer
v -0.479000 0.051000 0.200000
v 0.479000 0.051000 0.200000
v -0.479000 0.279000 0.200000
v 0.479000 0.279000 0.200000
v 0.479000 0.279000 0.180000
v 0.479000 0.051000 0.180000
v -0.479000 0.051000 0.180000
v -0.479000 0.279000 0.180000
v -0.464000 0.061000 0.181350
v 0.464000 0.061000 0.181350
v -0.464000 0.061000 -0.176350
v 0.464000 0.061000 -0.176350
v -0.464000 0.081000 -0.176350
v -0.464000 0.081000 0.181350
v 0.464000 0.081000 0.181350
v 0.464000 0.081000 -0.176350
v -0.449000 0.061000 0.181350
v 0.449000 0.061000 0.181350
v 0.449000 0.061000 -0.176350
v -0.449000 0.061000 -0.176350
v -0.449000 0.081000 0.181350
v 0.449000 0.081000 0.181350
v 0.449000 0.081000 -0.176350
v -0.449000 0.081000 -0.176350
v -0.464000 0.061000 -0.161350
v 0.464000 0.061000 -0.161350
v -0.464000 0.081000 -0.161350
v 0.464000 0.081000 -0.161350
v -0.449000 0.081000 -0.161350
v 0.449000 0.081000 -0.161350
v -0.449000 0.061000 -0.161350
v 0.449000 0.061000 -0.161350
v -0.464000 0.259000 -0.161350
v -0.464000 0.259000 0.181350
v 0.449000 0.259000 0.181350
v 0.464000 0.259000 0.181350
v 0.464000 0.259000 -0.161350
v 0.464000 0.259000 -0.176350
v -0.449000 0.259000 -0.176350
v -0.464000 0.259000 -0.176350
v -0.449000 0.259000 0.181350
v 0.449000 0.259000 -0.176350
v -0.449000 0.259000 -0.161350
v 0.449000 0.259000 -0.161350
v -0.464772 0.190000 0.180224
v -0.464772 0.210000 0.180224
v -0.464772 0.190000 -0.174519
v -0.464772 0.210000 -0.174519
v 0.465431 0.190000 -0.174519
v 0.465431 0.210000 -0.174519
v 0.465431 0.190000 0.180224
v 0.465431 0.210000 0.180224
v 0.300000 0.234929 0.199046
v 0.300000 0.234929 0.204591
v 0.307071 0.232000 0.199046
v 0.307071 0.232000 0.204591
v 0.310000 0.224929 0.199046
v 0.310000 0.224929 0.204591
v 0.307071 0.217858 0.199046
v 0.307071 0.217858 0.204591
v 0.300000 0.214929 0.199046
v 0.300000 0.214929 0.204591
v 0.292929 0.217858 0.199046
v 0.292929 0.217858 0.204591
v 0.290000 0.224929 0.199046
v 0.290000 0.224929 0.204591
v 0.292929 0.232000 0.199046
v 0.292929 0.232000 0.204591
v 0.310607 0.235536 0.208235
v 0.300000 0.239929 0.208235
v 0.315000 0.224929 0.208235
v 0.310607 0.214323 0.208235
v 0.300000 0.209929 0.208235
v 0.289393 0.214323 0.208235
v 0.285000 0.224929 0.208235
v 0.289393 0.235536 0.208235
v 0.310607 0.235536 0.218149
v 0.300000 0.239929 0.218149
v 0.315000 0.224929 0.218149
v 0.310607 0.214323 0.218149
v 0.300000 0.209929 0.218149
v 0.289393 0.214323 0.218149
v 0.285000 0.224929 0.218149
v 0.289393 0.235536 0.218149
v 0.307425 0.232354 0.220877
v 0.300000 0.235429 0.220877
v 0.310500 0.224929 0.220877
v 0.307425 0.217505 0.220877
v 0.300000 0.214429 0.220877
v 0.292575 0.217505 0.220877
v 0.289500 0.224929 0.220877
v 0.292575 0.232354 0.220877
v -0.300000 0.234929 0.199046
v -0.300000 0.234929 0.204591
v -0.292929 0.232000 0.199046
v -0.292929 0.232000 0.204591
v -0.290000 0.224929 0.199046
v -0.290000 0.224929 0.204591
v -0.292929 0.217858 0.199046
v -0.292929 0.217858 0.204591
v -0.300000 0.214929 0.199046
v -0.300000 0.214929 0.204591
v -0.307071 0.217858 0.199046
v -0.307071 0.217858 0.204591
v -0.310000 0.224929 0.199046
v -0.310000 0.224929 0.204591
v -0.307071 0.232000 0.199046
v -0.307071 0.232000 0.204591
v -0.289393 0.235536 0.208235
v -0.300000 0.239929 0.208235
v -0.285000 0.224929 0.208235
v -0.289393 0.214323 0.208235
v -0.300000 0.209929 0.208235
v -0.310607 0.214323 0.208235
v -0.315000 0.224929 0.208235
v -0.310607 0.235536 0.208235
v -0.289393 0.235536 0.218149
v -0.300000 0.239929 0.218149
v -0.285000 0.224929 0.218149
v -0.289393 0.214323 0.218149
v -0.300000 0.209929 0.218149
v -0.310607 0.214323 0.218149
v -0.315000 0.224929 0.218149
v -0.310607 0.235536 0.218149
v -0.292575 0.232354 0.220877
v -0.300000 0.235429 0.220877
v -0.289500 0.224929 0.220877
v -0.292575 0.217505 0.220877
v -0.300000 0.214429 0.220877
v -0.307425 0.217505 0.220877
v -0.310500 0.224929 0.220877
v -0.307425 0.232354 0.220877
vn -0.0000 -0.0000 1.0000
vn -0.0000 -0.0000 -1.0000
vn -0.0000 1.0000 -0.0000
vn -0.0000 -1.0000 -0.0000
vn -1.0000 -0.0000 -0.0000
vn 1.0000 -0.0000 -0.0000
vn 0.3827 0.9239 -0.0000
vn 0.9239 0.3827 -0.0000
vn 0.9239 -0.3827 -0.0000
vn 0.3827 -0.9239 -0.0000
vn -0.3827 -0.9239 -0.0000
vn -0.9239 -0.3827 -0.0000
vn -0.5722 -0.2370 -0.7851
vn -0.9239 0.3827 -0.0000
vn -0.3827 0.9239 -0.0000
vn 0.2370 -0.5722 -0.7851
vn -0.5722 0.2370 -0.7851
vn 0.5722 0.2370 -0.7851
vn -0.2370 -0.5722 -0.7851
vn -0.2370 0.5722 -0.7851
vn 0.2370 0.5722 -0.7851
vn 0.5722 -0.2370 -0.7851
vn -0.5069 0.2099 0.8361
vn -0.2099 -0.5068 0.8361
vn 0.5068 -0.2099 0.8361
vn 0.2099 0.5068 0.8361
vn -0.2099 0.5069 0.8361
vn -0.5069 -0.2099 0.8361
vn 0.2099 -0.5068 0.8361
vn 0.5069 0.2099 0.8361
vn -0.5068 0.2099 0.8361
vn 0.5069 -0.2099 0.8361
vn -0.2099 0.5068 0.8361
vn 0.2099 -0.5069 0.8361
vn -0.2099 -0.5069 0.8361
vn 0.5068 0.2099 0.8361
vn 0.2099 0.5069 0.8361
vn -0.5068 -0.2099 0.8361
vt 0.500000 0.125000
vt 1.000000 -0.000000
vt 1.000000 0.125000
vt 0.500000 -0.000000
vt 1.000000 0.093750
vt 0.500000 0.093750
vt 0.500000 0.031250
vt 1.000000 0.031250
vt 0.531250 0.125000
vt 0.531250 -0.000000
vt 0.968750 -0.000000
vt 0.968750 0.125000
vt 0.992447 0.125047
vt 1.000019 0.132620
vt 0.992447 0.132620
vt 0.539200 0.135105
vt 0.531628 0.224951
vt 0.531628 0.135105
vt 0.712022 0.125011
vt 0.704450 0.135107
vt 0.704450 0.125011
vt 0.712174 0.125010
vt 0.539084 0.135111
vt 0.539084 0.125010
vt 1.000039 0.125010
vt 0.992467 0.135105
vt 0.992467 0.125010
vt 0.539200 0.125010
vt 0.531628 0.125010
vt 0.712174 0.135111
vt 0.539084 0.225015
vt 1.000000 0.312500
vt 0.625000 0.406250
vt 0.625000 0.312500
vt 0.531550 0.125047
vt 0.539122 0.132620
vt 0.531550 0.132620
vt 0.539122 0.125047
vt 0.992447 0.305620
vt 0.539122 0.305620
vt 0.531550 0.305620
vt 0.625000 0.468750
vt 0.531455 0.224962
vt 0.531455 0.135107
vt 0.531508 0.135111
vt 0.531508 0.125010
vt 0.531455 0.125011
vt 1.000039 0.135105
vt 0.992467 0.224951
vt 1.000019 0.305620
vt 0.999951 0.298042
vt 0.992381 0.305592
vt 0.992381 0.298042
vt 0.539155 0.298042
vt 0.531584 0.305592
vt 0.531584 0.298042
vt 0.539155 0.305592
vt 0.539155 0.125565
vt 0.531584 0.125565
vt 0.999951 0.125565
vt 0.992381 0.125565
vt 0.781250 0.312500
vt 0.539200 0.224951
vt 0.843750 0.406250
vt 0.843750 0.312500
vt 0.712022 0.135107
vt 0.704450 0.224962
vt 0.531508 0.225015
vt 0.031250 0.593750
vt -0.000000 0.750000
vt -0.000000 0.593750
vt 0.903316 0.275973
vt 0.923369 0.291698
vt 0.903316 0.291698
vt 0.821868 0.277524
vt 0.837593 0.257471
vt 0.837593 0.277524
vt 0.821868 0.257471
vt 0.837593 0.237419
vt 0.923369 0.275973
vt 0.883264 0.291698
vt 0.821868 0.237419
vt 0.883264 0.239003
vt 0.860779 0.259055
vt 0.874958 0.259055
vt 0.883264 0.275973
vt 0.903316 0.265639
vt 0.873238 0.237524
vt 0.873238 0.265639
vt 0.923369 0.239003
vt 0.903316 0.216517
vt 0.903316 0.230697
vt 0.883264 0.279108
vt 0.873238 0.289134
vt 0.931675 0.259055
vt 0.933395 0.289134
vt 0.945854 0.259055
vt 0.873238 0.228976
vt 0.903316 0.287414
vt 0.903316 0.301593
vt 0.923369 0.279108
vt 0.933395 0.228976
vt 0.873540 0.259055
vt 0.882262 0.280110
vt 0.811535 0.257471
vt 0.783420 0.227392
vt 0.811535 0.227392
vt 0.933395 0.237524
vt 0.933395 0.265639
vt 0.903316 0.237524
vt 0.783420 0.257471
vt 0.811535 0.287550
vt 0.783420 0.287550
vt 0.903316 0.229279
vt 0.933093 0.259055
vt 0.882262 0.238000
vt 0.924372 0.238000
vt 0.924372 0.280110
vt 0.903316 0.288831
vt 0.903641 0.275973
vt 0.923694 0.291698
vt 0.903641 0.291698
vt 0.923694 0.275973
vt 0.883589 0.291698
vt 0.883589 0.239003
vt 0.861103 0.259055
vt 0.875283 0.259055
vt 0.883589 0.275973
vt 0.903641 0.265639
vt 0.873562 0.237524
vt 0.873562 0.265639
vt 0.903641 0.230697
vt 0.933720 0.228976
vt 0.903641 0.216517
vt 0.873562 0.289134
vt 0.883589 0.279108
vt 0.923694 0.279108
vt 0.946179 0.259055
vt 0.932000 0.259055
vt 0.873562 0.228976
vt 0.903641 0.287414
vt 0.903641 0.301593
vt 0.933720 0.289134
vt 0.923694 0.239003
vt 0.882586 0.280110
vt 0.933720 0.237524
vt 0.933720 0.265639
vt 0.903641 0.237524
vt 0.873865 0.259055
vt 0.903641 0.229279
vt 0.933418 0.259055
vt 0.882586 0.238000
vt 0.924696 0.238000
vt 0.924696 0.280110
vt 0.903641 0.288831
vt 1.000019 0.125047
vt 0.712174 0.225015
vt 1.000000 0.406250
vt 1.000000 0.468750
vt 1.000039 0.224951
vt 0.999951 0.305592
vt 0.781250 0.406250
vt 0.712022 0.224962
vt 0.031250 0.750000
s 0
usemtl ShoesCabinet
f 3/1/1 2/2/1 4/3/1
f 6/4/2 8/3/2 5/1/2
f 4/5/3 8/1/3 3/6/3
f 1/7/4 6/2/4 2/8/4
f 3/9/5 7/4/5 1/10/5
f 2/11/6 5/3/6 4/12/6
f 19/13/4 26/14/4 32/15/4
f 23/16/2 38/17/2 16/18/2
f 12/19/6 28/20/6 26/21/6
f 9/22/5 27/23/5 25/24/5
f 11/25/2 24/26/2 20/27/2
f 19/28/2 16/18/2 12/29/2
f 20/27/2 23/16/2 19/28/2
f 14/30/5 33/31/5 27/23/5
f 30/32/1 43/33/1 29/34/1
f 11/35/4 31/36/4 25/37/4
f 20/38/4 32/15/4 31/36/4
f 31/36/4 18/39/4 17/40/4
f 25/37/4 17/40/4 9/41/4
f 22/32/3 29/42/3 21/34/3
f 28/20/6 36/43/6 15/44/6
f 25/24/5 13/45/5 11/46/5
f 26/21/6 15/44/6 10/47/6
f 13/48/2 39/49/2 24/26/2
f 32/15/4 10/50/4 18/39/4
f 37/51/3 42/52/3 44/53/3
f 43/54/3 40/55/3 33/56/3
f 44/53/3 39/57/3 43/54/3
f 41/58/3 33/56/3 34/59/3
f 36/60/3 44/53/3 35/61/3
f 29/62/6 41/33/6 21/34/6
f 24/26/2 42/63/2 23/16/2
f 22/32/5 44/64/5 30/65/5
f 16/66/6 37/67/6 28/20/6
f 27/23/5 40/68/5 13/45/5
f 46/69/5 47/70/5 45/71/5
f 50/69/6 51/70/6 49/71/6
f 54/72/7 55/73/7 53/74/7
f 56/75/8 57/76/8 55/77/8
f 58/78/9 59/79/9 57/76/9
f 60/80/10 61/74/10 59/73/10
f 62/72/11 63/81/11 61/74/11
f 64/82/12 65/76/12 63/79/12
f 64/83/13 75/84/13 66/85/13
f 66/78/14 67/77/14 65/76/14
f 68/86/15 53/74/15 67/81/15
f 73/87/11 82/88/11 74/89/11
f 60/90/16 73/91/16 62/92/16
f 68/93/17 75/84/17 76/94/17
f 58/95/18 69/96/18 71/97/18
f 62/92/19 74/98/19 64/83/19
f 54/99/20 76/94/20 70/100/20
f 54/99/21 69/96/21 56/101/21
f 60/90/22 71/97/22 72/102/22
f 84/94/23 91/103/23 92/104/23
f 71/105/9 80/106/9 72/107/9
f 70/87/7 77/108/7 69/109/7
f 76/89/15 78/110/15 70/87/15
f 74/107/12 83/111/12 75/105/12
f 72/109/10 81/110/10 73/87/10
f 69/112/8 79/111/8 71/105/8
f 75/105/14 84/113/14 76/112/14
f 91/103/1 89/114/1 87/115/1
f 81/91/24 90/116/24 82/98/24
f 79/97/25 88/117/25 80/102/25
f 78/100/26 85/118/26 77/96/26
f 78/100/27 92/104/27 86/119/27
f 83/84/28 90/116/28 91/103/28
f 81/91/29 88/117/29 89/114/29
f 79/97/30 85/118/30 87/115/30
f 94/120/7 95/121/7 93/122/7
f 96/75/8 97/76/8 95/77/8
f 98/78/9 99/79/9 97/76/9
f 100/123/10 101/122/10 99/121/10
f 102/120/11 103/124/11 101/122/11
f 104/82/12 105/76/12 103/79/12
f 104/125/13 115/126/13 106/127/13
f 106/78/14 107/77/14 105/76/14
f 108/128/15 93/122/15 107/124/15
f 113/129/11 122/130/11 114/131/11
f 102/132/16 112/133/16 113/134/16
f 106/127/17 116/135/17 108/136/17
f 96/137/18 111/138/18 98/139/18
f 104/125/19 113/134/19 114/140/19
f 94/141/20 116/135/20 110/142/20
f 96/137/21 110/142/21 109/143/21
f 100/144/22 111/138/22 112/133/22
f 123/126/31 132/145/31 124/135/31
f 111/105/9 120/106/9 112/107/9
f 110/129/7 117/146/7 109/147/7
f 116/131/15 118/148/15 110/129/15
f 114/107/12 123/111/12 115/105/12
f 112/147/10 121/148/10 113/129/10
f 109/112/8 119/111/8 111/105/8
f 115/105/14 124/113/14 116/112/14
f 131/149/1 129/150/1 127/151/1
f 121/134/24 130/152/24 122/140/24
f 120/133/32 127/151/32 128/153/32
f 118/142/26 125/154/26 117/143/26
f 118/142/33 132/145/33 126/155/33
f 123/126/28 130/152/28 131/149/28
f 121/134/34 128/153/34 129/150/34
f 117/143/30 127/151/30 119/138/30
f 3/1/1 1/4/1 2/2/1
f 6/4/2 7/2/2 8/3/2
f 4/5/3 5/3/3 8/1/3
f 1/7/4 7/4/4 6/2/4
f 3/9/5 8/1/5 7/4/5
f 2/11/6 6/2/6 5/3/6
f 19/13/4 12/156/4 26/14/4
f 23/16/2 42/63/2 38/17/2
f 12/19/6 16/66/6 28/20/6
f 9/22/5 14/30/5 27/23/5
f 11/25/2 13/48/2 24/26/2
f 19/28/2 23/16/2 16/18/2
f 20/27/2 24/26/2 23/16/2
f 14/30/5 34/157/5 33/31/5
f 30/32/1 44/158/1 43/33/1
f 11/35/4 20/38/4 31/36/4
f 20/38/4 19/13/4 32/15/4
f 31/36/4 32/15/4 18/39/4
f 25/37/4 31/36/4 17/40/4
f 22/32/3 30/159/3 29/42/3
f 28/20/6 37/67/6 36/43/6
f 25/24/5 27/23/5 13/45/5
f 26/21/6 28/20/6 15/44/6
f 13/48/2 40/160/2 39/49/2
f 32/15/4 26/14/4 10/50/4
f 37/51/3 38/161/3 42/52/3
f 43/54/3 39/57/3 40/55/3
f 44/53/3 42/52/3 39/57/3
f 41/58/3 43/54/3 33/56/3
f 36/60/3 37/51/3 44/53/3
f 29/62/6 43/162/6 41/33/6
f 24/26/2 39/49/2 42/63/2
f 22/32/5 35/158/5 44/64/5
f 16/66/6 38/163/6 37/67/6
f 27/23/5 33/31/5 40/68/5
f 46/69/5 48/164/5 47/70/5
f 50/69/6 52/164/6 51/70/6
f 54/72/7 56/80/7 55/73/7
f 56/75/8 58/78/8 57/76/8
f 58/78/9 60/82/9 59/79/9
f 60/80/10 62/72/10 61/74/10
f 62/72/11 64/86/11 63/81/11
f 64/82/12 66/78/12 65/76/12
f 64/83/13 74/98/13 75/84/13
f 66/78/14 68/75/14 67/77/14
f 68/86/15 54/72/15 53/74/15
f 73/87/11 81/110/11 82/88/11
f 60/90/16 72/102/16 73/91/16
f 68/93/17 66/85/17 75/84/17
f 58/95/18 56/101/18 69/96/18
f 62/92/19 73/91/19 74/98/19
f 54/99/20 68/93/20 76/94/20
f 54/99/21 70/100/21 69/96/21
f 60/90/22 58/95/22 71/97/22
f 84/94/23 83/84/23 91/103/23
f 71/105/9 79/111/9 80/106/9
f 70/87/7 78/110/7 77/108/7
f 76/89/15 84/88/15 78/110/15
f 74/107/12 82/106/12 83/111/12
f 72/109/10 80/108/10 81/110/10
f 69/112/8 77/113/8 79/111/8
f 75/105/14 83/111/14 84/113/14
f 87/115/1 85/118/1 86/119/1
f 86/119/1 92/104/1 91/103/1
f 91/103/1 90/116/1 89/114/1
f 89/114/1 88/117/1 87/115/1
f 87/115/1 86/119/1 91/103/1
f 81/91/35 89/114/35 90/116/35
f 79/97/32 87/115/32 88/117/32
f 78/100/26 86/119/26 85/118/26
f 78/100/33 84/94/33 92/104/33
f 83/84/28 82/98/28 90/116/28
f 81/91/29 80/102/29 88/117/29
f 79/97/36 77/96/36 85/118/36
f 94/120/7 96/123/7 95/121/7
f 96/75/8 98/78/8 97/76/8
f 98/78/9 100/82/9 99/79/9
f 100/123/10 102/120/10 101/122/10
f 102/120/11 104/128/11 103/124/11
f 104/82/12 106/78/12 105/76/12
f 104/125/13 114/140/13 115/126/13
f 106/78/14 108/75/14 107/77/14
f 108/128/15 94/120/15 93/122/15
f 113/129/11 121/148/11 122/130/11
f 102/132/16 100/144/16 112/133/16
f 106/127/17 115/126/17 116/135/17
f 96/137/18 109/143/18 111/138/18
f 104/125/19 102/132/19 113/134/19
f 94/141/20 108/136/20 116/135/20
f 96/137/21 94/141/21 110/142/21
f 100/144/22 98/139/22 111/138/22
f 123/126/23 131/149/23 132/145/23
f 111/105/9 119/111/9 120/106/9
f 110/129/7 118/148/7 117/146/7
f 116/131/15 124/130/15 118/148/15
f 114/107/12 122/106/12 123/111/12
f 112/147/10 120/146/10 121/148/10
f 109/112/8 117/113/8 119/111/8
f 115/105/14 123/111/14 124/113/14
f 127/151/1 125/154/1 126/155/1
f 126/155/1 132/145/1 131/149/1
f 131/149/1 130/152/1 129/150/1
f 129/150/1 128/153/1 127/151/1
f 127/151/1 126/155/1 131/149/1
f 121/134/24 129/150/24 130/152/24
f 120/133/32 119/138/32 127/151/32
f 118/142/37 126/155/37 125/154/37
f 118/142/33 124/135/33 132/145/33
f 123/126/38 122/140/38 130/152/38
f 121/134/29 120/133/29 128/153/29
f 117/143/30 125/154/30 127/151/30
l 22 15
l 14 21
l 17 21
l 18 22
