# Blender 5.1.1
# www.blender.org
mtllib CookerLid.mtl
o CookerLid
v -0.422564 1.034500 -0.175032
v -0.175032 1.034500 -0.422564
v -0.422564 1.034500 0.175032
v -0.175032 1.034500 0.422564
v 0.175032 1.034500 0.422564
v 0.422564 1.034500 0.175032
v 0.422564 1.034500 -0.175032
v 0.175032 1.034500 -0.422564
v -0.371856 1.034500 -0.154028
v -0.154028 1.034500 -0.371856
v -0.371856 1.034500 0.154028
v -0.154028 1.034500 0.371856
v 0.154028 1.034500 0.371856
v 0.371856 1.034500 0.154028
v 0.371856 1.034500 -0.154028
v 0.154028 1.034500 -0.371856
v -0.371856 1.073000 -0.154028
v -0.154028 1.073000 -0.371856
v -0.371856 1.073000 0.154028
v -0.154028 1.073000 0.371856
v 0.154028 1.073000 0.371856
v 0.371856 1.073000 0.154028
v 0.371856 1.073000 -0.154028
v 0.154028 1.073000 -0.371856
v -0.297485 1.111500 -0.123222
v -0.123222 1.111500 -0.297485
v -0.297485 1.111500 0.123222
v -0.123222 1.111500 0.297485
v 0.123222 1.111500 0.297485
v 0.297485 1.111500 0.123222
v 0.297485 1.111500 -0.123222
v 0.123222 1.111500 -0.297485
v -0.178491 1.150000 -0.073933
v -0.073933 1.150000 -0.178491
v -0.178491 1.150000 0.073933
v -0.073933 1.150000 0.178491
v 0.073933 1.150000 0.178491
v 0.178491 1.150000 0.073933
v 0.178491 1.150000 -0.073933
v 0.073933 1.150000 -0.178491
v -0.414948 0.996000 -0.171877
v -0.422564 1.003616 -0.175032
v -0.175032 1.003616 -0.422564
v -0.171877 0.996000 -0.414948
v -0.414948 0.996000 0.171877
v -0.422564 1.003616 0.175032
v -0.171877 0.996000 0.414948
v -0.175032 1.003616 0.422564
v 0.171877 0.996000 0.414948
v 0.175032 1.003616 0.422564
v 0.414948 0.996000 0.171877
v 0.422564 1.003616 0.175032
v 0.414948 0.996000 -0.171877
v 0.422564 1.003616 -0.175032
v 0.171877 0.996000 -0.414948
v 0.175032 1.003616 -0.422564
v 0.000000 1.159677 0.104557
v 0.104558 1.159677 -0.000000
v 0.000002 1.159677 -0.104556
v -0.104557 1.159677 -0.000000
vn -1.0000 -0.0000 -0.0000
vn -0.0000 1.0000 -0.0000
vn -0.7071 -0.0000 0.7071
vn 0.7071 -0.0000 -0.7071
vn 0.7071 -0.0000 0.7071
vn -0.0000 -0.0000 -1.0000
vn 1.0000 -0.0000 -0.0000
vn -0.0000 -0.0000 1.0000
vn -0.0000 -1.0000 -0.0000
vn -0.3251 0.8881 0.3251
vn -0.7071 -0.0000 -0.7071
vn 0.2177 0.9514 -0.2177
vn -0.3251 0.8881 -0.3251
vn -0.0000 0.8881 -0.4597
vn 0.4597 0.8881 -0.0000
vn -0.0000 0.8881 0.4597
vn -0.4597 0.8881 -0.0000
vn 0.3251 0.8881 -0.3251
vn 0.3251 0.8881 0.3251
vn -0.1298 0.9915 -0.0000
vn 0.2177 0.9514 0.2177
vn -0.2177 0.9514 0.2177
vn -0.2177 0.9514 -0.2177
vn -0.0000 0.9514 -0.3078
vn 0.3078 0.9514 -0.0000
vn -0.0000 0.9514 0.3078
vn -0.3078 0.9514 -0.0000
vn -0.5000 -0.7071 -0.5000
vn -0.7071 -0.7071 -0.0000
vn -0.5000 -0.7071 0.5000
vn -0.0000 -0.7071 0.7071
vn 0.5000 -0.7071 0.5000
vn 0.7071 -0.7071 -0.0000
vn 0.5000 -0.7071 -0.5000
vn -0.0000 -0.7071 -0.7071
vn 0.0652 0.9957 0.0652
vn -0.0000 0.9915 -0.1298
vn -0.0000 0.9915 0.1298
vn 0.1298 0.9915 -0.0000
vn -0.0652 0.9957 -0.0652
vn -0.0652 0.9957 0.0652
vn 0.0652 0.9957 -0.0652
vt 0.187500 0.218750
vt 0.093750 0.250000
vt 0.093750 0.218750
vt 0.093750 0.281250
vt 0.187500 0.312500
vt 0.093750 0.312500
vt 0.281250 0.218750
vt 0.187500 0.250000
vt 0.656250 0.218750
vt 0.562500 0.250000
vt 0.562500 0.218750
vt 0.468750 0.218750
vt 0.375000 0.250000
vt 0.375000 0.218750
vt 0.750000 0.218750
vt 0.656250 0.250000
vt 0.468750 0.250000
vt 0.281250 0.250000
vt 0.781250 0.593750
vt 0.937500 0.531250
vt 1.000000 0.687500
vt 0.750000 0.312500
vt 0.656250 0.343750
vt 0.656250 0.312500
vt 0.656250 0.281250
vt 0.562500 0.312500
vt 0.562500 0.281250
vt 0.375000 0.281250
vt 0.468750 0.312500
vt 0.375000 0.312500
vt 0.281250 0.281250
vt 0.187500 0.281250
vt 0.000000 0.281250
vt 0.000000 0.312500
vt 0.468750 0.281250
vt 0.281250 0.312500
vt 0.281250 0.375000
vt 0.197110 0.406250
vt 0.187500 0.375000
vt 0.468750 0.343750
vt 0.281250 0.343750
vt 0.093750 0.343750
vt 0.562500 0.343750
vt 0.375000 0.343750
vt 0.187500 0.343750
vt 0.000000 0.343750
vt 0.646640 0.406250
vt 0.586765 0.468750
vt 0.572110 0.406250
vt 0.093750 0.375000
vt 0.009610 0.406250
vt 0.000000 0.375000
vt 0.750000 0.375000
vt 0.665860 0.406250
vt 0.656250 0.375000
vt 0.468750 0.375000
vt 0.552890 0.406250
vt 0.478360 0.406250
vt 0.365390 0.406250
vt 0.290860 0.406250
vt 0.103360 0.406250
vt 0.562500 0.375000
vt 0.384610 0.406250
vt 0.375000 0.375000
vt 0.937500 0.875000
vt 0.906250 0.843750
vt 0.937500 0.843750
vt 0.459140 0.406250
vt 0.399265 0.468750
vt 0.271640 0.406250
vt 0.211765 0.468750
vt 0.084140 0.406250
vt 0.024265 0.468750
vt 0.725735 0.468750
vt 0.680515 0.468750
vt 0.538235 0.468750
vt 0.493015 0.468750
vt 0.305515 0.468750
vt 0.163235 0.468750
vt 0.118015 0.468750
vt 0.750000 0.343750
vt 0.000000 0.250000
vt 0.000000 0.218750
vt 0.937500 0.781250
vt 0.968750 0.812500
vt 0.937500 0.812500
vt 0.968750 0.875000
vt 0.968750 0.843750
vt 1.000000 0.843750
vt 0.906250 0.812500
vt 1.000000 0.812500
vt 0.968750 0.781250
vt 0.750000 0.250000
vt 0.937500 0.750000
vt 0.843750 0.750000
vt 0.781250 0.687500
vt 0.843750 0.531250
vt 1.000000 0.593750
vt 0.750000 0.281250
vt 0.631985 0.468750
vt 0.740390 0.406250
vt 0.177890 0.406250
vt 0.444485 0.468750
vt 0.256985 0.468750
vt 0.069485 0.468750
vt 0.350735 0.468750
s 1
usemtl Cooker
f 46/1/1 1/2/1 42/3/1
f 1/4/2 11/5/2 9/6/2
f 48/7/3 3/8/3 46/1/3
f 56/9/4 7/10/4 54/11/4
f 52/12/5 5/13/5 50/14/5
f 43/15/6 8/16/6 56/9/6
f 54/11/7 6/17/7 52/12/7
f 50/14/8 4/18/8 48/7/8
f 53/19/9 49/20/9 45/21/9
f 10/22/6 24/23/6 16/24/6
f 8/25/2 15/26/2 7/27/2
f 5/28/2 14/29/2 13/30/2
f 4/31/2 11/5/2 3/32/2
f 2/33/2 9/6/2 10/34/2
f 8/25/2 10/22/2 16/24/2
f 7/27/2 14/29/2 6/35/2
f 4/31/2 13/30/2 12/36/2
f 20/37/10 27/38/10 19/39/10
f 15/26/7 22/40/7 14/29/7
f 13/30/8 20/41/8 12/36/8
f 11/5/1 17/42/1 9/6/1
f 16/24/4 23/43/4 15/26/4
f 14/29/5 21/44/5 13/30/5
f 12/36/3 19/45/3 11/5/3
f 9/6/11 18/46/11 10/34/11
f 32/47/12 39/48/12 31/49/12
f 17/50/13 26/51/13 18/52/13
f 18/53/14 32/54/14 24/55/14
f 22/56/15 31/57/15 30/58/15
f 20/37/16 29/59/16 28/60/16
f 19/39/17 25/61/17 17/50/17
f 24/55/18 31/49/18 23/62/18
f 22/56/19 29/63/19 21/64/19
f 33/65/20 35/66/20 60/67/20
f 30/68/21 37/69/21 29/63/21
f 28/70/22 35/71/22 27/38/22
f 25/72/23 34/73/23 26/51/23
f 32/54/24 34/74/24 40/75/24
f 30/58/25 39/76/25 38/77/25
f 29/59/26 36/78/26 28/60/26
f 25/61/27 35/79/27 33/80/27
f 43/52/28 41/42/28 42/50/28
f 42/50/29 45/45/29 46/39/29
f 46/39/30 47/41/30 48/37/30
f 48/37/31 49/44/31 50/64/31
f 50/64/32 51/40/32 52/56/32
f 52/56/33 53/43/33 54/62/33
f 54/62/34 55/23/34 56/55/34
f 56/55/35 44/81/35 43/53/35
f 42/3/11 2/82/11 43/83/11
f 37/84/36 58/85/36 57/86/36
f 34/87/37 59/88/37 40/89/37
f 57/86/2 59/88/2 60/67/2
f 57/86/38 36/90/38 37/84/38
f 39/91/39 58/85/39 38/92/39
f 60/67/40 34/87/40 33/65/40
f 60/67/41 36/90/41 57/86/41
f 59/88/42 39/91/42 40/89/42
f 46/1/1 3/8/1 1/2/1
f 1/4/2 3/32/2 11/5/2
f 48/7/3 4/18/3 3/8/3
f 56/9/4 8/16/4 7/10/4
f 52/12/5 6/17/5 5/13/5
f 43/15/6 2/93/6 8/16/6
f 54/11/7 7/10/7 6/17/7
f 50/14/8 5/13/8 4/18/8
f 45/21/9 41/94/9 44/95/9
f 44/95/9 55/96/9 53/19/9
f 53/19/9 51/97/9 49/20/9
f 49/20/9 47/98/9 45/21/9
f 45/21/9 44/95/9 53/19/9
f 10/22/6 18/81/6 24/23/6
f 8/25/2 16/24/2 15/26/2
f 5/28/2 6/35/2 14/29/2
f 4/31/2 12/36/2 11/5/2
f 2/33/2 1/4/2 9/6/2
f 8/25/2 2/99/2 10/22/2
f 7/27/2 15/26/2 14/29/2
f 4/31/2 5/28/2 13/30/2
f 20/37/10 28/70/10 27/38/10
f 15/26/7 23/43/7 22/40/7
f 13/30/8 21/44/8 20/41/8
f 11/5/1 19/45/1 17/42/1
f 16/24/4 24/23/4 23/43/4
f 14/29/5 22/40/5 21/44/5
f 12/36/3 20/41/3 19/45/3
f 9/6/11 17/42/11 18/46/11
f 32/47/12 40/100/12 39/48/12
f 17/50/13 25/72/13 26/51/13
f 18/53/14 26/101/14 32/54/14
f 22/56/15 23/62/15 31/57/15
f 20/37/16 21/64/16 29/59/16
f 19/39/17 27/102/17 25/61/17
f 24/55/18 32/47/18 31/49/18
f 22/56/19 30/68/19 29/63/19
f 30/68/21 38/103/21 37/69/21
f 28/70/22 36/104/22 35/71/22
f 25/72/23 33/105/23 34/73/23
f 32/54/24 26/101/24 34/74/24
f 30/58/25 31/57/25 39/76/25
f 29/59/26 37/106/26 36/78/26
f 25/61/27 27/102/27 35/79/27
f 43/52/28 44/46/28 41/42/28
f 42/50/29 41/42/29 45/45/29
f 46/39/30 45/45/30 47/41/30
f 48/37/31 47/41/31 49/44/31
f 50/64/32 49/44/32 51/40/32
f 52/56/33 51/40/33 53/43/33
f 54/62/34 53/43/34 55/23/34
f 56/55/35 55/23/35 44/81/35
f 42/3/11 1/2/11 2/82/11
f 37/84/36 38/92/36 58/85/36
f 57/86/2 58/85/2 59/88/2
f 60/67/40 59/88/40 34/87/40
f 60/67/41 35/66/41 36/90/41
f 59/88/42 58/85/42 39/91/42
