# Blender 5.1.1
# www.blender.org
mtllib CookerPot.mtl
o CookerPot
v -0.175032 0.880500 -0.422564
v -0.422564 0.880500 -0.175032
v -0.422564 0.880500 0.175032
v -0.175032 0.880500 0.422564
v 0.175032 0.880500 0.422564
v 0.422564 0.880500 0.175032
v 0.422564 0.880500 -0.175032
v 0.175032 0.880500 -0.422564
v -0.175032 0.214500 -0.422564
v -0.422564 0.214500 -0.175032
v -0.422564 0.214500 0.175032
v -0.175032 0.214500 0.422564
v 0.175032 0.214500 0.422564
v 0.422564 0.214500 0.175032
v 0.422564 0.214500 -0.175032
v 0.175032 0.214500 -0.422564
v -0.371856 0.880500 -0.154028
v -0.154028 0.880500 -0.371856
v -0.371856 0.880500 0.154028
v -0.154028 0.880500 0.371856
v 0.154028 0.880500 0.371856
v 0.371856 0.880500 0.154028
v 0.371856 0.880500 -0.154028
v 0.154028 0.880500 -0.371856
v -0.371856 0.957500 -0.154028
v -0.154028 0.957500 -0.371856
v -0.371856 0.957500 0.154028
v -0.154028 0.957500 0.371856
v 0.154028 0.957500 0.371856
v 0.371856 0.957500 0.154028
v 0.371856 0.957500 -0.154028
v 0.154028 0.957500 -0.371856
v -0.422564 0.957500 -0.175032
v -0.175032 0.957500 -0.422564
v -0.422564 0.957500 0.175032
v -0.175032 0.957500 0.422564
v 0.175032 0.957500 0.422564
v 0.422564 0.957500 0.175032
v 0.422564 0.957500 -0.175032
v 0.175032 0.957500 -0.422564
v -0.422564 0.988276 -0.175032
v -0.338553 0.996000 -0.140233
v -0.140233 0.996000 -0.338553
v -0.175032 0.988276 -0.422564
v -0.422564 0.988276 0.175032
v -0.338553 0.996000 0.140233
v -0.175032 0.988276 0.422564
v -0.140233 0.996000 0.338553
v 0.175032 0.988276 0.422564
v 0.140233 0.996000 0.338553
v 0.422564 0.988276 0.175032
v 0.338553 0.996000 0.140233
v 0.422564 0.988276 -0.175032
v 0.338553 0.996000 -0.140233
v 0.175032 0.988276 -0.422564
v 0.140233 0.996000 -0.338553
v -0.414840 0.996000 -0.171832
v -0.171833 0.996000 -0.414840
v -0.414840 0.996000 0.171833
v -0.171832 0.996000 0.414840
v 0.171833 0.996000 0.414840
v 0.414840 0.996000 0.171832
v 0.414840 0.996000 -0.171833
v 0.171832 0.996000 -0.414840
v -0.338553 0.280156 -0.140233
v -0.140233 0.280156 -0.338553
v -0.338553 0.280156 0.140233
v -0.140233 0.280156 0.338553
v 0.140233 0.280156 0.338553
v 0.338553 0.280156 0.140233
v 0.338553 0.280156 -0.140233
v 0.140233 0.280156 -0.338553
v -0.100000 0.995945 -0.448821
v 0.100000 0.995945 -0.448821
v -0.100000 0.981096 -0.442671
v 0.100000 0.981096 -0.442671
v -0.100000 0.974945 -0.427821
v 0.100000 0.974945 -0.427821
v -0.100000 0.981096 -0.412972
v 0.100000 0.981096 -0.412972
v -0.100000 0.995945 -0.406821
v 0.100000 0.995945 -0.406821
v -0.100000 1.010794 -0.412972
v 0.100000 1.010794 -0.412972
v -0.100000 1.016945 -0.427821
v 0.100000 1.016945 -0.427821
v -0.100000 1.010794 -0.442671
v 0.100000 1.010794 -0.442671
vn -0.7071 -0.0000 0.7071
vn -0.7071 -0.0000 -0.7071
vn -0.0000 -0.0000 -1.0000
vn 1.0000 -0.0000 -0.0000
vn -0.0000 -0.0000 1.0000
vn -1.0000 -0.0000 -0.0000
vn 0.7071 -0.0000 -0.7071
vn 0.7071 -0.0000 0.7071
vn -0.0000 -1.0000 -0.0000
vn -0.0000 1.0000 -0.0000
vn -0.5000 0.7071 -0.5000
vn -0.7071 0.7071 -0.0000
vn -0.5000 0.7071 0.5000
vn -0.0000 0.7071 0.7071
vn 0.5000 0.7071 0.5000
vn 0.7071 0.7071 -0.0000
vn 0.5000 0.7071 -0.5000
vn -0.0000 0.7071 -0.7071
vn -0.0000 -0.3826 -0.9239
vn -0.0000 -0.3827 -0.9239
vn -0.0000 -0.9239 -0.3827
vn -0.0000 -0.9239 0.3827
vn -0.0000 -0.3827 0.9239
vn -0.0000 0.3827 0.9239
vn -0.0000 0.9239 0.3827
vn -0.0000 0.9239 -0.3827
vn -0.0000 0.3826 -0.9239
vn -0.0000 0.3827 -0.9239
vt 0.187500 0.187500
vt 0.281250 0.000000
vt 0.281250 0.187500
vt 0.000000 0.187500
vt 0.093750 0.000000
vt 0.093750 0.187500
vt 0.656250 0.187500
vt 0.750000 0.000000
vt 0.750000 0.187500
vt 0.468750 0.187500
vt 0.562500 0.000000
vt 0.562500 0.187500
vt 0.375000 0.000000
vt 0.375000 0.187500
vt 0.187500 0.000000
vt 0.656250 0.000000
vt 0.468750 0.000000
vt 0.781250 0.343750
vt 0.937500 0.281250
vt 1.000000 0.437500
vt 0.656250 0.281250
vt 0.750000 0.312500
vt 0.656250 0.312500
vt 0.750000 0.250000
vt 0.656250 0.250000
vt 0.468750 0.281250
vt 0.562500 0.312500
vt 0.468750 0.312500
vt 0.281250 0.281250
vt 0.375000 0.312500
vt 0.281250 0.312500
vt 0.093750 0.281250
vt 0.187500 0.312500
vt 0.093750 0.312500
vt 0.562500 0.281250
vt 0.375000 0.281250
vt 0.187500 0.281250
vt 0.000000 0.312500
vt 0.000000 0.281250
vt 0.562500 0.250000
vt 0.468750 0.250000
vt 0.375000 0.250000
vt 0.281250 0.250000
vt 0.187500 0.250000
vt 0.093750 0.250000
vt -0.000000 0.250000
vt 0.750000 0.281250
vt 0.093750 0.218750
vt 0.468750 0.218750
vt 0.281250 0.218750
vt 0.062500 1.000000
vt -0.000000 0.843750
vt -0.000000 1.000000
vt 0.187500 0.218750
vt 0.562500 0.218750
vt 0.375000 0.218750
vt 0.656250 0.218750
vt 0.000000 0.375000
vt 0.093750 0.343750
vt 0.093750 0.375000
vt 0.187500 0.375000
vt 0.187500 0.343750
vt 0.281250 0.343750
vt 0.281250 0.375000
vt 0.375000 0.343750
vt 0.375000 0.375000
vt 0.468750 0.343750
vt 0.468750 0.375000
vt 0.562500 0.375000
vt 0.562500 0.343750
vt 0.656250 0.343750
vt 0.656250 0.375000
vt 0.750000 0.343750
vt 0.750000 0.375000
vt 0.000000 0.218750
vt 1.000000 0.968750
vt 0.937500 1.000000
vt 0.906250 0.937500
vt 0.500000 1.000000
vt 0.437500 0.843750
vt 0.437500 1.000000
vt 0.375000 1.000000
vt 0.312500 0.843750
vt 0.312500 1.000000
vt 0.250000 1.000000
vt 0.187500 0.843750
vt 0.187500 1.000000
vt 0.125000 1.000000
vt 0.062500 0.843750
vt 0.375000 0.843750
vt 0.250000 0.843750
vt 0.125000 0.843750
vt 0.875000 0.968750
vt 0.812500 0.937500
vt 0.812500 0.968750
vt 0.875000 1.000000
vt 0.812500 1.000000
vt 0.875000 0.937500
vt 0.703370 0.623679
vt 0.689129 0.609437
vt 0.703370 0.595196
vt 0.693300 0.599367
vt 0.693300 0.619508
vt 0.713440 0.619508
vt 0.000000 0.000000
vt 0.937500 0.500000
vt 0.843750 0.500000
vt 0.781250 0.437500
vt 0.843750 0.281250
vt 1.000000 0.343750
vt 0.750000 0.218750
vt 0.000000 0.343750
vt 0.937500 0.906250
vt 0.968750 0.906250
vt 1.000000 0.937500
vt 0.968750 1.000000
vt 0.906250 0.968750
vt 0.500000 0.843750
vt 0.713440 0.599367
vt 0.717611 0.609437
s 1
usemtl Cooker.001
f 3/1/1 12/2/1 4/3/1
f 1/4/2 10/5/2 2/6/2
f 8/7/3 9/8/3 1/9/3
f 6/10/4 15/11/4 7/12/4
f 4/3/5 13/13/5 5/14/5
f 2/6/6 11/15/6 3/1/6
f 7/12/7 16/16/7 8/7/7
f 5/14/8 14/17/8 6/10/8
f 15/18/9 13/19/9 11/20/9
f 8/21/10 18/22/10 24/23/10
f 18/24/3 32/21/3 24/25/3
f 6/26/10 23/27/10 22/28/10
f 4/29/10 21/30/10 20/31/10
f 2/32/10 19/33/10 17/34/10
f 8/21/10 23/27/10 7/35/10
f 6/26/10 21/30/10 5/36/10
f 4/29/10 19/33/10 3/37/10
f 2/32/10 18/38/10 1/39/10
f 27/37/9 36/31/9 35/33/9
f 23/40/4 30/26/4 22/41/4
f 21/42/5 28/29/5 20/43/5
f 19/44/6 25/32/6 17/45/6
f 24/25/7 31/35/7 23/40/7
f 22/41/8 29/36/8 21/42/8
f 20/43/1 27/37/1 19/44/1
f 17/45/2 26/39/2 18/46/2
f 26/39/9 33/34/9 34/38/9
f 26/47/9 40/23/9 32/21/9
f 31/35/9 38/28/9 30/26/9
f 29/36/9 36/31/9 28/29/9
f 27/37/9 33/34/9 25/32/9
f 31/35/9 40/23/9 39/27/9
f 29/36/9 38/28/9 37/30/9
f 35/1/6 41/48/6 33/6/6
f 39/12/4 51/49/4 38/10/4
f 37/14/5 47/50/5 36/3/5
f 42/51/8 66/52/8 43/53/8
f 36/3/1 45/54/1 35/1/1
f 40/7/7 53/55/7 39/12/7
f 38/10/8 49/56/8 37/14/8
f 34/9/3 55/57/3 40/7/3
f 58/58/11 41/59/11 57/60/11
f 59/61/12 41/59/12 45/62/12
f 59/61/13 47/63/13 60/64/13
f 60/64/14 49/65/14 61/66/14
f 61/66/15 51/67/15 62/68/15
f 63/69/16 51/67/16 53/70/16
f 63/69/17 55/71/17 64/72/17
f 64/72/18 44/73/18 58/74/18
f 33/6/2 44/75/2 34/4/2
f 42/59/10 58/38/10 57/34/10
f 46/62/10 57/34/10 59/33/10
f 48/63/10 59/33/10 60/31/10
f 50/65/10 60/31/10 61/30/10
f 52/67/10 61/30/10 62/28/10
f 54/70/10 62/28/10 63/27/10
f 56/71/10 63/27/10 64/23/10
f 43/73/10 64/23/10 58/22/10
f 69/76/10 71/77/10 66/78/10
f 43/79/5 72/80/5 56/81/5
f 54/82/6 70/83/6 52/84/6
f 50/85/3 68/86/3 48/87/3
f 46/88/4 65/89/4 42/51/4
f 56/81/1 71/90/1 54/82/1
f 52/84/2 69/91/2 50/85/2
f 48/87/7 67/92/7 46/88/7
f 74/93/19 75/94/20 73/95/20
f 76/96/21 77/95/21 75/97/21
f 77/95/22 80/98/22 79/94/22
f 80/98/23 81/95/23 79/94/23
f 81/95/24 84/96/24 83/97/24
f 84/98/25 85/95/25 83/94/25
f 86/99/4 82/100/4 78/101/4
f 86/93/26 87/97/26 85/95/26
f 87/97/27 74/93/28 73/95/27
f 79/102/6 83/103/6 87/104/6
f 3/1/1 11/15/1 12/2/1
f 1/4/2 9/105/2 10/5/2
f 8/7/3 16/16/3 9/8/3
f 6/10/4 14/17/4 15/11/4
f 4/3/5 12/2/5 13/13/5
f 2/6/6 10/5/6 11/15/6
f 7/12/7 15/11/7 16/16/7
f 5/14/8 13/13/8 14/17/8
f 11/20/9 10/106/9 9/107/9
f 9/107/9 16/108/9 15/18/9
f 15/18/9 14/109/9 13/19/9
f 13/19/9 12/110/9 11/20/9
f 11/20/9 9/107/9 15/18/9
f 8/21/10 1/47/10 18/22/10
f 18/24/3 26/47/3 32/21/3
f 6/26/10 7/35/10 23/27/10
f 4/29/10 5/36/10 21/30/10
f 2/32/10 3/37/10 19/33/10
f 8/21/10 24/23/10 23/27/10
f 6/26/10 22/28/10 21/30/10
f 4/29/10 20/31/10 19/33/10
f 2/32/10 17/34/10 18/38/10
f 27/37/9 28/29/9 36/31/9
f 23/40/4 31/35/4 30/26/4
f 21/42/5 29/36/5 28/29/5
f 19/44/6 27/37/6 25/32/6
f 24/25/7 32/21/7 31/35/7
f 22/41/8 30/26/8 29/36/8
f 20/43/1 28/29/1 27/37/1
f 17/45/2 25/32/2 26/39/2
f 26/39/9 25/32/9 33/34/9
f 26/47/9 34/22/9 40/23/9
f 31/35/9 39/27/9 38/28/9
f 29/36/9 37/30/9 36/31/9
f 27/37/9 35/33/9 33/34/9
f 31/35/9 32/21/9 40/23/9
f 29/36/9 30/26/9 38/28/9
f 35/1/6 45/54/6 41/48/6
f 39/12/4 53/55/4 51/49/4
f 37/14/5 49/56/5 47/50/5
f 42/51/8 65/89/8 66/52/8
f 36/3/1 47/50/1 45/54/1
f 40/7/7 55/57/7 53/55/7
f 38/10/8 51/49/8 49/56/8
f 34/9/3 44/111/3 55/57/3
f 58/58/11 44/112/11 41/59/11
f 59/61/12 57/60/12 41/59/12
f 59/61/13 45/62/13 47/63/13
f 60/64/14 47/63/14 49/65/14
f 61/66/15 49/65/15 51/67/15
f 63/69/16 62/68/16 51/67/16
f 63/69/17 53/70/17 55/71/17
f 64/72/18 55/71/18 44/73/18
f 33/6/2 41/48/2 44/75/2
f 42/59/10 43/112/10 58/38/10
f 46/62/10 42/59/10 57/34/10
f 48/63/10 46/62/10 59/33/10
f 50/65/10 48/63/10 60/31/10
f 52/67/10 50/65/10 61/30/10
f 54/70/10 52/67/10 62/28/10
f 56/71/10 54/70/10 63/27/10
f 43/73/10 56/71/10 64/23/10
f 66/78/10 65/113/10 67/114/10
f 67/114/10 68/115/10 69/76/10
f 69/76/10 70/116/10 71/77/10
f 71/77/10 72/117/10 66/78/10
f 66/78/10 67/114/10 69/76/10
f 43/79/5 66/118/5 72/80/5
f 54/82/6 71/90/6 70/83/6
f 50/85/3 69/91/3 68/86/3
f 46/88/4 67/92/4 65/89/4
f 56/81/1 72/80/1 71/90/1
f 52/84/2 70/83/2 69/91/2
f 48/87/7 68/86/7 67/92/7
f 74/93/19 76/98/19 75/94/20
f 76/96/21 78/93/21 77/95/21
f 77/95/22 78/93/22 80/98/22
f 80/98/23 82/93/23 81/95/23
f 81/95/24 82/93/24 84/96/24
f 84/98/25 86/93/25 85/95/25
f 78/101/4 76/119/4 74/120/4
f 74/120/4 88/104/4 86/99/4
f 86/99/4 84/103/4 82/100/4
f 82/100/4 80/102/4 78/101/4
f 78/101/4 74/120/4 86/99/4
f 86/93/26 88/96/26 87/97/26
f 87/97/27 88/96/28 74/93/28
f 87/104/6 73/120/6 75/119/6
f 75/119/6 77/101/6 79/102/6
f 79/102/6 81/100/6 83/103/6
f 83/103/6 85/99/6 87/104/6
f 87/104/6 75/119/6 79/102/6
