# Blender 5.1.1
# www.blender.org
mtllib CookerStand.mtl
o CookerStand
v -0.487500 0.037500 0.450000
v -0.487500 0.150000 0.450000
v -0.487500 0.037500 0.337500
v -0.487500 0.150000 0.337500
v 0.487500 0.037500 0.450000
v 0.487500 0.150000 0.450000
v 0.487500 0.037500 0.337500
v 0.487500 0.150000 0.337500
v -0.600000 0.037500 0.337500
v -0.600000 0.037500 0.450000
v -0.600000 0.150000 0.450000
v -0.600000 0.150000 0.337500
v 0.600000 0.150000 0.337500
v 0.600000 0.037500 0.337500
v 0.600000 0.037500 0.450000
v 0.600000 0.150000 0.450000
v -0.487500 0.000000 0.337500
v -0.487500 0.000000 0.450000
v 0.487500 0.000000 0.450000
v 0.487500 0.000000 0.337500
v -0.600000 0.000000 0.337500
v -0.600000 0.000000 0.450000
v 0.600000 0.000000 0.450000
v 0.600000 0.000000 0.337500
v -0.487500 0.037500 -0.337500
v -0.487500 0.150000 -0.337500
v -0.487500 0.037500 -0.450000
v -0.487500 0.150000 -0.450000
v 0.487500 0.037500 -0.337500
v 0.487500 0.150000 -0.337500
v 0.487500 0.037500 -0.450000
v 0.487500 0.150000 -0.450000
v -0.600000 0.037500 -0.450000
v -0.600000 0.037500 -0.337500
v -0.600000 0.150000 -0.337500
v -0.600000 0.150000 -0.450000
v 0.600000 0.150000 -0.450000
v 0.600000 0.037500 -0.450000
v 0.600000 0.037500 -0.337500
v 0.600000 0.150000 -0.337500
v -0.487500 -0.000000 -0.450000
v -0.487500 -0.000000 -0.337500
v 0.487500 -0.000000 -0.337500
v 0.487500 -0.000000 -0.450000
v -0.600000 -0.000000 -0.450000
v -0.600000 -0.000000 -0.337500
v 0.600000 -0.000000 -0.337500
v 0.600000 -0.000000 -0.450000
v -0.487500 0.748740 -0.090756
v -0.487500 0.748740 0.090756
v -0.487500 0.804105 -0.033219
v -0.487500 0.804105 0.033219
v 0.487500 0.748740 0.090756
v 0.487500 0.748740 -0.090756
v 0.487500 0.804105 0.033219
v 0.487500 0.804105 -0.033219
v -0.600000 0.748740 0.090756
v -0.600000 0.748740 -0.090756
v -0.600000 0.804105 0.033219
v -0.600000 0.804105 -0.033219
v 0.600000 0.748740 -0.090756
v 0.600000 0.748740 0.090756
v 0.600000 0.804105 -0.033219
v 0.600000 0.804105 0.033219
v -0.600000 0.624089 -0.070825
v -0.600000 0.624089 0.070825
v -0.600000 0.670176 -0.025924
v -0.600000 0.670176 0.025924
v 0.487500 0.624089 -0.070825
v 0.487500 0.624089 0.070825
v 0.487500 0.670176 -0.025924
v 0.487500 0.670176 0.025924
v 0.600000 0.624089 0.070825
v 0.600000 0.624089 -0.070825
v 0.600000 0.670176 0.025924
v 0.600000 0.670176 -0.025924
v -0.487500 0.624089 0.070825
v -0.487500 0.624089 -0.070825
v -0.487500 0.670176 0.025924
v -0.487500 0.670176 -0.025924
v 0.408750 0.734736 -0.050000
v 0.498750 0.734736 -0.050000
v 0.408750 0.699381 -0.035355
v 0.498750 0.699381 -0.035355
v 0.408750 0.684736 -0.000000
v 0.498750 0.684736 -0.000000
v 0.408750 0.699381 0.035355
v 0.498750 0.699381 0.035355
v 0.408750 0.734736 0.050000
v 0.498750 0.734736 0.050000
v 0.408750 0.770092 0.035355
v 0.498750 0.770092 0.035355
v 0.408750 0.784736 -0.000000
v 0.498750 0.784736 -0.000000
v 0.408750 0.770092 -0.035355
v 0.498750 0.770092 -0.035355
v -0.408750 0.734736 -0.050000
v -0.498750 0.734736 -0.050000
v -0.408750 0.699381 -0.035355
v -0.498750 0.699381 -0.035355
v -0.408750 0.684736 -0.000000
v -0.498750 0.684736 -0.000000
v -0.408750 0.699381 0.035355
v -0.498750 0.699381 0.035355
v -0.408750 0.734736 0.050000
v -0.498750 0.734736 0.050000
v -0.408750 0.770092 0.035355
v -0.498750 0.770092 0.035355
v -0.408750 0.784736 -0.000000
v -0.498750 0.784736 -0.000000
v -0.408750 0.770092 -0.035355
v -0.498750 0.770092 -0.035355
v 0.487500 0.665879 -0.140473
v -0.600000 0.665879 -0.140473
v 0.600000 0.665879 -0.140473
v -0.487500 0.665879 -0.140473
v 0.600000 0.665880 0.140472
v -0.487500 0.665880 0.140472
v 0.487500 0.665880 0.140472
v -0.600000 0.665880 0.140472
vn -0.0000 0.5145 0.8575
vn -0.0000 -0.0000 -1.0000
vn -0.0000 -0.0000 1.0000
vn -0.0000 -1.0000 -0.0000
vn -0.0000 1.0000 -0.0000
vn -1.0000 -0.0000 -0.0000
vn 1.0000 -0.0000 -0.0000
vn -0.0000 -0.4903 0.8716
vn -0.0000 -0.4903 -0.8716
vn -0.0000 0.5145 -0.8575
vn -0.0000 0.7206 0.6934
vn -0.0000 0.7206 -0.6934
vn -0.0000 -0.6978 -0.7163
vn -0.0000 -0.6978 0.7163
vn -0.0000 -0.3827 -0.9239
vn -0.0000 -0.9239 -0.3827
vn -0.0000 -0.9239 0.3827
vn -0.0000 -0.3827 0.9239
vn -0.0000 0.3827 0.9239
vn -0.0000 0.9239 0.3827
vn -0.0000 0.9239 -0.3827
vn -0.0000 0.3827 -0.9239
vt 0.562500 0.843750
vt 0.531250 1.000000
vt 0.531250 0.843750
vt 0.781250 0.093750
vt 1.000000 0.125000
vt 0.781250 0.125000
vt 0.375000 0.531250
vt 0.343750 0.562500
vt 0.343750 0.531250
vt 1.000000 0.062500
vt 0.781250 0.031250
vt 1.000000 0.031250
vt 1.000000 0.000000
vt 0.781250 0.000000
vt 1.000000 0.093750
vt 0.187500 0.562500
vt 0.218750 0.531250
vt 0.218750 0.562500
vt 0.375000 0.500000
vt 0.406250 0.531250
vt 0.250000 0.531250
vt 0.250000 0.562500
vt 0.375000 0.562500
vt 0.406250 0.562500
vt 0.187500 0.500000
vt 0.187500 0.531250
vt 0.562500 1.000000
vt 0.281250 0.562500
vt 0.437500 0.562500
vt 0.437500 0.531250
vt 0.156250 0.500000
vt 0.156250 0.531250
vt 0.406250 0.500000
vt 0.343750 0.500000
vt 0.250000 0.500000
vt 0.281250 0.531250
vt 0.312500 0.500000
vt 0.312500 0.531250
vt 0.218750 0.500000
vt 0.625000 0.858876
vt 0.593750 1.000000
vt 0.593750 0.858876
vt 0.781250 0.062500
vt 0.062500 0.562500
vt 0.093750 0.531250
vt 0.093750 0.562500
vt 0.500000 0.500000
vt 0.531250 0.531250
vt 0.500000 0.531250
vt 0.062500 0.531250
vt 0.031250 0.562500
vt 0.031250 0.531250
vt 0.500000 0.562500
vt 0.531250 0.562500
vt 0.062500 0.500000
vt 0.562500 0.531250
vt 0.562500 0.562500
vt 0.125000 0.562500
vt 0.593750 0.562500
vt 0.593750 0.531250
vt 0.031250 0.500000
vt 0.531250 0.500000
vt 0.468750 0.500000
vt 0.468750 0.531250
vt 0.000000 0.500000
vt 0.000000 0.531250
vt 0.562500 0.500000
vt 0.093750 0.500000
vt 0.125000 0.531250
vt 0.968750 0.250000
vt 0.812500 0.218750
vt 0.968750 0.218750
vt 0.812500 0.187500
vt 0.968750 0.156250
vt 0.968750 0.187500
vt 0.812500 0.156250
vt 0.968750 0.125000
vt 0.656250 0.562500
vt 0.625000 0.531250
vt 0.656250 0.531250
vt 0.656250 0.625000
vt 0.625000 0.593750
vt 0.656250 0.593750
vt 0.625000 0.562500
vt 0.687500 0.562500
vt 0.718750 0.531250
vt 0.718750 0.562500
vt 0.687500 0.531250
vt 0.718750 0.500000
vt 0.781250 0.968750
vt 0.718750 0.937500
vt 0.718750 0.968750
vt 0.781250 1.000000
vt 0.718750 1.000000
vt 0.781250 0.937500
vt 0.000000 0.625000
vt 0.031250 0.656250
vt 0.000000 0.656250
vt 0.656250 0.500000
vt 0.156250 0.656250
vt 0.125000 0.625000
vt 0.156250 0.625000
vt 0.593750 0.859130
vt 0.500000 0.859130
vt 0.000000 0.687500
vt 0.031250 0.718750
vt 0.000000 0.718750
vt 0.156250 0.687500
vt 0.156250 0.718750
vt 0.125000 0.718750
vt 0.062500 0.625000
vt 0.093750 0.656250
vt 0.062500 0.656250
vt 0.281250 0.656250
vt 0.312500 0.625000
vt 0.312500 0.656250
vt 0.218750 0.687500
vt 0.250000 0.718750
vt 0.218750 0.718750
vt 0.375000 0.718750
vt 0.343750 0.718750
vt 0.375000 0.687500
vt 0.375000 0.656250
vt 0.343750 0.625000
vt 0.375000 0.625000
vt 0.250000 0.625000
vt 0.218750 0.656250
vt 0.218750 0.625000
vt 0.031250 0.625000
vt 0.437500 0.500000
vt 0.281250 0.500000
vt 0.625000 1.000000
vt 0.593750 0.500000
vt 0.125000 0.500000
vt 0.812500 0.250000
vt 0.812500 0.125000
vt 0.625000 0.625000
vt 0.687500 0.500000
vt 0.625000 0.500000
vt 0.125000 0.656250
vt 0.500000 1.000000
vt 0.093750 0.625000
vt 0.281250 0.625000
vt 0.343750 0.656250
vt 0.250000 0.656250
s 1
usemtl Cooker.002
f 2/1/1 120/2/1 11/3/1
f 4/4/2 7/5/2 3/6/2
f 5/7/3 16/8/3 6/9/3
f 6/10/3 1/11/3 5/12/3
f 7/13/4 1/11/4 3/14/4
f 4/4/5 6/10/5 8/15/5
f 11/16/6 9/17/6 10/18/6
f 15/19/7 24/20/7 14/7/7
f 2/18/3 10/21/3 1/22/3
f 13/23/7 15/20/7 14/24/7
f 9/25/6 22/17/6 10/26/6
f 117/27/1 6/3/1 16/1/1
f 18/21/4 21/28/4 17/22/4
f 20/29/4 23/20/4 19/30/4
f 3/31/2 21/26/2 9/32/2
f 14/33/2 20/30/2 7/20/2
f 5/34/3 23/7/3 15/9/3
f 1/35/7 17/36/7 3/21/7
f 7/37/6 19/9/6 5/38/6
f 10/39/3 18/21/3 1/17/3
f 40/40/8 69/41/8 30/42/8
f 28/10/2 31/11/2 27/12/2
f 30/4/3 25/5/3 29/6/3
f 31/11/4 25/13/4 27/12/4
f 28/10/5 30/4/5 32/43/5
f 35/44/6 33/45/6 34/46/6
f 39/47/7 48/48/7 38/49/7
f 27/50/2 36/51/2 28/52/2
f 37/53/7 39/48/7 38/54/7
f 33/55/6 46/45/6 34/50/6
f 32/54/2 38/56/2 31/57/2
f 42/45/4 45/58/4 41/46/4
f 44/59/4 47/56/4 43/60/4
f 27/61/2 45/50/2 33/52/2
f 38/62/2 44/56/2 31/48/2
f 29/63/3 47/49/3 39/64/3
f 25/65/7 41/52/7 27/66/7
f 31/67/6 43/60/6 29/56/6
f 34/68/3 42/69/3 25/45/3
f 3/70/7 26/71/7 4/72/7
f 34/73/4 3/74/4 9/75/4
f 35/76/6 9/77/6 12/74/6
f 26/71/5 12/75/5 4/72/5
f 7/72/4 39/73/4 14/75/4
f 8/75/6 29/76/6 7/74/6
f 13/70/5 30/71/5 8/72/5
f 39/76/7 13/77/7 14/74/7
f 8/40/9 73/41/9 13/42/9
f 32/1/10 115/2/10 37/3/10
f 26/40/8 65/41/8 35/42/8
f 57/78/11 52/79/11 59/80/11
f 59/81/5 51/82/5 60/83/5
f 60/84/12 49/83/12 58/82/12
f 61/78/12 56/79/12 63/80/12
f 63/84/5 55/83/5 64/82/5
f 64/79/11 53/78/11 62/84/11
f 36/1/10 116/2/10 28/3/10
f 70/85/13 75/86/13 73/87/13
f 72/88/4 76/89/4 75/86/4
f 71/86/14 74/85/14 76/88/14
f 66/85/13 79/86/13 77/87/13
f 68/88/4 80/89/4 79/86/4
f 67/86/14 78/85/14 80/88/14
f 12/40/9 77/41/9 4/42/9
f 82/90/15 83/91/15 81/92/15
f 84/93/16 85/92/16 83/94/16
f 86/90/17 87/91/17 85/92/17
f 88/95/18 89/92/18 87/91/18
f 90/90/19 91/94/19 89/92/19
f 92/95/20 93/92/20 91/91/20
f 94/90/21 95/94/21 93/92/21
f 96/93/22 81/92/22 95/94/22
f 99/95/15 98/92/15 97/90/15
f 101/90/16 100/94/16 99/93/16
f 103/95/17 102/92/17 101/90/17
f 105/90/18 104/91/18 103/95/18
f 107/93/19 106/92/19 105/90/19
f 109/90/20 108/91/20 107/95/20
f 111/93/21 110/92/21 109/90/21
f 97/90/22 112/94/22 111/93/22
f 114/96/6 67/97/6 58/98/6
f 113/79/10 61/99/10 115/80/10
f 114/79/10 49/99/10 116/80/10
f 118/79/1 57/99/1 120/80/1
f 117/79/1 53/99/1 119/80/1
f 120/100/6 68/101/6 66/102/6
f 35/103/6 114/27/6 36/1/6
f 120/2/6 12/104/6 11/3/6
f 58/105/6 67/106/6 60/107/6
f 57/108/6 59/109/6 68/110/6
f 59/111/6 67/112/6 68/113/6
f 51/114/7 79/115/7 80/116/7
f 50/117/7 79/118/7 52/119/7
f 51/120/7 80/121/7 49/122/7
f 116/123/7 80/124/7 78/125/7
f 118/126/7 79/127/7 50/128/7
f 4/103/7 118/27/7 2/1/7
f 116/2/7 26/104/7 28/3/7
f 55/111/6 71/112/6 72/113/6
f 119/100/6 72/101/6 70/102/6
f 53/108/6 55/109/6 72/110/6
f 54/105/6 71/106/6 56/107/6
f 113/129/6 71/98/6 54/96/6
f 30/103/6 113/27/6 32/1/6
f 63/114/7 75/115/7 76/116/7
f 117/126/7 75/127/7 62/128/7
f 62/117/7 75/118/7 64/119/7
f 115/123/7 76/124/7 74/125/7
f 61/122/7 63/120/7 76/121/7
f 115/2/7 40/104/7 37/3/7
f 13/103/7 117/27/7 16/1/7
f 119/2/6 8/104/6 6/3/6
f 2/1/1 118/27/1 120/2/1
f 4/4/2 8/15/2 7/5/2
f 5/7/3 15/23/3 16/8/3
f 6/10/3 2/43/3 1/11/3
f 7/13/4 5/12/4 1/11/4
f 4/4/5 2/43/5 6/10/5
f 11/16/6 12/26/6 9/17/6
f 15/19/7 23/33/7 24/20/7
f 2/18/3 11/17/3 10/21/3
f 13/23/7 16/7/7 15/20/7
f 9/25/6 21/39/6 22/17/6
f 117/27/1 119/2/1 6/3/1
f 18/21/4 22/36/4 21/28/4
f 20/29/4 24/24/4 23/20/4
f 3/31/2 17/25/2 21/26/2
f 14/33/2 24/130/2 20/30/2
f 5/34/3 19/19/3 23/7/3
f 1/35/7 18/131/7 17/36/7
f 7/37/6 20/34/6 19/9/6
f 10/39/3 22/35/3 18/21/3
f 40/40/8 74/132/8 69/41/8
f 28/10/2 32/43/2 31/11/2
f 30/4/3 26/15/3 25/5/3
f 31/11/4 29/14/4 25/13/4
f 28/10/5 26/15/5 30/4/5
f 35/44/6 36/50/6 33/45/6
f 39/47/7 47/62/7 48/48/7
f 27/50/2 33/44/2 36/51/2
f 37/53/7 40/49/7 39/48/7
f 33/55/6 45/68/6 46/45/6
f 32/54/2 37/48/2 38/56/2
f 42/45/4 46/69/4 45/58/4
f 44/59/4 48/57/4 47/56/4
f 27/61/2 41/55/2 45/50/2
f 38/62/2 48/67/2 44/56/2
f 29/63/3 43/47/3 47/49/3
f 25/65/7 42/61/7 41/52/7
f 31/67/6 44/133/6 43/60/6
f 34/68/3 46/134/3 42/69/3
f 3/70/7 25/135/7 26/71/7
f 34/73/4 25/76/4 3/74/4
f 35/76/6 34/136/6 9/77/6
f 26/71/5 35/73/5 12/75/5
f 7/72/4 29/71/4 39/73/4
f 8/75/6 30/73/6 29/76/6
f 13/70/5 40/135/5 30/71/5
f 39/76/7 40/136/7 13/77/7
f 8/40/9 70/132/9 73/41/9
f 32/1/10 113/27/10 115/2/10
f 26/40/8 78/132/8 65/41/8
f 57/78/11 50/84/11 52/79/11
f 59/81/5 52/137/5 51/82/5
f 60/84/12 51/78/12 49/83/12
f 61/78/12 54/84/12 56/79/12
f 63/84/5 56/78/5 55/83/5
f 64/79/11 55/80/11 53/78/11
f 36/1/10 114/27/10 116/2/10
f 70/85/13 72/88/13 75/86/13
f 72/88/4 71/138/4 76/89/4
f 71/86/14 69/87/14 74/85/14
f 66/85/13 68/88/13 79/86/13
f 68/88/4 67/138/4 80/89/4
f 67/86/14 65/87/14 78/85/14
f 12/40/9 66/132/9 77/41/9
f 82/90/15 84/95/15 83/91/15
f 84/93/16 86/90/16 85/92/16
f 86/90/17 88/95/17 87/91/17
f 88/95/18 90/90/18 89/92/18
f 90/90/19 92/93/19 91/94/19
f 92/95/20 94/90/20 93/92/20
f 94/90/21 96/93/21 95/94/21
f 96/93/22 82/90/22 81/92/22
f 99/95/15 100/91/15 98/92/15
f 101/90/16 102/92/16 100/94/16
f 103/95/17 104/91/17 102/92/17
f 105/90/18 106/92/18 104/91/18
f 107/93/19 108/94/19 106/92/19
f 109/90/20 110/92/20 108/91/20
f 111/93/21 112/94/21 110/92/21
f 97/90/22 98/92/22 112/94/22
f 114/96/6 65/129/6 67/97/6
f 113/79/10 54/139/10 61/99/10
f 114/79/10 58/139/10 49/99/10
f 118/79/1 50/139/1 57/99/1
f 117/79/1 62/139/1 53/99/1
f 120/100/6 57/140/6 68/101/6
f 35/103/6 65/41/6 114/27/6
f 120/2/6 66/141/6 12/104/6
f 59/111/6 60/142/6 67/112/6
f 51/114/7 52/143/7 79/115/7
f 116/123/7 49/144/7 80/124/7
f 118/126/7 77/145/7 79/127/7
f 4/103/7 77/41/7 118/27/7
f 116/2/7 78/141/7 26/104/7
f 55/111/6 56/142/6 71/112/6
f 119/100/6 53/140/6 72/101/6
f 113/129/6 69/97/6 71/98/6
f 30/103/6 69/41/6 113/27/6
f 63/114/7 64/143/7 75/115/7
f 117/126/7 73/145/7 75/127/7
f 115/123/7 61/144/7 76/124/7
f 115/2/7 74/141/7 40/104/7
f 13/103/7 73/41/7 117/27/7
f 119/2/6 70/141/6 8/104/6
