# Blender 5.0.1
# www.blender.org
mtllib DoubleDeckerBed01.mtl
o DoubleDeckerBed01
v -0.500000 0.500000 1.000000
v 0.500000 0.500000 1.000000
v -0.500000 0.500000 -1.000000
v 0.500000 0.500000 -1.000000
v -0.500000 1.500000 1.000000
v 0.500000 1.500000 1.000000
v -0.500000 1.500000 -1.000000
v 0.500000 1.500000 -1.000000
v 0.500000 0.000000 -0.399959
v 0.500000 1.500000 -0.399959
v 0.500000 1.500000 -0.899959
v 0.500000 0.000000 -0.899959
v 0.475000 0.000000 -0.374959
v 0.475000 1.500000 -0.374959
v 0.475000 0.000000 -0.424959
v 0.475000 1.500000 -0.424959
v 0.525000 0.000000 -0.374959
v 0.525000 1.500000 -0.374959
v 0.525000 0.000000 -0.424959
v 0.525000 1.500000 -0.424959
v 0.475000 0.000000 -0.874959
v 0.475000 1.500000 -0.874959
v 0.475000 0.000000 -0.924959
v 0.475000 1.500000 -0.924959
v 0.525000 0.000000 -0.874959
v 0.525000 1.500000 -0.874959
v 0.525000 0.000000 -0.924959
v 0.525000 1.500000 -0.924959
v -0.500000 0.400000 -1.000000
v -0.500000 0.400000 1.000000
v 0.500000 0.400000 1.000000
v 0.500000 0.400000 -1.000000
v -0.500000 1.400000 -1.000000
v -0.500000 1.400000 1.000000
v 0.500000 1.400000 1.000000
v 0.500000 1.400000 -1.000000
vn -0.0000 1.0000 -0.0000
vn 1.0000 -0.0000 -0.0000
vn -1.0000 -0.0000 -0.0000
vn -0.0000 -0.0000 -1.0000
vn -0.0000 -0.0000 1.0000
vn -0.0000 -1.0000 -0.0000
vt 1.000000 0.000000
vt 0.000000 1.000000
vt 0.000000 0.000000
vt 0.625000 0.000000
vt 0.375000 0.250000
vt 0.375000 0.000000
vt 0.625000 0.250000
vt 0.375000 0.500000
vt 0.625000 0.500000
vt 0.375000 0.750000
vt 0.625000 0.750000
vt 0.375000 1.000000
vt 0.125000 0.750000
vt 0.125000 0.500000
vt 0.875000 0.500000
vt 1.000000 1.000000
vt 0.625000 1.000000
vt 0.875000 0.750000
s 0
f 2/1/1 3/2/1 1/3/1
f 6/1/1 7/2/1 5/3/1
f 11/3/2 9/3/2 12/3/2
f 14/4/3 15/5/3 13/6/3
f 16/7/4 19/8/4 15/5/4
f 20/9/2 17/10/2 19/8/2
f 18/11/5 13/12/5 17/10/5
f 19/8/6 13/13/6 15/14/6
f 16/15/1 18/11/1 20/9/1
f 22/4/3 23/5/3 21/6/3
f 24/7/4 27/8/4 23/5/4
f 28/9/2 25/10/2 27/8/2
f 26/11/5 21/12/5 25/10/5
f 27/8/6 21/13/6 23/14/6
f 24/15/1 26/11/1 28/9/1
f 29/2/6 31/1/6 30/3/6
f 33/2/6 35/1/6 34/3/6
f 29/2/3 1/3/3 3/2/3
f 36/16/4 7/2/4 8/16/4
f 34/3/5 6/1/5 5/3/5
f 32/16/4 3/2/4 4/16/4
f 30/3/5 2/1/5 1/3/5
f 35/1/2 8/16/2 6/1/2
f 33/2/3 5/3/3 7/2/3
f 31/1/2 4/16/2 2/1/2
f 2/1/1 4/16/1 3/2/1
f 6/1/1 8/16/1 7/2/1
f 11/3/2 10/3/2 9/3/2
f 14/4/3 16/7/3 15/5/3
f 16/7/4 20/9/4 19/8/4
f 20/9/2 18/11/2 17/10/2
f 18/11/5 14/17/5 13/12/5
f 19/8/6 17/10/6 13/13/6
f 16/15/1 14/18/1 18/11/1
f 22/4/3 24/7/3 23/5/3
f 24/7/4 28/9/4 27/8/4
f 28/9/2 26/11/2 25/10/2
f 26/11/5 22/17/5 21/12/5
f 27/8/6 25/10/6 21/13/6
f 24/15/1 22/18/1 26/11/1
f 29/2/6 32/16/6 31/1/6
f 33/2/6 36/16/6 35/1/6
f 29/2/3 30/3/3 1/3/3
f 36/16/4 33/2/4 7/2/4
f 34/3/5 35/1/5 6/1/5
f 32/16/4 29/2/4 3/2/4
f 30/3/5 31/1/5 2/1/5
f 35/1/2 36/16/2 8/16/2
f 33/2/3 34/3/3 5/3/3
f 31/1/2 32/16/2 4/16/2
