# Blender 5.0.1
# www.blender.org
mtllib DoubleDeckerBed01collision.mtl
o DoubleDeckerBed01collision
v 0.475000 0.000000 -0.374959
v 0.475000 1.600000 -0.374959
v 0.525000 0.000000 -0.374959
v 0.525000 1.600000 -0.374959
v 0.475000 0.000000 -0.924959
v 0.475000 1.600000 -0.924959
v 0.525000 0.000000 -0.924959
v 0.525000 1.600000 -0.924959
v -0.450939 1.500000 -0.934009
v -0.434009 1.500000 -0.950939
v -0.434009 1.500000 0.950939
v -0.450939 1.500000 0.934009
v 0.450939 1.500000 0.934009
v 0.434009 1.500000 0.950939
v 0.434009 1.500000 -0.950939
v 0.450939 1.500000 -0.934009
v -0.500000 1.600000 -0.950000
v -0.450000 1.600000 -1.000000
v -0.451405 1.500000 -0.992937
v -0.492937 1.500000 -0.951405
v 0.492937 1.500000 -0.951405
v 0.451405 1.500000 -0.992937
v 0.450000 1.600000 -1.000000
v 0.500000 1.600000 -0.950000
v 0.500000 1.600000 0.950000
v 0.450000 1.600000 1.000000
v 0.451405 1.500000 0.992937
v 0.492937 1.500000 0.951405
v -0.492937 1.500000 0.951405
v -0.451405 1.500000 0.992937
v -0.450000 1.600000 1.000000
v -0.500000 1.600000 0.950000
v -0.450000 0.600000 1.000000
v -0.500000 0.600000 0.950000
v -0.500000 0.500000 0.950000
v -0.450000 0.500000 1.000000
v -0.450000 0.500000 -1.000000
v -0.500000 0.500000 -0.950000
v -0.500000 0.600000 -0.950000
v -0.450000 0.600000 -1.000000
v -0.450000 1.500000 -1.000000
v -0.500000 1.500000 -0.950000
v 0.500000 1.500000 -0.950000
v 0.450000 1.500000 -1.000000
v 0.450000 1.500000 1.000000
v 0.500000 1.500000 0.950000
v -0.500000 1.500000 0.950000
v -0.450000 1.500000 1.000000
v 0.500000 0.500000 -0.950000
v 0.450000 0.500000 -1.000000
v 0.450000 0.600000 -1.000000
v 0.500000 0.600000 -0.950000
v 0.500000 0.600000 0.950000
v 0.450000 0.600000 1.000000
v 0.450000 0.500000 1.000000
v 0.500000 0.500000 0.950000
v 0.450939 0.000000 0.934009
v 0.492937 0.000000 0.951405
v 0.451405 0.000000 0.992937
v 0.434009 0.000000 0.950939
v -0.434009 0.000000 0.950939
v -0.450939 0.000000 0.934009
v -0.492937 0.000000 0.951405
v -0.451405 0.000000 0.992937
v -0.450939 0.000000 -0.934009
v -0.434009 0.000000 -0.950939
v -0.451405 0.000000 -0.992937
v -0.492937 0.000000 -0.951405
v 0.434009 0.000000 -0.950939
v 0.450939 0.000000 -0.934009
v 0.492937 0.000000 -0.951405
v 0.451405 0.000000 -0.992937
vn -1.0000 -0.0000 -0.0000
vn -0.0000 -0.0000 1.0000
vn 1.0000 -0.0000 -0.0000
vn -0.0000 -0.0000 -1.0000
vn -0.0000 -1.0000 -0.0000
vn -0.0000 1.0000 -0.0000
vn -0.7071 -0.0000 0.7071
vn -0.7071 -0.0000 -0.7071
vn 0.7071 -0.0000 -0.7071
vn 0.7071 -0.0000 0.7071
vn 0.9239 -0.0000 -0.3827
vn -0.3827 -0.0000 0.9239
vn 0.3827 -0.0000 0.9239
vn -0.9239 -0.0000 -0.3827
vn 0.3827 -0.0000 -0.9239
vn -0.9239 -0.0000 0.3827
vn 0.9239 -0.0000 0.3827
vn -0.3827 -0.0000 -0.9239
vt 0.455628 0.354721
vt 0.387126 0.610489
vt 0.387126 0.354721
vt 0.598758 0.354721
vt 0.606794 0.602415
vt 0.598758 0.602415
vt 0.477825 0.610489
vt 0.425395 0.354721
vt 0.425395 0.610489
vt 0.538292 0.354721
vt 0.546327 0.602415
vt 0.538292 0.602415
vt 0.712384 0.946409
vt 0.296356 0.953996
vt 0.304392 0.953996
vt 0.241056 0.953596
vt 0.264688 0.961632
vt 0.264688 0.953596
vt 0.194837 0.362756
vt 0.209994 0.354721
vt 0.210823 0.362756
vt 0.210823 0.668109
vt 0.194008 0.676145
vt 0.194837 0.668109
vt 0.598840 0.332523
vt 0.615654 0.324487
vt 0.614825 0.332523
vt 0.560657 0.332523
vt 0.575813 0.324487
vt 0.576642 0.332523
vt 0.576642 0.011099
vt 0.559828 0.019134
vt 0.560657 0.011099
vt 0.614825 0.011099
vt 0.599668 0.019134
vt 0.598840 0.011099
vt 0.638680 0.332523
vt 0.653837 0.324487
vt 0.654666 0.332523
vt 0.654666 0.011099
vt 0.637852 0.019134
vt 0.638680 0.011099
vt 0.644472 0.354721
vt 0.628991 0.499361
vt 0.628991 0.354721
vt 0.653837 0.019134
vt 0.637851 0.324487
vt 0.644472 0.521559
vt 0.628991 0.666200
vt 0.628991 0.521559
vt 0.599668 0.324487
vt 0.615654 0.019134
vt 0.682150 0.354721
vt 0.666669 0.499362
vt 0.666669 0.354721
vt 0.575813 0.019134
vt 0.559828 0.324487
vt 0.682150 0.521559
vt 0.666669 0.666200
vt 0.666670 0.521559
vt 0.000000 0.000000
vt 0.424424 0.913451
vt 0.417674 0.910655
vt 0.417674 0.906808
vt 0.424424 0.904012
vt 0.417674 0.945088
vt 0.424424 0.938445
vt 0.424424 0.942292
vt 0.449342 0.936049
vt 0.456092 0.942692
vt 0.449342 0.945488
vt 0.456092 0.913851
vt 0.449342 0.907208
vt 0.456092 0.904412
vt 0.456092 0.938845
vt 0.449342 0.911056
vt 0.455628 0.610489
vt 0.606794 0.354721
vt 0.477825 0.354721
vt 0.546327 0.354721
vt 0.712384 0.954444
vt 0.241056 0.961632
vt 0.194008 0.354721
vt 0.209994 0.676145
vt 0.644472 0.499361
vt 0.644472 0.666200
vt 0.682150 0.499362
vt 0.682150 0.666200
vt 0.417674 0.935649
s 0
f 6/1/1 1/2/1 2/3/1
f 4/4/2 1/5/2 3/6/2
f 7/7/3 4/8/3 3/9/3
f 6/10/4 7/11/4 5/12/4
f 5/13/5 3/14/5 1/15/5
f 8/16/6 2/17/6 4/18/6
f 35/19/7 33/20/7 34/21/7
f 39/22/8 37/23/8 38/24/8
f 41/25/8 17/26/8 18/27/8
f 23/28/9 43/29/9 44/30/9
f 45/31/10 25/32/10 26/33/10
f 31/34/7 47/35/7 48/36/7
f 51/37/9 49/38/9 50/39/9
f 55/40/10 53/41/10 54/42/10
f 38/24/1 34/21/1 39/22/1
f 36/43/2 54/44/2 33/45/2
f 56/46/3 52/47/3 53/41/3
f 50/48/4 40/49/4 51/50/4
f 42/51/1 32/52/1 17/26/1
f 48/53/2 26/54/2 31/55/2
f 46/56/3 24/57/3 25/32/3
f 44/58/4 18/59/4 23/60/4
f 20/61/6 10/61/6 19/61/6
f 67/62/11 10/61/11 66/63/11
f 10/61/10 65/64/10 66/63/10
f 68/65/12 9/61/12 20/61/12
f 58/66/5 60/67/5 57/68/5
f 71/69/5 69/70/5 72/71/5
f 68/65/5 66/63/5 65/64/5
f 63/72/5 61/73/5 64/74/5
f 19/61/8 68/65/8 20/61/8
f 21/61/9 72/71/9 22/61/9
f 70/75/13 21/61/13 16/61/13
f 69/70/7 16/61/7 15/61/7
f 72/71/14 15/61/14 22/61/14
f 15/61/6 21/61/6 22/61/6
f 27/61/10 58/66/10 28/61/10
f 58/66/15 13/61/15 28/61/15
f 60/67/16 27/61/16 14/61/16
f 57/68/8 14/61/8 13/61/8
f 29/61/7 64/74/7 30/61/7
f 64/74/17 11/61/17 30/61/17
f 61/73/9 12/61/9 11/61/9
f 62/76/18 29/61/18 12/61/18
f 11/61/6 29/61/6 30/61/6
f 28/61/6 14/61/6 27/61/6
f 50/48/5 56/46/5 36/43/5
f 52/47/6 40/49/6 34/21/6
f 46/56/5 48/53/5 42/51/5
f 26/54/6 24/57/6 18/59/6
f 6/1/1 5/77/1 1/2/1
f 4/4/2 2/78/2 1/5/2
f 7/7/3 8/79/3 4/8/3
f 6/10/4 8/80/4 7/11/4
f 5/13/5 7/81/5 3/14/5
f 8/16/6 6/82/6 2/17/6
f 35/19/7 36/83/7 33/20/7
f 39/22/8 40/84/8 37/23/8
f 41/25/8 42/51/8 17/26/8
f 23/28/9 24/57/9 43/29/9
f 45/31/10 46/56/10 25/32/10
f 31/34/7 32/52/7 47/35/7
f 51/37/9 52/47/9 49/38/9
f 55/40/10 56/46/10 53/41/10
f 38/24/1 35/19/1 34/21/1
f 36/43/2 55/85/2 54/44/2
f 56/46/3 49/38/3 52/47/3
f 50/48/4 37/86/4 40/49/4
f 42/51/1 47/35/1 32/52/1
f 48/53/2 45/87/2 26/54/2
f 46/56/3 43/29/3 24/57/3
f 44/58/4 41/88/4 18/59/4
f 20/61/6 9/61/6 10/61/6
f 67/62/11 19/61/11 10/61/11
f 10/61/10 9/61/10 65/64/10
f 68/65/12 65/64/12 9/61/12
f 58/66/5 59/89/5 60/67/5
f 71/69/5 70/75/5 69/70/5
f 68/65/5 67/62/5 66/63/5
f 63/72/5 62/76/5 61/73/5
f 19/61/8 67/62/8 68/65/8
f 21/61/9 71/69/9 72/71/9
f 70/75/13 71/69/13 21/61/13
f 69/70/7 70/75/7 16/61/7
f 72/71/14 69/70/14 15/61/14
f 15/61/6 16/61/6 21/61/6
f 27/61/10 59/89/10 58/66/10
f 58/66/15 57/68/15 13/61/15
f 60/67/16 59/89/16 27/61/16
f 57/68/8 60/67/8 14/61/8
f 29/61/7 63/72/7 64/74/7
f 64/74/17 61/73/17 11/61/17
f 61/73/9 62/76/9 12/61/9
f 62/76/18 63/72/18 29/61/18
f 11/61/6 12/61/6 29/61/6
f 28/61/6 13/61/6 14/61/6
f 36/43/5 35/19/5 38/24/5
f 38/24/5 37/23/5 50/48/5
f 50/48/5 49/38/5 56/46/5
f 56/46/5 55/40/5 36/43/5
f 36/43/5 38/24/5 50/48/5
f 34/21/6 33/45/6 54/44/6
f 54/44/6 53/41/6 52/47/6
f 52/47/6 51/37/6 40/49/6
f 40/49/6 39/22/6 34/21/6
f 34/21/6 54/44/6 52/47/6
f 42/51/5 41/88/5 44/58/5
f 44/58/5 43/29/5 46/56/5
f 46/56/5 45/31/5 48/53/5
f 48/53/5 47/35/5 42/51/5
f 42/51/5 44/58/5 46/56/5
f 18/59/6 17/26/6 32/52/6
f 32/52/6 31/34/6 26/54/6
f 26/54/6 25/32/6 24/57/6
f 24/57/6 23/28/6 18/59/6
f 18/59/6 32/52/6 26/54/6
