# Blender 5.0.1
# www.blender.org
mtllib Matress01.mtl
o Matress01
v -0.284927 0.085000 0.950000
v -0.281943 0.100000 0.935000
v -0.460000 0.100000 0.756943
v -0.475000 0.085000 0.759927
v -0.419329 0.085000 0.894329
v -0.407848 0.100000 0.882848
v 0.460000 0.100000 0.756943
v 0.475000 0.085000 0.759927
v 0.284927 0.085000 0.950000
v 0.281943 0.100000 0.935000
v 0.419329 0.085000 0.894329
v 0.407848 0.100000 0.882848
v -0.460000 0.100000 -0.756943
v -0.475000 0.085000 -0.759927
v -0.284927 0.085000 -0.950000
v -0.281943 0.100000 -0.935000
v -0.419329 0.085000 -0.894329
v -0.407848 0.100000 -0.882848
v 0.284927 0.085000 -0.950000
v 0.281943 0.100000 -0.935000
v 0.460000 0.100000 -0.756943
v 0.475000 0.085000 -0.759927
v 0.419329 0.085000 -0.894329
v 0.407848 0.100000 -0.882848
v -0.281943 0.000000 0.935000
v -0.284927 0.015000 0.950000
v -0.475000 0.015000 0.759927
v -0.460000 0.000000 0.756943
v -0.407848 0.000000 0.882848
v -0.419329 0.015000 0.894329
v 0.460000 0.000000 0.756943
v 0.475000 0.015000 0.759927
v 0.281943 0.000000 0.935000
v 0.284927 0.015000 0.950000
v 0.407848 0.000000 0.882848
v 0.419329 0.015000 0.894329
v -0.460000 0.000000 -0.756943
v -0.475000 0.015000 -0.759927
v -0.281943 0.000000 -0.935000
v -0.284927 0.015000 -0.950000
v -0.407848 0.000000 -0.882848
v -0.419329 0.015000 -0.894329
v 0.281943 0.000000 -0.935000
v 0.284927 0.015000 -0.950000
v 0.475000 0.015000 -0.759927
v 0.460000 0.000000 -0.756943
v 0.407848 0.000000 -0.882848
v 0.419329 0.015000 -0.894329
vn -0.6533 0.7071 0.2706
vn -0.2706 0.7071 0.6533
vn -0.0000 0.7071 0.7071
vn 0.2706 0.7071 0.6533
vn 0.6533 0.7071 0.2706
vn 0.6533 0.7071 -0.2706
vn 0.2706 0.7071 -0.6533
vn -0.0000 0.7071 -0.7071
vn -0.2706 0.7071 -0.6533
vn -0.6533 0.7071 -0.2706
vn 0.7071 0.7071 -0.0000
vn -0.7071 0.7071 -0.0000
vn -0.0000 1.0000 -0.0000
vn -0.6533 -0.7071 0.2706
vn -0.2706 -0.7071 0.6533
vn -0.0000 -0.7071 0.7071
vn 0.2706 -0.7071 0.6533
vn 0.6533 -0.7071 0.2706
vn 0.6533 -0.7071 -0.2706
vn 0.2706 -0.7071 -0.6533
vn -0.0000 -0.7071 -0.7071
vn -0.2706 -0.7071 -0.6533
vn -0.6533 -0.7071 -0.2706
vn 0.7071 -0.7071 -0.0000
vn -0.7071 -0.7071 -0.0000
vn -0.3827 -0.0000 0.9239
vn -0.0000 -1.0000 -0.0000
vn -0.0000 -0.0000 1.0000
vn -0.9239 -0.0000 0.3827
vn -1.0000 -0.0000 -0.0000
vn 0.9239 -0.0000 0.3827
vn 1.0000 -0.0000 -0.0000
vn 0.3827 -0.0000 0.9239
vn -0.9239 -0.0000 -0.3827
vn -0.0000 -0.0000 -1.0000
vn -0.3827 -0.0000 -0.9239
vn 0.3827 -0.0000 -0.9239
vn 0.9239 -0.0000 -0.3827
vt 0.037653 0.077198
vt 0.056466 0.046172
vt 0.043304 0.078350
vt 0.087176 0.027177
vt 0.052323 0.042071
vt 0.235976 0.028077
vt 0.088338 0.032764
vt 0.266681 0.047537
vt 0.234747 0.033725
vt 0.285139 0.078710
vt 0.270873 0.043466
vt 0.285139 0.474915
vt 0.266326 0.505940
vt 0.279488 0.473762
vt 0.235615 0.524935
vt 0.270469 0.510041
vt 0.086816 0.524035
vt 0.234454 0.519348
vt 0.056111 0.504575
vt 0.088045 0.518388
vt 0.037653 0.473403
vt 0.051919 0.508646
vt 0.279544 0.079834
vt 0.043248 0.472278
vt 0.532577 0.046308
vt 0.551269 0.077250
vt 0.545681 0.078398
vt 0.501752 0.027177
vt 0.536724 0.042207
vt 0.354177 0.033838
vt 0.500590 0.032835
vt 0.322362 0.047591
vt 0.352949 0.028261
vt 0.303794 0.078854
vt 0.318173 0.043522
vt 0.322486 0.506008
vt 0.303794 0.475067
vt 0.309382 0.473919
vt 0.353311 0.525139
vt 0.318340 0.510109
vt 0.500886 0.518479
vt 0.354473 0.519482
vt 0.532701 0.504725
vt 0.502114 0.524056
vt 0.551269 0.473463
vt 0.536890 0.508795
vt 0.309452 0.079981
vt 0.086917 0.027443
vt 0.052323 0.009346
vt 0.086917 0.009346
vt 0.235924 0.027640
vt 0.087064 0.009543
vt 0.235924 0.009543
vt 0.037028 0.042328
vt 0.018930 0.077196
vt 0.018930 0.042328
vt 0.037061 0.473493
vt 0.018964 0.077280
vt 0.037061 0.077280
vt 0.285186 0.078596
vt 0.303283 0.043712
vt 0.303283 0.078596
vt 0.285294 0.474923
vt 0.303391 0.078717
vt 0.303391 0.474923
vt 0.270541 0.027731
vt 0.235948 0.009634
vt 0.270541 0.009634
vt 0.037100 0.473425
vt 0.019002 0.508314
vt 0.019002 0.473425
vt 0.087115 0.524790
vt 0.235728 0.542888
vt 0.087115 0.542888
vt 0.052300 0.524919
vt 0.086893 0.543017
vt 0.052300 0.543017
vt 0.235825 0.524930
vt 0.270421 0.543027
vt 0.235825 0.543027
vt 0.285412 0.510134
vt 0.303510 0.475267
vt 0.303510 0.510134
vt 0.545611 0.472335
vt 0.052323 0.027443
vt 0.087064 0.027640
vt 0.037028 0.077196
vt 0.018964 0.473493
vt 0.285186 0.043712
vt 0.285294 0.078717
vt 0.235948 0.027731
vt 0.037100 0.508314
vt 0.235728 0.524790
vt 0.086893 0.524919
vt 0.270421 0.524930
vt 0.285412 0.475267
s 0
usemtl 64x64grid
f 4/1/1 6/2/1 3/3/1
f 1/4/2 6/2/2 5/5/2
f 9/6/3 2/7/3 1/4/3
f 9/6/4 12/8/4 10/9/4
f 8/10/5 12/8/5 11/11/5
f 22/12/6 24/13/6 21/14/6
f 19/15/7 24/13/7 23/16/7
f 15/17/8 20/18/8 19/15/8
f 15/17/9 18/19/9 16/20/9
f 14/21/10 18/19/10 17/22/10
f 22/12/11 7/23/11 8/10/11
f 13/24/12 4/1/12 3/3/12
f 10/9/13 24/13/13 13/24/13
f 29/25/14 27/26/14 28/27/14
f 29/25/15 26/28/15 30/29/15
f 33/30/16 26/28/16 25/31/16
f 35/32/17 34/33/17 33/30/17
f 35/32/18 32/34/18 36/35/18
f 47/36/19 45/37/19 46/38/19
f 47/36/20 44/39/20 48/40/20
f 39/41/21 44/39/21 43/42/21
f 41/43/22 40/44/22 39/41/22
f 41/43/23 38/45/23 42/46/23
f 46/38/24 32/34/24 31/47/24
f 38/45/25 28/27/25 27/26/25
f 1/48/26 30/49/26 26/50/26
f 39/41/27 31/47/27 29/25/27
f 9/51/28 26/52/28 34/53/28
f 5/54/29 27/55/29 30/56/29
f 27/57/30 14/58/30 38/59/30
f 8/60/31 36/61/31 32/62/31
f 22/63/32 32/64/32 45/65/32
f 11/66/33 34/67/33 36/68/33
f 14/69/34 42/70/34 38/71/34
f 15/72/35 44/73/35 40/74/35
f 17/75/36 40/76/36 42/77/36
f 19/78/37 48/79/37 44/80/37
f 23/81/38 45/82/38 48/83/38
f 4/1/1 5/5/1 6/2/1
f 1/4/2 2/7/2 6/2/2
f 9/6/3 10/9/3 2/7/3
f 9/6/4 11/11/4 12/8/4
f 8/10/5 7/23/5 12/8/5
f 22/12/6 23/16/6 24/13/6
f 19/15/7 20/18/7 24/13/7
f 15/17/8 16/20/8 20/18/8
f 15/17/9 17/22/9 18/19/9
f 14/21/10 13/24/10 18/19/10
f 22/12/11 21/14/11 7/23/11
f 13/24/12 14/21/12 4/1/12
f 13/24/13 3/3/13 6/2/13
f 6/2/13 2/7/13 10/9/13
f 10/9/13 12/8/13 7/23/13
f 7/23/13 21/14/13 24/13/13
f 24/13/13 20/18/13 16/20/13
f 16/20/13 18/19/13 13/24/13
f 13/24/13 6/2/13 10/9/13
f 10/9/13 7/23/13 24/13/13
f 24/13/13 16/20/13 13/24/13
f 29/25/14 30/29/14 27/26/14
f 29/25/15 25/31/15 26/28/15
f 33/30/16 34/33/16 26/28/16
f 35/32/17 36/35/17 34/33/17
f 35/32/18 31/47/18 32/34/18
f 47/36/19 48/40/19 45/37/19
f 47/36/20 43/42/20 44/39/20
f 39/41/21 40/44/21 44/39/21
f 41/43/22 42/46/22 40/44/22
f 41/43/23 37/84/23 38/45/23
f 46/38/24 45/37/24 32/34/24
f 38/45/25 37/84/25 28/27/25
f 1/48/26 5/85/26 30/49/26
f 29/25/27 28/27/27 37/84/27
f 37/84/27 41/43/27 39/41/27
f 39/41/27 43/42/27 47/36/27
f 47/36/27 46/38/27 31/47/27
f 31/47/27 35/32/27 33/30/27
f 33/30/27 25/31/27 29/25/27
f 29/25/27 37/84/27 39/41/27
f 39/41/27 47/36/27 31/47/27
f 31/47/27 33/30/27 29/25/27
f 9/51/28 1/86/28 26/52/28
f 5/54/29 4/87/29 27/55/29
f 27/57/30 4/88/30 14/58/30
f 8/60/31 11/89/31 36/61/31
f 22/63/32 8/90/32 32/64/32
f 11/66/33 9/91/33 34/67/33
f 14/69/34 17/92/34 42/70/34
f 15/72/35 19/93/35 44/73/35
f 17/75/36 15/94/36 40/76/36
f 19/78/37 23/95/37 48/79/37
f 23/81/38 22/96/38 45/82/38
