# Blender 5.0.1
# www.blender.org
mtllib Matress02.mtl
o Matress02
v -0.284927 0.000000 1.150000
v -0.475000 0.000000 0.959927
v -0.419329 0.000000 1.094329
v 0.475000 0.000000 0.959927
v 0.284927 0.000000 1.150000
v 0.419329 0.000000 1.094329
v -0.475000 0.741842 -0.079258
v -0.284927 0.934322 -0.077840
v -0.419329 0.878717 -0.080557
v 0.284927 0.947359 0.002575
v 0.475000 0.741842 -0.052333
v 0.419329 0.895056 -0.016497
v -0.284927 0.100000 1.150000
v -0.475000 0.100000 0.959927
v -0.419329 0.100000 1.094329
v 0.475000 0.100000 0.959927
v 0.284927 0.100000 1.150000
v 0.419329 0.100000 1.094329
v -0.475000 0.741842 0.020742
v -0.284927 0.929442 0.022041
v -0.419329 0.873837 0.019324
v 0.284927 0.913103 0.096524
v 0.475000 0.741842 0.047667
v 0.419329 0.860800 0.077453
v 0.475000 0.000000 0.135389
v 0.475000 0.071582 -0.014239
v 0.475000 0.050000 0.053719
v 0.475000 0.015361 0.029333
v -0.475000 0.071582 -0.008894
v -0.475000 0.000000 0.138070
v -0.475000 0.050000 0.059064
v -0.475000 0.015361 0.034678
v 0.475000 0.152446 0.070828
v 0.475000 0.100000 0.225226
v 0.475000 0.115361 0.126863
v -0.475000 0.100000 0.249435
v -0.475000 0.152446 0.089458
v -0.475000 0.115361 0.134997
vn -0.3827 0.9228 0.0451
vn 0.3827 -0.0000 0.9239
vn -0.9261 0.3768 0.0184
vn 0.9239 -0.0000 0.3827
vn 0.9399 0.3415 -0.0000
vn -0.9239 -0.0000 0.3827
vn 0.3827 0.8680 0.3165
vn -0.3827 -0.0000 0.9239
vn -0.0297 0.9984 0.0488
vn -0.0000 -0.0000 1.0000
vn 1.0000 -0.0000 -0.0000
vn -1.0000 -0.0000 -0.0000
vn -0.0044 -0.6126 -0.7904
vn -0.0004 -0.9891 -0.1470
vn 0.0108 0.8339 0.5519
vn 0.0013 0.9880 0.1543
vn -0.0000 -1.0000 -0.0000
vn 0.0869 0.0031 -0.9962
vn -0.0719 0.0659 0.9952
vn -0.0000 1.0000 -0.0000
vn -0.9214 0.3886 -0.0000
vn 0.9097 0.3901 0.1422
vn -0.0178 0.9393 0.3425
vn -0.0008 -0.9897 -0.1433
vn 0.0054 0.7754 0.6315
vn 0.0034 0.9911 0.1330
vn -0.0056 -0.1044 -0.9945
vn 0.0290 -0.0213 -0.9994
vn 0.1028 0.5632 -0.8199
vn -0.6241 -0.0443 -0.7800
vn 0.0433 -0.0354 -0.9984
vn 0.0195 0.1158 0.9931
vn 0.5260 0.0334 0.8498
vn -0.1207 -0.5988 0.7918
vn -0.0298 0.0233 0.9993
vn -0.0614 -0.0142 0.9980
vt 0.058601 0.970699
vt 0.200077 1.000000
vt 0.941399 0.029301
vt 0.799923 0.000000
vt 0.000000 0.899961
vt 1.000000 0.100039
vt 0.941399 0.970699
vt 1.000000 0.899961
vt 0.058601 0.029301
vt 0.000000 0.100039
vt 0.799923 1.000000
vt 0.200077 0.000000
vt 1.000000 0.474101
vt 1.000000 0.492370
vt 1.000000 0.500000
vt 1.000000 0.499849
vt 0.000000 0.522272
vt 0.000000 0.506555
vt 0.000000 0.500000
vt 0.000000 0.500110
vt 1.000000 0.524917
vt 1.000000 0.507338
vt 1.000000 0.500136
vt 0.000000 0.470452
vt 0.000000 0.491289
vt 0.000000 0.499807
vt 0.000000 0.474101
vt 0.000000 0.524917
vt 1.000000 0.470452
vt 1.000000 0.522272
s 0
f 21/1/1 8/2/1 9/1/1
f 18/3/2 5/4/2 6/3/2
f 7/5/3 21/1/3 9/1/3
f 16/6/4 6/3/4 4/6/4
f 12/7/5 23/8/5 11/8/5
f 15/9/6 2/10/6 3/9/6
f 10/11/7 24/7/7 12/7/7
f 13/12/8 3/9/8 1/12/8
f 20/2/9 10/11/9 8/2/9
f 17/4/10 1/12/10 5/4/10
f 25/13/11 28/14/11 27/15/11
f 28/14/11 26/16/11 27/15/11
f 29/17/12 32/18/12 31/19/12
f 32/18/12 30/20/12 31/19/12
f 33/21/11 35/22/11 27/15/11
f 35/22/11 34/23/11 27/15/11
f 36/24/12 38/25/12 31/19/12
f 38/25/12 37/26/12 31/19/12
f 29/17/13 28/15/13 32/19/13
f 32/19/14 25/13/14 30/27/14
f 37/28/15 35/15/15 33/21/15
f 38/19/16 34/29/16 35/15/16
f 7/5/12 37/28/12 19/5/12
f 4/6/17 5/4/17 3/9/17
f 8/2/18 12/7/18 26/30/18
f 36/24/12 2/10/12 14/10/12
f 31/19/12 30/20/12 36/24/12
f 31/19/12 37/26/12 29/17/12
f 24/7/19 20/2/19 19/5/19
f 17/4/20 16/6/20 36/24/20
f 27/15/11 26/16/11 33/21/11
f 27/15/11 34/23/11 25/13/11
f 4/6/11 34/29/11 16/6/11
f 33/21/11 11/8/11 23/8/11
f 21/1/1 20/2/1 8/2/1
f 18/3/2 17/4/2 5/4/2
f 7/5/21 19/5/21 21/1/21
f 16/6/4 18/3/4 6/3/4
f 12/7/22 24/7/22 23/8/22
f 15/9/6 14/10/6 2/10/6
f 10/11/7 22/11/7 24/7/7
f 13/12/8 15/9/8 3/9/8
f 20/2/23 22/11/23 10/11/23
f 17/4/10 13/12/10 1/12/10
f 29/17/13 26/30/13 28/15/13
f 32/19/24 28/15/24 25/13/24
f 37/28/25 38/19/25 35/15/25
f 38/19/26 36/24/26 34/29/26
f 7/5/12 29/17/12 37/28/12
f 3/9/17 2/10/17 30/27/17
f 30/27/17 25/13/17 4/6/17
f 4/6/17 6/3/17 5/4/17
f 5/4/17 1/12/17 3/9/17
f 3/9/17 30/27/17 4/6/17
f 26/30/27 29/17/27 7/5/27
f 7/5/28 9/1/28 8/2/28
f 8/2/29 10/11/29 12/7/29
f 12/7/30 11/8/30 26/30/30
f 26/30/31 7/5/31 8/2/31
f 36/24/12 30/20/12 2/10/12
f 19/5/32 37/28/32 33/21/32
f 33/21/33 23/8/33 24/7/33
f 24/7/34 22/11/34 20/2/34
f 20/2/35 21/1/35 19/5/35
f 19/5/36 33/21/36 24/7/36
f 36/24/20 14/10/20 15/9/20
f 15/9/20 13/12/20 17/4/20
f 17/4/20 18/3/20 16/6/20
f 16/6/20 34/29/20 36/24/20
f 36/24/20 15/9/20 17/4/20
f 4/6/11 25/13/11 34/29/11
f 33/21/11 26/16/11 11/8/11
