# Blender 5.0.1
# www.blender.org
mtllib DoubleDeckerBed01.mtl
o DoubleDeckerBed01
v 0.475000 0.000000 -0.374959
v 0.475000 1.600000 -0.374959
v 0.475000 0.000000 -0.424959
v 0.475000 1.600000 -0.424959
v 0.525000 0.000000 -0.374959
v 0.525000 1.600000 -0.374959
v 0.525000 0.000000 -0.424959
v 0.525000 1.600000 -0.424959
v 0.475000 0.000000 -0.874959
v 0.475000 1.600000 -0.874959
v 0.475000 0.000000 -0.924959
v 0.475000 1.600000 -0.924959
v 0.525000 0.000000 -0.874959
v 0.525000 1.600000 -0.874959
v 0.525000 0.000000 -0.924959
v 0.525000 1.600000 -0.924959
v 0.500000 0.985000 -0.900000
v 0.500000 0.985000 -0.400000
v 0.487010 1.007500 -0.900000
v 0.487010 1.007500 -0.400000
v 0.512990 1.007500 -0.900000
v 0.512990 1.007500 -0.400000
v 0.500000 0.785000 -0.900000
v 0.500000 0.785000 -0.400000
v 0.487010 0.807500 -0.900000
v 0.487010 0.807500 -0.400000
v 0.512990 0.807500 -0.900000
v 0.512990 0.807500 -0.400000
v 0.500000 0.585000 -0.900000
v 0.500000 0.585000 -0.400000
v 0.487010 0.607500 -0.900000
v 0.487010 0.607500 -0.400000
v 0.512990 0.607500 -0.900000
v 0.512990 0.607500 -0.400000
v 0.500000 0.385000 -0.900000
v 0.500000 0.385000 -0.400000
v 0.487010 0.407500 -0.900000
v 0.487010 0.407500 -0.400000
v 0.512990 0.407500 -0.900000
v 0.512990 0.407500 -0.400000
v 0.500000 0.185000 -0.900000
v 0.500000 0.185000 -0.400000
v 0.487010 0.207500 -0.900000
v 0.487010 0.207500 -0.400000
v 0.512990 0.207500 -0.900000
v 0.512990 0.207500 -0.400000
v 0.500000 1.185000 -0.900000
v 0.500000 1.185000 -0.400000
v 0.487010 1.207500 -0.900000
v 0.487010 1.207500 -0.400000
v 0.512990 1.207500 -0.900000
v 0.512990 1.207500 -0.400000
v 0.500000 1.385000 -0.900000
v 0.500000 1.385000 -0.400000
v 0.487010 1.407500 -0.900000
v 0.487010 1.407500 -0.400000
v 0.512990 1.407500 -0.900000
v 0.512990 1.407500 -0.400000
v -0.450939 0.600000 0.934009
v -0.434009 0.600000 0.950939
v 0.434009 0.600000 0.950939
v 0.450939 0.600000 0.934009
v -0.434009 0.600000 -0.950939
v -0.450939 0.600000 -0.934009
v 0.450939 0.600000 -0.934009
v 0.434009 0.600000 -0.950939
v -0.450000 1.600000 0.929289
v -0.429289 1.600000 0.950000
v 0.429289 1.600000 0.950000
v 0.450000 1.600000 0.929289
v -0.429289 1.600000 -0.950000
v -0.450000 1.600000 -0.929289
v 0.450000 1.600000 -0.929289
v 0.429289 1.600000 -0.950000
v -0.450939 0.500000 -0.934009
v -0.434009 0.500000 -0.950939
v -0.434009 0.500000 0.950939
v -0.450939 0.500000 0.934009
v 0.450939 0.500000 0.934009
v 0.434009 0.500000 0.950939
v 0.434009 0.500000 -0.950939
v 0.450939 0.500000 -0.934009
v -0.450939 1.500000 -0.934009
v -0.434009 1.500000 -0.950939
v -0.434009 1.500000 0.950939
v -0.450939 1.500000 0.934009
v 0.450939 1.500000 0.934009
v 0.434009 1.500000 0.950939
v 0.434009 1.500000 -0.950939
v 0.450939 1.500000 -0.934009
v -0.451405 0.600000 0.992937
v -0.492937 0.600000 0.951405
v -0.492937 0.500000 0.951405
v -0.451405 0.500000 0.992937
v -0.451405 0.500000 -0.992937
v -0.492937 0.500000 -0.951405
v -0.492937 0.600000 -0.951405
v -0.451405 0.600000 -0.992937
v -0.500000 1.600000 -0.950000
v -0.450000 1.600000 -1.000000
v -0.451405 1.500000 -0.992937
v -0.492937 1.500000 -0.951405
v 0.492937 1.500000 -0.951405
v 0.451405 1.500000 -0.992937
v 0.450000 1.600000 -1.000000
v 0.500000 1.600000 -0.950000
v 0.500000 1.600000 0.950000
v 0.450000 1.600000 1.000000
v 0.451405 1.500000 0.992937
v 0.492937 1.500000 0.951405
v -0.492937 1.500000 0.951405
v -0.451405 1.500000 0.992937
v -0.450000 1.600000 1.000000
v -0.500000 1.600000 0.950000
v 0.492937 0.500000 -0.951405
v 0.451405 0.500000 -0.992937
v 0.451405 0.600000 -0.992937
v 0.492937 0.600000 -0.951405
v 0.492937 0.600000 0.951405
v 0.451405 0.600000 0.992937
v 0.451405 0.500000 0.992937
v 0.492937 0.500000 0.951405
v -0.450000 0.600000 1.000000
v -0.500000 0.600000 0.950000
v -0.500000 0.500000 0.950000
v -0.450000 0.500000 1.000000
v -0.450000 0.500000 -1.000000
v -0.500000 0.500000 -0.950000
v -0.500000 0.600000 -0.950000
v -0.450000 0.600000 -1.000000
v -0.450000 1.500000 -1.000000
v -0.500000 1.500000 -0.950000
v 0.500000 1.500000 -0.950000
v 0.450000 1.500000 -1.000000
v 0.450000 1.500000 1.000000
v 0.500000 1.500000 0.950000
v -0.500000 1.500000 0.950000
v -0.450000 1.500000 1.000000
v 0.500000 0.500000 -0.950000
v 0.450000 0.500000 -1.000000
v 0.450000 0.600000 -1.000000
v 0.500000 0.600000 -0.950000
v 0.500000 0.600000 0.950000
v 0.450000 0.600000 1.000000
v 0.450000 0.500000 1.000000
v 0.500000 0.500000 0.950000
v -0.429289 0.600000 0.950000
v -0.450000 0.600000 0.929289
v -0.450000 0.500000 0.929289
v -0.429289 0.500000 0.950000
v -0.429289 0.500000 -0.950000
v -0.450000 0.500000 -0.929289
v -0.450000 0.600000 -0.929289
v -0.429289 0.600000 -0.950000
v -0.429289 1.500000 -0.950000
v -0.450000 1.500000 -0.929289
v 0.450000 1.500000 -0.929289
v 0.429289 1.500000 -0.950000
v 0.429289 1.500000 0.950000
v 0.450000 1.500000 0.929289
v -0.450000 1.500000 0.929289
v -0.429289 1.500000 0.950000
v 0.450000 0.500000 -0.929289
v 0.429289 0.500000 -0.950000
v 0.429289 0.600000 -0.950000
v 0.450000 0.600000 -0.929289
v 0.450000 0.600000 0.929289
v 0.429289 0.600000 0.950000
v 0.429289 0.500000 0.950000
v 0.450000 0.500000 0.929289
v 0.450939 0.000000 0.934009
v 0.492937 0.000000 0.951405
v 0.451405 0.000000 0.992937
v 0.434009 0.000000 0.950939
v -0.434009 0.000000 0.950939
v -0.450939 0.000000 0.934009
v -0.492937 0.000000 0.951405
v -0.451405 0.000000 0.992937
v -0.450939 0.000000 -0.934009
v -0.434009 0.000000 -0.950939
v -0.451405 0.000000 -0.992937
v -0.492937 0.000000 -0.951405
v 0.434009 0.000000 -0.950939
v 0.450939 0.000000 -0.934009
v 0.492937 0.000000 -0.951405
v 0.451405 0.000000 -0.992937
v 0.456450 0.510000 0.200000
v -0.456450 0.510000 0.200000
v -0.456450 0.510000 0.000000
v 0.456450 0.510000 -0.000000
v -0.456450 0.555000 0.025981
v 0.456450 0.555000 0.025981
v -0.456450 0.555000 -0.025981
v 0.456450 0.555000 -0.025981
v -0.456450 0.555000 0.225981
v 0.456450 0.555000 0.225981
v -0.456450 0.555000 0.174019
v 0.456450 0.555000 0.174019
v 0.456450 0.510000 0.400000
v -0.456450 0.510000 0.400000
v -0.456450 0.555000 0.425981
v 0.456450 0.555000 0.425981
v -0.456450 0.555000 0.374019
v 0.456450 0.555000 0.374019
v 0.456450 0.510000 0.600000
v -0.456450 0.510000 0.600000
v -0.456450 0.555000 0.625981
v 0.456450 0.555000 0.625981
v -0.456450 0.555000 0.574019
v 0.456450 0.555000 0.574019
v 0.456450 0.510000 0.800000
v -0.456450 0.510000 0.800000
v -0.456450 0.555000 0.825981
v 0.456450 0.555000 0.825981
v -0.456450 0.555000 0.774019
v 0.456450 0.555000 0.774019
v -0.456450 0.510000 -0.200000
v 0.456450 0.510000 -0.200000
v -0.456450 0.555000 -0.174019
v 0.456450 0.555000 -0.174019
v -0.456450 0.555000 -0.225981
v 0.456450 0.555000 -0.225981
v -0.456450 0.510000 -0.400000
v 0.456450 0.510000 -0.400000
v -0.456450 0.555000 -0.374019
v 0.456450 0.555000 -0.374019
v -0.456450 0.555000 -0.425981
v 0.456450 0.555000 -0.425981
v -0.456450 0.510000 -0.600000
v 0.456450 0.510000 -0.600000
v -0.456450 0.555000 -0.574019
v 0.456450 0.555000 -0.574019
v -0.456450 0.555000 -0.625981
v 0.456450 0.555000 -0.625981
v -0.456450 0.510000 -0.800000
v 0.456450 0.510000 -0.800000
v -0.456450 0.555000 -0.774019
v 0.456450 0.555000 -0.774019
v -0.456450 0.555000 -0.825981
v 0.456450 0.555000 -0.825981
v 0.456450 1.510000 0.200000
v -0.456450 1.510000 0.200000
v -0.456450 1.510000 0.000000
v 0.456450 1.510000 -0.000000
v -0.456450 1.555000 0.025981
v 0.456450 1.555000 0.025981
v -0.456450 1.555000 -0.025981
v 0.456450 1.555000 -0.025981
v -0.456450 1.555000 0.225981
v 0.456450 1.555000 0.225981
v -0.456450 1.555000 0.174019
v 0.456450 1.555000 0.174019
v 0.456450 1.510000 0.400000
v -0.456450 1.510000 0.400000
v -0.456450 1.555000 0.425981
v 0.456450 1.555000 0.425981
v -0.456450 1.555000 0.374019
v 0.456450 1.555000 0.374019
v 0.456450 1.510000 0.600000
v -0.456450 1.510000 0.600000
v -0.456450 1.555000 0.625981
v 0.456450 1.555000 0.625981
v -0.456450 1.555000 0.574019
v 0.456450 1.555000 0.574019
v 0.456450 1.510000 0.800000
v -0.456450 1.510000 0.800000
v -0.456450 1.555000 0.825981
v 0.456450 1.555000 0.825981
v -0.456450 1.555000 0.774019
v 0.456450 1.555000 0.774019
v -0.456450 1.510000 -0.200000
v 0.456450 1.510000 -0.200000
v -0.456450 1.555000 -0.174019
v 0.456450 1.555000 -0.174019
v -0.456450 1.555000 -0.225981
v 0.456450 1.555000 -0.225981
v -0.456450 1.510000 -0.400000
v 0.456450 1.510000 -0.400000
v -0.456450 1.555000 -0.374019
v 0.456450 1.555000 -0.374019
v -0.456450 1.555000 -0.425981
v 0.456450 1.555000 -0.425981
v -0.456450 1.510000 -0.600000
v 0.456450 1.510000 -0.600000
v -0.456450 1.555000 -0.574019
v 0.456450 1.555000 -0.574019
v -0.456450 1.555000 -0.625981
v 0.456450 1.555000 -0.625981
v -0.456450 1.510000 -0.800000
v 0.456450 1.510000 -0.800000
v -0.456450 1.555000 -0.774019
v 0.456450 1.555000 -0.774019
v -0.456450 1.555000 -0.825981
v 0.456450 1.555000 -0.825981
vn -1.0000 -0.0000 -0.0000
vn -0.0000 -0.0000 -1.0000
vn 1.0000 -0.0000 -0.0000
vn -0.0000 -0.0000 1.0000
vn -0.0000 -1.0000 -0.0000
vn -0.0000 1.0000 -0.0000
vn -0.8660 -0.5000 -0.0000
vn 0.8660 -0.5000 -0.0000
vn -0.7071 -0.0000 0.7071
vn -0.7071 -0.0000 -0.7071
vn 0.7071 -0.0000 -0.7071
vn 0.7071 -0.0000 0.7071
vn 0.3827 -0.0000 -0.9239
vn -0.9239 -0.0000 0.3827
vn -0.3827 -0.0000 -0.9239
vn 0.9239 -0.0000 0.3827
vn -0.3827 -0.0000 0.9239
vn 0.9239 -0.0000 -0.3827
vn 0.3827 -0.0000 0.9239
vn -0.9239 -0.0000 -0.3827
vn -0.0000 -0.5000 -0.8660
vn -0.0000 -0.5000 0.8660
vt 0.387126 0.354721
vt 0.395161 0.610489
vt 0.387126 0.610489
vt 0.568525 0.354721
vt 0.576560 0.602415
vt 0.568525 0.602415
vt 0.417359 0.354721
vt 0.425395 0.610489
vt 0.417359 0.610489
vt 0.598758 0.354721
vt 0.606794 0.602415
vt 0.598758 0.602415
vt 0.296356 0.962032
vt 0.304392 0.953996
vt 0.304392 0.962032
vt 0.272724 0.961632
vt 0.264688 0.953596
vt 0.272724 0.953596
vt 0.447592 0.354721
vt 0.455628 0.610489
vt 0.447592 0.610489
vt 0.538292 0.354721
vt 0.546327 0.602415
vt 0.538292 0.602415
vt 0.477825 0.354721
vt 0.485861 0.610489
vt 0.477825 0.610489
vt 0.508058 0.354721
vt 0.516094 0.602415
vt 0.508058 0.602415
vt 0.712384 0.954444
vt 0.704348 0.946409
vt 0.712384 0.946409
vt 0.241056 0.961632
vt 0.233020 0.953596
vt 0.241056 0.953596
vt 0.149698 0.867254
vt 0.153510 0.947610
vt 0.149698 0.947610
vt 0.804243 0.861455
vt 0.808418 0.941811
vt 0.804243 0.941811
vt 0.981942 0.381094
vt 0.985425 0.383181
vt 0.981942 0.385269
vt 0.101491 0.947610
vt 0.097679 0.867254
vt 0.101491 0.867254
vt 0.514733 0.962368
vt 0.511250 0.964455
vt 0.511250 0.960280
vt 0.175708 0.867254
vt 0.179520 0.947610
vt 0.175708 0.947610
vt 0.834528 0.861455
vt 0.838704 0.941811
vt 0.834528 0.941811
vt 0.981942 0.407467
vt 0.985425 0.409554
vt 0.981942 0.411642
vt 0.127501 0.947610
vt 0.123689 0.867254
vt 0.127501 0.867254
vt 0.985096 0.664469
vt 0.981613 0.666557
vt 0.981613 0.662382
vt 0.958996 0.113652
vt 0.962808 0.194008
vt 0.958996 0.194008
vt 0.864814 0.861455
vt 0.868989 0.941811
vt 0.864814 0.941811
vt 0.981942 0.354721
vt 0.985425 0.356808
vt 0.981942 0.358896
vt 0.955569 0.941811
vt 0.951757 0.861455
vt 0.955569 0.861455
vt 0.985523 0.569651
vt 0.981942 0.567736
vt 0.985523 0.565590
vt 0.201717 0.867254
vt 0.205530 0.947610
vt 0.201717 0.947610
vt 0.895099 0.861455
vt 0.899274 0.941811
vt 0.895099 0.941811
vt 0.985523 0.618107
vt 0.985523 0.622168
vt 0.981942 0.620253
vt 0.959744 0.537630
vt 0.955932 0.457274
vt 0.959744 0.457274
vt 0.985425 0.435927
vt 0.981942 0.438015
vt 0.981942 0.433839
vt 0.955932 0.559828
vt 0.959744 0.640184
vt 0.955932 0.640184
vt 0.925384 0.861455
vt 0.929559 0.941811
vt 0.925384 0.941811
vt 0.985523 0.591848
vt 0.985523 0.595909
vt 0.981942 0.593995
vt 0.962808 0.091455
vt 0.958996 0.011099
vt 0.962808 0.011099
vt 0.959416 0.664469
vt 0.955932 0.666557
vt 0.955932 0.662382
vt 0.962808 0.296562
vt 0.958996 0.216206
vt 0.962808 0.216206
vt 0.011099 0.867254
vt 0.015274 0.947610
vt 0.011099 0.947610
vt 0.985523 0.541478
vt 0.981942 0.543392
vt 0.981942 0.539331
vt 0.959481 0.772900
vt 0.955669 0.692544
vt 0.959481 0.692544
vt 0.985425 0.462300
vt 0.981942 0.464388
vt 0.981942 0.460212
vt 0.959744 0.435077
vt 0.955932 0.354721
vt 0.959744 0.354721
vt 0.041384 0.867254
vt 0.045559 0.947610
vt 0.041384 0.947610
vt 0.981942 0.512958
vt 0.985425 0.515046
vt 0.981942 0.517134
vt 0.075481 0.947610
vt 0.071669 0.867254
vt 0.075481 0.867254
vt 0.985425 0.488673
vt 0.981942 0.490761
vt 0.981942 0.486585
vt 0.194837 0.362756
vt 0.209994 0.354721
vt 0.210823 0.362756
vt 0.210823 0.668109
vt 0.194008 0.676145
vt 0.194837 0.668109
vt 0.598840 0.332523
vt 0.615654 0.324487
vt 0.614825 0.332523
vt 0.560657 0.332523
vt 0.575813 0.324487
vt 0.576642 0.332523
vt 0.576642 0.011099
vt 0.559828 0.019134
vt 0.560657 0.011099
vt 0.614825 0.011099
vt 0.599668 0.019134
vt 0.598840 0.011099
vt 0.638680 0.332523
vt 0.653837 0.324487
vt 0.654666 0.332523
vt 0.654666 0.011099
vt 0.637852 0.019134
vt 0.638680 0.011099
vt 0.644472 0.354721
vt 0.628991 0.499361
vt 0.628991 0.354721
vt 0.653837 0.019134
vt 0.637851 0.324487
vt 0.644472 0.521559
vt 0.628991 0.666200
vt 0.628991 0.521559
vt 0.599668 0.324487
vt 0.615654 0.019134
vt 0.682150 0.354721
vt 0.666669 0.499362
vt 0.666669 0.354721
vt 0.575813 0.019134
vt 0.559828 0.324487
vt 0.682150 0.521559
vt 0.666669 0.666200
vt 0.666670 0.521559
vt 0.022463 0.324487
vt 0.011099 0.324487
vt 0.019134 0.321159
vt 0.160447 0.324487
vt 0.171811 0.324487
vt 0.163775 0.332523
vt 0.160447 0.019134
vt 0.171811 0.019134
vt 0.163775 0.022463
vt 0.022463 0.019134
vt 0.011099 0.019134
vt 0.019134 0.011099
vt 0.202044 0.321159
vt 0.194008 0.019134
vt 0.202044 0.022463
vt 0.529595 0.022463
vt 0.537630 0.324487
vt 0.529595 0.321159
vt 0.205373 0.019134
vt 0.346685 0.011099
vt 0.343357 0.019134
vt 0.346685 0.022463
vt 0.354721 0.324487
vt 0.346685 0.321159
vt 0.343357 0.324487
vt 0.202044 0.332523
vt 0.205373 0.324487
vt 0.388282 0.019134
vt 0.529595 0.011099
vt 0.526266 0.019134
vt 0.384954 0.321159
vt 0.376918 0.019134
vt 0.384954 0.022463
vt 0.526266 0.324487
vt 0.384954 0.332523
vt 0.388282 0.324487
vt 0.019134 0.022463
vt 0.163775 0.366085
vt 0.171811 0.668109
vt 0.163775 0.664781
vt 0.163775 0.011099
vt 0.163775 0.321159
vt 0.019134 0.332523
vt 0.022463 0.362756
vt 0.163775 0.354721
vt 0.160447 0.362756
vt 0.019134 0.664781
vt 0.011099 0.362756
vt 0.019134 0.366085
vt 0.160447 0.668109
vt 0.019134 0.676145
vt 0.022463 0.668109
vt 0.287875 0.358049
vt 0.271890 0.656745
vt 0.271890 0.358049
vt 0.271547 0.660074
vt 0.287875 0.656745
vt 0.287532 0.660074
vt 0.692344 0.171280
vt 0.676863 0.309264
vt 0.676863 0.171280
vt 0.364585 0.656745
vt 0.348943 0.660074
vt 0.348599 0.656745
vt 0.364585 0.358049
vt 0.348599 0.358049
vt 0.364928 0.354721
vt 0.719829 0.354721
vt 0.704348 0.492705
vt 0.704348 0.354721
vt 0.287532 0.354721
vt 0.271547 0.354721
vt 0.310416 0.358049
vt 0.326059 0.354721
vt 0.326402 0.358049
vt 0.326402 0.656745
vt 0.310073 0.660074
vt 0.310416 0.656745
vt 0.249349 0.656745
vt 0.233020 0.660074
vt 0.233364 0.656745
vt 0.233364 0.358049
vt 0.249006 0.354721
vt 0.249349 0.358049
vt 0.692344 0.011099
vt 0.676863 0.149083
vt 0.676863 0.011099
vt 0.719829 0.514902
vt 0.704348 0.652886
vt 0.704348 0.514902
vt 0.201818 0.012234
vt 0.202044 0.011099
vt 0.529821 0.012234
vt 0.537630 0.019134
vt 0.536495 0.018909
vt 0.529821 0.331388
vt 0.529595 0.332523
vt 0.201818 0.331388
vt 0.194008 0.324487
vt 0.195144 0.324713
vt 0.164001 0.675010
vt 0.163775 0.676145
vt 0.018909 0.675010
vt 0.011099 0.668109
vt 0.012234 0.668335
vt 0.018909 0.355856
vt 0.019134 0.354721
vt 0.164001 0.355856
vt 0.171811 0.362756
vt 0.170676 0.362530
vt 0.384728 0.331388
vt 0.376918 0.324487
vt 0.378053 0.324713
vt 0.346911 0.331388
vt 0.346685 0.332523
vt 0.346911 0.012234
vt 0.354721 0.019134
vt 0.353585 0.018909
vt 0.384728 0.012234
vt 0.384954 0.011099
vt 0.201893 0.021704
vt 0.529746 0.021704
vt 0.527025 0.018984
vt 0.529746 0.321917
vt 0.201893 0.321917
vt 0.204614 0.324638
vt 0.163926 0.665539
vt 0.018984 0.665539
vt 0.021704 0.668260
vt 0.018984 0.365326
vt 0.163926 0.365326
vt 0.161205 0.362605
vt 0.384803 0.321917
vt 0.387524 0.324638
vt 0.346836 0.321917
vt 0.346836 0.021704
vt 0.344115 0.018984
vt 0.384803 0.021704
vt 0.204614 0.018984
vt 0.195144 0.018909
vt 0.527025 0.324638
vt 0.536495 0.324713
vt 0.161205 0.668260
vt 0.170676 0.668335
vt 0.021704 0.362605
vt 0.012234 0.362530
vt 0.344115 0.324638
vt 0.353585 0.324713
vt 0.387524 0.018984
vt 0.378053 0.018909
vt 0.543680 0.794275
vt 0.536931 0.932852
vt 0.536931 0.793524
vt 0.751497 0.521357
vt 0.748776 0.664946
vt 0.748776 0.521076
vt 0.742027 0.665234
vt 0.742027 0.521365
vt 0.606378 0.769171
vt 0.599704 0.624613
vt 0.606378 0.625301
vt 0.565878 0.933603
vt 0.572627 0.793524
vt 0.572627 0.932852
vt 0.714542 0.155249
vt 0.717263 0.011099
vt 0.717263 0.154969
vt 0.724012 0.011387
vt 0.724012 0.155257
vt 0.478771 0.633375
vt 0.485446 0.776556
vt 0.478771 0.777245
vt 0.721291 0.321324
vt 0.724012 0.177735
vt 0.724012 0.321605
vt 0.478771 0.938770
vt 0.485521 0.800193
vt 0.485521 0.939521
vt 0.599704 0.791368
vt 0.606378 0.935926
vt 0.599704 0.935238
vt 0.714542 0.321612
vt 0.721291 0.177454
vt 0.744747 0.354721
vt 0.742027 0.498871
vt 0.742027 0.355001
vt 0.393875 0.801598
vt 0.387126 0.941677
vt 0.387126 0.802349
vt 0.751497 0.355009
vt 0.744747 0.498590
vt 0.514733 0.937394
vt 0.508058 0.794213
vt 0.514733 0.793524
vt 0.424424 0.801598
vt 0.417674 0.881814
vt 0.417674 0.801886
vt 0.427145 0.801879
vt 0.424424 0.881526
vt 0.456017 0.802287
vt 0.449342 0.881526
vt 0.449342 0.801598
vt 0.748776 0.857094
vt 0.742027 0.933748
vt 0.742027 0.856343
vt 0.417674 0.945088
vt 0.424424 0.938445
vt 0.424424 0.942292
vt 0.331903 0.851183
vt 0.325229 0.931799
vt 0.325229 0.851871
vt 0.635741 0.857309
vt 0.628991 0.935464
vt 0.628991 0.858060
vt 0.707069 0.843995
vt 0.704348 0.924204
vt 0.704348 0.844276
vt 0.713818 0.844284
vt 0.707069 0.923923
vt 0.239770 0.851183
vt 0.233020 0.931399
vt 0.233020 0.851471
vt 0.361099 0.851871
vt 0.354424 0.931110
vt 0.354424 0.851183
vt 0.673419 0.858060
vt 0.666670 0.934714
vt 0.666670 0.857309
vt 0.242491 0.851463
vt 0.239770 0.931110
vt 0.303031 0.851183
vt 0.296356 0.931799
vt 0.296356 0.851871
vt 0.274159 0.851471
vt 0.267409 0.931110
vt 0.267409 0.851183
vt 0.264688 0.931391
vt 0.264688 0.851463
vt 0.780444 0.861455
vt 0.773695 0.939611
vt 0.773695 0.862206
vt 0.449342 0.936049
vt 0.456092 0.942692
vt 0.449342 0.945488
vt 0.424424 0.904012
vt 0.417674 0.910655
vt 0.417674 0.906808
vt 0.456092 0.913851
vt 0.449342 0.907208
vt 0.456092 0.904412
vt 0.742027 0.687432
vt 0.750114 0.834146
vt 0.742027 0.834146
vt 0.577506 0.771327
vt 0.569155 0.624613
vt 0.577506 0.624613
vt 0.773695 0.692544
vt 0.781782 0.839258
vt 0.773695 0.839258
vt 0.895099 0.972327
vt 0.895099 0.964009
vt 0.902321 0.968201
vt 0.101955 0.845056
vt 0.110042 0.698342
vt 0.110042 0.845056
vt 0.395477 0.779401
vt 0.387126 0.632687
vt 0.395477 0.632687
vt 0.196571 0.974000
vt 0.189349 0.978125
vt 0.189349 0.969808
vt 0.958996 0.318760
vt 0.966190 0.322935
vt 0.958996 0.327111
vt 0.812331 0.839258
vt 0.804243 0.692544
vt 0.812331 0.692544
vt 0.333783 0.958172
vt 0.326590 0.962347
vt 0.326590 0.953996
vt 0.842616 0.839258
vt 0.834528 0.692544
vt 0.842616 0.692544
vt 0.426025 0.779401
vt 0.417674 0.632687
vt 0.426025 0.632687
vt 0.363174 0.958172
vt 0.355981 0.962347
vt 0.355981 0.953996
vt 0.271656 0.682271
vt 0.263569 0.828985
vt 0.263569 0.682271
vt 0.711570 0.980834
vt 0.704348 0.984960
vt 0.704348 0.976642
vt 0.628991 0.688398
vt 0.637079 0.835112
vt 0.628991 0.835112
vt 0.456573 0.779401
vt 0.448223 0.632687
vt 0.456573 0.632687
vt 0.962863 0.799273
vt 0.955669 0.803448
vt 0.955669 0.795097
vt 0.834791 0.501435
vt 0.842879 0.354721
vt 0.842879 0.501435
vt 0.984989 0.861455
vt 0.984989 0.869773
vt 0.977767 0.865648
vt 0.049472 0.845056
vt 0.041384 0.698342
vt 0.049472 0.698342
vt 0.782045 0.501435
vt 0.773695 0.354721
vt 0.782045 0.354721
vt 0.047741 0.978125
vt 0.040519 0.974000
vt 0.047741 0.969808
vt 0.132240 0.698342
vt 0.140327 0.845056
vt 0.132240 0.845056
vt 0.804243 0.964009
vt 0.811436 0.968184
vt 0.804243 0.972360
vt 0.834791 0.670346
vt 0.842879 0.523632
vt 0.842879 0.670346
vt 0.782045 0.670346
vt 0.773695 0.523632
vt 0.782045 0.523632
vt 0.599185 0.958124
vt 0.606378 0.962299
vt 0.599185 0.966475
vt 0.301942 0.828985
vt 0.293854 0.682271
vt 0.301942 0.682271
vt 0.931741 0.972327
vt 0.924519 0.968201
vt 0.931741 0.964009
vt 0.666670 0.835112
vt 0.674757 0.688398
vt 0.674757 0.835112
vt 0.785109 0.157813
vt 0.776758 0.011099
vt 0.785109 0.011099
vt 0.478771 0.961719
vt 0.485965 0.965894
vt 0.478771 0.970070
vt 0.332227 0.828985
vt 0.324139 0.682271
vt 0.332227 0.682271
vt 0.872036 0.972327
vt 0.864814 0.968201
vt 0.872036 0.964009
vt 0.162525 0.698342
vt 0.170613 0.845056
vt 0.162525 0.845056
vt 0.754561 0.157813
vt 0.746210 0.011099
vt 0.754561 0.011099
vt 0.961161 0.968201
vt 0.953939 0.972326
vt 0.953939 0.964009
vt 0.011099 0.698342
vt 0.019186 0.845056
vt 0.011099 0.845056
vt 0.101089 0.978125
vt 0.101089 0.969808
vt 0.108312 0.974000
vt 0.071669 0.698342
vt 0.079757 0.845056
vt 0.071669 0.845056
vt 0.754561 0.326724
vt 0.746210 0.180010
vt 0.754561 0.180010
vt 0.078892 0.969808
vt 0.078892 0.978125
vt 0.071669 0.974000
vt 0.362512 0.828985
vt 0.354424 0.682271
vt 0.362512 0.682271
vt 0.424897 0.975603
vt 0.417674 0.971478
vt 0.424897 0.967286
vt 0.925384 0.692544
vt 0.933472 0.839258
vt 0.925384 0.839258
vt 0.785109 0.326724
vt 0.776758 0.180010
vt 0.785109 0.180010
vt 0.194008 0.698342
vt 0.202096 0.845056
vt 0.194008 0.845056
vt 0.544124 0.959976
vt 0.536931 0.964152
vt 0.536931 0.955801
vt 0.845943 0.157813
vt 0.837855 0.011099
vt 0.845943 0.011099
vt 0.812594 0.501435
vt 0.804243 0.354721
vt 0.812594 0.354721
vt 0.773695 0.961808
vt 0.780888 0.965984
vt 0.773695 0.970159
vt 0.137731 0.969808
vt 0.137731 0.978125
vt 0.130509 0.974000
vt 0.837855 0.180010
vt 0.845943 0.326724
vt 0.837855 0.326724
vt 0.573515 0.959976
vt 0.566322 0.964152
vt 0.566322 0.955801
vt 0.864814 0.692544
vt 0.872901 0.839258
vt 0.864814 0.839258
vt 0.812594 0.670346
vt 0.804243 0.523632
vt 0.812594 0.523632
vt 0.749220 0.960872
vt 0.742027 0.965047
vt 0.742027 0.956696
vt 0.873164 0.501435
vt 0.865077 0.354721
vt 0.873164 0.354721
vt 0.387126 0.963875
vt 0.394319 0.968050
vt 0.387126 0.972226
vt 0.873164 0.670346
vt 0.865077 0.523632
vt 0.873164 0.523632
vt 0.815657 0.157813
vt 0.807307 0.011099
vt 0.815657 0.011099
vt 0.977767 0.900288
vt 0.977767 0.891970
vt 0.984989 0.896163
vt 0.876228 0.157813
vt 0.868140 0.011099
vt 0.876228 0.011099
vt 0.834528 0.964009
vt 0.841722 0.968184
vt 0.834528 0.972360
vt 0.925647 0.354721
vt 0.933735 0.501435
vt 0.925647 0.501435
vt 0.815658 0.326724
vt 0.807307 0.180010
vt 0.815658 0.180010
vt 0.981679 0.731376
vt 0.981679 0.723059
vt 0.988901 0.727251
vt 0.876228 0.326724
vt 0.868140 0.180010
vt 0.876228 0.180010
vt 0.955669 0.825646
vt 0.962863 0.829821
vt 0.955669 0.833997
vt 0.933735 0.670346
vt 0.925647 0.523632
vt 0.933735 0.523632
vt 0.712699 0.821798
vt 0.704348 0.675084
vt 0.712699 0.675084
vt 0.167151 0.969808
vt 0.167151 0.978125
vt 0.159929 0.974000
vt 0.895099 0.692544
vt 0.903187 0.839258
vt 0.895099 0.839258
vt 0.636185 0.961837
vt 0.628991 0.966013
vt 0.628991 0.957662
vt 0.936799 0.157813
vt 0.928711 0.011099
vt 0.936799 0.011099
vt 0.241371 0.828985
vt 0.233020 0.682271
vt 0.241371 0.682271
vt 0.984989 0.926678
vt 0.977767 0.930803
vt 0.977767 0.922485
vt 0.928711 0.180010
vt 0.936798 0.326724
vt 0.928711 0.326724
vt 0.673863 0.961837
vt 0.666670 0.966013
vt 0.666670 0.957662
vt 0.895362 0.501435
vt 0.903450 0.354721
vt 0.903450 0.501435
vt 0.516409 0.771327
vt 0.508058 0.624613
vt 0.516409 0.624613
vt 0.988901 0.757766
vt 0.981679 0.761891
vt 0.981679 0.753574
vt 0.895362 0.523632
vt 0.903450 0.670346
vt 0.895362 0.670346
vt 0.456565 0.976003
vt 0.449342 0.971878
vt 0.456565 0.967686
vt 0.906513 0.157813
vt 0.898426 0.011099
vt 0.906513 0.011099
vt 0.546958 0.771327
vt 0.538607 0.624613
vt 0.546958 0.624613
vt 0.988901 0.696736
vt 0.981679 0.700861
vt 0.981679 0.692544
vt 0.898426 0.180010
vt 0.906513 0.326724
vt 0.898426 0.326724
vt 0.018321 0.978125
vt 0.011099 0.974000
vt 0.018321 0.969808
vt 0.395161 0.354721
vt 0.576560 0.354721
vt 0.425395 0.354721
vt 0.606794 0.354721
vt 0.296356 0.953996
vt 0.264688 0.961632
vt 0.455628 0.354721
vt 0.546327 0.354721
vt 0.485861 0.354721
vt 0.516094 0.354721
vt 0.704348 0.954444
vt 0.233020 0.961632
vt 0.153510 0.867254
vt 0.808418 0.861455
vt 0.097679 0.947610
vt 0.179520 0.867254
vt 0.838704 0.861455
vt 0.123689 0.947610
vt 0.962808 0.113652
vt 0.868989 0.861455
vt 0.951757 0.941811
vt 0.205529 0.867254
vt 0.899274 0.861455
vt 0.955932 0.537630
vt 0.959744 0.559828
vt 0.929559 0.861455
vt 0.958996 0.091455
vt 0.958996 0.296562
vt 0.015274 0.867254
vt 0.955669 0.772900
vt 0.955932 0.435077
vt 0.045559 0.867254
vt 0.071669 0.947610
vt 0.194008 0.354721
vt 0.209994 0.676145
vt 0.644472 0.499361
vt 0.644472 0.666200
vt 0.682150 0.499362
vt 0.682150 0.666200
vt 0.692344 0.309264
vt 0.364928 0.660074
vt 0.348943 0.354721
vt 0.719829 0.492705
vt 0.310073 0.354721
vt 0.326059 0.660074
vt 0.249006 0.660074
vt 0.233020 0.354721
vt 0.692344 0.149083
vt 0.719829 0.652886
vt 0.543680 0.933603
vt 0.751497 0.665227
vt 0.599704 0.768482
vt 0.565878 0.794275
vt 0.714542 0.011379
vt 0.485446 0.632687
vt 0.478771 0.799442
vt 0.606378 0.792057
vt 0.714542 0.177743
vt 0.393875 0.940926
vt 0.751497 0.498879
vt 0.508058 0.938082
vt 0.427145 0.881806
vt 0.456017 0.882214
vt 0.748776 0.934499
vt 0.417674 0.935649
vt 0.331903 0.931110
vt 0.635741 0.934714
vt 0.713818 0.924211
vt 0.361099 0.931799
vt 0.673419 0.935465
vt 0.242491 0.931391
vt 0.303031 0.931111
vt 0.274159 0.931399
vt 0.780444 0.938860
vt 0.456092 0.938845
vt 0.424424 0.913451
vt 0.449342 0.911056
vt 0.750114 0.687432
vt 0.569155 0.771327
vt 0.781782 0.692544
vt 0.101955 0.698342
vt 0.387126 0.779401
vt 0.804243 0.839258
vt 0.834528 0.839258
vt 0.417674 0.779401
vt 0.271656 0.828985
vt 0.637079 0.688398
vt 0.448223 0.779401
vt 0.834791 0.354721
vt 0.041384 0.845056
vt 0.773695 0.501435
vt 0.140327 0.698342
vt 0.834791 0.523632
vt 0.773695 0.670346
vt 0.293854 0.828985
vt 0.666670 0.688398
vt 0.776758 0.157813
vt 0.324139 0.828985
vt 0.170613 0.698342
vt 0.746210 0.157813
vt 0.019186 0.698342
vt 0.079757 0.698342
vt 0.746210 0.326724
vt 0.354424 0.828985
vt 0.933472 0.692544
vt 0.776758 0.326724
vt 0.202096 0.698342
vt 0.837855 0.157813
vt 0.804243 0.501435
vt 0.845943 0.180010
vt 0.872901 0.692544
vt 0.804243 0.670346
vt 0.865077 0.501435
vt 0.865077 0.670346
vt 0.807307 0.157813
vt 0.868140 0.157813
vt 0.933735 0.354721
vt 0.807307 0.326724
vt 0.868140 0.326724
vt 0.925647 0.670346
vt 0.704348 0.821798
vt 0.903187 0.692544
vt 0.928711 0.157813
vt 0.233020 0.828985
vt 0.936799 0.180010
vt 0.895362 0.354721
vt 0.508058 0.771327
vt 0.903450 0.523632
vt 0.898426 0.157813
vt 0.538607 0.771327
vt 0.906513 0.180010
s 0
usemtl 64x64grid
f 2/1/1 3/2/1 1/3/1
f 4/4/2 7/5/2 3/6/2
f 8/7/3 5/8/3 7/9/3
f 6/10/4 1/11/4 5/12/4
f 7/13/5 1/14/5 3/15/5
f 4/16/6 6/17/6 8/18/6
f 10/19/1 11/20/1 9/21/1
f 12/22/2 15/23/2 11/24/2
f 16/25/3 13/26/3 15/27/3
f 14/28/4 9/29/4 13/30/4
f 15/31/5 9/32/5 11/33/5
f 12/34/6 14/35/6 16/36/6
f 18/37/7 19/38/7 17/39/7
f 20/40/6 21/41/6 19/42/6
f 20/43/4 18/44/4 22/45/4
f 22/46/8 17/47/8 21/48/8
f 17/49/2 19/50/2 21/51/2
f 24/52/7 25/53/7 23/54/7
f 26/55/6 27/56/6 25/57/6
f 26/58/4 24/59/4 28/60/4
f 28/61/8 23/62/8 27/63/8
f 23/64/2 25/65/2 27/66/2
f 30/67/7 31/68/7 29/69/7
f 32/70/6 33/71/6 31/72/6
f 32/73/4 30/74/4 34/75/4
f 34/76/8 29/77/8 33/78/8
f 29/79/2 31/80/2 33/81/2
f 36/82/7 37/83/7 35/84/7
f 38/85/6 39/86/6 37/87/6
f 38/88/4 36/89/4 40/90/4
f 40/91/8 35/92/8 39/93/8
f 35/94/2 37/95/2 39/96/2
f 42/97/7 43/98/7 41/99/7
f 44/100/6 45/101/6 43/102/6
f 44/103/4 42/104/4 46/105/4
f 46/106/8 41/107/8 45/108/8
f 41/109/2 43/110/2 45/111/2
f 48/112/7 49/113/7 47/114/7
f 50/115/6 51/116/6 49/117/6
f 50/118/4 48/119/4 52/120/4
f 52/121/8 47/122/8 51/123/8
f 47/124/2 49/125/2 51/126/2
f 54/127/7 55/128/7 53/129/7
f 56/130/6 57/131/6 55/132/6
f 56/133/4 54/134/4 58/135/4
f 58/136/8 53/137/8 57/138/8
f 53/139/2 55/140/2 57/141/2
f 125/142/9 123/143/9 124/144/9
f 129/145/10 127/146/10 128/147/10
f 131/148/10 99/149/10 100/150/10
f 105/151/11 133/152/11 134/153/11
f 135/154/12 107/155/12 108/156/12
f 113/157/9 137/158/9 138/159/9
f 141/160/11 139/161/11 140/162/11
f 145/163/12 143/164/12 144/165/12
f 128/147/1 124/144/1 129/145/1
f 126/166/4 144/167/4 123/168/4
f 146/169/3 142/170/3 143/164/3
f 140/171/2 130/172/2 141/173/2
f 132/174/1 114/175/1 99/149/1
f 138/176/4 108/177/4 113/178/4
f 136/179/3 106/180/3 107/155/3
f 134/181/2 100/182/2 105/183/2
f 71/184/6 99/185/6 72/186/6
f 74/187/6 106/188/6 105/189/6
f 69/190/6 107/191/6 70/192/6
f 68/193/6 114/194/6 113/195/6
f 153/196/6 124/197/6 148/198/6
f 149/199/5 128/200/5 152/201/5
f 147/202/6 144/203/6 168/204/6
f 167/205/6 142/206/6 166/207/6
f 165/208/6 130/209/6 154/210/6
f 169/211/5 126/212/5 150/213/5
f 163/214/5 146/215/5 170/216/5
f 151/217/5 140/218/5 164/219/5
f 72/186/6 114/194/6 67/220/6
f 161/221/5 132/222/5 156/223/5
f 68/193/6 108/224/6 69/190/6
f 70/192/6 106/188/6 73/225/6
f 74/187/6 100/226/6 71/184/6
f 159/227/5 138/228/5 162/229/5
f 157/230/5 136/231/5 160/232/5
f 155/233/5 134/234/5 158/235/5
f 149/236/3 153/237/3 148/238/3
f 154/239/12 152/240/12 151/241/12
f 151/242/4 165/243/4 154/244/4
f 166/245/9 164/246/9 163/247/9
f 163/247/1 167/248/1 166/245/1
f 170/249/10 168/250/10 167/248/10
f 169/251/2 147/252/2 168/253/2
f 150/254/11 148/238/11 147/255/11
f 67/256/11 162/257/11 161/258/11
f 156/259/12 71/260/12 72/261/12
f 161/258/3 72/261/3 67/256/3
f 160/262/10 69/263/10 70/264/10
f 73/265/9 158/266/9 157/267/9
f 157/267/1 70/264/1 73/265/1
f 159/268/2 68/269/2 69/270/2
f 155/271/4 74/272/4 71/273/4
f 91/274/6 124/197/6 123/275/6
f 94/276/5 125/277/5 93/278/5
f 95/279/5 128/200/5 127/280/5
f 98/281/6 129/282/6 97/283/6
f 101/284/5 132/222/5 131/285/5
f 104/286/5 133/287/5 103/288/5
f 109/289/5 136/231/5 135/290/5
f 112/291/5 137/292/5 111/293/5
f 116/294/5 139/295/5 115/296/5
f 117/297/6 142/206/6 141/298/6
f 120/299/6 143/300/6 119/301/6
f 121/302/5 146/215/5 145/303/5
f 59/304/6 147/202/6 148/198/6
f 78/305/5 150/213/5 77/306/5
f 75/307/5 151/217/5 152/201/5
f 64/308/6 154/210/6 63/309/6
f 83/310/5 155/233/5 156/223/5
f 90/311/5 158/235/5 89/312/5
f 87/313/5 159/227/5 160/232/5
f 86/314/5 162/229/5 85/315/5
f 82/316/5 164/219/5 81/317/5
f 65/318/6 165/208/6 166/207/6
f 62/319/6 168/204/6 61/320/6
f 79/321/5 169/211/5 170/216/5
f 91/274/6 147/202/6 60/322/6
f 92/323/6 148/198/6 124/197/6
f 93/278/5 149/199/5 78/305/5
f 94/276/5 150/213/5 126/212/5
f 95/279/5 151/217/5 76/324/5
f 96/325/5 152/201/5 128/200/5
f 97/283/6 153/196/6 64/308/6
f 98/281/6 154/210/6 130/209/6
f 101/284/5 155/233/5 84/326/5
f 102/327/5 156/223/5 132/222/5
f 103/288/5 157/230/5 90/311/5
f 104/286/5 158/235/5 134/234/5
f 109/289/5 159/227/5 88/328/5
f 110/329/5 160/232/5 136/231/5
f 111/293/5 161/221/5 86/314/5
f 112/291/5 162/229/5 138/228/5
f 115/296/5 163/214/5 82/316/5
f 116/294/5 164/219/5 140/218/5
f 117/297/6 165/208/6 66/330/6
f 118/331/6 166/207/6 142/206/6
f 119/301/6 167/205/6 62/319/6
f 120/299/6 168/204/6 144/203/6
f 121/302/5 169/211/5 80/332/5
f 122/333/5 170/216/5 146/215/5
f 110/334/13 62/335/13 87/336/13
f 87/337/10 61/338/10 88/339/10
f 88/339/14 120/340/14 109/341/14
f 120/342/12 110/343/12 109/344/12
f 92/345/15 86/346/15 59/347/15
f 59/348/11 85/349/11 60/350/11
f 60/350/16 112/351/16 91/352/16
f 112/353/9 92/354/9 91/355/9
f 63/356/12 83/357/12 64/358/12
f 64/359/17 102/360/17 97/361/17
f 102/362/10 98/363/10 97/364/10
f 98/365/18 84/366/18 63/356/18
f 89/367/9 65/368/9 90/369/9
f 90/370/19 118/371/19 103/372/19
f 104/373/20 66/374/20 89/367/20
f 118/375/11 104/376/11 103/377/11
f 80/378/14 173/379/14 121/380/14
f 79/381/10 174/382/10 80/378/10
f 121/383/12 172/384/12 122/385/12
f 122/386/13 171/387/13 79/388/13
f 172/389/5 174/390/5 171/391/5
f 93/392/9 178/393/9 94/394/9
f 78/395/15 177/396/15 93/397/15
f 77/398/11 176/399/11 78/400/11
f 94/401/16 175/402/16 77/398/16
f 76/403/18 181/404/18 95/405/18
f 95/406/10 182/407/10 96/408/10
f 96/409/17 179/410/17 75/411/17
f 75/412/12 180/413/12 76/403/12
f 115/414/11 186/415/11 116/416/11
f 116/417/20 183/418/20 81/419/20
f 81/419/9 184/420/9 82/421/9
f 82/422/19 185/423/19 115/424/19
f 185/425/5 183/426/5 186/427/5
f 182/428/5 180/429/5 179/430/5
f 177/431/5 175/432/5 178/433/5
f 198/434/21 188/435/21 197/436/21
f 196/437/6 197/438/6 195/439/6
f 190/440/22 191/441/22 189/442/22
f 188/443/1 195/444/1 197/445/1
f 188/446/22 196/447/22 195/448/22
f 192/449/6 193/450/6 191/451/6
f 192/452/3 190/453/3 194/454/3
f 196/455/3 187/456/3 198/457/3
f 194/458/21 189/459/21 193/460/21
f 189/461/1 191/462/1 193/463/1
f 204/464/21 200/465/21 203/466/21
f 202/467/6 203/468/6 201/469/6
f 200/470/1 201/471/1 203/472/1
f 200/473/22 202/474/22 201/475/22
f 202/476/3 199/477/3 204/478/3
f 210/479/21 206/480/21 209/481/21
f 208/482/6 209/483/6 207/484/6
f 206/485/1 207/486/1 209/487/1
f 206/488/22 208/489/22 207/490/22
f 208/491/3 205/492/3 210/493/3
f 216/494/21 212/495/21 215/496/21
f 214/497/6 215/498/6 213/499/6
f 212/500/1 213/501/1 215/502/1
f 211/503/22 213/504/22 212/505/22
f 214/506/3 211/507/3 216/508/3
f 217/509/22 220/510/22 219/511/22
f 220/512/6 221/513/6 219/514/6
f 220/515/3 218/516/3 222/517/3
f 222/518/21 217/519/21 221/520/21
f 217/521/1 219/522/1 221/523/1
f 223/524/22 226/525/22 225/526/22
f 226/527/6 227/528/6 225/529/6
f 226/530/3 224/531/3 228/532/3
f 228/533/21 223/534/21 227/535/21
f 223/536/1 225/537/1 227/538/1
f 230/539/22 231/540/22 229/541/22
f 232/542/6 233/543/6 231/544/6
f 232/545/3 230/546/3 234/547/3
f 234/548/21 229/549/21 233/550/21
f 229/551/1 231/552/1 233/553/1
f 236/554/22 237/555/22 235/556/22
f 238/557/6 239/558/6 237/559/6
f 238/560/3 236/561/3 240/562/3
f 240/563/21 235/564/21 239/565/21
f 235/566/1 237/567/1 239/568/1
f 252/569/21 242/570/21 251/571/21
f 250/572/6 251/573/6 249/574/6
f 244/575/22 245/576/22 243/577/22
f 242/578/1 249/579/1 251/580/1
f 241/581/22 249/582/22 242/583/22
f 246/584/6 247/585/6 245/586/6
f 246/587/3 244/588/3 248/589/3
f 250/590/3 241/591/3 252/592/3
f 248/593/21 243/594/21 247/595/21
f 243/596/1 245/597/1 247/598/1
f 258/599/21 254/600/21 257/601/21
f 256/602/6 257/603/6 255/604/6
f 254/605/1 255/606/1 257/607/1
f 253/608/22 255/609/22 254/610/22
f 256/611/3 253/612/3 258/613/3
f 264/614/21 260/615/21 263/616/21
f 262/617/6 263/618/6 261/619/6
f 260/620/1 261/621/1 263/622/1
f 259/623/22 261/624/22 260/625/22
f 262/626/3 259/627/3 264/628/3
f 270/629/21 266/630/21 269/631/21
f 268/632/6 269/633/6 267/634/6
f 266/635/1 267/636/1 269/637/1
f 265/638/22 267/639/22 266/640/22
f 268/641/3 265/642/3 270/643/3
f 272/644/22 273/645/22 271/646/22
f 274/647/6 275/648/6 273/649/6
f 274/650/3 272/651/3 276/652/3
f 276/653/21 271/654/21 275/655/21
f 271/656/1 273/657/1 275/658/1
f 278/659/22 279/660/22 277/661/22
f 280/662/6 281/663/6 279/664/6
f 280/665/3 278/666/3 282/667/3
f 282/668/21 277/669/21 281/670/21
f 277/671/1 279/672/1 281/673/1
f 283/674/22 286/675/22 285/676/22
f 286/677/6 287/678/6 285/679/6
f 286/680/3 284/681/3 288/682/3
f 288/683/21 283/684/21 287/685/21
f 283/686/1 285/687/1 287/688/1
f 290/689/22 291/690/22 289/691/22
f 292/692/6 293/693/6 291/694/6
f 292/695/3 290/696/3 294/697/3
f 294/698/21 289/699/21 293/700/21
f 289/701/1 291/702/1 293/703/1
f 2/1/1 4/704/1 3/2/1
f 4/4/2 8/705/2 7/5/2
f 8/7/3 6/706/3 5/8/3
f 6/10/4 2/707/4 1/11/4
f 7/13/5 5/708/5 1/14/5
f 4/16/6 2/709/6 6/17/6
f 10/19/1 12/710/1 11/20/1
f 12/22/2 16/711/2 15/23/2
f 16/25/3 14/712/3 13/26/3
f 14/28/4 10/713/4 9/29/4
f 15/31/5 13/714/5 9/32/5
f 12/34/6 10/715/6 14/35/6
f 18/37/7 20/716/7 19/38/7
f 20/40/6 22/717/6 21/41/6
f 22/46/8 18/718/8 17/47/8
f 24/52/7 26/719/7 25/53/7
f 26/55/6 28/720/6 27/56/6
f 28/61/8 24/721/8 23/62/8
f 30/67/7 32/722/7 31/68/7
f 32/70/6 34/723/6 33/71/6
f 34/76/8 30/724/8 29/77/8
f 36/82/7 38/725/7 37/83/7
f 38/85/6 40/726/6 39/86/6
f 40/91/8 36/727/8 35/92/8
f 42/97/7 44/728/7 43/98/7
f 44/100/6 46/729/6 45/101/6
f 46/106/8 42/730/8 41/107/8
f 48/112/7 50/731/7 49/113/7
f 50/115/6 52/732/6 51/116/6
f 52/121/8 48/733/8 47/122/8
f 54/127/7 56/734/7 55/128/7
f 56/130/6 58/735/6 57/131/6
f 58/136/8 54/736/8 53/137/8
f 125/142/9 126/737/9 123/143/9
f 129/145/10 130/738/10 127/146/10
f 131/148/10 132/174/10 99/149/10
f 105/151/11 106/180/11 133/152/11
f 135/154/12 136/179/12 107/155/12
f 113/157/9 114/175/9 137/158/9
f 141/160/11 142/170/11 139/161/11
f 145/163/12 146/169/12 143/164/12
f 128/147/1 125/142/1 124/144/1
f 126/166/4 145/739/4 144/167/4
f 146/169/3 139/161/3 142/170/3
f 140/171/2 127/740/2 130/172/2
f 132/174/1 137/158/1 114/175/1
f 138/176/4 135/741/4 108/177/4
f 136/179/3 133/152/3 106/180/3
f 134/181/2 131/742/2 100/182/2
f 71/184/6 100/226/6 99/185/6
f 74/187/6 73/225/6 106/188/6
f 69/190/6 108/224/6 107/191/6
f 68/193/6 67/220/6 114/194/6
f 153/196/6 129/282/6 124/197/6
f 149/199/5 125/277/5 128/200/5
f 147/202/6 123/275/6 144/203/6
f 167/205/6 143/300/6 142/206/6
f 165/208/6 141/298/6 130/209/6
f 169/211/5 145/303/5 126/212/5
f 163/214/5 139/295/5 146/215/5
f 151/217/5 127/280/5 140/218/5
f 72/186/6 99/185/6 114/194/6
f 161/221/5 137/292/5 132/222/5
f 68/193/6 113/195/6 108/224/6
f 70/192/6 107/191/6 106/188/6
f 74/187/6 105/189/6 100/226/6
f 159/227/5 135/290/5 138/228/5
f 157/230/5 133/287/5 136/231/5
f 155/233/5 131/285/5 134/234/5
f 149/236/3 152/240/3 153/237/3
f 154/239/12 153/237/12 152/240/12
f 151/242/4 164/743/4 165/243/4
f 166/245/9 165/744/9 164/246/9
f 163/247/1 170/249/1 167/248/1
f 170/249/10 169/745/10 168/250/10
f 169/251/2 150/746/2 147/252/2
f 150/254/11 149/236/11 148/238/11
f 67/256/11 68/747/11 162/257/11
f 156/259/12 155/748/12 71/260/12
f 161/258/3 156/259/3 72/261/3
f 160/262/10 159/749/10 69/263/10
f 73/265/9 74/750/9 158/266/9
f 157/267/1 160/262/1 70/264/1
f 159/268/2 162/751/2 68/269/2
f 155/271/4 158/752/4 74/272/4
f 91/274/6 92/323/6 124/197/6
f 94/276/5 126/212/5 125/277/5
f 95/279/5 96/325/5 128/200/5
f 98/281/6 130/209/6 129/282/6
f 101/284/5 102/327/5 132/222/5
f 104/286/5 134/234/5 133/287/5
f 109/289/5 110/329/5 136/231/5
f 112/291/5 138/228/5 137/292/5
f 116/294/5 140/218/5 139/295/5
f 117/297/6 118/331/6 142/206/6
f 120/299/6 144/203/6 143/300/6
f 121/302/5 122/333/5 146/215/5
f 59/304/6 60/322/6 147/202/6
f 78/305/5 149/199/5 150/213/5
f 75/307/5 76/324/5 151/217/5
f 64/308/6 153/196/6 154/210/6
f 83/310/5 84/326/5 155/233/5
f 90/311/5 157/230/5 158/235/5
f 87/313/5 88/328/5 159/227/5
f 86/314/5 161/221/5 162/229/5
f 82/316/5 163/214/5 164/219/5
f 65/318/6 66/330/6 165/208/6
f 62/319/6 167/205/6 168/204/6
f 79/321/5 80/332/5 169/211/5
f 91/274/6 123/275/6 147/202/6
f 92/323/6 59/304/6 148/198/6
f 93/278/5 125/277/5 149/199/5
f 94/276/5 77/306/5 150/213/5
f 95/279/5 127/280/5 151/217/5
f 96/325/5 75/307/5 152/201/5
f 97/283/6 129/282/6 153/196/6
f 98/281/6 63/309/6 154/210/6
f 101/284/5 131/285/5 155/233/5
f 102/327/5 83/310/5 156/223/5
f 103/288/5 133/287/5 157/230/5
f 104/286/5 89/312/5 158/235/5
f 109/289/5 135/290/5 159/227/5
f 110/329/5 87/313/5 160/232/5
f 111/293/5 137/292/5 161/221/5
f 112/291/5 85/315/5 162/229/5
f 115/296/5 139/295/5 163/214/5
f 116/294/5 81/317/5 164/219/5
f 117/297/6 141/298/6 165/208/6
f 118/331/6 65/318/6 166/207/6
f 119/301/6 143/300/6 167/205/6
f 120/299/6 61/320/6 168/204/6
f 121/302/5 145/303/5 169/211/5
f 122/333/5 79/321/5 170/216/5
f 110/334/13 119/753/13 62/335/13
f 87/337/10 62/754/10 61/338/10
f 88/339/14 61/338/14 120/340/14
f 120/342/12 119/755/12 110/343/12
f 92/345/15 111/756/15 86/346/15
f 59/348/11 86/757/11 85/349/11
f 60/350/16 85/349/16 112/351/16
f 112/353/9 111/758/9 92/354/9
f 63/356/12 84/366/12 83/357/12
f 64/359/17 83/759/17 102/360/17
f 102/362/10 101/760/10 98/363/10
f 98/365/18 101/761/18 84/366/18
f 89/367/9 66/374/9 65/368/9
f 90/370/19 65/762/19 118/371/19
f 104/373/20 117/763/20 66/374/20
f 118/375/11 117/764/11 104/376/11
f 80/378/14 174/382/14 173/379/14
f 79/381/10 171/765/10 174/382/10
f 121/383/12 173/766/12 172/384/12
f 122/386/13 172/767/13 171/387/13
f 172/389/5 173/768/5 174/390/5
f 93/392/9 177/769/9 178/393/9
f 78/395/15 176/770/15 177/396/15
f 77/398/11 175/402/11 176/399/11
f 94/401/16 178/771/16 175/402/16
f 76/403/18 180/413/18 181/404/18
f 95/406/10 181/772/10 182/407/10
f 96/409/17 182/773/17 179/410/17
f 75/412/12 179/774/12 180/413/12
f 115/414/11 185/775/11 186/415/11
f 116/417/20 186/776/20 183/418/20
f 81/419/9 183/418/9 184/420/9
f 82/422/19 184/777/19 185/423/19
f 185/425/5 184/778/5 183/426/5
f 182/428/5 181/779/5 180/429/5
f 177/431/5 176/780/5 175/432/5
f 198/434/21 187/781/21 188/435/21
f 196/437/6 198/782/6 197/438/6
f 190/440/22 192/783/22 191/441/22
f 188/446/22 187/784/22 196/447/22
f 192/449/6 194/785/6 193/450/6
f 194/458/21 190/786/21 189/459/21
f 204/464/21 199/787/21 200/465/21
f 202/467/6 204/788/6 203/468/6
f 200/473/22 199/789/22 202/474/22
f 210/479/21 205/790/21 206/480/21
f 208/482/6 210/791/6 209/483/6
f 206/488/22 205/792/22 208/489/22
f 216/494/21 211/793/21 212/495/21
f 214/497/6 216/794/6 215/498/6
f 211/503/22 214/795/22 213/504/22
f 217/509/22 218/796/22 220/510/22
f 220/512/6 222/797/6 221/513/6
f 222/518/21 218/798/21 217/519/21
f 223/524/22 224/799/22 226/525/22
f 226/527/6 228/800/6 227/528/6
f 228/533/21 224/801/21 223/534/21
f 230/539/22 232/802/22 231/540/22
f 232/542/6 234/803/6 233/543/6
f 234/548/21 230/804/21 229/549/21
f 236/554/22 238/805/22 237/555/22
f 238/557/6 240/806/6 239/558/6
f 240/563/21 236/807/21 235/564/21
f 252/569/21 241/808/21 242/570/21
f 250/572/6 252/809/6 251/573/6
f 244/575/22 246/810/22 245/576/22
f 241/581/22 250/811/22 249/582/22
f 246/584/6 248/812/6 247/585/6
f 248/593/21 244/813/21 243/594/21
f 258/599/21 253/814/21 254/600/21
f 256/602/6 258/815/6 257/603/6
f 253/608/22 256/816/22 255/609/22
f 264/614/21 259/817/21 260/615/21
f 262/617/6 264/818/6 263/618/6
f 259/623/22 262/819/22 261/624/22
f 270/629/21 265/820/21 266/630/21
f 268/632/6 270/821/6 269/633/6
f 265/638/22 268/822/22 267/639/22
f 272/644/22 274/823/22 273/645/22
f 274/647/6 276/824/6 275/648/6
f 276/653/21 272/825/21 271/654/21
f 278/659/22 280/826/22 279/660/22
f 280/662/6 282/827/6 281/663/6
f 282/668/21 278/828/21 277/669/21
f 283/674/22 284/829/22 286/675/22
f 286/677/6 288/830/6 287/678/6
f 288/683/21 284/831/21 283/684/21
f 290/689/22 292/832/22 291/690/22
f 292/692/6 294/833/6 293/693/6
f 294/698/21 290/834/21 289/699/21
