# Blender 5.0.1
# www.blender.org
mtllib CheapDesk.mtl
o CheapDesk
v -0.500000 0.740000 0.300000
v -0.500000 0.700000 0.300000
v -0.500000 0.700000 -0.300000
v 0.500000 0.700000 -0.300000
v 0.500000 0.700000 0.300000
v -0.500000 0.740000 -0.300000
v 0.500000 0.740000 -0.300000
v 0.500000 0.740000 0.300000
v -0.425000 0.000000 0.225000
v -0.425000 0.707599 0.225000
v -0.425000 0.000000 0.175000
v -0.425000 0.707599 0.175000
v -0.375000 0.000000 0.225000
v -0.375000 0.707599 0.225000
v -0.375000 0.000000 0.175000
v -0.375000 0.707599 0.175000
v 0.375000 0.000000 0.225000
v 0.375000 0.707599 0.225000
v 0.375000 0.000000 0.175000
v 0.375000 0.707599 0.175000
v 0.425000 0.000000 0.225000
v 0.425000 0.707599 0.225000
v 0.425000 0.000000 0.175000
v 0.425000 0.707599 0.175000
v -0.425000 0.000000 -0.175000
v -0.425000 0.709746 -0.175000
v -0.425000 0.000000 -0.225000
v -0.425000 0.709746 -0.225000
v -0.375000 0.000000 -0.175000
v -0.375000 0.709746 -0.175000
v -0.375000 0.000000 -0.225000
v -0.375000 0.709746 -0.225000
v 0.375000 0.000000 -0.175000
v 0.375000 0.709746 -0.175000
v 0.375000 0.000000 -0.225000
v 0.375000 0.709746 -0.225000
v 0.425000 0.000000 -0.175000
v 0.425000 0.709746 -0.175000
v 0.425000 0.000000 -0.225000
v 0.425000 0.709746 -0.225000
v -0.250000 0.600294 0.250000
v -0.250000 0.700294 0.250000
v 0.250000 0.600294 -0.050000
v -0.250000 0.700294 -0.050000
v 0.250000 0.600294 0.250000
v 0.250000 0.700294 0.250000
v -0.250000 0.600294 -0.050000
v 0.250000 0.700294 -0.050000
v -0.250000 0.580294 -0.050000
v -0.250000 0.580294 0.250000
v 0.250000 0.580294 -0.050000
v 0.250000 0.580294 0.250000
v -0.270000 0.600294 -0.050000
v -0.270000 0.600294 0.250000
v -0.270000 0.700294 0.250000
v -0.270000 0.700294 -0.050000
v -0.270000 0.580294 -0.050000
v -0.270000 0.580294 0.250000
v 0.270000 0.700294 -0.050000
v 0.270000 0.600294 -0.050000
v 0.270000 0.600294 0.250000
v 0.270000 0.700294 0.250000
v 0.270000 0.580294 0.250000
v 0.270000 0.580294 -0.050000
v -0.250000 0.580294 -0.070000
v -0.270000 0.580294 -0.070000
v -0.250000 0.700294 -0.070000
v -0.250000 0.600294 -0.070000
v 0.250000 0.600294 -0.070000
v 0.250000 0.700294 -0.070000
v 0.250000 0.580294 -0.070000
v -0.270000 0.700294 -0.070000
v -0.270000 0.600294 -0.070000
v 0.270000 0.700294 -0.070000
v 0.270000 0.600294 -0.070000
v 0.270000 0.580294 -0.070000
vn -0.0000 -1.0000 -0.0000
vn -1.0000 -0.0000 -0.0000
vn 1.0000 -0.0000 -0.0000
vn -0.0000 -0.0000 1.0000
vn -0.0000 -0.0000 -1.0000
vn -0.0000 1.0000 -0.0000
vt 0.062500 0.062500
vt 0.562500 0.375000
vt 0.062500 0.375000
vt 0.031250 0.062500
vt 0.593750 0.375000
vt 0.562500 0.062500
vt 0.593750 0.062500
vt 0.562500 0.031250
vt 0.062500 0.406250
vt 0.562500 0.406250
vt 0.656250 0.437500
vt 0.625000 0.062500
vt 0.656250 0.062500
vt 0.750000 0.437500
vt 0.718750 0.062500
vt 0.750000 0.062500
vt 0.718750 0.437500
vt 0.687500 0.062500
vt 0.687500 0.437500
vt 0.718750 0.031250
vt 0.750000 0.031250
vt 0.625000 0.031250
vt 0.656250 0.031250
vt 0.687500 0.031250
vt 0.156250 0.656250
vt 0.125000 0.687500
vt 0.125000 0.656250
vt 0.500000 0.656250
vt 0.468750 0.687500
vt 0.468750 0.656250
vt 0.468750 0.437500
vt 0.500000 0.468750
vt 0.468750 0.468750
vt 0.156250 0.687500
vt 0.500000 0.531250
vt 0.468750 0.531250
vt 0.156250 0.468750
vt 0.562500 0.656250
vt 0.500000 0.687500
vt 0.562500 0.468750
vt 0.156250 0.531250
vt 0.125000 0.468750
vt 0.125000 0.437500
vt 0.156250 0.437500
vt 0.062500 0.656250
vt 0.500000 0.750000
vt 0.468750 0.750000
vt 0.156250 0.750000
vt 0.062500 0.687500
vt 0.531250 0.656250
vt 0.531250 0.468750
vt 0.156250 0.718750
vt 0.468750 0.718750
vt 0.093750 0.468750
vt 0.031250 0.375000
vt 0.062500 0.031250
vt 0.625000 0.437500
vt 0.500000 0.437500
vt 0.562500 0.687500
vt 0.125000 0.531250
vt 0.062500 0.468750
vt 0.125000 0.750000
vt 0.093750 0.656250
s 0
usemtl CheapDesk
f 5/1/1 3/2/1 4/3/1
f 6/3/2 2/4/2 1/1/2
f 4/5/3 8/6/3 5/7/3
f 1/1/4 5/8/4 8/6/4
f 3/9/5 7/2/5 4/10/5
f 6/3/6 8/6/6 7/2/6
f 10/11/2 11/12/2 9/13/2
f 12/14/5 15/15/5 11/16/5
f 16/17/3 13/18/3 15/15/3
f 14/19/4 9/13/4 13/18/4
f 15/16/1 9/20/1 11/21/1
f 18/11/2 19/12/2 17/13/2
f 20/14/5 23/15/5 19/16/5
f 24/17/3 21/18/3 23/15/3
f 22/19/4 17/13/4 21/18/4
f 23/13/1 17/22/1 19/23/1
f 26/11/2 27/12/2 25/13/2
f 28/14/5 31/15/5 27/16/5
f 32/17/3 29/18/3 31/15/3
f 30/19/4 25/13/4 29/18/4
f 31/15/1 25/24/1 27/20/1
f 34/11/2 35/12/2 33/13/2
f 36/14/5 39/15/5 35/16/5
f 40/17/3 37/18/3 39/15/3
f 38/19/4 33/13/4 37/18/4
f 39/18/1 33/23/1 35/24/1
f 51/25/1 76/26/1 64/27/1
f 57/28/1 65/29/1 49/30/1
f 52/31/4 61/32/4 45/33/4
f 51/25/1 50/33/1 49/30/1
f 49/30/1 71/34/1 51/25/1
f 45/33/4 62/35/4 46/36/4
f 41/37/4 52/31/4 45/33/4
f 56/38/2 73/39/2 53/28/2
f 55/40/2 53/28/2 54/32/2
f 53/28/2 58/33/2 54/32/2
f 42/41/4 54/42/4 41/37/4
f 50/33/1 57/28/1 49/30/1
f 41/37/4 58/43/4 50/44/4
f 59/45/3 61/42/3 60/27/3
f 61/42/3 64/25/3 60/27/3
f 51/25/1 63/42/1 52/37/1
f 68/29/5 72/46/5 67/47/5
f 67/47/5 69/34/5 68/29/5
f 65/30/5 73/39/5 68/29/5
f 69/34/5 65/30/5 68/29/5
f 69/34/5 76/27/5 71/25/5
f 70/48/5 75/26/5 69/34/5
f 64/25/3 75/26/3 60/27/3
f 53/28/2 66/29/2 57/30/2
f 60/27/3 74/49/3 59/45/3
f 45/33/6 47/25/6 41/37/6
f 48/50/2 45/33/2 46/51/2
f 44/52/4 43/30/4 48/53/4
f 47/25/3 42/54/3 41/37/3
f 5/1/1 2/6/1 3/2/1
f 6/3/2 3/55/2 2/4/2
f 4/5/3 7/2/3 8/6/3
f 1/1/4 2/56/4 5/8/4
f 3/9/5 6/3/5 7/2/5
f 6/3/6 1/1/6 8/6/6
f 10/11/2 12/57/2 11/12/2
f 12/14/5 16/17/5 15/15/5
f 16/17/3 14/19/3 13/18/3
f 14/19/4 10/11/4 9/13/4
f 15/16/1 13/15/1 9/20/1
f 18/11/2 20/57/2 19/12/2
f 20/14/5 24/17/5 23/15/5
f 24/17/3 22/19/3 21/18/3
f 22/19/4 18/11/4 17/13/4
f 23/13/1 21/12/1 17/22/1
f 26/11/2 28/57/2 27/12/2
f 28/14/5 32/17/5 31/15/5
f 32/17/3 30/19/3 29/18/3
f 30/19/4 26/11/4 25/13/4
f 31/15/1 29/18/1 25/24/1
f 34/11/2 36/57/2 35/12/2
f 36/14/5 40/17/5 39/15/5
f 40/17/3 38/19/3 37/18/3
f 38/19/4 34/11/4 33/13/4
f 39/18/1 37/13/1 33/23/1
f 51/25/1 71/34/1 76/26/1
f 57/28/1 66/39/1 65/29/1
f 52/31/4 63/58/4 61/32/4
f 51/25/1 52/37/1 50/33/1
f 49/30/1 65/29/1 71/34/1
f 45/33/4 61/32/4 62/35/4
f 41/37/4 50/44/4 52/31/4
f 56/38/2 72/59/2 73/39/2
f 55/40/2 56/38/2 53/28/2
f 53/28/2 57/30/2 58/33/2
f 42/41/4 55/60/4 54/42/4
f 50/33/1 58/32/1 57/28/1
f 41/37/4 54/42/4 58/43/4
f 59/45/3 62/61/3 61/42/3
f 61/42/3 63/37/3 64/25/3
f 51/25/1 64/27/1 63/42/1
f 68/29/5 73/39/5 72/46/5
f 67/47/5 70/48/5 69/34/5
f 65/30/5 66/28/5 73/39/5
f 69/34/5 71/25/5 65/30/5
f 69/34/5 75/26/5 76/27/5
f 70/48/5 74/62/5 75/26/5
f 64/25/3 76/34/3 75/26/3
f 53/28/2 73/39/2 66/29/2
f 60/27/3 75/26/3 74/49/3
f 45/33/6 43/30/6 47/25/6
f 48/50/2 43/30/2 45/33/2
f 44/52/4 47/25/4 43/30/4
f 47/25/3 44/63/3 42/54/3
l 49 47
l 51 43
