# Blender 5.1.0
# www.blender.org
mtllib Bucket.mtl
o _Bucket
v 0.000000 0.000000 -0.114020
v 0.000000 0.300000 -0.138821
v 0.080625 0.000000 -0.080625
v 0.098161 0.300000 -0.098161
v 0.114020 0.000000 0.000000
v 0.138821 0.300000 0.000000
v 0.080625 0.000000 0.080625
v 0.098161 0.300000 0.098161
v 0.000000 0.000000 0.114020
v 0.000000 0.300000 0.138821
v -0.080625 0.000000 0.080625
v -0.098161 0.300000 0.098161
v -0.114020 0.000000 0.000000
v -0.138821 0.300000 0.000000
v -0.080625 0.000000 -0.080625
v -0.098161 0.300000 -0.098161
v 0.106066 0.300000 -0.106066
v 0.000000 0.300000 -0.150000
v 0.150000 0.300000 0.000000
v 0.106066 0.300000 0.106066
v 0.000000 0.300000 0.150000
v -0.106066 0.300000 0.106066
v -0.150000 0.300000 0.000000
v -0.106066 0.300000 -0.106066
v 0.074316 0.007726 -0.074316
v -0.000000 0.007726 -0.105099
v 0.105099 0.007726 0.000000
v 0.074316 0.007726 0.074316
v -0.000000 0.007726 0.105099
v -0.074316 0.007726 0.074316
v -0.105099 0.007726 0.000000
v -0.074316 0.007726 -0.074316
v -0.060464 0.170704 0.137886
v 0.060464 0.170704 0.137886
v -0.060464 0.180481 0.139989
v 0.060464 0.180481 0.139989
v -0.128332 0.223701 0.092575
v 0.128332 0.223701 0.092575
v -0.121549 0.229261 0.095369
v 0.121549 0.229261 0.095369
v -0.151744 0.297076 -0.001612
v 0.151744 0.297076 -0.001612
v -0.150871 0.300904 0.006144
v 0.150871 0.300904 0.006144
v -0.059901 0.171292 0.137331
v 0.059901 0.171292 0.137331
v -0.059901 0.180977 0.139415
v 0.059901 0.180977 0.139415
v -0.127135 0.223794 0.092443
v 0.127135 0.223794 0.092443
v -0.120416 0.229302 0.095211
v 0.120416 0.229302 0.095211
v -0.150330 0.296485 -0.000866
v 0.150330 0.296485 -0.000866
v -0.149464 0.300277 0.006818
v 0.149464 0.300277 0.006818
vn 0.3804 -0.1101 -0.9183
vn 0.9183 -0.1101 -0.3804
vn 0.9183 -0.1101 0.3804
vn 0.3804 -0.1101 0.9183
vn -0.3804 -0.1101 0.9183
vn -0.9183 -0.1101 0.3804
vn 0.9187 0.1060 0.3805
vn -0.9183 -0.1101 -0.3804
vn -0.3804 -0.1101 -0.9183
vn -0.0000 -1.0000 -0.0000
vn -0.0000 1.0000 -0.0000
vn 0.3805 0.1060 -0.9187
vn -0.9187 0.1060 -0.3805
vn -0.3805 0.1060 0.9187
vn 0.3805 0.1060 0.9187
vn 0.9187 0.1060 -0.3805
vn -0.3805 0.1060 -0.9187
vn -0.9187 0.1060 0.3805
vn -0.0000 -0.2104 0.9776
vn 0.4902 0.1683 0.8552
vn -0.6327 -0.1629 0.7571
vn 0.6410 0.4818 0.5975
vn -0.9812 -0.1048 0.1622
vn -0.0000 0.2104 -0.9776
vn -0.6327 0.1629 -0.7571
vn 0.6327 0.1629 -0.7571
vn -0.6410 -0.4818 -0.5975
vn 0.6410 -0.4818 -0.5975
vn 0.6327 -0.1629 0.7571
vn -0.4902 0.1683 0.8552
vn 0.9812 -0.1048 0.1622
vn -0.6410 0.4818 0.5975
vn -0.4902 -0.1683 -0.8552
vn 0.4902 -0.1683 -0.8552
vn -0.9812 0.1048 -0.1622
vn 0.9812 0.1048 -0.1622
vt 1.000000 0.375000
vt 0.875000 -0.000000
vt 1.000000 -0.000000
vt 0.750000 0.375000
vt 0.750000 -0.000000
vt 0.625000 -0.000000
vt 0.500000 0.375000
vt 0.500000 -0.000000
vt 0.375000 -0.000000
vt 0.250000 0.375000
vt 0.250000 -0.000000
vt 1.000000 0.718750
vt 0.875000 0.375000
vt 0.875000 0.718750
vt 0.125000 -0.000000
vt -0.000000 0.375000
vt -0.000000 -0.000000
vt 0.521473 0.762527
vt 0.329027 0.762527
vt 0.329027 0.954973
vt 0.230802 0.947802
vt 0.141750 0.994830
vt 0.141750 0.984689
vt 0.267689 0.858750
vt 0.237973 0.954973
vt 0.230802 0.769698
vt 0.277830 0.858750
vt 0.141750 0.732811
vt 0.237973 0.762527
vt 0.052698 0.769698
vt 0.141750 0.722670
vt 0.015811 0.858750
vt 0.045527 0.762527
vt 0.052698 0.947802
vt 0.005670 0.858750
vt 0.045527 0.954973
vt 0.250000 0.718750
vt 0.125000 0.375000
vt 0.125000 0.718750
vt 0.500000 0.718750
vt 0.375000 0.375000
vt 0.375000 0.718750
vt 0.750000 0.718750
vt 0.625000 0.375000
vt 0.625000 0.718750
vt 0.000000 0.375000
vt 0.000000 0.718750
vt 1.000000 0.812500
vt 0.843750 0.843750
vt 0.843750 0.812500
vt 0.812500 0.781250
vt 0.906250 0.750000
vt 0.906250 0.781250
vt 0.718750 0.750000
vt 0.812500 0.750000
vt 1.000000 0.781250
vt 0.625000 0.781250
vt 0.625000 0.750000
vt 0.718750 0.781250
vt 0.425250 0.994830
vt 0.521473 0.954973
vt 0.561330 0.858750
vt 0.425250 0.722670
vt 0.289170 0.858750
vt 1.000000 0.843750
vt 1.000000 0.750000
s 0
usemtl Bucket
f 18/1/1 3/2/1 1/3/1
f 3/2/2 19/4/2 5/5/2
f 19/4/3 7/6/3 5/5/3
f 7/6/4 21/7/4 9/8/4
f 21/7/5 11/9/5 9/8/5
f 11/9/6 23/10/6 13/11/6
f 14/12/7 32/13/7 16/14/7
f 23/10/8 15/15/8 13/11/8
f 15/15/9 18/16/9 1/17/9
f 7/18/10 11/19/10 15/20/10
f 4/21/11 18/22/11 2/23/11
f 6/24/11 17/25/11 4/21/11
f 8/26/11 19/27/11 6/24/11
f 10/28/11 20/29/11 8/26/11
f 12/30/11 21/31/11 10/28/11
f 14/32/11 22/33/11 12/30/11
f 16/34/11 23/35/11 14/32/11
f 2/23/11 24/36/11 16/34/11
f 31/32/11 29/28/11 27/24/11
f 10/37/12 30/38/12 12/39/12
f 6/40/13 28/41/13 8/42/13
f 2/43/14 25/44/14 4/45/14
f 16/14/15 26/4/15 2/43/15
f 12/39/16 31/46/16 14/47/16
f 8/42/17 29/10/17 10/37/17
f 4/45/18 27/7/18 6/40/18
f 34/48/19 35/49/19 33/50/19
f 36/51/20 38/52/20 40/53/20
f 35/51/21 37/54/21 33/55/21
f 38/52/22 44/56/22 40/53/22
f 37/54/23 43/57/23 41/58/23
f 47/49/24 46/48/24 45/50/24
f 48/51/25 50/52/25 46/55/25
f 49/54/26 47/51/26 45/55/26
f 56/56/27 50/52/27 52/53/27
f 49/54/28 55/57/28 51/59/28
f 18/1/1 17/13/1 3/2/1
f 3/2/2 17/13/2 19/4/2
f 19/4/3 20/44/3 7/6/3
f 7/6/4 20/44/4 21/7/4
f 21/7/5 22/41/5 11/9/5
f 11/9/6 22/41/6 23/10/6
f 14/12/7 31/1/7 32/13/7
f 23/10/8 24/38/8 15/15/8
f 15/15/9 24/38/9 18/16/9
f 15/20/10 1/60/10 3/61/10
f 3/61/10 5/62/10 7/18/10
f 7/18/10 9/63/10 11/19/10
f 11/19/10 13/64/10 15/20/10
f 15/20/10 3/61/10 7/18/10
f 4/21/11 17/25/11 18/22/11
f 6/24/11 19/27/11 17/25/11
f 8/26/11 20/29/11 19/27/11
f 10/28/11 21/31/11 20/29/11
f 12/30/11 22/33/11 21/31/11
f 14/32/11 23/35/11 22/33/11
f 16/34/11 24/36/11 23/35/11
f 2/23/11 18/22/11 24/36/11
f 27/24/11 25/21/11 26/23/11
f 26/23/11 32/34/11 31/32/11
f 31/32/11 30/30/11 29/28/11
f 29/28/11 28/26/11 27/24/11
f 27/24/11 26/23/11 31/32/11
f 10/37/12 29/10/12 30/38/12
f 6/40/13 27/7/13 28/41/13
f 2/43/14 26/4/14 25/44/14
f 16/14/15 32/13/15 26/4/15
f 12/39/16 30/38/16 31/46/16
f 8/42/17 28/41/17 29/10/17
f 4/45/18 25/44/18 27/7/18
f 34/48/19 36/65/19 35/49/19
f 36/51/29 34/55/29 38/52/29
f 35/51/30 39/59/30 37/54/30
f 38/52/31 42/66/31 44/56/31
f 37/54/32 39/59/32 43/57/32
f 47/49/24 48/65/24 46/48/24
f 48/51/33 52/53/33 50/52/33
f 49/54/34 51/59/34 47/51/34
f 56/56/35 54/66/35 50/52/35
f 49/54/36 53/58/36 55/57/36
