# Blender 5.0.1
# www.blender.org
mtllib PlasticKnife.mtl
o PlasticKnife
v -0.006046 0.000000 0.084835
v -0.006046 0.005000 0.084835
v -0.006046 0.000000 -0.075000
v -0.006602 0.005000 -0.075000
v 0.006046 0.002500 0.084835
v -0.006046 0.000000 0.016032
v 0.006046 0.000000 -0.075000
v 0.006602 0.005000 -0.075000
v -0.006046 0.000000 -0.034146
v -0.006046 0.000000 0.013849
v -0.006046 0.000000 0.044344
v -0.006046 0.005000 0.044344
v -0.006046 0.005000 0.013849
v -0.006046 0.005000 -0.034146
v 0.012184 0.002500 0.044344
v 0.006046 0.000000 0.013849
v 0.006046 0.000000 -0.034146
v 0.006046 0.005000 -0.034146
v 0.006046 0.005000 0.013849
v -0.006046 0.005000 0.016032
v 0.006516 0.002500 0.016032
vn -1.0000 -0.0000 -0.0000
vn -0.0000 -0.0000 -1.0000
vn -0.0000 -0.0000 1.0000
vn 0.2025 -0.9793 -0.0000
vn 0.1358 0.9905 0.0206
vn -0.0000 1.0000 -0.0000
vn 0.1358 0.9904 -0.0272
vn -0.0000 -1.0000 -0.0000
vn 0.1952 -0.9808 -0.0000
vn 1.0000 -0.0000 -0.0000
vn 0.9776 -0.0000 -0.2106
vn 0.1326 0.6661 0.7340
vn -0.9938 -0.1106 0.0135
vn 0.1358 -0.9905 0.0206
vn 0.2025 0.9793 -0.0000
vn 0.1952 0.9808 -0.0000
vn 0.1358 -0.9904 -0.0272
vn 0.9938 -0.1106 0.0135
vn 0.1326 -0.6661 0.7340
vt 0.109375 0.093750
vt 0.125000 0.000000
vt 0.125000 0.093750
vt 0.046875 0.031250
vt 0.062500 -0.000000
vt 0.062500 0.031250
vt 0.109375 0.281250
vt 0.125000 0.218750
vt 0.125000 0.281250
vt 0.140625 0.234375
vt 0.156250 0.265625
vt 0.140625 0.265625
vt 0.093750 0.265625
vt 0.062500 0.343750
vt 0.093750 0.343750
vt 0.046875 0.265625
vt 0.015625 0.343750
vt 0.000000 0.265625
vt 0.046875 0.000000
vt 0.015625 0.093750
vt 0.015625 0.000000
vt 0.046875 0.093750
vt 0.015625 0.203125
vt 0.093750 0.093750
vt 0.093750 0.000000
vt 0.062500 0.093750
vt 0.093750 0.203125
vt 0.062500 0.203125
vt 0.140625 -0.000000
vt 0.156250 0.093750
vt 0.140625 0.093750
vt 0.140625 0.203125
vt 0.109375 0.359375
vt 0.125000 0.359375
vt 0.109375 0.218750
vt 0.125000 0.203125
vt 0.109375 0.203125
vt 0.156250 0.203125
vt 0.156250 0.218750
vt 0.046875 0.203125
vt 0.109375 0.000000
vt 0.046875 0.343750
vt 0.156250 -0.000000
s 0
usemtl 64x64grid
f 14/1/1 3/2/1 9/3/1
f 4/4/2 7/5/2 3/6/2
f 12/7/1 6/8/1 11/9/1
f 5/10/3 2/11/3 1/12/3
f 11/13/4 5/14/4 1/15/4
f 12/16/5 5/17/5 15/18/5
f 4/19/6 18/20/6 8/21/6
f 14/22/6 19/23/6 18/20/6
f 21/23/7 12/16/7 15/18/7
f 7/5/8 9/24/8 3/25/8
f 17/26/8 10/27/8 9/24/8
f 21/28/9 11/13/9 6/27/9
f 7/29/10 18/30/10 17/31/10
f 18/30/10 16/32/10 17/31/10
f 2/33/1 11/9/1 1/34/1
f 20/35/1 10/36/1 6/8/1
f 13/37/1 9/3/1 10/36/1
f 16/32/11 19/38/11 21/39/11
f 16/28/8 6/27/8 10/27/8
f 19/23/12 20/40/12 21/23/12
f 14/1/13 4/41/13 3/2/13
f 4/4/2 8/19/2 7/5/2
f 12/7/1 20/35/1 6/8/1
f 11/13/14 15/16/14 5/14/14
f 12/16/15 2/42/15 5/17/15
f 4/19/6 14/22/6 18/20/6
f 14/22/6 13/40/6 19/23/6
f 21/23/16 20/40/16 12/16/16
f 7/5/8 17/26/8 9/24/8
f 17/26/8 16/28/8 10/27/8
f 21/28/17 15/16/17 11/13/17
f 7/29/18 8/43/18 18/30/18
f 18/30/10 19/38/10 16/32/10
f 2/33/1 12/7/1 11/9/1
f 20/35/1 13/37/1 10/36/1
f 13/37/1 14/1/1 9/3/1
f 16/28/19 21/28/19 6/27/19
f 19/23/6 13/40/6 20/40/6
