# Blender 5.1.1
# www.blender.org
mtllib CellVent.mtl
o CellVent
v -1.050000 0.000010 1.500000
v -1.050000 0.500010 1.500000
v -0.550000 0.500010 1.500000
v -0.550000 0.000010 1.500000
v -1.050000 0.000010 3.000000
v -1.050000 0.500010 3.000000
v -0.550000 0.500010 3.000000
v -0.550000 0.000010 3.000000
v -0.550000 0.000010 2.500000
v -1.050000 0.000010 2.500000
v -0.550000 0.500010 2.500000
v -1.050000 0.500010 2.500000
v -1.050000 0.000010 4.000000
v -1.050000 0.500010 4.000000
v -0.550000 0.500010 4.000000
v -0.550000 0.000010 4.000000
v 5.000000 0.500010 3.000000
v 5.000000 0.000010 3.000000
v 5.000000 0.000010 2.500000
v 5.000000 0.500010 2.500000
v -8.400001 0.100000 3.000000
v -8.400001 0.600000 3.000000
v -8.400001 0.100000 2.500000
v -8.400001 0.600000 2.500000
v -8.000000 0.000010 2.500000
v -8.000000 0.500010 2.500000
v -8.000000 0.500010 3.000000
v -8.000000 0.000010 3.000000
v -3.750000 0.000010 2.500000
v -3.750000 0.500010 3.000000
v -3.750000 0.500010 2.500000
v -3.750000 0.000010 3.000000
v -4.250000 0.500010 2.500000
v -4.250000 0.000010 3.000000
v -4.250000 0.000010 2.500000
v -4.250000 0.500010 3.000000
v -4.250000 0.000010 1.500000
v -3.750000 0.000010 1.500000
v -3.750000 0.500010 1.500000
v -4.250000 0.500010 1.500000
v -4.250000 0.500010 4.000000
v -3.750000 0.500010 4.000000
v -3.750000 0.000010 4.000000
v -4.250000 0.000010 4.000000
v -7.000000 0.500010 2.500000
v -7.000000 0.000010 3.000000
v -7.000000 0.000010 2.500000
v -7.000000 0.500010 3.000000
v -7.500000 0.500010 2.500000
v -7.500000 0.000010 3.000000
v -7.500000 0.000010 2.500000
v -7.500000 0.500010 3.000000
v -7.500000 0.000010 1.500000
v -7.000000 0.000010 1.500000
v -7.000000 0.500010 1.500000
v -7.500000 0.500010 1.500000
v -7.500000 0.500010 4.000000
v -7.000000 0.500010 4.000000
v -7.000000 0.000010 4.000000
v -7.500000 0.000010 4.000000
v 2.150000 0.500010 3.000000
v 2.150000 0.500010 2.500000
v 2.150000 0.000010 2.500000
v 2.150000 0.000010 3.000000
v 2.650000 0.500010 2.500000
v 2.650000 0.000010 3.000000
v 2.650000 0.500010 3.000000
v 2.650000 0.000010 2.500000
v 2.650000 0.000010 1.500000
v 2.150000 0.000010 1.500000
v 2.150000 0.500010 1.500000
v 2.650000 0.500010 1.500000
v 2.650000 0.500010 4.000000
v 2.150000 0.500010 4.000000
v 2.150000 0.000010 4.000000
v 2.650000 0.000010 4.000000
v 5.500000 0.500010 3.000000
v 5.500000 0.000010 3.000000
v 5.500000 0.000010 2.500000
v 5.500000 0.500010 2.500000
v 5.000000 0.000010 1.500000
v 5.000000 0.500010 1.500000
v 5.500000 0.000010 1.500000
v 5.500000 0.500010 1.500000
v 5.000000 0.500010 4.000000
v 5.000000 0.000010 4.000000
v 5.500000 0.500010 4.000000
v 5.500000 0.000010 4.000000
vn -0.0000 1.0000 -0.0000
vn -0.0000 -1.0000 -0.0000
vn 1.0000 -0.0000 -0.0000
vn -1.0000 -0.0000 -0.0000
vn -0.0000 -0.0000 1.0000
vn -0.0000 -0.0000 -1.0000
vn -0.2425 -0.9701 -0.0000
vn 0.2425 0.9701 -0.0000
vt 8.000110 8.000110
vt 8.999889 8.999889
vt 8.999889 8.000110
vt 8.000110 9.000110
vt 8.999889 9.999890
vt 8.999889 9.000110
vt 0.000110 0.000110
vt 0.999890 1.999890
vt 0.999890 0.000110
vt 1.999890 2.000110
vt 0.000110 2.999890
vt 1.999890 2.999890
vt 1.000110 0.000110
vt 1.999890 1.999890
vt 1.999890 0.000110
vt 1.999890 3.000110
vt 0.000110 3.999890
vt 1.999890 3.999890
vt 2.000110 0.000110
vt 2.999890 1.999890
vt 2.999890 0.000110
vt 3.999890 2.000110
vt 2.000110 2.999890
vt 3.999890 2.999890
vt 3.000110 0.000110
vt 3.999890 1.999890
vt 3.999890 0.000110
vt 3.999890 3.000110
vt 2.000110 3.999890
vt 3.999890 3.999890
vt -5.999890 0.000275
vt -5.000110 4.999725
vt -5.000110 0.000275
vt -20.000275 4.000110
vt -24.999725 4.999890
vt -20.000275 4.999890
vt -5.000110 5.000276
vt -5.999890 9.999724
vt -5.000110 9.999724
vt -15.000277 4.999890
vt -19.999725 4.000110
vt -19.999725 4.999890
vt 9.000110 8.000110
vt 9.999890 8.999889
vt 9.999890 8.000110
vt 9.999890 9.000110
vt 9.000110 9.999890
vt 9.999890 9.999890
vt 0.000110 10.000110
vt 0.999890 10.999889
vt 0.999890 10.000110
vt 10.000110 0.000110
vt 10.999889 0.999890
vt 10.999889 0.000110
vt 10.000110 1.000110
vt 10.999889 1.999890
vt 10.999889 1.000110
vt 1.000110 10.000110
vt 1.999890 10.999889
vt 1.999890 10.000110
vt 10.000110 2.000110
vt 10.999889 2.999890
vt 10.999889 2.000110
vt 2.000110 10.000110
vt 2.999890 10.999889
vt 2.999890 10.000110
vt -4.000110 0.000275
vt -4.999890 4.999725
vt -4.000110 4.999725
vt -20.000275 5.999890
vt -24.999725 5.000110
vt -24.999725 5.999890
vt -4.999890 5.000276
vt -4.000110 9.999724
vt -4.000110 5.000276
vt -15.000277 5.000110
vt -19.999725 5.999890
vt -15.000277 5.999890
vt 4.000110 4.000110
vt 4.999890 5.999890
vt 4.999890 4.000110
vt 1.999890 6.000110
vt 0.000110 6.999890
vt 1.999890 6.999890
vt 10.000110 3.000110
vt 10.999889 3.999890
vt 10.999889 3.000110
vt 3.000110 10.000110
vt 3.999890 10.999889
vt 3.999890 10.000110
vt 5.000110 4.000110
vt 5.999890 5.999890
vt 5.999890 4.000110
vt 3.999890 6.000110
vt 2.000110 6.999890
vt 3.999890 6.999890
vt 6.000110 0.000110
vt 6.999890 1.999890
vt 6.999890 0.000110
vt 5.999890 6.000110
vt 4.000110 6.999890
vt 5.999890 6.999890
vt 6.000110 2.000110
vt 6.999890 3.999890
vt 6.999890 2.000110
vt 1.999890 7.000110
vt 0.000110 7.999890
vt 1.999890 7.999890
vt -3.000110 10.000276
vt -3.999890 14.999723
vt -3.000110 14.999723
vt -15.000277 7.999890
vt -19.999725 7.000110
vt -19.999725 7.999890
vt -2.999890 0.000275
vt -2.000110 4.999725
vt -2.000110 0.000275
vt -10.000276 7.000110
vt -14.999723 7.999890
vt -10.000276 7.999890
vt 7.000110 2.000110
vt 7.999890 3.999890
vt 7.999890 2.000110
vt 7.999890 6.000110
vt 6.000110 6.999890
vt 7.999890 6.999890
vt 10.000110 5.000110
vt 10.999889 5.999890
vt 10.999889 5.000110
vt 5.000110 10.000110
vt 5.999890 10.999889
vt 5.999890 10.000110
vt 7.000110 4.000110
vt 7.999890 5.999890
vt 7.999890 4.000110
vt 7.999890 7.000110
vt 6.000110 7.999890
vt 7.999890 7.999890
vt 8.000110 0.000110
vt 8.999889 1.999890
vt 8.999889 0.000110
vt 1.999890 8.000110
vt 0.000110 8.999889
vt 1.999890 8.999889
vt 8.000110 2.000110
vt 8.999889 3.999890
vt 8.999889 2.000110
vt 3.999890 8.000110
vt 2.000110 8.999889
vt 3.999890 8.999889
vt -1.000111 10.000276
vt -1.999890 14.999723
vt -1.000111 14.999723
vt -10.000276 8.999889
vt -14.999723 8.000110
vt -14.999723 8.999889
vt -1.999890 15.000277
vt -1.000111 19.999725
vt -1.000111 15.000277
vt -5.000274 8.000110
vt -9.999724 8.999889
vt -5.000274 8.999889
vt 9.000110 0.000110
vt 9.999890 1.999890
vt 9.999890 0.000110
vt 1.999890 9.000110
vt 0.000110 9.999890
vt 1.999890 9.999890
vt 10.000110 7.000110
vt 10.999889 7.999890
vt 10.999889 7.000110
vt 7.000110 10.000110
vt 7.999890 10.999889
vt 7.999890 10.000110
vt 9.000110 2.000110
vt 9.999890 3.999890
vt 9.999890 2.000110
vt 3.999890 9.000110
vt 2.000110 9.999890
vt 3.999890 9.999890
vt 9.000110 4.000110
vt 9.999890 5.999890
vt 9.999890 4.000110
vt 5.999890 9.000110
vt 4.000110 9.999890
vt 5.999890 9.999890
vt 9.000110 6.000110
vt 9.999890 7.999890
vt 9.999890 6.000110
vt 7.999890 9.000110
vt 6.000110 9.999890
vt 7.999890 9.999890
vt 1.000000 -0.000000
vt 0.000000 2.000000
vt -0.000000 0.000000
vt 3.000000 1.000000
vt 1.000000 0.000000
vt 3.000000 -0.000000
vt 0.000000 5.000000
vt 1.000000 4.000000
vt 1.000000 5.000000
vt 2.000000 4.000000
vt 2.000000 5.000000
vt 3.000000 5.000000
vt 0.000000 4.000000
vt 1.000000 2.000000
vt 1.000000 4.000000
vt 2.000000 2.000000
vt 2.000000 4.000000
vt 5.000000 1.000000
vt 3.000000 0.000000
vt 5.000000 0.000000
vt 3.000000 1.000000
vt 5.000000 2.000000
vt 3.000000 2.000000
vt 3.000000 2.000001
vt 5.000000 3.000000
vt 3.000000 3.000001
vt 3.000000 3.000001
vt 5.000000 4.000000
vt 3.000000 4.000000
vt 8.000110 8.999889
vt 8.000110 9.999890
vt 0.000110 1.999890
vt 0.000110 2.000110
vt 1.000110 1.999890
vt 0.000110 3.000110
vt 2.000110 1.999890
vt 2.000110 2.000110
vt 3.000110 1.999890
vt 2.000110 3.000110
vt -5.999890 4.999725
vt -24.999725 4.000110
vt -5.999890 5.000276
vt -15.000277 4.000110
vt 9.000110 8.999889
vt 9.000110 9.000110
vt 0.000110 10.999889
vt 10.000110 0.999890
vt 10.000110 1.999890
vt 1.000110 10.999889
vt 10.000110 2.999890
vt 2.000110 10.999889
vt -4.999890 0.000275
vt -20.000275 5.000110
vt -4.999890 9.999724
vt -19.999725 5.000110
vt 4.000110 5.999890
vt 0.000110 6.000110
vt 10.000110 3.999890
vt 3.000110 10.999889
vt 5.000110 5.999890
vt 2.000110 6.000110
vt 6.000110 1.999890
vt 4.000110 6.000110
vt 6.000110 3.999890
vt 0.000110 7.000110
vt -3.999890 10.000276
vt -15.000277 7.000110
vt -2.999890 4.999725
vt -14.999723 7.000110
vt 7.000110 3.999890
vt 6.000110 6.000110
vt 10.000110 5.999890
vt 5.000110 10.999889
vt 7.000110 5.999890
vt 6.000110 7.000110
vt 8.000110 1.999890
vt 0.000110 8.000110
vt 8.000110 3.999890
vt 2.000110 8.000110
vt -1.999890 10.000276
vt -10.000276 8.000110
vt -1.999890 19.999725
vt -9.999724 8.000110
vt 9.000110 1.999890
vt 0.000110 9.000110
vt 10.000110 7.999890
vt 7.000110 10.999889
vt 9.000110 3.999890
vt 2.000110 9.000110
vt 9.000110 5.999890
vt 4.000110 9.000110
vt 9.000110 7.999890
vt 6.000110 9.000110
vt 1.000000 2.000000
vt 1.000000 1.000000
vt -0.000000 4.000000
vt 3.000000 4.000000
vt -0.000000 2.000000
vt 3.000000 1.000000
vt 5.000000 2.000000
s 0
usemtl MetalVent
f 10/1/1 8/2/1 9/3/1
f 11/4/2 6/5/2 12/6/2
f 3/7/2 12/8/2 2/9/2
f 2/10/3 10/11/3 1/12/3
f 4/13/4 11/14/4 3/15/4
f 1/16/1 9/17/1 4/18/1
f 7/19/2 14/20/2 6/21/2
f 6/22/3 13/23/3 5/24/3
f 5/25/1 16/26/1 8/27/1
f 8/28/4 15/29/4 7/30/4
f 65/31/2 17/32/2 67/33/2
f 66/34/1 19/35/1 68/36/1
f 65/37/5 19/38/5 20/39/5
f 66/40/6 17/41/6 18/42/6
f 26/43/5 23/44/5 25/45/5
f 27/46/6 21/47/6 22/48/6
f 27/49/7 24/50/7 26/51/7
f 25/52/8 21/53/8 28/54/8
f 51/55/1 28/56/1 50/57/1
f 52/58/2 26/59/2 49/60/2
f 50/61/6 27/62/6 52/63/6
f 49/64/5 25/65/5 51/66/5
f 10/67/5 31/68/5 29/69/5
f 6/70/6 32/71/6 30/72/6
f 6/73/2 31/74/2 12/75/2
f 10/76/1 32/77/1 5/78/1
f 33/79/2 39/80/2 31/81/2
f 36/82/3 44/83/3 34/84/3
f 30/85/2 33/86/2 31/87/2
f 29/88/1 34/89/1 32/90/1
f 31/91/4 38/92/4 29/93/4
f 29/94/1 37/95/1 35/96/1
f 35/97/3 40/98/3 33/99/3
f 34/100/1 43/101/1 32/102/1
f 32/103/4 42/104/4 30/105/4
f 30/106/2 41/107/2 36/108/2
f 35/109/5 45/110/5 47/111/5
f 36/112/6 46/113/6 48/114/6
f 36/115/2 45/116/2 33/117/2
f 35/118/1 46/119/1 34/120/1
f 51/121/3 56/122/3 49/123/3
f 50/124/1 59/125/1 46/126/1
f 48/127/2 49/128/2 45/129/2
f 47/130/1 50/131/1 46/132/1
f 49/133/2 55/134/2 45/135/2
f 45/136/4 54/137/4 47/138/4
f 47/139/1 53/140/1 51/141/1
f 46/142/4 58/143/4 48/144/4
f 48/145/2 57/146/2 52/147/2
f 52/148/3 60/149/3 50/150/3
f 8/151/6 61/152/6 64/153/6
f 11/154/5 63/155/5 62/156/5
f 8/157/1 63/158/1 9/159/1
f 11/160/2 61/161/2 7/162/2
f 66/163/4 73/164/4 67/165/4
f 62/166/2 72/167/2 65/168/2
f 64/169/1 68/170/1 63/171/1
f 62/172/2 67/173/2 61/174/2
f 68/175/1 70/176/1 63/177/1
f 65/178/4 69/179/4 68/180/4
f 63/181/3 71/182/3 62/183/3
f 61/184/3 75/185/3 64/186/3
f 67/187/2 74/188/2 61/189/2
f 64/190/1 76/191/1 66/192/1
f 17/193/3 86/194/3 18/195/3
f 20/196/2 84/197/2 80/198/2
f 18/199/1 79/200/1 19/201/1
f 20/201/2 77/202/2 17/203/2
f 80/202/4 78/204/4 77/203/4
f 19/205/3 82/206/3 20/207/3
f 79/207/1 81/208/1 19/209/1
f 80/210/4 83/211/4 79/212/4
f 18/213/1 88/214/1 78/215/1
f 78/216/4 87/217/4 77/218/4
f 77/219/2 85/220/2 17/221/2
f 10/1/1 5/222/1 8/2/1
f 11/4/2 7/223/2 6/5/2
f 3/7/2 11/224/2 12/8/2
f 2/10/3 12/225/3 10/11/3
f 4/13/4 9/226/4 11/14/4
f 1/16/1 10/227/1 9/17/1
f 7/19/2 15/228/2 14/20/2
f 6/22/3 14/229/3 13/23/3
f 5/25/1 13/230/1 16/26/1
f 8/28/4 16/231/4 15/29/4
f 65/31/2 20/232/2 17/32/2
f 66/34/1 18/233/1 19/35/1
f 65/37/5 68/234/5 19/38/5
f 66/40/6 67/235/6 17/41/6
f 26/43/5 24/236/5 23/44/5
f 27/46/6 28/237/6 21/47/6
f 27/49/7 22/238/7 24/50/7
f 25/52/8 23/239/8 21/53/8
f 51/55/1 25/240/1 28/56/1
f 52/58/2 27/241/2 26/59/2
f 50/61/6 28/242/6 27/62/6
f 49/64/5 26/243/5 25/65/5
f 10/67/5 12/244/5 31/68/5
f 6/70/6 5/245/6 32/71/6
f 6/73/2 30/246/2 31/74/2
f 10/76/1 29/247/1 32/77/1
f 33/79/2 40/248/2 39/80/2
f 36/82/3 41/249/3 44/83/3
f 30/85/2 36/250/2 33/86/2
f 29/88/1 35/251/1 34/89/1
f 31/91/4 39/252/4 38/92/4
f 29/94/1 38/253/1 37/95/1
f 35/97/3 37/254/3 40/98/3
f 34/100/1 44/255/1 43/101/1
f 32/103/4 43/256/4 42/104/4
f 30/106/2 42/257/2 41/107/2
f 35/109/5 33/258/5 45/110/5
f 36/112/6 34/259/6 46/113/6
f 36/115/2 48/260/2 45/116/2
f 35/118/1 47/261/1 46/119/1
f 51/121/3 53/262/3 56/122/3
f 50/124/1 60/263/1 59/125/1
f 48/127/2 52/264/2 49/128/2
f 47/130/1 51/265/1 50/131/1
f 49/133/2 56/266/2 55/134/2
f 45/136/4 55/267/4 54/137/4
f 47/139/1 54/268/1 53/140/1
f 46/142/4 59/269/4 58/143/4
f 48/145/2 58/270/2 57/146/2
f 52/148/3 57/271/3 60/149/3
f 8/151/6 7/272/6 61/152/6
f 11/154/5 9/273/5 63/155/5
f 8/157/1 64/274/1 63/158/1
f 11/160/2 62/275/2 61/161/2
f 66/163/4 76/276/4 73/164/4
f 62/166/2 71/277/2 72/167/2
f 64/169/1 66/278/1 68/170/1
f 62/172/2 65/279/2 67/173/2
f 68/175/1 69/280/1 70/176/1
f 65/178/4 72/281/4 69/179/4
f 63/181/3 70/282/3 71/182/3
f 61/184/3 74/283/3 75/185/3
f 67/187/2 73/284/2 74/188/2
f 64/190/1 75/285/1 76/191/1
f 17/193/3 85/286/3 86/194/3
f 20/196/2 82/287/2 84/197/2
f 18/199/1 78/288/1 79/200/1
f 20/201/2 80/200/2 77/202/2
f 80/202/4 79/289/4 78/204/4
f 19/205/3 81/290/3 82/206/3
f 79/207/1 83/286/1 81/208/1
f 80/210/4 84/291/4 83/211/4
f 18/213/1 86/210/1 88/214/1
f 78/216/4 88/292/4 87/217/4
f 77/219/2 87/217/2 85/220/2
