# Blender 5.1.1
# www.blender.org
mtllib CeilingLightRectangle.mtl
o CeilingLightRectangle
v -0.261000 -0.050000 0.055000
v -0.300000 0.000000 0.065000
v -0.261000 -0.050000 -0.055000
v -0.300000 -0.000000 -0.065000
v 0.261000 -0.050000 0.055000
v 0.300000 0.000000 0.065000
v 0.261000 -0.050000 -0.055000
v 0.300000 -0.000000 -0.065000
v -0.300000 -0.050000 -0.065000
v -0.300000 -0.050000 0.065000
v 0.300000 -0.050000 -0.065000
v 0.300000 -0.050000 0.065000
v -0.261000 -0.045000 -0.055000
v -0.261000 -0.045000 0.055000
v 0.261000 -0.045000 -0.055000
v 0.261000 -0.045000 0.055000
vn -1.0000 -0.0000 -0.0000
vn -0.0000 -0.0000 -1.0000
vn 1.0000 -0.0000 -0.0000
vn -0.0000 -0.0000 1.0000
vn -0.0000 -1.0000 -0.0000
vt 0.062500 0.812500
vt -0.000000 1.000000
vt -0.000000 0.812500
vt 0.125000 0.625000
vt 0.875000 0.687500
vt 0.125000 0.687500
vt 0.937500 1.000000
vt 1.000000 0.812500
vt 1.000000 1.000000
vt 0.875000 0.625000
vt 0.125000 0.562500
vt 0.875000 0.562500
vt 0.125000 0.750000
vt 0.875000 0.812500
vt 0.875000 0.750000
vt 0.123364 0.984707
vt 0.067058 0.813347
vt 0.123364 0.827627
vt 0.933293 0.813347
vt 0.876988 0.827627
vt 0.933294 0.998987
vt 0.876988 0.984707
vt 0.067059 0.998987
vt 0.937500 0.812500
vt 1.000000 0.625000
vt 0.937500 0.625000
vt -0.000000 0.625000
vt 0.875000 0.312500
vt 0.125000 0.500000
vt 0.125000 0.312500
vt 0.062500 1.000000
vt 0.125000 0.812500
vt 0.062500 0.625000
vt 0.875000 0.500000
s 0
usemtl 32x32grid
f 2/1/1 9/2/1 10/3/1
f 4/4/2 11/5/2 9/6/2
f 8/7/3 12/8/3 11/9/3
f 6/10/4 10/11/4 12/12/4
f 1/13/2 16/14/2 5/15/2
f 1/16/5 9/17/5 3/18/5
f 3/18/5 11/19/5 7/20/5
f 7/20/5 12/21/5 5/22/5
f 5/22/5 10/23/5 1/16/5
f 7/5/4 13/13/4 3/6/4
f 5/24/1 15/25/1 7/26/1
f 3/27/3 14/1/3 1/3/3
f 2/1/1 4/31/1 9/2/1
f 4/4/2 8/10/2 11/5/2
f 8/7/3 6/24/3 12/8/3
f 6/10/4 2/4/4 10/11/4
f 1/13/2 14/32/2 16/14/2
f 1/16/5 10/23/5 9/17/5
f 3/18/5 9/17/5 11/19/5
f 7/20/5 11/19/5 12/21/5
f 5/22/5 12/21/5 10/23/5
f 7/5/4 15/15/4 13/13/4
f 5/24/1 16/8/1 15/25/1
f 3/27/3 13/33/3 14/1/3
usemtl 32x32grid
f 15/28/5 14/29/5 13/30/5
f 15/28/5 16/34/5 14/29/5
