# Blender 5.0.1
# www.blender.org
mtllib BrokenBigCardboardBoxFlat02.mtl
o BrokenBigCardboardBoxFlat02
v -0.186113 0.021036 0.132490
v -0.196062 0.200925 0.158133
v -0.192395 -0.003875 -0.142324
v -0.200745 0.196087 -0.163791
v 0.199319 0.015898 0.192792
v 0.202351 0.205676 0.159991
v 0.193505 0.004782 -0.155994
v 0.166158 0.207931 -0.153331
v -0.219466 -0.012525 -0.064190
v -0.179353 -0.011084 0.028243
v -0.167485 -0.013172 0.094216
v -0.199228 0.054402 0.156596
v -0.192363 0.091029 0.153407
v -0.200648 0.146019 0.152132
v -0.207242 0.192227 0.082088
v -0.170240 0.207878 0.001111
v -0.205082 0.204979 -0.057623
v -0.209870 0.152333 -0.157850
v -0.203156 0.081518 -0.153949
v -0.200113 0.047407 -0.159731
v 0.115641 -0.024714 -0.139032
v 0.015478 -0.026859 -0.160122
v -0.100409 -0.005908 -0.158437
v -0.087223 0.203602 -0.172055
v 0.018573 0.211774 -0.185598
v 0.122340 0.198662 -0.175390
v 0.180023 0.153336 -0.147574
v 0.199775 0.100082 -0.158923
v 0.189317 0.043924 -0.184236
v 0.202788 -0.008841 0.092485
v 0.198931 0.002227 -0.003295
v 0.189066 0.017703 -0.077164
v 0.200036 0.200204 -0.080146
v 0.191976 0.201962 0.002229
v 0.213509 0.229904 0.087566
v 0.201938 0.156526 0.171280
v 0.205924 0.102849 0.165638
v 0.204571 0.055788 0.150054
v -0.135913 -0.002695 0.171794
v -0.009898 -0.017920 0.155109
v 0.105306 -0.008986 0.169652
v 0.127303 0.200222 0.157386
v -0.004734 0.211046 0.157332
v -0.101971 0.208238 0.170942
v 0.085468 0.216373 -0.104181
v 0.101768 0.194134 -0.002867
v 0.106779 0.206287 0.069975
v -0.033210 0.197982 -0.085401
v -0.014762 0.216666 0.000890
v -0.000903 0.199032 0.080111
v -0.101134 0.195277 -0.082960
v -0.074052 0.222599 0.018692
v -0.118700 0.216187 0.084824
v -0.072478 -0.003208 -0.067400
v -0.103549 0.001717 0.004022
v -0.100054 -0.000546 0.078905
v 0.003907 -0.002813 -0.079479
v -0.007918 -0.009995 0.009270
v 0.015492 0.015668 0.066390
v 0.101613 0.005664 -0.080183
v 0.097877 -0.003181 0.001097
v 0.092564 0.018052 0.086682
v 0.086611 0.044696 0.179483
v 0.008400 0.035980 0.170400
v -0.095756 0.051493 0.159537
v 0.079543 0.078180 0.153468
v -0.012075 0.103553 0.147519
v -0.067763 0.119322 0.167972
v 0.089222 0.156655 0.139816
v -0.000879 0.147403 0.162761
v -0.102026 0.146885 0.160248
v 0.188208 0.086654 -0.083304
v 0.194583 0.027542 0.002395
v 0.208078 0.074997 0.063123
v 0.193635 0.102338 -0.075750
v 0.208646 0.100434 -0.003880
v 0.198722 0.095660 0.076466
v 0.194550 0.165502 -0.083891
v 0.229461 0.170388 0.001961
v 0.192988 0.159335 0.080977
v -0.090717 0.043881 -0.148962
v -0.012044 0.043682 -0.148203
v 0.073203 0.058250 -0.150324
v -0.074666 0.107981 -0.183697
v 0.024267 0.082012 -0.170875
v 0.098499 0.115014 -0.164075
v -0.089094 0.173357 -0.179048
v 0.004597 0.156726 -0.184047
v 0.121421 0.148314 -0.146032
v -0.204204 0.026112 0.078488
v -0.198406 0.050783 0.003884
v -0.193836 0.056875 -0.066782
v -0.226117 0.088790 0.088406
v -0.219354 0.086837 0.013746
v -0.225037 0.084511 -0.064798
v -0.197895 0.156374 0.093791
v -0.195179 0.136859 -0.011734
v -0.204171 0.161015 -0.077420
vn -0.9766 0.2100 0.0465
vn -0.0168 -0.1091 -0.9939
vn 0.9945 -0.0312 -0.0995
vn -0.0807 -0.1016 0.9915
vn -0.2145 -0.9379 -0.2727
vn -0.0918 0.9898 0.1092
vn -0.0796 0.9490 0.3052
vn 0.0816 0.9954 0.0499
vn 0.1369 0.9798 -0.1456
vn 0.1305 0.9905 0.0441
vn -0.0848 0.9960 -0.0296
vn -0.1656 0.9488 -0.2689
vn 0.1400 0.9754 -0.1701
vn 0.1923 0.9645 0.1808
vn -0.0812 0.9840 -0.1586
vn -0.0634 0.9926 0.1039
vn 0.0321 0.9754 -0.2181
vn 0.1538 0.9699 0.1890
vn -0.0598 0.9947 0.0836
vn -0.1056 0.9670 -0.2318
vn -0.1503 0.9886 -0.0056
vn -0.6077 -0.7158 0.3440
vn -0.1291 -0.9890 -0.0727
vn 0.1141 -0.9395 -0.3230
vn 0.0611 -0.9942 -0.0889
vn 0.1507 -0.9873 -0.0500
vn 0.1701 -0.9835 -0.0617
vn 0.0094 -0.9996 0.0268
vn -0.1224 -0.9924 0.0152
vn -0.1202 -0.9924 -0.0244
vn 0.0847 -0.9515 0.2959
vn 0.0585 -0.9956 -0.0728
vn 0.0885 -0.9216 0.3778
vn 0.1038 -0.8735 0.4756
vn 0.1391 -0.9851 -0.1008
vn -0.2421 -0.9451 0.2194
vn -0.6504 -0.5959 0.4710
vn -0.0257 0.0915 0.9955
vn -0.1387 0.1036 0.9849
vn -0.1731 -0.2354 0.9564
vn -0.1034 -0.2388 0.9655
vn 0.1441 0.1155 0.9828
vn 0.1330 0.6254 0.7689
vn -0.1576 0.5849 0.7957
vn -0.0536 0.3056 0.9506
vn -0.1300 0.1855 0.9740
vn -0.1424 -0.2923 0.9457
vn 0.2259 -0.3708 0.9008
vn -0.2659 -0.1515 0.9520
vn 0.2363 0.0968 0.9669
vn -0.0252 0.0834 0.9962
vn 0.9958 -0.0745 0.0528
vn 0.9307 0.3476 0.1144
vn 0.9916 0.0955 -0.0878
vn 0.9984 0.0172 0.0534
vn 0.9779 0.1884 -0.0911
vn 0.9846 0.1735 -0.0196
vn 0.9676 -0.2286 0.1074
vn 0.9563 -0.2026 -0.2109
vn 0.9787 -0.1945 -0.0655
vn 0.9400 0.3358 0.0603
vn 0.9779 -0.0406 -0.2053
vn 0.9887 0.0800 0.1269
vn 0.9431 0.2125 -0.2557
vn 0.9232 -0.1061 -0.3694
vn 0.5987 0.7076 0.3753
vn 0.0433 -0.5815 -0.8124
vn -0.2904 -0.1011 -0.9516
vn 0.1072 0.4156 -0.9032
vn -0.1696 -0.3396 -0.9252
vn 0.0170 0.1730 -0.9848
vn 0.2065 -0.0275 -0.9781
vn 0.1020 0.1751 -0.9793
vn 0.0073 -0.4778 -0.8784
vn 0.0751 -0.5594 -0.8255
vn -0.2105 -0.0737 -0.9748
vn 0.0881 -0.1504 -0.9847
vn 0.1491 -0.1335 -0.9798
vn -0.1549 -0.1011 -0.9827
vn -0.0119 0.2259 -0.9741
vn 0.2370 -0.4926 -0.8374
vn -0.9045 0.3237 -0.2776
vn -0.9918 -0.1016 0.0773
vn -0.9460 0.2185 -0.2395
vn -0.7542 -0.6274 0.1937
vn -0.7481 -0.6537 0.1139
vn -0.9096 -0.1239 0.3967
vn -0.9181 -0.3503 0.1854
vn -0.8688 -0.4460 -0.2150
vn -0.6631 -0.7409 -0.1068
vn -0.8791 -0.1218 0.4607
vn -0.9161 0.3900 -0.0932
vn -0.8888 0.4554 0.0508
vn -0.9957 0.0866 -0.0316
vn -0.9691 -0.2459 0.0205
vn -0.9915 -0.0701 0.1100
vn -0.9992 -0.0024 -0.0406
vn 0.4757 -0.4495 -0.7561
vn 0.9576 -0.2834 0.0527
vn -0.1199 -0.1704 0.9781
vn 0.1924 -0.9512 0.2412
vn -0.2585 0.9633 -0.0722
vn -0.2335 0.9647 0.1218
vn -0.0811 0.9842 -0.1571
vn -0.0155 0.9954 0.0949
vn -0.0657 0.9598 -0.2728
vn 0.0960 0.9754 0.1987
vn -0.0764 0.9843 -0.1590
vn -0.1433 0.9877 0.0619
vn -0.1774 0.9690 -0.1719
vn 0.1923 0.9645 0.1810
vn -0.0365 0.9955 0.0873
vn -0.0474 0.9677 -0.2475
vn 0.1490 0.9695 0.1946
vn 0.0732 0.9941 -0.0803
vn 0.0706 0.9934 -0.0909
vn -0.2625 0.9627 0.0661
vn 0.1953 -0.9793 0.0528
vn 0.0963 -0.9397 -0.3282
vn 0.1137 -0.9393 -0.3236
vn -0.0160 -0.9993 0.0346
vn 0.0651 -0.9932 0.0968
vn 0.1549 -0.9872 -0.0371
vn -0.1682 -0.9510 0.2594
vn -0.0078 -0.9966 -0.0817
vn 0.1670 -0.9231 0.3463
vn -0.0742 -0.8932 0.4434
vn 0.0852 -0.9909 -0.1039
vn -0.0328 -0.9705 0.2387
vn 0.3813 -0.9086 0.1704
vn 0.0431 -0.9767 -0.2104
vn 0.0480 -0.9920 -0.1166
vn -0.0210 0.2354 0.9717
vn -0.0970 -0.0833 0.9918
vn -0.0821 0.0107 0.9966
vn 0.1032 0.7208 0.6854
vn -0.0897 -0.2096 0.9737
vn -0.1345 -0.2279 0.9643
vn -0.0302 -0.3134 0.9491
vn 0.0297 0.3287 0.9440
vn 0.2773 -0.2304 0.9327
vn -0.2670 -0.1203 0.9561
vn 0.2310 0.1390 0.9630
vn -0.0253 0.2404 0.9703
vn -0.0501 0.2240 0.9733
vn -0.0292 -0.3518 0.9356
vn 0.1414 -0.1701 0.9752
vn 0.9982 -0.0530 0.0286
vn 0.9968 -0.0021 -0.0803
vn 0.9919 0.0837 -0.0957
vn 0.9958 0.0877 -0.0262
vn 0.9975 0.0062 -0.0699
vn 0.9850 -0.1090 -0.1337
vn 0.9298 -0.3595 0.0784
vn 0.9513 -0.2305 -0.2048
vn 0.9325 0.3350 0.1351
vn 0.9758 -0.0418 -0.2146
vn 0.9041 -0.2395 -0.3540
vn 0.8830 -0.2933 0.3665
vn 0.8994 -0.0962 -0.4265
vn 0.6437 0.7638 0.0467
vn 0.9525 -0.2626 -0.1544
vn -0.3007 -0.2780 -0.9123
vn 0.1043 0.3925 -0.9138
vn -0.0423 0.1932 -0.9802
vn 0.1019 0.1668 -0.9807
vn 0.0100 0.1851 -0.9827
vn -0.0498 0.1475 -0.9878
vn -0.1119 -0.4516 -0.8852
vn -0.0178 -0.4964 -0.8679
vn 0.2282 -0.3241 -0.9181
vn -0.1780 0.0307 -0.9836
vn -0.0423 0.0616 -0.9972
vn 0.3153 0.2750 -0.9082
vn -0.0858 0.2295 -0.9695
vn -0.1273 0.0044 -0.9919
vn 0.0914 -0.0512 -0.9945
vn -0.9894 -0.1220 0.0792
vn -0.6616 -0.7371 -0.1376
vn -0.9927 -0.0897 0.0800
vn -0.8358 -0.4970 0.2333
vn -0.9151 -0.3562 -0.1889
vn -0.9380 0.3453 -0.0309
vn -0.8720 0.2023 0.4458
vn -0.9449 -0.3181 -0.0773
vn -0.8528 -0.5166 0.0770
vn -0.9232 0.3836 0.0245
vn -0.9145 0.3930 -0.0962
vn -0.9274 0.2916 0.2342
vn -0.9662 -0.1981 0.1647
vn -0.8714 0.3652 -0.3276
vn -0.8457 0.2081 0.4914
vt 0.093750 0.117188
vt 0.031250 0.156250
vt 0.031250 0.117188
vt 0.078125 0.460938
vt 0.000000 0.500000
vt 0.000000 0.460938
vt 0.765625 0.617188
vt 0.687500 0.656250
vt 0.687500 0.617188
vt 0.343750 0.437500
vt 0.421875 0.375000
vt 0.421875 0.437500
vt 0.421875 0.781250
vt 0.343750 0.718750
vt 0.421875 0.718750
vt 0.656250 0.781250
vt 0.578125 0.718750
vt 0.656250 0.718750
vt 0.578125 0.781250
vt 0.500000 0.718750
vt 0.500000 0.781250
vt 0.656250 0.968750
vt 0.578125 0.906250
vt 0.656250 0.906250
vt 0.578125 0.843750
vt 0.656250 0.843750
vt 0.500000 0.968750
vt 0.578125 0.968750
vt 0.500000 0.843750
vt 0.421875 0.968750
vt 0.500000 0.906250
vt 0.421875 0.843750
vt 0.343750 0.968750
vt 0.421875 0.906250
vt 0.343750 0.843750
vt 0.656250 0.437500
vt 0.578125 0.375000
vt 0.656250 0.375000
vt 0.578125 0.437500
vt 0.500000 0.375000
vt 0.500000 0.437500
vt 0.656250 0.625000
vt 0.578125 0.562500
vt 0.656250 0.562500
vt 0.578125 0.500000
vt 0.656250 0.500000
vt 0.578125 0.625000
vt 0.500000 0.562500
vt 0.500000 0.500000
vt 0.500000 0.625000
vt 0.421875 0.562500
vt 0.421875 0.500000
vt 0.421875 0.625000
vt 0.343750 0.562500
vt 0.765625 0.500000
vt 0.687500 0.539062
vt 0.687500 0.500000
vt 0.765625 0.539062
vt 0.687500 0.578125
vt 0.765625 0.578125
vt 1.000000 0.500000
vt 0.921875 0.539062
vt 0.921875 0.500000
vt 0.843750 0.539062
vt 0.843750 0.500000
vt 1.000000 0.539062
vt 0.921875 0.578125
vt 0.843750 0.578125
vt 1.000000 0.578125
vt 0.921875 0.617188
vt 0.843750 0.617188
vt 1.000000 0.617188
vt 0.921875 0.656250
vt 0.843750 0.656250
vt 0.093750 0.000000
vt 0.031250 0.039062
vt 0.031250 0.000000
vt 0.093750 0.078125
vt 0.093750 0.039062
vt 0.031250 0.078125
vt 0.281250 0.000000
vt 0.218750 0.039062
vt 0.218750 0.000000
vt 0.156250 0.039062
vt 0.156250 0.000000
vt 0.281250 0.078125
vt 0.281250 0.039062
vt 0.156250 0.078125
vt 0.281250 0.117188
vt 0.218750 0.078125
vt 0.218750 0.117188
vt 0.281250 0.156250
vt 0.218750 0.156250
vt 0.156250 0.117188
vt 0.156250 0.156250
vt 0.078125 0.343750
vt 0.000000 0.382812
vt 0.000000 0.343750
vt 0.078125 0.421875
vt 0.078125 0.382812
vt 0.000000 0.421875
vt 0.312500 0.382812
vt 0.234375 0.343750
vt 0.312500 0.343750
vt 0.156250 0.382812
vt 0.156250 0.343750
vt 0.312500 0.421875
vt 0.234375 0.382812
vt 0.234375 0.421875
vt 0.156250 0.421875
vt 0.312500 0.460938
vt 0.156250 0.460938
vt 0.312500 0.500000
vt 0.234375 0.460938
vt 0.234375 0.500000
vt 0.078125 0.500000
vt 0.156250 0.039062
vt 0.156250 0.078125
vt 0.156250 0.117188
vt 0.093750 0.156250
vt 0.765625 0.656250
vt 0.343750 0.375000
vt 0.343750 0.781250
vt 0.343750 0.906250
vt 0.343750 0.625000
vt 0.343750 0.500000
vt 1.000000 0.656250
vt 0.156250 0.500000
vt 0.156250 0.156250
s 0
usemtl CardboardBox
f 98/1/1 4/2/1 18/3/1
f 89/4/2 8/5/2 27/6/2
f 80/1/3 6/2/3 36/3/3
f 71/7/4 2/8/4 14/9/4
f 30/10/5 41/11/5 62/12/5
f 53/13/6 2/14/6 44/15/6
f 35/16/7 42/17/7 6/18/7
f 47/19/8 43/20/8 42/17/8
f 53/13/9 43/20/9 50/21/9
f 8/22/10 45/23/10 33/24/10
f 33/24/11 46/25/11 34/26/11
f 34/26/12 47/19/12 35/16/12
f 25/27/13 45/23/13 26/28/13
f 45/23/14 49/29/14 46/25/14
f 46/25/15 50/21/15 47/19/15
f 24/30/16 48/31/16 25/27/16
f 48/31/17 52/32/17 49/29/17
f 52/32/18 50/21/18 49/29/18
f 4/33/19 51/34/19 24/30/19
f 51/34/20 16/35/20 52/32/20
f 16/35/21 53/13/21 52/32/21
f 11/36/22 39/37/22 1/38/22
f 56/39/23 40/40/23 39/37/23
f 62/12/24 40/40/24 59/41/24
f 3/42/25 54/43/25 9/44/25
f 9/44/26 55/45/26 10/46/26
f 10/46/27 56/39/27 11/36/27
f 23/47/28 57/48/28 54/43/28
f 54/43/29 58/49/29 55/45/29
f 58/49/30 56/39/30 55/45/30
f 22/50/31 60/51/31 57/48/31
f 57/48/32 61/52/32 58/49/32
f 61/52/33 59/41/33 58/49/33
f 21/53/34 32/54/34 60/51/34
f 32/54/35 61/52/35 60/51/35
f 61/52/36 30/10/36 62/12/36
f 39/55/37 12/56/37 1/57/37
f 65/58/38 13/59/38 12/56/38
f 71/7/39 13/59/39 68/60/39
f 5/61/40 63/62/40 41/63/40
f 41/63/41 64/64/41 40/65/41
f 40/65/42 65/58/42 39/55/42
f 38/66/43 66/67/43 63/62/43
f 66/67/44 64/64/44 63/62/44
f 67/68/45 65/58/45 64/64/45
f 37/69/46 69/70/46 66/67/46
f 66/67/47 70/71/47 67/68/47
f 70/71/48 68/60/48 67/68/48
f 36/72/49 42/73/49 69/70/49
f 69/70/50 43/74/50 70/71/50
f 43/74/51 71/7/51 70/71/51
f 30/75/52 38/76/52 5/77/52
f 77/78/53 38/76/53 74/79/53
f 80/1/54 37/80/54 77/78/54
f 7/81/55 72/82/55 32/83/55
f 32/83/56 73/84/56 31/85/56
f 73/84/57 30/75/57 31/85/57
f 28/86/58 72/82/58 29/87/58
f 72/82/59 76/88/59 73/84/59
f 76/88/60 74/79/60 73/84/60
f 27/89/61 75/90/61 28/86/61
f 78/91/62 76/88/62 75/90/62
f 76/88/63 80/1/63 77/78/63
f 8/92/64 78/91/64 27/89/64
f 33/93/65 79/94/65 78/91/65
f 34/95/66 80/1/66 79/94/66
f 21/96/67 29/97/67 7/98/67
f 86/99/68 29/97/68 83/100/68
f 89/4/69 28/101/69 86/99/69
f 20/102/70 23/103/70 3/104/70
f 23/103/71 82/105/71 22/106/71
f 22/106/72 83/100/72 21/96/72
f 19/107/73 81/108/73 20/102/73
f 84/109/74 82/105/74 81/108/74
f 85/110/75 83/100/75 82/105/75
f 18/111/76 84/109/76 19/107/76
f 84/109/77 88/112/77 85/110/77
f 88/112/78 86/99/78 85/110/78
f 4/113/79 87/114/79 18/111/79
f 24/115/80 88/112/80 87/114/80
f 88/112/81 26/116/81 89/4/81
f 92/79/82 3/77/82 9/75/82
f 92/79/83 19/80/83 20/76/83
f 98/1/84 19/80/84 95/78/84
f 1/81/85 90/82/85 11/83/85
f 90/82/86 10/85/86 11/83/86
f 91/117/87 9/75/87 10/85/87
f 12/87/88 93/90/88 90/82/88
f 90/82/89 94/118/89 91/117/89
f 91/117/90 95/78/90 92/79/90
f 14/89/91 93/90/91 13/86/91
f 96/91/92 94/118/92 93/90/92
f 97/119/93 95/78/93 94/118/93
f 2/92/94 96/91/94 14/89/94
f 15/93/95 97/119/95 96/91/95
f 97/119/96 17/120/96 98/1/96
f 98/1/97 17/120/97 4/2/97
f 89/4/98 26/116/98 8/5/98
f 80/1/99 35/120/99 6/2/99
f 71/7/100 44/121/100 2/8/100
f 30/10/101 5/122/101 41/11/101
f 53/13/102 15/123/102 2/14/102
f 35/16/103 47/19/103 42/17/103
f 47/19/104 50/21/104 43/20/104
f 53/13/105 44/15/105 43/20/105
f 8/22/106 26/28/106 45/23/106
f 33/24/107 45/23/107 46/25/107
f 34/26/108 46/25/108 47/19/108
f 25/27/109 48/31/109 45/23/109
f 45/23/110 48/31/110 49/29/110
f 46/25/111 49/29/111 50/21/111
f 24/30/112 51/34/112 48/31/112
f 48/31/113 51/34/113 52/32/113
f 52/32/114 53/13/114 50/21/114
f 4/33/115 17/124/115 51/34/115
f 51/34/116 17/124/116 16/35/116
f 16/35/117 15/123/117 53/13/117
f 11/36/118 56/39/118 39/37/118
f 56/39/119 59/41/119 40/40/119
f 62/12/120 41/11/120 40/40/120
f 3/42/121 23/47/121 54/43/121
f 9/44/122 54/43/122 55/45/122
f 10/46/123 55/45/123 56/39/123
f 23/47/124 22/50/124 57/48/124
f 54/43/125 57/48/125 58/49/125
f 58/49/126 59/41/126 56/39/126
f 22/50/127 21/53/127 60/51/127
f 57/48/128 60/51/128 61/52/128
f 61/52/129 62/12/129 59/41/129
f 21/53/130 7/125/130 32/54/130
f 32/54/131 31/126/131 61/52/131
f 61/52/132 31/126/132 30/10/132
f 39/55/133 65/58/133 12/56/133
f 65/58/134 68/60/134 13/59/134
f 71/7/135 14/9/135 13/59/135
f 5/61/136 38/66/136 63/62/136
f 41/63/137 63/62/137 64/64/137
f 40/65/138 64/64/138 65/58/138
f 38/66/139 37/69/139 66/67/139
f 66/67/140 67/68/140 64/64/140
f 67/68/141 68/60/141 65/58/141
f 37/69/142 36/72/142 69/70/142
f 66/67/143 69/70/143 70/71/143
f 70/71/144 71/7/144 68/60/144
f 36/72/145 6/127/145 42/73/145
f 69/70/146 42/73/146 43/74/146
f 43/74/147 44/121/147 71/7/147
f 30/75/148 74/79/148 38/76/148
f 77/78/149 37/80/149 38/76/149
f 80/1/150 36/3/150 37/80/150
f 7/81/151 29/87/151 72/82/151
f 32/83/152 72/82/152 73/84/152
f 73/84/153 74/79/153 30/75/153
f 28/86/154 75/90/154 72/82/154
f 72/82/155 75/90/155 76/88/155
f 76/88/156 77/78/156 74/79/156
f 27/89/157 78/91/157 75/90/157
f 78/91/158 79/94/158 76/88/158
f 76/88/159 79/94/159 80/1/159
f 8/92/160 33/93/160 78/91/160
f 33/93/161 34/95/161 79/94/161
f 34/95/162 35/120/162 80/1/162
f 21/96/163 83/100/163 29/97/163
f 86/99/164 28/101/164 29/97/164
f 89/4/165 27/6/165 28/101/165
f 20/102/166 81/108/166 23/103/166
f 23/103/167 81/108/167 82/105/167
f 22/106/168 82/105/168 83/100/168
f 19/107/169 84/109/169 81/108/169
f 84/109/170 85/110/170 82/105/170
f 85/110/171 86/99/171 83/100/171
f 18/111/172 87/114/172 84/109/172
f 84/109/173 87/114/173 88/112/173
f 88/112/174 89/4/174 86/99/174
f 4/113/175 24/115/175 87/114/175
f 24/115/176 25/128/176 88/112/176
f 88/112/177 25/128/177 26/116/177
f 92/79/178 20/76/178 3/77/178
f 92/79/179 95/78/179 19/80/179
f 98/1/180 18/3/180 19/80/180
f 1/81/181 12/87/181 90/82/181
f 90/82/182 91/117/182 10/85/182
f 91/117/183 92/79/183 9/75/183
f 12/87/184 13/86/184 93/90/184
f 90/82/185 93/90/185 94/118/185
f 91/117/186 94/118/186 95/78/186
f 14/89/187 96/91/187 93/90/187
f 96/91/188 97/119/188 94/118/188
f 97/119/189 98/1/189 95/78/189
f 2/92/190 15/93/190 96/91/190
f 15/93/191 16/129/191 97/119/191
f 97/119/192 16/129/192 17/120/192
