# Blender 5.1.1
# www.blender.org
mtllib OvenStack.mtl
o OvenStack
v -0.400000 0.000000 0.400000
v -0.400000 0.770000 0.400000
v -0.400000 -0.000000 -0.400000
v -0.400000 0.770000 -0.400000
v 0.400000 0.000000 0.400000
v 0.400000 0.770000 0.400000
v 0.400000 -0.000000 -0.400000
v 0.400000 0.770000 -0.400000
v -0.400000 0.803000 -0.400000
v 0.400000 0.803000 -0.400000
v 0.400000 0.803000 0.400000
v -0.400000 0.803000 0.400000
v -0.400000 1.573000 -0.400000
v 0.400000 1.573000 -0.400000
v 0.400000 1.573000 0.400000
v -0.400000 1.573000 0.400000
v -0.400000 1.606000 -0.400000
v 0.400000 1.606000 -0.400000
v 0.400000 1.606000 0.400000
v -0.400000 1.606000 0.400000
v -0.400000 1.771000 -0.400000
v 0.400000 1.771000 -0.400000
v 0.400000 1.771000 0.400000
v -0.400000 1.771000 0.400000
v -0.320000 0.659748 0.442193
v -0.320000 0.725748 0.442193
v -0.320000 0.659748 0.386168
v -0.320000 0.725748 0.386168
v 0.320000 0.659748 0.442193
v 0.320000 0.725748 0.442193
v 0.320000 0.659748 0.386168
v 0.320000 0.725748 0.386168
v -0.320000 1.462748 0.442193
v -0.320000 1.528748 0.442193
v -0.320000 1.462748 0.386168
v -0.320000 1.528748 0.386168
v 0.320000 1.462748 0.442193
v 0.320000 1.528748 0.442193
v 0.320000 1.462748 0.386168
v 0.320000 1.528748 0.386168
v 0.105956 1.729067 0.423239
v 0.146705 1.745946 0.394956
v 0.105956 1.729067 0.394956
v 0.089077 1.688318 0.394956
v 0.105956 1.647568 0.394956
v 0.146705 1.630690 0.394956
v 0.187455 1.647568 0.394956
v 0.204334 1.688318 0.394956
v 0.187455 1.729067 0.394956
v 0.146705 1.745946 0.423239
v 0.089077 1.688318 0.423239
v 0.105956 1.647568 0.423239
v 0.146705 1.630690 0.423239
v 0.187455 1.647568 0.423239
v 0.204334 1.688318 0.423239
v 0.187455 1.729067 0.423239
v 0.267315 1.729067 0.423239
v 0.308064 1.745946 0.394956
v 0.267315 1.729067 0.394956
v 0.250436 1.688318 0.394956
v 0.267315 1.647568 0.394956
v 0.308064 1.630690 0.394956
v 0.348814 1.647568 0.394956
v 0.365692 1.688318 0.394956
v 0.348814 1.729067 0.394956
v 0.308064 1.745946 0.423239
v 0.250436 1.688318 0.423239
v 0.267315 1.647568 0.423239
v 0.308064 1.630690 0.423239
v 0.348814 1.647568 0.423239
v 0.365692 1.688318 0.423239
v 0.348814 1.729067 0.423239
v -0.105956 1.729067 0.423239
v -0.146705 1.745946 0.394956
v -0.105956 1.729067 0.394956
v -0.089077 1.688318 0.394956
v -0.105956 1.647568 0.394956
v -0.146705 1.630690 0.394956
v -0.187455 1.647568 0.394956
v -0.204334 1.688318 0.394956
v -0.187455 1.729067 0.394956
v -0.146705 1.745946 0.423239
v -0.089077 1.688318 0.423239
v -0.105956 1.647568 0.423239
v -0.146705 1.630690 0.423239
v -0.187455 1.647568 0.423239
v -0.204334 1.688318 0.423239
v -0.187455 1.729067 0.423239
v -0.267315 1.729067 0.423239
v -0.308064 1.745946 0.394956
v -0.267315 1.729067 0.394956
v -0.250436 1.688318 0.394956
v -0.267315 1.647568 0.394956
v -0.308064 1.630690 0.394956
v -0.348814 1.647568 0.394956
v -0.365692 1.688318 0.394956
v -0.348814 1.729067 0.394956
v -0.308064 1.745946 0.423239
v -0.250436 1.688318 0.423239
v -0.267315 1.647568 0.423239
v -0.308064 1.630690 0.423239
v -0.348814 1.647568 0.423239
v -0.365692 1.688318 0.423239
v -0.348814 1.729067 0.423239
v 0.392876 0.786500 -0.392876
v 0.392876 0.786500 0.392876
v -0.392876 0.786500 0.392876
v -0.392876 0.786500 -0.392876
v 0.392876 1.589500 0.392876
v -0.392876 1.589500 0.392876
v -0.392876 1.589500 -0.392876
v 0.392876 1.589500 -0.392876
vn -0.0000 -0.0000 -1.0000
vn -1.0000 -0.0000 -0.0000
vn -0.0000 -0.0000 1.0000
vn 1.0000 -0.0000 -0.0000
vn -0.0000 -1.0000 -0.0000
vn 0.9181 -0.3964 -0.0000
vn -0.9181 -0.3964 -0.0000
vn -0.0000 -0.3964 0.9181
vn -0.0000 -0.3964 -0.9181
vn -0.0000 1.0000 -0.0000
vn -0.3827 -0.9239 -0.0000
vn -0.9239 -0.3827 -0.0000
vn -0.3827 0.9239 -0.0000
vn 0.9239 -0.3827 -0.0000
vn 0.9239 0.3827 -0.0000
vn 0.3827 0.9239 -0.0000
vn 0.3827 -0.9239 -0.0000
vn -0.9239 0.3827 -0.0000
vn -0.0000 0.3964 -0.9181
vn -0.0000 0.3964 0.9181
vn -0.9181 0.3964 -0.0000
vn 0.9181 0.3964 -0.0000
vt 0.187500 0.156250
vt 0.000000 -0.000000
vt 0.187500 -0.000000
vt 0.375000 0.156250
vt 0.375000 -0.000000
vt 0.562500 0.156250
vt 0.562500 -0.000000
vt 0.750000 0.156250
vt 0.750000 -0.000000
vt 0.812500 0.187500
vt 1.000000 0.000000
vt 1.000000 0.187500
vt 0.750000 0.984375
vt 0.562500 1.000000
vt 0.562500 0.984375
vt 0.375000 0.984375
vt 0.187500 1.000000
vt 0.187500 0.984375
vt 0.375000 1.000000
vt -0.000000 1.000000
vt 0.000000 0.984375
vt -0.000000 0.156250
vt 0.375000 0.906250
vt 0.187500 0.937500
vt 0.187500 0.906250
vt 0.375000 0.343750
vt 0.562500 0.343750
vt -0.000000 0.937500
vt -0.000000 0.906250
vt 0.750000 0.906250
vt 0.562500 0.937500
vt 0.562500 0.906250
vt 0.375000 0.937500
vt 0.062500 0.250000
vt 0.031250 0.281250
vt 0.031250 0.250000
vt 0.281250 0.281250
vt 0.312500 0.250000
vt 0.312500 0.281250
vt 0.281250 0.250000
vt 0.281250 0.218750
vt 0.062500 0.218750
vt 0.062500 0.312500
vt 0.281250 0.312500
vt 0.218750 0.500000
vt 0.250000 0.531250
vt 0.218750 0.531250
vt 0.250000 0.562500
vt 0.218750 0.562500
vt 0.218750 0.593750
vt 0.250000 0.625000
vt 0.218750 0.625000
vt 0.218750 0.437500
vt 0.250000 0.468750
vt 0.218750 0.468750
vt 0.218750 0.406250
vt 0.250000 0.437500
vt 0.218750 0.375000
vt 0.250000 0.406250
vt 0.093750 0.468750
vt 0.156250 0.468750
vt 0.156250 0.531250
vt 0.250000 0.500000
vt 0.250000 0.593750
vt 0.093750 0.531250
vt 0.187500 0.968750
vt -0.000000 0.968750
vt 0.562500 0.968750
vt 0.375000 0.968750
vt 0.750000 0.968750
vt 0.000000 0.968750
vt 0.812500 0.000000
vt 0.750000 1.000000
vt 0.750000 0.937500
vt 0.062500 0.281250
vt 0.250000 0.375000
vt 0.125000 0.562500
vt 0.062500 0.500000
vt 0.125000 0.437500
vt 0.187500 0.500000
s 1
usemtl OvenStack
f 4/1/1 7/2/1 3/3/1
f 2/4/2 3/3/2 1/5/2
f 6/6/3 1/5/3 5/7/3
f 8/8/4 5/7/4 7/9/4
f 7/10/5 1/11/5 3/12/5
f 105/13/6 11/14/6 106/15/6
f 10/9/4 15/6/4 11/7/4
f 107/16/7 9/17/7 108/18/7
f 106/15/8 12/19/8 107/16/8
f 108/18/9 10/20/9 105/21/9
f 109/15/8 20/19/8 110/16/8
f 11/7/3 16/4/3 12/5/3
f 12/5/2 13/1/2 9/3/2
f 9/3/1 14/22/1 10/2/1
f 20/23/2 21/24/2 17/25/2
f 110/16/7 17/17/7 111/18/7
f 111/18/9 18/20/9 112/21/9
f 112/13/6 19/14/6 109/15/6
f 22/6/10 24/26/10 23/27/10
f 17/25/1 22/28/1 18/29/1
f 18/30/4 23/31/4 19/32/4
f 19/32/3 24/33/3 20/23/3
f 26/34/2 27/35/2 25/36/2
f 32/37/4 29/38/4 31/39/4
f 30/37/3 25/34/3 29/40/3
f 31/41/5 25/34/5 27/42/5
f 28/43/10 30/37/10 32/44/10
f 34/34/2 35/35/2 33/36/2
f 40/37/4 37/38/4 39/39/4
f 38/37/3 33/34/3 37/40/3
f 39/41/5 33/34/5 35/42/5
f 36/43/10 38/37/10 40/44/10
f 46/45/11 52/46/11 45/47/11
f 45/47/12 51/48/12 44/49/12
f 43/50/13 50/51/13 42/52/13
f 48/53/14 54/54/14 47/55/14
f 49/56/15 55/57/15 48/53/15
f 42/58/16 56/59/16 49/56/16
f 52/60/3 54/61/3 56/62/3
f 47/55/17 53/63/17 46/45/17
f 44/49/18 41/64/18 43/50/18
f 62/45/11 68/46/11 61/47/11
f 61/47/12 67/48/12 60/49/12
f 59/50/13 66/51/13 58/52/13
f 64/53/14 70/54/14 63/55/14
f 65/56/15 71/57/15 64/53/15
f 58/58/16 72/59/16 65/56/16
f 68/60/3 70/61/3 72/62/3
f 63/55/17 69/63/17 62/45/17
f 60/49/18 57/64/18 59/50/18
f 84/46/17 78/45/17 77/47/17
f 83/48/14 77/47/14 76/49/14
f 82/51/16 75/50/16 74/52/16
f 86/54/12 80/53/12 79/55/12
f 87/57/18 81/56/18 80/53/18
f 88/59/13 74/58/13 81/56/13
f 86/61/3 84/60/3 73/65/3
f 85/63/11 79/55/11 78/45/11
f 73/64/15 76/49/15 75/50/15
f 100/46/17 94/45/17 93/47/17
f 99/48/14 93/47/14 92/49/14
f 98/51/16 91/50/16 90/52/16
f 102/54/12 96/53/12 95/55/12
f 103/57/18 97/56/18 96/53/18
f 104/59/13 90/58/13 97/56/13
f 102/61/3 100/60/3 89/65/3
f 101/63/11 95/55/11 94/45/11
f 89/64/15 92/49/15 91/50/15
f 4/66/19 105/21/19 8/67/19
f 6/68/20 107/16/20 2/69/20
f 2/69/21 108/18/21 4/66/21
f 8/70/22 106/15/22 6/68/22
f 14/70/22 109/15/22 15/68/22
f 13/66/19 112/21/19 14/71/19
f 16/69/21 111/18/21 13/66/21
f 15/68/20 110/16/20 16/69/20
f 4/1/1 8/22/1 7/2/1
f 2/4/2 4/1/2 3/3/2
f 6/6/3 2/4/3 1/5/3
f 8/8/4 6/6/4 5/7/4
f 7/10/5 5/72/5 1/11/5
f 105/13/6 10/73/6 11/14/6
f 10/9/4 14/8/4 15/6/4
f 107/16/7 12/19/7 9/17/7
f 106/15/8 11/14/8 12/19/8
f 108/18/9 9/17/9 10/20/9
f 109/15/8 19/14/8 20/19/8
f 11/7/3 15/6/3 16/4/3
f 12/5/2 16/4/2 13/1/2
f 9/3/1 13/1/1 14/22/1
f 20/23/2 24/33/2 21/24/2
f 110/16/7 20/19/7 17/17/7
f 111/18/9 17/17/9 18/20/9
f 112/13/6 18/73/6 19/14/6
f 22/6/10 21/4/10 24/26/10
f 17/25/1 21/24/1 22/28/1
f 18/30/4 22/74/4 23/31/4
f 19/32/3 23/31/3 24/33/3
f 26/34/2 28/75/2 27/35/2
f 32/37/4 30/40/4 29/38/4
f 30/37/3 26/75/3 25/34/3
f 31/41/5 29/40/5 25/34/5
f 28/43/10 26/75/10 30/37/10
f 34/34/2 36/75/2 35/35/2
f 40/37/4 38/40/4 37/38/4
f 38/37/3 34/75/3 33/34/3
f 39/41/5 37/40/5 33/34/5
f 36/43/10 34/75/10 38/37/10
f 46/45/11 53/63/11 52/46/11
f 45/47/12 52/46/12 51/48/12
f 43/50/13 41/64/13 50/51/13
f 48/53/14 55/57/14 54/54/14
f 49/56/15 56/59/15 55/57/15
f 42/58/16 50/76/16 56/59/16
f 56/62/3 50/77/3 41/65/3
f 41/65/3 51/78/3 52/60/3
f 52/60/3 53/79/3 54/61/3
f 54/61/3 55/80/3 56/62/3
f 56/62/3 41/65/3 52/60/3
f 47/55/17 54/54/17 53/63/17
f 44/49/18 51/48/18 41/64/18
f 62/45/11 69/63/11 68/46/11
f 61/47/12 68/46/12 67/48/12
f 59/50/13 57/64/13 66/51/13
f 64/53/14 71/57/14 70/54/14
f 65/56/15 72/59/15 71/57/15
f 58/58/16 66/76/16 72/59/16
f 72/62/3 66/77/3 57/65/3
f 57/65/3 67/78/3 68/60/3
f 68/60/3 69/79/3 70/61/3
f 70/61/3 71/80/3 72/62/3
f 72/62/3 57/65/3 68/60/3
f 63/55/17 70/54/17 69/63/17
f 60/49/18 67/48/18 57/64/18
f 84/46/17 85/63/17 78/45/17
f 83/48/14 84/46/14 77/47/14
f 82/51/16 73/64/16 75/50/16
f 86/54/12 87/57/12 80/53/12
f 87/57/18 88/59/18 81/56/18
f 88/59/13 82/76/13 74/58/13
f 73/65/3 82/77/3 88/62/3
f 88/62/3 87/80/3 86/61/3
f 86/61/3 85/79/3 84/60/3
f 84/60/3 83/78/3 73/65/3
f 73/65/3 88/62/3 86/61/3
f 85/63/11 86/54/11 79/55/11
f 73/64/15 83/48/15 76/49/15
f 100/46/17 101/63/17 94/45/17
f 99/48/14 100/46/14 93/47/14
f 98/51/16 89/64/16 91/50/16
f 102/54/12 103/57/12 96/53/12
f 103/57/18 104/59/18 97/56/18
f 104/59/13 98/76/13 90/58/13
f 89/65/3 98/77/3 104/62/3
f 104/62/3 103/80/3 102/61/3
f 102/61/3 101/79/3 100/60/3
f 100/60/3 99/78/3 89/65/3
f 89/65/3 104/62/3 102/61/3
f 101/63/11 102/54/11 95/55/11
f 89/64/15 99/48/15 92/49/15
f 4/66/19 108/18/19 105/21/19
f 6/68/20 106/15/20 107/16/20
f 2/69/21 107/16/21 108/18/21
f 8/70/22 105/13/22 106/15/22
f 14/70/22 112/13/22 109/15/22
f 13/66/19 111/18/19 112/21/19
f 16/69/21 110/16/21 111/18/21
f 15/68/20 109/15/20 110/16/20
