# Blender 5.0.1
# www.blender.org
mtllib SmallCardboardBoxFlat.mtl
o SmallCardboardBoxFlat
v -0.105000 0.000000 0.084000
v -0.105000 0.082690 0.084000
v -0.105000 0.000000 -0.084000
v -0.105000 0.082690 -0.084000
v 0.105000 0.000000 0.084000
v 0.105000 0.082690 0.084000
v 0.105000 0.000000 -0.084000
v 0.105000 0.082690 -0.084000
vn -1.0000 -0.0000 -0.0000
vn -0.0000 -0.0000 -1.0000
vn 1.0000 -0.0000 -0.0000
vn -0.0000 -1.0000 -0.0000
vn -0.0000 1.0000 -0.0000
vn -0.0000 -0.0000 1.0000
vt 0.281250 0.125000
vt 0.031250 0.000000
vt 0.281250 0.000000
vt 0.656250 0.562500
vt 0.343750 0.437500
vt 0.656250 0.437500
vt 0.343750 0.625000
vt 0.656250 0.375000
vt 0.656250 0.625000
vt 0.000000 0.968750
vt 0.312500 0.718750
vt 0.312500 0.968750
vt 0.656250 0.125000
vt 0.343750 0.000000
vt 0.656250 0.000000
vt 0.031250 0.125000
vt 0.343750 0.562500
vt 0.343750 0.375000
vt 0.000000 0.718750
vt 0.343750 0.125000
s 0
usemtl CardboardBox
f 2/1/1 3/2/1 1/3/1
f 4/4/2 7/5/2 3/6/2
f 8/1/3 5/2/3 7/3/3
f 7/7/4 1/8/4 3/9/4
f 4/10/5 6/11/5 8/12/5
f 6/13/6 1/14/6 5/15/6
f 2/1/1 4/16/1 3/2/1
f 4/4/2 8/17/2 7/5/2
f 8/1/3 6/16/3 5/2/3
f 7/7/4 5/18/4 1/8/4
f 4/10/5 2/19/5 6/11/5
f 6/13/6 2/20/6 1/14/6
