# Blender 5.1.1
# www.blender.org
mtllib Fryer.mtl
o Fryer
v -0.800000 0.000000 0.400000
v -0.800000 -0.000000 -0.400000
v 0.800000 -0.000000 -0.400000
v 0.800000 0.000000 0.400000
v -0.800000 1.000000 0.400000
v -0.800000 1.000000 -0.400000
v 0.800000 1.000000 -0.400000
v 0.800000 1.000000 0.400000
v -0.665757 1.000000 0.265757
v -0.665757 1.000000 -0.265757
v 0.665757 1.000000 -0.265757
v 0.665757 1.000000 0.265757
v 0.332879 1.000000 0.265757
v 0.000000 1.000000 0.265757
v -0.332879 1.000000 0.265757
v -0.332879 1.000000 -0.265757
v 0.000000 1.000000 -0.265757
v 0.332879 1.000000 -0.265757
v -0.640486 0.984482 0.240486
v -0.640486 0.984482 -0.240486
v -0.358150 0.984482 -0.240486
v -0.358150 0.984482 0.240486
v 0.358150 0.984482 0.240486
v 0.358150 0.984482 -0.240486
v 0.640486 0.984482 -0.240486
v 0.640486 0.984482 0.240486
v -0.307608 0.984482 0.240486
v -0.307608 0.984482 -0.240486
v -0.025271 0.984482 -0.240486
v -0.025271 0.984482 0.240486
v 0.025271 0.984482 0.240486
v 0.025271 0.984482 -0.240486
v 0.307608 0.984482 -0.240486
v 0.307608 0.984482 0.240486
v -0.640486 0.823621 0.240486
v -0.640486 0.823621 -0.240486
v -0.358150 0.823621 0.240486
v -0.358150 0.823621 -0.240486
v 0.358150 0.823621 -0.240486
v 0.358150 0.823621 0.240486
v 0.640486 0.823621 0.240486
v 0.640486 0.823621 -0.240486
v -0.307608 0.823621 -0.240486
v -0.307608 0.823621 0.240486
v -0.025271 0.823621 0.240486
v -0.025271 0.823621 -0.240486
v 0.025271 0.823621 -0.240486
v 0.025271 0.823621 0.240486
v 0.307608 0.823621 0.240486
v 0.307608 0.823621 -0.240486
v -0.800000 1.000000 -0.300555
v 0.800000 1.000000 -0.300555
v -0.800000 -0.000000 -0.300555
v 0.800000 -0.000000 -0.300555
v -0.800000 1.300000 -0.300555
v -0.800000 1.300000 -0.400000
v 0.800000 1.300000 -0.400000
v 0.800000 1.300000 -0.300555
v -0.800000 1.000000 0.440000
v 0.800000 0.666667 0.400000
v -0.800000 0.666667 0.400000
v 0.800000 1.000000 0.440000
v 0.800000 0.666667 0.440000
v -0.800000 0.666667 0.440000
v -0.428596 0.919731 0.444691
v -0.465825 0.919731 0.444691
v -0.428596 0.845273 0.444691
v -0.465825 0.845273 0.444691
v -0.428596 0.845273 0.440691
v -0.428596 0.919731 0.440691
v -0.465825 0.919731 0.440691
v -0.465825 0.845273 0.440691
v -0.432810 0.914502 0.448691
v -0.461610 0.914502 0.448691
v -0.432810 0.851981 0.458318
v -0.461610 0.851981 0.458318
v -0.432810 0.882502 0.448691
v -0.461610 0.882502 0.448691
v -0.432810 0.914502 0.432691
v -0.461610 0.914502 0.432691
v -0.432810 0.847169 0.443059
v -0.461610 0.847169 0.443059
v -0.432810 0.880039 0.432691
v -0.461610 0.880039 0.432691
v -0.097257 0.919731 0.444691
v -0.134486 0.919731 0.444691
v -0.097257 0.845273 0.444691
v -0.134486 0.845273 0.444691
v -0.097257 0.845273 0.440691
v -0.097257 0.919731 0.440691
v -0.134486 0.919731 0.440691
v -0.134486 0.845273 0.440691
v -0.101471 0.914502 0.448691
v -0.130271 0.914502 0.448691
v -0.101471 0.851981 0.458318
v -0.130271 0.851981 0.458318
v -0.101471 0.882502 0.448691
v -0.130271 0.882502 0.448691
v -0.101471 0.914502 0.432691
v -0.130271 0.914502 0.432691
v -0.101471 0.847169 0.443059
v -0.130271 0.847169 0.443059
v -0.101471 0.880039 0.432691
v -0.130271 0.880039 0.432691
v 0.234082 0.919731 0.444691
v 0.196853 0.919731 0.444691
v 0.234082 0.845273 0.444691
v 0.196853 0.845273 0.444691
v 0.234082 0.845273 0.440691
v 0.234082 0.919731 0.440691
v 0.196853 0.919731 0.440691
v 0.196853 0.845273 0.440691
v 0.229867 0.914502 0.448691
v 0.201067 0.914502 0.448691
v 0.229867 0.851981 0.458318
v 0.201067 0.851981 0.458318
v 0.229867 0.882502 0.448691
v 0.201067 0.882502 0.448691
v 0.229867 0.914502 0.432691
v 0.201067 0.914502 0.432691
v 0.229867 0.847169 0.443059
v 0.201067 0.847169 0.443059
v 0.229867 0.880039 0.432691
v 0.201067 0.880039 0.432691
v 0.565421 0.919731 0.444691
v 0.528192 0.919731 0.444691
v 0.565421 0.845273 0.444691
v 0.528192 0.845273 0.444691
v 0.565421 0.845273 0.440691
v 0.565421 0.919731 0.440691
v 0.528192 0.919731 0.440691
v 0.528192 0.845273 0.440691
v 0.561206 0.914502 0.448691
v 0.532406 0.914502 0.448691
v 0.561206 0.851981 0.458318
v 0.532406 0.851981 0.458318
v 0.561206 0.882502 0.448691
v 0.532406 0.882502 0.448691
v 0.561206 0.914502 0.432691
v 0.532406 0.914502 0.432691
v 0.561206 0.847168 0.443059
v 0.532406 0.847168 0.443059
v 0.561206 0.880039 0.432691
v 0.532406 0.880039 0.432691
v -0.553132 0.936881 0.463834
v -0.587358 0.922704 0.463834
v -0.601535 0.888478 0.463834
v -0.587358 0.854252 0.463834
v -0.553132 0.840075 0.463834
v -0.518906 0.854252 0.463834
v -0.504729 0.888478 0.463834
v -0.518906 0.922704 0.463834
v -0.587358 0.922704 0.425984
v -0.553132 0.936881 0.425984
v -0.601535 0.888478 0.425984
v -0.587358 0.854252 0.425984
v -0.553132 0.840075 0.425984
v -0.518906 0.854252 0.425984
v -0.504729 0.888478 0.425984
v -0.518906 0.922704 0.425984
v -0.220118 0.936881 0.463834
v -0.254344 0.922704 0.463834
v -0.268521 0.888478 0.463834
v -0.254344 0.854252 0.463834
v -0.220118 0.840075 0.463834
v -0.185892 0.854252 0.463834
v -0.171715 0.888478 0.463834
v -0.185892 0.922704 0.463834
v -0.254344 0.922704 0.425984
v -0.220118 0.936881 0.425984
v -0.268521 0.888478 0.425984
v -0.254344 0.854252 0.425984
v -0.220118 0.840075 0.425984
v -0.185892 0.854252 0.425984
v -0.171715 0.888478 0.425984
v -0.185892 0.922704 0.425984
v 0.112896 0.936881 0.463834
v 0.078669 0.922704 0.463834
v 0.064492 0.888478 0.463834
v 0.078669 0.854252 0.463834
v 0.112896 0.840075 0.463834
v 0.147122 0.854252 0.463834
v 0.161299 0.888478 0.463834
v 0.147122 0.922704 0.463834
v 0.078669 0.922704 0.425984
v 0.112896 0.936881 0.425984
v 0.064492 0.888478 0.425984
v 0.078669 0.854252 0.425984
v 0.112896 0.840075 0.425984
v 0.147122 0.854252 0.425984
v 0.161299 0.888478 0.425984
v 0.147122 0.922704 0.425984
v 0.445909 0.936881 0.463834
v 0.411683 0.922704 0.463834
v 0.397506 0.888478 0.463834
v 0.411683 0.854252 0.463834
v 0.445909 0.840075 0.463834
v 0.480135 0.854252 0.463834
v 0.494312 0.888478 0.463834
v 0.480135 0.922704 0.463834
v 0.411683 0.922704 0.425984
v 0.445909 0.936881 0.425984
v 0.397506 0.888478 0.425984
v 0.411683 0.854252 0.425984
v 0.445909 0.840075 0.425984
v 0.480135 0.854252 0.425984
v 0.494312 0.888478 0.425984
v 0.480135 0.922704 0.425984
v -0.568112 1.220702 -0.243709
v -0.548112 1.220702 -0.243709
v -0.568112 1.202401 -0.312010
v -0.548112 1.202401 -0.312010
v -0.568112 1.177401 -0.268708
v -0.548112 1.177401 -0.268708
v -0.448112 1.220702 -0.243709
v -0.428112 1.220702 -0.243709
v -0.448112 1.202401 -0.312010
v -0.428112 1.202401 -0.312010
v -0.448112 1.177401 -0.268708
v -0.428112 1.177401 -0.268708
v -0.236312 1.220702 -0.243709
v -0.216312 1.220702 -0.243709
v -0.236312 1.202401 -0.312010
v -0.216312 1.202401 -0.312010
v -0.236312 1.177401 -0.268708
v -0.216312 1.177401 -0.268708
v -0.116312 1.220702 -0.243709
v -0.096312 1.220702 -0.243709
v -0.116312 1.202401 -0.312010
v -0.096312 1.202401 -0.312010
v -0.116312 1.177401 -0.268708
v -0.096312 1.177401 -0.268708
v 0.095488 1.220702 -0.243709
v 0.115488 1.220702 -0.243709
v 0.095488 1.202401 -0.312010
v 0.115488 1.202401 -0.312010
v 0.095488 1.177401 -0.268708
v 0.115488 1.177401 -0.268708
v 0.215488 1.220702 -0.243709
v 0.235488 1.220702 -0.243709
v 0.215488 1.202401 -0.312010
v 0.235488 1.202401 -0.312010
v 0.215488 1.177401 -0.268708
v 0.235488 1.177401 -0.268708
v 0.427288 1.220702 -0.243709
v 0.447288 1.220702 -0.243709
v 0.427288 1.202401 -0.312010
v 0.447288 1.202401 -0.312010
v 0.427288 1.177401 -0.268708
v 0.447288 1.177401 -0.268708
v 0.547288 1.220702 -0.243709
v 0.567288 1.220702 -0.243709
v 0.547288 1.202401 -0.312010
v 0.567288 1.202401 -0.312010
v 0.547288 1.177401 -0.268708
v 0.567288 1.177401 -0.268708
vn -0.0000 -1.0000 -0.0000
vn 1.0000 -0.0000 -0.0000
vn -1.0000 -0.0000 -0.0000
vn -0.0000 -0.0000 1.0000
vn -0.0000 -0.0000 -1.0000
vn -0.0000 1.0000 -0.0000
vn 0.5233 0.8522 -0.0000
vn -0.0000 0.8522 0.5233
vn -0.5233 0.8522 -0.0000
vn -0.0000 0.8522 -0.5233
vn -0.0000 0.3008 0.9537
vn -0.0000 -0.9537 0.3008
vn 0.3827 -0.9239 -0.0000
vn -0.9239 -0.3827 -0.0000
vn -0.3827 0.9239 -0.0000
vn 0.3827 0.9239 -0.0000
vn 0.9239 -0.3827 -0.0000
vn -0.3827 -0.9239 -0.0000
vn -0.9239 0.3827 -0.0000
vn 0.9239 0.3827 -0.0000
vn -0.0000 0.8660 0.5000
vn -0.0000 -0.5000 0.8660
vt 0.375000 0.250000
vt 0.000000 0.414193
vt 0.375000 0.414193
vt 0.539193 0.000000
vt 0.562500 0.218750
vt 0.539193 0.218750
vt 0.375000 0.145833
vt 0.375000 0.218750
vt 0.000000 0.156250
vt 0.000000 0.250000
vt 0.375000 0.000000
vt 0.000000 0.218750
vt 0.468750 0.281250
vt 0.437500 0.375000
vt 0.437500 0.281250
vt 0.187500 0.406037
vt 0.265518 0.406037
vt 0.000000 0.593750
vt 0.375000 0.531250
vt 0.000000 0.531250
vt 0.187500 0.281463
vt 0.109482 0.281463
vt 0.531250 0.375000
vt 0.562500 0.281250
vt 0.562500 0.375000
vt 0.037386 0.287386
vt 0.031463 0.406037
vt 0.031463 0.281463
vt 0.037386 0.400114
vt 0.109482 0.406037
vt 0.103559 0.400114
vt 0.103559 0.287386
vt 0.271441 0.287386
vt 0.265518 0.281463
vt 0.271441 0.400114
vt 0.343537 0.406037
vt 0.337614 0.400114
vt 0.343537 0.281463
vt 0.337614 0.287386
vt 0.115404 0.287386
vt 0.115404 0.400114
vt 0.181577 0.400114
vt 0.193423 0.287386
vt 0.259596 0.400114
vt 0.259596 0.287386
vt 0.531250 0.281250
vt 0.468750 0.375000
vt 0.468750 0.250000
vt 0.531250 0.250000
vt 0.531250 0.406250
vt 0.468750 0.406250
vt 0.562500 0.000000
vt 0.000000 0.437500
vt 0.375000 0.437500
vt 0.000000 0.500000
vt 0.406250 0.281250
vt 0.406250 0.218750
vt 0.375000 0.281250
vt 0.375000 0.500000
vt 0.375000 0.375000
vt 0.406250 0.375000
vt 0.000000 0.000000
vt 0.000000 0.145833
vt 0.375000 0.187500
vt 0.375000 0.156250
vt 0.656250 0.125000
vt 0.687500 0.187500
vt 0.656250 0.187500
vt 0.656250 0.218750
vt 0.718750 0.125000
vt 0.687500 0.125000
vt 0.718750 0.187500
vt 0.687500 0.031250
vt 0.656250 0.062500
vt 0.656250 0.031250
vt 0.687500 0.000000
vt 0.656250 0.000000
vt 0.718750 0.031250
vt 0.718750 0.000000
vt 0.687500 0.093750
vt 0.656250 0.093750
vt 0.718750 0.062500
vt 0.687500 0.062500
vt 0.875000 0.250000
vt 0.937500 0.250000
vt 0.937500 0.312500
vt 0.625000 0.125000
vt 0.593750 0.093750
vt 0.593750 0.125000
vt 0.625000 0.187500
vt 0.593750 0.156250
vt 0.593750 0.187500
vt 0.625000 0.218750
vt 0.593750 0.250000
vt 0.593750 0.218750
vt 0.625000 -0.000000
vt 0.593750 0.031250
vt 0.593750 -0.000000
vt 0.625000 0.093750
vt 0.593750 0.062500
vt 0.625000 0.156250
vt 0.625000 0.031250
vt 0.781250 0.031250
vt 0.750000 0.000000
vt 0.781250 0.000000
vt 0.750000 0.062500
vt 0.750000 0.031250
vt 0.375000 0.593750
vt 0.181577 0.287386
vt 0.193423 0.400114
vt 0.000000 0.187500
vt 0.687500 0.218750
vt 0.906250 0.343750
vt 0.875000 0.312500
vt 0.843750 0.281250
vt 0.906250 0.218750
vt 0.968750 0.281250
vt 0.625000 0.250000
vt 0.625000 0.062500
vt 0.781250 0.062500
s 1
usemtl Fryer
f 4/1/1 53/2/1 54/3/1
f 54/4/2 7/5/2 52/6/2
f 53/4/3 61/7/3 5/8/3
f 64/9/4 62/1/4 59/10/4
f 3/11/5 6/12/5 7/8/5
f 40/13/2 24/14/2 23/15/2
f 17/16/6 18/17/6 52/3/6
f 60/7/2 54/4/2 52/6/2
f 56/18/5 7/19/5 6/20/5
f 14/21/6 15/22/6 5/10/6
f 35/13/2 20/14/2 19/15/2
f 50/23/3 34/24/3 33/25/3
f 46/23/3 30/24/3 29/25/3
f 19/26/7 10/27/7 9/28/7
f 20/29/8 16/30/8 10/27/8
f 21/31/9 15/22/9 16/30/9
f 22/32/10 9/28/10 15/22/10
f 23/33/7 18/17/7 13/34/7
f 24/35/8 11/36/8 18/17/8
f 25/37/9 12/38/9 11/36/9
f 26/39/10 13/34/10 12/38/10
f 27/40/7 16/30/7 15/22/7
f 28/41/8 17/16/8 16/30/8
f 29/42/9 14/21/9 17/16/9
f 14/21/10 27/40/10 15/22/10
f 31/43/7 17/16/7 14/21/7
f 17/16/8 33/44/8 18/17/8
f 33/44/9 13/34/9 18/17/9
f 34/45/10 14/21/10 13/34/10
f 37/46/6 36/47/6 35/13/6
f 41/46/6 39/47/6 40/13/6
f 45/46/6 43/47/6 44/13/6
f 49/46/6 47/47/6 48/13/6
f 37/46/5 19/48/5 22/49/5
f 44/13/2 28/14/2 27/15/2
f 41/46/5 23/48/5 26/49/5
f 48/13/2 32/14/2 31/15/2
f 36/47/4 21/50/4 20/51/4
f 45/46/5 27/48/5 30/49/5
f 39/47/4 25/50/4 24/51/4
f 49/46/5 31/48/5 34/49/5
f 38/23/3 22/24/3 21/25/3
f 43/47/4 29/50/4 28/51/4
f 42/23/3 26/24/3 25/25/3
f 47/47/4 33/50/4 32/51/4
f 2/52/3 51/6/3 6/5/3
f 54/3/1 2/53/1 3/54/1
f 12/38/6 52/3/6 11/36/6
f 51/2/6 9/28/6 10/27/6
f 55/55/6 57/19/6 56/20/6
f 57/56/2 52/8/2 7/57/2
f 55/58/3 6/57/3 51/8/3
f 58/59/4 51/53/4 52/54/4
f 62/60/2 60/56/2 8/61/2
f 59/10/6 8/8/6 5/12/6
f 1/62/4 60/7/4 61/63/4
f 63/64/1 61/9/1 60/65/1
f 64/56/3 5/60/3 61/58/3
f 65/66/4 68/67/4 67/68/4
f 72/67/1 67/69/1 68/68/1
f 70/67/6 66/69/6 65/68/6
f 71/70/3 68/67/3 66/71/3
f 69/67/2 65/70/2 67/72/2
f 78/73/11 75/74/11 77/75/11
f 74/76/4 77/75/4 73/77/4
f 77/78/2 79/76/2 73/79/2
f 73/74/6 80/80/6 74/81/6
f 78/73/3 82/82/3 76/83/3
f 76/74/12 81/80/12 75/81/12
f 77/78/2 81/83/2 83/73/2
f 78/73/3 80/79/3 84/78/3
f 85/66/4 88/67/4 87/68/4
f 92/67/1 87/69/1 88/68/1
f 90/67/6 86/69/6 85/68/6
f 91/70/3 88/67/3 86/71/3
f 89/67/2 85/70/2 87/72/2
f 98/73/11 95/74/11 97/75/11
f 94/76/4 97/75/4 93/77/4
f 97/78/2 99/76/2 93/79/2
f 93/74/6 100/80/6 94/81/6
f 98/73/3 102/82/3 96/83/3
f 96/74/12 101/80/12 95/81/12
f 97/78/2 101/83/2 103/73/2
f 98/73/3 100/79/3 104/78/3
f 106/71/4 107/68/4 105/66/4
f 112/67/1 107/69/1 108/68/1
f 110/67/6 106/69/6 105/68/6
f 111/70/3 108/67/3 106/71/3
f 109/67/2 105/70/2 107/72/2
f 118/73/11 115/74/11 117/75/11
f 114/76/4 117/75/4 113/77/4
f 117/78/2 119/76/2 113/79/2
f 113/74/6 120/80/6 114/81/6
f 118/73/3 122/82/3 116/83/3
f 116/74/12 121/80/12 115/81/12
f 117/78/2 121/83/2 123/73/2
f 118/73/3 120/79/3 124/78/3
f 126/71/4 127/68/4 125/66/4
f 132/67/1 127/69/1 128/68/1
f 130/67/6 126/69/6 125/68/6
f 131/70/3 128/67/3 126/71/3
f 129/67/2 125/70/2 127/72/2
f 138/73/11 135/74/11 137/75/11
f 134/76/4 137/75/4 133/77/4
f 137/78/2 139/76/2 133/79/2
f 133/74/6 140/80/6 134/81/6
f 138/73/3 142/82/3 136/83/3
f 136/74/12 141/80/12 135/81/12
f 137/78/2 141/83/2 143/73/2
f 138/73/3 140/79/3 144/78/3
f 148/84/4 150/85/4 152/86/4
f 157/87/13 150/88/13 149/89/13
f 155/90/14 148/91/14 147/92/14
f 154/93/15 146/94/15 145/95/15
f 160/96/16 145/97/16 152/98/16
f 158/99/17 151/100/17 150/88/17
f 156/101/18 149/89/18 148/91/18
f 153/90/19 147/95/19 146/92/19
f 159/102/20 152/100/20 151/97/20
f 164/84/4 166/85/4 168/86/4
f 173/87/13 166/88/13 165/89/13
f 163/92/14 172/101/14 164/91/14
f 170/93/15 162/94/15 161/95/15
f 176/96/16 161/97/16 168/98/16
f 174/99/17 167/100/17 166/88/17
f 172/101/18 165/89/18 164/91/18
f 162/92/19 171/93/19 163/95/19
f 175/102/20 168/100/20 167/97/20
f 180/84/4 182/85/4 184/86/4
f 189/87/13 182/88/13 181/89/13
f 179/92/14 188/101/14 180/91/14
f 186/93/15 178/94/15 177/95/15
f 192/96/16 177/97/16 184/98/16
f 190/99/17 183/100/17 182/88/17
f 188/101/18 181/89/18 180/91/18
f 178/92/19 187/93/19 179/95/19
f 191/102/20 184/100/20 183/97/20
f 196/84/4 198/85/4 200/86/4
f 205/87/13 198/88/13 197/89/13
f 203/90/14 196/91/14 195/92/14
f 202/93/15 194/94/15 193/95/15
f 208/96/16 193/97/16 200/98/16
f 206/99/17 199/100/17 198/88/17
f 204/101/18 197/89/18 196/91/18
f 201/90/19 195/95/19 194/92/19
f 207/102/20 200/100/20 199/97/20
f 214/103/21 211/104/21 213/105/21
f 213/103/22 210/106/22 209/107/22
f 220/103/21 217/104/21 219/105/21
f 219/103/22 216/106/22 215/107/22
f 226/103/21 223/104/21 225/105/21
f 225/103/22 222/106/22 221/107/22
f 232/103/21 229/104/21 231/105/21
f 231/103/22 228/106/22 227/107/22
f 238/103/21 235/104/21 237/105/21
f 237/103/22 234/106/22 233/107/22
f 244/103/21 241/104/21 243/105/21
f 243/103/22 240/106/22 239/107/22
f 250/103/21 247/104/21 249/105/21
f 249/103/22 246/106/22 245/107/22
f 256/103/21 253/104/21 255/105/21
f 255/103/22 252/106/22 251/107/22
f 4/1/1 1/10/1 53/2/1
f 54/4/2 3/52/2 7/5/2
f 5/8/3 51/6/3 53/4/3
f 53/4/3 1/11/3 61/7/3
f 64/9/4 63/65/4 62/1/4
f 3/11/5 2/62/5 6/12/5
f 40/13/2 39/47/2 24/14/2
f 52/3/6 51/2/6 10/27/6
f 52/3/6 10/27/6 16/30/6
f 18/17/6 11/36/6 52/3/6
f 52/3/6 16/30/6 17/16/6
f 52/6/2 8/8/2 60/7/2
f 60/7/2 4/11/2 54/4/2
f 56/18/5 57/108/5 7/19/5
f 5/10/6 8/1/6 12/38/6
f 5/10/6 12/38/6 13/34/6
f 15/22/6 9/28/6 5/10/6
f 5/10/6 13/34/6 14/21/6
f 35/13/2 36/47/2 20/14/2
f 50/23/3 49/46/3 34/24/3
f 46/23/3 45/46/3 30/24/3
f 19/26/7 20/29/7 10/27/7
f 20/29/8 21/31/8 16/30/8
f 21/31/9 22/32/9 15/22/9
f 22/32/10 19/26/10 9/28/10
f 23/33/7 24/35/7 18/17/7
f 24/35/8 25/37/8 11/36/8
f 25/37/9 26/39/9 12/38/9
f 26/39/10 23/33/10 13/34/10
f 27/40/7 28/41/7 16/30/7
f 28/41/8 29/42/8 17/16/8
f 29/42/9 30/109/9 14/21/9
f 14/21/10 30/109/10 27/40/10
f 31/43/7 32/110/7 17/16/7
f 17/16/8 32/110/8 33/44/8
f 33/44/9 34/45/9 13/34/9
f 34/45/10 31/43/10 14/21/10
f 37/46/6 38/23/6 36/47/6
f 41/46/6 42/23/6 39/47/6
f 45/46/6 46/23/6 43/47/6
f 49/46/6 50/23/6 47/47/6
f 37/46/5 35/13/5 19/48/5
f 44/13/2 43/47/2 28/14/2
f 41/46/5 40/13/5 23/48/5
f 48/13/2 47/47/2 32/14/2
f 36/47/4 38/23/4 21/50/4
f 45/46/5 44/13/5 27/48/5
f 39/47/4 42/23/4 25/50/4
f 49/46/5 48/13/5 31/48/5
f 38/23/3 37/46/3 22/24/3
f 43/47/4 46/23/4 29/50/4
f 42/23/3 41/46/3 26/24/3
f 47/47/4 50/23/4 33/50/4
f 2/52/3 53/4/3 51/6/3
f 54/3/1 53/2/1 2/53/1
f 12/38/6 8/1/6 52/3/6
f 51/2/6 5/10/6 9/28/6
f 55/55/6 58/59/6 57/19/6
f 57/56/2 58/58/2 52/8/2
f 55/58/3 56/56/3 6/57/3
f 58/59/4 55/55/4 51/53/4
f 62/60/2 63/58/2 60/56/2
f 59/10/6 62/1/6 8/8/6
f 1/62/4 4/11/4 60/7/4
f 63/64/1 64/111/1 61/9/1
f 64/56/3 59/61/3 5/60/3
f 65/66/4 66/71/4 68/67/4
f 72/67/1 69/112/1 67/69/1
f 70/67/6 71/112/6 66/69/6
f 71/70/3 72/72/3 68/67/3
f 69/67/2 70/71/2 65/70/2
f 78/73/11 76/83/11 75/74/11
f 74/76/4 78/73/4 77/75/4
f 77/78/2 83/73/2 79/76/2
f 73/74/6 79/83/6 80/80/6
f 78/73/3 84/78/3 82/82/3
f 76/74/12 82/83/12 81/80/12
f 77/78/2 75/82/2 81/83/2
f 78/73/3 74/76/3 80/79/3
f 85/66/4 86/71/4 88/67/4
f 92/67/1 89/112/1 87/69/1
f 90/67/6 91/112/6 86/69/6
f 91/70/3 92/72/3 88/67/3
f 89/67/2 90/71/2 85/70/2
f 98/73/11 96/83/11 95/74/11
f 94/76/4 98/73/4 97/75/4
f 97/78/2 103/73/2 99/76/2
f 93/74/6 99/83/6 100/80/6
f 98/73/3 104/78/3 102/82/3
f 96/74/12 102/83/12 101/80/12
f 97/78/2 95/82/2 101/83/2
f 98/73/3 94/76/3 100/79/3
f 106/71/4 108/67/4 107/68/4
f 112/67/1 109/112/1 107/69/1
f 110/67/6 111/112/6 106/69/6
f 111/70/3 112/72/3 108/67/3
f 109/67/2 110/71/2 105/70/2
f 118/73/11 116/83/11 115/74/11
f 114/76/4 118/73/4 117/75/4
f 117/78/2 123/73/2 119/76/2
f 113/74/6 119/83/6 120/80/6
f 118/73/3 124/78/3 122/82/3
f 116/74/12 122/83/12 121/80/12
f 117/78/2 115/82/2 121/83/2
f 118/73/3 114/76/3 120/79/3
f 126/71/4 128/67/4 127/68/4
f 132/67/1 129/112/1 127/69/1
f 130/67/6 131/112/6 126/69/6
f 131/70/3 132/72/3 128/67/3
f 129/67/2 130/71/2 125/70/2
f 138/73/11 136/83/11 135/74/11
f 134/76/4 138/73/4 137/75/4
f 137/78/2 143/73/2 139/76/2
f 133/74/6 139/83/6 140/80/6
f 138/73/3 144/78/3 142/82/3
f 136/74/12 142/83/12 141/80/12
f 137/78/2 135/82/2 141/83/2
f 138/73/3 134/76/3 140/79/3
f 152/86/4 145/113/4 146/114/4
f 146/114/4 147/115/4 148/84/4
f 148/84/4 149/116/4 150/85/4
f 150/85/4 151/117/4 152/86/4
f 152/86/4 146/114/4 148/84/4
f 157/87/13 158/99/13 150/88/13
f 155/90/14 156/101/14 148/91/14
f 154/93/15 153/118/15 146/94/15
f 160/96/16 154/102/16 145/97/16
f 158/99/17 159/119/17 151/100/17
f 156/101/18 157/87/18 149/89/18
f 153/90/19 155/93/19 147/95/19
f 159/102/20 160/119/20 152/100/20
f 168/86/4 161/113/4 162/114/4
f 162/114/4 163/115/4 164/84/4
f 164/84/4 165/116/4 166/85/4
f 166/85/4 167/117/4 168/86/4
f 168/86/4 162/114/4 164/84/4
f 173/87/13 174/99/13 166/88/13
f 163/92/14 171/90/14 172/101/14
f 170/93/15 169/118/15 162/94/15
f 176/96/16 170/102/16 161/97/16
f 174/99/17 175/119/17 167/100/17
f 172/101/18 173/87/18 165/89/18
f 162/92/19 169/90/19 171/93/19
f 175/102/20 176/119/20 168/100/20
f 184/86/4 177/113/4 178/114/4
f 178/114/4 179/115/4 180/84/4
f 180/84/4 181/116/4 182/85/4
f 182/85/4 183/117/4 184/86/4
f 184/86/4 178/114/4 180/84/4
f 189/87/13 190/99/13 182/88/13
f 179/92/14 187/90/14 188/101/14
f 186/93/15 185/118/15 178/94/15
f 192/96/16 186/102/16 177/97/16
f 190/99/17 191/119/17 183/100/17
f 188/101/18 189/87/18 181/89/18
f 178/92/19 185/90/19 187/93/19
f 191/102/20 192/119/20 184/100/20
f 200/86/4 193/113/4 194/114/4
f 194/114/4 195/115/4 196/84/4
f 196/84/4 197/116/4 198/85/4
f 198/85/4 199/117/4 200/86/4
f 200/86/4 194/114/4 196/84/4
f 205/87/13 206/99/13 198/88/13
f 203/90/14 204/101/14 196/91/14
f 202/93/15 201/118/15 194/94/15
f 208/96/16 202/102/16 193/97/16
f 206/99/17 207/119/17 199/100/17
f 204/101/18 205/87/18 197/89/18
f 201/90/19 203/93/19 195/95/19
f 207/102/20 208/119/20 200/100/20
f 214/103/21 212/107/21 211/104/21
f 213/103/22 214/120/22 210/106/22
f 220/103/21 218/107/21 217/104/21
f 219/103/22 220/120/22 216/106/22
f 226/103/21 224/107/21 223/104/21
f 225/103/22 226/120/22 222/106/22
f 232/103/21 230/107/21 229/104/21
f 231/103/22 232/120/22 228/106/22
f 238/103/21 236/107/21 235/104/21
f 237/103/22 238/120/22 234/106/22
f 244/103/21 242/107/21 241/104/21
f 243/103/22 244/120/22 240/106/22
f 250/103/21 248/107/21 247/104/21
f 249/103/22 250/120/22 246/106/22
f 256/103/21 254/107/21 253/104/21
f 255/103/22 256/120/22 252/106/22
