# Blender 5.1.1
# www.blender.org
mtllib Menu.mtl
o Menu
v -0.600000 -0.400000 0.000000
v 0.600000 -0.400000 0.000000
v -0.600000 0.400000 -0.000000
v 0.600000 0.400000 -0.000000
v -0.582846 0.382846 -0.000000
v -0.582846 -0.382846 0.000000
v 0.582846 -0.382846 0.000000
v 0.582846 0.382846 -0.000000
v -0.582846 0.382846 0.010000
v -0.582846 -0.382846 0.010000
v 0.582846 -0.382846 0.010000
v 0.582846 0.382846 0.010000
v -0.600000 0.400000 0.010000
v -0.600000 -0.400000 0.010000
v 0.600000 -0.400000 0.010000
v 0.600000 0.400000 0.010000
vn -0.0000 -0.0000 1.0000
vn 1.0000 -0.0000 -0.0000
vn -1.0000 -0.0000 -0.0000
vn -0.0000 1.0000 -0.0000
vn -0.0000 -1.0000 -0.0000
vt 1.000000 0.000000
vt 0.000000 1.000000
vt 0.000000 0.000000
vt 0.092886 0.652371
vt 0.084553 0.014295
vt 0.092886 0.014295
vt 0.092886 0.014295
vt 0.101220 0.652371
vt 0.092887 0.652371
vt 0.061924 0.000000
vt 0.070258 0.666667
vt 0.061925 0.666667
vt 0.123849 0.666667
vt 0.115515 0.000000
vt 0.123848 0.000000
vt 0.070257 0.000000
vt 0.039295 0.014295
vt 0.053591 1.000000
vt 0.039295 0.985705
vt 0.115515 0.666667
vt 0.022629 0.985705
vt 0.008333 0.000000
vt 0.022629 0.014295
vt 0.000000 0.000000
vt 0.008333 1.000000
vt -0.000000 1.000000
vt 0.061924 1.000000
vt 0.053591 0.000000
vt 0.061924 0.000000
vt 0.030962 0.985705
vt 0.030962 0.014295
vt 0.030962 0.014295
vt 0.030962 0.985705
vt 1.000000 1.000000
vt 0.084553 0.652371
vt 0.101220 0.014295
s 0
usemtl 16x16grid
f 5/4/2 10/5/2 6/6/2
f 7/7/3 12/8/3 8/9/3
f 1/10/3 13/11/3 3/12/3
f 4/13/2 15/14/2 2/15/2
f 10/5/1 13/11/1 14/16/1
f 10/17/1 15/18/1 11/19/1
f 12/8/1 15/14/1 16/20/1
f 12/21/1 13/22/1 9/23/1
f 3/24/4 16/25/4 4/26/4
f 2/27/5 14/28/5 1/29/5
f 8/30/5 9/23/5 5/31/5
f 6/32/4 11/19/4 7/33/4
f 5/4/2 9/35/2 10/5/2
f 7/7/3 11/36/3 12/8/3
f 1/10/3 14/16/3 13/11/3
f 4/13/2 16/20/2 15/14/2
f 10/5/1 9/35/1 13/11/1
f 10/17/1 14/28/1 15/18/1
f 12/8/1 11/36/1 15/14/1
f 12/21/1 16/25/1 13/22/1
f 3/24/4 13/22/4 16/25/4
f 2/27/5 15/18/5 14/28/5
f 8/30/5 12/21/5 9/23/5
f 6/32/4 10/17/4 11/19/4
usemtl 3x3grid
f 7/1/1 5/2/1 6/3/1
f 7/1/1 8/34/1 5/2/1
