# Blender 5.0.1
# www.blender.org
mtllib CellDoor01.mtl
o CellDoor01
v -0.500000 0.000000 0.060000
v -0.500000 0.000000 -0.060000
v 0.500000 0.000000 0.060000
v 0.500000 0.000000 -0.060000
v -0.500000 2.000000 0.060000
v -0.500000 2.000000 -0.060000
v 0.500000 2.000000 -0.060000
v 0.500000 2.000000 0.060000
v -0.440181 1.940181 0.060000
v -0.440181 0.059819 0.060000
v 0.440181 0.059819 0.060000
v 0.440181 1.940181 0.060000
v 0.440181 0.059819 -0.060000
v -0.440181 0.059819 -0.060000
v -0.440181 1.940181 -0.060000
v 0.440181 1.940181 -0.060000
v -0.422668 1.922668 0.050000
v -0.422668 0.077332 0.050000
v 0.422668 0.077332 0.050000
v 0.422668 1.922668 0.050000
v 0.422668 0.077332 -0.050000
v -0.422668 0.077332 -0.050000
v -0.422668 1.922668 -0.050000
v 0.422668 1.922668 -0.050000
v -0.500000 1.000000 0.060000
v 0.500000 1.000000 0.060000
v -0.500000 1.000000 -0.060000
v 0.500000 1.000000 -0.060000
v -0.440181 1.000000 0.060000
v 0.440181 1.000000 0.060000
v 0.440181 1.000000 -0.060000
v -0.440181 1.000000 -0.060000
v -0.422668 1.000000 0.050000
v 0.422668 1.000000 0.050000
v 0.422668 1.000000 -0.050000
v -0.422668 1.000000 -0.050000
v -0.200265 0.590903 0.050000
v -0.200265 0.486429 0.050000
v 0.200265 0.486429 0.050000
v 0.200265 0.590903 0.050000
v 0.200265 1.509097 -0.050000
v -0.200265 1.509097 -0.050000
v -0.200265 1.613571 -0.050000
v 0.200265 1.613571 -0.050000
v 0.200265 0.486429 -0.050000
v -0.200265 0.486429 -0.050000
v -0.200265 0.590903 -0.050000
v 0.200265 0.590903 -0.050000
v -0.200265 1.613571 0.050000
v -0.200265 1.509097 0.050000
v 0.200265 1.509097 0.050000
v 0.200265 1.613571 0.050000
v -0.101238 1.614664 -0.016478
v -0.101238 1.508083 -0.016478
v 0.023491 1.508083 -0.008555
v 0.023491 1.614664 -0.008555
v -0.004336 1.508083 0.024621
v -0.004336 1.614664 0.024621
v -0.019154 1.508083 -0.016066
v -0.019154 1.614664 -0.016066
v -0.115168 1.508083 0.024521
v -0.115168 1.614664 0.024521
v -0.143710 1.508083 -0.008042
v -0.143710 1.614664 -0.008042
v 0.144815 1.508083 -0.003389
v 0.144815 1.614664 -0.003389
v 0.110597 1.508083 0.023145
v 0.110597 1.614664 0.023145
v 0.104726 1.508083 -0.019756
v 0.104726 1.614664 -0.019756
vn -0.0000 -1.0000 -0.0000
vn -1.0000 -0.0000 -0.0000
vn -0.0000 1.0000 -0.0000
vn 1.0000 -0.0000 -0.0000
vn -0.0000 -0.0000 1.0000
vn -0.0000 -0.0000 -1.0000
vn 0.4959 -0.0000 0.8684
vn -0.0000 0.4959 0.8684
vn -0.4959 -0.0000 0.8684
vn -0.0000 -0.4959 0.8684
vn -0.0000 0.4959 -0.8684
vn 0.4959 -0.0000 -0.8684
vn -0.0000 -0.4959 -0.8684
vn -0.4959 -0.0000 -0.8684
vn -0.1948 -0.0000 -0.9808
vn -0.7520 -0.0000 0.6591
vn 0.7662 -0.0000 0.6426
vn 0.9468 -0.0000 0.3217
vn -0.9396 -0.0000 0.3422
vn 0.1734 -0.0000 -0.9848
vn 0.6128 -0.0000 0.7902
vn -0.9908 -0.0000 0.1356
vn 0.3780 -0.0000 -0.9258
vt 0.440731 0.750000
vt 0.459194 0.500000
vt 0.459194 0.750000
vt 0.500000 0.750000
vt 0.875000 0.500000
vt 0.500000 0.500000
vt 0.375000 0.500000
vt 0.125000 0.750000
vt 0.125000 0.500000
vt 0.625000 0.750000
vt 0.625000 0.500000
vt 0.724539 0.500000
vt 0.559269 0.750000
vt 0.559269 0.500000
vt 0.158737 0.750000
vt 0.375000 0.750000
vt 0.628827 0.750000
vt 0.875000 0.750000
vt 0.371173 0.500000
vt 0.841263 0.500000
vt 0.500000 0.500000
vt 0.168393 0.750000
vt 0.500000 0.750000
vt 0.371173 0.750000
vt 0.629727 0.750000
vt 0.841263 0.750000
vt 0.158737 0.500000
vt 0.370273 0.500000
vt 0.831607 0.500000
vt 0.628827 0.500000
vt 0.629727 0.500000
vt 0.168393 0.500000
vt 0.370273 0.750000
vt 0.831607 0.750000
vt 0.363280 0.750000
vt 0.275461 0.500000
vt 0.275461 0.750000
vt 0.540806 0.750000
vt 0.540806 0.500000
vt 0.636720 0.500000
vt 0.363280 0.500000
vt 0.440731 0.500000
vt 0.724539 0.750000
vt 0.636720 0.750000
vt 0.333333 1.000000
vt -0.000000 0.500000
vt 0.333333 0.500000
vt 0.666667 1.000000
vt 0.666667 0.500000
vt 1.000000 1.000000
vt 1.000000 0.500000
vt -0.000000 1.000000
s 0
f 37/1/1 48/2/1 40/3/1
f 25/4/2 6/5/2 27/6/2
f 4/7/1 1/8/1 2/9/1
f 6/5/3 8/10/3 7/11/3
f 43/12/4 50/13/4 42/14/4
f 28/6/4 8/10/4 26/4/4
f 25/4/5 10/15/5 29/4/5
f 3/16/5 10/15/5 1/8/5
f 26/4/5 12/17/5 30/4/5
f 5/18/5 12/17/5 8/10/5
f 2/9/6 13/19/6 4/7/6
f 27/6/6 15/20/6 32/6/6
f 7/11/6 15/20/6 6/5/6
f 28/6/6 13/19/6 31/21/6
f 29/4/7 18/22/7 33/23/7
f 11/24/8 18/22/8 10/15/8
f 30/4/9 20/25/9 34/4/9
f 9/26/10 20/25/10 12/17/10
f 14/27/11 21/28/11 13/19/11
f 32/6/12 23/29/12 36/6/12
f 16/30/13 23/29/13 15/20/13
f 31/21/14 21/28/14 35/21/14
f 31/21/14 24/31/14 16/30/14
f 32/6/12 22/32/12 14/27/12
f 30/4/9 19/33/9 11/24/9
f 29/4/7 17/34/7 9/26/7
f 28/6/6 16/30/6 7/11/6
f 27/6/6 14/27/6 2/9/6
f 26/4/5 11/24/5 3/16/5
f 25/4/5 9/26/5 5/18/5
f 4/7/4 26/4/4 3/16/4
f 39/35/3 46/36/3 38/37/3
f 1/8/2 27/6/2 2/9/2
f 42/14/3 51/38/3 41/39/3
f 18/22/5 37/1/5 33/23/5
f 19/33/5 38/37/5 18/22/5
f 34/4/5 39/35/5 19/33/5
f 34/4/5 37/1/5 40/3/5
f 36/6/6 41/39/6 35/21/6
f 23/29/6 42/14/6 36/6/6
f 24/31/6 43/12/6 23/29/6
f 24/31/6 41/39/6 44/40/6
f 22/32/6 45/41/6 21/28/6
f 36/6/6 46/36/6 22/32/6
f 36/6/6 48/2/6 47/42/6
f 21/28/6 48/2/6 35/21/6
f 17/34/5 50/13/5 49/43/5
f 33/23/5 51/38/5 50/13/5
f 20/25/5 51/38/5 34/4/5
f 17/34/5 52/44/5 20/25/5
f 44/40/1 49/43/1 43/12/1
f 44/40/2 51/38/2 52/44/2
f 48/2/2 39/35/2 40/3/2
f 38/37/4 47/42/4 37/1/4
f 64/45/15 54/46/15 63/47/15
f 62/48/16 63/47/16 61/49/16
f 56/50/17 57/49/17 55/51/17
f 53/50/18 61/49/18 54/51/18
f 58/48/19 59/47/19 57/49/19
f 60/45/20 55/46/20 59/47/20
f 66/50/21 67/49/21 65/51/21
f 68/48/22 69/47/22 67/49/22
f 70/45/23 65/46/23 69/47/23
f 37/1/1 47/42/1 48/2/1
f 25/4/2 5/18/2 6/5/2
f 4/7/1 3/16/1 1/8/1
f 6/5/3 5/18/3 8/10/3
f 43/12/4 49/43/4 50/13/4
f 28/6/4 7/11/4 8/10/4
f 25/4/5 1/8/5 10/15/5
f 3/16/5 11/24/5 10/15/5
f 26/4/5 8/10/5 12/17/5
f 5/18/5 9/26/5 12/17/5
f 2/9/6 14/27/6 13/19/6
f 27/6/6 6/5/6 15/20/6
f 7/11/6 16/30/6 15/20/6
f 28/6/6 4/7/6 13/19/6
f 29/4/7 10/15/7 18/22/7
f 11/24/8 19/33/8 18/22/8
f 30/4/9 12/17/9 20/25/9
f 9/26/10 17/34/10 20/25/10
f 14/27/11 22/32/11 21/28/11
f 32/6/12 15/20/12 23/29/12
f 16/30/13 24/31/13 23/29/13
f 31/21/14 13/19/14 21/28/14
f 31/21/14 35/21/14 24/31/14
f 32/6/12 36/6/12 22/32/12
f 30/4/9 34/4/9 19/33/9
f 29/4/7 33/23/7 17/34/7
f 28/6/6 31/21/6 16/30/6
f 27/6/6 32/6/6 14/27/6
f 26/4/5 30/4/5 11/24/5
f 25/4/5 29/4/5 9/26/5
f 4/7/4 28/6/4 26/4/4
f 39/35/3 45/41/3 46/36/3
f 1/8/2 25/4/2 27/6/2
f 42/14/3 50/13/3 51/38/3
f 18/22/5 38/37/5 37/1/5
f 19/33/5 39/35/5 38/37/5
f 34/4/5 40/3/5 39/35/5
f 34/4/5 33/23/5 37/1/5
f 36/6/6 42/14/6 41/39/6
f 23/29/6 43/12/6 42/14/6
f 24/31/6 44/40/6 43/12/6
f 24/31/6 35/21/6 41/39/6
f 22/32/6 46/36/6 45/41/6
f 36/6/6 47/42/6 46/36/6
f 36/6/6 35/21/6 48/2/6
f 21/28/6 45/41/6 48/2/6
f 17/34/5 33/23/5 50/13/5
f 33/23/5 34/4/5 51/38/5
f 20/25/5 52/44/5 51/38/5
f 17/34/5 49/43/5 52/44/5
f 44/40/1 52/44/1 49/43/1
f 44/40/2 41/39/2 51/38/2
f 48/2/2 45/41/2 39/35/2
f 38/37/4 46/36/4 47/42/4
f 64/45/15 53/52/15 54/46/15
f 62/48/16 64/45/16 63/47/16
f 56/50/17 58/48/17 57/49/17
f 53/50/18 62/48/18 61/49/18
f 58/48/19 60/45/19 59/47/19
f 60/45/20 56/52/20 55/46/20
f 66/50/21 68/48/21 67/49/21
f 68/48/22 70/45/22 69/47/22
f 70/45/23 66/52/23 65/46/23
