# Blender 5.0.1
# www.blender.org
mtllib CellDoor01Flat.mtl
o CellDoor01Flat
v -0.200265 0.590903 0.062050
v -0.200265 0.486429 0.062050
v 0.200265 0.486429 0.062050
v 0.200265 0.590903 0.062050
v -0.200265 0.486429 0.047341
v -0.200265 0.590903 0.047341
v 0.200265 0.590903 0.047341
v 0.200265 0.486429 0.047341
vn -0.0000 -0.0000 1.0000
vn -0.0000 -0.0000 -1.0000
vn 1.0000 -0.0000 -0.0000
vn -0.0000 1.0000 -0.0000
vn -0.0000 -1.0000 -0.0000
vn -1.0000 -0.0000 -0.0000
vt 0.000000 0.000000
s 0
f 2/1/1 4/1/1 1/1/1
f 7/1/2 5/1/2 6/1/2
f 8/1/3 4/1/3 3/1/3
f 7/1/4 1/1/4 4/1/4
f 5/1/5 3/1/5 2/1/5
f 6/1/6 2/1/6 1/1/6
f 2/1/1 3/1/1 4/1/1
f 7/1/2 8/1/2 5/1/2
f 8/1/3 7/1/3 4/1/3
f 7/1/4 6/1/4 1/1/4
f 5/1/5 8/1/5 3/1/5
f 6/1/6 5/1/6 2/1/6
