# Blender 5.1.1
# www.blender.org
mtllib BigCorridor.mtl
o BigCorridor
v -11.400001 0.100000 -5.100000
v -8.400001 0.100000 -4.500000
v -11.400001 0.100000 -32.000000
v -8.400001 0.100000 -32.000000
v -11.400001 0.100000 -2.100000
v -8.400001 0.100000 -2.700000
v -11.400001 0.100000 15.000000
v -8.400001 0.100000 15.000000
v -28.000000 0.100000 -5.100000
v -28.000000 0.100000 -2.100000
v -8.400001 0.100000 10.000000
v -8.400001 0.100000 8.200000
v -11.400001 0.100000 5.100000
v -11.400001 0.100000 7.100000
v -11.600000 0.100000 5.100000
v -11.600000 0.100000 7.100000
v -8.400001 3.100000 -2.700000
v -8.400001 3.100000 8.200000
v -11.400001 3.100000 -2.100000
v -11.400001 3.100000 5.100000
v -25.200001 0.100000 -2.100000
v -24.200001 0.100000 -2.100000
v -25.200001 0.100000 -1.900000
v -24.200001 0.100000 -1.900000
v -25.200001 2.100000 -2.100000
v -24.200001 2.100000 -2.100000
v -25.200001 3.100000 -2.100000
v -24.200001 3.100000 -2.100000
v -28.000000 3.100000 -2.100000
v -25.200001 2.100000 -1.900000
v -24.200001 2.100000 -1.900000
v -11.400001 3.100000 15.000000
v -11.400001 3.100000 7.100000
v -11.400001 2.100000 5.100000
v -11.400001 2.100000 7.100000
v -11.600001 2.100000 5.100000
v -11.600001 2.100000 7.100000
v -8.400001 3.100000 15.000000
v -8.400001 3.100000 10.000000
v -8.400001 3.100000 -4.500000
v -11.400001 3.100000 -5.100000
v -26.200001 0.100000 -5.100000
v -27.200001 0.100000 -5.100000
v -28.000000 3.100000 -5.100000
v -27.200001 2.100000 -5.100000
v -26.200001 2.100000 -5.100000
v -27.200001 3.100000 -5.100000
v -26.200001 3.100000 -5.100000
v -26.200001 0.100000 -5.300000
v -27.200001 0.100000 -5.300000
v -27.200001 2.100000 -5.300000
v -26.200001 2.100000 -5.300000
v -15.200001 0.100000 -5.100000
v -16.200001 0.100000 -5.100000
v -16.200001 2.100000 -5.100000
v -15.200001 2.100000 -5.100000
v -16.200001 3.100000 -5.100000
v -15.200001 3.100000 -5.100000
v -15.200001 0.100000 -5.300000
v -16.200001 0.100000 -5.300000
v -16.200001 2.100000 -5.300000
v -15.200001 2.100000 -5.300000
v -8.400001 3.100000 -32.000000
v -11.400001 0.100000 -15.500000
v -11.400001 0.100000 -12.500000
v -14.200001 0.100000 -15.500000
v -11.400001 3.100000 -12.500000
v -11.400001 3.100000 -32.000000
v -11.400001 3.100000 -15.500000
v -14.200001 3.100000 -15.500000
v -11.400001 0.100000 18.000000
v -8.400001 0.100000 18.000000
v -8.400001 3.100000 18.000000
v -14.400001 0.100000 18.000000
v -11.400001 3.100000 18.000000
v -5.400000 0.100000 18.000000
v -14.400001 3.100000 18.000000
v -5.400000 3.100000 18.000000
v -8.200000 0.100000 -4.500000
v -8.200000 0.100000 -2.700000
v -8.200000 3.000000 -2.700000
v -8.200000 3.000000 -4.500000
v -8.200000 0.100000 10.000000
v -8.200000 0.100000 8.200000
v -8.200000 3.000000 8.200000
v -8.200000 3.000000 10.000000
v -8.200000 0.000000 -4.500000
v -8.200000 0.000000 -2.700000
v -8.200000 0.000000 10.000000
v -8.200000 0.000000 8.200000
v -8.400001 3.000000 -2.700000
v -8.400001 3.000000 8.200000
v -8.400001 3.000000 10.000000
v -8.400001 3.000000 -4.500000
v -8.400001 0.100000 3.000000
v -8.400001 0.100000 2.500000
v -8.400001 0.600000 2.500000
v -8.400001 0.600000 3.000000
v -8.500000 0.100000 -2.300000
v -8.500000 3.100000 -2.300000
v -8.500000 0.100000 -2.500000
v -8.500000 3.100000 -2.500000
v -8.399999 0.100000 -2.300000
v -8.399999 3.100000 -2.300000
v -8.399999 0.100000 -2.500000
v -8.399999 3.100000 -2.500000
v -8.500000 0.100000 -4.700000
v -8.500000 3.100000 -4.700000
v -8.500000 0.100000 -4.900000
v -8.500000 3.100000 -4.900000
v -8.399999 0.100000 -4.700000
v -8.399999 3.100000 -4.700000
v -8.399999 0.100000 -4.900000
v -8.399999 3.100000 -4.900000
v -8.500000 0.100000 10.400001
v -8.500000 3.100000 10.400001
v -8.500000 0.100000 10.200001
v -8.500000 3.100000 10.200001
v -8.399999 0.100000 10.400001
v -8.399999 3.100000 10.400001
v -8.399999 0.100000 10.200001
v -8.399999 3.100000 10.200001
v -8.500000 0.100000 8.000000
v -8.500000 3.100000 8.000000
v -8.500000 0.100000 7.800001
v -8.500000 3.100000 7.800001
v -8.399999 0.100000 8.000000
v -8.399999 3.100000 8.000000
v -8.399999 0.100000 7.800001
v -8.399999 3.100000 7.800001
v -8.500000 0.100000 15.099999
v -8.500000 3.100000 15.099999
v -8.500000 0.100000 14.900000
v -8.500000 3.100000 14.900000
v -8.300000 0.100000 15.099999
v -8.300000 3.100000 15.099999
v -8.399999 0.100000 14.900000
v -8.399999 3.100000 14.900000
v -11.300000 0.100000 15.099999
v -11.300000 3.100000 15.099999
v -11.300000 0.100000 14.900000
v -11.300000 3.100000 14.900000
v -11.500000 0.100000 15.099999
v -11.500000 3.100000 15.099999
v -11.400001 0.100000 14.900000
v -11.400001 3.100000 14.900000
v -11.275000 0.100000 -2.200000
v -11.275000 3.100000 -2.200000
v -11.474999 0.100000 -2.200000
v -11.474999 3.100000 -2.200000
v -11.275001 0.100000 -2.000000
v -11.275001 3.100000 -2.000000
v -11.475000 0.100000 -2.100000
v -11.475000 3.100000 -2.100000
v -11.400001 0.100000 -2.000000
v -11.400001 3.100000 -2.000000
v -11.500000 0.100000 15.000000
v -11.500000 3.100000 15.000000
v -8.300000 0.100000 15.000000
v -8.300000 3.100000 15.000000
v -11.280000 0.100000 -5.000000
v -11.280000 3.100000 -5.000000
v -11.280001 0.100000 -5.200000
v -11.280001 3.100000 -5.200000
v -11.480000 0.100000 -5.000000
v -11.480000 3.100000 -5.000000
v -11.380000 0.100000 -5.200001
v -11.380000 3.100000 -5.200001
v -11.480000 0.100000 -5.100000
v -11.480000 3.100000 -5.100000
v -11.275000 0.100000 4.700000
v -11.275000 3.100000 4.700000
v -11.400001 0.100000 4.700000
v -11.400001 3.100000 4.700000
v -11.275001 0.100000 4.900001
v -11.275001 3.100000 4.900001
v -11.400001 0.100000 4.900001
v -11.400001 3.100000 4.900001
v -11.275000 0.100000 7.300000
v -11.275000 3.100000 7.300000
v -11.400001 0.100000 7.300000
v -11.400001 3.100000 7.300000
v -11.275001 0.100000 7.500000
v -11.275001 3.100000 7.500000
v -11.400001 0.100000 7.500000
v -11.400001 3.100000 7.500000
v -11.275000 0.100000 -12.599999
v -11.275000 3.100000 -12.599999
v -11.474999 0.100000 -12.599999
v -11.474999 3.100000 -12.599999
v -11.275001 0.100000 -12.400000
v -11.275001 3.100000 -12.400000
v -11.475000 0.100000 -12.500000
v -11.475000 3.100000 -12.500000
v -11.400001 0.100000 -12.400000
v -11.400001 3.100000 -12.400000
v -11.280000 0.100000 -15.400000
v -11.280000 3.100000 -15.400000
v -11.280001 0.100000 -15.599999
v -11.280001 3.100000 -15.599999
v -11.480000 0.100000 -15.400000
v -11.480000 3.100000 -15.400000
v -11.380000 0.100000 -15.600000
v -11.380000 3.100000 -15.600000
v -11.480000 0.100000 -15.500000
v -11.480000 3.100000 -15.500000
v -8.500000 0.100000 -12.400001
v -8.500000 3.100000 -12.400001
v -8.500000 0.100000 -12.600000
v -8.500000 3.100000 -12.600000
v -8.399999 0.100000 -12.400001
v -8.399999 3.100000 -12.400001
v -8.399999 0.100000 -12.600000
v -8.399999 3.100000 -12.600000
v -23.600002 0.100000 -2.200000
v -23.600002 3.100000 -2.200000
v -23.800001 0.100000 -2.200000
v -23.800001 3.100000 -2.200000
v -23.600002 0.100000 -2.100000
v -23.600002 3.100000 -2.100000
v -23.800003 0.100000 -2.100000
v -23.800003 3.100000 -2.100000
v -23.800003 0.100000 -5.000000
v -23.800003 3.100000 -5.000000
v -23.600004 0.100000 -5.000000
v -23.600004 3.100000 -5.000000
v -23.800003 0.100000 -5.100000
v -23.800003 3.100000 -5.100000
v -23.600002 0.100000 -5.100000
v -23.600002 3.100000 -5.100000
v -16.400002 0.100000 -2.200000
v -16.400002 3.100000 -2.200000
v -16.600000 0.100000 -2.200000
v -16.600000 3.100000 -2.200000
v -16.400002 0.100000 -2.100000
v -16.400002 3.100000 -2.100000
v -16.600002 0.100000 -2.100000
v -16.600002 3.100000 -2.100000
v -16.600002 0.100000 -5.000000
v -16.600002 3.100000 -5.000000
v -16.400003 0.100000 -5.000000
v -16.400003 3.100000 -5.000000
v -16.600002 0.100000 -5.100000
v -16.600002 3.100000 -5.100000
v -16.400002 0.100000 -5.100000
v -16.400002 3.100000 -5.100000
v -11.400001 1.015581 5.100000
v -11.400001 1.015582 -5.100000
v -11.400001 1.015581 -2.100000
v -8.400001 1.015581 -4.500000
v -11.400001 1.015579 15.000000
v -5.400000 1.015579 18.000000
v -11.400001 1.015579 18.000000
v -16.200001 1.015582 -5.100000
v -11.400001 1.015580 7.100000
v -28.000000 1.015582 -5.100000
v -15.200001 1.015582 -5.100000
v -8.400001 1.015585 -32.000000
v -27.200001 1.015582 -5.100000
v -14.200001 1.015583 -15.500000
v -26.200001 1.015582 -5.100000
v -25.200001 1.015582 -2.100000
v -24.200001 1.015581 -2.100000
v -8.400001 1.015579 18.000000
v -11.400001 1.015583 -12.500000
v -14.400001 1.015579 18.000000
v -28.000000 1.015581 -2.100000
v -11.400001 1.015585 -32.000000
v -8.400001 1.015580 8.200000
v -11.400001 1.015584 -15.500000
v -8.400001 1.015580 10.000000
v -8.400001 1.015579 15.000000
v -8.400001 1.015582 -2.700000
v -8.400001 0.671701 8.200000
v -25.200001 0.671702 -2.100000
v -8.400001 0.671702 -4.500000
v -11.400001 0.671700 15.000000
v -5.400000 0.671699 18.000000
v -8.400001 0.671700 15.000000
v -11.400001 0.671699 18.000000
v -16.200001 0.671702 -5.100000
v -8.400001 0.671702 -2.700000
v -11.400001 0.671701 7.100000
v -28.000000 0.671702 -5.100000
v -15.200001 0.671702 -5.100000
v -8.400001 0.671699 18.000000
v -27.200001 0.671702 -5.100000
v -14.200001 0.671704 -15.500000
v -26.200001 0.671702 -5.100000
v -11.400001 0.671703 -12.500000
v -11.400001 0.671704 -15.500000
v -8.400001 0.671706 -32.000000
v -24.200001 0.671702 -2.100000
v -8.400001 0.671700 10.000000
v -11.400001 0.671702 -5.100000
v -14.400001 0.671699 18.000000
v -11.400001 0.671701 5.100000
v -11.400001 0.671702 -2.100000
v -28.000000 0.671702 -2.100000
v -11.400001 0.671706 -32.000000
vn -0.0000 1.0000 -0.0000
vn -0.0000 -0.0000 1.0000
vn -0.0000 -1.0000 -0.0000
vn -1.0000 -0.0000 -0.0000
vn 1.0000 -0.0000 -0.0000
vn -0.0000 -0.0000 -1.0000
vn -1.0000 -0.0000 -0.0001
vn 1.0000 -0.0000 0.0001
vt 7.821597 0.049275
vt 9.805144 -1.523974
vt 9.800171 -0.337823
vt 12.769333 -4.768178
vt 13.146072 -2.923037
vt 12.769333 -2.923037
vt -3.109072 -1.973492
vt -2.590180 0.005637
vt -3.117358 0.003428
vt -14.360897 4.926918
vt -12.506880 6.895531
vt -14.352002 6.903833
vt 7.829882 -1.927644
vt 7.849768 -6.672251
vt 7.877108 -13.196084
vt 9.854027 -13.187797
vt 9.840220 -9.892932
vt 7.855290 -7.990196
vt 13.098827 1.030835
vt 12.967030 -0.287123
vt 13.098827 -0.287123
vt 9.835247 -8.706780
vt 9.820886 -5.280122
vt 9.819507 -4.950636
vt 12.703434 -11.160272
vt 12.769333 -3.977406
vt 12.703434 -3.977406
vt -17.353373 13.090137
vt -17.353371 17.834785
vt -18.012348 17.834785
vt -16.366873 -1.522112
vt -14.413087 -6.670989
vt -14.391737 -1.926390
vt -16.399195 -8.704906
vt 13.772501 0.375000
vt 13.642501 -0.275000
vt 13.772501 -0.275000
vt -18.012352 3.996233
vt -17.353374 4.655210
vt -18.012352 4.655210
vt -17.353374 2.151092
vt -17.353374 3.996231
vt -18.726959 3.996233
vt -18.726961 2.151092
vt -18.953571 2.151092
vt -18.953568 3.996233
vt -18.953569 4.655210
vt -18.726959 13.090137
vt -18.953568 13.090136
vt -18.726961 4.655210
vt 13.512501 -0.275000
vt 13.642500 0.375000
vt 13.512501 0.375000
vt 13.382501 1.025000
vt 13.252501 0.320128
vt 13.252501 0.096606
vt 13.512501 0.320128
vt 13.382501 1.025000
vt 13.382501 -0.275000
vt -17.353369 24.358671
vt -18.012348 19.152744
vt -17.353371 19.152742
vt -18.726957 17.834785
vt -18.953568 17.834785
vt -18.726959 19.152744
vt -18.726959 24.358671
vt 13.098827 -1.605081
vt 12.967030 -2.923038
vt 13.098827 -2.923038
vt 13.098827 1.634183
vt 12.967030 2.348792
vt 12.967030 1.030835
vt 12.967030 -1.605081
vt 13.098827 -0.890471
vt 13.098827 -0.663862
vt 12.769331 -15.641330
vt 12.769333 -12.346435
vt 12.703434 -12.346435
vt -16.404533 -9.891055
vt -16.419359 -13.185914
vt -14.442445 -13.194810
vt -14.419018 -7.988933
vt -14.382841 0.050524
vt -18.726961 0.174156
vt -17.353374 0.174156
vt -18.726961 -0.353026
vt -18.953571 0.174156
vt -18.953571 -0.353026
vt -18.012354 -0.353026
vt -17.353374 -1.012005
vt -17.353374 -0.353027
vt -1.263948 -1.965758
vt 12.967030 4.984709
vt 13.098825 4.325729
vt 13.098825 4.984709
vt 13.098825 3.007771
vt 12.967028 4.325729
vt 12.967028 3.948989
vt -3.443908 0.001298
vt -3.971086 0.003671
vt -3.452805 -1.975618
vt -5.297925 -1.967314
vt -1.931207 0.008398
vt -0.604975 -1.962997
vt 12.967030 5.361448
vt 13.098825 6.302665
vt 12.967030 3.007771
vt -18.012356 -8.260769
vt -17.353376 -7.601791
vt -18.012356 -7.601790
vt -18.953573 -7.601791
vt -19.330311 -1.012004
vt -19.330313 -7.601791
vt -18.012354 -1.012005
vt 13.098825 -0.946101
vt 13.230623 -0.287122
vt 13.098825 -0.287122
vt 13.098825 0.089618
vt 13.230623 1.030835
vt 13.230623 -2.923037
vt 13.098825 -2.264059
vt 13.098825 -2.923037
vt 13.230623 -2.264059
vt 13.098825 -1.322841
vt 4.658526 0.036019
vt 5.317499 0.038781
vt -4.630056 0.006636
vt -5.956896 -1.964348
vt -11.219774 0.036291
vt -11.878746 0.039255
vt -19.330311 -0.353026
vt -18.726963 -8.260769
vt -18.726963 -10.764888
vt -17.353376 -10.764888
vt -17.353376 -8.260769
vt 12.769333 15.330674
vt 12.703434 -2.791244
vt 12.769333 -2.791243
vt 7.801157 4.925676
vt 7.792872 6.902594
vt 5.947751 6.894861
vt -18.726963 -15.641328
vt -17.353376 -15.641328
vt 12.769333 -15.641328
vt 13.146073 -4.768178
vt 9.724221 17.783928
vt 7.747305 17.775642
vt -16.361534 -0.335963
vt -16.279995 17.785780
vt -14.303078 17.776882
vt 9.862312 -15.164718
vt 11.839233 -15.156432
vt 7.885393 -15.173003
vt 5.908476 -15.181289
vt 12.769333 11.442700
vt 13.146071 13.419638
vt 12.769333 13.419637
vt -16.428257 -15.162829
vt 13.146070 15.396575
vt 12.769333 15.396575
vt 13.372680 11.442701
vt 14.746270 9.465764
vt 14.746269 11.442700
vt -14.451342 -15.171725
vt -12.474426 -15.180623
vt -18.405170 -15.153934
vt 12.967030 6.368562
vt 12.835232 5.182401
vt 12.967030 5.182401
vt 12.769333 -11.160272
vt 12.967030 4.579052
vt 12.967030 4.805661
vt 12.967028 0.174163
vt 12.835232 -1.011999
vt 12.967028 -1.011999
vt 12.835232 3.271364
vt 12.967028 2.085201
vt 12.967028 3.271364
vt 12.967028 -1.615347
vt 12.967028 -1.388738
vt 12.835232 6.368562
vt 12.769336 5.182401
vt 12.835232 0.174163
vt 12.769333 -1.011999
vt 11.395747 15.330674
vt 12.967030 9.465760
vt 12.835232 8.279599
vt 12.967030 8.279599
vt 11.169133 -15.641331
vt 11.395743 -12.346435
vt 11.169134 -12.346435
vt 10.792396 -3.977406
vt 11.121885 -7.404096
vt 11.169135 -3.977406
vt 11.395743 -11.160272
vt 11.395744 -3.977406
vt 10.792396 -11.160272
vt 11.121885 -7.733584
vt 10.792396 -7.733584
vt 2.791674 10.096222
vt 2.291674 2.596221
vt 2.791674 2.596221
vt 2.291674 10.096222
vt 2.041671 2.596221
vt 4.041683 10.096222
vt 3.791680 2.596221
vt 4.041683 2.596221
vt 3.041677 10.096222
vt 3.041677 2.596221
vt 3.291680 10.096222
vt 3.041677 2.596221
vt 3.291680 2.596221
vt 3.791680 10.096222
vt 4.791685 10.096222
vt 4.291686 2.596221
vt 4.791685 2.596221
vt 4.291686 10.096222
vt 4.041682 2.596221
vt -7.333324 17.596222
vt -7.583328 10.096222
vt -7.333324 10.096222
vt 5.041688 10.096222
vt 5.041688 2.596221
vt -8.083324 17.596222
vt -8.333328 10.096222
vt -8.083324 10.096222
vt -7.583328 17.596222
vt -5.458336 10.096222
vt -5.958335 2.596221
vt -5.458336 2.596221
vt -5.958335 10.096222
vt -6.208339 2.596221
vt -4.958336 10.096222
vt -4.958336 2.596221
vt -0.458338 2.596221
vt -0.958337 10.096222
vt -0.958337 2.596221
vt -0.208337 2.596221
vt -0.458338 10.096222
vt -1.458337 10.096222
vt -1.458337 2.596221
vt -8.020834 2.596221
vt -8.520833 10.096222
vt -8.520833 2.596221
vt -7.770834 2.596221
vt -8.020834 10.096222
vt -9.020834 10.096222
vt -9.020834 2.596221
vt -9.333333 2.596221
vt -1.708335 2.596221
vt -4.708337 10.096222
vt -1.958333 2.596221
vt -2.458333 10.096222
vt -2.458333 2.596221
vt -1.708334 2.596221
vt -1.958333 10.096222
vt -2.958335 10.096222
vt -2.958335 2.596221
vt -3.208334 2.596221
vt 0.916666 2.596221
vt 0.604164 10.096222
vt 0.604164 2.596221
vt 0.104164 10.096222
vt 0.104164 2.596221
vt 1.729168 10.096222
vt 1.729168 2.596221
vt 1.229168 10.096222
vt 1.229168 2.596221
vt 0.916667 2.596221
vt -6.458335 2.596221
vt -6.958334 10.096222
vt -6.958334 2.596221
vt -6.208336 2.596221
vt -6.458335 10.096222
vt -7.458333 10.096222
vt -7.458333 2.596221
vt -7.770833 2.596221
vt -3.458332 2.596221
vt -3.958332 10.096222
vt -3.958332 2.596221
vt -3.458332 10.096222
vt -4.458334 10.096222
vt -4.458334 2.596221
vt -4.708335 2.596221
vt -8.333330 17.596222
vt -8.583335 10.096222
vt -8.333330 10.096222
vt -9.083333 17.596222
vt -9.333336 10.096222
vt -9.083333 10.096222
vt -8.583333 17.596222
vt -6.583326 10.096222
vt -7.083323 17.596222
vt -7.083323 10.096222
vt -6.333325 10.096222
vt -6.583326 17.596222
vt -7.333322 17.596222
vt -7.333322 10.096222
vt -5.583329 10.096222
vt -6.083326 17.596222
vt -6.083326 10.096222
vt -5.333329 10.096222
vt -5.583329 17.596222
vt -6.333325 17.596222
vt -4.583332 10.096222
vt -5.083329 17.596222
vt -5.083329 10.096222
vt -4.333333 10.096222
vt -4.583332 17.596222
vt -5.333329 17.596222
vt -3.583336 10.096222
vt -4.083333 17.596222
vt -4.083333 10.096222
vt -3.333336 10.096222
vt -3.583336 17.596222
vt -4.333333 17.596222
vt 13.372683 -4.768178
vt 14.746269 -15.641328
vt 14.746269 -4.768178
vt 12.967028 0.550902
vt 12.835232 2.085201
vt -18.953568 24.358671
vt -19.330307 19.152742
vt -18.953568 19.152744
vt 10.792396 -12.346435
vt 10.792396 -15.641330
vt -18.953573 -8.260769
vt -19.330313 -10.764888
vt -18.953573 -10.764888
vt 13.372681 13.419638
vt 14.746269 13.419639
vt 11.395742 -15.641330
vt 11.169134 -11.160272
vt 14.746269 15.396575
vt 13.372680 15.396576
vt 11.169136 -2.791244
vt 11.169138 15.330675
vt 13.146070 9.465765
vt 13.372681 9.465765
vt -18.726963 -7.601790
vt -18.726961 -1.012004
vt -18.953571 -15.641328
vt -19.330307 13.090137
vt -19.330307 17.834785
vt 14.746269 -2.923037
vt 13.372683 -2.923037
vt 12.967030 6.745301
vt 13.372684 -15.641327
vt 13.146070 11.442701
vt 12.769333 9.465764
vt -19.330311 0.174156
vt -19.330313 -15.641328
vt 10.792396 -2.791244
vt 10.792396 15.330674
vt -18.953571 -1.012004
vt -19.330309 2.151092
vt 13.642501 0.375000
vt 13.252500 -0.275000
vt 13.382501 -0.275000
vt 13.252500 1.025000
vt 13.512501 0.096606
vt 13.512501 1.025000
vt 13.098827 1.407573
vt 13.098827 2.348792
vt 12.967028 3.722380
vt 12.967030 6.302665
vt 12.967030 5.588057
vt 13.098825 2.348792
vt 13.230623 -0.946101
vt 13.098825 1.030835
vt 13.098825 0.316227
vt 13.098825 -1.549450
vt 13.146074 -15.641327
vt 12.835235 3.271364
vt 12.967030 3.271364
vt 12.835232 -2.923037
vt 12.967028 -2.923037
vt 12.769336 6.368562
vt 12.769333 0.174163
vt 11.395744 -2.791244
vt 12.835232 9.465760
vt 10.792396 -7.404096
vt 2.041671 10.096222
vt 4.041682 10.096222
vt -8.333328 17.596222
vt -6.208339 10.096222
vt -0.208337 10.096222
vt -7.770834 10.096222
vt -9.333333 10.096222
vt -1.708335 10.096222
vt -4.708337 2.596221
vt -1.708334 10.096222
vt -3.208334 10.096222
vt 0.916666 10.096222
vt 0.916667 10.096222
vt -6.208336 10.096222
vt -7.770833 10.096222
vt -4.708335 10.096222
vt -9.333336 17.596222
vt -3.333336 17.596222
vt 12.967028 0.777511
vt -19.330307 24.358671
vt -19.330313 -8.260769
vt -19.330309 4.655210
vt 12.967030 6.971910
vt -19.330309 3.996233
s 0
usemtl SmoothConcrete
f 1/1/1 6/2/1 2/3/1
f 10/7/1 43/8/1 9/9/1
f 5/13/1 13/14/1 6/2/1
f 7/15/1 8/16/1 11/17/1
f 14/18/1 7/15/1 11/17/1
f 13/19/1 16/20/1 14/21/1
f 14/18/1 12/22/1 13/14/1
f 13/14/1 95/23/1 96/24/1
f 21/35/1 24/36/1 22/37/1
f 26/51/3 30/52/3 25/53/3
f 31/54/4 263/55/4 293/56/4
f 262/57/5 30/58/5 23/59/5
f 35/67/3 36/68/3 34/69/3
f 247/70/2 36/71/2 15/72/2
f 37/73/6 255/74/6 283/75/6
f 21/92/1 43/8/1 10/7/1
f 43/93/1 49/94/1 50/95/1
f 52/96/4 42/97/4 289/98/4
f 42/103/1 21/92/1 22/104/1
f 287/105/5 50/95/5 51/106/5
f 45/71/3 52/96/3 46/107/3
f 53/115/1 60/116/1 54/117/1
f 281/118/5 60/116/5 61/119/5
f 61/120/3 56/121/3 55/122/3
f 62/123/4 53/115/4 285/124/4
f 22/104/1 54/125/1 42/103/1
f 5/13/1 1/1/1 53/126/1
f 22/104/1 5/13/1 54/125/1
f 54/125/1 5/13/1 53/126/1
f 65/139/1 64/140/1 66/141/1
f 2/3/1 65/139/1 1/1/1
f 64/140/1 65/139/1 2/3/1
f 64/140/1 2/3/1 4/146/1
f 3/147/1 64/140/1 4/146/1
f 7/15/1 72/151/1 8/16/1
f 8/16/1 72/151/1 76/152/1
f 71/153/1 7/15/1 74/154/1
f 6/167/1 79/168/1 2/169/1
f 250/171/2 276/172/2 79/168/2
f 11/173/1 84/174/1 12/175/1
f 85/176/3 93/177/3 92/178/3
f 269/179/2 274/180/2 84/174/2
f 80/181/5 87/182/5 79/168/5
f 83/183/5 90/184/5 84/174/5
f 94/186/3 81/187/3 91/188/3
f 100/200/4 101/201/4 99/202/4
f 102/203/6 105/204/6 101/201/6
f 112/205/2 107/206/2 111/207/2
f 104/208/2 99/202/2 103/209/2
f 110/210/6 113/211/6 109/212/6
f 108/213/4 109/212/4 107/206/4
f 116/214/4 117/215/4 115/216/4
f 118/217/6 121/218/6 117/215/6
f 128/219/2 123/220/2 127/221/2
f 120/222/2 115/216/2 119/223/2
f 126/224/6 129/225/6 125/226/6
f 124/227/4 125/226/4 123/220/4
f 132/228/4 133/229/4 131/230/4
f 134/231/6 137/232/6 133/229/6
f 136/233/2 131/230/2 135/234/2
f 141/235/5 140/236/5 139/237/5
f 145/238/6 142/239/6 141/235/6
f 139/237/2 144/240/2 143/241/2
f 149/242/6 148/243/6 147/244/6
f 153/245/4 150/246/4 149/242/4
f 147/244/5 152/247/5 151/248/5
f 152/247/2 155/249/2 151/248/2
f 144/240/4 157/250/4 143/241/4
f 135/234/5 160/251/5 136/233/5
f 163/252/5 162/253/5 161/254/5
f 167/255/6 164/256/6 163/252/6
f 161/254/2 166/257/2 165/258/2
f 166/257/4 169/259/4 165/258/4
f 173/260/6 172/261/6 171/262/6
f 171/262/5 176/263/5 175/264/5
f 176/263/2 177/238/2 175/264/2
f 181/204/6 180/265/6 179/266/6
f 179/266/5 184/267/5 183/268/5
f 184/267/2 185/269/2 183/268/2
f 189/270/6 188/271/6 187/272/6
f 193/273/4 190/274/4 189/270/4
f 187/272/5 192/275/5 191/276/5
f 192/275/2 195/277/2 191/276/2
f 199/278/5 198/279/5 197/280/5
f 203/259/6 200/281/6 199/278/6
f 197/280/2 202/282/2 201/283/2
f 202/282/4 205/284/4 201/283/4
f 212/285/2 207/286/2 211/287/2
f 210/288/6 213/289/6 209/290/6
f 208/291/4 209/290/4 207/286/4
f 217/292/6 216/293/6 215/294/6
f 221/295/7 218/296/7 217/292/7
f 215/294/5 220/297/5 219/298/5
f 225/299/2 224/300/2 223/301/2
f 229/302/8 226/303/8 225/299/8
f 223/301/4 228/304/4 227/295/4
f 233/305/6 232/306/6 231/307/6
f 237/308/4 234/309/4 233/305/4
f 231/307/5 236/310/5 235/302/5
f 241/311/2 240/312/2 239/313/2
f 245/314/8 242/315/8 241/311/8
f 239/313/4 244/316/4 243/308/4
f 294/320/6 86/321/6 11/173/6
f 282/347/6 81/187/6 6/167/6
f 1/1/1 5/13/1 6/2/1
f 13/19/1 15/72/1 16/20/1
f 14/18/1 11/17/1 12/22/1
f 13/14/1 12/22/1 95/23/1
f 96/24/1 6/2/1 13/14/1
f 21/35/1 23/357/1 24/36/1
f 26/51/3 31/36/3 30/52/3
f 22/358/4 24/359/4 31/54/4
f 31/54/4 26/360/4 263/55/4
f 293/56/4 22/358/4 31/54/4
f 23/59/5 21/51/5 275/361/5
f 262/57/5 25/362/5 30/58/5
f 23/59/5 275/361/5 262/57/5
f 35/67/3 37/73/3 36/68/3
f 15/72/2 13/19/2 297/363/2
f 247/70/2 34/364/2 36/71/2
f 15/72/2 297/363/2 247/70/2
f 14/21/6 16/20/6 37/73/6
f 37/73/6 35/67/6 255/74/6
f 283/75/6 14/21/6 37/73/6
f 43/93/1 42/97/1 49/94/1
f 261/365/4 46/107/4 52/96/4
f 52/96/4 49/94/4 42/97/4
f 289/98/7 261/365/7 52/96/7
f 42/103/1 43/8/1 21/92/1
f 51/106/5 45/366/5 259/367/5
f 287/105/5 43/93/5 50/95/5
f 51/106/5 259/367/5 287/105/5
f 45/71/3 51/368/3 52/96/3
f 53/115/1 59/369/1 60/116/1
f 61/119/5 55/370/5 254/371/5
f 281/118/5 54/117/5 60/116/5
f 61/119/5 254/371/5 281/118/5
f 61/120/3 62/123/3 56/121/3
f 257/372/4 56/121/4 62/123/4
f 62/123/4 59/369/4 53/115/4
f 285/124/7 257/372/7 62/123/7
f 7/15/1 71/153/1 72/151/1
f 6/167/1 80/181/1 79/168/1
f 79/168/2 82/374/2 94/375/2
f 79/168/2 94/375/2 250/171/2
f 276/172/2 2/169/2 79/168/2
f 11/173/1 83/183/1 84/174/1
f 85/176/3 86/321/3 93/177/3
f 84/174/2 85/376/2 92/377/2
f 84/174/2 92/377/2 269/179/2
f 274/180/2 12/175/2 84/174/2
f 80/181/5 88/378/5 87/182/5
f 83/183/5 89/379/5 90/184/5
f 94/186/3 82/381/3 81/187/3
f 100/200/4 102/203/4 101/201/4
f 102/203/6 106/383/6 105/204/6
f 112/205/2 108/213/2 107/206/2
f 104/208/2 100/200/2 99/202/2
f 110/210/6 114/208/6 113/211/6
f 108/213/4 110/210/4 109/212/4
f 116/214/4 118/217/4 117/215/4
f 118/217/6 122/384/6 121/218/6
f 128/219/2 124/227/2 123/220/2
f 120/222/2 116/214/2 115/216/2
f 126/224/6 130/385/6 129/225/6
f 124/227/4 126/224/4 125/226/4
f 132/228/4 134/231/4 133/229/4
f 134/231/6 138/386/6 137/232/6
f 136/233/2 132/228/2 131/230/2
f 141/235/5 142/239/5 140/236/5
f 145/238/6 146/387/6 142/239/6
f 139/237/2 140/236/2 144/240/2
f 149/242/6 150/246/6 148/243/6
f 153/245/4 154/388/4 150/246/4
f 147/244/5 148/243/5 152/247/5
f 152/247/2 156/389/2 155/249/2
f 144/240/4 158/390/4 157/250/4
f 135/234/5 159/391/5 160/251/5
f 163/252/5 164/256/5 162/253/5
f 167/255/6 168/392/6 164/256/6
f 161/254/2 162/253/2 166/257/2
f 166/257/4 170/393/4 169/259/4
f 173/260/6 174/394/6 172/261/6
f 171/262/5 172/261/5 176/263/5
f 176/263/2 178/387/2 177/238/2
f 181/204/6 182/383/6 180/265/6
f 179/266/5 180/265/5 184/267/5
f 184/267/2 186/395/2 185/269/2
f 189/270/6 190/274/6 188/271/6
f 193/273/4 194/396/4 190/274/4
f 187/272/5 188/271/5 192/275/5
f 192/275/2 196/397/2 195/277/2
f 199/278/5 200/281/5 198/279/5
f 203/259/6 204/393/6 200/281/6
f 197/280/2 198/279/2 202/282/2
f 202/282/4 206/398/4 205/284/4
f 212/285/2 208/291/2 207/286/2
f 210/288/6 214/399/6 213/289/6
f 208/291/4 210/288/4 209/290/4
f 217/292/6 218/296/6 216/293/6
f 221/295/4 222/304/4 218/296/4
f 215/294/5 216/293/5 220/297/5
f 225/299/2 226/303/2 224/300/2
f 229/302/5 230/310/5 226/303/5
f 223/301/4 224/300/4 228/304/4
f 233/305/6 234/309/6 232/306/6
f 237/308/4 238/316/4 234/309/4
f 231/307/5 232/306/5 236/310/5
f 241/311/2 242/315/2 240/312/2
f 245/314/5 246/400/5 242/315/5
f 239/313/4 240/312/4 244/316/4
f 271/401/6 93/177/6 86/321/6
f 86/321/6 83/183/6 11/173/6
f 294/320/6 271/401/6 86/321/6
f 273/405/6 91/188/6 81/187/6
f 81/187/6 80/181/6 6/167/6
f 282/347/6 273/405/6 81/187/6
usemtl Plaster
f 64/4/2 288/5/2 66/6/2
f 92/25/4 17/26/4 91/27/4
f 19/28/5 20/29/5 34/30/5
f 25/38/6 28/39/6 26/40/6
f 29/41/6 27/42/6 25/38/6
f 262/43/6 267/44/6 25/38/6
f 263/50/6 26/40/6 249/48/6
f 26/40/6 28/39/6 19/28/6
f 32/60/5 35/61/5 33/62/5
f 34/30/5 33/62/5 35/61/5
f 255/65/5 35/61/5 251/66/5
f 38/76/4 39/77/4 93/78/4
f 29/41/5 256/84/5 44/85/5
f 45/89/2 48/90/2 47/91/2
f 45/89/2 47/91/2 44/85/2
f 56/108/2 57/109/2 55/110/2
f 281/111/2 42/112/2 54/113/2
f 55/110/2 48/90/2 46/114/2
f 284/87/2 43/131/2 287/88/2
f 257/132/2 248/133/2 56/108/2
f 56/108/2 41/134/2 58/135/2
f 63/136/4 94/137/4 40/138/4
f 41/134/5 265/142/5 67/143/5
f 3/144/5 291/145/5 64/4/5
f 71/155/6 286/156/6 72/157/6
f 72/157/6 278/159/6 76/160/6
f 253/161/6 77/162/6 75/163/6
f 93/78/4 18/170/4 92/25/4
f 258/185/4 94/137/4 63/136/4
f 91/27/4 40/138/4 94/137/4
f 6/192/4 97/193/4 282/194/4
f 269/195/4 91/27/4 273/196/4
f 12/197/4 98/198/4 95/199/4
f 45/89/2 44/85/2 256/84/2
f 270/317/5 68/318/5 69/319/5
f 247/63/5 249/48/5 34/30/5
f 277/322/5 14/323/5 283/324/5
f 279/189/4 11/325/4 8/326/4
f 35/61/5 32/60/5 251/66/5
f 285/327/2 1/328/2 295/329/2
f 264/330/6 75/163/6 73/331/6
f 248/133/2 41/134/2 56/108/2
f 271/190/4 272/332/4 93/78/4
f 264/330/6 78/334/6 252/335/6
f 254/340/2 46/114/2 261/341/2
f 267/44/6 29/41/6 25/38/6
f 5/343/6 293/47/6 298/49/6
f 298/49/5 13/344/5 5/343/5
f 270/317/2 70/345/2 260/346/2
f 26/40/6 19/28/6 249/48/6
f 282/194/4 98/198/4 274/333/4
f 280/349/6 74/350/6 296/338/6
f 299/45/5 9/351/5 284/87/5
f 249/48/5 19/28/5 34/30/5
f 295/329/5 65/352/5 290/342/5
f 2/353/4 292/337/4 4/354/4
f 272/332/4 38/76/4 93/78/4
f 259/86/2 45/89/2 256/84/2
f 275/46/6 10/356/6 299/45/6
f 64/4/2 291/145/2 288/5/2
f 92/25/4 18/170/4 17/26/4
f 25/38/6 27/42/6 28/39/6
f 34/30/5 20/29/5 33/62/5
f 29/41/5 267/44/5 256/84/5
f 45/89/2 46/114/2 48/90/2
f 56/108/2 58/135/2 57/109/2
f 281/111/2 289/355/2 42/112/2
f 55/110/2 57/109/2 48/90/2
f 284/87/2 9/351/2 43/131/2
f 41/134/5 248/133/5 265/142/5
f 3/144/5 300/373/5 291/145/5
f 71/155/6 280/349/6 286/156/6
f 72/157/6 286/156/6 278/159/6
f 253/161/6 266/339/6 77/162/6
f 93/78/4 39/77/4 18/170/4
f 258/185/4 250/380/4 94/137/4
f 91/27/4 17/26/4 40/138/4
f 6/192/4 96/382/4 97/193/4
f 269/195/4 92/25/4 91/27/4
f 12/197/4 274/333/4 98/198/4
f 270/317/5 268/348/5 68/318/5
f 277/322/5 7/402/5 14/323/5
f 279/189/4 294/191/4 11/325/4
f 285/327/2 53/403/2 1/328/2
f 264/330/6 253/161/6 75/163/6
f 264/330/6 73/331/6 78/334/6
f 254/340/2 55/110/2 46/114/2
f 5/343/6 22/404/6 293/47/6
f 298/49/5 297/64/5 13/344/5
f 270/317/2 69/319/2 70/345/2
f 282/194/4 97/193/4 98/198/4
f 280/349/6 71/155/6 74/350/6
f 299/45/5 10/356/5 9/351/5
f 295/329/5 1/328/5 65/352/5
f 2/353/4 276/336/4 292/337/4
f 275/46/6 21/406/6 10/356/6
usemtl Concrete
f 67/10/3 70/11/3 69/12/3
f 17/31/3 20/32/3 19/33/3
f 17/31/3 18/34/3 20/32/3
f 39/79/3 38/80/3 32/81/3
f 32/81/3 33/82/3 39/79/3
f 18/34/3 33/82/3 20/32/3
f 41/83/3 17/31/3 19/33/3
f 44/99/3 47/100/3 29/101/3
f 29/101/3 47/100/3 27/102/3
f 27/102/3 48/127/3 28/128/3
f 48/127/3 57/129/3 28/128/3
f 28/128/3 57/129/3 19/33/3
f 57/129/3 58/130/3 19/33/3
f 19/33/3 58/130/3 41/83/3
f 40/148/3 41/83/3 67/10/3
f 67/10/3 69/12/3 40/148/3
f 40/148/3 69/12/3 63/149/3
f 69/12/3 68/150/3 63/149/3
f 73/158/3 32/81/3 38/80/3
f 75/164/3 77/165/3 32/81/3
f 73/158/3 38/80/3 78/166/3
f 18/34/3 39/79/3 33/82/3
f 41/83/3 40/148/3 17/31/3
f 27/102/3 47/100/3 48/127/3
f 73/158/3 75/164/3 32/81/3
usemtl Plaster
f 299/45/6 262/43/6 275/46/6
f 293/47/6 249/48/6 298/49/6
f 298/49/5 247/63/5 297/64/5
f 259/86/2 284/87/2 287/88/2
f 279/189/4 271/190/4 294/191/4
f 267/44/5 284/87/5 256/84/5
f 274/333/4 273/196/4 282/194/4
f 276/336/4 258/185/4 292/337/4
f 253/161/6 296/338/6 266/339/6
f 248/133/5 290/342/5 265/142/5
f 291/145/5 268/348/5 270/317/5
f 280/349/6 264/330/6 286/156/6
f 286/156/6 252/335/6 278/159/6
f 281/111/2 261/341/2 289/355/2
f 291/145/2 260/346/2 288/5/2
f 295/329/2 257/132/2 285/327/2
f 283/324/5 251/66/5 277/322/5
f 299/45/6 267/44/6 262/43/6
f 293/47/6 263/50/6 249/48/6
f 298/49/5 249/48/5 247/63/5
f 259/86/2 256/84/2 284/87/2
f 279/189/4 272/332/4 271/190/4
f 267/44/5 299/45/5 284/87/5
f 274/333/4 269/195/4 273/196/4
f 276/336/4 250/380/4 258/185/4
f 253/161/6 280/349/6 296/338/6
f 248/133/5 295/329/5 290/342/5
f 291/145/5 300/373/5 268/348/5
f 280/349/6 253/161/6 264/330/6
f 286/156/6 264/330/6 252/335/6
f 281/111/2 254/340/2 261/341/2
f 291/145/2 270/317/2 260/346/2
f 295/329/2 248/133/2 257/132/2
f 283/324/5 255/65/5 251/66/5
