# Blender 5.1.0
# www.blender.org
mtllib Paper.mtl
o Paper
v 0.087500 0.007794 -0.131250
v -0.087500 0.003708 -0.131250
v 0.087500 0.001320 0.131250
v -0.087500 0.001320 0.131250
v 0.087500 0.001320 0.043750
v 0.087500 0.001320 -0.043750
v 0.029167 0.001320 -0.131250
v -0.029167 0.001320 -0.131250
v -0.087500 0.001320 -0.043750
v -0.087500 0.001320 0.043750
v -0.029167 0.001320 0.131250
v 0.029167 0.004662 0.131250
v 0.029167 0.001320 -0.043750
v 0.029167 0.001320 0.043750
v -0.029167 0.001320 -0.043750
v -0.029167 0.002914 0.043750
vn -0.0273 0.9995 0.0182
vn -0.0000 1.0000 -0.0000
vn -0.0572 0.9976 -0.0381
vn -0.1100 0.9912 0.0733
vn -0.0273 0.9995 -0.0182
vn 0.0572 0.9976 -0.0381
vn 0.0273 0.9995 0.0182
vn 0.0273 0.9995 -0.0182
vn 0.0409 0.9988 0.0273
vt 0.000000 0.333333
vt 0.312500 0.000000
vt 0.312500 0.333333
vt 0.687500 0.333333
vt 1.000000 0.000000
vt 1.000000 0.333333
vt 0.687500 0.000000
vt 0.687500 1.000000
vt 1.000000 0.666667
vt 1.000000 1.000000
vt 0.687500 0.666667
vt 0.312500 1.000000
vt 0.312500 0.666667
vt 0.000000 0.666667
vt 0.000000 0.000000
vt 0.000000 1.000000
s 0
usemtl Material.002
f 10/1/1 11/2/1 16/3/1
f 14/4/2 3/5/2 5/6/2
f 14/4/3 11/2/3 12/7/3
f 7/8/4 6/9/4 1/10/4
f 13/11/2 5/6/2 6/9/2
f 8/12/2 13/11/2 7/8/2
f 15/13/2 14/4/2 13/11/2
f 8/12/2 9/14/2 15/13/2
f 15/13/5 10/1/5 16/3/5
f 10/1/2 4/15/2 11/2/2
f 14/4/6 12/7/6 3/5/6
f 14/4/7 16/3/7 11/2/7
f 7/8/2 13/11/2 6/9/2
f 13/11/2 14/4/2 5/6/2
f 8/12/2 15/13/2 13/11/2
f 15/13/8 16/3/8 14/4/8
f 8/12/9 2/16/9 9/14/9
f 15/13/2 9/14/2 10/1/2
