# Blender 5.0.1
# www.blender.org
mtllib FoldedSmallTowel.mtl
o FoldedSmallTowel
v -0.138458 0.002500 -0.150000
v -0.138458 0.047500 -0.150000
v 0.138458 0.002500 -0.150000
v 0.138458 0.047500 -0.150000
v -0.138458 0.002500 0.135019
v -0.138458 0.017481 0.150000
v -0.138458 0.032519 0.150000
v -0.138458 0.047500 0.135019
v 0.138458 0.017481 0.150000
v 0.138458 0.002500 0.135019
v 0.138458 0.047500 0.135019
v 0.138458 0.032519 0.150000
v -0.136961 0.025000 -0.139826
v 0.136961 0.025000 -0.139826
v 0.136961 0.025000 0.133478
v -0.136961 0.025000 0.133478
vn -0.0000 -0.4120 -0.9112
vn -0.0000 -0.7071 0.7071
vn -0.0000 0.7071 0.7071
vn -0.0000 -1.0000 -0.0000
vn -0.9915 -0.0580 -0.1163
vn -0.0000 -0.0000 1.0000
vn -0.0000 1.0000 -0.0000
vn 0.9959 -0.0000 -0.0903
vn 0.9978 -0.0664 -0.0000
vn -0.9978 -0.0664 -0.0000
vn -0.9978 0.0664 -0.0000
vn 0.9978 0.0664 -0.0000
vn -0.0000 0.4120 -0.9112
vn -0.9961 0.0621 -0.0620
vn -1.0000 -0.0000 -0.0000
vn 0.9961 0.0621 -0.0620
vn 0.9961 -0.0621 -0.0620
vt 0.124906 0.875674
vt 0.156156 0.438174
vt 0.156156 0.875674
vt -0.000094 0.022520
vt 0.437406 0.000674
vt 0.437406 0.022520
vt 0.437406 0.022520
vt 0.874906 0.000674
vt 0.874906 0.022520
vt -0.000094 0.438174
vt 0.437406 0.438174
vt 0.041599 0.875674
vt -0.000094 0.853827
vt 0.031156 0.853827
vt 0.208212 0.875674
vt 0.229099 0.438174
vt 0.229099 0.875674
vt 0.874906 0.438174
vt 0.093656 0.460020
vt 0.083212 0.438174
vt 0.104099 0.438174
vt 0.093656 0.875674
vt 0.062406 0.460020
vt 0.031156 0.438174
vt 0.062406 0.853827
vt 0.062406 0.438174
vt 0.124906 0.460020
vt 0.187406 0.438174
vt 0.187406 0.875674
vt 0.124906 0.438174
vt -0.000094 0.000674
vt 0.020712 0.875674
vt 0.208212 0.438174
vt 0.062406 0.875674
s 0
usemtl FoldedSmallTowel
f 2/1/1 14/2/1 13/3/1
f 10/4/2 6/5/2 5/6/2
f 8/7/3 12/8/3 11/9/3
f 3/10/4 5/6/4 1/11/4
f 6/12/5 8/13/5 16/14/5
f 12/15/6 6/16/6 9/17/6
f 2/11/7 11/9/7 4/18/7
f 15/19/8 12/20/8 9/21/8
f 14/22/9 11/23/9 15/19/9
f 13/24/10 8/13/10 2/10/10
f 5/25/11 13/24/11 1/26/11
f 14/22/12 10/27/12 3/1/12
f 13/3/13 3/28/13 1/29/13
f 2/1/1 4/30/1 14/2/1
f 10/4/2 9/31/2 6/5/2
f 8/7/3 7/5/3 12/8/3
f 3/10/4 10/4/4 5/6/4
f 16/14/14 5/25/14 6/12/14
f 6/12/15 7/32/15 8/13/15
f 12/15/6 7/33/6 6/16/6
f 2/11/7 8/7/7 11/9/7
f 9/21/16 10/27/16 15/19/16
f 15/19/17 11/23/17 12/20/17
f 14/22/9 4/34/9 11/23/9
f 13/24/10 16/14/10 8/13/10
f 5/25/11 16/14/11 13/24/11
f 14/22/12 15/19/12 10/27/12
f 13/3/13 14/2/13 3/28/13
