# Blender 5.0.1
# www.blender.org
mtllib PlasticCupCrumpled.mtl
o PlasticCupCrumpled
v -0.000000 0.000000 -0.031037
v 0.000000 0.078230 -0.039871
v 0.021947 0.000000 -0.021947
v 0.028193 0.078230 -0.028193
v 0.031037 0.000000 0.000000
v 0.039871 0.078230 0.000000
v 0.021947 0.000000 0.021947
v 0.028193 0.078230 0.028193
v -0.000000 0.000000 0.031037
v 0.000000 0.078230 0.039871
v -0.021947 0.000000 0.021947
v -0.028193 0.078230 0.028193
v -0.031037 0.000000 0.000000
v -0.039871 0.078230 0.000000
v -0.021947 0.000000 -0.021947
v -0.028193 0.078230 -0.028193
v 0.031820 0.078230 -0.031820
v 0.000000 0.078230 -0.045000
v 0.045000 0.078230 0.000000
v 0.031820 0.078230 0.031820
v 0.000000 0.078230 0.045000
v -0.031820 0.078230 0.031820
v -0.045000 0.078230 0.000000
v -0.031820 0.078230 -0.031820
v 0.022455 0.004636 -0.022455
v 0.000000 0.004636 -0.031756
v 0.029552 0.004636 0.000332
v 0.020041 0.004636 0.021083
v 0.000000 0.004636 0.031756
v -0.022455 0.004636 0.022455
v -0.031756 0.004636 0.000000
v -0.021205 0.004636 -0.020877
v 0.000000 0.070851 -0.044381
v 0.031382 0.070851 -0.031382
v 0.044381 0.070851 0.000000
v 0.031382 0.070851 0.031382
v 0.000000 0.070851 0.044381
v -0.031382 0.070851 0.031382
v -0.044381 0.070851 0.000000
v -0.031382 0.070851 -0.031382
v -0.027798 0.071509 -0.027798
v 0.000000 0.071509 -0.039312
v -0.027798 0.071509 0.027798
v -0.039312 0.071509 0.000000
v 0.027798 0.071509 0.027798
v 0.000000 0.071509 0.039312
v 0.025785 0.071509 -0.026038
v 0.039312 0.071509 0.000000
v 0.032313 0.077212 -0.032313
v -0.000000 0.077212 -0.045698
v -0.000000 0.071868 -0.045069
v 0.045698 0.077212 0.000000
v 0.032313 0.077212 0.032313
v -0.000000 0.077212 0.045698
v -0.032313 0.077212 0.032313
v -0.045698 0.077212 0.000000
v -0.032313 0.077212 -0.032313
v 0.031869 0.071868 -0.031869
v 0.045069 0.071868 0.000000
v 0.031869 0.071868 0.031869
v -0.000000 0.071868 0.045069
v -0.031869 0.071868 0.031869
v -0.045069 0.071868 0.000000
v -0.031869 0.071868 -0.031869
v 0.010973 0.000000 -0.026492
v 0.022677 0.034844 -0.022959
v 0.026492 0.000000 -0.010973
v 0.031905 0.034509 -0.005810
v 0.026492 0.000000 0.010973
v 0.022757 0.036662 0.020142
v 0.010973 0.000000 0.026492
v 0.004077 0.035973 0.035399
v -0.010973 0.000000 0.026492
v -0.019910 0.037817 0.026026
v -0.026492 0.000000 0.010973
v -0.030483 0.031776 -0.002021
v -0.026492 0.000000 -0.010973
v -0.020771 0.039488 -0.022796
v -0.010973 0.000000 -0.026492
v 0.011228 0.004636 -0.027106
v 0.027106 0.004636 -0.011228
v 0.027106 0.004636 0.011228
v 0.011228 0.004636 0.027106
v -0.010232 0.004636 0.025184
v -0.027106 0.004636 0.011228
v -0.027106 0.004636 -0.011228
v -0.011228 0.004636 -0.027106
v -0.019341 0.037611 -0.020350
v -0.019164 0.038479 0.017477
v 0.017639 0.038177 0.020117
v 0.017907 0.038485 -0.021246
v -0.000370 0.036151 -0.033412
v -0.015691 0.070851 -0.037881
v -0.037881 0.070851 -0.015691
v -0.037881 0.070851 0.015691
v -0.015691 0.070851 0.037881
v 0.015691 0.070851 0.037881
v 0.037881 0.070851 0.015691
v 0.037881 0.070851 -0.015691
v 0.015691 0.070851 -0.037881
v 0.000168 0.037799 -0.030258
v -0.028492 0.037617 -0.000690
v 0.002024 0.039063 0.030875
v 0.027282 0.033082 -0.002569
v 0.012335 0.071509 -0.030260
v 0.033555 0.071509 0.013899
v -0.013899 0.071509 0.033555
v -0.033555 0.071509 -0.013899
v 0.033555 0.071509 -0.013899
v 0.013899 0.071509 0.033555
v -0.033555 0.071509 0.013899
v -0.013899 0.071509 -0.033555
v 0.011496 0.038127 -0.032343
v 0.025937 0.034591 -0.012957
v 0.031277 0.034143 0.012853
v 0.014542 0.034791 0.025152
v -0.013605 0.034591 0.030505
v -0.023866 0.040078 0.013125
v -0.027618 0.033425 -0.011087
v -0.015921 0.037587 -0.030668
v 0.008348 0.036660 -0.025135
v 0.024782 0.043124 0.009843
v -0.009363 0.037283 0.022819
v -0.021918 0.034414 -0.012628
v 0.024011 0.035899 -0.011313
v 0.008213 0.038419 0.024376
v -0.021589 0.037549 0.009923
v -0.008122 0.038275 -0.029014
v -0.002860 0.056590 -0.040663
v 0.025363 0.048919 -0.025551
v 0.042144 0.053506 -0.001179
v 0.028572 0.050100 0.031896
v -0.000450 0.052277 0.040867
v -0.025417 0.053052 0.028746
v -0.041296 0.053425 -0.002818
v -0.029446 0.051438 -0.029456
v 0.010280 0.047498 -0.030954
v 0.035492 0.051440 -0.014826
v 0.033101 0.057017 0.011672
v 0.009674 0.050450 0.039206
v -0.019559 0.048165 0.032423
v -0.036804 0.048955 0.013804
v -0.031626 0.051677 -0.012488
v -0.011830 0.047484 -0.037295
v 0.025558 0.018594 -0.025531
v 0.031141 0.018128 -0.000441
v 0.022855 0.018764 0.021513
v 0.000911 0.015243 0.037832
v -0.028668 0.024732 0.022060
v -0.038368 0.021143 -0.000556
v -0.025745 0.020871 -0.018676
v 0.000416 0.015733 -0.041110
v 0.012578 0.020420 -0.031943
v 0.034613 0.019823 -0.011446
v 0.031149 0.020466 0.012922
v 0.014005 0.024211 0.028558
v -0.012670 0.022855 0.026924
v -0.033026 0.014786 0.015171
v -0.035109 0.021383 -0.012755
v -0.015365 0.021389 -0.030570
v 0.012243 0.000000 -0.029556
v 0.024485 0.000000 -0.024485
v 0.029556 0.000000 -0.012243
v 0.034627 0.000000 0.000000
v 0.029556 0.000000 0.012243
v 0.024485 0.000000 0.024485
v 0.012243 0.000000 0.029556
v -0.000000 0.000000 0.034627
v -0.012243 0.000000 0.029556
v -0.024485 0.000000 0.024485
v -0.029556 0.000000 0.012243
v -0.034627 0.000000 0.000000
v -0.029556 0.000000 -0.012243
v -0.024485 0.000000 -0.024485
v -0.012243 0.000000 -0.029556
v -0.000000 0.000000 -0.034627
v 0.010973 0.001467 -0.026492
v 0.021947 0.001467 -0.021947
v 0.026492 0.001467 -0.010973
v 0.031037 0.001467 0.000000
v 0.026492 0.001467 0.010973
v 0.021947 0.001467 0.021947
v 0.010973 0.001467 0.026492
v -0.000000 0.001467 0.031037
v -0.010973 0.001467 0.026492
v -0.021947 0.001467 0.021947
v -0.026492 0.001467 0.010973
v -0.031037 0.001467 0.000000
v -0.026492 0.001467 -0.010973
v -0.021947 0.001467 -0.021947
v -0.010973 0.001467 -0.026492
v -0.000000 0.001467 -0.031037
vn -0.7804 0.5352 0.3233
vn 0.3245 -0.5299 0.7835
vn 0.3233 0.5352 -0.7804
vn -0.3233 0.5352 -0.7804
vn 0.7804 0.5352 0.3233
vn 0.6116 -0.0116 0.7911
vn -0.3245 -0.5299 0.7835
vn -0.3233 0.5352 0.7804
vn 0.9239 -0.0000 0.3827
vn -0.0000 1.0000 -0.0000
vn 0.9108 -0.1676 -0.3773
vn -0.4116 -0.1098 -0.9047
vn -0.9201 -0.0900 0.3811
vn 0.9146 -0.1415 0.3788
vn 0.5389 -0.0751 -0.8390
vn -0.9871 -0.0649 -0.1464
vn -0.3811 -0.0909 0.9201
vn -0.2864 -0.0713 -0.9554
vn -0.9384 -0.3255 -0.1159
vn -0.9676 -0.0686 0.2430
vn -0.5845 -0.0943 0.8059
vn 0.1260 -0.1874 0.9742
vn 0.9762 -0.1279 0.1749
vn 0.8989 -0.1293 -0.4186
vn 0.3453 -0.3396 -0.8749
vn 0.3804 -0.1081 -0.9185
vn 0.9185 -0.1081 -0.3804
vn 0.9185 -0.1081 0.3804
vn 0.3804 -0.1081 0.9185
vn -0.3804 -0.1081 0.9185
vn -0.9185 -0.1081 0.3804
vn -0.9185 -0.1081 -0.3804
vn -0.3804 -0.1081 -0.9185
vn 0.3233 0.5352 0.7804
vn -0.7835 -0.5299 0.3245
vn 0.7804 0.5352 -0.3233
vn -0.7804 0.5352 -0.3233
vn 0.4567 0.2175 -0.8626
vn 0.4864 0.3246 -0.8112
vn 0.3924 -0.3440 -0.8531
vn 0.9496 0.0568 0.3083
vn 0.7579 0.3919 -0.5215
vn 0.7197 -0.3560 -0.5960
vn 0.7198 -0.0032 0.6942
vn 1.0000 -0.0094 0.0011
vn 0.7907 -0.1424 0.5953
vn 0.5741 0.0084 0.8187
vn 0.6810 0.1928 0.7064
vn 0.3597 -0.0456 0.9320
vn -0.2992 -0.0878 0.9501
vn -0.5527 0.1799 0.8137
vn -0.3707 -0.1571 0.9154
vn -0.6811 0.5686 0.4612
vn -0.9339 0.3456 0.0917
vn -0.7797 -0.0917 0.6194
vn -0.4733 0.4029 -0.7834
vn -0.7997 0.5652 -0.2026
vn -0.6961 -0.3333 -0.6359
vn -0.4535 0.2991 -0.8396
vn -0.7535 0.0563 -0.6551
vn -0.4221 -0.0924 -0.9018
vn -0.3622 -0.0818 0.9285
vn -0.2931 0.2054 0.9338
vn -0.5036 0.1818 0.8446
vn -0.8105 -0.0748 -0.5809
vn -0.8395 0.3514 -0.4145
vn -0.8746 0.3221 -0.3623
vn 0.4551 -0.1727 -0.8735
vn 0.3567 0.3623 -0.8611
vn 0.5139 0.3180 -0.7967
vn 0.9540 -0.0586 0.2940
vn 0.8813 0.3001 0.3650
vn 0.8696 0.2866 0.4020
vn -0.9767 -0.0569 0.2067
vn -0.8785 0.2477 0.4085
vn -0.7935 0.2529 0.5535
vn -0.7227 0.0248 -0.6908
vn -0.3740 0.2115 -0.9030
vn -0.3853 0.3075 -0.8701
vn 0.9193 -0.0990 -0.3808
vn 0.8842 0.2898 -0.3663
vn 0.8793 0.3479 -0.3252
vn 0.1457 -0.0454 0.9883
vn 0.1578 0.2569 0.9535
vn 0.5899 0.2091 0.7799
vn -0.7003 -0.6600 -0.2720
vn -0.9161 -0.2266 -0.3307
vn -0.9059 -0.3656 0.2137
vn -0.2218 -0.3648 0.9043
vn 0.4867 -0.6849 0.5422
vn 0.8780 -0.4782 0.0202
vn 0.9229 -0.2326 -0.3067
vn 0.0631 0.1544 -0.9860
vn 0.5772 -0.2531 -0.7763
vn 0.6826 -0.4509 -0.5751
vn 0.6479 -0.0124 0.7616
vn 0.6126 -0.4139 0.6734
vn -0.6570 -0.3802 0.6510
vn -0.4435 -0.6900 0.5720
vn -0.7894 -0.2174 -0.5742
vn -0.1951 -0.4887 -0.8503
vn -0.3808 -0.0992 -0.9193
vn -0.3588 -0.3475 -0.8663
vn -0.8965 -0.2417 -0.3713
vn -0.9227 0.0507 -0.3822
vn -0.8867 -0.2808 0.3673
vn -0.3772 -0.1689 0.9106
vn -0.3808 0.0988 0.9194
vn 0.3767 0.1767 0.9093
vn 0.3740 -0.2122 0.9028
vn 0.9081 0.1838 0.3762
vn 0.9148 0.1395 0.3789
vn 0.9213 -0.0746 -0.3816
vn 0.9111 0.1660 -0.3774
vn 0.3564 -0.3640 -0.8605
vn 0.3816 -0.0739 -0.9214
vn 0.7835 -0.5299 0.3245
vn 0.7835 -0.5299 -0.3245
vn 0.3245 -0.5299 -0.7835
vn -0.3245 -0.5299 -0.7835
vn -0.7835 -0.5299 -0.3245
vn -0.3816 0.0765 -0.9212
vn 0.3816 0.0765 -0.9212
vn 0.9212 0.0765 -0.3816
vn 0.9212 0.0765 0.3816
vn 0.3816 0.0765 0.9212
vn -0.5903 0.0668 0.8044
vn -0.2768 0.3819 0.8818
vn -0.7609 0.4288 0.4870
vn -0.9212 0.0765 0.3816
vn -0.9212 0.0765 -0.3816
vn -0.3254 0.5262 0.7856
vn -0.0000 -1.0000 -0.0000
vn 0.3827 -0.0000 0.9239
vn -0.3827 -0.0000 0.9239
vn -0.9239 -0.0000 0.3827
vn -0.9239 -0.0000 -0.3827
vn -0.3827 -0.0000 -0.9239
vn 0.3827 -0.0000 -0.9239
vn 0.9239 -0.0000 -0.3827
vn 0.5290 -0.0435 0.8475
vn 0.9482 -0.1346 -0.2879
vn -0.5630 -0.0641 -0.8240
vn -0.8595 -0.1331 0.4935
vn 0.8648 -0.0752 0.4964
vn 0.5824 -0.0550 -0.8111
vn -0.9708 -0.0997 -0.2180
vn -0.5339 -0.0355 0.8448
vn -0.3776 -0.1619 -0.9117
vn -0.9162 -0.1290 -0.3795
vn -0.9013 -0.2199 0.3733
vn -0.3699 -0.2562 0.8930
vn 0.3821 -0.0528 0.9226
vn 0.8486 -0.3953 0.3515
vn 0.9199 -0.0927 -0.3810
vn 0.3611 -0.3309 -0.8718
vn 0.6465 0.0222 -0.7626
vn 0.0925 -0.0169 -0.9956
vn 0.3647 -0.3027 -0.8805
vn 0.7179 0.3609 -0.5953
vn 0.9307 0.2122 -0.2980
vn 0.9161 -0.1297 -0.3795
vn 0.6592 0.0610 0.7495
vn 0.9988 -0.0358 0.0329
vn 0.6980 0.1871 0.6912
vn 0.5080 0.0686 0.8586
vn 0.3825 -0.0289 0.9235
vn -0.6455 -0.2695 0.7146
vn -0.2325 -0.3007 0.9249
vn -0.3775 -0.1633 0.9115
vn -0.9140 0.3479 0.2086
vn -0.8272 0.4527 0.3330
vn -0.8675 -0.3439 0.3593
vn -0.8844 0.1376 -0.4459
vn -0.8273 0.5373 -0.1637
vn -0.9191 -0.1012 -0.3807
vn -0.1748 -0.0120 -0.9845
vn -0.8544 -0.0325 -0.5185
vn -0.3795 -0.1288 -0.9162
vn -0.3998 0.1780 0.8991
vn -0.5786 0.2089 0.7884
vn -0.8030 -0.0698 -0.5919
vn -0.8606 0.2971 -0.4137
vn 0.2173 -0.0763 -0.9731
vn 0.4833 0.3197 -0.8150
vn 0.3700 0.2554 -0.8932
vn 0.8467 -0.1232 0.5177
vn 0.8672 0.2860 0.4077
vn 0.8880 0.2760 0.3678
vn -0.9420 -0.0924 0.3227
vn -0.8907 0.2655 0.3689
vn -0.8112 0.2689 0.5193
vn -0.6750 0.3026 -0.6729
vn -0.3635 0.3130 -0.8775
vn 0.8270 -0.1600 -0.5389
vn 0.7899 0.3382 -0.5116
vn 0.8690 0.3396 -0.3599
vn 0.3826 0.0171 0.9237
vn 0.3758 0.1893 0.9072
vn 0.3667 0.2860 0.8853
vn -0.4457 -0.3636 -0.8181
vn -0.6900 -0.3676 -0.6235
vn -0.4562 -0.7063 0.5413
vn -0.3383 -0.2755 0.8998
vn 0.2815 -0.5910 0.7560
vn 0.8128 -0.0348 0.5815
vn 0.6978 -0.4569 -0.5516
vn 0.4597 -0.2467 -0.8531
vn 0.3167 0.1793 -0.9314
vn 0.8550 -0.3730 -0.3603
vn 0.8989 -0.4350 0.0526
vn 0.1037 -0.2902 0.9513
vn -0.6932 -0.3619 0.6234
vn -0.8897 -0.4399 0.1221
vn -0.7809 -0.6180 -0.0916
vn -0.0129 -0.3357 -0.9419
vn -0.7494 0.1352 -0.6481
vn -0.5813 -0.1230 -0.8043
vn -0.9503 -0.1749 -0.2574
vn -0.5338 -0.1585 -0.8306
vn -0.7909 -0.0742 0.6075
vn -0.9525 -0.1617 0.2582
vn -0.5962 0.0808 0.7987
vn -0.2857 0.0456 0.9572
vn 0.6180 -0.0126 0.7861
vn 0.5820 -0.0088 0.8132
vn 0.9969 -0.0780 0.0131
vn 0.7250 -0.0791 0.6842
vn 0.8331 -0.1917 -0.5188
vn 0.9341 -0.2486 0.2564
vn 0.6234 -0.1009 -0.7754
vn 0.4274 -0.1119 -0.8971
vt 0.125411 0.258953
vt 0.187644 0.246909
vt 0.187649 0.258953
vt 0.311601 0.228023
vt 0.280651 0.218832
vt 0.311601 0.218832
vt 0.498019 0.258953
vt 0.435740 0.246909
vt 0.498022 0.246909
vt 0.000635 0.258953
vt 0.063032 0.246909
vt 0.063032 0.258953
vt 0.373628 0.258953
vt 0.311660 0.246909
vt 0.373632 0.246909
vt 0.249674 0.218832
vt 0.249671 0.228023
vt 0.060970 0.375928
vt 0.031598 0.294078
vt 0.022030 0.377576
vt 0.187630 0.228023
vt 0.218697 0.218832
vt 0.249671 0.228023
vt 0.249710 0.258953
vt 0.249707 0.246909
vt 0.094301 0.039236
vt 0.125517 0.049125
vt 0.125517 0.039236
vt 0.498608 0.277609
vt 0.436202 0.266392
vt 0.498633 0.266392
vt 0.373920 0.277609
vt 0.436163 0.277609
vt 0.311836 0.266392
vt 0.373950 0.266392
vt 0.249766 0.277609
vt 0.311832 0.277609
vt 0.249766 0.277609
vt 0.187535 0.266392
vt 0.249741 0.266392
vt 0.125181 0.277609
vt 0.187574 0.277609
vt 0.062626 0.266392
vt 0.125151 0.266392
vt 0.000057 0.277609
vt 0.062630 0.277609
vt 0.542037 0.358805
vt 0.625383 0.275458
vt 0.708730 0.358805
vt 0.160198 0.375774
vt 0.188252 0.294078
vt 0.157054 0.294078
vt 0.307461 0.377334
vt 0.281607 0.294078
vt 0.276277 0.377935
vt 0.409628 0.371678
vt 0.437134 0.294078
vt 0.405897 0.294078
vt 0.084031 0.367994
vt 0.125724 0.294078
vt 0.094393 0.294078
vt 0.219791 0.375114
vt 0.250528 0.294078
vt 0.220019 0.294078
vt 0.382174 0.364687
vt 0.343687 0.294078
vt 0.344822 0.389613
vt 0.474071 0.373568
vt 0.499728 0.294078
vt 0.468370 0.294078
vt 0.032364 0.217995
vt 0.006783 0.185981
vt 0.025572 0.165540
vt 0.094687 0.217995
vt 0.063515 0.174417
vt 0.096041 0.174953
vt 0.156914 0.217995
vt 0.120419 0.178876
vt 0.154248 0.168843
vt 0.218953 0.217995
vt 0.192830 0.178040
vt 0.207137 0.167068
vt 0.268955 0.172198
vt 0.249887 0.217995
vt 0.249037 0.176299
vt 0.346835 0.186939
vt 0.311729 0.217995
vt 0.307406 0.171414
vt 0.404543 0.217995
vt 0.375781 0.179058
vt 0.404759 0.174421
vt 0.466636 0.217995
vt 0.435809 0.168761
vt 0.472270 0.165571
vt 0.498085 0.246725
vt 0.435780 0.234513
vt 0.498083 0.234513
vt 0.435785 0.246725
vt 0.373656 0.234513
vt 0.373659 0.246725
vt 0.311669 0.234513
vt 0.311669 0.246725
vt 0.249701 0.234513
vt 0.249698 0.246725
vt 0.187622 0.234513
vt 0.249701 0.234513
vt 0.187617 0.246725
vt 0.125365 0.234513
vt 0.125362 0.246725
vt 0.062969 0.234513
vt 0.062969 0.246725
vt 0.000554 0.234513
vt 0.249674 0.218832
vt 0.187635 0.218832
vt 0.311660 0.258953
vt 0.125412 0.228023
vt 0.156572 0.218832
vt 0.125415 0.218832
vt 0.435735 0.258953
vt 0.125407 0.246909
vt 0.467972 0.104786
vt 0.435963 0.137166
vt 0.435477 0.100685
vt 0.498583 0.140100
vt 0.496951 0.094263
vt 0.503321 0.185981
vt 0.398717 0.103446
vt 0.387693 0.136414
vt 0.374603 0.099641
vt 0.409981 0.136598
vt 0.435589 0.217995
vt 0.342823 0.135592
vt 0.314091 0.101068
vt 0.342559 0.104889
vt 0.373589 0.217995
vt 0.285819 0.113296
vt 0.258962 0.139699
vt 0.251817 0.093164
vt 0.291193 0.137047
vt 0.280822 0.217995
vt 0.215349 0.110253
vt 0.198493 0.143839
vt 0.177769 0.114465
vt 0.251817 0.093164
vt 0.159956 0.092138
vt 0.120660 0.130278
vt 0.124689 0.106409
vt 0.165790 0.148914
vt 0.095618 0.133980
vt 0.076078 0.105799
vt 0.098212 0.106948
vt 0.038145 0.106960
vt 0.002045 0.140100
vt 0.000413 0.094263
vt 0.059848 0.147591
vt 0.443842 0.378097
vt 0.468860 0.460071
vt 0.437580 0.460071
vt 0.499271 0.376395
vt 0.310640 0.294078
vt 0.312656 0.460071
vt 0.374857 0.460071
vt 0.343730 0.460071
vt 0.184694 0.378084
vt 0.219371 0.460071
vt 0.188169 0.460071
vt 0.255716 0.379532
vt 0.063622 0.294078
vt 0.094350 0.460071
vt 0.062986 0.460071
vt 0.123831 0.375942
vt 0.373877 0.294078
vt 0.405984 0.460071
vt 0.250528 0.294078
vt 0.255716 0.379532
vt 0.281582 0.460071
vt 0.250476 0.460071
vt 0.156967 0.460071
vt 0.125659 0.460071
vt 0.000239 0.294078
vt -0.000217 0.376395
vt 0.000292 0.460071
vt 0.031623 0.460071
vt 0.039187 0.143324
vt 0.216906 0.136597
vt 0.316497 0.141247
vt 0.470633 0.144535
vt 0.063535 0.058946
vt 0.032338 0.058946
vt 0.001176 0.058946
vt 0.125869 0.058946
vt 0.094732 0.058946
vt 0.188020 0.058946
vt 0.157005 0.058946
vt 0.219036 0.058946
vt 0.249942 0.058946
vt 0.280848 0.058946
vt 0.311720 0.058946
vt 0.342591 0.058946
vt 0.373522 0.058946
vt 0.404453 0.058946
vt 0.435503 0.058946
vt 0.466553 0.058946
vt 0.497714 0.058946
vt 0.342551 0.218832
vt 0.373550 0.228023
vt 0.373547 0.218832
vt 0.404543 0.218832
vt 0.435637 0.228023
vt 0.435632 0.218832
vt 0.466722 0.218832
vt 0.497901 0.228023
vt 0.497898 0.218832
vt 0.000673 0.218832
vt 0.031850 0.218832
vt 0.000676 0.228023
vt 0.063054 0.228023
vt 0.063054 0.218832
vt 0.094259 0.218832
vt 0.312813 0.282181
vt 0.281713 0.282181
vt 0.312813 0.294042
vt 0.250582 0.282181
vt 0.250579 0.294042
vt 0.250579 0.294042
vt 0.219451 0.282181
vt 0.188224 0.282181
vt 0.188219 0.294042
vt 0.156996 0.282181
vt 0.125661 0.282181
vt 0.125657 0.294042
vt 0.094326 0.282181
vt 0.062938 0.282181
vt 0.062937 0.294042
vt 0.031549 0.282181
vt 0.000192 0.282181
vt 0.000195 0.294042
vt 0.500094 0.294042
vt 0.500091 0.282181
vt 0.469145 0.282181
vt 0.437839 0.282181
vt 0.437481 0.294042
vt 0.406217 0.282181
vt 0.375065 0.282181
vt 0.375069 0.294042
vt 0.343912 0.282181
vt 0.435514 0.049579
vt 0.466629 0.059094
vt 0.435560 0.059094
vt 0.373507 0.049579
vt 0.404492 0.059094
vt 0.373543 0.059094
vt 0.311699 0.049579
vt 0.342594 0.059094
vt 0.311704 0.059094
vt 0.249918 0.049579
vt 0.280814 0.059094
vt 0.249890 0.059094
vt 0.187977 0.049579
vt 0.218965 0.059094
vt 0.187932 0.059094
vt 0.125779 0.049579
vt 0.156898 0.059094
vt 0.125743 0.059094
vt 0.063378 0.049579
vt 0.094589 0.059094
vt 0.063373 0.059094
vt 0.000948 0.049579
vt 0.032157 0.059094
vt 0.000977 0.059094
vt 0.497779 0.049579
vt 0.466585 0.049579
vt 0.404444 0.049579
vt 0.342570 0.049579
vt 0.280828 0.049579
vt 0.219009 0.049579
vt 0.156946 0.049579
vt 0.094612 0.049579
vt 0.032143 0.049579
vt 0.689918 0.099414
vt 0.689918 0.214614
vt 0.574717 0.214614
vt 0.000489 0.039236
vt 0.031733 0.049125
vt 0.031733 0.039236
vt 0.435741 0.039236
vt 0.466860 0.049125
vt 0.466860 0.039236
vt 0.063017 0.049125
vt 0.063017 0.039236
vt 0.498104 0.049125
vt 0.498104 0.039236
vt 0.373636 0.039236
vt 0.404621 0.049125
vt 0.404621 0.039236
vt 0.435741 0.049125
vt 0.311730 0.039236
vt 0.342650 0.049125
vt 0.342650 0.039236
vt 0.373636 0.049125
vt 0.249852 0.039236
vt 0.280810 0.049125
vt 0.280810 0.039236
vt 0.311730 0.049125
vt 0.187813 0.039236
vt 0.218893 0.049125
vt 0.218893 0.039236
vt 0.249852 0.049125
vt 0.156733 0.049125
vt 0.156733 0.039236
vt 0.187813 0.049125
vt 0.094301 0.049125
vt 0.000638 0.246909
vt 0.000082 0.266392
vt 0.708730 0.393328
vt 0.684318 0.417739
vt 0.659907 0.442151
vt 0.625383 0.442151
vt 0.592425 0.436651
vt 0.566449 0.417739
vt 0.542037 0.393328
vt 0.542037 0.324282
vt 0.571149 0.303832
vt 0.590860 0.275458
vt 0.655062 0.281682
vt 0.684318 0.299870
vt 0.702585 0.325806
vt 0.001231 0.217995
vt 0.063526 0.217995
vt 0.125801 0.217995
vt 0.187934 0.217995
vt 0.342636 0.217995
vt 0.249698 0.246725
vt 0.000557 0.246725
vt 0.249707 0.246909
vt 0.497769 0.217995
vt 0.249888 0.217995
vt 0.499780 0.460071
vt 0.497808 0.059094
vt 0.550859 0.190755
vt 0.550859 0.157014
vt 0.550859 0.123273
vt 0.574717 0.099414
vt 0.598576 0.075555
vt 0.632318 0.075555
vt 0.666059 0.075555
vt 0.713776 0.123273
vt 0.713776 0.157014
vt 0.713776 0.190755
vt 0.666059 0.238473
vt 0.632318 0.238473
vt 0.598576 0.238473
vt 0.000489 0.049125
s 0
usemtl 64x64grid
f 23/1/1 55/2/1 22/3/1
f 60/4/2 97/5/2 36/6/2
f 18/7/3 49/8/3 50/9/3
f 18/10/4 57/11/4 24/12/4
f 19/13/5 53/14/5 52/15/5
f 37/16/2 97/5/2 61/17/2
f 88/18/6 87/19/6 128/20/6
f 62/21/7 96/22/7 61/23/7
f 21/24/8 55/2/8 54/25/8
f 77/26/9 188/27/9 13/28/9
f 2/29/10 17/30/10 18/31/10
f 6/32/10 17/30/10 4/33/10
f 6/32/10 20/34/10 19/35/10
f 10/36/10 20/34/10 8/37/10
f 10/38/10 22/39/10 21/40/10
f 14/41/10 22/39/10 12/42/10
f 14/41/10 24/43/10 23/44/10
f 2/45/10 24/43/10 16/46/10
f 85/47/10 83/48/10 81/49/10
f 127/50/11 30/51/11 85/52/11
f 90/53/12 83/54/12 126/55/12
f 125/56/13 25/57/13 81/58/13
f 124/59/14 31/60/14 86/61/14
f 123/62/15 29/63/15 84/64/15
f 104/65/16 82/66/16 122/67/16
f 121/68/17 26/69/17 80/70/17
f 93/71/18 129/72/18 144/73/18
f 94/74/19 136/75/19 143/76/19
f 95/77/20 135/78/20 142/79/20
f 96/80/21 134/81/21 141/82/21
f 140/83/22 37/84/22 133/85/22
f 139/86/23 36/87/23 132/88/23
f 99/89/24 131/90/24 138/91/24
f 100/92/25 130/93/25 137/94/25
f 50/95/26 58/96/26 51/97/26
f 49/98/27 59/99/27 58/96/27
f 52/100/28 60/101/28 59/99/28
f 53/102/29 61/103/29 60/101/29
f 54/104/30 62/105/30 61/106/30
f 55/107/31 63/108/31 62/105/31
f 56/109/32 64/110/32 63/108/32
f 57/111/33 51/112/33 64/110/33
f 61/23/7 96/22/7 37/113/7
f 38/114/7 96/22/7 62/21/7
f 21/24/34 53/14/34 20/115/34
f 63/116/35 95/117/35 62/21/35
f 39/118/35 95/117/35 63/116/35
f 19/13/36 49/8/36 17/119/36
f 23/1/37 57/11/37 56/120/37
f 62/21/35 95/117/35 38/114/35
f 153/121/38 66/122/38 145/123/38
f 92/124/39 153/121/39 152/125/39
f 129/126/40 100/92/40 137/94/40
f 154/127/41 68/128/41 146/129/41
f 145/123/42 114/130/42 154/127/42
f 34/131/43 138/91/43 130/93/43
f 115/132/44 147/133/44 155/134/44
f 146/129/45 115/132/45 155/134/45
f 35/135/46 139/86/46 131/90/46
f 156/136/47 72/137/47 148/138/47
f 147/133/48 116/139/48 156/136/48
f 132/88/49 97/140/49 140/83/49
f 157/141/50 74/142/50 149/143/50
f 72/137/51 157/141/51 148/144/51
f 133/85/52 96/80/52 141/82/52
f 158/145/53 76/146/53 150/147/53
f 149/143/54 118/148/54 158/145/54
f 134/81/55 95/77/55 142/79/55
f 119/149/56 151/150/56 159/151/56
f 76/146/57 159/151/57 150/147/57
f 135/78/58 94/74/58 143/76/58
f 160/152/59 92/153/59 152/154/59
f 78/155/60 160/152/60 151/150/60
f 136/75/61 93/71/61 144/73/61
f 121/68/62 25/57/62 91/156/62
f 105/157/63 91/156/63 47/158/63
f 105/157/64 101/159/64 121/68/64
f 90/53/65 82/66/65 28/160/65
f 45/161/66 122/67/66 90/53/66
f 48/162/67 122/67/67 106/163/67
f 123/62/68 30/51/68 89/164/68
f 107/165/69 89/164/69 43/166/69
f 107/165/70 103/167/70 123/62/70
f 124/59/71 32/168/71 88/18/71
f 108/169/72 88/18/72 41/170/72
f 108/169/73 102/171/73 124/59/73
f 104/65/74 81/58/74 27/172/74
f 48/162/75 125/56/75 104/65/75
f 109/173/76 91/156/76 125/56/76
f 126/55/77 29/174/77 103/175/77
f 110/176/78 103/175/78 46/177/78
f 110/176/79 90/53/79 126/55/79
f 102/171/80 85/52/80 31/60/80
f 111/178/81 102/171/81 44/179/81
f 111/178/82 89/164/82 127/50/82
f 128/20/83 26/180/83 101/181/83
f 42/182/84 128/20/84 101/181/84
f 112/183/85 88/18/85 128/20/85
f 136/75/86 120/184/86 78/155/86
f 76/146/87 143/76/87 119/149/87
f 134/81/88 118/148/88 74/142/88
f 133/85/89 117/185/89 72/137/89
f 132/88/90 116/139/90 70/186/90
f 131/90/91 115/132/91 68/128/91
f 130/93/92 114/130/92 66/122/92
f 92/124/93 137/94/93 113/187/93
f 113/187/94 130/93/94 66/122/94
f 138/91/95 68/128/95 114/130/95
f 139/86/96 70/186/96 115/132/96
f 140/83/97 72/137/97 116/139/97
f 141/82/98 74/142/98 117/185/98
f 142/79/99 76/146/99 118/148/99
f 143/76/100 78/155/100 119/149/100
f 144/73/101 92/153/101 120/184/101
f 174/188/102 160/152/102 175/189/102
f 175/189/103 152/154/103 176/190/103
f 172/191/104 159/151/104 173/192/104
f 173/192/105 151/150/105 174/188/105
f 170/193/106 158/145/106 171/194/106
f 158/145/106 172/191/106 171/194/106
f 148/144/107 169/195/107 168/196/107
f 157/141/108 170/193/108 169/195/108
f 147/133/109 167/197/109 166/198/109
f 167/197/110 148/138/110 168/196/110
f 146/129/111 165/199/111 164/200/111
f 165/199/112 147/133/112 166/198/112
f 145/123/113 163/201/113 162/202/113
f 163/201/114 146/129/114 164/200/114
f 152/125/115 161/203/115 176/204/115
f 161/203/116 145/123/116 162/202/116
f 61/17/2 97/5/2 60/4/2
f 36/6/117 98/205/117 60/4/117
f 60/4/117 98/205/117 59/206/117
f 59/206/117 98/205/117 35/207/117
f 35/207/118 99/208/118 59/206/118
f 59/206/118 99/208/118 58/209/118
f 58/209/118 99/208/118 34/210/118
f 34/210/119 100/211/119 58/209/119
f 58/209/119 100/211/119 51/212/119
f 51/212/119 100/211/119 33/213/119
f 33/214/120 93/215/120 51/216/120
f 51/216/120 93/215/120 64/217/120
f 64/217/120 93/215/120 40/218/120
f 40/218/121 94/219/121 64/217/121
f 64/217/121 94/219/121 63/116/121
f 39/118/121 63/116/121 94/219/121
f 45/220/122 110/221/122 8/222/122
f 46/223/122 10/224/122 110/221/122
f 10/225/123 46/223/123 107/226/123
f 43/227/123 12/228/123 107/226/123
f 43/227/124 111/229/124 12/228/124
f 44/230/124 14/231/124 111/229/124
f 14/231/125 44/230/125 108/232/125
f 41/233/125 16/234/125 108/232/125
f 41/233/126 112/235/126 16/234/126
f 42/236/126 2/237/126 112/235/126
f 2/238/127 42/239/127 105/240/127
f 47/241/128 4/242/128 105/240/128
f 47/241/129 109/243/129 4/242/129
f 48/244/130 6/245/130 109/243/130
f 6/245/131 48/244/131 106/246/131
f 45/220/131 8/222/131 106/246/131
f 6/245/131 106/246/131 8/222/131
f 8/222/122 110/221/122 10/224/122
f 10/225/123 107/226/123 12/228/123
f 12/228/124 111/229/124 14/231/124
f 14/231/125 108/232/125 16/234/125
f 16/234/126 112/235/126 2/237/126
f 2/238/132 105/240/132 4/242/132
f 4/242/130 109/243/130 6/245/130
f 3/247/133 161/248/133 162/249/133
f 5/250/133 163/251/133 164/252/133
f 7/253/133 165/254/133 166/255/133
f 9/256/133 167/257/133 168/258/133
f 11/259/133 169/260/133 170/261/133
f 13/262/133 171/263/133 172/264/133
f 15/265/133 173/266/133 174/267/133
f 1/268/133 175/269/133 176/270/133
f 1/271/133 161/248/133 65/272/133
f 3/247/133 163/251/133 67/273/133
f 5/250/133 165/254/133 69/274/133
f 7/253/133 167/257/133 71/275/133
f 9/256/133 169/260/133 73/276/133
f 11/259/133 171/263/133 75/277/133
f 13/262/133 173/266/133 77/278/133
f 15/265/133 175/269/133 79/279/133
f 183/280/133 187/281/133 191/282/133
f 1/283/134 191/284/134 79/285/134
f 3/286/135 177/287/135 65/288/135
f 79/285/134 190/289/134 15/290/134
f 65/288/135 192/291/135 1/292/135
f 5/293/136 179/294/136 67/295/136
f 67/295/136 178/296/136 3/286/136
f 7/297/137 181/298/137 69/299/137
f 69/299/137 180/300/137 5/293/137
f 9/301/138 183/302/138 71/303/138
f 71/303/138 182/304/138 7/297/138
f 11/305/139 185/306/139 73/307/139
f 73/307/139 184/308/139 9/301/139
f 13/28/140 187/309/140 75/310/140
f 75/310/140 186/311/140 11/305/140
f 15/290/9 189/312/9 77/26/9
f 23/1/1 56/120/1 55/2/1
f 18/7/3 17/119/3 49/8/3
f 18/10/4 50/313/4 57/11/4
f 19/13/5 20/115/5 53/14/5
f 88/18/141 32/168/141 87/19/141
f 21/24/8 22/3/8 55/2/8
f 77/26/9 189/312/9 188/27/9
f 2/29/10 4/33/10 17/30/10
f 6/32/10 19/35/10 17/30/10
f 6/32/10 8/37/10 20/34/10
f 10/36/10 21/40/10 20/34/10
f 10/38/10 12/42/10 22/39/10
f 14/41/10 23/44/10 22/39/10
f 14/41/10 16/46/10 24/43/10
f 2/45/10 18/314/10 24/43/10
f 81/49/10 25/315/10 80/316/10
f 80/316/10 26/317/10 87/318/10
f 87/318/10 32/319/10 86/320/10
f 86/320/10 31/321/10 85/47/10
f 85/47/10 30/322/10 84/323/10
f 84/323/10 29/324/10 83/48/10
f 83/48/10 28/325/10 82/326/10
f 82/326/10 27/327/10 81/49/10
f 81/49/10 80/316/10 87/318/10
f 87/318/10 86/320/10 85/47/10
f 85/47/10 84/323/10 83/48/10
f 83/48/10 82/326/10 81/49/10
f 81/49/10 87/318/10 85/47/10
f 127/50/142 89/164/142 30/51/142
f 90/53/143 28/160/143 83/54/143
f 125/56/144 91/156/144 25/57/144
f 124/59/145 102/171/145 31/60/145
f 123/62/146 103/167/146 29/63/146
f 104/65/147 27/172/147 82/66/147
f 121/68/148 101/159/148 26/69/148
f 93/71/149 33/328/149 129/72/149
f 94/74/150 40/329/150 136/75/150
f 95/77/151 39/330/151 135/78/151
f 96/80/152 38/331/152 134/81/152
f 140/83/153 97/140/153 37/84/153
f 139/86/154 98/332/154 36/87/154
f 99/89/155 35/135/155 131/90/155
f 100/92/156 34/131/156 130/93/156
f 50/95/26 49/98/26 58/96/26
f 49/98/27 52/100/27 59/99/27
f 52/100/28 53/102/28 60/101/28
f 53/102/29 54/333/29 61/103/29
f 54/104/30 55/107/30 62/105/30
f 55/107/31 56/109/31 63/108/31
f 56/109/32 57/111/32 64/110/32
f 57/111/33 50/334/33 51/112/33
f 21/24/34 54/335/34 53/14/34
f 19/13/36 52/15/36 49/8/36
f 23/1/37 24/12/37 57/11/37
f 153/121/157 113/187/157 66/122/157
f 92/124/158 113/187/158 153/121/158
f 129/126/159 33/336/159 100/92/159
f 154/127/160 114/130/160 68/128/160
f 145/123/161 66/122/161 114/130/161
f 34/131/162 99/89/162 138/91/162
f 115/132/163 70/186/163 147/133/163
f 146/129/164 68/128/164 115/132/164
f 35/135/154 98/332/154 139/86/154
f 156/136/165 116/139/165 72/137/165
f 147/133/166 70/186/166 116/139/166
f 132/88/167 36/87/167 97/140/167
f 157/141/168 117/185/168 74/142/168
f 72/137/169 117/185/169 157/141/169
f 133/85/170 37/337/170 96/80/170
f 158/145/171 118/148/171 76/146/171
f 149/143/172 74/142/172 118/148/172
f 134/81/173 38/331/173 95/77/173
f 119/149/174 78/155/174 151/150/174
f 76/146/175 119/149/175 159/151/175
f 135/78/176 39/330/176 94/74/176
f 160/152/177 120/184/177 92/153/177
f 78/155/178 120/184/178 160/152/178
f 136/75/179 40/329/179 93/71/179
f 121/68/17 80/70/17 25/57/17
f 105/157/180 121/68/180 91/156/180
f 105/157/181 42/338/181 101/159/181
f 90/53/182 122/67/182 82/66/182
f 45/161/67 106/163/67 122/67/67
f 48/162/183 104/65/183 122/67/183
f 123/62/184 84/64/184 30/51/184
f 107/165/185 123/62/185 89/164/185
f 107/165/186 46/177/186 103/167/186
f 124/59/187 86/61/187 32/168/187
f 108/169/188 124/59/188 88/18/188
f 108/169/189 44/179/189 102/171/189
f 104/65/190 125/56/190 81/58/190
f 48/162/191 109/173/191 125/56/191
f 109/173/192 47/158/192 91/156/192
f 126/55/33 83/54/33 29/174/33
f 110/176/193 126/55/193 103/175/193
f 110/176/194 45/161/194 90/53/194
f 102/171/195 127/50/195 85/52/195
f 111/178/196 127/50/196 102/171/196
f 111/178/197 43/166/197 89/164/197
f 128/20/198 87/19/198 26/180/198
f 42/182/199 112/183/199 128/20/199
f 112/183/200 41/170/200 88/18/200
f 136/75/201 144/73/201 120/184/201
f 76/146/202 135/78/202 143/76/202
f 134/81/203 142/79/203 118/148/203
f 133/85/204 141/82/204 117/185/204
f 132/88/205 140/83/205 116/139/205
f 131/90/206 139/86/206 115/132/206
f 130/93/207 138/91/207 114/130/207
f 92/124/208 129/126/208 137/94/208
f 113/187/209 137/94/209 130/93/209
f 138/91/210 131/90/210 68/128/210
f 139/86/211 132/88/211 70/186/211
f 140/83/212 133/85/212 72/137/212
f 141/82/213 134/81/213 74/142/213
f 142/79/214 135/78/214 76/146/214
f 143/76/215 136/75/215 78/155/215
f 144/73/216 129/72/216 92/153/216
f 174/188/217 151/150/217 160/152/217
f 175/189/218 160/152/218 152/154/218
f 172/191/219 150/147/219 159/151/219
f 173/192/220 159/151/220 151/150/220
f 170/193/221 149/143/221 158/145/221
f 158/145/222 150/147/222 172/191/222
f 148/144/223 157/141/223 169/195/223
f 157/141/224 149/143/224 170/193/224
f 147/133/225 156/136/225 167/197/225
f 167/197/226 156/136/226 148/138/226
f 146/129/227 155/134/227 165/199/227
f 165/199/228 155/134/228 147/133/228
f 145/123/229 154/127/229 163/201/229
f 163/201/230 154/127/230 146/129/230
f 152/125/231 153/121/231 161/203/231
f 161/203/232 153/121/232 145/123/232
f 3/247/133 65/272/133 161/248/133
f 5/250/133 67/273/133 163/251/133
f 7/253/133 69/274/133 165/254/133
f 9/256/133 71/275/133 167/257/133
f 11/259/133 73/276/133 169/260/133
f 13/262/133 75/277/133 171/263/133
f 15/265/133 77/278/133 173/266/133
f 1/268/133 79/279/133 175/269/133
f 1/271/133 176/339/133 161/248/133
f 3/247/133 162/249/133 163/251/133
f 5/250/133 164/252/133 165/254/133
f 7/253/133 166/255/133 167/257/133
f 9/256/133 168/258/133 169/260/133
f 11/259/133 170/261/133 171/263/133
f 13/262/133 172/264/133 173/266/133
f 15/265/133 174/267/133 175/269/133
f 191/282/133 192/340/133 177/341/133
f 177/341/133 178/342/133 179/343/133
f 179/343/133 180/344/133 181/345/133
f 181/345/133 182/346/133 183/280/133
f 183/280/133 184/347/133 185/348/133
f 185/348/133 186/349/133 187/281/133
f 187/281/133 188/350/133 189/351/133
f 189/351/133 190/352/133 191/282/133
f 191/282/133 177/341/133 179/343/133
f 179/343/133 181/345/133 183/280/133
f 183/280/133 185/348/133 187/281/133
f 187/281/133 189/351/133 191/282/133
f 191/282/133 179/343/133 183/280/133
f 1/283/134 192/353/134 191/284/134
f 3/286/135 178/296/135 177/287/135
f 79/285/134 191/284/134 190/289/134
f 65/288/135 177/287/135 192/291/135
f 5/293/136 180/300/136 179/294/136
f 67/295/136 179/294/136 178/296/136
f 7/297/137 182/304/137 181/298/137
f 69/299/137 181/298/137 180/300/137
f 9/301/138 184/308/138 183/302/138
f 71/303/138 183/302/138 182/304/138
f 11/305/139 186/311/139 185/306/139
f 73/307/139 185/306/139 184/308/139
f 13/28/140 188/27/140 187/309/140
f 75/310/140 187/309/140 186/311/140
f 15/290/9 190/289/9 189/312/9
