# Blender 5.1.1
# www.blender.org
mtllib SmallWallSign.mtl
o SmallSquareSign
v -0.130000 -0.150000 0.000000
v -0.150000 -0.130000 0.000000
v 0.150000 -0.130000 0.000000
v 0.130000 -0.150000 0.000000
v -0.130000 0.150000 -0.000000
v -0.150000 0.130000 -0.000000
v 0.130000 0.150000 -0.000000
v 0.150000 0.130000 -0.000000
vn -0.0000 -0.0000 1.0000
vt 1.000000 0.066667
vt 0.933333 1.000000
vt 0.000000 0.933333
vt 0.000000 0.066667
vt 0.066667 0.000000
vt 0.933333 0.000000
vt 1.000000 0.933333
vt 0.066667 1.000000
s 0
usemtl 32x32grid
f 3/1/1 7/2/1 6/3/1
f 6/3/1 2/4/1 1/5/1
f 1/5/1 4/6/1 3/1/1
f 3/1/1 8/7/1 7/2/1
f 7/2/1 5/8/1 6/3/1
f 6/3/1 1/5/1 3/1/1
