# Blender 5.0.1
# www.blender.org
mtllib Toilet02.mtl
o Toilet02
v -0.150574 0.310000 0.178020
v -0.174188 0.310000 -0.153992
v 0.150574 0.310000 0.178020
v 0.174188 0.310000 -0.153992
v 0.058063 0.310000 -0.237046
v -0.058063 0.310000 -0.237046
v -0.154000 0.549776 -0.399310
v 0.154000 0.549776 -0.399310
v -0.058063 0.310000 0.308634
v 0.058063 0.310000 0.308634
v 0.130169 0.537585 -0.103402
v 0.113026 0.537585 0.147498
v -0.130169 0.537585 -0.103402
v -0.113026 0.537585 0.147498
v -0.051551 0.537585 -0.142066
v 0.051551 0.537585 -0.142066
v 0.046667 0.542606 0.296095
v -0.046667 0.542606 0.296095
v -0.090008 0.210000 0.118356
v -0.104123 0.210000 -0.080109
v 0.090008 0.210000 0.118356
v 0.104123 0.210000 -0.080109
v 0.034708 0.210000 -0.237959
v -0.034708 0.210000 -0.237959
v -0.034708 0.210000 0.196433
v 0.034708 0.210000 0.196433
v -0.100099 0.000000 -0.296312
v 0.100099 0.000000 -0.296312
v 0.100099 0.000000 0.226495
v -0.100099 0.000000 0.226495
v -0.000000 0.336769 -0.035267
v -0.192500 0.549776 -0.249310
v -0.192500 1.049789 -0.285201
v 0.192500 1.049789 -0.285201
v 0.192500 0.549776 -0.249310
v 0.154000 1.049789 -0.254275
v -0.154000 1.049789 -0.254275
v -0.171479 0.534861 0.198613
v -0.161031 0.547541 0.189602
v -0.198372 0.534859 -0.179494
v -0.184737 0.550000 -0.181211
v -0.198329 0.549950 -0.196382
v 0.161031 0.547541 0.189602
v 0.171479 0.534861 0.198613
v 0.184737 0.550000 -0.181211
v 0.198372 0.534859 -0.179494
v 0.198329 0.549950 -0.196382
v 0.060248 0.546016 0.332679
v 0.066124 0.534865 0.347363
v -0.066124 0.534865 0.347363
v -0.060248 0.546016 0.332679
v 0.192500 0.549776 -0.367751
v -0.192500 0.549776 -0.367751
v -0.154000 1.049789 -0.399310
v 0.154000 1.049789 -0.399310
v 0.192500 1.049789 -0.367751
v -0.192500 1.049789 -0.367751
v -0.192500 0.549776 -0.289002
v 0.192500 0.549776 -0.289002
v -0.141167 0.549776 -0.249310
v 0.141167 0.549776 -0.249310
v 0.154000 1.069789 -0.293488
v 0.123200 1.069789 -0.268747
v -0.123200 1.069789 -0.268747
v -0.154000 1.069789 -0.293488
v 0.123200 1.069789 -0.384775
v -0.123200 1.069789 -0.384775
v 0.154000 1.069789 -0.359528
v -0.154000 1.069789 -0.359528
vn 0.5006 -0.6136 -0.6107
vn 0.3800 0.5085 0.7727
vn -0.8377 -0.5429 0.0596
vn 0.8377 -0.5429 0.0596
vn -0.6251 -0.6428 0.4428
vn 0.8958 -0.2056 -0.3940
vn 0.6251 -0.6428 0.4428
vn -0.0000 -0.7465 0.6654
vn -0.4096 -0.7101 -0.5727
vn -0.0000 0.0091 -1.0000
vn -0.0000 -0.5605 -0.8282
vn -0.0000 -1.0000 -0.0000
vn -0.0000 0.1417 0.9899
vn -0.7734 0.3192 0.5477
vn 0.7734 0.3192 0.5477
vn 0.9998 -0.0192 -0.0000
vn -0.9939 0.0842 0.0707
vn 0.8508 0.3689 -0.3742
vn -0.8508 0.3689 -0.3742
vn -0.0000 0.2677 -0.9635
vn -0.0000 0.8495 -0.5277
vn 0.8466 0.5291 -0.0578
vn -0.3800 0.5085 0.7727
vn -0.0000 0.4695 0.8829
vn -0.6695 0.6695 -0.3216
vn -0.8466 0.5291 -0.0578
vn 0.6695 0.6695 -0.3216
vn -0.5006 -0.6136 -0.6107
vn 0.4610 0.8874 -0.0000
vn 0.8723 -0.4891 -0.0000
vn 0.5976 0.5986 0.5334
vn -0.5976 0.5986 0.5334
vn -0.7517 0.6573 0.0535
vn 0.7392 0.6715 0.0517
vn -0.5247 0.7659 0.3716
vn 0.5507 0.7350 0.3957
vn -0.0000 0.7964 0.6048
vn -0.8094 -0.1277 0.5732
vn -0.9926 -0.0987 0.0706
vn 0.1262 0.9879 -0.0897
vn 0.2333 0.9724 -0.0085
vn -0.5702 -0.1982 -0.7972
vn -0.0000 1.0000 -0.0033
vn 0.0578 0.9914 0.1176
vn -0.0000 0.9532 0.3023
vn -0.1920 0.9813 -0.0131
vn 0.9926 -0.0987 0.0706
vn 0.8094 -0.1277 0.5732
vn -0.0960 0.9938 -0.0570
vn -0.0578 0.9914 0.1176
vn 0.8547 -0.4882 -0.1762
vn -0.0000 0.9957 -0.0928
vn -0.0000 -0.1697 0.9855
vn -0.8723 -0.4891 -0.0000
vn 0.6340 -0.0000 -0.7734
vn -0.6340 -0.0000 -0.7734
vn -0.0000 -0.0000 -1.0000
vn 1.0000 -0.0000 -0.0000
vn -1.0000 -0.0000 -0.0000
vn -0.6262 -0.0059 0.7796
vn 0.6262 -0.0059 0.7796
vn -0.0000 0.0099 1.0000
vn -0.0000 1.0000 -0.0000
vn -0.4610 0.8874 -0.0000
vn -0.0000 0.5879 -0.8089
vn 0.3428 0.8368 0.4268
vn -0.3455 0.8384 -0.4215
vn 0.3455 0.8384 -0.4215
vn -0.3428 0.8368 0.4268
vn -0.0000 0.5862 0.8102
vn 0.4096 -0.7101 -0.5727
vn -0.8958 -0.2056 -0.3940
vn 0.9939 0.0842 0.0707
vn -0.9998 -0.0192 -0.0000
vn -0.7392 0.6715 0.0517
vn 0.7517 0.6573 0.0535
vn -0.5507 0.7350 0.3957
vn 0.5247 0.7659 0.3716
vn 0.0960 0.9938 -0.0570
vn 0.1920 0.9813 -0.0131
vn -0.9870 -0.1184 -0.1083
vn -0.8664 -0.4905 -0.0938
vn -0.2333 0.9724 -0.0085
vn -0.1262 0.9879 -0.0897
vn 0.9870 -0.1184 -0.1083
vn 0.5749 -0.1530 -0.8038
vn -0.6117 -0.0078 0.7911
vn 0.6117 -0.0078 0.7911
vt 0.813500 0.242429
vt 0.841777 0.346410
vt 0.813500 0.349614
vt 0.955646 0.374527
vt 0.955646 0.511129
vt 0.918031 0.399120
vt 0.142872 0.271841
vt 0.205440 0.125543
vt 0.199621 0.238139
vt 0.533839 0.271841
vt 0.471272 0.125543
vt 0.524105 0.083480
vt 0.082114 0.730299
vt 0.071588 0.796533
vt 0.007449 0.783182
vt 0.525466 0.031911
vt 0.469152 0.033049
vt 0.082114 0.902448
vt 0.071588 0.836214
vt 0.116220 0.867826
vt 0.007449 0.849564
vt 0.151246 0.031911
vt 0.152606 0.083480
vt 0.574486 0.675693
vt 0.521454 0.732658
vt 0.508104 0.675693
vt 0.376938 0.796593
vt 0.249093 0.675369
vt 0.376938 0.730211
vt 0.684160 0.007449
vt 0.798603 0.306309
vt 0.684160 0.306309
vt 0.907904 0.826450
vt 0.830842 0.946388
vt 0.868223 0.826450
vt 0.195785 0.280621
vt 0.316736 0.305411
vt 0.477090 0.238139
vt 0.480926 0.280621
vt 0.359975 0.305411
vt 0.345804 0.007449
vt 0.207560 0.033049
vt 0.330907 0.007449
vt 0.561135 0.732658
vt 0.484074 0.855285
vt 0.391835 0.675369
vt 0.445188 0.675369
vt 0.418512 0.866893
vt 0.697687 0.461642
vt 0.815945 0.562440
vt 0.697046 0.605397
vt 0.868604 0.431225
vt 0.830842 0.455593
vt 0.815304 0.707410
vt 0.697046 0.808208
vt 0.815945 0.620295
vt 0.815945 0.851165
vt 0.697046 0.374527
vt 0.856674 0.346410
vt 0.884951 0.242429
vt 0.884951 0.349614
vt 0.831538 0.227532
vt 0.874190 0.205523
vt 0.878719 0.227532
vt 0.911292 0.156961
vt 0.951091 0.028304
vt 0.971151 0.038815
vt 0.659877 0.062327
vt 0.650866 0.064183
vt 0.659014 0.054178
vt 0.017697 0.054178
vt 0.025845 0.064183
vt 0.016835 0.062327
vt 0.007449 0.272860
vt 0.014759 0.278696
vt 0.669263 0.272860
vt 0.086382 0.382804
vt 0.022797 0.459545
vt 0.083023 0.374527
vt 0.155263 0.382804
vt 0.218847 0.459545
vt 0.212875 0.464564
vt 0.158622 0.374527
vt 0.136455 0.342908
vt 0.028770 0.464564
vt 0.094146 0.403749
vt 0.056212 0.488732
vt 0.046412 0.632134
vt 0.015218 0.676477
vt 0.234196 0.685148
vt 0.040125 0.715401
vt 0.091353 0.654232
vt 0.226426 0.676477
vt 0.150291 0.654232
vt 0.195233 0.632134
vt 0.185433 0.488732
vt 0.661952 0.278696
vt 0.540256 0.342908
vt 0.147499 0.403749
vt 0.657662 0.023804
vt 0.131117 0.730299
vt 0.202108 0.858973
vt 0.135726 0.858973
vt 0.633473 0.696548
vt 0.673272 0.825205
vt 0.613413 0.707059
vt 0.660140 0.376205
vt 0.682148 0.659117
vt 0.660140 0.660795
vt 0.970543 0.374527
vt 0.992551 0.660795
vt 0.970543 0.659117
vt 0.484074 0.376205
vt 0.484074 0.660795
vt 0.875774 0.811394
vt 0.830842 0.526192
vt 0.877943 0.526027
vt 0.895009 0.811394
vt 0.939941 0.526192
vt 0.939941 0.811553
vt 0.469176 0.660472
vt 0.447168 0.374527
vt 0.469176 0.374635
vt 0.271102 0.374527
vt 0.249093 0.660472
vt 0.249093 0.374635
vt 0.278438 0.660334
vt 0.739691 0.350550
vt 0.717005 0.350550
vt 0.739691 0.321206
vt 0.702108 0.358297
vt 0.684160 0.344422
vt 0.702108 0.321206
vt 0.822015 0.187917
vt 0.836445 0.029457
vt 0.888331 0.047064
vt 0.831538 0.007449
vt 0.874190 0.029457
vt 0.234196 0.906365
vt 0.222040 0.747905
vt 0.234196 0.730299
vt 0.896395 0.205523
vt 0.888331 0.187917
vt 0.813500 0.029457
vt 0.822015 0.047064
vt 0.813500 0.205523
vt 0.836445 0.205523
vt 0.896395 0.029457
vt 0.878719 0.007449
vt 0.922675 0.171859
vt 0.911292 0.330318
vt 0.911292 0.189465
vt 0.116220 0.764921
vt 0.249093 0.851435
vt 0.798603 0.007449
vt 0.945285 0.946388
vt 0.598516 0.855285
vt 0.911292 0.007449
vt 0.007449 0.359630
vt 0.019050 0.023804
vt 0.010781 0.715401
vt 0.007449 0.685148
vt 0.230864 0.715401
vt 0.201519 0.715401
vt 0.669263 0.359630
vt 0.206716 0.730299
vt 0.673272 0.675693
vt 0.682148 0.374527
vt 0.992551 0.376205
vt 0.830842 0.811553
vt 0.892840 0.526027
vt 0.439832 0.660334
vt 0.222040 0.888758
vt 0.922675 0.347925
s 0
f 5/1/1 8/2/1 52/3/1
f 13/4/2 31/5/2 15/6/2
f 1/7/3 20/8/3 19/9/3
f 3/10/4 22/11/4 4/12/4
f 1/13/5 25/14/5 9/15/5
f 5/16/6 22/11/6 23/17/6
f 3/18/7 26/19/7 21/20/7
f 9/15/8 26/19/8 10/21/8
f 6/22/9 20/8/9 2/23/9
f 5/24/10 24/25/10 6/26/10
f 6/27/11 8/28/11 5/29/11
f 29/30/12 27/31/12 28/32/12
f 25/33/13 29/34/13 26/35/13
f 25/36/14 19/9/14 30/37/14
f 21/38/15 26/39/15 29/40/15
f 22/11/16 29/40/16 28/41/16
f 20/8/17 30/37/17 19/9/17
f 23/17/18 22/11/18 28/41/18
f 20/8/19 24/42/19 27/43/19
f 23/44/20 27/45/20 24/25/20
f 18/46/21 17/47/21 31/48/21
f 14/49/22 31/50/22 13/51/22
f 16/52/23 31/5/23 11/53/23
f 15/6/24 31/5/24 16/52/24
f 12/54/25 31/55/25 17/56/25
f 11/57/26 31/55/26 12/54/26
f 18/58/27 31/50/27 14/49/27
f 7/59/28 6/60/28 53/61/28
f 56/62/29 62/63/29 34/64/29
f 5/65/30 59/66/30 35/67/30
f 45/68/31 46/69/31 47/70/31
f 42/71/32 40/72/32 41/73/32
f 39/74/33 40/72/33 38/75/33
f 43/76/34 46/69/34 45/68/34
f 51/77/35 38/78/35 50/79/35
f 48/80/36 44/81/36 43/82/36
f 51/77/37 49/83/37 48/80/37
f 9/84/38 38/75/38 1/7/38
f 38/75/39 2/23/39 1/7/39
f 39/85/40 18/86/40 14/87/40
f 39/85/41 13/88/41 41/89/41
f 42/71/42 6/22/42 2/23/42
f 41/89/43 47/90/43 60/91/43
f 41/89/44 13/88/44 15/92/44
f 45/93/45 15/92/45 16/94/45
f 43/82/46 11/95/46 12/96/46
f 4/12/47 44/97/47 3/10/47
f 44/97/48 10/98/48 3/10/48
f 43/82/49 17/99/49 48/80/49
f 11/95/50 45/93/50 16/94/50
f 46/69/51 5/16/51 35/100/51
f 48/80/52 18/86/52 51/77/52
f 49/101/53 9/102/53 10/103/53
f 58/104/54 6/105/54 32/106/54
f 55/107/55 52/108/55 8/109/55
f 57/110/56 7/111/56 53/112/56
f 54/113/57 8/109/57 7/114/57
f 59/115/58 56/116/58 34/117/58
f 58/118/59 57/119/59 53/120/59
f 58/121/60 37/122/60 33/123/60
f 36/124/61 59/125/61 34/126/61
f 37/122/62 61/127/62 36/124/62
f 35/128/63 59/129/63 61/130/63
f 58/131/63 32/132/63 60/133/63
f 66/134/63 69/135/63 64/136/63
f 57/137/64 65/138/64 69/135/64
f 54/139/65 66/140/65 55/141/65
f 36/142/66 62/63/66 63/143/66
f 54/144/67 69/135/67 67/145/67
f 55/146/68 68/147/68 56/62/68
f 37/148/69 65/138/69 33/149/69
f 37/150/70 63/151/70 64/152/70
f 1/7/3 2/23/3 20/8/3
f 3/10/4 21/38/4 22/11/4
f 1/13/5 19/153/5 25/14/5
f 5/16/71 4/12/71 22/11/71
f 3/18/7 10/21/7 26/19/7
f 9/15/8 25/14/8 26/19/8
f 6/22/72 24/42/72 20/8/72
f 5/24/10 23/44/10 24/25/10
f 6/27/11 7/154/11 8/28/11
f 29/30/12 30/155/12 27/31/12
f 25/33/13 30/156/13 29/34/13
f 22/11/73 21/38/73 29/40/73
f 20/8/74 27/43/74 30/37/74
f 23/44/20 28/157/20 27/45/20
f 56/62/29 68/147/29 62/63/29
f 5/65/30 52/158/30 59/66/30
f 39/74/75 41/73/75 40/72/75
f 43/76/76 44/97/76 46/69/76
f 51/77/77 39/85/77 38/78/77
f 48/80/78 49/83/78 44/81/78
f 51/77/37 50/79/37 49/83/37
f 9/84/38 50/159/38 38/75/38
f 38/75/39 40/72/39 2/23/39
f 39/85/79 51/77/79 18/86/79
f 39/85/80 14/87/80 13/88/80
f 2/23/81 40/72/81 42/71/81
f 42/71/82 32/160/82 6/22/82
f 32/161/43 42/162/43 41/89/43
f 41/89/43 45/93/43 47/90/43
f 47/90/43 35/163/43 61/164/43
f 60/91/43 32/161/43 41/89/43
f 47/90/43 61/164/43 60/91/43
f 45/93/45 41/89/45 15/92/45
f 43/82/83 45/93/83 11/95/83
f 4/12/47 46/69/47 44/97/47
f 44/97/48 49/165/48 10/98/48
f 43/82/84 12/96/84 17/99/84
f 35/100/85 47/70/85 46/69/85
f 46/69/86 4/12/86 5/16/86
f 48/80/52 17/99/52 18/86/52
f 49/101/53 50/166/53 9/102/53
f 58/104/54 53/167/54 6/105/54
f 55/107/55 56/168/55 52/108/55
f 57/110/56 54/169/56 7/111/56
f 54/113/57 55/107/57 8/109/57
f 59/115/58 52/170/58 56/116/58
f 58/118/59 33/171/59 57/119/59
f 58/121/87 60/172/87 37/122/87
f 36/124/88 61/127/88 59/125/88
f 37/122/62 60/172/62 61/127/62
f 64/136/63 63/143/63 62/63/63
f 62/63/63 68/147/63 66/134/63
f 66/134/63 67/145/63 69/135/63
f 69/135/63 65/138/63 64/136/63
f 64/136/63 62/63/63 66/134/63
f 57/137/64 33/149/64 65/138/64
f 54/139/65 67/173/65 66/140/65
f 36/142/66 34/64/66 62/63/66
f 54/144/67 57/137/67 69/135/67
f 55/146/68 66/134/68 68/147/68
f 37/148/69 64/136/69 65/138/69
f 37/150/70 36/174/70 63/151/70
