# Blender 5.0.1
# www.blender.org
mtllib CheapCabinet.mtl
o CheapCabinet
v -0.184846 0.045154 0.200000
v -0.200000 0.030000 -0.200000
v 0.184846 0.045154 0.200000
v 0.200000 0.030000 -0.200000
v -0.182007 0.000000 -0.158013
v -0.185007 0.033873 -0.155014
v -0.182007 0.000000 -0.182014
v -0.185007 0.033873 -0.185014
v -0.158007 0.000000 -0.158013
v -0.155007 0.033873 -0.155014
v -0.158007 0.000000 -0.182014
v -0.155007 0.033873 -0.185014
v 0.158031 0.000000 -0.158013
v 0.155031 0.033873 -0.155014
v 0.158031 0.000000 -0.182014
v 0.155031 0.033873 -0.185014
v 0.182031 0.000000 -0.158013
v 0.185031 0.033873 -0.155014
v 0.182031 0.000000 -0.182014
v 0.185031 0.033873 -0.185014
v -0.182007 0.000000 0.182032
v -0.185007 0.033873 0.185032
v -0.182007 0.000000 0.158032
v -0.185007 0.033873 0.155032
v -0.158007 0.000000 0.182032
v -0.155007 0.033873 0.185032
v -0.158007 0.000000 0.158032
v -0.155007 0.033873 0.155032
v 0.158031 0.000000 0.182032
v 0.155031 0.033873 0.185032
v 0.158031 0.000000 0.158032
v 0.155031 0.033873 0.155032
v 0.182031 0.000000 0.182032
v 0.185031 0.033873 0.185032
v 0.182031 0.000000 0.158032
v 0.185031 0.033873 0.155032
v -0.184846 0.644846 0.200000
v 0.184846 0.644846 0.200000
v 0.200000 0.659878 0.198440
v 0.200000 0.030000 0.200000
v -0.200000 0.030000 0.200000
v -0.200000 0.659878 0.198440
v 0.184846 0.644846 -0.183902
v 0.184846 0.045154 -0.183902
v -0.184846 0.045154 -0.183902
v -0.184846 0.644846 -0.183902
v -0.200000 0.679878 0.198440
v -0.200000 0.679878 -0.201560
v 0.200000 0.679878 0.198440
v 0.200000 0.679878 -0.201560
v -0.200000 0.659878 -0.201560
v 0.200000 0.659878 -0.201560
v 0.200000 0.659878 0.218440
v 0.200000 0.679878 0.218440
v -0.200000 0.679878 0.218440
v -0.200000 0.659878 0.218440
v -0.193220 0.406233 0.176476
v 0.193220 0.406233 0.176476
v -0.193220 0.406233 -0.193220
v 0.193220 0.406233 -0.193220
v -0.193220 0.426233 0.176476
v 0.193220 0.426233 0.176476
v -0.193220 0.426233 -0.193220
v 0.193220 0.426233 -0.193220
vn -0.0000 -1.0000 -0.0000
vn -0.9961 -0.0882 -0.0000
vn -0.0000 -0.0882 -0.9961
vn 0.9961 -0.0882 -0.0000
vn -0.0000 -0.0882 0.9961
vn -1.0000 -0.0000 -0.0000
vn -0.0000 -0.0025 -1.0000
vn 1.0000 -0.0000 -0.0000
vn -0.0000 -0.0000 1.0000
vn -0.0000 1.0000 -0.0000
vn -0.0000 -0.0000 -1.0000
vn -0.0000 0.1032 0.9947
vn 0.0025 0.0025 1.0000
vn -0.1024 -0.0000 0.9947
vn 0.1024 -0.0000 0.9947
vn -0.0025 0.0025 1.0000
vt 0.187500 0.656250
vt 0.375000 0.468750
vt 0.375000 0.656250
vt 0.812500 0.937500
vt 0.750000 0.875000
vt 0.812500 0.875000
vt 0.750000 0.937500
vt 0.687500 0.875000
vt 0.937500 0.937500
vt 0.875000 0.875000
vt 0.937500 0.875000
vt 0.875000 0.937500
vt 1.000000 0.875000
vt 1.000000 0.500000
vt 0.812500 0.187500
vt 1.000000 0.187500
vt 0.375000 0.968750
vt 0.562500 0.968750
vt 0.562500 0.656250
vt -0.000000 0.968750
vt -0.000000 0.656250
vt 0.187500 0.687500
vt 0.375000 0.687500
vt 0.437500 0.187500
vt 0.625000 0.500000
vt 0.437500 0.500000
vt 0.812500 0.500000
vt 0.625000 0.187500
vt 0.625000 0.687500
vt 0.812500 0.687500
vt 0.812500 0.000000
vt 0.625000 0.000000
vt 0.562500 1.000000
vt 0.375000 1.000000
vt 0.187500 0.968750
vt 0.187500 1.000000
vt 0.562500 0.625000
vt 0.187500 0.468750
vt -0.000000 0.468750
vt 0.593750 1.000000
vt 0.593750 0.968750
vt 0.562500 0.937500
vt 0.593750 0.937500
vt 0.375000 0.625000
vt 0.562500 0.593750
vt 0.562500 0.562500
vt 0.375000 0.593750
vt 0.375000 0.562500
vt 0.375000 0.937500
vt 0.187500 0.937500
vt 0.531250 0.656250
vt 0.031250 0.656250
vt 0.031250 0.968750
vt 0.625000 0.312500
vt 0.625000 0.375000
vt 0.812500 0.312500
vt 0.625000 0.343750
vt 0.687500 0.937500
vt 1.000000 0.937500
vt -0.000000 1.000000
vt 0.531250 0.968750
vt 0.812500 0.375000
vt 0.812500 0.343750
s 0
usemtl CheapCabinet
f 4/1/1 41/2/1 2/3/1
f 6/4/2 7/5/2 5/6/2
f 8/7/3 11/8/3 7/5/3
f 12/9/4 9/10/4 11/11/4
f 10/12/5 5/6/5 9/10/5
f 11/13/1 5/9/1 7/11/1
f 14/4/2 15/5/2 13/6/2
f 16/7/3 19/8/3 15/5/3
f 20/9/4 17/10/4 19/11/4
f 18/12/5 13/6/5 17/10/5
f 19/13/1 13/9/1 15/11/1
f 22/4/2 23/5/2 21/6/2
f 24/7/3 27/8/3 23/5/3
f 28/9/4 25/10/4 27/11/4
f 26/12/5 21/6/5 25/10/5
f 27/13/1 21/9/1 23/11/1
f 30/4/2 31/5/2 29/6/2
f 32/7/3 35/8/3 31/5/3
f 36/9/4 33/10/4 35/11/4
f 34/12/5 29/6/5 33/10/5
f 35/13/1 29/9/1 31/11/1
f 38/14/6 44/15/6 3/16/6
f 51/17/7 4/1/7 2/3/7
f 42/18/6 2/3/6 41/19/6
f 4/1/8 39/20/8 40/21/8
f 1/22/9 40/3/9 3/23/9
f 1/24/8 46/25/8 37/26/8
f 43/27/9 45/28/9 44/15/9
f 37/29/1 43/27/1 38/30/1
f 3/31/10 45/28/10 1/32/10
f 47/33/6 51/17/6 42/18/6
f 48/34/11 52/35/11 51/17/11
f 50/36/8 39/20/8 52/35/8
f 39/3/1 56/37/1 42/19/1
f 48/38/10 49/21/10 50/39/10
f 42/18/6 55/40/6 47/33/6
f 49/41/8 53/42/8 39/43/8
f 53/44/9 55/45/9 56/37/9
f 47/46/10 54/47/10 49/48/10
f 38/49/12 42/35/12 37/50/12
f 39/18/13 3/51/13 40/19/13
f 42/20/14 1/52/14 37/53/14
f 59/54/1 58/27/1 57/25/1
f 62/15/10 63/55/10 61/28/10
f 58/56/9 61/57/9 57/54/9
f 4/1/1 40/38/1 41/2/1
f 6/4/2 8/7/2 7/5/2
f 8/7/3 12/58/3 11/8/3
f 12/9/4 10/12/4 9/10/4
f 10/12/5 6/4/5 5/6/5
f 11/13/1 9/59/1 5/9/1
f 14/4/2 16/7/2 15/5/2
f 16/7/3 20/58/3 19/8/3
f 20/9/4 18/12/4 17/10/4
f 18/12/5 14/4/5 13/6/5
f 19/13/1 17/59/1 13/9/1
f 22/4/2 24/7/2 23/5/2
f 24/7/3 28/58/3 27/8/3
f 28/9/4 26/12/4 25/10/4
f 26/12/5 22/4/5 21/6/5
f 27/13/1 25/59/1 21/9/1
f 30/4/2 32/7/2 31/5/2
f 32/7/3 36/58/3 35/8/3
f 36/9/4 34/12/4 33/10/4
f 34/12/5 30/4/5 29/6/5
f 35/13/1 33/59/1 29/9/1
f 38/14/6 43/27/6 44/15/6
f 51/17/7 52/35/7 4/1/7
f 42/18/6 51/17/6 2/3/6
f 4/1/8 52/35/8 39/20/8
f 1/22/9 41/1/9 40/3/9
f 1/24/8 45/28/8 46/25/8
f 43/27/9 46/25/9 45/28/9
f 37/29/1 46/25/1 43/27/1
f 3/31/10 44/15/10 45/28/10
f 47/33/6 48/34/6 51/17/6
f 48/34/11 50/36/11 52/35/11
f 50/36/8 49/60/8 39/20/8
f 39/3/1 53/44/1 56/37/1
f 48/38/10 47/1/10 49/21/10
f 42/18/6 56/41/6 55/40/6
f 49/41/8 54/18/8 53/42/8
f 53/44/9 54/47/9 55/45/9
f 47/46/10 55/45/10 54/47/10
f 38/49/12 39/17/12 42/35/12
f 39/18/15 38/61/15 3/51/15
f 42/20/16 41/21/16 1/52/16
f 59/54/1 60/56/1 58/27/1
f 62/15/10 64/62/10 63/55/10
f 58/56/9 62/63/9 61/57/9
