# Blender 5.0.1
# www.blender.org
mtllib BrokenSmallCardboardBoxFlat.mtl
o BrokenSmallCardboardBoxFlat
v -0.113553 -0.006008 0.077091
v -0.117523 0.076396 0.077285
v -0.103660 0.009545 -0.088320
v -0.106777 0.080186 -0.090705
v 0.111040 0.000804 0.085133
v 0.108556 0.074122 0.091319
v 0.092185 0.002479 -0.080965
v 0.115806 0.087558 -0.081341
v -0.114588 -0.003272 -0.057586
v -0.107102 -0.000602 0.006929
v -0.117420 -0.013543 0.045673
v -0.109666 0.087435 0.029940
v -0.119225 0.096257 -0.019738
v -0.106654 0.075526 -0.030462
v 0.040074 -0.012721 -0.074647
v 0.012097 -0.009677 -0.078238
v -0.067133 0.006267 -0.078609
v -0.052971 0.083361 -0.084289
v 0.009048 0.090642 -0.078972
v 0.058338 0.081110 -0.089007
v 0.104948 0.001037 0.040864
v 0.109223 0.008471 -0.009200
v 0.101593 -0.002539 -0.047569
v 0.094162 0.088276 -0.044226
v 0.105154 0.083209 -0.000070
v 0.110383 0.068407 0.033906
v -0.043024 0.002857 0.087200
v -0.007087 0.003106 0.086282
v 0.047789 -0.000317 0.080294
v 0.055962 0.075866 0.064195
v 0.005235 0.088420 0.085082
v -0.057574 0.083192 0.093832
v -0.126639 0.011441 0.069410
v -0.110834 0.037182 0.070045
v -0.086087 0.066874 0.083335
v -0.103310 0.061078 -0.080635
v -0.109484 0.040457 -0.083369
v -0.122078 0.028536 -0.068283
v 0.102999 0.057478 -0.078165
v 0.106278 0.041974 -0.084587
v 0.094364 0.025109 -0.093307
v 0.107926 0.057457 0.073890
v 0.097098 0.048324 0.080141
v 0.105536 0.028353 0.088621
v 0.052716 0.014762 0.091930
v 0.002634 0.019587 0.087953
v -0.047035 0.036393 0.062720
v 0.059622 0.044618 0.077562
v 0.001655 0.036704 0.081011
v -0.031789 0.033483 0.077525
v 0.056750 0.053956 0.084706
v -0.006455 0.065857 0.083228
v -0.048841 0.068381 0.091992
v 0.052374 0.085002 -0.041637
v 0.038771 0.079951 0.009848
v 0.047925 0.080529 0.041441
v -0.009047 0.066578 -0.038573
v -0.001694 0.082553 -0.001075
v 0.023296 0.090693 0.044407
v -0.069384 0.065973 -0.027571
v -0.063695 0.080864 0.010109
v -0.050447 0.075585 0.039189
v -0.032913 -0.000424 -0.042978
v -0.057054 0.000932 -0.017344
v -0.061613 0.022422 0.044171
v 0.018287 -0.008486 -0.049145
v -0.013850 -0.004580 -0.009764
v -0.004509 -0.001889 0.067755
v 0.055867 -0.005161 -0.040350
v 0.058493 0.025288 0.008483
v 0.059144 0.015301 0.022887
v 0.109356 0.015074 -0.027624
v 0.109028 0.005566 0.000687
v 0.103141 0.017541 0.040808
v 0.112281 0.040518 -0.035330
v 0.105732 0.042797 0.001940
v 0.107584 0.034330 0.039882
v 0.104596 0.065145 -0.044583
v 0.116421 0.070246 -0.021967
v 0.098388 0.052595 0.034621
v -0.042044 0.017963 -0.081148
v -0.002201 0.016894 -0.082395
v 0.050116 0.037980 -0.088619
v -0.053578 0.045401 -0.078253
v 0.009172 0.036472 -0.099072
v 0.055866 0.047328 -0.082402
v -0.064698 0.068557 -0.065531
v 0.005795 0.066447 -0.086013
v 0.052533 0.062282 -0.084062
v -0.104355 0.023349 0.021010
v -0.105479 0.019195 -0.000674
v -0.105888 0.026200 -0.027596
v -0.111755 0.056157 0.039286
v -0.093735 0.040359 0.017898
v -0.111340 0.041830 -0.042694
v -0.115236 0.066248 0.046858
v -0.107541 0.065196 0.003980
v -0.094769 0.052566 -0.029477
vn -0.8870 -0.4561 0.0722
vn 0.0854 -0.2776 -0.9569
vn 0.7887 -0.6036 -0.1168
vn -0.1785 -0.9399 -0.2910
vn -0.0714 0.9866 -0.1467
vn -0.2104 -0.2417 0.9473
vn -0.1862 0.5647 0.8040
vn 0.1124 -0.0935 0.9893
vn -0.1043 -0.3326 0.9373
vn -0.0505 -0.5997 0.7986
vn 0.0974 -0.1571 0.9828
vn 0.0165 0.5908 0.8067
vn -0.0582 0.4438 0.8942
vn -0.0376 0.3737 0.9268
vn -0.4302 -0.8602 0.2739
vn 0.0053 -0.6066 0.7950
vn 0.1269 -0.5778 0.8062
vn -0.0935 -0.1013 0.9905
vn 0.1064 0.6816 0.7240
vn -0.0353 -0.0637 0.9973
vn 0.1891 -0.1774 0.9658
vn 0.0825 0.9919 -0.0961
vn 0.3863 0.9209 0.0523
vn -0.1983 0.9796 -0.0333
vn -0.1009 0.9918 -0.0780
vn -0.0694 0.9890 0.1308
vn 0.2195 0.9063 0.3611
vn 0.1781 0.9823 -0.0583
vn 0.0351 0.9937 0.1068
vn 0.3659 0.9225 -0.1229
vn -0.1423 0.8771 0.4587
vn -0.0781 0.9226 -0.3778
vn -0.1957 0.9783 -0.0676
vn -0.0886 0.9592 0.2684
vn 0.2569 0.8849 -0.3885
vn 0.1810 0.9789 0.0953
vn 0.5394 -0.8315 0.1330
vn -0.2652 -0.9157 -0.3018
vn -0.0323 -0.9661 0.2560
vn 0.0179 -0.9250 -0.3794
vn 0.0479 -0.9982 0.0358
vn 0.5340 -0.8344 -0.1365
vn -0.1973 -0.9803 0.0054
vn -0.1165 -0.9915 -0.0572
vn -0.1741 -0.9336 0.3132
vn -0.1162 -0.9911 0.0653
vn 0.2895 -0.9001 0.3255
vn 0.2620 -0.9651 0.0019
vn 0.2878 -0.9545 0.0779
vn -0.0944 -0.8425 0.5304
vn -0.4248 -0.7528 -0.5028
vn 0.9850 0.1073 -0.1350
vn 0.9668 -0.2553 0.0093
vn 0.7148 -0.5816 0.3883
vn 0.9213 -0.2508 -0.2972
vn 0.9477 -0.3026 -0.1016
vn 0.9890 0.1086 0.1006
vn 0.8468 -0.4618 -0.2638
vn 0.9954 0.0868 0.0407
vn 0.9892 0.0835 0.1202
vn 0.9622 0.2490 -0.1099
vn 0.9595 -0.2153 0.1818
vn 0.8845 0.4626 0.0601
vn 0.9209 -0.3873 0.0446
vn 0.7893 0.3637 -0.4947
vn 0.9143 0.1981 0.3532
vn -0.0419 -0.2577 -0.9653
vn 0.0630 0.5256 -0.8484
vn 0.0006 0.3828 -0.9238
vn 0.2199 0.8009 -0.5569
vn -0.0269 -0.1566 -0.9873
vn 0.0920 -0.2814 -0.9552
vn -0.2031 -0.6786 -0.7058
vn -0.0412 -0.6339 -0.7723
vn 0.2007 -0.7002 -0.6852
vn 0.0812 0.1070 -0.9909
vn -0.2463 0.3636 -0.8984
vn 0.3419 -0.0281 -0.9393
vn 0.3997 -0.3695 -0.8389
vn -0.2199 -0.6942 -0.6854
vn 0.0642 0.2709 -0.9605
vn -0.8307 -0.3431 -0.4384
vn -0.9279 0.0349 0.3712
vn -0.9546 0.2929 -0.0535
vn -0.8245 -0.5189 0.2259
vn -0.9588 0.2174 -0.1827
vn -0.9778 0.1808 0.1060
vn -0.8217 0.5108 -0.2527
vn -0.8515 0.5214 -0.0558
vn -0.9086 0.4006 0.1180
vn -0.9628 -0.2419 -0.1204
vn -0.7852 -0.5709 -0.2399
vn -0.6419 0.7391 0.2044
vn -0.3270 -0.9036 0.2768
vn -0.9773 0.1146 -0.1782
vn -0.8738 -0.4592 -0.1602
vn -0.9827 -0.1848 -0.0123
vn 0.1487 -0.1662 -0.9748
vn 0.9961 -0.0790 0.0396
vn 0.0183 -0.9998 -0.0078
vn 0.1526 0.9566 0.2484
vn -0.2410 -0.1910 0.9515
vn -0.0404 0.3770 0.9253
vn -0.0308 -0.9863 -0.1621
vn -0.1846 -0.4520 0.8727
vn 0.0897 -0.1074 0.9902
vn -0.1199 -0.5816 0.8046
vn -0.4074 0.1489 0.9010
vn -0.0990 0.3532 0.9303
vn -0.0058 0.4347 0.9005
vn -0.1313 0.3661 0.9213
vn 0.1598 0.4215 0.8926
vn -0.0396 -0.0867 0.9954
vn 0.1757 -0.3025 0.9368
vn -0.3584 -0.6683 0.6519
vn 0.4242 0.6270 0.6534
vn 0.1411 -0.0397 0.9892
vn 0.2037 0.9708 0.1270
vn 0.3086 0.9322 0.1891
vn -0.1028 0.9833 -0.1503
vn -0.0834 0.9923 -0.0920
vn -0.0357 0.9955 0.0882
vn -0.0496 0.9988 -0.0039
vn -0.2425 0.8774 0.4140
vn -0.2864 0.9004 -0.3275
vn 0.1272 0.9619 -0.2420
vn 0.0461 0.9513 0.3050
vn -0.0893 0.9308 -0.3544
vn 0.0050 0.9843 0.1764
vn 0.2422 0.9674 0.0743
vn 0.4984 0.6172 -0.6089
vn 0.1969 0.9712 0.1346
vn 0.1760 -0.8652 -0.4695
vn 0.0134 -0.9650 0.2620
vn 0.0878 -0.9655 -0.2453
vn 0.0796 -0.9630 -0.2573
vn 0.0217 -0.9971 0.0732
vn 0.1914 -0.9221 0.3363
vn -0.1467 -0.9866 0.0716
vn -0.1592 -0.9867 -0.0321
vn -0.4188 -0.9044 0.0819
vn 0.0405 -0.9795 0.1973
vn -0.0492 -0.8463 0.5304
vn 0.4345 -0.7309 -0.5264
vn 0.0318 -0.9870 -0.1573
vn 0.0957 -0.9617 0.2569
vn -0.2347 -0.9584 -0.1623
vn 0.9738 0.2066 -0.0955
vn 0.9033 0.4196 0.0894
vn 0.8901 0.3726 -0.2623
vn 0.9589 -0.1490 -0.2416
vn 0.9791 0.1890 0.0748
vn -0.9746 -0.2090 -0.0806
vn 0.9808 -0.1503 -0.1240
vn 0.9825 -0.0595 0.1763
vn 0.9600 -0.2598 -0.1048
vn 0.9599 0.2600 -0.1050
vn 0.8736 0.0931 -0.4777
vn 0.9548 -0.1467 0.2585
vn 0.8096 0.3580 0.4652
vn 0.6769 0.7312 -0.0846
vn 0.7344 -0.5735 -0.3629
vn -0.2226 -0.4502 -0.8647
vn 0.0096 0.4539 -0.8910
vn 0.1076 -0.0860 -0.9905
vn -0.1453 0.0980 -0.9845
vn -0.0355 -0.1731 -0.9843
vn -0.0452 -0.1781 -0.9830
vn 0.0782 0.1371 -0.9875
vn -0.3191 -0.0342 -0.9471
vn 0.2051 0.4515 -0.8684
vn 0.2111 0.5466 -0.8103
vn -0.2487 0.3719 -0.8943
vn 0.0741 0.4053 -0.9112
vn 0.1159 -0.8136 -0.5697
vn 0.0503 0.2728 -0.9608
vn -0.2296 -0.1804 -0.9564
vn -0.9267 -0.0961 0.3633
vn -0.7210 0.6906 -0.0562
vn -0.6514 0.7234 0.2291
vn -0.9119 0.0506 -0.4074
vn -0.9950 0.0944 0.0334
vn -0.9945 0.0971 0.0404
vn -0.9810 -0.1768 -0.0797
vn -0.6336 0.2625 -0.7277
vn -0.9586 -0.0669 0.2769
vn -0.7341 0.3520 0.5806
vn -0.9639 -0.2065 -0.1679
vn -0.8381 -0.5325 -0.1189
vn -0.9795 0.1570 -0.1260
vn -0.9572 -0.2539 0.1391
vn -0.8784 -0.4510 -0.1579
vt 0.093750 0.125000
vt 0.031250 0.093750
vt 0.093750 0.093750
vt 0.421875 0.562500
vt 0.343750 0.531250
vt 0.421875 0.531250
vt 0.343750 0.437500
vt 0.421875 0.375000
vt 0.421875 0.437500
vt 0.078125 0.781250
vt 0.000000 0.718750
vt 0.078125 0.718750
vt 0.421875 0.125000
vt 0.343750 0.093750
vt 0.421875 0.093750
vt 0.421875 0.031250
vt 0.343750 0.000000
vt 0.421875 0.000000
vt 0.343750 0.062500
vt 0.343750 0.031250
vt 0.421875 0.062500
vt 0.656250 0.000000
vt 0.578125 0.031250
vt 0.578125 0.000000
vt 0.500000 0.031250
vt 0.500000 0.000000
vt 0.656250 0.031250
vt 0.578125 0.062500
vt 0.500000 0.062500
vt 0.656250 0.062500
vt 0.578125 0.093750
vt 0.500000 0.093750
vt 0.656250 0.093750
vt 0.578125 0.125000
vt 0.500000 0.125000
vt 0.312500 0.781250
vt 0.234375 0.718750
vt 0.312500 0.718750
vt 0.156250 0.781250
vt 0.234375 0.781250
vt 0.156250 0.718750
vt 0.234375 0.968750
vt 0.312500 0.906250
vt 0.312500 0.968750
vt 0.234375 0.906250
vt 0.312500 0.843750
vt 0.156250 0.968750
vt 0.156250 0.843750
vt 0.234375 0.843750
vt 0.078125 0.968750
vt 0.156250 0.906250
vt 0.078125 0.906250
vt 0.000000 0.968750
vt 0.000000 0.906250
vt 0.078125 0.843750
vt 0.000000 0.781250
vt 0.578125 0.437500
vt 0.656250 0.375000
vt 0.656250 0.437500
vt 0.500000 0.437500
vt 0.578125 0.375000
vt 0.500000 0.375000
vt 0.578125 0.625000
vt 0.656250 0.562500
vt 0.656250 0.625000
vt 0.578125 0.500000
vt 0.656250 0.500000
vt 0.500000 0.625000
vt 0.578125 0.562500
vt 0.500000 0.500000
vt 0.421875 0.625000
vt 0.500000 0.562500
vt 0.421875 0.500000
vt 0.343750 0.625000
vt 0.343750 0.500000
vt 0.093750 0.031250
vt 0.031250 0.000000
vt 0.093750 0.000000
vt 0.093750 0.062500
vt 0.031250 0.031250
vt 0.031250 0.062500
vt 0.281250 0.031250
vt 0.218750 0.000000
vt 0.281250 0.000000
vt 0.218750 0.031250
vt 0.156250 0.000000
vt 0.281250 0.062500
vt 0.156250 0.062500
vt 0.156250 0.031250
vt 0.281250 0.093750
vt 0.218750 0.062500
vt 0.156250 0.093750
vt 0.281250 0.125000
vt 0.218750 0.093750
vt 0.218750 0.125000
vt 0.156250 0.125000
vt 0.421875 0.468750
vt 0.421875 0.500000
vt 0.343750 0.468750
vt 0.656250 0.468750
vt 0.578125 0.468750
vt 0.500000 0.437500
vt 0.656250 0.500000
vt 0.500000 0.500000
vt 0.500000 0.468750
vt 0.656250 0.531250
vt 0.578125 0.500000
vt 0.500000 0.531250
vt 0.578125 0.531250
vt 0.093750 0.062500
vt 0.281250 0.062500
vt 0.156250 0.062500
vt 0.156250 0.031250
vt 0.218750 0.062500
vt 0.156250 0.093750
vt 0.031250 0.125000
vt 0.343750 0.562500
vt 0.343750 0.375000
vt 0.343750 0.125000
vt 0.656250 0.125000
vt 0.000000 0.843750
vt 0.156250 0.125000
s 0
usemtl CardboardBox
f 14/1/1 36/2/1 98/3/1
f 20/4/2 39/5/2 89/6/2
f 26/1/3 42/2/3 80/3/3
f 21/7/4 29/8/4 71/9/4
f 62/10/5 2/11/5 32/12/5
f 32/13/6 35/14/6 53/15/6
f 47/16/7 1/17/7 27/18/7
f 47/16/8 34/19/8 33/20/8
f 50/21/9 35/14/9 34/19/9
f 5/22/10 45/23/10 29/24/10
f 29/24/11 46/25/11 28/26/11
f 28/26/12 47/16/12 27/18/12
f 44/27/13 48/28/13 45/23/13
f 45/23/14 49/29/14 46/25/14
f 46/25/15 50/21/15 47/16/15
f 43/30/16 51/31/16 48/28/16
f 51/31/17 49/29/17 48/28/17
f 52/32/18 50/21/18 49/29/18
f 42/33/19 30/34/19 51/31/19
f 51/31/20 31/35/20 52/32/20
f 31/35/21 53/15/21 52/32/21
f 26/36/22 30/37/22 6/38/22
f 59/39/23 30/37/23 56/40/23
f 62/10/24 31/41/24 59/39/24
f 20/42/25 24/43/25 8/44/25
f 54/45/26 25/46/26 24/43/26
f 25/46/27 56/40/27 26/36/27
f 19/47/28 54/45/28 20/42/28
f 54/45/29 58/48/29 55/49/29
f 55/49/30 59/39/30 56/40/30
f 18/50/31 57/51/31 19/47/31
f 60/52/32 58/48/32 57/51/32
f 58/48/33 62/10/33 59/39/33
f 4/53/34 60/52/34 18/50/34
f 14/54/35 61/55/35 60/52/35
f 61/55/36 12/56/36 62/10/36
f 65/57/37 1/58/37 11/59/37
f 68/60/38 27/61/38 65/57/38
f 68/60/39 29/8/39 28/62/39
f 17/63/40 9/64/40 3/65/40
f 9/64/41 64/66/41 10/67/41
f 10/67/42 65/57/42 11/59/42
f 16/68/43 63/69/43 17/63/43
f 63/69/44 67/70/44 64/66/44
f 67/70/45 65/57/45 64/66/45
f 15/71/46 66/72/46 16/68/46
f 66/72/47 70/73/47 67/70/47
f 67/70/48 71/9/48 68/60/48
f 7/74/49 69/4/49 15/71/49
f 69/4/50 22/75/50 70/73/50
f 22/75/51 71/9/51 70/73/51
f 74/76/52 5/77/52 21/78/52
f 77/79/53 44/80/53 74/76/53
f 77/79/54 42/2/54 43/81/54
f 41/82/55 23/83/55 7/84/55
f 72/85/56 22/86/56 23/83/56
f 22/86/57 74/76/57 21/78/57
f 40/87/58 72/85/58 41/82/58
f 72/85/59 76/88/59 73/89/59
f 76/88/60 74/76/60 73/89/60
f 39/90/61 75/91/61 40/87/61
f 75/91/62 79/92/62 76/88/62
f 76/88/63 80/3/63 77/79/63
f 8/93/64 78/94/64 39/90/64
f 24/95/65 79/92/65 78/94/65
f 25/96/66 80/3/66 79/92/66
f 83/97/67 7/7/67 15/9/67
f 86/98/68 41/99/68 83/97/68
f 86/98/69 39/5/69 40/75/69
f 38/100/70 17/57/70 3/59/70
f 81/101/71 16/102/71 17/57/71
f 16/102/72 83/97/72 15/9/72
f 37/103/73 81/101/73 38/100/73
f 81/101/74 85/104/74 82/105/74
f 85/104/75 83/97/75 82/105/75
f 36/106/76 84/107/76 37/103/76
f 84/107/77 88/108/77 85/104/77
f 85/104/78 89/6/78 86/98/78
f 4/64/79 87/109/79 36/106/79
f 18/69/80 88/108/80 87/109/80
f 19/72/81 89/6/81 88/108/81
f 9/78/82 38/80/82 3/77/82
f 95/110/83 38/80/83 92/76/83
f 95/110/84 36/2/84 37/81/84
f 33/82/85 11/83/85 1/84/85
f 90/85/86 10/86/86 11/83/86
f 10/86/87 92/76/87 9/78/87
f 34/111/88 90/85/88 33/82/88
f 90/85/89 94/112/89 91/113/89
f 94/112/90 92/76/90 91/113/90
f 34/111/91 96/94/91 93/114/91
f 93/114/92 97/115/92 94/112/92
f 94/112/93 98/3/93 95/110/93
f 2/93/94 96/94/94 35/90/94
f 12/95/95 97/115/95 96/94/95
f 97/115/96 14/1/96 98/3/96
f 14/1/97 4/116/97 36/2/97
f 20/4/98 8/117/98 39/5/98
f 26/1/99 6/116/99 42/2/99
f 21/7/100 5/118/100 29/8/100
f 62/10/101 12/56/101 2/11/101
f 32/13/102 2/119/102 35/14/102
f 47/16/103 33/20/103 1/17/103
f 47/16/104 50/21/104 34/19/104
f 50/21/105 53/15/105 35/14/105
f 5/22/106 44/27/106 45/23/106
f 29/24/107 45/23/107 46/25/107
f 28/26/108 46/25/108 47/16/108
f 44/27/109 43/30/109 48/28/109
f 45/23/110 48/28/110 49/29/110
f 46/25/111 49/29/111 50/21/111
f 43/30/112 42/33/112 51/31/112
f 51/31/113 52/32/113 49/29/113
f 52/32/114 53/15/114 50/21/114
f 42/33/115 6/120/115 30/34/115
f 51/31/116 30/34/116 31/35/116
f 31/35/117 32/13/117 53/15/117
f 26/36/118 56/40/118 30/37/118
f 59/39/119 31/41/119 30/37/119
f 62/10/120 32/12/120 31/41/120
f 20/42/121 54/45/121 24/43/121
f 54/45/122 55/49/122 25/46/122
f 25/46/123 55/49/123 56/40/123
f 19/47/124 57/51/124 54/45/124
f 54/45/125 57/51/125 58/48/125
f 55/49/126 58/48/126 59/39/126
f 18/50/127 60/52/127 57/51/127
f 60/52/128 61/55/128 58/48/128
f 58/48/129 61/55/129 62/10/129
f 4/53/130 14/54/130 60/52/130
f 14/54/131 13/121/131 61/55/131
f 61/55/132 13/121/132 12/56/132
f 65/57/133 27/61/133 1/58/133
f 68/60/134 28/62/134 27/61/134
f 68/60/135 71/9/135 29/8/135
f 17/63/136 63/69/136 9/64/136
f 9/64/137 63/69/137 64/66/137
f 10/67/138 64/66/138 65/57/138
f 16/68/139 66/72/139 63/69/139
f 63/69/140 66/72/140 67/70/140
f 67/70/141 68/60/141 65/57/141
f 15/71/142 69/4/142 66/72/142
f 66/72/143 69/4/143 70/73/143
f 67/70/144 70/73/144 71/9/144
f 7/74/145 23/117/145 69/4/145
f 69/4/146 23/117/146 22/75/146
f 22/75/147 21/7/147 71/9/147
f 74/76/148 44/80/148 5/77/148
f 77/79/149 43/81/149 44/80/149
f 77/79/150 80/3/150 42/2/150
f 41/82/151 72/85/151 23/83/151
f 72/85/152 73/89/152 22/86/152
f 22/86/153 73/89/153 74/76/153
f 40/87/154 75/91/154 72/85/154
f 72/85/155 75/91/155 76/88/155
f 76/88/156 77/79/156 74/76/156
f 39/90/157 78/94/157 75/91/157
f 75/91/158 78/94/158 79/92/158
f 76/88/159 79/92/159 80/3/159
f 8/93/160 24/95/160 78/94/160
f 24/95/161 25/96/161 79/92/161
f 25/96/162 26/1/162 80/3/162
f 83/97/163 41/99/163 7/7/163
f 86/98/164 40/75/164 41/99/164
f 86/98/165 89/6/165 39/5/165
f 38/100/166 81/101/166 17/57/166
f 81/101/167 82/105/167 16/102/167
f 16/102/168 82/105/168 83/97/168
f 37/103/169 84/107/169 81/101/169
f 81/101/170 84/107/170 85/104/170
f 85/104/171 86/98/171 83/97/171
f 36/106/172 87/109/172 84/107/172
f 84/107/173 87/109/173 88/108/173
f 85/104/174 88/108/174 89/6/174
f 4/64/175 18/69/175 87/109/175
f 18/69/176 19/72/176 88/108/176
f 19/72/177 20/4/177 89/6/177
f 9/78/178 92/76/178 38/80/178
f 95/110/179 37/81/179 38/80/179
f 95/110/180 98/3/180 36/2/180
f 33/82/181 90/85/181 11/83/181
f 90/85/182 91/113/182 10/86/182
f 10/86/183 91/113/183 92/76/183
f 34/111/184 93/114/184 90/85/184
f 90/85/185 93/114/185 94/112/185
f 94/112/186 95/110/186 92/76/186
f 34/111/187 35/90/187 96/94/187
f 93/114/188 96/94/188 97/115/188
f 94/112/189 97/115/189 98/3/189
f 2/93/190 12/95/190 96/94/190
f 12/95/191 13/122/191 97/115/191
f 97/115/192 13/122/192 14/1/192
