# Blender 5.0.1
# www.blender.org
mtllib Pillow01.mtl
o Pillow01
v 0.100000 0.162093 -0.077000
v 0.100000 0.162093 0.077000
v -0.100000 0.162093 -0.077000
v -0.100000 0.162093 0.077000
v -0.100000 -0.006214 -0.077000
v -0.100000 -0.006214 0.077000
v 0.100000 -0.006214 -0.077000
v 0.100000 -0.006214 0.077000
v -0.334267 0.074251 0.257386
v -0.334267 0.074251 -0.257386
v 0.334267 0.074251 -0.257386
v 0.334267 0.074251 0.257386
v 0.111422 0.074251 0.257386
v -0.111422 0.074251 0.257386
v 0.334267 0.074251 -0.085795
v 0.334267 0.074251 0.085795
v -0.111422 0.074251 -0.257386
v 0.111422 0.074251 -0.257386
v -0.334267 0.074251 0.085795
v -0.334267 0.074251 -0.085795
v -0.269764 -0.008846 0.200764
v -0.300000 0.021390 0.231000
v -0.269764 0.167388 0.200764
v -0.300000 0.137152 0.231000
v -0.269764 -0.008846 -0.200764
v -0.300000 0.021390 -0.231000
v -0.269764 0.167388 -0.200764
v -0.300000 0.137152 -0.231000
v 0.269764 -0.008846 0.200764
v 0.300000 0.021390 0.231000
v 0.269764 0.167388 0.200764
v 0.300000 0.137152 0.231000
v 0.269764 -0.008846 -0.200764
v 0.300000 0.021390 -0.231000
v 0.269764 0.167388 -0.200764
v 0.300000 0.137152 -0.231000
v -0.269764 -0.001498 -0.077000
v -0.300000 0.028738 -0.077000
v -0.300000 0.028738 0.077000
v -0.269764 -0.001498 0.077000
v -0.269764 0.150000 0.077000
v -0.300000 0.119764 0.077000
v -0.300000 0.119764 -0.077000
v -0.269764 0.150000 -0.077000
v 0.100000 -0.001498 -0.200764
v 0.100000 0.028738 -0.231000
v -0.100000 0.028738 -0.231000
v -0.100000 -0.001498 -0.200764
v -0.100000 0.150000 -0.200764
v -0.100000 0.119764 -0.231000
v 0.100000 0.119764 -0.231000
v 0.100000 0.150000 -0.200764
v 0.269764 -0.001498 0.077000
v 0.300000 0.028738 0.077000
v 0.300000 0.028738 -0.077000
v 0.269764 -0.001498 -0.077000
v 0.269764 0.150000 -0.077000
v 0.300000 0.119764 -0.077000
v 0.300000 0.119764 0.077000
v 0.269764 0.150000 0.077000
v -0.100000 -0.001498 0.200764
v -0.100000 0.028738 0.231000
v 0.100000 0.028738 0.231000
v 0.100000 -0.001498 0.200764
v 0.100000 0.150000 0.200764
v 0.100000 0.119764 0.231000
v -0.100000 0.119764 0.231000
v -0.100000 0.150000 0.200764
vn -0.0000 1.0000 -0.0000
vn -0.0000 -1.0000 -0.0000
vn -0.7065 -0.7065 -0.0419
vn -0.7036 0.7036 0.0989
vn 0.0306 -0.7068 -0.7068
vn -0.0722 0.7053 -0.7053
vn 0.7065 -0.7065 0.0419
vn 0.7036 0.7036 -0.0989
vn -0.0306 -0.7068 0.7068
vn 0.0722 0.7053 0.7053
vn -0.7230 -0.6901 0.0329
vn -0.7071 -0.7071 -0.0000
vn -0.7417 0.6665 -0.0753
vn -0.7071 0.7071 -0.0000
vn -0.0255 -0.6940 -0.7195
vn -0.0000 -0.7071 -0.7071
vn 0.0588 0.6759 -0.7347
vn -0.0000 0.7071 -0.7071
vn 0.7230 -0.6901 -0.0329
vn 0.7071 -0.7071 -0.0000
vn 0.7417 0.6665 0.0753
vn 0.7071 0.7071 -0.0000
vn 0.0255 -0.6940 0.7195
vn -0.0000 -0.7071 0.7071
vn -0.0588 0.6759 0.7347
vn -0.0000 0.7071 0.7071
vn -0.8012 -0.5977 -0.0285
vn 0.0432 -0.9973 -0.0592
vn 0.0183 -0.4980 0.8670
vn -0.8781 0.4784 -0.0000
vn -0.0000 0.3868 0.9222
vn -0.0707 0.9928 0.0970
vn -0.8012 -0.5977 0.0285
vn 0.0183 -0.4980 -0.8670
vn 0.0432 -0.9973 0.0592
vn -0.0707 0.9928 -0.0970
vn -0.0000 0.3868 -0.9222
vn 0.8012 -0.5977 -0.0285
vn -0.0183 -0.4980 0.8670
vn 0.0277 -0.9989 0.0381
vn -0.1009 0.9852 -0.1384
vn 0.8781 0.4784 -0.0000
vn -0.0183 -0.4980 -0.8670
vn 0.8012 -0.5977 0.0285
vn 0.0277 -0.9989 -0.0381
vn -0.1009 0.9852 0.1384
vn -0.7989 -0.6015 -0.0000
vn -0.0278 -0.9996 -0.0000
vn -0.7989 0.6015 -0.0000
vn -0.0711 0.9975 -0.0000
vn -0.0000 -0.5016 -0.8651
vn -0.0000 -0.9993 -0.0381
vn -0.0000 0.5016 -0.8651
vn -0.0000 0.9953 -0.0972
vn 0.7989 -0.6015 -0.0000
vn 0.0278 -0.9996 -0.0000
vn 0.7989 0.6015 -0.0000
vn 0.0711 0.9975 -0.0000
vn -0.0000 -0.5016 0.8651
vn -0.0000 -0.9993 0.0381
vn -0.0000 0.5016 0.8651
vn -0.0000 0.9953 0.0972
vn -0.7230 -0.6901 -0.0329
vn -0.7417 0.6665 0.0753
vn 0.0255 -0.6940 -0.7195
vn -0.0588 0.6759 -0.7347
vn 0.7230 -0.6901 0.0329
vn 0.7417 0.6665 -0.0753
vn -0.0255 -0.6940 0.7195
vn 0.0588 0.6759 0.7347
vn -0.7065 -0.7065 0.0419
vn -0.7036 0.7036 -0.0989
vn -0.0306 -0.7068 -0.7068
vn 0.0722 0.7053 -0.7053
vn 0.7065 -0.7065 -0.0419
vn 0.7036 0.7036 0.0989
vn 0.0306 -0.7068 0.7068
vn -0.0722 0.7053 0.7053
vn -0.8391 -0.5440 -0.0000
vn -0.0277 -0.9989 0.0381
vn -0.0000 -0.4466 0.8947
vn -0.8033 0.5919 -0.0668
vn 0.0429 0.4930 0.8690
vn 0.1009 0.9852 -0.1384
vn -0.0000 -0.4466 -0.8947
vn -0.0277 -0.9989 -0.0381
vn 0.1009 0.9852 0.1384
vn 0.0429 0.4930 -0.8690
vn -0.8033 0.5919 0.0668
vn 0.8391 -0.5440 -0.0000
vn -0.0432 -0.9973 -0.0592
vn 0.0707 0.9928 0.0970
vn -0.0429 0.4930 0.8690
vn 0.8033 0.5919 -0.0668
vn -0.0432 -0.9973 0.0592
vn 0.0707 0.9928 -0.0970
vn 0.8033 0.5919 0.0668
vn -0.0429 0.4930 -0.8690
vt 0.419077 0.215133
vt 0.338022 0.109867
vt 0.419077 0.109867
vt 0.166711 0.215133
vt 0.085656 0.109867
vt 0.166711 0.109867
vt 0.020515 0.020515
vt 0.085656 0.004600
vt 0.085656 0.020515
vt 0.484218 0.304485
vt 0.419077 0.320400
vt 0.419077 0.304485
vt 0.231852 0.020515
vt 0.247766 0.109867
vt 0.231852 0.109867
vt 0.484218 0.020515
vt 0.500132 0.109867
vt 0.484218 0.109867
vt 0.231852 0.304485
vt 0.166711 0.320400
vt 0.166711 0.304485
vt 0.272881 0.020515
vt 0.338022 0.004600
vt 0.338022 0.020515
vt 0.020515 0.304485
vt 0.004600 0.215133
vt 0.020515 0.215133
vt 0.272881 0.304485
vt 0.256967 0.215133
vt 0.272881 0.215133
vt 0.166711 0.004600
vt 0.247766 0.004600
vt 0.166711 0.020515
vt 0.338022 0.320400
vt 0.256967 0.320400
vt 0.338022 0.304485
vt 0.247766 0.215133
vt 0.247766 0.320400
vt 0.231852 0.215133
vt 0.500132 0.215133
vt 0.500132 0.320400
vt 0.484218 0.215133
vt 0.085656 0.320400
vt 0.004600 0.320400
vt 0.085656 0.304485
vt 0.419077 0.004600
vt 0.500132 0.004600
vt 0.419077 0.020515
vt 0.004600 0.109867
vt 0.004600 0.004600
vt 0.020515 0.109867
vt 0.256967 0.109867
vt 0.256967 0.004600
vt 0.272881 0.109867
vt 0.258253 0.572766
vt 0.234298 0.491711
vt 0.258253 0.491711
vt 0.140327 0.434867
vt 0.164282 0.329600
vt 0.164282 0.434867
vt 0.210343 0.572766
vt 0.234298 0.572766
vt 0.116372 0.329600
vt 0.140327 0.329600
vt 0.338022 0.215133
vt 0.234298 0.410656
vt 0.258253 0.329600
vt 0.258253 0.410656
vt 0.070311 0.645400
vt 0.046356 0.540133
vt 0.070311 0.540133
vt 0.022401 0.645400
vt 0.046356 0.645400
vt 0.210343 0.329600
vt 0.234298 0.329600
vt 0.328268 0.410656
vt 0.352223 0.329600
vt 0.352223 0.410656
vt 0.164282 0.645400
vt 0.140327 0.540133
vt 0.164282 0.540133
vt 0.085656 0.215133
vt 0.116372 0.645400
vt 0.140327 0.645400
vt 0.304314 0.329600
vt 0.328268 0.329600
vt 0.046356 0.434867
vt 0.070311 0.329600
vt 0.070311 0.434867
vt 0.352223 0.572766
vt 0.328268 0.491711
vt 0.352223 0.491711
vt 0.304314 0.572766
vt 0.328268 0.572766
vt 0.022402 0.329600
vt 0.046356 0.329600
vt 0.210343 0.491711
vt 0.022401 0.540133
vt 0.304314 0.491711
vt 0.116372 0.540133
vt 0.116372 0.434867
vt 0.210343 0.410656
vt 0.304314 0.410656
vt 0.022402 0.434867
s 0
usemtl 32x32grid
f 3/1/1 2/2/1 1/3/1
f 7/4/2 6/5/2 5/6/2
f 21/7/3 39/8/3 40/9/3
f 27/10/4 43/11/4 44/12/4
f 25/13/5 47/14/5 48/15/5
f 35/16/6 51/17/6 52/18/6
f 33/19/7 55/20/7 56/21/7
f 31/22/8 59/23/8 60/24/8
f 29/25/9 63/26/9 64/27/9
f 23/28/10 67/29/10 68/30/10
f 25/13/11 38/31/11 26/32/11
f 40/9/12 38/31/12 37/33/12
f 23/28/13 42/34/13 24/35/13
f 44/12/14 42/34/14 41/36/14
f 33/19/15 46/37/15 34/38/15
f 48/15/16 46/37/16 45/39/16
f 27/10/17 50/40/17 28/41/17
f 52/18/18 50/40/18 49/42/18
f 29/25/19 54/43/19 30/44/19
f 56/21/20 54/43/20 53/45/20
f 35/16/21 58/46/21 36/47/21
f 60/24/22 58/46/22 57/48/22
f 21/7/23 62/49/23 22/50/23
f 64/27/24 62/49/24 61/51/24
f 31/22/25 66/52/25 32/53/25
f 68/30/26 66/52/26 65/54/26
f 22/55/27 19/56/27 39/57/27
f 40/9/28 61/51/28 21/7/28
f 14/58/29 22/59/29 62/60/29
f 24/61/30 19/56/30 9/62/30
f 14/58/31 24/63/31 9/64/31
f 41/36/32 68/30/32 4/65/32
f 20/66/33 26/67/33 38/68/33
f 26/69/34 17/70/34 47/71/34
f 48/15/35 37/33/35 25/13/35
f 49/42/36 44/12/36 3/1/36
f 28/72/37 17/70/37 10/73/37
f 20/66/30 28/74/30 10/75/30
f 16/76/38 30/77/38 54/78/38
f 30/79/39 13/80/39 63/81/39
f 53/45/40 64/27/40 8/82/40
f 60/24/41 65/54/41 31/22/41
f 32/83/31 13/80/31 12/84/31
f 16/76/42 32/85/42 12/86/42
f 18/87/43 34/88/43 46/89/43
f 34/90/44 15/91/44 55/92/44
f 45/39/45 56/21/45 7/4/45
f 52/18/46 57/48/46 35/16/46
f 36/93/42 15/91/42 11/94/42
f 18/87/37 36/95/37 11/96/37
f 19/56/47 38/68/47 39/57/47
f 5/6/48 40/9/48 37/33/48
f 42/97/49 20/66/49 19/56/49
f 44/12/50 4/65/50 3/1/50
f 17/70/51 46/89/51 47/71/51
f 45/39/52 5/6/52 48/15/52
f 50/98/53 18/87/53 17/70/53
f 49/42/54 1/3/54 52/18/54
f 15/91/55 54/78/55 55/92/55
f 56/21/56 8/82/56 7/4/56
f 58/99/57 16/76/57 15/91/57
f 1/3/58 60/24/58 57/48/58
f 13/80/59 62/60/59 63/81/59
f 8/82/60 61/51/60 6/5/60
f 66/100/61 14/58/61 13/80/61
f 4/65/62 65/54/62 2/2/62
f 3/1/1 4/65/1 2/2/1
f 7/4/2 8/82/2 6/5/2
f 21/7/63 22/50/63 39/8/63
f 27/10/64 28/41/64 43/11/64
f 25/13/65 26/32/65 47/14/65
f 35/16/66 36/47/66 51/17/66
f 33/19/67 34/38/67 55/20/67
f 31/22/68 32/53/68 59/23/68
f 29/25/69 30/44/69 63/26/69
f 23/28/70 24/35/70 67/29/70
f 25/13/71 37/33/71 38/31/71
f 40/9/12 39/8/12 38/31/12
f 23/28/72 41/36/72 42/34/72
f 44/12/14 43/11/14 42/34/14
f 33/19/73 45/39/73 46/37/73
f 48/15/16 47/14/16 46/37/16
f 27/10/74 49/42/74 50/40/74
f 52/18/18 51/17/18 50/40/18
f 29/25/75 53/45/75 54/43/75
f 56/21/20 55/20/20 54/43/20
f 35/16/76 57/48/76 58/46/76
f 60/24/22 59/23/22 58/46/22
f 21/7/77 61/51/77 62/49/77
f 64/27/24 63/26/24 62/49/24
f 31/22/78 65/54/78 66/52/78
f 68/30/26 67/29/26 66/52/26
f 22/55/79 9/62/79 19/56/79
f 40/9/80 6/5/80 61/51/80
f 14/58/81 9/64/81 22/59/81
f 24/61/82 42/97/82 19/56/82
f 14/58/83 67/101/83 24/63/83
f 41/36/84 23/28/84 68/30/84
f 20/66/79 10/75/79 26/67/79
f 26/69/85 10/73/85 17/70/85
f 48/15/86 5/6/86 37/33/86
f 49/42/87 27/10/87 44/12/87
f 28/72/88 50/98/88 17/70/88
f 20/66/89 43/102/89 28/74/89
f 16/76/90 12/86/90 30/77/90
f 30/79/81 12/84/81 13/80/81
f 53/45/91 29/25/91 64/27/91
f 60/24/92 2/2/92 65/54/92
f 32/83/93 66/100/93 13/80/93
f 16/76/94 59/103/94 32/85/94
f 18/87/85 11/96/85 34/88/85
f 34/90/90 11/94/90 15/91/90
f 45/39/95 33/19/95 56/21/95
f 52/18/96 1/3/96 57/48/96
f 36/93/97 58/99/97 15/91/97
f 18/87/98 51/104/98 36/95/98
f 19/56/47 20/66/47 38/68/47
f 5/6/48 6/5/48 40/9/48
f 42/97/49 43/102/49 20/66/49
f 44/12/50 41/36/50 4/65/50
f 17/70/51 18/87/51 46/89/51
f 45/39/52 7/4/52 5/6/52
f 50/98/53 51/104/53 18/87/53
f 49/42/54 3/1/54 1/3/54
f 15/91/55 16/76/55 54/78/55
f 56/21/56 53/45/56 8/82/56
f 58/99/57 59/103/57 16/76/57
f 1/3/58 2/2/58 60/24/58
f 13/80/59 14/58/59 62/60/59
f 8/82/60 64/27/60 61/51/60
f 66/100/61 67/101/61 14/58/61
f 4/65/62 68/30/62 65/54/62
