# Blender 5.0.1
# www.blender.org
mtllib Cigarette01.mtl
o Cigarette01
v -0.005000 0.000000 0.033000
v -0.005000 0.000000 0.033000
v -0.005000 0.000000 0.033000
v -0.005000 0.010000 0.033000
v -0.005000 0.010000 0.033000
v -0.005000 0.010000 0.033000
v -0.005000 0.000000 -0.033000
v -0.005000 0.000000 -0.033000
v -0.005000 0.000000 -0.033000
v -0.005000 0.010000 -0.033000
v -0.005000 0.010000 -0.033000
v -0.005000 0.010000 -0.033000
v 0.005000 0.000000 0.033000
v 0.005000 0.000000 0.033000
v 0.005000 0.000000 0.033000
v 0.005000 0.010000 0.033000
v 0.005000 0.010000 0.033000
v 0.005000 0.010000 0.033000
v 0.005000 0.000000 -0.033000
v 0.005000 0.000000 -0.033000
v 0.005000 0.000000 -0.033000
v 0.005000 0.010000 -0.033000
v 0.005000 0.010000 -0.033000
v 0.005000 0.010000 -0.033000
vn -1.0000 -0.0000 -0.0000
vn -0.0000 -0.0000 -1.0000
vn 1.0000 -0.0000 -0.0000
vn -0.0000 -0.0000 1.0000
vn -0.0000 -1.0000 -0.0000
vn -0.0000 1.0000 -0.0000
vt 0.250000 0.875000
vt 0.375000 0.875000
vt 0.375000 0.125000
vt 0.250000 0.125000
vt 0.750000 0.500000
vt 0.875000 0.500000
vt 0.875000 0.625000
vt 0.750000 0.625000
vt 0.500000 0.125000
vt 0.625000 0.125000
vt 0.625000 0.875000
vt 0.500000 0.875000
vt 0.750000 0.750000
vt 0.875000 0.750000
vt 0.875000 0.875000
vt 0.750000 0.875000
vt 0.125000 0.125000
vt 0.125000 0.875000
s 0
usemtl Cigarette01
f 3/1/1 6/2/1 12/3/1
f 3/1/1 12/3/1 9/4/1
f 7/5/2 10/6/2 22/7/2
f 7/5/2 22/7/2 19/8/2
f 21/9/3 24/10/3 18/11/3
f 21/9/3 18/11/3 15/12/3
f 13/13/4 16/14/4 4/15/4
f 13/13/4 4/15/4 1/16/4
f 8/17/5 20/4/5 14/1/5
f 8/17/5 14/1/5 2/18/5
f 23/3/6 11/9/6 5/12/6
f 23/3/6 5/12/6 17/2/6
