# Blender 5.0.1
# www.blender.org
mtllib Cigarette02.mtl
o Cigarette02
v -0.005000 0.000000 0.017233
v -0.005000 0.000000 0.017233
v -0.005000 0.000000 0.017233
v -0.005000 0.010000 0.017233
v -0.005000 0.010000 0.017233
v -0.005000 0.010000 0.017233
v -0.005000 0.000000 -0.033000
v -0.005000 0.000000 -0.033000
v -0.005000 0.000000 -0.033000
v -0.005000 0.010000 -0.033000
v -0.005000 0.010000 -0.033000
v -0.005000 0.010000 -0.033000
v 0.005000 0.000000 0.017233
v 0.005000 0.000000 0.017233
v 0.005000 0.000000 0.017233
v 0.005000 0.010000 0.017233
v 0.005000 0.010000 0.017233
v 0.005000 0.010000 0.017233
v 0.005000 0.000000 -0.033000
v 0.005000 0.000000 -0.033000
v 0.005000 0.000000 -0.033000
v 0.005000 0.010000 -0.033000
v 0.005000 0.010000 -0.033000
v 0.005000 0.010000 -0.033000
v -0.005000 0.000000 -0.007388
v -0.005000 0.000000 -0.007388
v -0.005000 0.000000 -0.007388
v -0.005000 0.010000 -0.007388
v -0.005000 0.010000 -0.007388
v -0.005000 0.010000 -0.007388
v 0.005000 0.000000 -0.007388
v 0.005000 0.000000 -0.007388
v 0.005000 0.000000 -0.007388
v 0.005000 0.010000 -0.007388
v 0.005000 0.010000 -0.007388
v 0.005000 0.010000 -0.007388
v -0.007627 0.000000 0.001579
v -0.007627 0.000000 0.001579
v -0.007627 0.000000 0.001579
v -0.003920 0.000000 0.008080
v -0.003920 0.000000 0.008080
v -0.003920 0.000000 0.008080
v 0.002373 0.010000 0.001579
v 0.002373 0.010000 0.001579
v 0.002373 0.010000 0.001579
v 0.006080 0.010000 0.008080
v 0.006080 0.010000 0.008080
v 0.006080 0.010000 0.008080
v -0.003920 0.010000 0.008080
v -0.003920 0.010000 0.008080
v -0.003920 0.010000 0.008080
v -0.007627 0.010000 0.001579
v -0.007627 0.010000 0.001579
v -0.007627 0.010000 0.001579
v 0.006080 0.000000 0.008080
v 0.006080 0.000000 0.008080
v 0.006080 0.000000 0.008080
v 0.002373 0.000000 0.001579
v 0.002373 0.000000 0.001579
v 0.002373 0.000000 0.001579
vn -1.0000 -0.0000 -0.0000
vn -0.0000 -0.0000 -1.0000
vn 0.9931 -0.0000 0.1172
vn -0.0000 -0.0000 1.0000
vn -0.0000 -1.0000 -0.0000
vn -0.0000 1.0000 -0.0000
vn 1.0000 -0.0000 -0.0000
vn -0.9597 -0.0000 -0.2812
vn -0.9596 -0.0000 -0.2812
vn -0.9931 -0.0000 -0.1172
vn -0.8687 -0.0000 0.4954
vn 0.9596 -0.0000 0.2812
vn 0.8687 -0.0000 -0.4954
vt 0.375000 0.500000
vt 0.250000 0.500000
vt 0.250000 0.125000
vt 0.375000 0.125000
vt 0.750000 0.500000
vt 0.875000 0.500000
vt 0.875000 0.625000
vt 0.750000 0.625000
vt 0.500000 0.750000
vt 0.625000 0.750000
vt 0.625000 0.875000
vt 0.500000 0.875000
vt 0.750000 0.750000
vt 0.875000 0.750000
vt 0.875000 0.875000
vt 0.750000 0.875000
vt 0.125000 0.750000
vt 0.250000 0.750000
vt 0.250000 0.875000
vt 0.125000 0.875000
vt 0.375000 0.750000
vt 0.375000 0.875000
vt 0.500000 0.125000
vt 0.500000 0.500000
vt 0.125000 0.125000
vt 0.125000 0.500000
vt 0.625000 0.125000
vt 0.625000 0.500000
vt 0.375000 0.625000
vt 0.250000 0.625000
vt 0.500000 0.625000
vt 0.125000 0.625000
vt 0.625000 0.625000
s 0
usemtl Cigarette01
f 27/1/1 30/2/1 12/3/1
f 27/1/1 12/3/1 9/4/1
f 7/5/2 10/6/2 22/7/2
f 7/5/2 22/7/2 19/8/2
f 57/9/3 48/10/3 18/11/3
f 57/9/3 18/11/3 15/12/3
f 13/13/4 16/14/4 4/15/4
f 13/13/4 4/15/4 1/16/4
f 40/17/5 55/18/5 14/19/5
f 40/17/5 14/19/5 2/20/5
f 46/21/6 49/9/6 5/12/6
f 46/21/6 5/12/6 17/22/6
f 23/4/6 11/23/6 28/24/6
f 23/4/6 28/24/6 34/1/6
f 8/25/5 20/3/5 31/2/5
f 8/25/5 31/2/5 25/26/5
f 21/23/7 24/27/7 36/28/7
f 21/23/7 36/28/7 33/24/7
f 39/29/8 54/30/8 29/2/8
f 39/29/9 29/2/9 26/1/9
f 3/22/10 6/19/10 51/18/10
f 3/22/10 51/18/10 42/21/10
f 41/21/11 50/18/11 53/30/11
f 41/21/11 53/30/11 38/29/11
f 34/1/6 28/24/6 52/31/6
f 34/1/6 52/31/6 43/29/6
f 43/29/6 52/31/6 49/9/6
f 43/29/6 49/9/6 46/21/6
f 25/26/5 31/2/5 58/30/5
f 25/26/5 58/30/5 37/32/5
f 37/32/5 58/30/5 55/18/5
f 37/32/5 55/18/5 40/17/5
f 32/24/12 35/28/12 45/33/12
f 32/24/12 45/33/12 60/31/12
f 59/31/13 44/33/13 47/10/13
f 59/31/13 47/10/13 56/9/13
