# Blender 5.0.1
# www.blender.org
mtllib LaundryDetergent01.mtl
o LaundryDetergent01
v -0.000000 0.163996 -0.070000
v 0.037502 0.163996 -0.035000
v 0.037502 0.163996 0.035000
v -0.000000 0.163996 0.070000
v -0.037502 0.163996 0.035000
v -0.037502 0.163996 -0.035000
v 0.000000 0.231161 -0.050483
v 0.000000 0.248640 -0.050483
v 0.012856 0.231161 -0.045158
v 0.012856 0.248640 -0.045158
v 0.018180 0.231161 -0.032302
v 0.018180 0.248640 -0.032302
v 0.012856 0.231161 -0.019447
v 0.012856 0.248640 -0.019447
v 0.000000 0.231161 -0.014122
v 0.000000 0.248640 -0.014122
v -0.012856 0.231161 -0.019447
v -0.012856 0.248640 -0.019447
v -0.018180 0.231161 -0.032302
v -0.018180 0.248640 -0.032302
v -0.012856 0.231161 -0.045158
v -0.012856 0.248640 -0.045158
v -0.012617 0.018732 0.058225
v -0.012617 0.145265 0.058225
v -0.024885 0.145265 0.041524
v -0.024885 0.018732 0.041524
v 0.024885 0.018732 0.041524
v 0.024885 0.145265 0.041524
v 0.012617 0.145265 0.058225
v 0.012617 0.018732 0.058225
v 0.008169 0.246189 -0.040471
v 0.000000 0.246189 -0.043854
v -0.008169 0.246189 -0.040471
v -0.011552 0.246189 -0.032302
v -0.008169 0.246189 -0.024134
v 0.000000 0.246189 -0.020750
v 0.008169 0.246189 -0.024134
v 0.011552 0.246189 -0.032302
v 0.008169 0.252547 -0.040471
v -0.000000 0.252547 -0.043854
v 0.011552 0.252547 -0.032302
v -0.008169 0.252547 -0.040471
v -0.011552 0.252547 -0.032302
v -0.008169 0.252547 -0.024134
v -0.000000 0.252547 -0.020750
v 0.008169 0.252547 -0.024134
v 0.000000 0.236039 -0.058682
v -0.000000 0.232589 -0.063776
v 0.025436 0.236039 -0.034943
v 0.029342 0.232590 -0.036392
v 0.025436 0.236039 0.016022
v 0.029341 0.232594 0.018375
v 0.000000 0.236039 0.039761
v -0.000000 0.232596 0.045758
v -0.025436 0.236039 0.016022
v -0.029341 0.232594 0.018375
v -0.025436 0.236039 -0.034943
v -0.029342 0.232590 -0.036392
v -0.000000 0.000000 -0.061615
v -0.000000 0.006130 -0.070000
v 0.031372 0.000000 -0.032336
v 0.037502 0.006130 -0.035000
v 0.031372 0.000000 0.032336
v 0.037502 0.006130 0.033317
v -0.000000 0.006130 0.070000
v 0.000000 0.000000 0.061615
v -0.037502 0.006005 0.033317
v -0.031372 0.000000 0.032336
v -0.031372 0.000000 -0.032336
v -0.037502 0.006130 -0.035000
vn -0.0000 -1.0000 -0.0000
vn -0.0000 -0.0000 1.0000
vn 0.3827 -0.0000 -0.9239
vn 0.9239 -0.0000 -0.3827
vn 0.9239 -0.0000 0.3827
vn 0.3827 -0.0000 0.9239
vn -0.3827 -0.0000 0.9239
vn -0.9239 -0.0000 0.3827
vn -0.3827 -0.0000 -0.9239
vn -0.9239 -0.0000 -0.3827
vn -0.6823 -0.0000 0.7311
vn 0.7638 -0.3190 0.5611
vn -0.0000 -0.0000 -1.0000
vn -0.0000 1.0000 -0.0000
vn -0.1422 0.9284 0.3434
vn 0.1422 0.9284 0.3434
vn 0.3434 0.9284 0.1422
vn 0.3434 0.9284 -0.1422
vn 0.1422 0.9284 -0.3434
vn -0.1422 0.9284 -0.3434
vn -0.3434 0.9284 -0.1422
vn -0.3434 0.9284 0.1422
vn 0.4636 0.7337 -0.4967
vn 0.6615 0.7499 -0.0000
vn 0.4214 0.7865 0.4514
vn -0.4215 0.7864 0.4516
vn -0.6619 0.7496 -0.0000
vn -0.4637 0.7336 -0.4968
vn 0.6808 0.0662 -0.7295
vn -0.6808 0.0662 -0.7295
vn 0.9930 0.1181 -0.0000
vn 0.6606 0.2501 0.7078
vn -0.6606 0.2501 0.7078
vn -0.9930 0.1181 -0.0000
vn 0.4825 -0.7071 -0.5169
vn 0.7071 -0.7071 -0.0000
vn 0.5330 -0.6243 0.5711
vn -0.4982 -0.7000 0.5117
vn -0.6998 -0.7143 -0.0000
vn -0.4825 -0.7071 -0.5169
vn 0.6823 -0.0000 -0.7311
vn -0.6823 -0.0000 -0.7311
vn 1.0000 -0.0000 -0.0000
vn 0.5453 -0.0000 0.8382
vn 0.6989 -0.0321 0.7145
vn -0.7438 0.3850 0.5464
vn 0.6823 -0.0000 0.7311
vn -1.0000 -0.0000 -0.0000
vn -0.4703 -0.0094 0.8825
vn -0.7638 -0.3190 0.5611
vn 0.4637 0.7336 -0.4968
vn 0.6619 0.7496 -0.0000
vn 0.4215 0.7864 0.4516
vn -0.4214 0.7865 0.4514
vn -0.6615 0.7499 -0.0000
vn -0.4636 0.7337 -0.4967
vn 0.5000 -0.6991 0.5111
vn -0.5287 -0.6322 0.5665
vn -0.7068 -0.7074 -0.0013
vn 0.4703 -0.0094 0.8825
vn 0.7427 0.3883 0.5456
vn -0.6988 -0.0320 0.7146
vn -0.5453 -0.0000 0.8382
vt 0.437500 0.375000
vt 0.562500 0.437500
vt 0.437500 0.437500
vt 0.562500 0.062500
vt 0.437500 0.062500
vt 0.437500 0.937500
vt 0.500000 1.000000
vt 0.437500 1.000000
vt 0.375000 0.937500
vt 0.375000 1.000000
vt 0.312500 0.937500
vt 0.312500 1.000000
vt 0.250000 0.937500
vt 0.250000 1.000000
vt 0.187500 0.937500
vt 0.187500 1.000000
vt 0.125000 0.937500
vt 0.125000 1.000000
vt 0.562500 0.937500
vt 0.500000 0.875000
vt 0.562500 0.875000
vt 0.062500 0.937500
vt 0.062500 1.000000
vt -0.000000 0.937500
vt -0.000000 1.000000
vt 0.312500 0.500000
vt 0.437500 0.500000
vt 0.687500 0.500000
vt 0.687500 0.437500
vt 0.500000 0.375000
vt 0.562500 0.000000
vt 0.437500 0.000000
vt 0.937500 1.000000
vt 1.000000 0.937500
vt 1.000000 1.000000
vt 0.500000 0.937500
vt 0.562500 1.000000
vt 0.625000 0.937500
vt 0.687500 1.000000
vt 0.625000 1.000000
vt 0.750000 1.000000
vt 0.687500 0.937500
vt 0.750000 0.937500
vt 0.812500 1.000000
vt 0.812500 0.937500
vt 0.875000 0.937500
vt 0.875000 1.000000
vt 0.937500 0.937500
vt 0.875000 0.687500
vt 1.000000 0.750000
vt 0.937500 0.875000
vt 1.000000 0.875000
vt 0.812500 0.875000
vt 0.875000 0.875000
vt 0.750000 0.875000
vt 0.625000 0.875000
vt 0.687500 0.875000
vt 0.125081 0.937419
vt 0.011067 0.926433
vt 0.120965 0.926433
vt 0.238933 0.808465
vt 0.250000 0.812500
vt 0.687500 0.678535
vt 0.572804 0.687500
vt 0.562500 0.678541
vt 0.312500 0.678535
vt 0.427196 0.687500
vt 0.317298 0.687500
vt 0.000081 0.812419
vt 0.129035 0.698567
vt 0.011067 0.816535
vt 1.000000 0.500000
vt 0.934508 0.678525
vt 0.875000 0.500000
vt 0.065492 0.678525
vt 0.000000 0.500000
vt 0.125000 0.500000
vt 0.747012 0.678535
vt 0.562500 0.500000
vt 0.437500 0.678541
vt 0.252988 0.678535
vt 0.264973 0.922527
vt 0.373497 0.689003
vt 0.264973 0.817959
vt 0.485027 0.702473
vt 0.380459 0.702473
vt 0.498497 0.814003
vt 0.500000 0.687500
vt 0.369541 0.922528
vt 0.485027 0.807041
vt 0.875000 0.018689
vt 1.000000 0.018689
vt 0.000000 0.018689
vt 0.125000 0.018689
vt 0.698613 0.019534
vt 0.628402 0.018412
vt 0.554049 0.018428
vt 0.445951 0.018428
vt 0.375000 0.375000
vt 0.375000 0.062500
vt 0.301522 0.019140
vt 0.312500 0.062500
vt 0.625000 0.375000
vt 0.371598 0.018031
vt 0.375000 0.500000
vt 0.562500 0.375000
vt 0.312500 0.437500
vt 0.500000 0.062500
vt 0.812500 0.812500
vt 0.812500 0.750000
vt 0.937500 0.687500
vt 1.000000 0.812500
vt 0.682702 0.687500
vt 0.125000 0.687500
vt 0.238933 0.698567
vt 1.000000 0.678521
vt 0.000000 0.678521
vt 0.875000 0.678525
vt 0.125000 0.678525
vt 0.625000 0.500000
vt 0.687500 0.062500
vt 0.625000 0.062500
s 0
usemtl 16x16grid
f 25/1/1 29/2/1 24/3/1
f 27/4/2 25/3/2 26/5/2
f 8/6/3 9/7/3 7/8/3
f 10/9/4 11/8/4 9/10/4
f 12/11/5 13/10/5 11/12/5
f 14/13/6 15/12/6 13/14/6
f 16/15/7 17/14/7 15/16/7
f 18/17/8 19/16/8 17/18/8
f 33/19/9 40/20/9 32/21/9
f 20/22/10 21/18/10 19/23/10
f 22/24/9 7/23/9 21/25/9
f 5/26/11 24/3/11 4/27/11
f 3/28/12 29/2/12 28/29/12
f 24/5/13 30/30/13 23/1/13
f 30/31/14 26/5/14 23/32/14
f 10/33/15 32/34/15 31/35/15
f 22/36/16 32/37/16 8/7/16
f 20/38/17 33/37/17 22/19/17
f 20/38/18 35/39/18 34/40/18
f 16/41/19 35/42/19 18/43/19
f 14/44/20 36/43/20 16/45/20
f 12/44/21 37/46/21 14/47/21
f 10/47/22 38/48/22 12/33/22
f 43/49/14 45/50/14 41/51/14
f 32/34/3 39/51/3 31/52/3
f 38/46/5 46/53/5 37/54/5
f 35/42/7 45/55/7 44/43/7
f 34/38/10 42/21/10 33/56/10
f 31/48/4 41/54/4 38/51/4
f 36/43/6 46/53/6 45/45/6
f 34/57/8 44/38/8 43/56/8
f 50/58/23 47/59/23 49/60/23
f 50/58/24 51/61/24 52/62/24
f 52/63/25 53/64/25 54/65/25
f 56/66/26 53/67/26 55/68/26
f 58/69/27 55/70/27 57/71/27
f 58/69/28 47/59/28 48/24/28
f 47/59/14 55/70/14 51/61/14
f 1/72/29 50/73/29 2/74/29
f 58/75/30 1/76/30 6/77/30
f 2/74/31 52/78/31 3/28/31
f 3/28/32 54/65/32 4/79/32
f 54/80/33 5/26/33 4/27/33
f 56/81/34 6/77/34 5/26/34
f 62/62/35 59/82/35 60/13/35
f 64/83/36 61/84/36 62/62/36
f 64/83/37 66/85/37 63/86/37
f 67/87/38 66/85/38 65/88/38
f 67/87/39 69/89/39 68/90/39
f 70/9/40 59/82/40 69/89/40
f 1/72/41 62/91/41 60/92/41
f 61/84/1 66/85/1 69/89/1
f 6/77/42 60/93/42 70/94/42
f 2/74/43 64/95/43 62/91/43
f 64/96/44 28/2/44 27/4/44
f 64/95/45 30/4/45 65/97/45
f 65/98/11 24/99/11 23/100/11
f 67/101/46 23/5/46 26/102/46
f 65/97/47 29/103/47 4/2/47
f 67/101/48 6/77/48 70/94/48
f 67/104/49 25/3/49 5/105/49
f 25/1/1 28/106/1 29/2/1
f 27/4/2 28/2/2 25/3/2
f 8/6/3 10/36/3 9/7/3
f 10/9/4 12/6/4 11/8/4
f 12/11/5 14/9/5 13/10/5
f 14/13/6 16/11/6 15/12/6
f 16/15/7 18/13/7 17/14/7
f 18/17/8 20/15/8 19/16/8
f 33/19/9 42/36/9 40/20/9
f 20/22/10 22/17/10 21/18/10
f 22/24/9 8/22/9 7/23/9
f 5/26/50 25/107/50 24/3/50
f 3/28/47 4/79/47 29/2/47
f 24/5/13 29/108/13 30/30/13
f 30/31/14 27/4/14 26/5/14
f 10/33/15 8/48/15 32/34/15
f 22/36/16 33/19/16 32/37/16
f 20/38/17 34/40/17 33/37/17
f 20/38/18 18/42/18 35/39/18
f 16/41/19 36/39/19 35/42/19
f 14/44/20 37/41/20 36/43/20
f 12/44/21 38/45/21 37/46/21
f 10/47/22 31/46/22 38/48/22
f 41/51/14 39/54/14 40/109/14
f 40/109/14 42/110/14 43/49/14
f 43/49/14 44/111/14 45/50/14
f 45/50/14 46/112/14 41/51/14
f 41/51/14 40/109/14 43/49/14
f 32/34/3 40/48/3 39/51/3
f 38/46/5 41/45/5 46/53/5
f 35/42/7 36/57/7 45/55/7
f 34/38/10 43/19/10 42/21/10
f 31/48/4 39/46/4 41/54/4
f 36/43/6 37/55/6 46/53/6
f 34/57/8 35/42/8 44/38/8
f 50/58/51 48/24/51 47/59/51
f 50/58/52 49/60/52 51/61/52
f 52/63/53 51/113/53 53/64/53
f 56/66/54 54/80/54 53/67/54
f 58/69/55 56/114/55 55/70/55
f 58/69/56 57/71/56 47/59/56
f 51/61/14 49/60/14 47/59/14
f 47/59/14 57/71/14 55/70/14
f 55/70/14 53/115/14 51/61/14
f 1/72/29 48/116/29 50/73/29
f 58/75/30 48/117/30 1/76/30
f 2/74/31 50/118/31 52/78/31
f 3/28/32 52/63/32 54/65/32
f 54/80/33 56/66/33 5/26/33
f 56/81/34 58/119/34 6/77/34
f 62/62/35 61/84/35 59/82/35
f 64/83/36 63/86/36 61/84/36
f 64/83/57 65/88/57 66/85/57
f 67/87/58 68/90/58 66/85/58
f 67/87/59 70/9/59 69/89/59
f 70/9/40 60/13/40 59/82/40
f 1/72/41 2/74/41 62/91/41
f 69/89/1 59/82/1 61/84/1
f 61/84/1 63/86/1 66/85/1
f 66/85/1 68/90/1 69/89/1
f 6/77/42 1/76/42 60/93/42
f 2/74/43 3/28/43 64/95/43
f 64/96/60 3/120/60 28/2/60
f 64/95/61 27/121/61 30/4/61
f 65/98/11 4/3/11 24/99/11
f 67/101/62 65/98/62 23/5/62
f 65/97/47 30/122/47 29/103/47
f 67/101/48 5/26/48 6/77/48
f 67/104/63 26/5/63 25/3/63
