# Blender 5.0.1
# www.blender.org
mtllib TrashCanFull01.mtl
o TrashCanFull01
v -0.000000 -0.000000 0.149099
v -0.000000 -0.000000 0.149099
v -0.000000 -0.000000 0.149099
v -0.105429 -0.000000 0.105429
v -0.105429 -0.000000 0.105429
v -0.105429 -0.000000 0.105429
v -0.149099 -0.000000 -0.000000
v -0.149099 -0.000000 -0.000000
v -0.149099 -0.000000 -0.000000
v -0.105429 0.000000 -0.105429
v -0.105429 0.000000 -0.105429
v -0.105429 0.000000 -0.105429
v 0.000000 0.000000 -0.149099
v 0.000000 0.000000 -0.149099
v 0.000000 0.000000 -0.149099
v 0.105429 0.000000 -0.105429
v 0.105429 0.000000 -0.105429
v 0.105429 0.000000 -0.105429
v 0.149099 0.000000 0.000000
v 0.149099 0.000000 0.000000
v 0.149099 0.000000 0.000000
v 0.105429 -0.000000 0.105429
v 0.105429 -0.000000 0.105429
v 0.105429 -0.000000 0.105429
v 0.000000 0.451814 0.162458
v 0.000000 0.451814 0.162458
v 0.000000 0.451814 0.162458
v -0.114875 0.451814 0.114875
v -0.114875 0.451814 0.114875
v -0.114875 0.451814 0.114875
v -0.162458 0.451814 0.000000
v -0.162458 0.451814 0.000000
v -0.162458 0.451814 0.000000
v -0.114875 0.451814 -0.114875
v -0.114875 0.451814 -0.114875
v -0.114875 0.451814 -0.114875
v 0.000000 0.451814 -0.162458
v 0.000000 0.451814 -0.162458
v 0.000000 0.451814 -0.162458
v 0.000000 0.451814 -0.162458
v 0.114875 0.451814 -0.114875
v 0.114875 0.451814 -0.114875
v 0.114875 0.451814 -0.114875
v 0.162458 0.451814 0.000000
v 0.162458 0.451814 0.000000
v 0.162458 0.451814 0.000000
v 0.114875 0.451814 0.114875
v 0.114875 0.451814 0.114875
v 0.114875 0.451814 0.114875
v -0.128857 0.451814 0.128857
v -0.128857 0.451814 0.128857
v -0.128857 0.451814 0.128857
v 0.000000 0.451814 0.182232
v 0.000000 0.451814 0.182232
v 0.000000 0.451814 0.182232
v -0.182232 0.451814 -0.000000
v -0.182232 0.451814 -0.000000
v -0.182232 0.451814 -0.000000
v -0.128857 0.451814 -0.128857
v -0.128857 0.451814 -0.128857
v -0.128857 0.451814 -0.128857
v 0.000000 0.451814 -0.182232
v 0.000000 0.451814 -0.182232
v 0.000000 0.451814 -0.182232
v 0.000000 0.451814 -0.182232
v 0.128857 0.451814 -0.128857
v 0.128857 0.451814 -0.128857
v 0.128857 0.451814 -0.128857
v 0.182232 0.451814 -0.000000
v 0.182232 0.451814 -0.000000
v 0.182232 0.451814 -0.000000
v 0.128857 0.451814 0.128857
v 0.128857 0.451814 0.128857
v 0.128857 0.451814 0.128857
v -0.109178 0.404649 0.109178
v -0.109178 0.404649 0.109178
v -0.109178 0.404649 0.109178
v 0.000000 0.404649 0.154401
v 0.000000 0.404649 0.154401
v 0.000000 0.404649 0.154401
v 0.000000 0.404649 0.154401
v -0.154401 0.404649 -0.000000
v -0.154401 0.404649 -0.000000
v -0.154401 0.404649 -0.000000
v -0.154401 0.404649 -0.000000
v -0.109178 0.404649 -0.109178
v -0.109178 0.404649 -0.109178
v -0.109178 0.404649 -0.109178
v 0.000000 0.404649 -0.154401
v 0.000000 0.404649 -0.154401
v 0.000000 0.404649 -0.154401
v 0.000000 0.404649 -0.154401
v 0.109178 0.404649 -0.109178
v 0.109178 0.404649 -0.109178
v 0.109178 0.404649 -0.109178
v 0.154401 0.404649 -0.000000
v 0.154401 0.404649 -0.000000
v 0.154401 0.404649 -0.000000
v 0.154401 0.404649 -0.000000
v 0.109178 0.404649 0.109178
v 0.109178 0.404649 0.109178
v 0.109178 0.404649 0.109178
v 0.000000 0.453881 0.000001
v 0.000000 0.453881 0.000001
v 0.000000 0.453881 0.000001
v 0.000000 0.453881 0.000001
vn -0.0000 -1.0000 -0.0000
vn -0.9126 0.1559 -0.3780
vn 0.3818 -0.0676 0.9218
vn 0.9218 -0.0676 -0.3818
vn -0.3818 -0.0676 -0.9218
vn -0.9218 -0.0676 0.3818
vn 0.9218 -0.0676 0.3818
vn 0.3818 -0.0676 -0.9218
vn -0.9218 -0.0676 -0.3818
vn -0.3818 -0.0676 0.9218
vn -0.0000 1.0000 -0.0000
vn 0.2148 0.9527 0.2148
vn 0.2148 0.9528 0.2148
vn -0.3780 0.1559 0.9126
vn 0.9126 0.1559 0.3780
vn 0.3780 0.1559 -0.9126
vn -0.3780 0.1559 -0.9126
vn -0.9126 0.1559 0.3780
vn 0.3780 0.1559 0.9126
vn 0.9126 0.1559 -0.3780
vn -0.2148 0.9527 -0.2148
vn -0.2148 0.9528 -0.2148
vn -0.2148 0.9527 -0.2149
vn 0.2148 0.9527 -0.2148
vn -0.2148 0.9527 0.2148
vt 0.031250 0.250000
vt 0.031250 0.125000
vt 0.125000 0.031250
vt 0.250000 0.031250
vt 0.343750 0.125000
vt 0.343750 0.250000
vt 0.250000 0.343750
vt 0.125000 0.343750
vt 0.375000 0.562500
vt 0.250000 0.562500
vt 0.250000 0.625000
vt 0.375000 0.625000
vt 0.625000 0.562500
vt 0.625000 1.000000
vt 0.500000 1.000000
vt 0.500000 0.562500
vt 0.875000 0.562500
vt 0.875000 1.000000
vt 0.750000 1.000000
vt 0.750000 0.562500
vt 0.125000 0.562500
vt 0.125000 1.000000
vt 0.000000 1.000000
vt 0.000000 0.562500
vt 0.375000 1.000000
vt 0.250000 1.000000
vt 1.000000 0.562500
vt 1.000000 1.000000
vt 0.500000 0.500000
vt 0.375000 0.500000
vt 0.375000 0.531250
vt 0.500000 0.531250
vt 0.250000 0.500000
vt 0.250000 0.531250
vt 0.125000 0.500000
vt 0.125000 0.531250
vt 0.000000 0.500000
vt 0.000000 0.531250
vt 1.000000 0.500000
vt 0.875000 0.500000
vt 0.875000 0.531250
vt 1.000000 0.531250
vt 0.750000 0.500000
vt 0.750000 0.531250
vt 0.625000 0.500000
vt 0.625000 0.531250
vt 0.468750 0.031250
vt 0.593750 0.031250
vt 0.687500 0.125000
vt 0.531250 0.187499
vt 0.000000 0.625000
vt 0.125000 0.625000
vt 0.750000 0.625000
vt 0.875000 0.625000
vt 0.500000 0.625000
vt 0.625000 0.625000
vt 1.000000 0.625000
vt 0.593750 0.343750
vt 0.468750 0.343750
vt 0.375000 0.250000
vt 0.687500 0.250000
vt 0.375000 0.125000
s 0
usemtl TrashCanFull01
f 22/1/1 1/2/1 4/3/1
f 4/3/1 7/4/1 10/5/1
f 10/5/1 13/6/1 16/7/1
f 16/7/1 19/8/1 22/1/1
f 22/1/1 4/3/1 10/5/1
f 10/5/1 16/7/1 22/1/1
f 49/9/2 45/10/2 98/11/2
f 49/9/2 98/11/2 102/12/2
f 23/13/3 73/14/3 54/15/3
f 23/13/3 54/15/3 2/16/3
f 18/17/4 68/18/4 70/19/4
f 18/17/4 70/19/4 20/20/4
f 11/21/5 60/22/5 65/23/5
f 11/21/5 65/23/5 15/24/5
f 6/9/6 52/25/6 58/26/6
f 6/9/6 58/26/6 9/10/6
f 21/20/7 71/19/7 74/14/7
f 21/20/7 74/14/7 24/13/7
f 14/27/8 64/28/8 67/18/8
f 14/27/8 67/18/8 17/17/8
f 8/10/9 57/26/9 61/22/9
f 8/10/9 61/22/9 12/21/9
f 3/16/10 55/15/10 51/25/10
f 3/16/10 51/25/10 5/9/10
f 25/29/11 28/30/11 50/31/11
f 25/29/11 50/31/11 53/32/11
f 28/30/11 31/33/11 56/34/11
f 28/30/11 56/34/11 50/31/11
f 31/33/11 34/35/11 59/36/11
f 31/33/11 59/36/11 56/34/11
f 34/35/11 37/37/11 62/38/11
f 34/35/11 62/38/11 59/36/11
f 38/39/11 41/40/11 66/41/11
f 38/39/11 66/41/11 63/42/11
f 41/40/11 44/43/11 69/44/11
f 41/40/11 69/44/11 66/41/11
f 44/43/11 47/45/11 72/46/11
f 44/43/11 72/46/11 69/44/11
f 47/45/11 25/29/11 53/32/11
f 47/45/11 53/32/11 72/46/11
s 1
f 78/47/12 100/48/13 97/49/12
f 78/47/12 97/49/12 104/50/12
s 0
f 42/21/14 40/24/14 92/51/14
f 42/21/14 92/51/14 94/52/14
f 36/17/15 33/20/15 83/53/15
f 36/17/15 83/53/15 87/54/15
f 29/13/16 26/16/16 79/55/16
f 29/13/16 79/55/16 75/56/16
f 27/16/17 48/9/17 101/12/17
f 27/16/17 101/12/17 81/55/17
f 46/10/18 43/21/18 95/52/18
f 46/10/18 95/52/18 99/11/18
f 39/27/19 35/17/19 86/54/19
f 39/27/19 86/54/19 90/57/19
f 32/20/20 30/13/20 76/56/20
f 32/20/20 76/56/20 82/53/20
s 1
f 91/58/21 88/59/22 84/60/21
f 91/58/21 84/60/21 105/50/23
f 103/50/24 96/49/24 93/61/24
f 103/50/24 93/61/24 89/58/24
f 106/50/25 85/60/25 77/62/25
f 106/50/25 77/62/25 80/47/25
