# Blender 5.0.1
# www.blender.org
mtllib HorizontalPoster02.mtl
o HorizontalPoster02
v -0.195381 -0.149147 0.018955
v 0.198139 -0.148125 0.014011
v -0.200000 0.150000 -0.000000
v 0.200000 0.150000 -0.000000
v -0.200000 0.050000 -0.000000
v -0.197185 -0.050000 0.001843
v -0.066667 -0.150000 0.009898
v 0.066667 -0.150000 0.005940
v 0.198123 -0.050000 0.002072
v 0.200000 0.050000 -0.000000
v 0.066667 0.150000 -0.000000
v -0.066667 0.150000 -0.000000
v -0.066667 -0.050000 0.001981
v -0.066667 0.050000 -0.000000
v 0.066667 -0.050000 0.001981
v 0.066667 0.050000 -0.000000
vn -0.0000 -0.0000 1.0000
vn -0.0010 0.1701 0.9854
vn -0.0000 0.0184 0.9998
vn 0.0296 0.0789 0.9964
vn -0.0000 0.0198 0.9998
vn -0.0618 0.0395 0.9973
vn -0.0007 0.0198 0.9998
vn 0.0705 0.0787 0.9944
vn -0.0011 0.0198 0.9998
vn -0.0000 0.0396 0.9992
vn -0.0007 0.1208 0.9927
vn -0.0000 0.0207 0.9998
vt 1.000000 0.666667
vt 0.666667 1.000000
vt 0.666667 0.666667
vt 0.333333 0.666667
vt -0.000000 1.000000
vt 0.000000 0.666667
vt 0.333333 1.000000
vt -0.000000 -0.000000
vt 0.333333 0.333333
vt 0.000000 0.333333
vt 0.666667 0.000000
vt 0.333333 0.000000
vt 0.666667 0.333333
vt 1.000000 -0.000000
vt 1.000000 0.333333
vt 1.000000 1.000000
s 0
usemtl Material
f 10/1/1 11/2/1 16/3/1
f 14/4/1 3/5/1 5/6/1
f 16/3/1 12/7/1 14/4/1
f 1/8/2 13/9/2 6/10/2
f 6/10/3 14/4/3 5/6/3
f 8/11/4 13/9/4 7/12/4
f 15/13/5 14/4/5 13/9/5
f 2/14/6 15/13/6 8/11/6
f 9/15/7 16/3/7 15/13/7
f 10/1/1 4/16/1 11/2/1
f 14/4/1 12/7/1 3/5/1
f 16/3/1 11/2/1 12/7/1
f 1/8/8 7/12/8 13/9/8
f 6/10/9 13/9/9 14/4/9
f 8/11/10 15/13/10 13/9/10
f 15/13/5 16/3/5 14/4/5
f 2/14/11 9/15/11 15/13/11
f 9/15/12 10/1/12 16/3/12
