# Blender 5.0.1
# www.blender.org
mtllib VerticalPoster02.mtl
o VerticalPoster02
v -0.150000 0.200000 -0.000000
v -0.148867 -0.200000 0.016222
v 0.150000 0.200000 0.000000
v 0.151955 -0.200000 0.013471
v 0.050000 0.200000 0.000000
v -0.050000 0.200000 -0.000000
v -0.150000 0.066667 -0.000000
v -0.148121 -0.066667 0.002580
v -0.049606 -0.200000 0.010644
v 0.050000 -0.200000 0.005956
v 0.148039 -0.066667 0.006014
v 0.150000 0.066667 0.000000
v -0.050000 0.066667 -0.000000
v 0.050000 0.066667 0.000000
v -0.050000 -0.066667 0.002553
v 0.050000 -0.066667 0.002553
vn -0.0353 0.0255 0.9991
vn -0.0000 -0.0000 1.0000
vn -0.0000 0.0451 0.9990
vn -0.0000 0.0193 0.9998
vn -0.0000 0.0191 0.9998
vn 0.0003 0.0606 0.9982
vn -0.0000 0.0606 0.9982
vn -0.0734 0.0535 0.9959
vn -0.0353 0.0191 0.9992
vn 0.0003 0.0191 0.9998
vn 0.0558 0.1013 0.9933
vn 0.0470 0.0255 0.9986
vt 0.666667 0.000000
vt 1.000000 0.333333
vt 0.666667 0.333333
vt 0.666667 0.666667
vt 1.000000 1.000000
vt 0.666667 1.000000
vt 1.000000 0.666667
vt 0.000000 0.666667
vt 0.333333 1.000000
vt 0.000000 1.000000
vt 0.333333 0.666667
vt 0.000000 0.333333
vt 0.333333 0.333333
vt 0.333333 0.000000
vt 1.000000 0.000000
vt 0.000000 0.000000
s 0
usemtl Material.001
f 10/1/1 11/2/1 16/3/1
f 14/4/2 3/5/2 5/6/2
f 14/4/3 11/2/3 12/7/3
f 7/8/2 6/9/2 1/10/2
f 13/11/2 5/6/2 6/9/2
f 8/12/4 13/11/4 7/8/4
f 15/13/5 14/4/5 13/11/5
f 8/12/6 9/14/6 15/13/6
f 9/14/7 16/3/7 15/13/7
f 10/1/8 4/15/8 11/2/8
f 14/4/2 12/7/2 3/5/2
f 14/4/9 16/3/9 11/2/9
f 7/8/2 13/11/2 6/9/2
f 13/11/2 14/4/2 5/6/2
f 8/12/10 15/13/10 13/11/10
f 15/13/5 16/3/5 14/4/5
f 8/12/11 2/16/11 9/14/11
f 9/14/12 10/1/12 16/3/12
