# Blender 5.1.1
# www.blender.org
mtllib Stove.mtl
o Stove
v -0.400000 0.000000 0.400000
v -0.371565 1.012922 0.371565
v -0.400000 -0.000000 -0.400000
v -0.400000 1.000000 -0.400000
v 0.400000 0.000000 0.400000
v 0.400000 1.000000 0.400000
v 0.400000 -0.000000 -0.400000
v 0.400000 1.000000 -0.400000
v -0.400000 -0.000000 -0.300000
v -0.371565 1.012922 -0.271565
v 0.400000 -0.000000 -0.300000
v 0.400000 1.000000 -0.300000
v -0.400000 1.200000 -0.300000
v -0.400000 1.200000 -0.400000
v 0.400000 1.200000 -0.400000
v 0.400000 1.200000 -0.300000
v 0.328661 1.025649 0.215696
v 0.294435 1.025649 0.229873
v 0.280258 1.025649 0.264099
v 0.294435 1.025649 0.298325
v 0.328661 1.025649 0.312502
v 0.362887 1.025649 0.298325
v 0.377064 1.025649 0.264099
v 0.362887 1.025649 0.229873
v 0.294435 0.987799 0.229873
v 0.328661 0.987799 0.215696
v 0.280258 0.987799 0.264099
v 0.294435 0.987799 0.298325
v 0.328661 0.987799 0.312502
v 0.362887 0.987799 0.298325
v 0.377064 0.987799 0.264099
v 0.362887 0.987799 0.229873
v 0.328661 1.025649 0.070487
v 0.294435 1.025649 0.084664
v 0.280258 1.025649 0.118890
v 0.294435 1.025649 0.153116
v 0.328661 1.025649 0.167293
v 0.362887 1.025649 0.153116
v 0.377064 1.025649 0.118890
v 0.362887 1.025649 0.084664
v 0.294435 0.987799 0.084664
v 0.328661 0.987799 0.070487
v 0.280258 0.987799 0.118890
v 0.294435 0.987799 0.153116
v 0.328661 0.987799 0.167293
v 0.362887 0.987799 0.153116
v 0.377064 0.987799 0.118890
v 0.362887 0.987799 0.084664
v 0.328661 1.025649 -0.074723
v 0.294435 1.025649 -0.060546
v 0.280258 1.025649 -0.026320
v 0.294435 1.025649 0.007906
v 0.328661 1.025649 0.022083
v 0.362887 1.025649 0.007906
v 0.377064 1.025649 -0.026320
v 0.362887 1.025649 -0.060546
v 0.294435 0.987799 -0.060546
v 0.328661 0.987799 -0.074723
v 0.280258 0.987799 -0.026320
v 0.294435 0.987799 0.007906
v 0.328661 0.987799 0.022083
v 0.362887 0.987799 0.007906
v 0.377064 0.987799 -0.026320
v 0.362887 0.987799 -0.060546
v 0.328661 1.025649 -0.219932
v 0.294435 1.025649 -0.205755
v 0.280258 1.025649 -0.171529
v 0.294435 1.025649 -0.137303
v 0.328661 1.025649 -0.123126
v 0.362887 1.025649 -0.137303
v 0.377064 1.025649 -0.171529
v 0.362887 1.025649 -0.205755
v 0.294435 0.987799 -0.205755
v 0.328661 0.987799 -0.219932
v 0.280258 0.987799 -0.171529
v 0.294435 0.987799 -0.137303
v 0.328661 0.987799 -0.123126
v 0.362887 0.987799 -0.137303
v 0.377064 0.987799 -0.171529
v 0.362887 0.987799 -0.205755
v 0.091637 1.024765 0.125092
v 0.033437 1.024765 0.149199
v 0.009330 1.024765 0.207399
v 0.033437 1.024765 0.265599
v 0.091637 1.024765 0.289706
v 0.149837 1.024765 0.265599
v 0.173945 1.024765 0.207399
v 0.149837 1.024765 0.149199
v 0.033437 1.000873 0.149199
v 0.091637 1.000873 0.125092
v 0.009330 1.000873 0.207399
v 0.033437 1.000873 0.265599
v 0.091637 1.000873 0.289706
v 0.149837 1.000873 0.265599
v 0.173945 1.000873 0.207399
v 0.149837 1.000873 0.149199
v -0.199417 1.024765 0.093768
v -0.278324 1.024765 0.126452
v -0.311007 1.024765 0.205358
v -0.278324 1.024765 0.284264
v -0.199417 1.024765 0.316948
v -0.120511 1.024765 0.284264
v -0.087828 1.024765 0.205358
v -0.120511 1.024765 0.126452
v -0.278324 1.000873 0.126452
v -0.199417 1.000873 0.093768
v -0.311007 1.000873 0.205358
v -0.278324 1.000873 0.284264
v -0.199417 1.000873 0.316948
v -0.120511 1.000873 0.284264
v -0.087828 1.000873 0.205358
v -0.120511 1.000873 0.126452
v -0.203698 1.024765 -0.216985
v -0.290998 1.024765 -0.180824
v -0.327159 1.024765 -0.093524
v -0.290998 1.024765 -0.006224
v -0.203698 1.024765 0.029937
v -0.116398 1.024765 -0.006224
v -0.080237 1.024765 -0.093524
v -0.116398 1.024765 -0.180824
v -0.290998 1.000873 -0.180824
v -0.203698 1.000873 -0.216985
v -0.327159 1.000873 -0.093524
v -0.290998 1.000873 -0.006224
v -0.203698 1.000873 0.029937
v -0.116398 1.000873 -0.006224
v -0.080237 1.000873 -0.093524
v -0.116398 1.000873 -0.180824
v 0.091781 1.024765 -0.204639
v 0.013211 1.024765 -0.172094
v -0.019334 1.024765 -0.093524
v 0.013211 1.024765 -0.014954
v 0.091781 1.024765 0.017591
v 0.170351 1.024765 -0.014954
v 0.202896 1.024765 -0.093524
v 0.170351 1.024765 -0.172094
v 0.013211 1.000873 -0.172094
v 0.091781 1.000873 -0.204639
v -0.019334 1.000873 -0.093524
v 0.013211 1.000873 -0.014954
v 0.091781 1.000873 0.017591
v 0.170351 1.000873 -0.014954
v 0.202896 1.000873 -0.093524
v 0.170351 1.000873 -0.172094
v -0.350000 0.775061 0.444275
v -0.350000 0.845061 0.444275
v -0.350000 0.775061 0.391876
v -0.350000 0.845061 0.391876
v 0.350000 0.775061 0.444275
v 0.350000 0.845061 0.444275
v 0.350000 0.775061 0.391876
v 0.350000 0.845061 0.391876
v -0.274270 0.976147 0.430112
v -0.308496 0.961970 0.430112
v -0.322673 0.927744 0.430112
v -0.308496 0.893517 0.430112
v -0.274270 0.879340 0.430112
v -0.240044 0.893517 0.430112
v -0.225867 0.927744 0.430112
v -0.240044 0.961970 0.430112
v -0.308496 0.961970 0.392262
v -0.274270 0.976147 0.392262
v -0.322673 0.927744 0.392262
v -0.308496 0.893517 0.392262
v -0.274270 0.879340 0.392262
v -0.240044 0.893517 0.392262
v -0.225867 0.927744 0.392262
v -0.240044 0.961970 0.392262
v -0.129609 0.976147 0.430112
v -0.163835 0.961970 0.430112
v -0.178012 0.927744 0.430112
v -0.163835 0.893517 0.430112
v -0.129609 0.879340 0.430112
v -0.095383 0.893517 0.430112
v -0.081206 0.927744 0.430112
v -0.095383 0.961970 0.430112
v -0.163835 0.961970 0.392262
v -0.129609 0.976147 0.392262
v -0.178012 0.927744 0.392262
v -0.163835 0.893517 0.392262
v -0.129609 0.879340 0.392262
v -0.095383 0.893517 0.392262
v -0.081206 0.927744 0.392262
v -0.095383 0.961970 0.392262
v 0.237706 1.012922 0.371565
v 0.237245 1.012922 -0.271565
v 0.266162 1.000000 0.400000
v -0.400000 1.000000 0.400000
v -0.400000 1.000000 -0.300000
v 0.265660 1.000000 -0.300000
vn -1.0000 -0.0000 -0.0000
vn -0.0000 -0.0000 -1.0000
vn 1.0000 -0.0000 -0.0000
vn -0.0000 -0.0000 1.0000
vn -0.0000 -1.0000 -0.0000
vn -0.0000 1.0000 -0.0000
vn 0.3827 -0.0000 0.9239
vn -0.9239 -0.0000 0.3827
vn -0.3827 -0.0000 -0.9239
vn 0.3827 -0.0000 -0.9239
vn 0.9239 -0.0000 0.3827
vn -0.3827 -0.0000 0.9239
vn -0.9239 -0.0000 -0.3827
vn 0.9239 -0.0000 -0.3827
vn 0.3827 -0.9239 -0.0000
vn -0.9239 -0.3827 -0.0000
vn -0.3827 0.9239 -0.0000
vn 0.3827 0.9239 -0.0000
vn 0.9239 -0.3827 -0.0000
vn -0.3827 -0.9239 -0.0000
vn -0.9239 0.3827 -0.0000
vn 0.9239 0.3827 -0.0000
vn -0.0000 0.9104 0.4137
vn -0.4137 0.9104 -0.0000
vn -0.0000 0.9104 -0.4137
vn 0.4137 0.9104 -0.0003
vt 0.218750 0.250000
vt 0.187500 0.000000
vt 0.218750 0.000000
vt 0.187500 0.250000
vt 0.000000 -0.000000
vt 0.718750 0.250000
vt 0.562500 -0.000000
vt 0.718750 -0.000000
vt 0.562500 0.250000
vt 0.531132 0.250000
vt 0.375000 0.000000
vt 0.812500 0.156250
vt 1.000000 -0.000000
vt 1.000000 0.156250
vt 0.375000 0.250000
vt 0.406368 0.406250
vt 0.375000 0.406250
vt 0.250000 0.250000
vt 0.218750 0.312500
vt 0.812500 0.187500
vt 1.000000 0.187500
vt 0.750000 0.250000
vt 0.750000 -0.000000
vt 0.187500 0.312500
vt 0.000000 0.343750
vt 0.000000 0.312500
vt 0.000000 0.250000
vt 0.031486 0.343750
vt 0.000000 0.406250
vt 0.187500 0.406250
vt 0.875000 0.656250
vt 0.937500 0.656250
vt 0.937500 0.718750
vt 0.875000 0.718750
vt 0.781250 0.781250
vt 0.750000 0.812500
vt 0.750000 0.781250
vt 0.781250 0.718750
vt 0.750000 0.750000
vt 0.750000 0.718750
vt 0.781250 0.656250
vt 0.750000 0.687500
vt 0.750000 0.656250
vt 0.781250 0.875000
vt 0.750000 0.906250
vt 0.750000 0.875000
vt 0.781250 0.812500
vt 0.750000 0.843750
vt 0.781250 0.750000
vt 0.781250 0.687500
vt 0.781250 0.843750
vt 0.875000 0.843750
vt 0.937500 0.843750
vt 0.937500 0.906250
vt 0.875000 0.906250
vt 0.718750 0.781250
vt 0.687500 0.812500
vt 0.687500 0.781250
vt 0.718750 0.718750
vt 0.687500 0.750000
vt 0.687500 0.718750
vt 0.718750 0.656250
vt 0.687500 0.687500
vt 0.687500 0.656250
vt 0.718750 0.875000
vt 0.687500 0.906250
vt 0.687500 0.875000
vt 0.718750 0.812500
vt 0.687500 0.843750
vt 0.718750 0.750000
vt 0.718750 0.687500
vt 0.718750 0.843750
vt 0.718750 0.906250
vt 0.812500 0.312500
vt 0.781250 0.343750
vt 0.781250 0.312500
vt 1.000000 0.312500
vt 0.968750 0.343750
vt 0.968750 0.312500
vt 0.968750 0.281250
vt 0.812500 0.281250
vt 0.812500 0.375000
vt 0.968750 0.375000
vt 0.943211 0.418630
vt 0.869289 0.418630
vt 0.869900 0.493623
vt 0.781250 0.906250
vt 0.413146 0.256347
vt 0.555835 0.399903
vt 0.413038 0.399903
vt 0.562500 0.406250
vt 0.555835 0.256347
vt 0.406486 0.250000
vt 0.812500 0.000000
vt 0.250000 0.312500
vt 0.187500 0.343750
vt 0.906250 0.750000
vt 0.843750 0.687500
vt 0.906250 0.625000
vt 0.968750 0.687500
vt 0.906250 0.937500
vt 0.843750 0.875000
vt 0.906250 0.812500
vt 0.968750 0.875000
vt 0.812500 0.343750
vt 1.000000 0.343750
vt 0.906250 0.508494
vt 0.942601 0.493623
vt 0.958259 0.456412
vt 0.906250 0.402921
vt 0.854241 0.456412
s 1
usemtl Stove
f 189/1/1 3/2/1 9/3/1
f 4/4/2 7/5/2 3/2/2
f 12/6/3 5/7/3 11/8/3
f 6/9/4 187/10/4 1/11/4
f 11/12/5 1/13/5 9/14/5
f 12/15/6 187/16/6 6/17/6
f 189/18/1 14/19/1 4/1/1
f 7/20/5 9/14/5 3/21/5
f 8/22/3 11/8/3 7/23/3
f 188/15/1 9/3/1 1/11/1
f 14/24/6 16/25/6 15/26/6
f 4/4/2 15/26/2 8/27/2
f 190/28/4 16/29/4 13/30/4
f 8/1/3 16/24/3 12/4/3
f 20/31/6 22/32/6 24/33/6
f 30/32/5 28/31/5 25/34/5
f 29/35/7 22/36/7 21/37/7
f 27/38/8 20/39/8 19/40/8
f 26/41/9 18/42/9 17/43/9
f 32/44/10 17/45/10 24/46/10
f 30/47/11 23/48/11 22/36/11
f 28/49/12 21/37/12 20/39/12
f 25/50/13 19/40/13 18/42/13
f 31/51/14 24/46/14 23/48/14
f 36/31/6 38/32/6 40/33/6
f 46/32/5 44/31/5 41/34/5
f 45/35/7 38/36/7 37/37/7
f 43/38/8 36/39/8 35/40/8
f 42/41/9 34/42/9 33/43/9
f 48/44/10 33/45/10 40/46/10
f 46/47/11 39/48/11 38/36/11
f 44/49/12 37/37/12 36/39/12
f 41/50/13 35/40/13 34/42/13
f 47/51/14 40/46/14 39/48/14
f 52/31/6 54/32/6 56/33/6
f 62/32/5 60/31/5 57/34/5
f 61/35/7 54/36/7 53/37/7
f 59/38/8 52/39/8 51/40/8
f 58/41/9 50/42/9 49/43/9
f 64/44/10 49/45/10 56/46/10
f 62/47/11 55/48/11 54/36/11
f 60/49/12 53/37/12 52/39/12
f 57/50/13 51/40/13 50/42/13
f 63/51/14 56/46/14 55/48/14
f 68/31/6 70/32/6 72/33/6
f 78/32/5 76/31/5 73/34/5
f 77/35/7 70/36/7 69/37/7
f 75/38/8 68/39/8 67/40/8
f 74/41/9 66/42/9 65/43/9
f 80/44/10 65/45/10 72/46/10
f 78/47/11 71/48/11 70/36/11
f 76/49/12 69/37/12 68/39/12
f 73/50/13 67/40/13 66/42/13
f 79/51/14 72/46/14 71/48/14
f 84/52/6 86/53/6 88/54/6
f 94/53/5 92/52/5 89/55/5
f 93/56/7 86/57/7 85/58/7
f 91/59/8 84/60/8 83/61/8
f 90/62/9 82/63/9 81/64/9
f 96/65/10 81/66/10 88/67/10
f 94/68/11 87/69/11 86/57/11
f 92/70/12 85/58/12 84/60/12
f 89/71/13 83/61/13 82/63/13
f 95/72/14 88/67/14 87/69/14
f 100/52/6 102/53/6 104/54/6
f 110/53/5 108/52/5 105/55/5
f 109/56/7 102/57/7 101/58/7
f 107/59/8 100/60/8 99/61/8
f 106/62/9 98/63/9 97/64/9
f 112/65/10 97/66/10 104/67/10
f 110/68/11 103/69/11 102/57/11
f 108/70/12 101/58/12 100/60/12
f 105/71/13 99/61/13 98/63/13
f 111/72/14 104/67/14 103/69/14
f 116/52/6 118/53/6 120/54/6
f 126/53/5 124/52/5 121/55/5
f 125/56/7 118/57/7 117/58/7
f 123/59/8 116/60/8 115/61/8
f 122/62/9 114/63/9 113/64/9
f 128/65/10 113/66/10 120/67/10
f 126/68/11 119/69/11 118/57/11
f 124/70/12 117/58/12 116/60/12
f 121/71/13 115/61/13 114/63/13
f 127/72/14 120/67/14 119/69/14
f 132/52/6 134/53/6 136/54/6
f 142/53/5 140/52/5 137/55/5
f 141/58/7 134/70/7 133/56/7
f 139/69/8 132/68/8 131/72/8
f 138/66/9 130/65/9 129/73/9
f 144/63/10 129/62/10 136/71/10
f 142/60/11 135/59/11 134/70/11
f 140/57/12 133/56/12 132/68/12
f 137/67/13 131/72/13 130/65/13
f 143/61/14 136/71/14 135/59/14
f 146/74/1 147/75/1 145/76/1
f 152/77/3 149/78/3 151/79/3
f 150/78/4 145/74/4 149/79/4
f 151/80/5 145/74/5 147/81/5
f 148/82/6 150/78/6 152/83/6
f 156/31/4 158/32/4 160/33/4
f 166/84/2 164/85/2 161/86/2
f 165/35/15 158/40/15 157/37/15
f 163/87/16 156/48/16 155/45/16
f 162/50/17 154/36/17 153/42/17
f 168/49/18 153/46/18 160/39/18
f 166/38/19 159/43/19 158/40/19
f 164/51/20 157/37/20 156/48/20
f 154/36/21 163/87/21 155/45/21
f 167/41/22 160/39/22 159/43/22
f 172/31/4 174/32/4 176/33/4
f 182/84/2 180/85/2 177/86/2
f 181/35/15 174/40/15 173/37/15
f 171/45/16 180/51/16 172/48/16
f 178/50/17 170/36/17 169/42/17
f 184/49/18 169/46/18 176/39/18
f 182/38/19 175/43/19 174/40/19
f 180/51/20 173/37/20 172/48/20
f 170/36/21 179/87/21 171/45/21
f 183/41/22 176/39/22 175/43/22
f 186/88/6 2/89/6 185/90/6
f 185/90/23 188/91/23 187/16/23
f 10/92/24 188/91/24 2/89/24
f 10/92/25 190/93/25 189/9/25
f 185/90/26 190/93/26 186/88/26
f 189/1/1 4/4/1 3/2/1
f 4/4/2 8/27/2 7/5/2
f 12/6/3 6/9/3 5/7/3
f 1/11/4 5/7/4 6/9/4
f 187/10/4 188/15/4 1/11/4
f 11/12/5 5/94/5 1/13/5
f 12/15/6 190/93/6 187/16/6
f 189/18/1 13/95/1 14/19/1
f 7/20/5 11/12/5 9/14/5
f 8/22/3 12/6/3 11/8/3
f 188/15/1 189/1/1 9/3/1
f 14/24/6 13/96/6 16/25/6
f 4/4/2 14/24/2 15/26/2
f 13/30/4 189/96/4 190/28/4
f 190/28/4 12/25/4 16/29/4
f 8/1/3 15/19/3 16/24/3
f 24/33/6 17/97/6 18/34/6
f 18/34/6 19/98/6 20/31/6
f 20/31/6 21/99/6 22/32/6
f 22/32/6 23/100/6 24/33/6
f 24/33/6 18/34/6 20/31/6
f 25/34/5 26/97/5 32/33/5
f 32/33/5 31/100/5 30/32/5
f 30/32/5 29/99/5 28/31/5
f 28/31/5 27/98/5 25/34/5
f 25/34/5 32/33/5 30/32/5
f 29/35/7 30/47/7 22/36/7
f 27/38/8 28/49/8 20/39/8
f 26/41/9 25/50/9 18/42/9
f 32/44/10 26/87/10 17/45/10
f 30/47/11 31/51/11 23/48/11
f 28/49/12 29/35/12 21/37/12
f 25/50/13 27/38/13 19/40/13
f 31/51/14 32/44/14 24/46/14
f 40/33/6 33/97/6 34/34/6
f 34/34/6 35/98/6 36/31/6
f 36/31/6 37/99/6 38/32/6
f 38/32/6 39/100/6 40/33/6
f 40/33/6 34/34/6 36/31/6
f 41/34/5 42/97/5 48/33/5
f 48/33/5 47/100/5 46/32/5
f 46/32/5 45/99/5 44/31/5
f 44/31/5 43/98/5 41/34/5
f 41/34/5 48/33/5 46/32/5
f 45/35/7 46/47/7 38/36/7
f 43/38/8 44/49/8 36/39/8
f 42/41/9 41/50/9 34/42/9
f 48/44/10 42/87/10 33/45/10
f 46/47/11 47/51/11 39/48/11
f 44/49/12 45/35/12 37/37/12
f 41/50/13 43/38/13 35/40/13
f 47/51/14 48/44/14 40/46/14
f 56/33/6 49/97/6 50/34/6
f 50/34/6 51/98/6 52/31/6
f 52/31/6 53/99/6 54/32/6
f 54/32/6 55/100/6 56/33/6
f 56/33/6 50/34/6 52/31/6
f 57/34/5 58/97/5 64/33/5
f 64/33/5 63/100/5 62/32/5
f 62/32/5 61/99/5 60/31/5
f 60/31/5 59/98/5 57/34/5
f 57/34/5 64/33/5 62/32/5
f 61/35/7 62/47/7 54/36/7
f 59/38/8 60/49/8 52/39/8
f 58/41/9 57/50/9 50/42/9
f 64/44/10 58/87/10 49/45/10
f 62/47/11 63/51/11 55/48/11
f 60/49/12 61/35/12 53/37/12
f 57/50/13 59/38/13 51/40/13
f 63/51/14 64/44/14 56/46/14
f 72/33/6 65/97/6 66/34/6
f 66/34/6 67/98/6 68/31/6
f 68/31/6 69/99/6 70/32/6
f 70/32/6 71/100/6 72/33/6
f 72/33/6 66/34/6 68/31/6
f 73/34/5 74/97/5 80/33/5
f 80/33/5 79/100/5 78/32/5
f 78/32/5 77/99/5 76/31/5
f 76/31/5 75/98/5 73/34/5
f 73/34/5 80/33/5 78/32/5
f 77/35/7 78/47/7 70/36/7
f 75/38/8 76/49/8 68/39/8
f 74/41/9 73/50/9 66/42/9
f 80/44/10 74/87/10 65/45/10
f 78/47/11 79/51/11 71/48/11
f 76/49/12 77/35/12 69/37/12
f 73/50/13 75/38/13 67/40/13
f 79/51/14 80/44/14 72/46/14
f 88/54/6 81/101/6 82/55/6
f 82/55/6 83/102/6 84/52/6
f 84/52/6 85/103/6 86/53/6
f 86/53/6 87/104/6 88/54/6
f 88/54/6 82/55/6 84/52/6
f 89/55/5 90/101/5 96/54/5
f 96/54/5 95/104/5 94/53/5
f 94/53/5 93/103/5 92/52/5
f 92/52/5 91/102/5 89/55/5
f 89/55/5 96/54/5 94/53/5
f 93/56/7 94/68/7 86/57/7
f 91/59/8 92/70/8 84/60/8
f 90/62/9 89/71/9 82/63/9
f 96/65/10 90/73/10 81/66/10
f 94/68/11 95/72/11 87/69/11
f 92/70/12 93/56/12 85/58/12
f 89/71/13 91/59/13 83/61/13
f 95/72/14 96/65/14 88/67/14
f 104/54/6 97/101/6 98/55/6
f 98/55/6 99/102/6 100/52/6
f 100/52/6 101/103/6 102/53/6
f 102/53/6 103/104/6 104/54/6
f 104/54/6 98/55/6 100/52/6
f 105/55/5 106/101/5 112/54/5
f 112/54/5 111/104/5 110/53/5
f 110/53/5 109/103/5 108/52/5
f 108/52/5 107/102/5 105/55/5
f 105/55/5 112/54/5 110/53/5
f 109/56/7 110/68/7 102/57/7
f 107/59/8 108/70/8 100/60/8
f 106/62/9 105/71/9 98/63/9
f 112/65/10 106/73/10 97/66/10
f 110/68/11 111/72/11 103/69/11
f 108/70/12 109/56/12 101/58/12
f 105/71/13 107/59/13 99/61/13
f 111/72/14 112/65/14 104/67/14
f 120/54/6 113/101/6 114/55/6
f 114/55/6 115/102/6 116/52/6
f 116/52/6 117/103/6 118/53/6
f 118/53/6 119/104/6 120/54/6
f 120/54/6 114/55/6 116/52/6
f 121/55/5 122/101/5 128/54/5
f 128/54/5 127/104/5 126/53/5
f 126/53/5 125/103/5 124/52/5
f 124/52/5 123/102/5 121/55/5
f 121/55/5 128/54/5 126/53/5
f 125/56/7 126/68/7 118/57/7
f 123/59/8 124/70/8 116/60/8
f 122/62/9 121/71/9 114/63/9
f 128/65/10 122/73/10 113/66/10
f 126/68/11 127/72/11 119/69/11
f 124/70/12 125/56/12 117/58/12
f 121/71/13 123/59/13 115/61/13
f 127/72/14 128/65/14 120/67/14
f 136/54/6 129/101/6 130/55/6
f 130/55/6 131/102/6 132/52/6
f 132/52/6 133/103/6 134/53/6
f 134/53/6 135/104/6 136/54/6
f 136/54/6 130/55/6 132/52/6
f 137/55/5 138/101/5 144/54/5
f 144/54/5 143/104/5 142/53/5
f 142/53/5 141/103/5 140/52/5
f 140/52/5 139/102/5 137/55/5
f 137/55/5 144/54/5 142/53/5
f 141/58/7 142/60/7 134/70/7
f 139/69/8 140/57/8 132/68/8
f 138/66/9 137/67/9 130/65/9
f 144/63/10 138/64/10 129/62/10
f 142/60/11 143/61/11 135/59/11
f 140/57/12 141/58/12 133/56/12
f 137/67/13 139/69/13 131/72/13
f 143/61/14 144/63/14 136/71/14
f 146/74/1 148/105/1 147/75/1
f 152/77/3 150/106/3 149/78/3
f 150/78/4 146/105/4 145/74/4
f 151/80/5 149/79/5 145/74/5
f 148/82/6 146/105/6 150/78/6
f 160/33/4 153/97/4 154/34/4
f 154/34/4 155/98/4 156/31/4
f 156/31/4 157/99/4 158/32/4
f 158/32/4 159/100/4 160/33/4
f 160/33/4 154/34/4 156/31/4
f 161/86/2 162/107/2 168/108/2
f 168/108/2 167/109/2 166/84/2
f 166/84/2 165/110/2 164/85/2
f 164/85/2 163/111/2 161/86/2
f 161/86/2 168/108/2 166/84/2
f 165/35/15 166/38/15 158/40/15
f 163/87/16 164/51/16 156/48/16
f 162/50/17 161/47/17 154/36/17
f 168/49/18 162/44/18 153/46/18
f 166/38/19 167/41/19 159/43/19
f 164/51/20 165/35/20 157/37/20
f 154/36/21 161/47/21 163/87/21
f 167/41/22 168/49/22 160/39/22
f 176/33/4 169/97/4 170/34/4
f 170/34/4 171/98/4 172/31/4
f 172/31/4 173/99/4 174/32/4
f 174/32/4 175/100/4 176/33/4
f 176/33/4 170/34/4 172/31/4
f 177/86/2 178/107/2 184/108/2
f 184/108/2 183/109/2 182/84/2
f 182/84/2 181/110/2 180/85/2
f 180/85/2 179/111/2 177/86/2
f 177/86/2 184/108/2 182/84/2
f 181/35/15 182/38/15 174/40/15
f 171/45/16 179/87/16 180/51/16
f 178/50/17 177/47/17 170/36/17
f 184/49/18 178/44/18 169/46/18
f 182/38/19 183/41/19 175/43/19
f 180/51/20 181/35/20 173/37/20
f 170/36/21 177/47/21 179/87/21
f 183/41/22 184/49/22 176/39/22
f 186/88/6 10/92/6 2/89/6
f 185/90/23 2/89/23 188/91/23
f 10/92/24 189/9/24 188/91/24
f 10/92/25 186/88/25 190/93/25
f 185/90/26 187/16/26 190/93/26
