# Blender 5.1.1
# www.blender.org
mtllib CeilingLightRound.mtl
o CeilingLightRound
v 0.000000 -0.000000 -0.066000
v 0.042426 -0.012000 -0.042426
v 0.000000 -0.012000 -0.066000
v 0.060000 -0.012000 0.000000
v -0.046669 -0.012000 -0.046669
v 0.042426 -0.012000 0.042426
v -0.066000 -0.012000 0.000000
v 0.000000 -0.012000 0.060000
v -0.046669 -0.012000 0.046669
v -0.042426 -0.012000 0.042426
v 0.000000 -0.012000 0.066000
v -0.060000 -0.012000 0.000000
v 0.046669 -0.012000 0.046669
v -0.042426 -0.012000 -0.042426
v 0.066000 -0.012000 0.000000
v 0.046669 -0.012000 -0.046669
v 0.000000 -0.012000 -0.060000
v -0.046669 -0.000000 -0.046669
v -0.066000 0.000000 0.000000
v -0.046669 0.000000 0.046669
v 0.000000 0.000000 0.066000
v 0.046669 0.000000 0.046669
v 0.066000 0.000000 0.000000
v 0.046669 -0.000000 -0.046669
v 0.030000 -0.031637 -0.030000
v 0.042426 -0.031637 0.000000
v 0.030000 -0.031637 0.030000
v 0.000000 -0.031637 0.042426
v -0.030000 -0.031637 0.030000
v 0.000000 -0.043916 0.000000
v -0.042426 -0.031637 0.000000
v -0.030000 -0.031637 -0.030000
v 0.000000 -0.031637 -0.042426
vn 0.9239 -0.0000 -0.3827
vn 0.9239 -0.0000 0.3827
vn 0.3827 -0.0000 -0.9239
vn -0.3827 -0.0000 0.9239
vn -0.9239 -0.0000 0.3827
vn -0.9239 -0.0000 -0.3827
vn -0.3827 -0.0000 -0.9239
vn 0.3827 -0.0000 0.9239
vn -0.0000 -1.0000 -0.0000
vn 0.1144 -0.9543 -0.2762
vn 0.2949 -0.6372 -0.7120
vn 0.2762 -0.9543 -0.1144
vn 0.7120 -0.6372 -0.2949
vn 0.2762 -0.9543 0.1144
vn 0.7120 -0.6372 0.2949
vn 0.1144 -0.9543 0.2762
vn 0.2949 -0.6372 0.7120
vn -0.1144 -0.9543 0.2762
vn -0.2949 -0.6372 0.7120
vn -0.2762 -0.9543 0.1144
vn -0.7120 -0.6372 0.2949
vn -0.7120 -0.6372 -0.2949
vn -0.2762 -0.9543 -0.1144
vn -0.2949 -0.6372 -0.7120
vn -0.1144 -0.9543 -0.2762
vt 0.250000 0.875000
vt -0.000000 1.000000
vt -0.000000 0.875000
vt 1.000000 0.875000
vt 0.750000 1.000000
vt 0.750000 0.875000
vt 0.500000 1.000000
vt 0.500000 0.875000
vt 0.250000 1.000000
vt 1.000000 1.000000
vt 0.500000 0.750000
vt -0.000000 0.750000
vt 0.250000 0.750000
vt 1.000000 0.750000
vt 0.750000 0.750000
vt 0.687500 0.375000
vt 0.750000 0.500000
vt 0.625000 0.500000
vt 0.250000 0.625000
vt 0.500000 0.625000
vt 0.562500 0.375000
vt 0.500000 0.500000
vt 0.000000 0.625000
vt 0.437500 0.375000
vt 0.375000 0.500000
vt 1.000000 0.625000
vt 1.000000 0.500000
vt 0.312500 0.375000
vt 0.250000 0.500000
vt 0.750000 0.625000
vt 0.187500 0.375000
vt 0.125000 0.500000
vt 0.062500 0.375000
vt 0.000000 0.500000
vt 0.937500 0.375000
vt 0.875000 0.500000
vt 0.812500 0.375000
s 0
usemtl 32x32grid
f 16/1/1 23/2/1 15/3/1
f 15/4/2 22/5/2 13/6/2
f 3/1/3 24/7/3 16/8/3
f 11/8/4 20/9/4 9/1/4
f 9/3/5 19/9/5 7/1/5
f 7/6/6 18/10/6 5/4/6
f 5/8/7 1/5/7 3/6/7
f 13/6/8 21/7/8 11/8/8
f 2/6/9 15/11/9 4/8/9
f 10/6/9 7/11/9 12/8/9
f 6/1/9 11/12/9 8/3/9
f 14/1/9 7/11/9 5/13/9
f 10/6/9 11/14/9 9/15/9
f 14/1/9 3/12/9 17/3/9
f 2/6/9 3/14/9 16/15/9
f 6/1/9 15/11/9 13/13/9
f 16/1/1 24/9/1 23/2/1
f 15/4/2 23/10/2 22/5/2
f 3/1/3 1/9/3 24/7/3
f 11/8/4 21/7/4 20/9/4
f 9/3/5 20/2/5 19/9/5
f 7/6/6 19/5/6 18/10/6
f 5/8/7 18/7/7 1/5/7
f 13/6/8 22/5/8 21/7/8
f 2/6/9 16/15/9 15/11/9
f 10/6/9 9/15/9 7/11/9
f 6/1/9 13/13/9 11/12/9
f 14/1/9 12/8/9 7/11/9
f 10/6/9 8/4/9 11/14/9
f 14/1/9 5/13/9 3/12/9
f 2/6/9 17/4/9 3/14/9
f 6/1/9 4/8/9 15/11/9
usemtl 32x32grid
f 30/16/10 33/17/10 25/18/10
f 17/11/11 25/19/11 33/20/11
f 30/21/12 25/18/12 26/22/12
f 2/13/13 26/23/13 25/19/13
f 30/24/14 26/22/14 27/25/14
f 4/26/15 27/17/15 26/27/15
f 30/28/16 27/25/16 28/29/16
f 6/30/17 28/22/17 27/17/17
f 30/31/18 28/29/18 29/32/18
f 8/20/19 29/29/19 28/22/19
f 30/33/20 29/32/20 31/34/20
f 10/19/21 31/34/21 29/29/21
f 12/14/22 32/30/22 31/26/22
f 30/35/23 31/27/23 32/36/23
f 14/15/24 33/20/24 32/30/24
f 30/37/25 32/36/25 33/17/25
f 17/11/11 2/13/11 25/19/11
f 2/13/13 4/12/13 26/23/13
f 4/26/15 6/30/15 27/17/15
f 6/30/17 8/20/17 28/22/17
f 8/20/19 10/19/19 29/29/19
f 10/19/21 12/23/21 31/34/21
f 12/14/22 14/15/22 32/30/22
f 14/15/24 17/11/24 33/20/24
