# Blender 5.1.1
# www.blender.org
mtllib Ladle.mtl
o Ladle
v 0.000001 0.037658 -0.062507
v -0.044196 0.037717 -0.044198
v -0.062504 0.037802 0.000001
v -0.044198 0.037862 0.044200
v -0.000001 0.037862 0.062507
v 0.044196 0.037802 0.044198
v 0.062504 0.037717 -0.000001
v 0.044198 0.037658 -0.044200
v -0.024109 0.008832 -0.024109
v 0.000000 0.008832 -0.034095
v -0.034095 0.008832 -0.000000
v -0.024109 0.008832 0.024109
v 0.000000 0.008832 0.034095
v 0.024109 0.008832 0.024109
v 0.034095 0.008832 -0.000000
v 0.024109 0.008832 -0.024109
v 0.000000 0.037645 -0.072000
v -0.050912 0.037645 -0.050912
v -0.072000 0.037645 -0.000000
v -0.050912 0.037645 0.050912
v 0.000000 0.037645 0.072000
v 0.050912 0.037645 0.050912
v 0.072000 0.037645 -0.000000
v 0.050912 0.037645 -0.050912
v -0.027136 -0.000000 -0.027136
v 0.000000 -0.000000 -0.038376
v -0.038376 0.000000 0.000000
v -0.027136 0.000000 0.027136
v 0.000000 0.000000 0.038376
v 0.027136 0.000000 0.027136
v 0.038376 0.000000 0.000000
v 0.027136 -0.000000 -0.027136
v 0.009988 0.045529 -0.062829
v 0.037364 0.045529 -0.051490
v 0.012033 0.043859 -0.071493
v 0.042044 0.043859 -0.059062
v 0.029821 0.318273 -0.110711
v 0.057198 0.318273 -0.099371
v 0.031866 0.316603 -0.119374
v 0.061878 0.316603 -0.106943
v 0.036821 0.336330 -0.127610
v 0.064197 0.336330 -0.116270
v 0.036650 0.327902 -0.130923
v 0.066661 0.327902 -0.118492
vn -0.0000 1.0000 -0.0000
vn 0.2835 0.6729 0.6832
vn 0.2830 0.6733 0.6831
vn 0.2840 0.6727 0.6833
vn 0.6844 0.6720 0.2828
vn 0.6839 0.6724 0.2830
vn 0.6849 0.6717 0.2824
vn 0.6848 0.6711 -0.2841
vn 0.6847 0.6714 -0.2837
vn 0.6848 0.6708 -0.2846
vn 0.2838 0.6707 -0.6853
vn -0.2833 0.6711 -0.6851
vn -0.2834 0.6713 -0.6848
vn -0.2836 0.6714 -0.6847
vn -0.6838 0.6724 -0.2834
vn -0.6838 0.6723 -0.2835
vn -0.6838 0.6725 -0.2832
vn -0.6836 0.6729 0.2826
vn -0.6834 0.6731 0.2827
vn -0.6831 0.6733 0.2829
vn -0.2829 0.6733 0.6831
vn -0.0000 -1.0000 -0.0000
vn -0.2952 -0.6365 -0.7126
vn -0.7126 -0.6365 -0.2952
vn -0.7126 -0.6365 0.2952
vn -0.2952 -0.6365 0.7126
vn 0.2952 -0.6365 0.7126
vn 0.7126 -0.6365 0.2952
vn 0.7126 -0.6365 -0.2952
vn 0.2952 -0.6365 -0.7126
vn -0.0125 0.9999 -0.0075
vn -0.0031 1.0000 -0.0076
vn -0.0054 1.0000 -0.0054
vn -0.0098 0.9999 -0.0045
vn -0.0165 0.9998 -0.0088
vn -0.0219 0.9997 0.0080
vn -0.0183 0.9998 0.0072
vn -0.0238 0.9997 0.0085
vn -0.0095 0.9997 0.0229
vn 0.0097 0.9997 0.0211
vn 0.0078 0.9998 0.0181
vn 0.0068 0.9998 0.0165
vn 0.0026 1.0000 -0.0011
vn 0.0076 1.0000 0.0031
vn 0.0076 1.0000 -0.0000
vn 0.0058 1.0000 -0.0028
vn 0.0004 1.0000 -0.0015
vn 0.3186 -0.5541 -0.7691
vn 0.8532 0.0294 0.5208
vn -0.3390 0.4637 0.8186
vn -0.3390 0.4637 0.8185
vn -0.4331 0.8605 -0.2681
vn 0.4384 0.7854 0.4370
vn 0.8559 0.1354 0.4991
vn 0.3760 -0.1867 -0.9076
vn 0.3759 -0.1867 -0.9076
vn -0.9716 0.0294 -0.2350
vn -0.9715 0.0294 -0.2350
vn -0.3759 0.1867 0.9076
vn -0.3760 0.1867 0.9076
vn 0.3606 0.3349 -0.8705
vn 0.2566 -0.7419 -0.6195
vn -0.9541 0.1262 -0.2718
vn -0.2689 0.7116 0.6491
vn -0.2688 0.7117 0.6491
vn 0.2829 0.6733 0.6831
vn 0.6838 0.6725 0.2832
vn 0.6847 0.6714 -0.2836
vn 0.2839 0.6707 -0.6853
vn -0.2830 0.6709 -0.6855
vn -0.6840 0.6716 -0.2846
vn -0.6839 0.6727 0.2824
vn 0.0008 1.0000 -0.0014
vn -0.0165 0.9998 0.0068
vn 0.0108 0.9997 0.0229
vn 0.0179 0.9998 0.0055
vn -0.6189 0.7854 -0.0005
vn 0.4958 0.8606 0.1166
vn 0.8668 0.1262 0.4825
vn -0.9581 0.1353 -0.2523
vt 0.125000 0.125000
vt 0.375000 0.125000
vt 0.375000 0.375000
vt 0.125000 0.750000
vt 0.000000 1.000000
vt 0.125000 1.000000
vt 0.250000 0.750000
vt 0.250000 1.000000
vt 0.375000 0.750000
vt 0.375000 1.000000
vt 0.500000 1.000000
vt 0.500000 0.750000
vt 0.625000 1.000000
vt 0.625000 0.750000
vt 0.750000 1.000000
vt 0.750000 0.750000
vt 0.875000 1.000000
vt 0.875000 0.750000
vt 1.000000 1.000000
vt 1.000000 0.750000
vt 0.625000 0.375000
vt 0.875000 0.375000
vt 0.875000 0.125000
vt 0.000000 0.750000
vt 0.125000 0.875000
vt 0.000000 0.875000
vt 0.250000 0.875000
vt 0.375000 0.875000
vt 0.500000 0.875000
vt 0.625000 0.875000
vt 0.750000 0.875000
vt 0.875000 0.875000
vt 1.000000 0.875000
vt -0.000000 0.625000
vt 0.875000 0.500000
vt 0.875000 0.625000
vt 1.000000 0.625000
vt -0.000000 0.500000
vt 1.000000 0.500000
vt 0.250000 0.500000
vt 0.125000 0.375000
vt 0.000000 0.250000
vt 0.250000 0.000000
vt 0.500000 0.250000
vt 0.750000 0.000000
vt 0.625000 0.125000
vt 0.750000 0.500000
vt 1.000000 0.250000
s 1
usemtl Ladle
f 12/1/1 14/2/1 16/3/1
f 9/4/2 1/5/3 2/6/4
f 11/7/5 2/6/6 3/8/7
f 12/9/8 3/8/9 4/10/10
f 12/9/11 5/11/11 13/12/11
f 13/12/12 6/13/13 14/14/14
f 14/14/15 7/15/16 15/16/17
f 15/16/18 8/17/19 16/18/20
f 16/18/21 1/19/21 10/20/21
f 30/21/22 28/22/22 25/23/22
f 25/4/23 17/5/23 26/24/23
f 19/8/24 25/4/24 27/7/24
f 28/9/25 19/8/25 27/7/25
f 29/12/26 20/10/26 28/9/26
f 30/14/27 21/11/27 29/12/27
f 23/15/28 30/14/28 31/16/28
f 24/17/29 31/16/29 32/18/29
f 26/20/30 24/17/30 32/18/30
f 2/25/31 17/5/32 18/26/33
f 2/8/31 19/25/34 3/27/35
f 3/10/36 20/27/37 4/28/38
f 4/10/39 21/29/39 5/11/39
f 6/13/40 21/29/41 22/30/42
f 7/13/43 22/31/44 23/15/45
f 7/31/43 24/17/46 8/15/47
f 17/32/48 36/19/48 24/33/48
f 34/34/49 40/35/49 38/36/49
f 1/32/50 34/19/51 33/17/50
f 17/33/52 33/17/52 35/32/52
f 24/32/53 34/19/53 8/17/53
f 40/35/54 42/37/54 38/36/54
f 36/34/55 39/18/56 40/36/56
f 33/34/57 39/35/58 35/38/57
f 34/34/59 37/18/60 33/24/59
f 42/36/61 43/39/61 41/37/61
f 39/36/62 44/20/62 40/18/62
f 39/35/63 41/37/63 43/36/63
f 38/18/64 41/37/64 37/36/65
f 16/3/1 10/40/1 9/41/1
f 9/41/1 11/42/1 12/1/1
f 12/1/1 13/43/1 14/2/1
f 14/2/1 15/44/1 16/3/1
f 16/3/1 9/41/1 12/1/1
f 9/4/2 10/24/66 1/5/3
f 11/7/5 9/4/67 2/6/6
f 12/9/8 11/7/68 3/8/9
f 12/9/11 4/10/69 5/11/11
f 13/12/12 5/11/70 6/13/13
f 14/14/15 6/13/71 7/15/16
f 15/16/18 7/15/72 8/17/19
f 16/18/21 8/17/21 1/19/21
f 25/23/22 26/45/22 32/46/22
f 32/46/22 31/44/22 30/21/22
f 30/21/22 29/47/22 28/22/22
f 28/22/22 27/48/22 25/23/22
f 25/23/22 32/46/22 30/21/22
f 25/4/23 18/6/23 17/5/23
f 19/8/24 18/6/24 25/4/24
f 28/9/25 20/10/25 19/8/25
f 29/12/26 21/11/26 20/10/26
f 30/14/27 22/13/27 21/11/27
f 23/15/28 22/13/28 30/14/28
f 24/17/29 23/15/29 31/16/29
f 26/20/30 17/19/30 24/17/30
f 2/25/73 1/6/73 17/5/73
f 2/8/31 18/6/33 19/25/34
f 3/10/36 19/8/74 20/27/37
f 4/10/39 20/28/39 21/29/39
f 6/13/40 5/11/75 21/29/41
f 7/13/76 6/30/76 22/31/76
f 7/31/43 23/32/45 24/17/46
f 17/32/48 35/17/48 36/19/48
f 34/34/49 36/38/49 40/35/49
f 1/32/50 8/33/51 34/19/51
f 17/33/77 1/19/77 33/17/77
f 24/32/78 36/33/78 34/19/78
f 40/35/79 44/39/79 42/37/79
f 36/34/55 35/24/55 39/18/56
f 33/34/57 37/36/58 39/35/58
f 34/34/59 38/36/60 37/18/60
f 42/36/61 44/35/61 43/39/61
f 39/36/62 43/37/62 44/20/62
f 39/35/80 37/39/80 41/37/80
f 38/18/64 42/20/64 41/37/64
