# Blender 5.1.1
# www.blender.org
mtllib Matress01.mtl
o Matress01
v -0.284927 0.085000 0.950000
v -0.281943 0.100000 0.935000
v -0.460000 0.100000 0.756943
v -0.475000 0.085000 0.759927
v -0.419329 0.085000 0.894329
v -0.407848 0.100000 0.882848
v 0.460000 0.100000 0.756943
v 0.475000 0.085000 0.759927
v 0.284927 0.085000 0.950000
v 0.281943 0.100000 0.935000
v 0.419329 0.085000 0.894329
v 0.407848 0.100000 0.882848
v -0.460000 0.100000 -0.756943
v -0.475000 0.085000 -0.759927
v -0.284927 0.085000 -0.950000
v -0.281943 0.100000 -0.935000
v -0.419329 0.085000 -0.894329
v -0.407848 0.100000 -0.882848
v 0.284927 0.085000 -0.950000
v 0.281943 0.100000 -0.935000
v 0.460000 0.100000 -0.756943
v 0.475000 0.085000 -0.759927
v 0.419329 0.085000 -0.894329
v 0.407848 0.100000 -0.882848
v -0.281943 0.000000 0.935000
v -0.284927 0.015000 0.950000
v -0.475000 0.015000 0.759927
v -0.460000 0.000000 0.756943
v -0.407848 0.000000 0.882848
v -0.419329 0.015000 0.894329
v 0.460000 0.000000 0.756943
v 0.475000 0.015000 0.759927
v 0.281943 0.000000 0.935000
v 0.284927 0.015000 0.950000
v 0.407848 0.000000 0.882848
v 0.419329 0.015000 0.894329
v -0.460000 0.000000 -0.756943
v -0.475000 0.015000 -0.759927
v -0.281943 0.000000 -0.935000
v -0.284927 0.015000 -0.950000
v -0.407848 0.000000 -0.882848
v -0.419329 0.015000 -0.894329
v 0.281943 0.000000 -0.935000
v 0.284927 0.015000 -0.950000
v 0.475000 0.015000 -0.759927
v 0.460000 0.000000 -0.756943
v 0.407848 0.000000 -0.882848
v 0.419329 0.015000 -0.894329
vn -0.6533 0.7071 0.2706
vn -0.2706 0.7071 0.6533
vn -0.0000 0.7071 0.7071
vn 0.2706 0.7071 0.6533
vn 0.6533 0.7071 0.2706
vn 0.6533 0.7071 -0.2706
vn 0.2706 0.7071 -0.6533
vn -0.0000 0.7071 -0.7071
vn -0.2706 0.7071 -0.6533
vn -0.6533 0.7071 -0.2706
vn 0.7071 0.7071 -0.0000
vn -0.7071 0.7071 -0.0000
vn -0.0000 1.0000 -0.0000
vn -0.6533 -0.7071 0.2706
vn -0.2706 -0.7071 0.6533
vn -0.0000 -0.7071 0.7071
vn 0.2706 -0.7071 0.6533
vn 0.6533 -0.7071 0.2706
vn 0.6533 -0.7071 -0.2706
vn 0.2706 -0.7071 -0.6533
vn -0.0000 -0.7071 -0.7071
vn -0.2706 -0.7071 -0.6533
vn -0.6533 -0.7071 -0.2706
vn 0.7071 -0.7071 -0.0000
vn -0.7071 -0.7071 -0.0000
vn -0.3827 -0.0000 0.9239
vn -0.0000 -1.0000 -0.0000
vn -0.0000 -0.0000 1.0000
vn -0.9239 -0.0000 0.3827
vn -1.0000 -0.0000 -0.0000
vn 0.9239 -0.0000 0.3827
vn 1.0000 -0.0000 -0.0000
vn 0.3827 -0.0000 0.9239
vn -0.9239 -0.0000 -0.3827
vn -0.0000 -0.0000 -1.0000
vn -0.3827 -0.0000 -0.9239
vn 0.3827 -0.0000 -0.9239
vn 0.9239 -0.0000 -0.3827
vt -0.926783 -0.725187
vt -0.832720 -0.880314
vt -0.898528 -0.719425
vt -0.679166 -0.975288
vt -0.853434 -0.900819
vt 0.064830 -0.970788
vt -0.673358 -0.947356
vt 0.218355 -0.873489
vt 0.058685 -0.942552
vt 0.310645 -0.717627
vt 0.239317 -0.893844
vt 0.310645 1.263398
vt 0.216583 1.418525
vt 0.282390 1.257635
vt 0.063028 1.513499
vt 0.237296 1.439030
vt -0.680968 1.508998
vt 0.057220 1.485566
vt -0.834493 1.411700
vt -0.674823 1.480763
vt -0.926783 1.255838
vt -0.855455 1.432054
vt 0.282669 -0.712006
vt -0.898808 1.250216
vt 1.547837 -0.879633
vt 1.641298 -0.724925
vt 1.613359 -0.719185
vt 1.393713 -0.975288
vt 1.568570 -0.900138
vt 0.655837 -0.941985
vt 1.387902 -0.947002
vt 0.496764 -0.873218
vt 0.649697 -0.969870
vt 0.403923 -0.716906
vt 0.475817 -0.893566
vt 0.497383 1.418867
vt 0.403922 1.264158
vt 0.431861 1.258419
vt 0.651507 1.514522
vt 0.476650 1.439372
vt 1.389382 1.481220
vt 0.657318 1.486236
vt 1.548456 1.412451
vt 1.395523 1.509104
vt 1.641297 1.256140
vt 1.569403 1.432799
vt 0.432214 -0.711268
vt -0.680466 -0.973958
vt -0.853433 -1.064445
vt -0.680466 -1.064445
vt 0.064573 -0.972973
vt -0.679729 -1.063460
vt 0.064573 -1.063460
vt -0.929911 -0.899534
vt -1.020397 -0.725196
vt -1.020397 -0.899534
vt -0.929744 1.256289
vt -1.020231 -0.724774
vt -0.929744 -0.724774
vt 0.310881 -0.718196
vt 0.401368 -0.892616
vt 0.401368 -0.718196
vt 0.311420 1.263439
vt 0.401907 -0.717590
vt 0.401907 1.263439
vt 0.237655 -0.972520
vt 0.064692 -1.063006
vt 0.237655 -1.063007
vt -0.929550 1.255951
vt -1.020036 1.430396
vt -1.020036 1.255951
vt -0.679474 1.512777
vt 0.063594 1.603264
vt -0.679474 1.603264
vt -0.853547 1.513422
vt -0.680584 1.603908
vt -0.853547 1.603908
vt 0.064078 1.513473
vt 0.237058 1.603960
vt 0.064078 1.603959
vt 0.312012 1.439497
vt 0.402499 1.265159
vt 0.402499 1.439497
vt 1.613007 1.250502
vt -0.853433 -0.973958
vt -0.679729 -0.972973
vt -0.929911 -0.725196
vt -1.020231 1.256289
vt 0.310881 -0.892616
vt 0.311420 -0.717590
vt 0.064692 -0.972520
vt -0.929550 1.430396
vt 0.063594 1.512777
vt -0.680584 1.513422
vt 0.237058 1.513473
vt 0.312012 1.265159
s 0
usemtl CushionGrid
f 4/1/1 6/2/1 3/3/1
f 1/4/2 6/2/2 5/5/2
f 9/6/3 2/7/3 1/4/3
f 9/6/4 12/8/4 10/9/4
f 8/10/5 12/8/5 11/11/5
f 22/12/6 24/13/6 21/14/6
f 19/15/7 24/13/7 23/16/7
f 15/17/8 20/18/8 19/15/8
f 15/17/9 18/19/9 16/20/9
f 14/21/10 18/19/10 17/22/10
f 22/12/11 7/23/11 8/10/11
f 13/24/12 4/1/12 3/3/12
f 10/9/13 24/13/13 13/24/13
f 29/25/14 27/26/14 28/27/14
f 29/25/15 26/28/15 30/29/15
f 33/30/16 26/28/16 25/31/16
f 35/32/17 34/33/17 33/30/17
f 35/32/18 32/34/18 36/35/18
f 47/36/19 45/37/19 46/38/19
f 47/36/20 44/39/20 48/40/20
f 39/41/21 44/39/21 43/42/21
f 41/43/22 40/44/22 39/41/22
f 41/43/23 38/45/23 42/46/23
f 46/38/24 32/34/24 31/47/24
f 38/45/25 28/27/25 27/26/25
f 1/48/26 30/49/26 26/50/26
f 39/41/27 31/47/27 29/25/27
f 9/51/28 26/52/28 34/53/28
f 5/54/29 27/55/29 30/56/29
f 27/57/30 14/58/30 38/59/30
f 8/60/31 36/61/31 32/62/31
f 22/63/32 32/64/32 45/65/32
f 11/66/33 34/67/33 36/68/33
f 14/69/34 42/70/34 38/71/34
f 15/72/35 44/73/35 40/74/35
f 17/75/36 40/76/36 42/77/36
f 19/78/37 48/79/37 44/80/37
f 23/81/38 45/82/38 48/83/38
f 4/1/1 5/5/1 6/2/1
f 1/4/2 2/7/2 6/2/2
f 9/6/3 10/9/3 2/7/3
f 9/6/4 11/11/4 12/8/4
f 8/10/5 7/23/5 12/8/5
f 22/12/6 23/16/6 24/13/6
f 19/15/7 20/18/7 24/13/7
f 15/17/8 16/20/8 20/18/8
f 15/17/9 17/22/9 18/19/9
f 14/21/10 13/24/10 18/19/10
f 22/12/11 21/14/11 7/23/11
f 13/24/12 14/21/12 4/1/12
f 13/24/13 3/3/13 6/2/13
f 6/2/13 2/7/13 10/9/13
f 10/9/13 12/8/13 7/23/13
f 7/23/13 21/14/13 24/13/13
f 24/13/13 20/18/13 16/20/13
f 16/20/13 18/19/13 13/24/13
f 13/24/13 6/2/13 10/9/13
f 10/9/13 7/23/13 24/13/13
f 24/13/13 16/20/13 13/24/13
f 29/25/14 30/29/14 27/26/14
f 29/25/15 25/31/15 26/28/15
f 33/30/16 34/33/16 26/28/16
f 35/32/17 36/35/17 34/33/17
f 35/32/18 31/47/18 32/34/18
f 47/36/19 48/40/19 45/37/19
f 47/36/20 43/42/20 44/39/20
f 39/41/21 40/44/21 44/39/21
f 41/43/22 42/46/22 40/44/22
f 41/43/23 37/84/23 38/45/23
f 46/38/24 45/37/24 32/34/24
f 38/45/25 37/84/25 28/27/25
f 1/48/26 5/85/26 30/49/26
f 29/25/27 28/27/27 37/84/27
f 37/84/27 41/43/27 39/41/27
f 39/41/27 43/42/27 47/36/27
f 47/36/27 46/38/27 31/47/27
f 31/47/27 35/32/27 33/30/27
f 33/30/27 25/31/27 29/25/27
f 29/25/27 37/84/27 39/41/27
f 39/41/27 47/36/27 31/47/27
f 31/47/27 33/30/27 29/25/27
f 9/51/28 1/86/28 26/52/28
f 5/54/29 4/87/29 27/55/29
f 27/57/30 4/88/30 14/58/30
f 8/60/31 11/89/31 36/61/31
f 22/63/32 8/90/32 32/64/32
f 11/66/33 9/91/33 34/67/33
f 14/69/34 17/92/34 42/70/34
f 15/72/35 19/93/35 44/73/35
f 17/75/36 15/94/36 40/76/36
f 19/78/37 23/95/37 48/79/37
f 23/81/38 22/96/38 45/82/38
