# Blender 5.1.0
# www.blender.org
mtllib MainMenuRoom.mtl
o MainMenuRoom
v -0.401149 2.100000 -2.000000
v 2.000000 0.000000 2.000000
v -0.701149 1.300000 -2.000000
v 2.000000 0.000000 -2.000000
v 2.000000 0.000000 -0.400000
v 2.000000 0.000000 -1.400000
v 2.000000 3.000000 -2.000000
v 2.000000 3.000000 -1.400000
v 2.000000 3.000000 2.000000
v 2.000000 3.000000 -0.400000
v 2.000000 2.000000 -1.400000
v 2.000000 2.000000 -0.400000
v -1.001149 0.600000 -2.000000
v -5.000000 0.000000 2.000000
v -5.000000 0.000000 -2.000000
v -5.000000 3.000000 -2.000000
v -0.301149 1.200000 -2.000000
v -5.000000 3.000000 2.000000
v 2.200000 2.000000 -0.400000
v 2.200000 2.000000 -1.400000
v 2.200000 0.000000 -2.000000
v 2.200000 0.000000 -0.400000
v 2.200000 0.000000 -1.400000
v 4.200000 0.000000 -2.000000
v 4.200000 0.000000 -10.000000
v 2.200000 0.000000 -10.000000
v 4.200000 3.000000 -2.000000
v 4.200000 3.000000 -10.000000
v 2.200000 3.000000 -2.000000
v 2.200000 3.000000 -10.000000
v 3.705556 2.700000 -1.940000
v -5.794445 2.700000 -1.940000
v 3.705556 2.869706 -1.869706
v -5.794445 2.869706 -1.869706
v 3.705556 2.940000 -1.700000
v -5.794445 2.940000 -1.700000
v 3.705556 2.869706 -1.530295
v -5.794445 2.869706 -1.530295
v 3.705556 2.700000 -1.460000
v -5.794445 2.700000 -1.460000
v 3.705555 2.530294 -1.530295
v -5.794445 2.530295 -1.530295
v 3.705555 2.460000 -1.700000
v -5.794445 2.460000 -1.700000
v 3.705555 2.530294 -1.869706
v -5.794445 2.530295 -1.869706
v 2.540294 2.700000 -1.960538
v 2.470817 2.700000 -1.960538
v 2.540294 2.884228 -1.884228
v 2.470817 2.884228 -1.884228
v 2.540294 2.960537 -1.700000
v 2.470817 2.960537 -1.700000
v 2.540294 2.884228 -1.515772
v 2.470817 2.884228 -1.515772
v 2.540294 2.700000 -1.439462
v 2.470817 2.700000 -1.439462
v 2.540294 2.515772 -1.515772
v 2.470817 2.515773 -1.515772
v 2.540294 2.439462 -1.700000
v 2.470817 2.439463 -1.700000
v 2.540294 2.515772 -1.884228
v 2.470817 2.515773 -1.884228
v 1.540294 2.700000 -1.960538
v 1.470817 2.700000 -1.960538
v 1.540294 2.884228 -1.884228
v 1.470817 2.884228 -1.884228
v 1.540294 2.960537 -1.700000
v 1.470817 2.960537 -1.700000
v 1.540294 2.884228 -1.515772
v 1.470817 2.884228 -1.515772
v 1.540294 2.700000 -1.439462
v 1.470817 2.700000 -1.439462
v 1.540294 2.515772 -1.515772
v 1.470817 2.515773 -1.515772
v 1.540294 2.439462 -1.700000
v 1.470817 2.439463 -1.700000
v 1.540294 2.515772 -1.884228
v 1.470817 2.515773 -1.884228
v 0.540294 2.700000 -1.960538
v 0.470817 2.700000 -1.960538
v 0.540294 2.884228 -1.884228
v 0.470817 2.884228 -1.884228
v 0.540294 2.960537 -1.700000
v 0.470817 2.960537 -1.700000
v 0.540294 2.884228 -1.515772
v 0.470817 2.884228 -1.515772
v 0.540294 2.700000 -1.439462
v 0.470817 2.700000 -1.439462
v 0.540294 2.515772 -1.515772
v 0.470817 2.515773 -1.515772
v 0.540294 2.439462 -1.700000
v 0.470817 2.439463 -1.700000
v 0.540294 2.515772 -1.884228
v 0.470817 2.515773 -1.884228
v -0.459706 2.700000 -1.960538
v -0.529183 2.700000 -1.960538
v -0.459706 2.884228 -1.884228
v -0.529183 2.884228 -1.884228
v -0.459706 2.960537 -1.700000
v -0.529183 2.960537 -1.700000
v -0.459706 2.884228 -1.515772
v -0.529183 2.884228 -1.515772
v -0.459706 2.700000 -1.439462
v -0.529183 2.700000 -1.439462
v -0.459706 2.515772 -1.515772
v -0.529183 2.515773 -1.515772
v -0.459706 2.439462 -1.700000
v -0.529183 2.439463 -1.700000
v -0.459706 2.515772 -1.884228
v -0.529183 2.515773 -1.884228
v -1.459706 2.700000 -1.960538
v -1.529183 2.700000 -1.960538
v -1.459706 2.884228 -1.884228
v -1.529183 2.884228 -1.884228
v -1.459706 2.960537 -1.700000
v -1.529183 2.960537 -1.700000
v -1.459706 2.884228 -1.515772
v -1.529183 2.884228 -1.515772
v -1.459706 2.700000 -1.439462
v -1.529183 2.700000 -1.439462
v -1.459706 2.515772 -1.515772
v -1.529183 2.515773 -1.515772
v -1.459706 2.439462 -1.700000
v -1.529183 2.439463 -1.700000
v -1.459706 2.515772 -1.884228
v -1.529183 2.515773 -1.884228
v -2.459706 2.700000 -1.960538
v -2.529183 2.700000 -1.960538
v -2.459706 2.884228 -1.884228
v -2.529183 2.884228 -1.884228
v -2.459706 2.960537 -1.700000
v -2.529183 2.960537 -1.700000
v -2.459706 2.884228 -1.515772
v -2.529183 2.884228 -1.515772
v -2.459706 2.700000 -1.439462
v -2.529183 2.700000 -1.439462
v -2.459706 2.515772 -1.515772
v -2.529183 2.515773 -1.515772
v -2.459706 2.439462 -1.700000
v -2.529183 2.439463 -1.700000
v -2.459706 2.515772 -1.884228
v -2.529183 2.515773 -1.884228
v -3.459706 2.700000 -1.960538
v -3.529183 2.700000 -1.960538
v -3.459706 2.884228 -1.884228
v -3.529183 2.884228 -1.884228
v -3.459706 2.960537 -1.700000
v -3.529183 2.960537 -1.700000
v -3.459706 2.884228 -1.515772
v -3.529183 2.884228 -1.515772
v -3.459706 2.700000 -1.439462
v -3.529183 2.700000 -1.439462
v -3.459706 2.515772 -1.515772
v -3.529183 2.515773 -1.515772
v -3.459706 2.439462 -1.700000
v -3.529183 2.439463 -1.700000
v -3.459706 2.515772 -1.884228
v -3.529183 2.515773 -1.884228
v -4.459706 2.700000 -1.960538
v -4.529183 2.700000 -1.960538
v -4.459706 2.884228 -1.884228
v -4.529183 2.884228 -1.884228
v -4.459706 2.960537 -1.700000
v -4.529183 2.960537 -1.700000
v -4.459706 2.884228 -1.515772
v -4.529183 2.884228 -1.515772
v -4.459706 2.700000 -1.439462
v -4.529183 2.700000 -1.439462
v -4.459706 2.515772 -1.515772
v -4.529183 2.515773 -1.515772
v -4.459706 2.439462 -1.700000
v -4.529183 2.439463 -1.700000
v -4.459706 2.515772 -1.884228
v -4.529183 2.515773 -1.884228
v -2.648791 0.000000 -2.000000
v -2.648791 3.000000 -2.000000
v -0.701149 1.900000 -2.000000
v -0.951149 2.450000 -2.000000
v -0.901149 1.800000 -2.000000
v -1.201149 1.300000 -2.000000
v -0.886730 1.191871 -1.989974
v -0.701149 1.900000 -2.025073
v -0.951149 2.450000 -2.025073
v -0.701149 1.300000 -2.025073
v -0.301149 1.200000 -2.025073
v -1.001149 0.600000 -2.025073
v -0.901149 1.800000 -2.025073
v -1.201149 1.300000 -2.025073
v -0.796038 1.868785 -2.000288
vn -0.0000 -0.0000 1.0000
vn -1.0000 -0.0000 -0.0000
vn -0.0000 -1.0000 -0.0000
vn -0.0000 1.0000 -0.0000
vn 1.0000 -0.0000 -0.0000
vn -0.0000 0.3827 -0.9239
vn -0.0000 0.9239 -0.3827
vn -0.0000 0.9239 0.3827
vn -0.0000 0.3827 0.9239
vn -0.0000 -0.3827 0.9239
vn -0.0000 -0.9239 0.3827
vn -0.0000 -0.9239 -0.3827
vn -0.0000 -0.3827 -0.9239
vn -0.0000 -0.0000 -1.0000
vn 0.9615 0.2747 -0.0000
vn 0.9971 0.0767 -0.0000
vn -0.2425 -0.9701 -0.0000
vn -0.9104 -0.4138 -0.0000
vn -0.6508 0.7593 -0.0000
vn 0.8575 -0.5145 -0.0000
vn 0.2588 -0.0200 0.9657
vn 0.1858 -0.0000 0.9826
vn 0.0607 -0.0708 0.9956
vn 0.0553 0.2212 0.9737
vn -0.2598 0.0495 0.9644
vn -0.0920 0.0552 0.9942
vn -0.1228 -0.0351 0.9918
vn 0.2205 0.1002 0.9702
vn -0.2190 -0.0168 0.9756
vt -1.494038 -2.191496
vt 0.998873 -0.241496
vt -1.602371 -1.216496
vt -1.927371 -2.083163
vt -4.037317 -0.241496
vt -2.198205 -0.837329
vt -1.446359 -3.491496
vt -1.446359 -1.324829
vt -0.796359 -3.491496
vt -1.446359 -0.241496
vt -2.529692 -1.324829
vt -2.529692 -0.241496
vt -0.796359 -0.241496
vt -2.529692 -3.491496
vt -5.129693 -3.491496
vt -5.129693 -0.241496
vt 0.998873 -3.491496
vt -4.037317 -3.491496
vt -2.252371 -2.841496
vt -1.927371 -1.433162
vt 0.998873 -3.201123
vt 1.215540 -2.117790
vt 1.215540 -3.201123
vt 1.215540 -1.324829
vt 0.998873 -1.324829
vt 3.014388 -3.136565
vt 3.014388 -1.489899
vt 3.382205 -1.467790
vt 1.215540 -1.467790
vt 1.215540 7.198877
vt 7.870308 -0.241496
vt 7.870308 -3.491496
vt 3.382205 7.198877
vt 1.771584 7.512967
vt 1.461910 -6.112712
vt 1.771584 -6.112712
vt 1.461910 7.512967
vt 1.152235 -6.112712
vt 1.152235 7.512967
vt 0.842560 -6.112712
vt 0.842560 7.512967
vt 0.532886 -6.112712
vt 0.532886 7.512967
vt 0.223211 -6.112712
vt 0.223211 7.512967
vt -0.086463 -6.112712
vt -0.086463 7.512967
vt -0.396138 -6.112712
vt -0.396138 7.512967
vt -0.705812 -6.112712
vt 1.782886 0.793241
vt 1.470386 0.646165
vt 1.782886 0.646165
vt 1.470386 0.793241
vt 1.157886 0.646165
vt 1.157886 0.793241
vt 0.845386 0.646165
vt 0.532886 0.793241
vt 0.532886 0.646165
vt 0.220386 0.793241
vt 0.220386 0.646165
vt -0.092114 0.793241
vt -0.092114 0.646165
vt -3.817114 -1.081759
vt -3.217114 -1.681760
vt -2.617114 -1.081759
vt -0.404614 0.646165
vt -0.404614 0.793241
vt -0.717114 0.646165
vt -1.542850 -1.506024
vt -2.391378 -1.506024
vt -2.391378 -0.657495
vt -2.469038 -2.083163
vt -2.144038 -1.541496
vt 3.014388 -0.501899
vt -4.640622 -0.501899
vt -6.584461 -3.491496
vt -6.584461 -0.241496
vt 3.014388 -7.088566
vt -8.512280 -7.088566
vt -8.512280 -0.501899
vt 0.998873 -5.801124
vt -6.584461 -5.801124
vt -4.037317 -1.467790
vt -6.584461 -1.467790
vt 0.998873 -1.467790
vt 0.998873 -2.117790
vt -0.796359 -1.433162
vt -0.769196 -2.083163
vt -0.796359 -2.083163
vt -0.796359 -2.841496
vt -0.796359 -1.541496
vt -0.769196 -0.837329
vt -0.796359 -0.837329
vt -1.927371 -1.467790
vt -1.494038 -1.440628
vt -1.494038 -1.467790
vt -0.769196 -1.433162
vt -2.252371 -1.440628
vt -2.252371 -1.467790
vt -0.769196 -1.541496
vt -2.030169 -1.466978
vt -2.128418 -2.200302
vt 1.215540 -3.491496
vt -0.705812 7.512967
vt 0.845386 0.793241
vt -2.792850 -0.657495
vt -3.217114 -0.481759
vt -3.641378 -0.657495
vt -3.641378 -1.506024
vt -2.792850 -1.506024
vt -0.717114 0.793241
vt -1.967114 -0.481759
vt -1.542850 -0.657495
vt -1.367114 -1.081759
vt -1.967114 -1.681760
vt -2.567114 -1.081759
vt -0.769196 -2.841496
vt -1.927371 -1.440628
s 0
usemtl ConcreteTiles
f 4/75/4 175/76/4 6/27/4
f 2/79/4 175/76/4 14/80/4
f 14/80/4 175/76/4 15/81/4
f 6/27/4 175/76/4 5/26/4
f 2/79/4 5/26/4 175/76/4
usemtl GrayBricks
f 17/1/1 7/2/1 1/3/1
f 3/4/1 17/1/1 1/3/1
f 7/2/1 176/5/1 178/6/1
f 6/7/2 11/8/2 4/9/2
f 8/10/2 12/11/2 10/12/2
f 4/9/2 11/8/2 7/13/2
f 7/13/2 11/8/2 8/10/2
f 5/14/2 2/15/2 12/11/2
f 9/16/2 12/11/2 2/15/2
f 10/12/2 12/11/2 9/16/2
f 4/17/1 7/2/1 17/1/1
f 175/18/1 4/17/1 13/19/1
f 177/20/1 3/4/1 1/3/1
f 13/19/1 4/17/1 17/1/1
f 1/3/1 7/2/1 178/6/1
f 178/6/1 177/20/1 1/3/1
f 175/18/1 13/19/1 180/73/1
f 176/5/1 175/18/1 180/73/1
f 180/73/1 179/74/1 176/5/1
f 176/5/1 179/74/1 178/6/1
f 15/77/1 176/5/1 16/78/1
f 8/10/2 11/8/2 12/11/2
f 15/77/1 175/18/1 176/5/1
usemtl SmoothConcrete
f 12/21/3 20/22/3 19/23/3
f 6/17/1 20/24/1 11/25/1
f 5/26/4 23/22/4 6/27/4
f 23/22/4 24/28/4 21/29/4
f 23/22/4 22/23/4 24/28/4
f 24/28/4 26/30/4 21/29/4
f 27/28/3 30/30/3 28/33/3
f 2/17/14 18/78/14 9/2/14
f 9/82/3 18/83/3 176/84/3
f 18/83/3 16/85/3 176/84/3
f 7/86/3 8/87/3 176/84/3
f 10/21/3 176/84/3 8/87/3
f 9/82/3 176/84/3 10/21/3
f 177/88/2 184/89/2 3/90/2
f 13/91/15 188/89/15 180/90/15
f 179/92/16 183/93/16 178/94/16
f 3/95/17 185/96/17 17/97/17
f 178/94/18 182/98/18 177/88/18
f 17/97/19 186/99/19 13/100/19
f 180/90/20 187/101/20 179/92/20
f 182/20/21 189/102/21 181/103/21
f 181/103/22 184/4/22 182/20/22
f 181/103/23 186/19/23 185/1/23
f 181/103/24 185/1/24 184/4/24
f 189/102/25 187/74/25 181/103/25
f 181/103/26 187/74/26 188/73/26
f 181/103/27 188/73/27 186/19/27
f 12/21/3 11/87/3 20/22/3
f 6/17/1 23/104/1 20/24/1
f 5/26/4 22/23/4 23/22/4
f 24/28/4 25/33/4 26/30/4
f 27/28/3 29/29/3 30/30/3
f 2/17/14 14/77/14 18/78/14
f 177/88/2 182/98/2 184/89/2
f 13/91/15 186/118/15 188/89/15
f 179/92/16 187/101/16 183/93/16
f 3/95/17 184/119/17 185/96/17
f 178/94/18 183/93/18 182/98/18
f 17/97/19 185/96/19 186/99/19
f 180/90/20 188/89/20 187/101/20
f 182/20/28 183/6/28 189/102/28
f 189/102/29 183/6/29 187/74/29
usemtl Concrete
f 24/9/2 28/31/2 25/32/2
f 15/9/5 18/16/5 14/15/5
f 24/9/2 27/13/2 28/31/2
f 15/9/5 16/13/5 18/16/5
usemtl Metal
f 32/34/6 33/35/6 31/36/6
f 34/37/7 35/38/7 33/35/7
f 36/39/8 37/40/8 35/38/8
f 38/41/9 39/42/9 37/40/9
f 40/43/10 41/44/10 39/42/10
f 42/45/11 43/46/11 41/44/11
f 44/47/12 45/48/12 43/46/12
f 46/49/13 31/50/13 45/48/13
f 48/51/6 49/52/6 47/53/6
f 50/54/7 51/55/7 49/52/7
f 52/56/8 53/57/8 51/55/8
f 53/57/9 56/58/9 55/59/9
f 55/59/10 58/60/10 57/61/10
f 57/61/11 60/62/11 59/63/11
f 60/64/2 56/65/2 52/66/2
f 60/62/12 61/67/12 59/63/12
f 62/68/13 47/69/13 61/67/13
f 53/70/5 57/71/5 61/72/5
f 64/51/6 65/52/6 63/53/6
f 66/54/7 67/55/7 65/52/7
f 68/56/8 69/57/8 67/55/8
f 69/57/9 72/58/9 71/59/9
f 71/59/10 74/60/10 73/61/10
f 73/61/11 76/62/11 75/63/11
f 76/64/2 72/65/2 68/66/2
f 76/62/12 77/67/12 75/63/12
f 78/68/13 63/69/13 77/67/13
f 69/70/5 73/71/5 77/72/5
f 80/51/6 81/52/6 79/53/6
f 82/54/7 83/55/7 81/52/7
f 84/56/8 85/57/8 83/55/8
f 85/57/9 88/58/9 87/59/9
f 87/59/10 90/60/10 89/61/10
f 89/61/11 92/62/11 91/63/11
f 92/64/2 88/65/2 84/66/2
f 92/62/12 93/67/12 91/63/12
f 94/68/13 79/69/13 93/67/13
f 85/70/5 89/71/5 93/72/5
f 96/51/6 97/52/6 95/53/6
f 98/54/7 99/55/7 97/52/7
f 100/56/8 101/57/8 99/55/8
f 101/57/9 104/58/9 103/59/9
f 103/59/10 106/60/10 105/61/10
f 105/61/11 108/62/11 107/63/11
f 108/64/2 104/65/2 100/66/2
f 108/62/12 109/67/12 107/63/12
f 110/68/13 95/69/13 109/67/13
f 101/70/5 105/71/5 109/72/5
f 112/51/6 113/52/6 111/53/6
f 114/54/7 115/55/7 113/52/7
f 116/56/8 117/57/8 115/55/8
f 117/57/9 120/58/9 119/59/9
f 119/59/10 122/60/10 121/61/10
f 121/61/11 124/62/11 123/63/11
f 124/64/2 120/65/2 116/66/2
f 124/62/12 125/67/12 123/63/12
f 126/68/13 111/69/13 125/67/13
f 117/70/5 121/71/5 125/72/5
f 128/51/6 129/52/6 127/53/6
f 130/54/7 131/55/7 129/52/7
f 132/56/8 133/57/8 131/55/8
f 133/57/9 136/58/9 135/59/9
f 135/59/10 138/60/10 137/61/10
f 137/61/11 140/62/11 139/63/11
f 140/64/2 136/65/2 132/66/2
f 140/62/12 141/67/12 139/63/12
f 142/68/13 127/69/13 141/67/13
f 133/70/5 137/71/5 141/72/5
f 144/51/6 145/52/6 143/53/6
f 146/54/7 147/55/7 145/52/7
f 148/56/8 149/57/8 147/55/8
f 149/57/9 152/58/9 151/59/9
f 151/59/10 154/60/10 153/61/10
f 153/61/11 156/62/11 155/63/11
f 156/64/2 152/65/2 148/66/2
f 156/62/12 157/67/12 155/63/12
f 158/68/13 143/69/13 157/67/13
f 149/70/5 153/71/5 157/72/5
f 160/51/6 161/52/6 159/53/6
f 162/54/7 163/55/7 161/52/7
f 164/56/8 165/57/8 163/55/8
f 165/57/9 168/58/9 167/59/9
f 167/59/10 170/60/10 169/61/10
f 169/61/11 172/62/11 171/63/11
f 172/64/2 168/65/2 164/66/2
f 172/62/12 173/67/12 171/63/12
f 174/68/13 159/69/13 173/67/13
f 165/70/5 169/71/5 173/72/5
f 32/34/6 34/37/6 33/35/6
f 34/37/7 36/39/7 35/38/7
f 36/39/8 38/41/8 37/40/8
f 38/41/9 40/43/9 39/42/9
f 40/43/10 42/45/10 41/44/10
f 42/45/11 44/47/11 43/46/11
f 44/47/12 46/49/12 45/48/12
f 46/49/13 32/105/13 31/50/13
f 48/51/6 50/54/6 49/52/6
f 50/54/7 52/56/7 51/55/7
f 52/56/8 54/106/8 53/57/8
f 53/57/9 54/106/9 56/58/9
f 55/59/10 56/58/10 58/60/10
f 57/61/11 58/60/11 60/62/11
f 52/66/2 50/107/2 48/108/2
f 48/108/2 62/109/2 60/64/2
f 60/64/2 58/110/2 56/65/2
f 56/65/2 54/111/2 52/66/2
f 52/66/2 48/108/2 60/64/2
f 60/62/12 62/68/12 61/67/12
f 62/68/13 48/112/13 47/69/13
f 61/72/5 47/113/5 49/114/5
f 49/114/5 51/115/5 53/70/5
f 53/70/5 55/116/5 57/71/5
f 57/71/5 59/117/5 61/72/5
f 61/72/5 49/114/5 53/70/5
f 64/51/6 66/54/6 65/52/6
f 66/54/7 68/56/7 67/55/7
f 68/56/8 70/106/8 69/57/8
f 69/57/9 70/106/9 72/58/9
f 71/59/10 72/58/10 74/60/10
f 73/61/11 74/60/11 76/62/11
f 68/66/2 66/107/2 64/108/2
f 64/108/2 78/109/2 76/64/2
f 76/64/2 74/110/2 72/65/2
f 72/65/2 70/111/2 68/66/2
f 68/66/2 64/108/2 76/64/2
f 76/62/12 78/68/12 77/67/12
f 78/68/13 64/112/13 63/69/13
f 77/72/5 63/113/5 65/114/5
f 65/114/5 67/115/5 69/70/5
f 69/70/5 71/116/5 73/71/5
f 73/71/5 75/117/5 77/72/5
f 77/72/5 65/114/5 69/70/5
f 80/51/6 82/54/6 81/52/6
f 82/54/7 84/56/7 83/55/7
f 84/56/8 86/106/8 85/57/8
f 85/57/9 86/106/9 88/58/9
f 87/59/10 88/58/10 90/60/10
f 89/61/11 90/60/11 92/62/11
f 84/66/2 82/107/2 80/108/2
f 80/108/2 94/109/2 92/64/2
f 92/64/2 90/110/2 88/65/2
f 88/65/2 86/111/2 84/66/2
f 84/66/2 80/108/2 92/64/2
f 92/62/12 94/68/12 93/67/12
f 94/68/13 80/112/13 79/69/13
f 93/72/5 79/113/5 81/114/5
f 81/114/5 83/115/5 85/70/5
f 85/70/5 87/116/5 89/71/5
f 89/71/5 91/117/5 93/72/5
f 93/72/5 81/114/5 85/70/5
f 96/51/6 98/54/6 97/52/6
f 98/54/7 100/56/7 99/55/7
f 100/56/8 102/106/8 101/57/8
f 101/57/9 102/106/9 104/58/9
f 103/59/10 104/58/10 106/60/10
f 105/61/11 106/60/11 108/62/11
f 100/66/2 98/107/2 96/108/2
f 96/108/2 110/109/2 108/64/2
f 108/64/2 106/110/2 104/65/2
f 104/65/2 102/111/2 100/66/2
f 100/66/2 96/108/2 108/64/2
f 108/62/12 110/68/12 109/67/12
f 110/68/13 96/112/13 95/69/13
f 109/72/5 95/113/5 97/114/5
f 97/114/5 99/115/5 101/70/5
f 101/70/5 103/116/5 105/71/5
f 105/71/5 107/117/5 109/72/5
f 109/72/5 97/114/5 101/70/5
f 112/51/6 114/54/6 113/52/6
f 114/54/7 116/56/7 115/55/7
f 116/56/8 118/106/8 117/57/8
f 117/57/9 118/106/9 120/58/9
f 119/59/10 120/58/10 122/60/10
f 121/61/11 122/60/11 124/62/11
f 116/66/2 114/107/2 112/108/2
f 112/108/2 126/109/2 124/64/2
f 124/64/2 122/110/2 120/65/2
f 120/65/2 118/111/2 116/66/2
f 116/66/2 112/108/2 124/64/2
f 124/62/12 126/68/12 125/67/12
f 126/68/13 112/112/13 111/69/13
f 125/72/5 111/113/5 113/114/5
f 113/114/5 115/115/5 117/70/5
f 117/70/5 119/116/5 121/71/5
f 121/71/5 123/117/5 125/72/5
f 125/72/5 113/114/5 117/70/5
f 128/51/6 130/54/6 129/52/6
f 130/54/7 132/56/7 131/55/7
f 132/56/8 134/106/8 133/57/8
f 133/57/9 134/106/9 136/58/9
f 135/59/10 136/58/10 138/60/10
f 137/61/11 138/60/11 140/62/11
f 132/66/2 130/107/2 128/108/2
f 128/108/2 142/109/2 140/64/2
f 140/64/2 138/110/2 136/65/2
f 136/65/2 134/111/2 132/66/2
f 132/66/2 128/108/2 140/64/2
f 140/62/12 142/68/12 141/67/12
f 142/68/13 128/112/13 127/69/13
f 141/72/5 127/113/5 129/114/5
f 129/114/5 131/115/5 133/70/5
f 133/70/5 135/116/5 137/71/5
f 137/71/5 139/117/5 141/72/5
f 141/72/5 129/114/5 133/70/5
f 144/51/6 146/54/6 145/52/6
f 146/54/7 148/56/7 147/55/7
f 148/56/8 150/106/8 149/57/8
f 149/57/9 150/106/9 152/58/9
f 151/59/10 152/58/10 154/60/10
f 153/61/11 154/60/11 156/62/11
f 148/66/2 146/107/2 144/108/2
f 144/108/2 158/109/2 156/64/2
f 156/64/2 154/110/2 152/65/2
f 152/65/2 150/111/2 148/66/2
f 148/66/2 144/108/2 156/64/2
f 156/62/12 158/68/12 157/67/12
f 158/68/13 144/112/13 143/69/13
f 157/72/5 143/113/5 145/114/5
f 145/114/5 147/115/5 149/70/5
f 149/70/5 151/116/5 153/71/5
f 153/71/5 155/117/5 157/72/5
f 157/72/5 145/114/5 149/70/5
f 160/51/6 162/54/6 161/52/6
f 162/54/7 164/56/7 163/55/7
f 164/56/8 166/106/8 165/57/8
f 165/57/9 166/106/9 168/58/9
f 167/59/10 168/58/10 170/60/10
f 169/61/11 170/60/11 172/62/11
f 164/66/2 162/107/2 160/108/2
f 160/108/2 174/109/2 172/64/2
f 172/64/2 170/110/2 168/65/2
f 168/65/2 166/111/2 164/66/2
f 164/66/2 160/108/2 172/64/2
f 172/62/12 174/68/12 173/67/12
f 174/68/13 160/112/13 159/69/13
f 173/72/5 159/113/5 161/114/5
f 161/114/5 163/115/5 165/70/5
f 165/70/5 167/116/5 169/71/5
f 169/71/5 171/117/5 173/72/5
f 173/72/5 161/114/5 165/70/5
