# Blender 5.0.1
# www.blender.org
mtllib SneakerR.mtl
o SneakerR
v -0.116097 0.000000 -0.047269
v -0.116097 0.076855 -0.047269
v -0.116097 0.000000 0.047269
v -0.116097 0.076855 0.047269
v 0.133209 0.000000 -0.052281
v 0.126653 0.044644 -0.052281
v 0.130000 0.000000 0.042396
v 0.123444 0.044644 0.042396
v 0.076340 -0.002669 0.055476
v 0.022331 0.000000 0.050000
v -0.026925 0.004771 0.047269
v -0.033543 0.100000 0.047269
v 0.004572 0.066882 0.050000
v 0.071584 0.049692 0.055476
v -0.026925 0.004771 -0.047269
v 0.022331 0.000000 -0.050000
v 0.088344 -0.002669 -0.055476
v 0.083588 0.049692 -0.055476
v 0.004572 0.066882 -0.050000
v -0.033543 0.100000 -0.047269
v -0.144809 0.000293 0.024376
v -0.144809 0.000293 -0.024376
v -0.130844 0.087542 -0.021386
v -0.130844 0.087542 0.021386
v 0.153077 0.000293 -0.028065
v 0.149868 0.000293 0.018180
v 0.143312 0.046819 0.018180
v 0.146521 0.046819 -0.028065
v 0.091517 0.052105 0.024820
v 0.095988 0.052105 -0.031646
v 0.023840 0.072840 0.025784
v 0.023840 0.072840 -0.029454
v -0.029752 0.110687 0.021386
v -0.029752 0.110687 -0.021386
v -0.027710 0.005064 0.024376
v -0.027710 0.005064 -0.024376
v 0.023840 0.000293 0.025784
v 0.023840 0.000293 -0.029454
v 0.096273 -0.002344 0.024820
v 0.100743 -0.002344 -0.031646
v -0.086422 0.000000 0.050373
v -0.086422 0.070168 -0.050373
v -0.086422 0.070168 0.050373
v -0.086422 0.000000 -0.050373
v -0.089495 0.000293 0.023430
v -0.089495 0.000293 -0.023430
v -0.096265 0.080856 0.038271
v -0.096265 0.080856 -0.038271
v -0.140968 0.087542 -0.028236
v -0.140968 0.087542 0.028236
v -0.019629 0.110687 0.028236
v -0.019629 0.110687 -0.028236
v -0.096265 0.080856 0.047990
v -0.096265 0.080856 -0.047990
v -0.131752 0.011506 -0.018463
v -0.131752 0.011506 0.018463
v -0.030955 0.011506 0.018463
v -0.030955 0.011506 -0.018463
v -0.096265 0.011506 0.033039
v -0.096265 0.011506 -0.033039
v -0.116097 0.050000 -0.047269
v -0.116097 0.050000 0.049385
v 0.130000 0.025000 0.042396
v 0.133209 0.025000 -0.055697
v 0.088344 0.025069 -0.060811
v 0.022331 0.036108 -0.057464
v -0.026925 0.050000 -0.054733
v -0.026925 0.050000 0.050750
v 0.022331 0.036108 0.052115
v 0.076340 0.025069 0.057592
v 0.149868 0.026234 0.018180
v 0.153077 0.026234 -0.028065
v -0.140322 0.051023 -0.026306
v -0.140322 0.051023 0.026306
v -0.086422 0.050000 0.052488
v -0.086422 0.050000 -0.055754
vn -0.6210 -0.0523 0.7821
vn 0.2545 0.1315 0.9581
vn 0.7811 0.2488 -0.5727
vn -0.2663 0.2485 -0.9313
vn 0.0524 -0.9981 -0.0309
vn -0.1736 0.7444 -0.6448
vn 0.1151 0.9765 -0.1821
vn 0.2622 0.9369 -0.2313
vn 0.4962 0.5904 -0.6365
vn 0.0773 -0.9968 0.0197
vn -0.0912 -0.9958 0.0096
vn -0.0334 -0.9990 0.0310
vn 0.1111 0.2062 -0.9722
vn -0.0146 0.2090 -0.9778
vn 0.0150 0.2439 -0.9697
vn 0.0290 0.1043 0.9941
vn -0.0126 0.0678 0.9976
vn -0.0750 0.0253 0.9969
vn -0.0478 -0.9987 -0.0151
vn -0.0364 -0.9993 -0.0000
vn -0.0954 -0.9953 -0.0180
vn -0.0922 -0.9957 -0.0000
vn 0.0791 -0.9967 -0.0155
vn 0.0770 -0.9970 -0.0000
vn 0.4613 0.5859 0.6663
vn 0.6567 0.7542 -0.0000
vn 0.2003 0.9024 0.3814
vn 0.2929 0.9561 -0.0000
vn 0.1369 0.9766 0.1659
vn 0.1026 0.9947 0.0081
vn -0.0676 0.1575 0.9852
vn 0.4431 0.0292 0.8960
vn 0.0559 -0.9981 0.0258
vn 0.0496 -0.9988 0.0039
vn 0.7383 0.2464 0.6279
vn 0.9508 0.3028 0.0660
vn -0.6544 -0.0000 -0.7562
vn -0.9998 -0.0177 -0.0000
vn -0.0434 0.1792 0.9829
vn -0.0000 -1.0000 -0.0000
vn 0.0012 -0.9999 -0.0110
vn -0.0863 0.0782 0.9932
vn -0.0002 -0.9999 0.0125
vn -0.2742 0.9101 -0.3106
vn -0.0235 0.1446 -0.9892
vn -0.0000 1.0000 -0.0000
vn -0.4092 0.9124 -0.0000
vn 0.1899 0.9818 -0.0000
vn -0.2592 0.0316 0.9653
vn -0.9999 0.0121 -0.0000
vn 0.4431 0.0292 -0.8960
vn -0.2592 0.0316 -0.9653
vn 0.9999 -0.0119 -0.0000
vn 0.0169 -0.1628 -0.9865
vn -0.1039 -0.0420 0.9937
vn -0.9961 0.0881 -0.0000
vn 0.9976 -0.0000 0.0692
vn 0.7731 -0.0000 0.6343
vn -0.1125 -0.0581 0.9920
vn -0.0492 -0.0766 0.9958
vn 0.0554 -0.0422 0.9976
vn -0.0737 -0.2019 -0.9766
vn -0.0888 -0.1881 -0.9781
vn 0.1120 -0.1345 -0.9846
vn -0.2734 -0.1029 -0.9564
vn 0.7731 -0.0000 -0.6343
vn 0.2396 -0.0738 0.9681
vn -0.6231 0.0254 0.7818
vn -0.6874 0.0570 0.7241
vn 0.2715 0.0906 0.9582
vn 0.7106 0.3439 -0.6139
vn -0.1040 -0.0000 -0.9946
vn 0.0607 -0.9980 -0.0179
vn -0.0676 0.1575 -0.9852
vn 0.1269 0.9781 -0.1651
vn 0.1659 0.8946 -0.4149
vn 0.4613 0.5859 -0.6663
vn 0.0791 -0.9967 0.0155
vn -0.0952 -0.9952 0.0212
vn -0.0390 -0.9991 0.0171
vn 0.0987 0.2289 -0.9684
vn -0.0184 0.2256 -0.9740
vn 0.0647 0.1557 -0.9857
vn 0.0180 0.0718 0.9973
vn -0.0099 0.0629 0.9980
vn -0.0867 0.0686 0.9939
vn -0.0368 -0.9987 -0.0345
vn -0.0343 -0.9994 -0.0027
vn -0.0919 -0.9957 -0.0096
vn 0.0773 -0.9968 -0.0197
vn 0.5511 0.5951 0.5849
vn 0.2863 0.9225 0.2588
vn 0.2768 0.9607 0.0219
vn 0.1236 0.9742 0.1890
vn 0.1035 0.9946 0.0072
vn -0.1736 0.7444 0.6448
vn 0.3790 0.0696 0.9228
vn 0.0530 -0.9981 0.0314
vn 0.0501 -0.9987 0.0035
vn 0.7450 0.2373 0.6234
vn -0.6210 -0.0523 -0.7821
vn -0.2742 0.9101 0.3106
vn -0.0002 -0.9999 -0.0125
vn -0.1035 0.1038 0.9892
vn 0.0012 -0.9999 0.0110
vn -0.0434 0.1792 -0.9829
vn 0.0166 0.2577 -0.9661
vn -0.2518 0.8934 0.3722
vn -0.2518 0.8934 -0.3722
vn 0.0893 0.9872 0.1320
vn 0.0893 0.9872 -0.1320
vn -0.2172 0.0734 0.9734
vn 0.3790 0.0696 -0.9228
vn -0.2172 0.0734 -0.9734
vn 0.0603 -0.1068 -0.9924
vn -0.6231 0.0254 -0.7818
vn -0.1043 -0.0756 0.9917
vn -0.0609 -0.0584 0.9964
vn 0.0291 -0.0767 0.9966
vn -0.1001 -0.1620 -0.9817
vn -0.0832 -0.2017 -0.9759
vn 0.0809 -0.1883 -0.9788
vn 0.8110 -0.0792 -0.5796
vn 0.2725 -0.0000 0.9622
vn -0.6901 -0.0306 0.7230
vt 0.678860 0.010923
vt 0.739737 0.081093
vt 0.767176 0.009063
vt 0.620306 0.549544
vt 0.671627 0.658350
vt 0.680129 0.536883
vt 0.244402 0.816407
vt 0.183674 0.770201
vt 0.184068 0.817951
vt 0.418032 0.075701
vt 0.368223 0.147196
vt 0.417535 0.148009
vt 0.218581 0.134193
vt 0.268717 0.055308
vt 0.209878 0.007033
vt 0.829886 0.327677
vt 0.830381 0.358700
vt 0.867168 0.393363
vt 0.983162 0.810087
vt 0.938274 0.735378
vt 0.925601 0.850946
vt 0.994307 0.711286
vt 0.939841 0.561781
vt 0.988772 0.524217
vt 0.941701 0.441908
vt 0.264081 0.588963
vt 0.200910 0.446301
vt 0.198615 0.596429
vt 0.256536 0.444394
vt 0.213252 0.321050
vt 0.276484 0.164321
vt 0.472425 0.573553
vt 0.423055 0.665747
vt 0.470749 0.682421
vt 0.447664 0.412726
vt 0.412460 0.561038
vt 0.415440 0.292527
vt 0.373073 0.368359
vt 0.677631 0.297858
vt 0.724273 0.153734
vt 0.675070 0.154817
vt 0.719920 0.373232
vt 0.799123 0.279714
vt 0.645684 0.417410
vt 0.079037 0.321050
vt 0.006893 0.193489
vt 0.020197 0.324716
vt 0.081382 0.145055
vt 0.026829 0.444394
vt 0.082455 0.446301
vt 0.019291 0.588963
vt 0.084757 0.596429
vt 0.757748 0.515387
vt 0.811238 0.436921
vt 0.768153 0.410654
vt 0.812229 0.556903
vt 0.738991 0.674717
vt 0.808201 0.720422
vt 0.764705 0.794570
vt 0.819034 0.839706
vt 0.906698 0.327783
vt 0.906000 0.358749
vt 0.920820 0.317279
vt 0.288329 0.681705
vt 0.363010 0.624872
vt 0.370211 0.677931
vt 0.038673 0.063105
vt 0.097512 0.014829
vt 0.022622 0.815370
vt 0.078944 0.769335
vt 0.022216 0.769736
vt 0.079338 0.817086
vt 0.415098 0.009984
vt 0.352807 0.074801
vt 0.453548 0.835079
vt 0.586072 0.923735
vt 0.581383 0.835079
vt 0.899420 0.227519
vt 0.200914 0.730829
vt 0.082458 0.730829
vt 0.026833 0.661066
vt 0.674312 0.082333
vt 0.256540 0.661066
vt 0.838664 0.227532
vt 0.867168 0.204280
vt 0.293773 0.274582
vt 0.844774 0.163819
vt 0.915427 0.178198
vt 0.905675 0.163819
vt 0.906544 0.018151
vt 0.833874 0.003361
vt 0.843905 0.018151
vt 0.943553 0.115362
vt 0.929716 0.115362
vt 0.806896 0.115362
vt 0.820733 0.115362
vt 0.627299 0.706731
vt 0.627307 0.864997
vt 0.708292 0.762451
vt 0.288329 0.532085
vt 0.395137 0.534527
vt 0.288329 0.918242
vt 0.395137 0.876003
vt 0.395137 0.920683
vt 0.363010 0.785657
vt 0.288329 0.728825
vt 0.370211 0.732599
vt 0.288329 0.878444
vt 0.524837 0.293854
vt 0.554049 0.155383
vt 0.553291 0.082899
vt 0.458238 0.711563
vt 0.576693 0.711563
vt 0.539470 0.077378
vt 0.183720 0.876292
vt 0.078991 0.875427
vt 0.022287 0.871595
vt 0.558364 0.417650
vt 0.568363 0.297919
vt 0.534909 0.413747
vt 0.539470 0.574348
vt 0.531261 0.683172
vt 0.538646 0.149548
vt 0.236355 0.872620
vt 0.563581 0.675216
vt 0.553291 0.549587
vt 0.555869 0.000735
vt 0.624230 0.674629
vt 0.236284 0.770761
vt 0.813375 0.316480
vt 0.986559 0.419003
vt 0.263175 0.324716
vt 0.868732 0.392847
vt 0.288329 0.627286
vt 0.326541 0.007239
vt 0.448858 0.923735
vt 0.868732 0.204280
vt 0.835022 0.178198
vt 0.916575 0.003361
vt 0.685366 0.706731
vt 0.604379 0.762451
vt 0.685374 0.864997
vt 0.288329 0.783243
vt 0.538345 0.000735
s 0
usemtl Sneaker
f 74/1/1 4/2/1 50/3/1
f 70/4/2 8/5/2 14/6/2
f 64/7/3 28/8/3 72/9/3
f 61/10/4 42/11/4 76/12/4
f 40/13/5 5/14/5 25/15/5
f 54/16/6 2/17/6 49/18/6
f 6/19/7 30/20/7 28/21/7
f 18/22/8 32/23/8 30/20/8
f 19/24/9 52/25/9 32/23/9
f 44/26/10 36/27/10 46/28/10
f 15/29/11 38/30/11 36/27/11
f 38/30/12 17/31/12 40/13/12
f 65/32/13 6/33/13 64/34/13
f 66/35/14 18/36/14 65/32/14
f 67/37/15 19/38/15 66/35/15
f 68/39/16 43/40/16 75/41/16
f 68/39/17 13/42/17 12/43/17
f 69/44/18 14/6/18 13/42/18
f 37/45/19 9/46/19 10/47/19
f 38/30/20 39/48/20 37/45/20
f 11/49/21 37/45/21 10/47/21
f 36/27/22 37/45/22 35/50/22
f 41/51/23 35/50/23 11/49/23
f 45/52/24 36/27/24 35/50/24
f 13/53/25 51/54/25 12/55/25
f 31/56/26 52/25/26 51/54/26
f 14/57/27 31/56/27 13/53/27
f 29/58/28 32/23/28 31/56/28
f 8/59/29 29/58/29 14/57/29
f 27/60/30 30/20/30 29/58/30
f 53/61/31 4/62/31 43/63/31
f 55/64/32 48/65/32 23/66/32
f 39/48/33 7/67/33 9/46/33
f 40/13/34 26/68/34 39/48/34
f 63/69/35 27/70/35 8/71/35
f 71/72/36 28/8/36 27/70/36
f 73/73/37 2/74/37 61/10/37
f 74/75/38 49/76/38 73/77/38
f 12/78/39 53/61/39 43/63/39
f 22/79/40 45/52/40 21/80/40
f 3/81/41 45/52/41 41/51/41
f 62/82/42 43/40/42 4/2/42
f 1/83/43 46/28/43 22/79/43
f 20/84/44 54/16/44 52/85/44
f 67/37/45 42/11/45 20/86/45
f 23/87/46 50/88/46 24/89/46
f 33/90/46 52/91/46 34/92/46
f 53/93/47 33/90/47 47/94/47
f 34/92/47 54/95/47 48/96/47
f 24/89/48 53/93/48 47/94/48
f 54/95/48 23/87/48 48/96/48
f 56/97/46 57/98/46 60/99/46
f 48/65/49 58/100/49 34/101/49
f 58/102/50 33/103/50 34/104/50
f 47/105/51 56/106/51 24/107/51
f 57/108/52 47/105/52 33/103/52
f 56/106/53 23/66/53 24/107/53
f 15/109/54 76/12/54 67/37/54
f 41/110/55 62/82/55 3/111/55
f 21/112/56 73/77/56 22/113/56
f 1/114/37 73/73/37 61/10/37
f 25/115/57 71/72/57 26/116/57
f 26/116/58 63/69/58 7/117/58
f 10/118/59 70/4/59 69/44/59
f 11/119/60 69/44/60 68/39/60
f 11/119/61 75/41/61 41/110/61
f 15/109/62 66/35/62 16/120/62
f 16/120/63 65/32/63 17/121/63
f 5/122/64 65/32/64 64/34/64
f 44/123/65 61/10/65 76/12/65
f 5/124/66 72/9/66 25/115/66
f 7/125/67 70/4/67 9/126/67
f 3/111/68 74/1/68 21/127/68
f 74/1/69 62/82/69 4/2/69
f 70/4/70 63/128/70 8/5/70
f 64/7/71 6/129/71 28/8/71
f 61/10/72 2/74/72 42/11/72
f 40/13/73 17/31/73 5/14/73
f 54/16/74 42/130/74 2/17/74
f 6/19/75 18/22/75 30/20/75
f 18/22/76 19/24/76 32/23/76
f 19/24/77 20/131/77 52/25/77
f 44/26/78 15/29/78 36/27/78
f 15/29/79 16/132/79 38/30/79
f 38/30/80 16/132/80 17/31/80
f 65/32/81 18/36/81 6/33/81
f 66/35/82 19/38/82 18/36/82
f 67/37/83 20/86/83 19/38/83
f 68/39/84 12/43/84 43/40/84
f 68/39/85 69/44/85 13/42/85
f 69/44/86 70/4/86 14/6/86
f 37/45/87 39/48/87 9/46/87
f 38/30/88 40/13/88 39/48/88
f 11/49/89 35/50/89 37/45/89
f 36/27/22 38/30/22 37/45/22
f 41/51/90 45/52/90 35/50/90
f 45/52/24 46/28/24 36/27/24
f 13/53/91 31/56/91 51/54/91
f 31/56/26 32/23/26 52/25/26
f 14/57/92 29/58/92 31/56/92
f 29/58/93 30/20/93 32/23/93
f 8/59/94 27/60/94 29/58/94
f 27/60/95 28/21/95 30/20/95
f 53/61/96 50/133/96 4/62/96
f 55/64/97 60/134/97 48/65/97
f 39/48/98 26/68/98 7/67/98
f 40/13/99 25/15/99 26/68/99
f 63/69/100 71/72/100 27/70/100
f 71/72/36 72/9/36 28/8/36
f 73/73/101 49/135/101 2/74/101
f 74/75/38 50/136/38 49/76/38
f 12/78/102 51/137/102 53/61/102
f 22/79/40 46/28/40 45/52/40
f 3/81/103 21/80/103 45/52/103
f 62/82/104 75/41/104 43/40/104
f 1/83/105 44/26/105 46/28/105
f 20/84/106 42/130/106 54/16/106
f 67/37/107 76/12/107 42/11/107
f 23/87/46 49/138/46 50/88/46
f 33/90/46 51/139/46 52/91/46
f 53/93/108 51/139/108 33/90/108
f 34/92/109 52/91/109 54/95/109
f 24/89/110 50/88/110 53/93/110
f 54/95/111 49/138/111 23/87/111
f 60/99/46 55/140/46 56/97/46
f 56/97/46 59/141/46 57/98/46
f 57/98/46 58/142/46 60/99/46
f 48/65/112 60/134/112 58/100/112
f 58/102/50 57/108/50 33/103/50
f 47/105/113 59/143/113 56/106/113
f 57/108/114 59/143/114 47/105/114
f 56/106/53 55/64/53 23/66/53
f 15/109/115 44/123/115 76/12/115
f 41/110/55 75/41/55 62/82/55
f 21/112/56 74/75/56 73/77/56
f 1/114/116 22/144/116 73/73/116
f 25/115/57 72/9/57 71/72/57
f 26/116/58 71/72/58 63/69/58
f 10/118/117 9/126/117 70/4/117
f 11/119/118 10/118/118 69/44/118
f 11/119/119 68/39/119 75/41/119
f 15/109/120 67/37/120 66/35/120
f 16/120/121 66/35/121 65/32/121
f 5/122/122 17/121/122 65/32/122
f 44/123/72 1/114/72 61/10/72
f 5/124/123 64/7/123 72/9/123
f 7/125/124 63/128/124 70/4/124
f 3/111/125 62/82/125 74/1/125
