# Blender 5.0.1
# www.blender.org
mtllib CheapCabinetDoor.mtl
o CheapCabinetDoor
v -0.183231 0.046769 0.200000
v 0.183231 0.046769 0.200000
v -0.183231 0.643231 0.200000
v 0.183231 0.643231 0.200000
v 0.183231 0.643231 0.180000
v 0.183231 0.046769 0.180000
v -0.183231 0.046769 0.180000
v -0.183231 0.643231 0.180000
v -0.169997 0.347374 0.216993
v -0.169997 0.527373 0.216993
v -0.169997 0.347374 0.196993
v -0.169997 0.527373 0.196993
v -0.149997 0.347374 0.216993
v -0.149997 0.527373 0.216993
v -0.149997 0.347374 0.196993
v -0.149997 0.527373 0.196993
vn -0.0000 -0.0000 1.0000
vn -0.0000 -0.0000 -1.0000
vn -1.0000 -0.0000 -0.0000
vn -0.0000 1.0000 -0.0000
vn 1.0000 -0.0000 -0.0000
vn -0.0000 -1.0000 -0.0000
vt 0.250000 0.375000
vt 0.062500 0.062500
vt 0.250000 0.062500
vt 0.062500 0.375000
vt 0.031250 0.375000
vt 0.062500 0.406250
vt 0.281250 0.062500
vt 0.250000 0.031250
vt 1.000000 0.906250
vt 0.750000 0.937500
vt 0.750000 0.906250
vt 1.000000 0.843750
vt 0.750000 0.875000
vt 0.750000 0.843750
vt 1.000000 0.875000
vt 0.906250 0.875000
vt 0.875000 0.906250
vt 0.875000 0.875000
vt 0.031250 0.062500
vt 0.250000 0.406250
vt 0.281250 0.375000
vt 0.062500 0.031250
vt 1.000000 0.937500
vt 0.906250 0.906250
s 0
usemtl CheapCabinet
f 4/1/1 1/2/1 2/3/1
f 7/3/2 5/4/2 6/2/2
f 8/5/3 1/2/3 3/4/3
f 4/1/4 8/6/4 3/4/4
f 6/7/5 4/1/5 2/3/5
f 1/2/6 6/8/6 2/3/6
f 10/9/3 11/10/3 9/11/3
f 16/12/5 13/13/5 15/14/5
f 14/15/1 9/11/1 13/13/1
f 15/16/6 9/17/6 11/18/6
f 12/16/4 14/17/4 16/18/4
f 4/1/1 3/4/1 1/2/1
f 7/3/2 8/1/2 5/4/2
f 8/5/3 7/19/3 1/2/3
f 4/1/4 5/20/4 8/6/4
f 6/7/5 5/21/5 4/1/5
f 1/2/6 7/22/6 6/8/6
f 10/9/3 12/23/3 11/10/3
f 16/12/5 14/15/5 13/13/5
f 14/15/1 10/9/1 9/11/1
f 15/16/6 13/24/6 9/17/6
f 12/16/4 10/24/4 14/17/4
