# Blender 5.1.1
# www.blender.org
mtllib Cell_2.mtl
o Cell_2
v 7.500000 0.000000 8.200001
v 7.500000 0.000000 11.200001
v 3.500000 0.000000 8.200000
v 3.500000 0.000000 11.200000
v 3.500000 0.000000 10.200000
v 4.500000 0.000000 10.200000
v 4.500000 0.000000 10.000000
v 3.500000 0.000000 10.000000
v 3.500000 0.000000 9.600000
v 3.500000 0.000000 8.600000
v 3.300000 0.000000 9.600000
v 3.300000 0.000000 8.600000
v 7.500000 3.000000 8.200001
v 7.500000 3.000000 11.200001
v 3.500000 3.000000 8.200000
v 3.500000 3.000000 11.200000
v 3.500000 3.000000 10.200000
v 4.500000 3.000000 10.200000
v 4.500000 3.000000 10.000000
v 3.500000 3.000000 10.000000
v 3.500000 3.000000 9.600000
v 3.500000 3.000000 8.600000
v 3.500000 2.000000 9.600000
v 3.500000 2.000000 8.600000
v 3.300000 2.000000 9.600000
v 3.300000 2.000000 8.600000
v 7.500000 0.000010 8.750000
v 7.500000 0.500010 8.750000
v 7.500000 0.500010 9.250000
v 7.500000 0.000010 9.250000
vn -0.0000 1.0000 -0.0000
vn -0.0000 -0.0000 1.0000
vn -0.0000 -0.0000 -1.0000
vn 1.0000 -0.0000 -0.0000
vn -1.0000 -0.0000 -0.0000
vn -0.0000 -1.0000 -0.0000
vt 3.500000 0.000000
vt 2.625000 0.625000
vt 3.406250 2.500000
vt 2.625000 0.000000
vt 2.875000 0.000000
vt 3.093750 2.500000
vt 2.500000 0.000000
vt 1.875000 0.000000
vt 2.500000 0.625000
vt 3.875000 3.750000
vt 3.750000 3.125000
vt 3.750000 3.750000
vt 1.875000 5.625000
vt 0.000000 4.999999
vt 0.000000 5.624999
vt 1.875000 1.875000
vt 0.000001 4.375000
vt 1.875000 4.375000
vt 0.000000 5.749999
vt 1.875000 5.749999
vt 1.875000 7.500000
vt 0.000000 9.999999
vt 1.875000 9.999999
vt 0.312507 0.656250
vt 0.000001 1.875000
vt 1.875000 6.374998
vt 0.000000 6.374999
vt 0.000000 7.250000
vt 0.000000 7.500000
vt 1.250000 7.250000
vt 1.250000 6.624999
vt 1.875000 7.250000
vt 1.875000 6.624999
vt 1.875000 4.999999
vt 0.000000 6.624999
vt 3.750000 2.500000
vt 3.875000 3.125000
vt 3.875000 2.500000
vt 3.750000 0.000000
vt 3.875000 1.250000
vt 3.875000 0.000000
vt 3.750000 1.250000
vt 3.875000 2.500000
vt 3.875000 1.250000
vt 3.750000 2.500000
vt 3.750000 0.000000
vt 2.625000 5.000000
vt 2.875000 5.000000
vt 2.625000 4.375000
vt 3.500000 5.000000
vt 2.500000 5.000000
vt 2.500000 4.375000
vt 1.875000 5.000000
vt 1.875000 -0.000000
vt 0.000000 0.000000
vt 0.312507 0.343750
vt 1.875000 2.500000
vt 0.000006 0.343750
vt 0.000007 0.656250
vt 3.750000 5.000000
vt 1.875000 2.500000
vt 3.875000 3.125000
vt 3.750000 1.250000
s 0
usemtl SmoothConcrete
f 10/1/1 7/2/1 27/3/1
f 8/4/1 7/2/1 9/5/1
f 30/6/1 27/3/1 7/2/1
f 7/2/1 10/1/1 9/5/1
f 5/7/1 4/8/1 6/9/1
f 12/10/1 9/11/1 10/12/1
f 7/2/1 6/9/1 30/6/1
f 10/1/1 1/45/1 3/46/1
f 27/3/1 1/45/1 10/1/1
f 30/6/1 6/9/1 2/57/1
f 6/9/1 4/8/1 2/57/1
f 12/10/1 11/62/1 9/11/1
usemtl Plaster
f 18/13/2 5/14/2 6/15/2
f 14/16/3 4/17/3 16/18/3
f 18/13/4 7/19/4 19/20/4
f 15/21/2 1/22/2 13/23/2
f 29/24/5 2/25/5 14/16/5
f 20/26/3 7/19/3 8/27/3
f 10/28/4 3/29/4 24/30/4
f 23/31/4 22/32/4 21/33/4
f 17/34/4 4/17/4 5/14/4
f 22/32/4 24/30/4 15/21/4
f 3/29/4 15/21/4 24/30/4
f 8/27/4 9/35/4 23/31/4
f 8/27/4 23/31/4 20/26/4
f 21/33/4 20/26/4 23/31/4
f 25/36/6 24/37/6 23/38/6
f 11/39/3 23/40/3 9/41/3
f 10/42/2 26/43/2 12/44/2
f 13/54/5 29/24/5 14/16/5
f 1/55/5 28/56/5 13/54/5
f 28/56/5 29/24/5 13/54/5
f 27/58/5 28/56/5 1/55/5
f 30/59/5 2/25/5 29/24/5
f 18/13/2 17/34/2 5/14/2
f 14/16/3 2/25/3 4/17/3
f 18/13/4 6/15/4 7/19/4
f 15/21/2 3/29/2 1/22/2
f 20/26/3 19/20/3 7/19/3
f 23/31/4 24/30/4 22/32/4
f 17/34/4 16/18/4 4/17/4
f 25/36/6 26/11/6 24/37/6
f 11/39/3 25/63/3 23/40/3
f 10/42/2 24/45/2 26/43/2
usemtl SmoothConcrete
f 20/47/6 21/48/6 19/49/6
f 19/49/6 21/48/6 22/50/6
f 17/51/6 18/52/6 16/53/6
f 13/36/6 22/50/6 15/60/6
f 22/50/6 13/36/6 19/49/6
f 13/36/6 14/61/6 19/49/6
f 19/49/6 14/61/6 18/52/6
f 14/61/6 16/53/6 18/52/6
