# Blender 5.1.1
# www.blender.org
mtllib Corridor_2.mtl
o Corridor_2
v -8.200001 0.000000 8.200000
v 1.500000 0.000000 8.200000
v -8.200001 0.000000 10.000000
v 1.500000 0.000000 10.000000
v 3.300000 0.000000 8.200000
v 3.300000 0.000000 11.799999
v -1.200000 0.000000 8.200000
v -0.200000 0.000000 8.200000
v -2.900000 0.000000 8.200000
v -7.600000 0.000000 8.200000
v -6.600000 0.000000 8.200000
v -4.400000 0.000000 8.200000
v -3.400000 0.000000 8.200000
v -6.600000 0.000000 10.000000
v -4.400000 0.000000 10.000000
v 2.000000 0.000000 8.200000
v 3.000000 0.000000 8.200000
v 3.300000 0.000000 8.599999
v 3.300000 0.000000 9.599999
v -8.200001 3.000000 8.200000
v 1.500000 3.000000 8.200000
v -8.200001 3.000000 10.000000
v 1.500000 3.000000 10.000000
v 3.300000 3.000000 8.200000
v 3.300000 3.000000 11.799999
v -1.200000 3.000000 8.200000
v -0.200000 3.000000 8.200000
v -2.900000 3.000000 8.200000
v -7.600000 3.000000 8.200000
v -6.600000 3.000000 8.200000
v -4.400000 3.000000 8.200000
v -3.400000 3.000000 8.200000
v -6.600000 3.000000 10.000000
v -4.400000 3.000000 10.000000
v 2.000000 3.000000 8.200000
v 3.000000 3.000000 8.200000
v 3.300000 3.000000 8.599999
v 3.300000 3.000000 9.599999
v -1.200000 2.000000 8.200000
v -0.200000 2.000000 8.200000
v -4.400000 2.000000 8.200000
v -3.400000 2.000000 8.200000
v -7.600000 2.000000 8.200000
v -6.600000 2.000000 8.200000
v 2.000000 2.000000 8.200000
v 3.000000 2.000000 8.200000
v 3.300000 2.000000 8.599999
v 3.300000 2.000000 9.599999
v 3.300000 0.000000 36.299999
v 1.500000 0.000000 11.799999
v 1.500000 3.000000 11.799999
v 3.300000 3.000000 36.299999
v 1.500000 0.000000 36.299999
v 1.500000 3.000000 36.299999
vn -0.0000 1.0000 -0.0000
vn -0.0000 -0.0000 1.0000
vn -0.0000 -0.0000 -1.0000
vn -1.0000 -0.0000 -0.0000
vn -0.0000 -1.0000 -0.0000
vn 1.0000 -0.0000 -0.0000
vt 9.574331 -10.420289
vt 5.477985 -10.420289
vt 9.574331 -6.082983
vt 3.068372 -10.420289
vt -4.642396 -6.082983
vt -1.027974 -10.420289
vt -13.798932 -10.420289
vt -13.798932 -6.082983
vt -12.353165 -10.420289
vt -9.943551 -6.082983
vt -9.943551 -10.420289
vt -4.642396 -10.420289
vt -2.232782 -10.420289
vt 13.911637 -10.420289
vt 13.188757 -10.420289
vt 13.911637 -9.456444
vt 10.779141 -10.420289
vt 13.911637 -1.745675
vt 13.911637 -7.046829
vt 4.977900 1.897126
vt 4.977900 0.692319
vt 5.339340 1.897126
vt -7.793062 1.897126
vt -8.515944 1.897126
vt -7.793062 0.692319
vt -6.588255 1.939677
vt -3.937676 -1.674746
vt -6.588255 -1.674746
vt -0.082293 0.692319
vt -2.130466 -1.717297
vt -0.082293 -1.717297
vt -2.130466 1.897126
vt -2.732870 0.692319
vt -1.867565 -1.717297
vt -1.385643 -1.717297
vt -1.385643 0.692319
vt -0.180835 1.897126
vt -1.385643 1.897126
vt -3.937676 0.692319
vt -2.732870 1.897126
vt -3.937676 1.897126
vt 3.773092 0.692319
vt 3.773092 1.897126
vt -8.515944 1.939677
vt -8.515944 -1.674746
vt 1.122514 1.897126
vt -0.082293 1.897126
vt 1.122514 0.692319
vt 1.122514 -1.717297
vt 3.170687 -1.717297
vt 3.170687 1.897126
vt -2.732870 -1.717297
vt -6.588255 0.692319
vt -6.588255 1.897126
vt -3.937676 -1.717297
vt -6.588255 -1.717297
vt -8.515944 -1.717297
vt -7.793062 -1.717297
vt 5.339340 -1.717297
vt 4.977900 -1.717297
vt 3.773092 -1.717297
vt -1.867565 1.897126
vt 2.469742 -1.717297
vt -0.180835 0.692319
vt -0.180835 -1.717297
vt 29.751810 12.298412
vt 0.438625 15.887780
vt 0.438625 12.298412
vt 0.660386 2.838164
vt -0.035266 2.838164
vt 0.225604 2.055556
vt -0.035266 2.055556
vt 0.660386 2.055556
vt 1.616908 2.055556
vt 1.616908 2.838164
vt 2.051691 2.055556
vt 2.269082 2.055556
vt 3.442995 2.055556
vt 4.182125 2.838164
vt 3.008213 2.055556
vt -0.072849 3.435115
vt 7.027151 -0.175055
vt -0.072849 -0.175055
vt 4.182125 2.055556
vt 4.399517 2.055556
vt 6.625214 -4.951834
vt 6.986654 -4.469911
vt 5.420406 -4.951834
vt 6.986654 -4.951834
vt 6.986654 -3.265103
vt 4.964734 2.664251
vt 4.964734 3.620773
vt 0.576551 -1.080674
vt 0.576551 3.251359
vt 4.908586 3.251359
vt 4.182125 3.620773
vt 2.887717 3.434344
vt 0.721929 -0.175302
vt 0.721929 3.434344
vt 2.469742 1.897126
vt 29.545122 15.932452
vt 0.082479 12.324782
vt 0.082479 15.932452
vt 4.965188 14.259475
vt 4.183556 3.620604
vt 4.965188 3.620604
vt 0.578090 62.181431
vt 4.907677 3.250929
vt 0.578090 3.250929
vt -3.937676 1.939677
vt 29.751810 15.887780
vt 7.027151 3.435115
vt 2.887717 -0.175302
vt 29.545122 12.324782
vt 4.183556 14.259475
vt 4.907677 62.181431
s 0
usemtl ConcreteTiles
f 2/1/1 8/2/1 4/3/1
f 7/4/1 15/5/1 4/3/1
f 9/6/1 15/5/1 7/4/1
f 1/7/1 3/8/1 10/9/1
f 10/9/1 3/8/1 14/10/1
f 11/11/1 10/9/1 14/10/1
f 12/12/1 14/10/1 15/5/1
f 12/12/1 11/11/1 14/10/1
f 9/6/1 13/13/1 15/5/1
f 7/4/1 4/3/1 8/2/1
f 12/12/1 15/5/1 13/13/1
f 5/14/1 17/15/1 18/16/1
f 4/3/1 16/17/1 2/1/1
f 4/3/1 6/18/1 19/19/1
f 16/17/1 4/3/1 19/19/1
f 19/19/1 18/16/1 16/17/1
f 16/17/1 18/16/1 17/15/1
f 4/93/1 50/94/1 6/95/1
f 53/107/1 6/108/1 50/109/1
f 53/107/1 49/116/1 6/108/1
usemtl GrayBricks
f 33/26/3 15/27/3 14/28/3
f 22/44/3 14/28/3 3/45/3
f 34/81/3 4/82/3 15/83/3
f 51/97/6 4/98/6 23/99/6
f 54/101/6 50/102/6 51/103/6
f 33/26/3 34/110/3 15/27/3
f 22/44/3 33/26/3 14/28/3
f 34/81/3 23/112/3 4/82/3
f 51/97/6 50/113/6 4/98/6
f 54/101/6 53/114/6 50/102/6
usemtl SmoothConcrete
f 33/69/5 22/70/5 29/71/5
f 20/72/5 29/71/5 22/70/5
f 29/71/5 30/73/5 33/69/5
f 30/73/5 31/74/5 33/69/5
f 33/69/5 31/74/5 34/75/5
f 31/74/5 32/76/5 34/75/5
f 28/77/5 34/75/5 32/76/5
f 27/78/5 23/79/5 26/80/5
f 26/80/5 34/75/5 28/77/5
f 26/80/5 23/79/5 34/75/5
f 27/78/5 21/84/5 23/79/5
f 21/84/5 35/85/5 23/79/5
f 36/86/5 37/87/5 35/88/5
f 24/89/5 37/87/5 36/86/5
f 37/87/5 38/90/5 35/88/5
f 35/85/5 38/91/5 23/79/5
f 38/91/5 25/92/5 23/79/5
f 23/79/5 25/92/5 51/96/5
f 52/104/5 51/105/5 25/106/5
f 52/104/5 54/115/5 51/105/5
usemtl Concrete
f 36/20/2 46/21/2 24/22/2
f 29/23/2 20/24/2 43/25/2
f 39/29/2 9/30/2 7/31/2
f 28/32/2 42/33/2 9/30/2
f 5/34/4 18/35/4 47/36/4
f 47/36/4 38/37/4 37/38/4
f 41/39/2 32/40/2 31/41/2
f 45/42/2 36/20/2 35/43/2
f 39/29/2 27/46/2 26/47/2
f 9/30/2 39/29/2 28/32/2
f 26/47/2 28/32/2 39/29/2
f 40/48/2 8/49/2 2/50/2
f 21/51/2 40/48/2 2/50/2
f 27/46/2 40/48/2 21/51/2
f 13/52/2 9/30/2 42/33/2
f 28/32/2 32/40/2 42/33/2
f 44/53/2 31/41/2 30/54/2
f 43/25/2 30/54/2 29/23/2
f 12/55/2 44/53/2 11/56/2
f 20/24/2 1/57/2 43/25/2
f 1/57/2 10/58/2 43/25/2
f 5/59/2 24/22/2 46/21/2
f 17/60/2 5/59/2 46/21/2
f 2/50/2 16/61/2 45/42/2
f 21/51/2 2/50/2 45/42/2
f 35/43/2 21/51/2 45/42/2
f 5/34/4 47/36/4 24/62/4
f 37/38/4 24/62/4 47/36/4
f 6/63/4 48/64/4 19/65/4
f 49/66/4 25/67/4 6/68/4
f 25/100/4 38/37/4 48/64/4
f 47/36/4 48/64/4 38/37/4
f 41/39/2 42/33/2 32/40/2
f 45/42/2 46/21/2 36/20/2
f 39/29/2 40/48/2 27/46/2
f 44/53/2 41/39/2 31/41/2
f 43/25/2 44/53/2 30/54/2
f 12/55/2 41/39/2 44/53/2
f 6/63/4 25/100/4 48/64/4
f 49/66/4 52/111/4 25/67/4
