# Blender 5.1.1
# www.blender.org
mtllib FakeCell02_2.mtl
o FakeCell02_2
v -8.000000 0.000000 4.000000
v -5.000000 0.000000 4.000000
v -5.000000 0.000000 6.300000
v -6.600000 0.000000 8.000000
v -7.600000 0.000000 8.000000
v -8.000000 0.000000 6.900000
v -6.600000 0.000000 8.200000
v -7.600000 0.000000 8.200000
v -8.000000 3.000000 4.000000
v -5.000000 3.000000 4.000000
v -5.000000 3.000000 6.300000
v -8.000000 3.000000 6.900000
v -6.600000 2.000000 8.000000
v -7.600000 2.000000 8.000000
v -6.600000 2.000000 8.200000
v -7.600000 2.000000 8.200000
v -6.200000 0.000000 6.900000
v -6.200000 0.000000 8.000000
v -6.200000 3.000000 6.900000
v -6.200000 3.000000 8.000000
v -8.000000 0.000000 8.000000
v -8.000000 3.000000 8.000000
vn -0.0000 1.0000 -0.0000
vn -1.0000 -0.0000 -0.0000
vn 1.0000 -0.0000 -0.0000
vn -0.0000 -0.0000 1.0000
vn -0.0000 -1.0000 -0.0000
vt -0.139683 2.905555
vt 1.050794 2.667460
vt -0.139683 2.667460
vt 0.610317 2.584127
vt -2.127778 -0.987302
vt 0.610317 -0.987302
vt -2.127778 2.584127
vt 1.324603 -0.987302
vt 2.955555 2.584127
vt -0.615873 -0.987302
vt 2.955555 -0.987302
vt 1.050794 2.905555
vt 2.872222 -0.987302
vt 2.634127 1.393651
vt 2.634127 -0.987302
vt 2.872222 1.393651
vt -0.615873 -2.094445
vt 2.955555 -2.094445
vt -0.615873 1.357936
vt 2.955555 0.643651
vt 1.526984 2.667460
vt -0.615873 2.667460
vt 2.634127 2.584127
vt 1.324603 2.584127
vt 1.526984 1.357936
vt -0.615873 2.584127
vt -0.139683 2.905555
s 0
usemtl SmoothConcrete
f 8/1/1 4/2/1 5/3/1
f 6/19/1 3/20/1 2/18/1
f 1/17/1 6/19/1 2/18/1
f 8/1/1 7/12/1 4/2/1
usemtl Plaster
f 11/4/2 2/5/2 3/6/2
f 9/7/3 6/8/3 1/5/3
f 10/9/4 1/10/4 2/11/4
f 15/12/5 14/3/5 13/2/5
f 7/13/2 13/14/2 4/15/2
f 5/15/3 16/16/3 8/13/3
f 20/23/2 17/8/2 18/15/2
f 22/23/3 6/8/3 12/24/3
f 11/4/2 10/7/2 2/5/2
f 9/7/3 12/24/3 6/8/3
f 10/9/4 9/26/4 1/10/4
f 15/12/5 16/27/5 14/3/5
f 7/13/2 15/16/2 13/14/2
f 5/15/3 14/14/3 16/16/3
f 20/23/2 19/24/2 17/8/2
f 22/23/3 21/15/3 6/8/3
usemtl SmoothConcrete
f 9/17/5 10/18/5 12/19/5
f 12/19/5 20/21/5 22/22/5
f 11/20/5 12/19/5 10/18/5
f 12/19/5 11/20/5 19/25/5
f 12/19/5 19/25/5 20/21/5
