# Blender 5.0.1
# www.blender.org
mtllib PlasticFork.mtl
o PlasticFork
v -0.014125 0.004136 0.075566
v -0.014125 0.009006 0.074434
v -0.006046 -0.000041 -0.074888
v -0.006046 0.004956 -0.075057
v 0.014125 0.004136 0.075566
v 0.014125 0.009006 0.074434
v 0.006046 -0.000041 -0.074888
v 0.006046 0.004956 -0.075057
v -0.006046 0.003647 0.020897
v -0.014125 0.000000 0.036001
v -0.014125 0.005000 0.036001
v -0.006046 0.008644 0.020728
v 0.014125 0.000000 0.036001
v 0.006046 0.003647 0.020897
v 0.006046 0.008644 0.020728
v 0.014125 0.005000 0.036001
vn -0.0000 -0.0338 -0.9994
vn 1.0000 -0.0000 -0.0000
vn -0.0000 0.2265 0.9740
vn -0.0000 -0.9946 0.1040
vn -0.0000 0.9946 -0.1037
vn -0.0000 -0.9993 0.0385
vn -0.0000 0.9727 0.2321
vn -0.0000 -0.9721 -0.2347
vn -1.0000 -0.0000 -0.0000
vn 0.8818 -0.0000 -0.4717
vn -0.8818 -0.0000 -0.4717
vn -0.0000 0.9993 -0.0385
vn 0.8823 -0.0159 -0.4705
vn -0.8823 -0.0159 -0.4705
vt 0.062500 0.031250
vt 0.078125 0.000000
vt 0.078125 0.031250
vt 0.140625 0.093750
vt 0.125000 0.000000
vt 0.140625 0.000000
vt 0.062500 0.093750
vt 0.078125 0.093750
vt 0.062500 0.250000
vt 0.000000 0.343750
vt 0.000000 0.250000
vt 0.125000 0.250000
vt 0.062500 0.343750
vt 0.046875 0.218750
vt 0.015625 0.000000
vt 0.046875 0.000000
vt 0.109375 0.218750
vt 0.078125 0.218750
vt 0.125000 0.343750
vt 0.140625 0.125000
vt 0.140625 0.343750
vt 0.015625 0.218750
vt 0.156250 0.343750
vt 0.125000 0.093750
vt 0.156250 0.000000
vt 0.156250 0.093750
vt 0.109375 0.000000
vt 0.062500 0.000000
vt 0.125000 0.125000
vt 0.156250 0.125000
s 0
usemtl 64x64grid
f 4/1/1 7/2/1 3/3/1
f 13/4/2 6/5/2 5/6/2
f 6/7/3 1/3/3 5/8/3
f 13/9/4 1/10/4 10/11/4
f 11/12/5 6/13/5 16/9/5
f 14/14/6 3/15/6 7/16/6
f 12/17/7 16/9/7 15/18/7
f 8/19/2 14/20/2 7/21/2
f 14/14/8 10/11/8 9/22/8
f 9/20/9 4/23/9 3/21/9
f 14/20/10 16/24/10 13/4/10
f 2/25/9 10/4/9 1/6/9
f 11/26/11 9/20/11 10/4/11
f 12/17/12 8/2/12 4/27/12
f 4/1/1 8/28/1 7/2/1
f 13/4/2 16/24/2 6/5/2
f 6/7/3 2/1/3 1/3/3
f 13/9/4 5/13/4 1/10/4
f 11/12/5 2/19/5 6/13/5
f 14/14/6 9/22/6 3/15/6
f 12/17/7 11/12/7 16/9/7
f 8/19/2 15/29/2 14/20/2
f 14/14/8 13/9/8 10/11/8
f 9/20/9 12/30/9 4/23/9
f 14/20/13 15/29/13 16/24/13
f 2/25/9 11/26/9 10/4/9
f 11/26/14 12/30/14 9/20/14
f 12/17/12 15/18/12 8/2/12
