# Blender 5.1.1
# www.blender.org
mtllib Burger.mtl
o Burger
v 0.000000 -0.025000 -0.080000
v 0.000000 0.025000 -0.080000
v 0.056569 -0.025000 -0.056569
v 0.056569 0.025000 -0.056569
v 0.080000 -0.025000 0.000000
v 0.080000 0.025000 0.000000
v 0.056569 -0.025000 0.056569
v 0.056569 0.025000 0.056569
v 0.000000 -0.025000 0.080000
v 0.000000 0.025000 0.080000
v -0.056569 -0.025000 0.056569
v -0.056569 0.025000 0.056569
v -0.080000 -0.025000 0.000000
v -0.080000 0.025000 0.000000
v -0.056569 -0.025000 -0.056569
v -0.056569 0.025000 -0.056569
v -0.063145 0.039195 0.000000
v 0.000000 0.039195 0.063145
v 0.000000 0.047414 0.000000
v 0.000000 0.039195 -0.063145
v 0.063145 0.039195 0.000000
v -0.072592 -0.028263 0.000000
v 0.000000 -0.028263 0.000000
v 0.072592 -0.028263 0.000000
v 0.000000 -0.028263 0.072592
v 0.000000 -0.028263 -0.072592
v -0.060862 0.000882 0.055052
v 0.057199 0.001502 0.074200
v -0.049730 -0.002484 -0.063221
v 0.056678 -0.001207 -0.069113
v -0.084912 -0.004621 -0.035857
v -0.087411 0.006561 0.018257
v -0.030898 -0.007714 0.080071
v 0.015491 -0.000069 0.083313
v 0.080414 0.006385 0.027383
v 0.081088 -0.001117 -0.022421
v 0.028752 -0.001687 -0.075816
v -0.016040 -0.001538 -0.089444
v -0.023898 -0.000417 0.022258
v -0.022435 -0.000080 -0.026633
v 0.021675 -0.002756 0.018008
v 0.024157 -0.007814 -0.022036
vn 0.3827 -0.0000 -0.9239
vn 0.9239 -0.0000 -0.3827
vn 0.9239 -0.0000 0.3827
vn 0.3827 -0.0000 0.9239
vn -0.3827 -0.0000 0.9239
vn -0.9239 -0.0000 0.3827
vn -0.2578 0.7390 0.6224
vn -0.9239 -0.0000 -0.3827
vn -0.3827 -0.0000 -0.9239
vn 0.3976 -0.9026 0.1647
vn -0.6224 0.7390 0.2578
vn -0.2578 0.7390 -0.6224
vn -0.6224 0.7390 -0.2578
vn -0.2635 0.9280 -0.2635
vn -0.2635 0.9280 0.2635
vn 0.1280 0.9835 -0.1280
vn 0.1280 0.9835 0.1280
vn 0.2578 0.7390 0.6224
vn 0.2578 0.7390 -0.6224
vn 0.6224 0.7390 0.2578
vn 0.6224 0.7390 -0.2578
vn 0.1647 -0.9026 0.3976
vn -0.1647 -0.9026 0.3976
vn -0.3976 -0.9026 -0.1647
vn -0.0000 -1.0000 -0.0000
vn -0.1647 -0.9026 -0.3976
vn -0.3976 -0.9026 0.1647
vn 0.3976 -0.9026 -0.1647
vn 0.0800 -0.9936 0.0800
vn -0.0800 -0.9936 -0.0800
vn 0.1647 -0.9026 -0.3976
vn 0.2635 0.9280 0.2635
vn -0.1280 0.9835 0.1280
vn -0.1280 0.9835 -0.1280
vn 0.2635 0.9280 -0.2635
vn -0.0800 -0.9936 0.0800
vn 0.0800 -0.9936 -0.0800
vn -0.0433 0.9930 0.1095
vn -0.0706 0.9974 -0.0129
vn 0.0101 0.9997 -0.0222
vn 0.1040 0.9915 0.0780
vn -0.0410 0.9781 -0.2040
vn -0.1688 0.9802 0.1033
vn 0.0521 0.9986 0.0084
vn -0.0475 0.9978 -0.0456
vn -0.1167 0.9844 -0.1316
vn -0.1162 0.9915 0.0589
vn -0.0500 0.9983 -0.0283
vn 0.1505 0.9807 0.1246
vn 0.1610 0.9766 0.1428
vn 0.1086 0.9940 0.0101
vn 0.0478 0.9982 -0.0366
vn 0.1735 0.9783 -0.1128
vn -0.1576 0.9872 0.0248
vn -0.1287 0.9804 -0.1494
vt 0.000000 0.750000
vt 0.250513 0.625000
vt 0.250513 0.750000
vt 0.000000 0.625000
vt 0.250513 0.500000
vt 0.000000 0.500000
vt 0.250513 0.375000
vt 0.000000 0.375000
vt 0.250513 0.250000
vt 0.000000 0.250000
vt 0.250513 0.125000
vt 0.000000 0.125000
vt 0.250513 0.000000
vt 0.813170 0.312707
vt 0.934997 0.308865
vt 0.813309 0.359050
vt -0.000000 1.000000
vt 0.250513 0.875000
vt 0.250513 1.000000
vt 0.000000 0.875000
vt 0.812723 0.648322
vt 0.928994 0.696227
vt 0.812707 0.665035
vt 0.938108 0.187017
vt 0.984451 0.186878
vt 0.812279 0.015736
vt 0.934266 0.065190
vt 0.812418 0.062079
vt 0.812794 0.187393
vt 0.687480 0.187769
vt 0.691323 0.309596
vt 0.690591 0.065922
vt 0.641137 0.187908
vt 0.959962 0.812574
vt 0.976675 0.812590
vt 0.928771 0.928862
vt 0.812407 0.976543
vt 0.696135 0.928639
vt 0.812423 0.959830
vt 0.812565 0.812433
vt 0.665167 0.812291
vt 0.648454 0.812275
vt 0.696359 0.696003
vt 0.537106 0.464848
vt 0.636504 0.403647
vt 0.647106 0.461629
vt 0.541497 0.561341
vt 0.614152 0.620401
vt 0.555721 0.690187
vt 0.670530 0.554066
vt 0.370442 0.631830
vt 0.441003 0.559058
vt 0.442964 0.690187
vt 0.320825 0.471272
vt 0.320983 0.567190
vt 0.454797 0.465935
vt 0.343653 0.387460
vt 0.543426 0.348877
vt 0.000000 0.000000
vt 0.441076 0.343750
s 0
usemtl Burger
f 2/1/1 3/2/1 1/3/1
f 4/4/2 5/5/2 3/2/2
f 6/6/3 7/7/3 5/5/3
f 8/8/4 9/9/4 7/7/4
f 10/10/5 11/11/5 9/9/5
f 12/12/6 13/13/6 11/11/6
f 18/14/7 12/15/7 10/16/7
f 14/17/8 15/18/8 13/19/8
f 16/20/9 1/3/9 15/18/9
f 5/21/10 7/22/10 24/23/10
f 17/24/11 14/25/11 12/15/11
f 2/26/12 16/27/12 20/28/12
f 17/24/13 16/27/13 14/25/13
f 20/28/14 16/27/14 17/24/14
f 17/24/15 12/15/15 18/14/15
f 20/28/16 19/29/16 21/30/16
f 21/30/17 19/29/17 18/14/17
f 8/31/18 18/14/18 10/16/18
f 4/32/19 2/26/19 20/28/19
f 6/33/20 21/30/20 8/31/20
f 6/33/21 4/32/21 21/30/21
f 25/34/22 7/22/22 9/35/22
f 11/36/23 25/34/23 9/35/23
f 13/37/24 15/38/24 22/39/24
f 24/23/25 23/40/25 26/41/25
f 15/38/26 1/42/26 26/41/26
f 11/36/27 13/37/27 22/39/27
f 3/43/28 5/21/28 24/23/28
f 22/39/25 23/40/25 25/34/25
f 24/23/29 7/22/29 25/34/29
f 22/39/30 15/38/30 26/41/30
f 1/42/31 3/43/31 26/41/31
f 8/31/32 21/30/32 18/14/32
f 19/29/33 17/24/33 18/14/33
f 19/29/34 20/28/34 17/24/34
f 4/32/35 20/28/35 21/30/35
f 11/36/36 22/39/36 25/34/36
f 23/40/25 22/39/25 26/41/25
f 3/43/37 24/23/37 26/41/37
f 23/40/25 24/23/25 25/34/25
f 42/44/38 30/45/38 37/46/38
f 40/47/39 29/48/39 31/49/39
f 40/47/40 37/46/40 38/50/40
f 27/51/41 39/52/41 32/53/41
f 32/53/42 40/47/42 31/49/42
f 34/54/43 39/52/43 33/55/43
f 41/56/44 40/47/44 39/52/44
f 28/57/45 41/56/45 34/54/45
f 41/56/46 36/58/46 42/44/46
f 2/1/1 4/4/1 3/2/1
f 4/4/2 6/6/2 5/5/2
f 6/6/3 8/8/3 7/7/3
f 8/8/4 10/10/4 9/9/4
f 10/10/5 12/12/5 11/11/5
f 12/12/6 14/59/6 13/13/6
f 14/17/8 16/20/8 15/18/8
f 16/20/9 2/1/9 1/3/9
f 42/44/47 36/58/47 30/45/47
f 40/47/48 38/50/48 29/48/48
f 40/47/49 42/44/49 37/46/49
f 27/51/50 33/55/50 39/52/50
f 32/53/51 39/52/51 40/47/51
f 34/54/52 41/56/52 39/52/52
f 41/56/53 42/44/53 40/47/53
f 28/57/54 35/60/54 41/56/54
f 41/56/55 35/60/55 36/58/55
