# Blender 5.0.1
# www.blender.org
mtllib OpenCardboardBoxFlat.mtl
o OpenCardboardBoxFlat
v -0.150000 0.000000 0.120000
v -0.150000 0.118129 0.120000
v -0.150000 0.000000 -0.120000
v -0.150000 0.118129 -0.120000
v 0.150000 0.000000 0.120000
v 0.150000 0.118129 0.120000
v 0.150000 0.000000 -0.120000
v 0.150000 0.118129 -0.120000
v -0.150000 0.000000 0.000000
v -0.150000 0.118129 0.000000
v 0.150000 0.000000 0.000000
v 0.150000 0.118129 0.000000
v 0.175464 0.068369 0.088263
v 0.175464 0.068369 -0.088263
v -0.150000 0.008663 -0.169165
v 0.150000 0.008663 -0.169165
v -0.175972 0.068632 -0.088263
v -0.175972 0.068632 0.088263
v -0.150000 0.010918 0.173907
v 0.150000 0.010918 0.173907
v -0.175972 0.068632 0.000000
v 0.175464 0.068369 0.000000
v -0.145325 0.006404 0.116260
v -0.145325 0.120851 0.116260
v -0.145325 0.006404 -0.116260
v -0.145325 0.120851 -0.116260
v 0.145325 0.006404 0.116260
v 0.145325 0.120851 0.116260
v 0.145325 0.006404 -0.116260
v 0.145325 0.120851 -0.116260
v -0.145325 0.006404 0.000000
v -0.145325 0.120851 0.000000
v 0.145325 0.006404 0.000000
v 0.145325 0.120851 0.000000
v -0.150000 0.120351 0.124421
v -0.150000 0.120156 -0.124514
v 0.150000 0.120351 0.124421
v 0.150000 0.120156 -0.124514
v -0.150000 0.010690 -0.173679
v 0.150000 0.010690 -0.173679
v -0.150000 0.013141 0.178327
v 0.150000 0.013141 0.178327
v -0.154705 0.120597 0.120000
v -0.154705 0.120597 -0.120000
v 0.154730 0.120549 0.120000
v 0.154730 0.120549 -0.120000
v -0.154705 0.120597 -0.000000
v 0.154730 0.120549 0.000000
v 0.180194 0.070789 0.088263
v 0.180194 0.070789 -0.088263
v -0.180677 0.071101 -0.088263
v -0.180677 0.071101 0.088263
v -0.180677 0.071101 -0.000000
v 0.180194 0.070789 0.000000
vn -1.0000 -0.0000 -0.0000
vn -0.0000 -0.0000 -1.0000
vn 1.0000 -0.0000 -0.0000
vn -0.0000 -0.0000 1.0000
vn -0.0000 -1.0000 -0.0000
vn 0.8855 -0.4646 -0.0000
vn -0.0000 -0.4492 -0.8934
vn -0.0000 -0.4097 0.9122
vn -0.8902 -0.4556 -0.0000
vn -0.0000 1.0000 -0.0000
vn -0.0000 0.4492 0.8934
vn -0.0000 0.4097 -0.9122
vn -0.8855 0.4646 -0.0000
vn 0.8902 0.4556 -0.0000
vn 0.2249 -0.4395 0.8696
vn 0.4556 -0.8902 -0.0000
vn 0.2249 -0.4395 -0.8696
vn -0.0000 -0.9122 -0.4097
vn -0.2294 -0.4372 -0.8696
vn -0.4646 -0.8855 -0.0000
vn -0.2294 -0.4372 0.8696
vn -0.0000 -0.8934 0.4492
vn -0.0000 0.9981 0.0612
vn 0.0321 0.9995 -0.0000
vn 0.4158 -0.8125 0.4085
vn 0.0100 0.9984 0.0554
vn -0.0000 0.9965 -0.0840
vn -0.0018 0.9964 -0.0850
vn 0.4230 -0.8266 -0.3713
vn -0.0271 0.9996 -0.0000
vn 0.0084 0.9960 -0.0887
vn -0.4317 -0.8228 -0.3696
vn -0.4245 -0.8089 0.4067
vn -0.0034 0.9982 0.0592
vn -0.0270 0.9996 -0.0000
vt 0.156250 0.125000
vt 0.031250 0.000000
vt 0.156250 0.000000
vt 0.312500 0.468750
vt 0.000000 0.343750
vt 0.312500 0.343750
vt 0.656250 0.562500
vt 0.343750 0.437500
vt 0.656250 0.437500
vt 0.343750 0.500000
vt 0.656250 0.375000
vt 0.656250 0.500000
vt 0.156250 0.062500
vt 0.031250 0.125000
vt 0.031250 0.062500
vt 0.000000 0.843750
vt 0.312500 0.718750
vt 0.312500 0.843750
vt 0.343750 0.625000
vt 0.656250 0.625000
vt 0.281250 0.125000
vt 0.281250 0.000000
vt 0.000000 0.968750
vt 0.312500 0.968750
vt 0.375000 0.437500
vt 0.500000 0.562500
vt 0.500000 0.437500
vt 0.625000 0.562500
vt 0.625000 0.437500
vt 0.375000 0.531250
vt 0.500000 0.468750
vt 0.375000 0.468750
vt 0.625000 0.531250
vt 0.625000 0.468750
vt 0.468750 0.375000
vt 0.437500 0.406250
vt 0.468750 0.406250
vt 0.437500 0.375000
vt 0.000000 0.468750
vt 0.343750 0.562500
vt 0.343750 0.375000
vt 0.000000 0.718750
vt 0.281250 0.062500
vt 0.375000 0.562500
vt 0.500000 0.531250
s 0
usemtl CardboardBox
f 10/1/1 3/2/1 9/3/1
f 4/4/2 7/5/2 3/6/2
f 12/1/3 5/2/3 11/3/3
f 6/7/4 1/8/4 5/9/4
f 11/10/5 1/11/5 9/12/5
f 10/13/6 17/14/6 4/15/6
f 19/16/7 6/17/7 20/18/7
f 7/19/5 9/12/5 3/20/5
f 8/21/3 11/3/3 7/22/3
f 2/21/1 9/3/1 1/22/1
f 4/23/8 16/18/8 8/24/8
f 10/13/6 18/21/6 21/1/6
f 12/13/9 13/14/9 6/15/9
f 12/13/9 14/21/9 22/1/9
f 25/25/3 32/26/3 31/27/3
f 29/8/4 26/7/4 25/9/4
f 27/25/1 34/26/1 33/27/1
f 23/8/2 28/7/2 27/9/2
f 23/11/10 33/10/10 31/12/10
f 31/12/10 29/19/10 25/20/10
f 33/27/1 30/28/1 29/29/1
f 31/27/3 24/28/3 23/29/3
f 37/11/11 41/10/11 42/12/11
f 40/12/12 36/19/12 38/20/12
f 51/30/13 47/31/13 44/32/13
f 47/31/13 52/33/13 43/34/13
f 49/30/14 48/31/14 45/32/14
f 48/31/14 50/33/14 46/34/14
f 13/35/15 45/36/15 6/37/15
f 54/35/16 13/36/16 22/37/16
f 50/38/16 22/37/16 14/35/16
f 46/35/17 14/36/17 8/37/17
f 40/38/3 8/37/3 16/35/3
f 39/35/18 16/36/18 15/37/18
f 4/35/1 39/36/1 15/37/1
f 51/35/19 4/36/19 17/37/19
f 53/38/20 17/37/20 21/35/20
f 52/35/20 21/36/20 18/37/20
f 43/38/21 18/37/21 2/35/21
f 19/37/1 35/38/1 2/36/1
f 42/38/22 19/37/22 20/35/22
f 37/35/3 20/36/3 6/37/3
f 35/38/23 28/37/23 24/35/23
f 28/37/24 48/38/24 34/36/24
f 45/36/25 37/35/25 6/38/25
f 37/38/26 45/35/26 28/36/26
f 48/38/24 30/37/24 34/35/24
f 38/35/27 26/36/27 30/37/27
f 46/36/28 38/38/28 30/35/28
f 46/36/29 8/38/29 38/35/29
f 26/35/30 47/36/30 32/37/30
f 47/35/30 24/36/30 32/37/30
f 36/37/31 44/35/31 26/36/31
f 36/36/32 4/37/32 44/35/32
f 43/35/33 2/37/33 35/36/33
f 35/37/34 24/35/34 43/36/34
f 10/1/1 4/14/1 3/2/1
f 4/4/2 8/39/2 7/5/2
f 12/1/3 6/14/3 5/2/3
f 6/7/4 2/40/4 1/8/4
f 11/10/5 5/41/5 1/11/5
f 10/13/6 21/1/6 17/14/6
f 19/16/7 2/42/7 6/17/7
f 7/19/5 11/10/5 9/12/5
f 8/21/3 12/1/3 11/3/3
f 2/21/1 10/1/1 9/3/1
f 4/23/8 15/16/8 16/18/8
f 10/13/6 2/43/6 18/21/6
f 12/13/9 22/1/9 13/14/9
f 12/13/9 8/43/9 14/21/9
f 25/25/3 26/44/3 32/26/3
f 29/8/4 30/40/4 26/7/4
f 27/25/1 28/44/1 34/26/1
f 23/8/2 24/40/2 28/7/2
f 23/11/10 27/41/10 33/10/10
f 31/12/10 33/10/10 29/19/10
f 33/27/1 34/26/1 30/28/1
f 31/27/3 32/26/3 24/28/3
f 37/11/11 35/41/11 41/10/11
f 40/12/12 39/10/12 36/19/12
f 51/30/13 53/45/13 47/31/13
f 47/31/13 53/45/13 52/33/13
f 49/30/14 54/45/14 48/31/14
f 48/31/14 54/45/14 50/33/14
f 13/35/15 49/38/15 45/36/15
f 54/35/16 49/38/16 13/36/16
f 50/38/16 54/36/16 22/37/16
f 46/35/17 50/38/17 14/36/17
f 40/38/3 38/36/3 8/37/3
f 39/35/18 40/38/18 16/36/18
f 4/35/1 36/38/1 39/36/1
f 51/35/19 44/38/19 4/36/19
f 53/38/20 51/36/20 17/37/20
f 52/35/20 53/38/20 21/36/20
f 43/38/21 52/36/21 18/37/21
f 19/37/1 41/35/1 35/38/1
f 42/38/22 41/36/22 19/37/22
f 37/35/3 42/38/3 20/36/3
f 35/38/23 37/36/23 28/37/23
f 28/37/24 45/35/24 48/38/24
f 48/38/24 46/36/24 30/37/24
f 38/35/27 36/38/27 26/36/27
f 26/35/35 44/38/35 47/36/35
f 47/35/35 43/38/35 24/36/35
