# Blender 5.0.1
# www.blender.org
mtllib Stool.mtl
o Stool
v 0.000000 0.360000 -0.150000
v 0.000000 0.400000 -0.150000
v 0.106066 0.360000 -0.106066
v 0.106066 0.400000 -0.106066
v 0.150000 0.360000 0.000000
v 0.150000 0.400000 0.000000
v 0.106066 0.360000 0.106066
v 0.106066 0.400000 0.106066
v 0.000000 0.360000 0.150000
v 0.000000 0.400000 0.150000
v -0.106066 0.360000 0.106066
v -0.106066 0.400000 0.106066
v -0.150000 0.360000 0.000000
v -0.150000 0.400000 0.000000
v -0.106066 0.360000 -0.106066
v -0.106066 0.400000 -0.106066
v 0.092656 0.000000 0.118705
v 0.056550 0.385167 0.082460
v 0.092853 0.000000 0.092883
v 0.056746 0.383083 0.056639
v 0.118478 0.000000 0.118705
v 0.082371 0.387258 0.082460
v 0.118675 0.000000 0.092883
v 0.082568 0.385175 0.056639
v -0.118474 0.000000 0.118705
v -0.082368 0.387258 0.082460
v -0.118671 0.000000 0.092883
v -0.082564 0.385175 0.056639
v -0.092653 0.000000 0.118705
v -0.056546 0.385167 0.082460
v -0.092850 0.000000 0.092883
v -0.056743 0.383083 0.056639
v 0.092883 0.000000 -0.092850
v 0.056639 0.383083 -0.056743
v 0.092883 0.000000 -0.118671
v 0.056639 0.385175 -0.082564
v 0.118705 0.000000 -0.092653
v 0.082460 0.385167 -0.056546
v 0.118705 0.000000 -0.118474
v 0.082460 0.387258 -0.082368
v -0.118671 0.000000 -0.092880
v -0.082564 0.385175 -0.056635
v -0.118474 0.000000 -0.118701
v -0.082368 0.387258 -0.082457
v -0.092850 0.000000 -0.092880
v -0.056743 0.383083 -0.056635
v -0.092653 0.000000 -0.118701
v -0.056546 0.385167 -0.082457
vn 0.3827 -0.0000 -0.9239
vn 0.9239 -0.0000 -0.3827
vn 0.9239 -0.0000 0.3827
vn 0.3827 -0.0000 0.9239
vn -0.3827 -0.0000 0.9239
vn -0.9239 -0.0000 0.3827
vn -0.0000 1.0000 -0.0000
vn -0.9239 -0.0000 -0.3827
vn -0.3827 -0.0000 -0.9239
vn -0.0000 -1.0000 -0.0000
vn -0.9955 -0.0940 -0.0076
vn -0.0000 -0.0937 -0.9956
vn 0.9956 0.0935 0.0076
vn -0.0000 0.0932 0.9956
vn -0.9956 0.0935 0.0076
vn 0.9955 -0.0940 -0.0076
vn -0.9956 -0.0937 -0.0000
vn 0.0076 0.0935 -0.9956
vn 0.9956 0.0932 -0.0000
vn -0.0076 -0.0940 0.9955
vn -0.9956 0.0935 -0.0076
vn -0.0000 0.0932 -0.9956
vn 0.9955 -0.0940 0.0076
vn -0.0000 -0.0937 0.9956
vn -0.9956 -0.0938 -0.0000
vn 0.0076 -0.0935 -0.9956
vn 0.9956 0.0933 0.0001
vn -0.0075 0.0930 0.9956
vn -0.9956 0.0933 0.0001
vn -0.0076 -0.0935 -0.9956
vn 0.9956 -0.0938 -0.0000
vn 0.0075 0.0930 0.9956
vn -0.9956 -0.0935 -0.0076
vn 0.0001 0.0933 -0.9956
vn 0.9956 0.0930 0.0075
vn -0.0000 -0.0938 0.9956
vn -0.9956 0.0933 -0.0001
vn 0.0075 0.0930 -0.9956
vn -0.0076 -0.0935 0.9956
vt 0.375000 1.000000
vt 0.437500 0.875000
vt 0.437500 1.000000
vt 0.375000 0.875000
vt 0.437500 0.750000
vt 0.375000 0.750000
vt 0.437500 0.625000
vt 0.375000 0.625000
vt 0.437500 0.500000
vt 0.375000 0.500000
vt 0.437500 0.375000
vt 0.375000 0.375000
vt 0.437500 0.250000
vt 0.510000 0.750000
vt 0.750000 0.510000
vt 0.990000 0.750000
vt 0.375000 0.250000
vt 0.437500 0.125000
vt 0.375000 0.125000
vt 0.437500 0.000000
vt 0.919706 0.080294
vt 0.580294 0.080294
vt 0.580294 0.419706
vt 0.000000 1.000000
vt 0.062500 0.062500
vt 0.000000 0.062500
vt 0.187500 0.062500
vt 0.250000 1.000000
vt 0.250000 0.062500
vt 0.125000 1.000000
vt 0.125000 0.062500
vt 0.187500 0.000000
vt 0.125000 0.000000
vt 0.062500 1.000000
vt 0.187500 1.000000
vt 0.062500 0.000000
vt 0.000000 0.000000
vt 0.919706 0.919706
vt 0.750000 0.990000
vt 0.580294 0.919706
vt 0.580294 0.580294
vt 0.919706 0.580294
vt 0.375000 0.000000
vt 0.750000 0.490000
vt 0.919706 0.419706
vt 0.990000 0.250000
vt 0.750000 0.010000
vt 0.510000 0.250000
vt 0.250000 0.000000
s 0
usemtl Stool
f 2/1/1 3/2/1 1/3/1
f 4/4/2 5/5/2 3/2/2
f 6/6/3 7/7/3 5/5/3
f 8/8/4 9/9/4 7/7/4
f 10/10/5 11/11/5 9/9/5
f 12/12/6 13/13/6 11/11/6
f 14/14/7 10/15/7 6/16/7
f 14/17/8 15/18/8 13/13/8
f 16/19/9 1/20/9 15/18/9
f 7/21/10 11/22/10 15/23/10
f 18/24/11 19/25/11 17/26/11
f 19/27/12 24/28/12 23/29/12
f 23/27/13 22/30/13 21/31/13
f 22/30/14 17/25/14 21/31/14
f 19/31/10 21/32/10 17/33/10
f 26/34/15 27/31/15 25/25/15
f 28/24/12 31/25/12 27/26/12
f 31/29/16 30/35/16 29/27/16
f 29/27/14 26/30/14 25/31/14
f 31/31/10 25/36/10 27/25/10
f 33/27/17 36/28/17 35/29/17
f 35/31/18 40/35/18 39/27/18
f 40/30/19 37/25/19 39/31/19
f 38/34/20 33/26/20 37/25/20
f 39/29/10 33/32/10 35/27/10
f 41/31/21 44/35/21 43/27/21
f 44/34/22 47/31/22 43/25/22
f 48/34/23 45/26/23 47/25/23
f 45/29/24 42/35/24 41/27/24
f 43/26/10 45/36/10 41/37/10
f 2/1/1 4/4/1 3/2/1
f 4/4/2 6/6/2 5/5/2
f 6/6/3 8/8/3 7/7/3
f 8/8/4 10/10/4 9/9/4
f 10/10/5 12/12/5 11/11/5
f 12/12/6 14/17/6 13/13/6
f 6/16/7 4/38/7 2/39/7
f 2/39/7 16/40/7 14/14/7
f 14/14/7 12/41/7 10/15/7
f 10/15/7 8/42/7 6/16/7
f 6/16/7 2/39/7 14/14/7
f 14/17/8 16/19/8 15/18/8
f 16/19/9 2/43/9 1/20/9
f 15/23/10 1/44/10 3/45/10
f 3/45/10 5/46/10 7/21/10
f 7/21/10 9/47/10 11/22/10
f 11/22/10 13/48/10 15/23/10
f 15/23/10 3/45/10 7/21/10
f 18/24/25 20/34/25 19/25/25
f 19/27/26 20/35/26 24/28/26
f 23/27/27 24/35/27 22/30/27
f 22/30/28 18/34/28 17/25/28
f 19/31/10 23/27/10 21/32/10
f 26/34/29 28/30/29 27/31/29
f 28/24/30 32/34/30 31/25/30
f 31/29/31 32/28/31 30/35/31
f 29/27/32 30/35/32 26/30/32
f 31/31/10 29/33/10 25/36/10
f 33/27/33 34/35/33 36/28/33
f 35/31/34 36/30/34 40/35/34
f 40/30/35 38/34/35 37/25/35
f 38/34/36 34/24/36 33/26/36
f 39/29/10 37/49/10 33/32/10
f 41/31/37 42/30/37 44/35/37
f 44/34/38 48/30/38 47/31/38
f 48/34/31 46/24/31 45/26/31
f 45/29/39 46/28/39 42/35/39
f 43/26/10 47/25/10 45/36/10
