# Blender 5.0.1
# www.blender.org
mtllib Blanket03.mtl
o Blanket03
v -0.300395 0.040964 0.963808
v -0.431979 0.008139 0.985510
v -0.398689 0.021115 -0.364732
v -0.480477 0.017582 -0.355113
v 0.095084 0.072474 0.942768
v 0.120064 0.141881 0.962163
v -0.214207 0.091765 -0.307364
v -0.186258 0.217296 -0.329045
v -0.465032 0.022117 -0.029350
v -0.427407 0.085067 0.217356
v -0.437770 0.133862 0.451213
v -0.400628 0.066016 0.736663
v -0.474890 0.002085 0.715013
v -0.443490 -0.009296 0.450427
v -0.460185 0.005391 0.215508
v -0.499169 0.016926 -0.034752
v -0.366700 0.163240 -0.315787
v -0.412783 0.116404 -0.348850
v -0.426373 0.092663 -0.393344
v -0.427941 0.041247 -0.395938
v -0.530273 0.037739 -0.387371
v -0.496391 0.173131 -0.380675
v -0.472607 0.236760 -0.314313
v -0.356778 0.314678 -0.347487
v 0.069502 0.094816 0.688444
v -0.224999 0.111162 0.461027
v -0.255706 0.101043 0.196560
v -0.248695 0.106303 -0.022013
v -0.183566 0.178140 -0.041913
v -0.232361 0.173651 0.208699
v -0.133127 0.122917 0.449126
v 0.079159 0.152643 0.639297
v -0.381024 0.062530 0.980271
v -0.394730 0.081842 0.988647
v -0.366432 0.097293 0.934827
v -0.069336 0.067332 0.954589
v -0.104327 0.240151 1.016917
v -0.342771 0.195832 0.968018
v -0.489480 0.210753 0.981210
v -0.509383 0.047789 0.989116
v -0.339605 0.327990 -0.092331
v -0.298321 0.299968 0.175035
v -0.240521 0.378503 0.456486
v -0.154388 0.311389 0.660259
v -0.458982 0.297703 -0.055337
v -0.391200 0.338677 0.194930
v -0.430348 0.370873 0.437292
v -0.384130 0.341865 0.730123
v -0.550802 0.256591 -0.084233
v -0.517369 0.266517 0.172935
v -0.530763 0.287023 0.482293
v -0.511329 0.298707 0.713627
v -0.565331 0.109865 -0.061125
v -0.546189 0.079802 0.215757
v -0.572025 0.103004 0.461520
v -0.582593 0.101730 0.700842
v -0.478952 0.053635 -0.064478
v -0.466002 0.075198 0.236349
v -0.476237 0.090198 0.434484
v -0.420369 0.078100 0.720454
v -0.435879 0.070474 -0.107220
v -0.466783 0.219877 0.203684
v -0.475754 0.234176 0.426587
v -0.400715 0.113762 0.716216
v -0.396373 0.101822 -0.098467
v -0.421575 0.222248 0.187781
v -0.439147 0.257156 0.459757
v -0.352105 0.145688 0.757472
v -0.328163 0.101350 -0.088355
v -0.330302 0.225534 0.216022
v -0.317223 0.276712 0.436872
v -0.209465 0.185356 0.712813
v -0.392535 -0.000802 0.980582
v -0.452274 0.025085 -0.386977
v -0.156493 0.183809 -0.370170
v 0.134301 0.110974 0.980106
v -0.086434 0.137514 0.983281
v -0.308973 0.111329 1.007344
v -0.444813 0.112484 0.996576
v -0.461688 0.034120 0.994341
v -0.194890 0.138577 -0.083904
v -0.236186 0.143160 0.217611
v -0.150695 0.093765 0.467132
v 0.077159 0.122880 0.644308
v -0.487111 0.046465 -0.440598
v -0.469530 0.132139 -0.423151
v -0.420178 0.152672 -0.383121
v -0.347082 0.213145 -0.364857
v -0.420739 0.024820 0.733289
v -0.442097 0.052248 0.456559
v -0.438977 0.010349 0.207233
v -0.478509 0.001520 -0.056497
vn 0.1994 -0.9784 -0.0539
vn 0.4971 0.8133 -0.3024
vn 0.9808 -0.0946 -0.1703
vn 0.0624 -0.2565 0.9645
vn -0.3186 -0.9115 -0.2603
vn -0.6812 -0.7312 0.0362
vn 0.3970 0.9176 -0.0197
vn -0.2218 0.9498 0.2208
vn 0.1321 0.8548 0.5018
vn -0.9283 0.3240 0.1823
vn 0.6737 0.7330 0.0937
vn 0.8529 0.4920 0.1749
vn 0.8811 0.3784 -0.2838
vn 0.4218 0.6971 -0.5798
vn -0.5593 0.8290 -0.0056
vn -0.2047 0.9697 0.1332
vn 0.3072 0.8984 -0.3138
vn 0.1966 0.9529 0.2308
vn -0.3482 0.9164 -0.1973
vn -0.4954 0.8686 -0.0080
vn -0.4623 0.8662 -0.1897
vn -0.3347 0.9311 0.1451
vn -0.9780 0.0657 -0.1980
vn -0.9854 0.1170 0.1236
vn -0.9728 0.2246 -0.0570
vn -0.9398 0.3360 0.0620
vn -0.4511 -0.8804 0.1462
vn -0.8137 -0.5812 -0.0069
vn -0.6578 -0.7531 0.0019
vn -0.6763 -0.7358 -0.0338
vn 0.2571 0.9664 -0.0069
vn 0.8565 -0.4910 -0.1591
vn 0.2942 -0.9485 -0.1176
vn 0.1880 -0.9513 -0.2444
vn 0.8237 0.5436 0.1613
vn -0.3284 0.9260 -0.1862
vn -0.3366 0.9187 -0.2066
vn 0.4177 0.8947 0.1583
vn 0.4485 -0.8879 0.1022
vn 0.9991 -0.0043 -0.0427
vn 0.9987 -0.0005 0.0516
vn 0.8508 -0.4911 -0.1870
vn 0.8747 -0.4847 -0.0085
vn 0.2008 -0.8750 0.4405
vn 0.0757 -0.9949 0.0669
vn 0.7232 -0.5510 -0.4164
vn 0.7402 -0.6667 -0.0873
vn -0.0630 -0.9219 0.3823
vn -0.0036 -0.9919 0.1271
vn 0.0791 -0.9258 -0.3697
vn -0.4100 -0.8953 -0.1742
vn -0.2483 -0.8975 0.3644
vn -0.8722 -0.4627 0.1589
vn -0.8694 -0.4569 0.1883
vn -0.0242 -0.3151 0.9487
vn 0.1363 -0.2870 0.9482
vn -0.0691 0.3981 0.9148
vn -0.1102 -0.0046 0.9939
vn 0.7896 0.6089 0.0756
vn 0.9079 -0.3983 0.1304
vn 0.6840 -0.6345 -0.3600
vn 0.5150 -0.6532 -0.5550
vn -0.1524 -0.9481 -0.2790
vn -0.7683 0.2753 -0.5779
vn 0.1849 0.7630 -0.6194
vn -0.2306 0.5260 -0.8186
vn -0.2293 -0.9705 -0.0744
vn 0.4188 -0.8999 -0.1215
vn 0.2842 -0.9449 0.1623
vn -0.5201 -0.8475 0.1063
vn 0.9839 -0.1367 -0.1152
vn 0.9973 -0.0493 0.0545
vn 0.9878 -0.0618 -0.1432
vn 0.3596 -0.8968 -0.2576
vn 0.7572 -0.3604 -0.5448
vn 0.9627 -0.0542 -0.2651
vn 0.6035 0.0218 -0.7970
vn 0.2249 -0.7091 -0.6683
vn 0.3166 -0.8243 -0.4693
vn 0.9202 -0.3804 -0.0923
vn 0.9035 -0.4281 0.0187
vn 0.6036 -0.7892 0.1132
vn 0.2462 -0.2332 0.9407
vn 0.3412 -0.9357 -0.0892
vn -0.1146 -0.9544 0.2755
vn 0.0716 -0.7311 0.6786
vn 0.1922 -0.0301 0.9809
vn 0.7557 -0.6414 -0.1324
vn -0.2527 -0.6260 -0.7377
vn 0.7285 -0.6693 0.1461
vn -0.0015 0.1685 -0.9857
vn 0.9364 -0.3437 0.0713
vn -0.6227 -0.7815 -0.0379
vn -0.2454 -0.5516 0.7972
vn 0.0247 -0.9956 -0.0899
vn -0.4506 -0.8880 0.0914
vn 0.5653 0.8205 0.0845
vn 0.2557 0.8431 0.4731
vn -0.3414 0.8843 0.3185
vn -0.9550 0.1296 0.2668
vn 0.5008 0.8620 -0.0787
vn 0.6978 0.7156 -0.0327
vn 0.8784 0.3822 -0.2870
vn 0.8899 0.3811 -0.2506
vn -0.2996 0.9321 -0.2036
vn 0.3295 0.9134 -0.2388
vn -0.0261 0.9904 -0.1358
vn -0.0507 0.9930 0.1064
vn -0.7438 0.5952 -0.3041
vn -0.4135 0.9103 0.0186
vn -0.6594 0.7477 -0.0781
vn -0.6370 0.7707 0.0146
vn -0.9561 0.2471 -0.1574
vn -0.9814 0.1713 0.0865
vn -0.9853 0.1256 -0.1154
vn -0.9739 0.2231 -0.0418
vn -0.8072 -0.5883 -0.0483
vn -0.6527 -0.7546 0.0669
vn -0.6543 -0.7562 -0.0008
vn -0.6595 -0.7503 -0.0460
vn 0.5405 0.8408 -0.0315
vn 0.8243 0.5642 0.0480
vn 0.6314 -0.7595 -0.1562
vn -0.0648 -0.9110 -0.4072
vn 0.5296 0.8468 0.0499
vn 0.9375 0.3418 -0.0649
vn -0.7302 0.6774 -0.0890
vn -0.7711 0.6117 0.1765
vn 0.9990 -0.0320 0.0307
vn 0.6406 -0.6653 0.3834
vn 0.9991 0.0143 0.0393
vn 0.9661 -0.0174 -0.2575
vn 0.6309 -0.7710 -0.0863
vn 0.5263 -0.7662 0.3687
vn 0.4306 -0.8913 0.1422
vn 0.7192 -0.5549 -0.4180
vn 0.0330 -0.9630 -0.2676
vn -0.0831 -0.9229 0.3760
vn 0.1932 -0.9583 0.2106
vn 0.1432 -0.9215 -0.3610
vn 0.0179 -0.9984 0.0530
vn -0.8598 -0.5090 -0.0398
vn -0.8436 -0.5239 0.1180
vn -0.2729 -0.9181 0.2874
vn 0.4264 0.5930 0.6831
vn -0.2477 0.3256 0.9125
vn 0.1080 0.2013 0.9736
vn -0.1834 0.0700 0.9805
vn 0.9796 -0.0675 0.1895
vn 0.8812 -0.2311 -0.4125
vn 0.6708 -0.1667 -0.7227
vn -0.1483 -0.9252 -0.3492
vn -0.7199 0.2128 -0.6606
vn 0.1605 0.6831 -0.7125
vn -0.3502 0.1254 -0.9283
vn 0.3990 -0.9160 -0.0428
vn 0.9923 -0.0343 0.1192
vn 0.9973 -0.0154 -0.0718
vn 0.1988 -0.9771 -0.0760
vn 0.8958 -0.4280 -0.1199
vn 0.9867 -0.1581 0.0389
vn 0.8966 -0.4285 -0.1117
vn 0.8937 -0.4243 -0.1459
vn 0.6406 -0.6515 -0.4065
vn 0.6102 0.0714 -0.7890
vn 0.5935 0.0419 -0.8038
vn 0.3277 -0.7849 -0.5258
vn -0.2385 -0.8615 0.4483
vn -0.2172 -0.9690 -0.1174
vn 0.5885 -0.8031 0.0928
vn 0.8569 -0.5143 0.0337
vn 0.1233 -0.0548 0.9908
vn -0.0766 -0.3653 0.9277
vn 0.1409 -0.3450 0.9279
vn -0.0330 -0.3851 0.9223
vn 0.1814 -0.0281 0.9830
vn 0.8563 -0.4901 -0.1631
vn -0.1031 -0.5157 -0.8505
vn -0.0429 -0.9963 -0.0745
vn 0.9250 0.3651 -0.1050
vt 0.624792 0.149003
vt 0.578726 0.005288
vt 0.624792 0.005288
vt 0.692007 0.117860
vt 0.692007 0.005288
vt 0.738072 0.005288
vt 0.681432 0.149003
vt 0.635367 0.149003
vt 0.681432 0.005288
vt 0.794712 0.117860
vt 0.748647 0.005288
vt 0.794712 0.005288
vt 0.005288 0.149003
vt 0.117860 0.005288
vt 0.117860 0.149003
vt 0.568151 0.149003
vt 0.455579 0.005288
vt 0.568151 0.005288
vt 0.455579 0.149003
vt 0.343006 0.005288
vt 0.343006 0.149003
vt 0.230433 0.005288
vt 0.230433 0.149003
vt 0.568151 0.723862
vt 0.455579 0.580147
vt 0.568151 0.580147
vt 0.455579 0.436432
vt 0.568151 0.436432
vt 0.455579 0.292718
vt 0.568151 0.292718
vt 0.343006 0.723862
vt 0.455579 0.723862
vt 0.343006 0.580147
vt 0.343006 0.436432
vt 0.230433 0.580147
vt 0.230433 0.436432
vt 0.343006 0.292718
vt 0.230433 0.723862
vt 0.117860 0.580147
vt 0.117860 0.292718
vt 0.230433 0.292718
vt 0.005288 0.723862
vt 0.117860 0.723862
vt 0.005288 0.580147
vt 0.117860 0.436432
vt 0.005288 0.292718
vt 0.794712 0.568151
vt 0.748647 0.455579
vt 0.794712 0.455579
vt 0.794712 0.343006
vt 0.748647 0.343006
vt 0.794712 0.230433
vt 0.748647 0.117860
vt 0.681432 0.723862
vt 0.635367 0.723862
vt 0.635367 0.580147
vt 0.681432 0.436432
vt 0.681432 0.580147
vt 0.635367 0.292717
vt 0.681432 0.292718
vt 0.738072 0.568151
vt 0.692007 0.455579
vt 0.738072 0.455579
vt 0.738072 0.343006
vt 0.692007 0.343006
vt 0.738072 0.230433
vt 0.692007 0.230433
vt 0.738072 0.117860
vt 0.578726 0.723862
vt 0.624792 0.580147
vt 0.624792 0.723862
vt 0.578726 0.580147
vt 0.624792 0.436432
vt 0.578726 0.292718
vt 0.624792 0.292718
vt 0.578726 0.149003
vt 0.578726 0.292717
vt 0.624792 0.292718
vt 0.578726 0.436432
vt 0.624792 0.436432
vt 0.624792 0.580147
vt 0.578726 0.723862
vt 0.624792 0.723862
vt 0.738072 0.117860
vt 0.738072 0.230433
vt 0.738072 0.343006
vt 0.692007 0.455579
vt 0.692007 0.568151
vt 0.681432 0.292718
vt 0.681432 0.149003
vt 0.635367 0.436432
vt 0.681432 0.436432
vt 0.635367 0.580147
vt 0.748647 0.117860
vt 0.794712 0.117860
vt 0.748647 0.343006
vt 0.748647 0.568151
vt 0.794712 0.568151
vt 0.794712 0.005288
vt 0.635367 0.005288
vt 0.578726 0.149003
vt 0.624792 0.005288
vt 0.005288 0.005288
vt 0.005288 0.436433
vt 0.748647 0.230433
vt 0.635367 0.436432
vt 0.692007 0.568151
vt 0.578726 0.436432
vt 0.578726 0.580147
vt 0.692007 0.343006
vt 0.635367 0.292718
vt 0.748647 0.230433
vt 0.578726 0.005288
s 0
usemtl 32x32grid
f 25/13/5 36/14/5 72/15/5
f 12/16/31 33/17/31 1/18/31
f 64/21/32 33/17/32 60/19/32
f 64/21/33 35/22/33 34/20/33
f 72/15/34 35/22/34 68/23/34
f 3/24/35 57/25/35 9/26/35
f 9/26/36 58/27/36 10/28/36
f 58/27/37 11/30/37 10/28/37
f 11/30/38 60/19/38 12/16/38
f 20/32/39 61/33/39 57/25/39
f 57/25/40 62/34/40 58/27/40
f 58/27/41 63/37/41 59/29/41
f 59/29/42 64/21/42 60/19/42
f 18/38/43 61/33/43 19/31/43
f 61/33/44 66/36/44 62/34/44
f 66/36/45 63/37/45 62/34/45
f 67/41/46 64/21/46 63/37/46
f 17/43/47 65/35/47 18/38/47
f 69/39/48 66/36/48 65/35/48
f 70/45/49 67/41/49 66/36/49
f 71/40/50 68/23/50 67/41/50
f 7/42/51 69/39/51 17/43/51
f 28/44/52 70/45/52 69/39/52
f 70/45/53 26/46/53 71/40/53
f 26/46/54 72/15/54 71/40/54
f 91/77/71 9/1/71 10/78/71
f 90/79/72 10/78/72 11/80/72
f 12/81/73 90/79/73 11/80/73
f 73/82/74 12/81/74 1/83/74
f 87/67/75 17/84/75 18/85/75
f 19/86/76 87/67/76 18/85/76
f 85/87/77 19/86/77 20/63/77
f 74/88/78 20/63/78 3/61/78
f 26/89/79 84/8/79 25/90/79
f 82/91/80 26/89/80 27/92/80
f 28/58/81 82/91/81 27/92/81
f 7/54/82 81/93/82 28/58/82
f 34/52/83 80/94/83 33/95/83
f 78/96/84 34/52/84 35/50/84
f 36/49/85 78/96/85 35/50/85
f 76/97/86 36/49/86 5/98/86
f 33/95/87 73/11/87 1/99/87
f 25/90/88 76/100/88 5/9/88
f 88/4/89 7/6/89 17/84/89
f 92/101/90 3/102/90 9/1/90
f 25/13/95 5/103/95 36/14/95
f 12/16/121 60/19/121 33/17/121
f 64/21/122 34/20/122 33/17/122
f 64/21/123 68/23/123 35/22/123
f 72/15/124 36/14/124 35/22/124
f 3/24/125 20/32/125 57/25/125
f 9/26/126 57/25/126 58/27/126
f 58/27/127 59/29/127 11/30/127
f 11/30/128 59/29/128 60/19/128
f 20/32/129 19/31/129 61/33/129
f 57/25/130 61/33/130 62/34/130
f 58/27/131 62/34/131 63/37/131
f 59/29/132 63/37/132 64/21/132
f 18/38/133 65/35/133 61/33/133
f 61/33/134 65/35/134 66/36/134
f 66/36/135 67/41/135 63/37/135
f 67/41/136 68/23/136 64/21/136
f 17/43/137 69/39/137 65/35/137
f 69/39/138 70/45/138 66/36/138
f 70/45/139 71/40/139 67/41/139
f 71/40/140 72/15/140 68/23/140
f 7/42/141 28/44/141 69/39/141
f 28/44/142 27/104/142 70/45/142
f 70/45/143 27/104/143 26/46/143
f 26/46/144 25/13/144 72/15/144
f 91/77/160 92/101/160 9/1/160
f 90/79/161 91/77/161 10/78/161
f 12/81/162 89/109/162 90/79/162
f 73/82/163 89/109/163 12/81/163
f 87/67/164 88/4/164 17/84/164
f 19/86/165 86/110/165 87/67/165
f 85/87/166 86/110/166 19/86/166
f 74/88/167 85/87/167 20/63/167
f 26/89/168 83/111/168 84/8/168
f 82/91/169 83/111/169 26/89/169
f 28/58/170 81/93/170 82/91/170
f 7/54/171 75/55/171 81/93/171
f 34/52/172 79/112/172 80/94/172
f 78/96/173 79/112/173 34/52/173
f 36/49/174 77/48/174 78/96/174
f 76/97/175 77/48/175 36/49/175
f 33/95/176 80/94/176 73/11/176
f 25/90/177 84/8/177 76/100/177
f 88/4/178 75/5/178 7/6/178
f 92/101/179 74/113/179 3/102/179
usemtl 32x32grid
f 92/1/1 4/2/1 74/3/1
f 24/4/2 8/5/2 75/6/2
f 84/7/3 32/8/3 76/9/3
f 80/10/4 2/11/4 73/12/4
f 13/13/6 40/14/6 56/15/6
f 32/16/7 37/17/7 6/18/7
f 44/19/8 38/20/8 37/17/8
f 48/21/9 39/22/9 38/20/9
f 56/15/10 39/22/10 52/23/10
f 8/24/11 41/25/11 29/26/11
f 29/26/12 42/27/12 30/28/12
f 30/28/13 43/29/13 31/30/13
f 31/30/14 44/19/14 32/16/14
f 23/31/15 41/25/15 24/32/15
f 45/33/16 42/27/16 41/25/16
f 46/34/17 43/29/17 42/27/17
f 43/29/18 48/21/18 44/19/18
f 23/31/19 49/35/19 45/33/19
f 45/33/20 50/36/20 46/34/20
f 50/36/21 47/37/21 46/34/21
f 47/37/22 52/23/22 48/21/22
f 22/38/23 53/39/23 49/35/23
f 53/39/24 50/36/24 49/35/24
f 50/36/25 55/40/25 51/41/25
f 51/41/26 56/15/26 52/23/26
f 4/42/27 53/39/27 21/43/27
f 16/44/28 54/45/28 53/39/28
f 54/45/29 14/46/29 55/40/29
f 55/40/30 13/13/30 56/15/30
f 76/47/55 37/48/55 77/49/55
f 37/48/56 78/50/56 77/49/56
f 38/51/57 79/52/57 78/50/57
f 79/52/58 40/53/58 80/10/58
f 75/54/59 8/55/59 29/56/59
f 29/56/60 82/57/60 81/58/60
f 82/57/61 31/59/61 83/60/61
f 31/59/62 84/7/62 83/60/62
f 74/61/63 21/62/63 85/63/63
f 21/62/64 86/64/64 85/63/64
f 22/65/65 87/66/65 86/64/65
f 23/67/66 88/68/66 87/66/66
f 2/69/67 89/70/67 73/71/67
f 13/72/68 90/73/68 89/70/68
f 90/73/69 15/74/69 91/75/69
f 91/75/70 16/76/70 92/1/70
f 88/68/91 24/4/91 75/6/91
f 81/58/92 75/54/92 29/56/92
f 92/1/93 16/76/93 4/2/93
f 80/10/94 40/53/94 2/11/94
f 13/13/96 2/103/96 40/14/96
f 32/16/97 44/19/97 37/17/97
f 44/19/98 48/21/98 38/20/98
f 48/21/99 52/23/99 39/22/99
f 56/15/100 40/14/100 39/22/100
f 8/24/101 24/32/101 41/25/101
f 29/26/102 41/25/102 42/27/102
f 30/28/103 42/27/103 43/29/103
f 31/30/104 43/29/104 44/19/104
f 23/31/105 45/33/105 41/25/105
f 45/33/106 46/34/106 42/27/106
f 46/34/107 47/37/107 43/29/107
f 43/29/108 47/37/108 48/21/108
f 23/31/109 22/38/109 49/35/109
f 45/33/110 49/35/110 50/36/110
f 50/36/111 51/41/111 47/37/111
f 47/37/112 51/41/112 52/23/112
f 22/38/113 21/43/113 53/39/113
f 53/39/114 54/45/114 50/36/114
f 50/36/115 54/45/115 55/40/115
f 51/41/116 55/40/116 56/15/116
f 4/42/117 16/44/117 53/39/117
f 16/44/118 15/104/118 54/45/118
f 54/45/119 15/104/119 14/46/119
f 55/40/120 14/46/120 13/13/120
f 76/47/145 6/97/145 37/48/145
f 37/48/146 38/51/146 78/50/146
f 38/51/147 39/105/147 79/52/147
f 79/52/148 39/105/148 40/53/148
f 29/56/149 30/106/149 82/57/149
f 82/57/150 30/106/150 31/59/150
f 31/59/151 32/8/151 84/7/151
f 74/61/152 4/107/152 21/62/152
f 21/62/153 22/65/153 86/64/153
f 22/65/154 23/67/154 87/66/154
f 23/67/155 24/4/155 88/68/155
f 2/69/156 13/72/156 89/70/156
f 13/72/157 14/108/157 90/73/157
f 90/73/158 14/108/158 15/74/158
f 91/75/159 15/74/159 16/76/159
f 32/8/180 6/100/180 76/9/180
