# Blender 5.1.0
# www.blender.org
mtllib IndustrialShelf.mtl
o IndustrialShelf
v -0.400000 0.200000 0.200000
v -0.400000 0.220000 0.200000
v -0.400000 0.200000 -0.200000
v -0.400000 0.220000 -0.200000
v 0.400000 0.200000 0.200000
v 0.400000 0.220000 0.200000
v 0.400000 0.200000 -0.200000
v 0.400000 0.220000 -0.200000
v -0.400000 0.600000 0.200000
v -0.400000 0.620000 0.200000
v -0.400000 0.600000 -0.200000
v -0.400000 0.620000 -0.200000
v 0.400000 0.600000 0.200000
v 0.400000 0.620000 0.200000
v 0.400000 0.600000 -0.200000
v 0.400000 0.620000 -0.200000
v -0.400000 1.000000 0.200000
v -0.400000 1.020000 0.200000
v -0.400000 1.000000 -0.200000
v -0.400000 1.020000 -0.200000
v 0.400000 1.000000 0.200000
v 0.400000 1.020000 0.200000
v 0.400000 1.000000 -0.200000
v 0.400000 1.020000 -0.200000
v -0.400000 1.400000 0.200000
v -0.400000 1.420000 0.200000
v -0.400000 1.400000 -0.200000
v -0.400000 1.420000 -0.200000
v 0.400000 1.400000 0.200000
v 0.400000 1.420000 0.200000
v 0.400000 1.400000 -0.200000
v 0.400000 1.420000 -0.200000
v 0.360000 0.000000 -0.160000
v 0.360000 1.920000 -0.160000
v 0.360000 0.000000 -0.180000
v 0.360000 1.920000 -0.180000
v 0.380000 0.000000 -0.160000
v 0.380000 1.920000 -0.160000
v 0.380000 0.000000 -0.180000
v 0.380000 1.920000 -0.180000
v 0.360000 0.000000 0.180000
v 0.360000 1.920000 0.180000
v 0.360000 0.000000 0.160000
v 0.360000 1.920000 0.160000
v 0.380000 0.000000 0.180000
v 0.380000 1.920000 0.180000
v 0.380000 0.000000 0.160000
v 0.380000 1.920000 0.160000
v -0.380000 0.000000 -0.160000
v -0.380000 1.920000 -0.160000
v -0.380000 0.000000 -0.180000
v -0.380000 1.920000 -0.180000
v -0.360000 0.000000 -0.160000
v -0.360000 1.920000 -0.160000
v -0.360000 0.000000 -0.180000
v -0.360000 1.920000 -0.180000
v -0.380000 0.000000 0.180000
v -0.380000 1.920000 0.180000
v -0.380000 0.000000 0.160000
v -0.380000 1.920000 0.160000
v -0.360000 0.000000 0.180000
v -0.360000 1.920000 0.180000
v -0.360000 0.000000 0.160000
v -0.360000 1.920000 0.160000
v 0.340000 0.603911 -0.164286
v 0.340000 0.995481 0.177873
v 0.340000 0.617071 -0.179346
v 0.340000 1.008641 0.162813
v 0.360000 0.603911 -0.164286
v 0.360000 0.995481 0.177873
v 0.360000 0.617071 -0.179346
v 0.360000 1.008641 0.162813
v -0.360000 0.603911 -0.164286
v -0.360000 0.995481 0.177873
v -0.360000 0.617071 -0.179346
v -0.360000 1.008641 0.162813
v -0.340000 0.603911 -0.164286
v -0.340000 0.995481 0.177873
v -0.340000 0.617071 -0.179346
v -0.340000 1.008641 0.162813
v -0.400000 1.800000 0.200000
v -0.400000 1.820000 0.200000
v -0.400000 1.800000 -0.200000
v -0.400000 1.820000 -0.200000
v 0.400000 1.800000 0.200000
v 0.400000 1.820000 0.200000
v 0.400000 1.800000 -0.200000
v 0.400000 1.820000 -0.200000
vn -1.0000 -0.0000 -0.0000
vn -0.0000 -0.0000 -1.0000
vn 1.0000 -0.0000 -0.0000
vn -0.0000 -0.0000 1.0000
vn -0.0000 -1.0000 -0.0000
vn -0.0000 1.0000 -0.0000
vn -0.0000 0.6580 -0.7530
vn -0.0000 -0.6580 0.7530
vt 0.437500 0.015625
vt 0.453125 0.218750
vt 0.453125 0.015625
vt 0.437500 0.218750
vt 0.015625 0.234375
vt 0.437500 0.234375
vt 0.015625 0.218750
vt 0.000000 0.015625
vt 0.000000 0.218750
vt 0.015625 0.015625
vt 0.437500 0.000000
vt 0.015625 0.000000
vt 0.437500 0.437500
vt 0.921875 0.998438
vt 0.937500 0.001562
vt 0.921875 0.001562
vt 0.937500 0.998438
vt 0.953125 0.001562
vt 0.953125 0.998438
vt 0.968750 0.001562
vt 0.906250 0.998438
vt 0.906250 0.001562
vt 0.828125 0.890625
vt 0.796875 0.921875
vt 0.828125 0.921875
vt 0.796875 0.890625
vt 0.937500 0.706250
vt 0.953125 0.293750
vt 0.953125 0.706250
vt 0.906250 0.293750
vt 0.921875 0.706250
vt 0.906250 0.706250
vt 0.921875 0.293750
vt 0.968750 0.293750
vt 0.968750 0.706250
vt 0.937500 0.293750
vt 0.015625 0.437500
vt 0.968750 0.998438
s 0
usemtl 64x64grid
f 2/1/1 3/2/1 1/3/1
f 4/4/2 7/5/2 3/6/2
f 8/7/3 5/8/3 7/9/3
f 6/10/4 1/11/4 5/12/4
f 7/5/5 1/13/5 3/6/5
f 4/4/6 6/10/6 8/7/6
f 10/1/1 11/2/1 9/3/1
f 12/4/2 15/5/2 11/6/2
f 16/7/3 13/8/3 15/9/3
f 14/10/4 9/11/4 13/12/4
f 15/5/5 9/13/5 11/6/5
f 12/4/6 14/10/6 16/7/6
f 18/1/1 19/2/1 17/3/1
f 20/4/2 23/5/2 19/6/2
f 24/7/3 21/8/3 23/9/3
f 22/10/4 17/11/4 21/12/4
f 23/5/5 17/13/5 19/6/5
f 20/4/6 22/10/6 24/7/6
f 26/1/1 27/2/1 25/3/1
f 28/4/2 31/5/2 27/6/2
f 32/7/3 29/8/3 31/9/3
f 30/10/4 25/11/4 29/12/4
f 31/5/5 25/13/5 27/6/5
f 28/4/6 30/10/6 32/7/6
f 82/1/1 83/2/1 81/3/1
f 84/4/2 87/5/2 83/6/2
f 88/7/3 85/8/3 87/9/3
f 86/10/4 81/11/4 85/12/4
f 87/5/5 81/13/5 83/6/5
f 84/4/6 86/10/6 88/7/6
f 2/1/1 4/4/1 3/2/1
f 4/4/2 8/7/2 7/5/2
f 8/7/3 6/10/3 5/8/3
f 6/10/4 2/1/4 1/11/4
f 7/5/5 5/37/5 1/13/5
f 4/4/6 2/1/6 6/10/6
f 10/1/1 12/4/1 11/2/1
f 12/4/2 16/7/2 15/5/2
f 16/7/3 14/10/3 13/8/3
f 14/10/4 10/1/4 9/11/4
f 15/5/5 13/37/5 9/13/5
f 12/4/6 10/1/6 14/10/6
f 18/1/1 20/4/1 19/2/1
f 20/4/2 24/7/2 23/5/2
f 24/7/3 22/10/3 21/8/3
f 22/10/4 18/1/4 17/11/4
f 23/5/5 21/37/5 17/13/5
f 20/4/6 18/1/6 22/10/6
f 26/1/1 28/4/1 27/2/1
f 28/4/2 32/7/2 31/5/2
f 32/7/3 30/10/3 29/8/3
f 30/10/4 26/1/4 25/11/4
f 31/5/5 29/37/5 25/13/5
f 28/4/6 26/1/6 30/10/6
f 82/1/1 84/4/1 83/2/1
f 84/4/2 88/7/2 87/5/2
f 88/7/3 86/10/3 85/8/3
f 86/10/4 82/1/4 81/11/4
f 87/5/5 85/37/5 81/13/5
f 84/4/6 82/1/6 86/10/6
usemtl 64x64grid
f 34/14/1 35/15/1 33/16/1
f 36/17/2 39/18/2 35/15/2
f 40/19/3 37/20/3 39/18/3
f 38/21/4 33/16/4 37/22/4
f 39/23/5 33/24/5 35/25/5
f 36/24/6 38/23/6 40/26/6
f 42/14/1 43/15/1 41/16/1
f 44/17/2 47/18/2 43/15/2
f 48/19/3 45/20/3 47/18/3
f 46/21/4 41/16/4 45/22/4
f 47/23/5 41/24/5 43/25/5
f 44/24/6 46/23/6 48/26/6
f 50/14/1 51/15/1 49/16/1
f 52/17/2 55/18/2 51/15/2
f 56/19/3 53/20/3 55/18/3
f 54/21/4 49/16/4 53/22/4
f 55/23/5 49/24/5 51/25/5
f 52/24/6 54/23/6 56/26/6
f 58/14/1 59/15/1 57/16/1
f 60/17/2 63/18/2 59/15/2
f 64/19/3 61/20/3 63/18/3
f 62/21/4 57/16/4 61/22/4
f 63/23/5 57/24/5 59/25/5
f 60/24/6 62/23/6 64/26/6
f 65/27/1 68/28/1 67/29/1
f 68/30/7 71/31/7 67/32/7
f 71/32/3 70/33/3 69/31/3
f 70/33/8 65/27/8 69/31/8
f 73/29/1 76/34/1 75/35/1
f 76/36/7 79/29/7 75/27/7
f 79/31/3 78/36/3 77/27/3
f 78/28/8 73/35/8 77/29/8
f 34/14/1 36/17/1 35/15/1
f 36/17/2 40/19/2 39/18/2
f 40/19/3 38/38/3 37/20/3
f 38/21/4 34/14/4 33/16/4
f 39/23/5 37/26/5 33/24/5
f 36/24/6 34/25/6 38/23/6
f 42/14/1 44/17/1 43/15/1
f 44/17/2 48/19/2 47/18/2
f 48/19/3 46/38/3 45/20/3
f 46/21/4 42/14/4 41/16/4
f 47/23/5 45/26/5 41/24/5
f 44/24/6 42/25/6 46/23/6
f 50/14/1 52/17/1 51/15/1
f 52/17/2 56/19/2 55/18/2
f 56/19/3 54/38/3 53/20/3
f 54/21/4 50/14/4 49/16/4
f 55/23/5 53/26/5 49/24/5
f 52/24/6 50/25/6 54/23/6
f 58/14/1 60/17/1 59/15/1
f 60/17/2 64/19/2 63/18/2
f 64/19/3 62/38/3 61/20/3
f 62/21/4 58/14/4 57/16/4
f 63/23/5 61/26/5 57/24/5
f 60/24/6 58/25/6 62/23/6
f 65/27/1 66/36/1 68/28/1
f 68/30/7 72/33/7 71/31/7
f 71/32/3 72/30/3 70/33/3
f 70/33/8 66/36/8 65/27/8
f 73/29/1 74/28/1 76/34/1
f 76/36/7 80/28/7 79/29/7
f 79/31/3 80/33/3 78/36/3
f 78/28/8 74/34/8 73/35/8
