# Blender 5.0.1
# www.blender.org
mtllib CellDoor01.mtl
o CellDoor01
v -0.500000 0.000000 0.060000
v -0.500000 0.000000 -0.060000
v 0.500000 0.000000 0.060000
v 0.500000 0.000000 -0.060000
v -0.500000 2.000000 0.060000
v -0.500000 2.000000 -0.060000
v 0.500000 2.000000 -0.060000
v 0.500000 2.000000 0.060000
v -0.440181 1.940181 0.060000
v -0.440181 0.059819 0.060000
v 0.440181 0.059819 0.060000
v 0.440181 1.940181 0.060000
v 0.440181 0.059819 -0.060000
v -0.440181 0.059819 -0.060000
v -0.440181 1.940181 -0.060000
v 0.440181 1.940181 -0.060000
v -0.422668 1.922668 0.050000
v -0.422668 0.077332 0.050000
v 0.422668 0.077332 0.050000
v 0.422668 1.922668 0.050000
v 0.422668 0.077332 -0.050000
v -0.422668 0.077332 -0.050000
v -0.422668 1.922668 -0.050000
v 0.422668 1.922668 -0.050000
v -0.500000 1.000000 0.060000
v 0.500000 1.000000 0.060000
v -0.500000 1.000000 -0.060000
v 0.500000 1.000000 -0.060000
v -0.440181 1.000000 0.060000
v 0.440181 1.000000 0.060000
v 0.440181 1.000000 -0.060000
v -0.440181 1.000000 -0.060000
v -0.422668 1.000000 0.050000
v 0.422668 1.000000 0.050000
v 0.422668 1.000000 -0.050000
v -0.422668 1.000000 -0.050000
v -0.200265 0.590903 0.050000
v -0.200265 0.486429 0.050000
v 0.200265 0.486429 0.050000
v 0.200265 0.590903 0.050000
v 0.200265 1.509097 -0.050000
v -0.200265 1.509097 -0.050000
v -0.200265 1.613571 -0.050000
v 0.200265 1.613571 -0.050000
v 0.200265 0.486429 -0.050000
v -0.200265 0.486429 -0.050000
v -0.200265 0.590903 -0.050000
v 0.200265 0.590903 -0.050000
v -0.200265 1.613571 0.050000
v -0.200265 1.509097 0.050000
v 0.200265 1.509097 0.050000
v 0.200265 1.613571 0.050000
v -0.101238 1.614664 -0.016478
v -0.101238 1.508083 -0.016478
v 0.023491 1.508083 -0.008555
v 0.023491 1.614664 -0.008555
v -0.004336 1.508083 0.024621
v -0.004336 1.614664 0.024621
v -0.019154 1.508083 -0.016066
v -0.019154 1.614664 -0.016066
v -0.115168 1.508083 0.024521
v -0.115168 1.614664 0.024521
v -0.143710 1.508083 -0.008042
v -0.143710 1.614664 -0.008042
v 0.144815 1.508083 -0.003389
v 0.144815 1.614664 -0.003389
v 0.110597 1.508083 0.023145
v 0.110597 1.614664 0.023145
v 0.104726 1.508083 -0.019756
v 0.104726 1.614664 -0.019756
vn -0.0000 -1.0000 -0.0000
vn -1.0000 -0.0000 -0.0000
vn -0.0000 1.0000 -0.0000
vn 1.0000 -0.0000 -0.0000
vn -0.0000 -0.0000 1.0000
vn -0.0000 -0.0000 -1.0000
vn 0.4959 -0.0000 0.8684
vn -0.0000 0.4959 0.8684
vn -0.4959 -0.0000 0.8684
vn -0.0000 -0.4959 0.8684
vn -0.0000 0.4959 -0.8684
vn 0.4959 -0.0000 -0.8684
vn -0.0000 -0.4959 -0.8684
vn -0.4959 -0.0000 -0.8684
vn -0.1948 -0.0000 -0.9808
vn -0.7520 -0.0000 0.6591
vn 0.7662 -0.0000 0.6426
vn 0.9468 -0.0000 0.3217
vn -0.9396 -0.0000 0.3422
vn 0.1734 -0.0000 -0.9848
vn 0.6128 -0.0000 0.7902
vn -0.9908 -0.0000 0.1356
vn 0.3780 -0.0000 -0.9258
vt 0.150133 0.028624
vt 0.183196 0.018705
vt 0.183196 0.028624
vt 0.129050 0.051768
vt 0.122438 0.104669
vt 0.122438 0.051768
vt 0.053006 0.124507
vt 0.105906 0.117894
vt 0.105906 0.124507
vt 0.053006 0.114588
vt 0.105906 0.107975
vt 0.105906 0.114588
vt 0.136908 0.048462
vt 0.146827 0.058381
vt 0.136908 0.058381
vt 0.119132 0.051768
vt 0.112519 0.104669
vt 0.112519 0.051768
vt 0.053316 0.051083
vt 0.056619 0.002128
vt 0.056422 0.051086
vt 0.105590 -0.000898
vt 0.053520 -0.000989
vt 0.105627 0.051134
vt 0.102390 0.100050
vt 0.102521 0.051131
vt 0.053423 0.103161
vt 0.105494 0.103161
vt 0.052484 -0.000989
vt 0.003527 0.002253
vt 0.000414 -0.000849
vt 0.052726 0.051112
vt 0.049465 0.100100
vt 0.049620 0.051114
vt 0.000497 0.103154
vt 0.052565 0.103217
vt 0.000414 0.051155
vt 0.003520 0.051152
vt 0.057621 0.003132
vt 0.057471 0.051086
vt 0.102480 0.002207
vt 0.101386 0.099047
vt 0.101472 0.051130
vt 0.056528 0.100049
vt 0.049388 0.002131
vt 0.004533 0.003253
vt 0.048462 0.099097
vt 0.048571 0.051115
vt 0.003604 0.100048
vt 0.004569 0.051151
vt 0.004609 0.099046
vt 0.048387 0.003138
vt 0.101475 0.003209
vt 0.057531 0.099045
vt 0.119132 -0.001133
vt 0.112519 -0.001133
vt 0.150133 0.015399
vt 0.183196 0.005480
vt 0.183196 0.015399
vt 0.129050 -0.001133
vt 0.122438 -0.001133
vt 0.183196 0.035237
vt 0.150133 0.045155
vt 0.150133 0.035237
vt 0.069092 0.029852
vt 0.069109 0.024423
vt 0.089916 0.024447
vt 0.089915 0.029873
vt 0.016152 0.077569
vt 0.036961 0.077579
vt 0.036949 0.083012
vt 0.016155 0.082994
vt 0.016112 0.024483
vt 0.036915 0.024437
vt 0.016117 0.029907
vt 0.036935 0.029869
vt 0.069057 0.077547
vt 0.069062 0.082978
vt 0.089867 0.077552
vt 0.089859 0.082979
vt 0.150133 0.058381
vt 0.183196 0.048462
vt 0.183196 0.058381
vt 0.196421 0.048462
vt 0.186502 0.058381
vt 0.186502 0.048462
vt 0.146827 0.018705
vt 0.136908 0.028624
vt 0.136908 0.018705
vt 0.196421 0.028624
vt 0.186502 0.018705
vt 0.196421 0.018705
vt 0.140214 0.064993
vt 0.143520 0.071606
vt 0.140214 0.071606
vt 0.143520 0.064993
vt 0.146827 0.071606
vt 0.136908 0.064993
vt 0.136908 0.071606
vt 0.150133 0.018705
vt 0.129050 0.104669
vt 0.053006 0.117894
vt 0.053006 0.107975
vt 0.146827 0.048462
vt 0.119132 0.104669
vt 0.150133 0.005480
vt 0.183196 0.045155
vt 0.150133 0.048462
vt 0.196421 0.058381
vt 0.146827 0.028624
vt 0.186502 0.028624
vt 0.146827 0.064993
s 0
usemtl 64x64grid
f 37/1/1 48/2/1 40/3/1
f 25/4/2 6/5/2 27/6/2
f 4/7/1 1/8/1 2/9/1
f 6/10/3 8/11/3 7/12/3
f 43/13/4 50/14/4 42/15/4
f 28/16/4 8/17/4 26/18/4
f 25/19/5 10/20/5 29/21/5
f 3/22/5 10/20/5 1/23/5
f 26/24/5 12/25/5 30/26/5
f 5/27/5 12/25/5 8/28/5
f 2/29/6 13/30/6 4/31/6
f 27/32/6 15/33/6 32/34/6
f 7/35/6 15/33/6 6/36/6
f 28/37/6 13/30/6 31/38/6
f 29/21/7 18/39/7 33/40/7
f 11/41/8 18/39/8 10/20/8
f 30/26/9 20/42/9 34/43/9
f 9/44/10 20/42/10 12/25/10
f 14/45/11 21/46/11 13/30/11
f 32/34/12 23/47/12 36/48/12
f 16/49/13 23/47/13 15/33/13
f 31/38/14 21/46/14 35/50/14
f 31/38/14 24/51/14 16/49/14
f 32/34/12 22/52/12 14/45/12
f 30/26/9 19/53/9 11/41/9
f 29/21/7 17/54/7 9/44/7
f 28/37/6 16/49/6 7/35/6
f 27/32/6 14/45/6 2/29/6
f 26/24/5 11/41/5 3/22/5
f 25/19/5 9/44/5 5/27/5
f 4/55/4 26/18/4 3/56/4
f 39/57/3 46/58/3 38/59/3
f 1/60/2 27/6/2 2/61/2
f 42/62/3 51/63/3 41/64/3
f 18/39/5 37/65/5 33/40/5
f 19/53/5 38/66/5 18/39/5
f 34/43/5 39/67/5 19/53/5
f 34/43/5 37/65/5 40/68/5
f 36/48/6 41/69/6 35/50/6
f 23/47/6 42/70/6 36/48/6
f 24/51/6 43/71/6 23/47/6
f 24/51/6 41/69/6 44/72/6
f 22/52/6 45/73/6 21/46/6
f 36/48/6 46/74/6 22/52/6
f 36/48/6 48/75/6 47/76/6
f 21/46/6 48/75/6 35/50/6
f 17/54/5 50/77/5 49/78/5
f 33/40/5 51/79/5 50/77/5
f 20/42/5 51/79/5 34/43/5
f 17/54/5 52/80/5 20/42/5
f 44/81/1 49/82/1 43/83/1
f 44/84/2 51/85/2 52/86/2
f 48/87/2 39/88/2 40/89/2
f 38/90/4 47/91/4 37/92/4
f 64/93/15 54/94/15 63/95/15
f 62/96/16 63/97/16 61/94/16
f 56/98/17 57/95/17 55/99/17
f 53/98/18 61/95/18 54/99/18
f 58/96/19 59/97/19 57/94/19
f 60/93/20 55/94/20 59/95/20
f 66/98/21 67/95/21 65/99/21
f 68/96/22 69/97/22 67/94/22
f 70/93/23 65/94/23 69/95/23
f 37/1/1 47/100/1 48/2/1
f 25/4/2 5/101/2 6/5/2
f 4/7/1 3/102/1 1/8/1
f 6/10/3 5/103/3 8/11/3
f 43/13/4 49/104/4 50/14/4
f 28/16/4 7/105/4 8/17/4
f 25/19/5 1/23/5 10/20/5
f 3/22/5 11/41/5 10/20/5
f 26/24/5 8/28/5 12/25/5
f 5/27/5 9/44/5 12/25/5
f 2/29/6 14/45/6 13/30/6
f 27/32/6 6/36/6 15/33/6
f 7/35/6 16/49/6 15/33/6
f 28/37/6 4/31/6 13/30/6
f 29/21/7 10/20/7 18/39/7
f 11/41/8 19/53/8 18/39/8
f 30/26/9 12/25/9 20/42/9
f 9/44/10 17/54/10 20/42/10
f 14/45/11 22/52/11 21/46/11
f 32/34/12 15/33/12 23/47/12
f 16/49/13 24/51/13 23/47/13
f 31/38/14 13/30/14 21/46/14
f 31/38/14 35/50/14 24/51/14
f 32/34/12 36/48/12 22/52/12
f 30/26/9 34/43/9 19/53/9
f 29/21/7 33/40/7 17/54/7
f 28/37/6 31/38/6 16/49/6
f 27/32/6 32/34/6 14/45/6
f 26/24/5 30/26/5 11/41/5
f 25/19/5 29/21/5 9/44/5
f 4/55/4 28/16/4 26/18/4
f 39/57/3 45/106/3 46/58/3
f 1/60/2 25/4/2 27/6/2
f 42/62/3 50/107/3 51/63/3
f 18/39/5 38/66/5 37/65/5
f 19/53/5 39/67/5 38/66/5
f 34/43/5 40/68/5 39/67/5
f 34/43/5 33/40/5 37/65/5
f 36/48/6 42/70/6 41/69/6
f 23/47/6 43/71/6 42/70/6
f 24/51/6 44/72/6 43/71/6
f 24/51/6 35/50/6 41/69/6
f 22/52/6 46/74/6 45/73/6
f 36/48/6 47/76/6 46/74/6
f 36/48/6 35/50/6 48/75/6
f 21/46/6 45/73/6 48/75/6
f 17/54/5 33/40/5 50/77/5
f 33/40/5 34/43/5 51/79/5
f 20/42/5 52/80/5 51/79/5
f 17/54/5 49/78/5 52/80/5
f 44/81/1 52/108/1 49/82/1
f 44/84/2 41/109/2 51/85/2
f 48/87/2 45/110/2 39/88/2
f 38/90/4 46/111/4 47/91/4
f 64/93/15 53/96/15 54/94/15
f 62/96/16 64/112/16 63/97/16
f 56/98/17 58/93/17 57/95/17
f 53/98/18 62/93/18 61/95/18
f 58/96/19 60/112/19 59/97/19
f 60/93/20 56/96/20 55/94/20
f 66/98/21 68/93/21 67/95/21
f 68/96/22 70/112/22 69/97/22
f 70/93/23 66/96/23 65/94/23
