# Blender 5.0.1
# www.blender.org
mtllib CellDoor01Flap.mtl
o CellDoor01Flap
v -0.200265 0.590903 0.062050
v -0.200265 0.486429 0.062050
v 0.200265 0.486429 0.062050
v 0.200265 0.590903 0.062050
v -0.200265 0.486429 0.047341
v -0.200265 0.590903 0.047341
v 0.200265 0.590903 0.047341
v 0.200265 0.486429 0.047341
vn -0.0000 -0.0000 1.0000
vn -0.0000 -0.0000 -1.0000
vn 1.0000 -0.0000 -0.0000
vn -0.0000 1.0000 -0.0000
vn -0.0000 -1.0000 -0.0000
vn -1.0000 -0.0000 -0.0000
vt 0.006356 0.005101
vt 0.028231 0.011351
vt 0.006356 0.011351
vt 0.028231 0.020726
vt 0.006356 0.014476
vt 0.006356 0.020726
vt 0.031356 0.005101
vt 0.028231 0.005101
vt 0.028231 0.014476
vt 0.028231 0.001976
vt 0.006356 0.001976
vt 0.003231 0.005101
vt 0.003231 0.011351
vt 0.031356 0.011351
s 0
usemtl 64x64grid
f 2/1/1 4/2/1 1/3/1
f 7/4/2 5/5/2 6/6/2
f 8/7/3 4/2/3 3/8/3
f 7/9/4 1/3/4 4/2/4
f 5/1/5 3/10/5 2/11/5
f 6/3/6 2/12/6 1/13/6
f 2/1/1 3/8/1 4/2/1
f 7/4/2 8/9/2 5/5/2
f 8/7/3 7/14/3 4/2/3
f 7/9/4 6/5/4 1/3/4
f 5/1/5 8/8/5 3/10/5
f 6/3/6 5/1/6 2/12/6
