# Blender 5.0.1
# www.blender.org
mtllib OpenBigCardboardBox01.mtl
o OpenBigCardboardBox01
v -0.200000 0.000000 0.200000
v -0.200000 0.400000 0.200000
v -0.200000 0.000000 -0.200000
v -0.200000 0.400000 -0.200000
v 0.200000 0.000000 0.200000
v 0.200000 0.400000 0.200000
v 0.200000 0.000000 -0.200000
v 0.200000 0.400000 -0.200000
v -0.200000 0.000000 0.000000
v -0.200000 0.400000 0.000000
v 0.200000 0.000000 0.000000
v 0.200000 0.400000 0.000000
v -0.200000 0.216734 -0.280084
v 0.200000 0.216734 -0.280084
v -0.200000 0.212621 0.269923
v 0.200000 0.212621 0.269923
v -0.255100 0.324535 0.140726
v -0.255100 0.324535 -0.140726
v 0.255958 0.325169 0.140726
v 0.255958 0.325169 -0.140726
v -0.255100 0.324535 0.000000
v 0.255958 0.325169 0.000000
v -0.189406 0.022522 0.189406
v -0.189406 0.402942 0.189406
v -0.189406 0.022522 -0.189406
v -0.189406 0.402942 -0.189406
v 0.189406 0.022522 0.189406
v 0.189406 0.402942 0.189406
v 0.189406 0.022522 -0.189406
v 0.189406 0.402942 -0.189406
v -0.189406 0.022522 0.000000
v -0.189406 0.402942 0.000000
v 0.189406 0.022522 0.000000
v 0.189406 0.402942 0.000000
v -0.200000 0.402942 0.207123
v 0.200000 0.402942 0.207123
v -0.200000 0.215279 0.277046
v 0.200000 0.215279 0.277046
v -0.200000 0.402942 -0.208043
v 0.200000 0.402942 -0.208043
v -0.200000 0.220248 -0.288127
v 0.200000 0.220248 -0.288127
v -0.206052 0.402942 0.200000
v -0.206052 0.402942 -0.200000
v 0.206001 0.402942 0.200000
v 0.206001 0.402942 -0.200000
v -0.206052 0.402942 0.000000
v 0.206001 0.402942 0.000000
v -0.261152 0.328954 0.140726
v -0.261152 0.328954 -0.140726
v 0.261960 0.329657 0.140726
v 0.261960 0.329657 -0.140726
v -0.261152 0.328954 0.000000
v 0.261960 0.329657 0.000000
vn -1.0000 -0.0000 -0.0000
vn -0.0000 -0.0000 -1.0000
vn 1.0000 -0.0000 -0.0000
vn -0.0000 -0.0000 1.0000
vn -0.0000 -1.0000 -0.0000
vn -0.0000 -0.3496 -0.9369
vn -0.0000 -0.4004 0.9163
vn -0.8008 -0.5989 -0.0000
vn 0.8076 -0.5897 -0.0000
vn -0.0000 1.0000 -0.0000
vn -0.0000 0.3492 0.9371
vn -0.0000 0.4015 -0.9159
vn 0.7948 0.6069 -0.0000
vn -0.8020 0.5973 -0.0000
vn -0.0000 -0.9369 0.3496
vn 0.2387 -0.4870 0.8402
vn 0.5989 -0.8008 -0.0000
vn 0.2387 -0.4870 -0.8402
vn -0.0000 -0.9163 -0.4004
vn -0.2369 -0.4872 -0.8405
vn -0.5897 -0.8076 -0.0000
vn -0.2369 -0.4873 0.8405
vn 0.4127 -0.8419 0.3477
vn 0.4182 -0.8531 -0.3120
vn -0.4153 -0.8543 -0.3125
vn -0.4098 -0.8431 0.3482
vn 0.3239 -0.4331 0.8412
vn 0.3238 -0.4331 -0.8412
vn -0.3188 -0.4366 -0.8413
vn -0.3188 -0.4366 0.8413
vt 0.156250 0.312500
vt 0.000000 0.000000
vt 0.156250 0.000000
vt 0.656250 0.656250
vt 0.343750 0.343750
vt 0.656250 0.343750
vt 0.343750 0.500000
vt 0.656250 0.500000
vt 0.000000 0.843750
vt 0.312500 0.687500
vt 0.312500 0.843750
vt 0.343750 0.656250
vt 0.312500 0.312500
vt 0.312500 -0.000000
vt -0.000000 1.000000
vt 0.312500 1.000000
vt 0.500000 0.468750
vt 0.656250 0.531250
vt 0.500000 0.531250
vt 0.343750 0.531250
vt 0.343750 0.468750
vt 0.500000 0.656250
vt 0.500000 0.343750
vt 0.656250 0.468750
vt 0.406250 0.406250
vt 0.437500 0.437500
vt 0.437500 0.406250
vt 0.406250 0.437500
vt 0.562500 0.406250
vt 0.593750 0.437500
vt 0.593750 0.406250
vt 0.562500 0.437500
vt 0.406250 0.593750
vt 0.406250 0.562500
vt 0.437500 0.562500
vt 0.437500 0.593750
vt 0.000000 0.312500
vt -0.000000 0.687500
s 0
usemtl CardboardBox
f 10/1/1 3/2/1 9/3/1
f 4/4/2 7/5/2 3/6/2
f 12/1/3 5/2/3 11/3/3
f 6/4/4 1/5/4 5/6/4
f 11/7/5 1/6/5 9/8/5
f 15/9/6 6/10/6 16/11/6
f 7/12/5 9/8/5 3/4/5
f 8/13/3 11/3/3 7/14/3
f 2/13/1 9/3/1 1/14/1
f 4/15/7 14/11/7 8/16/7
f 12/17/8 20/18/8 22/19/8
f 10/17/9 18/20/9 4/21/9
f 10/17/9 17/18/9 21/19/9
f 12/17/8 19/20/8 6/21/8
f 25/5/3 32/22/3 31/23/3
f 29/5/4 26/4/4 25/6/4
f 27/5/1 34/22/1 33/23/1
f 23/5/2 28/4/2 27/6/2
f 23/6/10 33/7/10 31/8/10
f 31/8/10 29/12/10 25/4/10
f 33/23/1 30/4/1 29/6/1
f 31/23/3 24/4/3 23/6/3
f 36/6/11 37/7/11 38/8/11
f 42/8/12 39/12/12 40/4/12
f 48/17/13 52/18/13 46/24/13
f 50/20/14 47/17/14 44/21/14
f 47/17/14 49/18/14 43/24/14
f 51/20/13 48/17/13 45/21/13
f 37/25/1 2/26/1 15/27/1
f 38/27/15 15/28/15 16/26/15
f 6/27/3 38/28/3 16/26/3
f 19/26/16 45/25/16 6/28/16
f 54/25/17 19/26/17 22/27/17
f 52/27/17 22/28/17 20/26/17
f 46/25/18 20/26/18 8/27/18
f 14/26/3 40/25/3 8/28/3
f 41/25/19 14/26/19 13/27/19
f 39/27/1 13/28/1 4/26/1
f 18/27/20 44/28/20 4/26/20
f 53/27/21 18/28/21 21/26/21
f 49/25/21 21/26/21 17/27/21
f 43/27/22 17/28/22 2/26/22
f 35/29/10 28/30/10 24/31/10
f 47/31/10 24/32/10 32/30/10
f 26/31/10 47/32/10 32/30/10
f 35/31/10 24/32/10 43/29/10
f 28/30/10 48/29/10 34/32/10
f 48/29/10 30/30/10 34/31/10
f 40/31/10 26/32/10 30/30/10
f 46/29/10 40/32/10 30/31/10
f 44/30/10 26/32/10 39/31/10
f 36/32/10 45/30/10 28/31/10
f 36/33/23 6/34/23 45/35/23
f 46/35/24 8/34/24 40/33/24
f 39/35/25 4/36/25 44/33/25
f 35/35/26 43/33/26 2/36/26
f 10/1/1 4/37/1 3/2/1
f 4/4/2 8/12/2 7/5/2
f 12/1/3 6/37/3 5/2/3
f 6/4/4 2/12/4 1/5/4
f 11/7/5 5/5/5 1/6/5
f 15/9/6 2/38/6 6/10/6
f 7/12/5 11/7/5 9/8/5
f 8/13/3 12/1/3 11/3/3
f 2/13/1 10/1/1 9/3/1
f 4/15/7 13/9/7 14/11/7
f 12/17/8 8/24/8 20/18/8
f 10/17/9 21/19/9 18/20/9
f 10/17/9 2/24/9 17/18/9
f 12/17/8 22/19/8 19/20/8
f 25/5/3 26/12/3 32/22/3
f 29/5/4 30/12/4 26/4/4
f 27/5/1 28/12/1 34/22/1
f 23/5/2 24/12/2 28/4/2
f 23/6/10 27/5/10 33/7/10
f 31/8/10 33/7/10 29/12/10
f 33/23/1 34/22/1 30/4/1
f 31/23/3 32/22/3 24/4/3
f 36/6/11 35/5/11 37/7/11
f 42/8/12 41/7/12 39/12/12
f 48/17/13 54/19/13 52/18/13
f 50/20/14 53/19/14 47/17/14
f 47/17/14 53/19/14 49/18/14
f 51/20/13 54/19/13 48/17/13
f 37/25/1 35/28/1 2/26/1
f 38/27/15 37/25/15 15/28/15
f 6/27/3 36/25/3 38/28/3
f 19/26/27 51/27/27 45/25/27
f 54/25/17 51/28/17 19/26/17
f 52/27/17 54/25/17 22/28/17
f 46/25/28 52/28/28 20/26/28
f 14/26/3 42/27/3 40/25/3
f 41/25/19 42/28/19 14/26/19
f 39/27/1 41/25/1 13/28/1
f 18/27/29 50/25/29 44/28/29
f 53/27/21 50/25/21 18/28/21
f 49/25/21 53/28/21 21/26/21
f 43/27/30 49/25/30 17/28/30
f 35/29/10 36/32/10 28/30/10
f 47/31/10 43/29/10 24/32/10
f 26/31/10 44/29/10 47/32/10
f 28/30/10 45/31/10 48/29/10
f 48/29/10 46/32/10 30/30/10
f 40/31/10 39/29/10 26/32/10
