# Blender 5.1.1
# www.blender.org
mtllib CountertopSmall.mtl
o CountertopSmall
v -0.400000 0.940000 0.400000
v -0.400000 1.000000 0.400000
v -0.400000 0.940000 -0.400000
v -0.400000 1.000000 -0.400000
v 0.400000 0.940000 0.400000
v 0.400000 1.000000 0.400000
v 0.400000 0.940000 -0.400000
v 0.400000 1.000000 -0.400000
v -0.379258 0.150291 0.361651
v -0.379258 0.210291 0.361651
v -0.379258 0.150291 -0.361651
v -0.379258 0.210291 -0.361651
v 0.379258 0.150291 0.361651
v 0.379258 0.210291 0.361651
v 0.379258 0.150291 -0.361651
v 0.379258 0.210291 -0.361651
v 0.336979 0.000225 0.378222
v 0.336979 0.945272 0.378222
v 0.336979 0.000225 0.318222
v 0.336979 0.945272 0.318222
v 0.396979 0.000225 0.378222
v 0.396979 0.945272 0.378222
v 0.396979 0.000225 0.318222
v 0.396979 0.945272 0.318222
v -0.336980 0.000225 0.378222
v -0.336980 0.945272 0.378222
v -0.336980 0.000225 0.318222
v -0.336980 0.945272 0.318222
v -0.396980 0.000225 0.378222
v -0.396980 0.945272 0.378222
v -0.396980 0.000225 0.318222
v -0.396980 0.945272 0.318222
v 0.336979 0.000225 -0.378222
v 0.336979 0.945272 -0.378222
v 0.336979 0.000225 -0.318222
v 0.336979 0.945272 -0.318222
v 0.396979 0.000225 -0.378222
v 0.396979 0.945272 -0.378222
v 0.396979 0.000225 -0.318222
v 0.396979 0.945272 -0.318222
v -0.336980 0.000225 -0.378222
v -0.336980 0.945272 -0.378222
v -0.336980 0.000225 -0.318222
v -0.336980 0.945272 -0.318222
v -0.396980 0.000225 -0.378222
v -0.396980 0.945272 -0.378222
v -0.396980 0.000225 -0.318222
v -0.396980 0.945272 -0.318222
vn -1.0000 -0.0000 -0.0000
vn -0.0000 -0.0000 -1.0000
vn 1.0000 -0.0000 -0.0000
vn -0.0000 -0.0000 1.0000
vn -0.0000 -1.0000 -0.0000
vn -0.0000 1.0000 -0.0000
vt 0.187500 0.562500
vt 0.125000 0.937500
vt 0.125000 0.562500
vt 0.187500 0.937500
vt 0.562500 1.000000
vt 0.187500 1.000000
vt 0.562500 0.937500
vt 0.625000 0.562500
vt 0.625000 0.937500
vt 0.562500 0.562500
vt 0.187500 0.500000
vt 0.562500 0.500000
vt 1.000000 0.437500
vt 0.937500 0.062500
vt 1.000000 0.062500
vt 0.937500 0.437500
vt 0.875000 0.062500
vt 0.875000 0.437500
vt 0.812500 0.062500
vt 0.812500 0.437500
vt 0.750000 0.062500
vt 0.750000 -0.000000
vt 0.812500 -0.000000
vt 0.750000 0.437500
vt 0.875000 -0.000000
vt 0.937500 -0.000000
vt 1.000000 -0.000000
s 1
usemtl Countertop.001
f 2/1/1 3/2/1 1/3/1
f 4/4/2 7/5/2 3/6/2
f 8/7/3 5/8/3 7/9/3
f 6/10/4 1/11/4 5/12/4
f 7/10/5 1/4/5 3/1/5
f 4/4/6 6/10/6 8/7/6
f 10/7/1 11/8/1 9/9/1
f 12/10/2 15/11/2 11/12/2
f 16/1/3 13/2/3 15/3/3
f 14/4/4 9/5/4 13/6/4
f 15/4/5 9/10/5 11/7/5
f 12/10/6 14/4/6 16/1/6
f 18/13/1 19/14/1 17/15/1
f 20/16/2 23/17/2 19/14/2
f 24/18/3 21/19/3 23/17/3
f 22/20/4 17/21/4 21/19/4
f 23/19/5 17/22/5 19/23/5
f 27/17/3 26/20/3 25/19/3
f 31/19/2 28/24/2 27/21/2
f 29/15/1 32/16/1 31/14/1
f 25/14/4 30/18/4 29/17/4
f 25/19/5 31/25/5 27/17/5
f 35/17/1 34/20/1 33/19/1
f 39/14/4 36/18/4 35/17/4
f 37/19/3 40/24/3 39/21/3
f 33/15/2 38/16/2 37/14/2
f 33/26/5 39/17/5 35/25/5
f 42/13/3 43/14/3 41/15/3
f 44/20/4 47/21/4 43/19/4
f 48/16/1 45/17/1 47/14/1
f 46/18/2 41/19/2 45/17/2
f 47/26/5 41/15/5 43/14/5
f 2/1/1 4/4/1 3/2/1
f 4/4/2 8/7/2 7/5/2
f 8/7/3 6/10/3 5/8/3
f 6/10/4 2/1/4 1/11/4
f 7/10/5 5/7/5 1/4/5
f 4/4/6 2/1/6 6/10/6
f 10/7/1 12/10/1 11/8/1
f 12/10/2 16/1/2 15/11/2
f 16/1/3 14/4/3 13/2/3
f 14/4/4 10/7/4 9/5/4
f 15/4/5 13/1/5 9/10/5
f 12/10/6 10/7/6 14/4/6
f 18/13/1 20/16/1 19/14/1
f 20/16/2 24/18/2 23/17/2
f 24/18/3 22/20/3 21/19/3
f 22/20/4 18/24/4 17/21/4
f 23/19/5 21/21/5 17/22/5
f 27/17/3 28/18/3 26/20/3
f 31/19/2 32/20/2 28/24/2
f 29/15/1 30/13/1 32/16/1
f 25/14/4 26/16/4 30/18/4
f 25/19/5 29/23/5 31/25/5
f 35/17/1 36/18/1 34/20/1
f 39/14/4 40/16/4 36/18/4
f 37/19/3 38/20/3 40/24/3
f 33/15/2 34/13/2 38/16/2
f 33/26/5 37/14/5 39/17/5
f 42/13/3 44/16/3 43/14/3
f 44/20/4 48/24/4 47/21/4
f 48/16/1 46/18/1 45/17/1
f 46/18/2 42/20/2 41/19/2
f 47/26/5 45/27/5 41/15/5
