# Blender 5.1.1
# www.blender.org
mtllib CafeteriaTable.mtl
o CafeteriaTable
v -0.700000 0.700000 0.500000
v -0.750000 0.700000 0.450000
v 0.750000 0.700000 0.450000
v 0.700000 0.700000 0.500000
v -0.750000 0.700000 -0.450000
v -0.700000 0.700000 -0.500000
v 0.700000 0.700000 -0.500000
v 0.750000 0.700000 -0.450000
v -0.700000 0.740000 -0.500000
v -0.750000 0.740000 -0.450000
v -0.750000 0.740000 0.450000
v -0.700000 0.740000 0.500000
v 0.700000 0.740000 0.500000
v 0.750000 0.740000 0.450000
v 0.750000 0.740000 -0.450000
v 0.700000 0.740000 -0.500000
v -0.700000 0.400000 0.800000
v -0.750000 0.400000 0.750000
v 0.750000 0.400000 0.750000
v 0.700000 0.400000 0.800000
v -0.750000 0.400000 0.550000
v -0.700000 0.400000 0.500000
v 0.700000 0.400000 0.500000
v 0.750000 0.400000 0.550000
v -0.700000 0.440000 0.500000
v -0.750000 0.440000 0.550000
v -0.750000 0.440000 0.750000
v -0.700000 0.440000 0.800000
v 0.700000 0.440000 0.800000
v 0.750000 0.440000 0.750000
v 0.750000 0.440000 0.550000
v 0.700000 0.440000 0.500000
v -0.700000 0.400000 -0.500000
v -0.750000 0.400000 -0.550000
v 0.750000 0.400000 -0.550000
v 0.700000 0.400000 -0.500000
v -0.750000 0.400000 -0.750000
v -0.700000 0.400000 -0.800000
v 0.700000 0.400000 -0.800000
v 0.750000 0.400000 -0.750000
v -0.700000 0.440000 -0.800000
v -0.750000 0.440000 -0.750000
v -0.750000 0.440000 -0.550000
v -0.700000 0.440000 -0.500000
v 0.700000 0.440000 -0.500000
v 0.750000 0.440000 -0.550000
v 0.750000 0.440000 -0.750000
v 0.700000 0.440000 -0.800000
v 0.000000 0.000000 -0.030000
v 0.000000 0.700000 -0.030000
v 0.025981 0.000000 -0.015000
v 0.025981 0.700000 -0.015000
v 0.025981 0.000000 0.015000
v 0.025981 0.700000 0.015000
v 0.000000 0.000000 0.030000
v 0.000000 0.700000 0.030000
v -0.025981 0.000000 0.015000
v -0.025981 0.700000 0.015000
v -0.025981 0.000000 -0.015000
v -0.025981 0.700000 -0.015000
v 0.000000 0.432341 -0.300000
v 0.000000 0.700000 -0.029516
v 0.025981 0.419618 -0.300000
v 0.025561 0.700000 -0.014758
v 0.025981 0.389618 -0.300000
v 0.025561 0.700000 0.014758
v 0.000000 0.374618 -0.300000
v 0.000000 0.700000 0.029516
v -0.025981 0.389618 -0.300000
v -0.025561 0.700000 0.014758
v -0.025981 0.419618 -0.300000
v -0.025561 0.700000 -0.014758
v 0.000000 0.429411 -0.636000
v 0.025981 0.419618 -0.636000
v 0.025981 0.389618 -0.636000
v 0.000000 0.374618 -0.636000
v -0.025981 0.389618 -0.636000
v -0.025981 0.419618 -0.636000
v 0.000000 0.573813 -0.073813
v 0.025981 0.561906 -0.061906
v 0.025981 0.538094 -0.038094
v 0.000000 0.526187 -0.026187
v -0.025981 0.538094 -0.038094
v -0.025981 0.561906 -0.061906
v -0.000000 0.432341 0.300000
v -0.000000 0.700000 0.028706
v -0.025981 0.419618 0.300000
v -0.024860 0.700000 0.014353
v -0.025981 0.389618 0.300000
v -0.024860 0.700000 -0.014353
v -0.000000 0.374618 0.300000
v 0.000000 0.700000 -0.028706
v 0.025981 0.389618 0.300000
v 0.024860 0.700000 -0.014353
v 0.025981 0.419618 0.300000
v 0.024860 0.700000 0.014353
v -0.000000 0.429411 0.636000
v -0.025981 0.419618 0.636000
v -0.025981 0.389618 0.636000
v -0.000000 0.374618 0.636000
v 0.025981 0.389618 0.636000
v 0.025981 0.419618 0.636000
v -0.000000 0.573813 0.073813
v -0.025981 0.561906 0.061906
v -0.025981 0.538094 0.038094
v -0.000000 0.526187 0.026187
v 0.025981 0.538094 0.038094
v 0.025981 0.561906 0.061906
v 0.662010 0.400995 -0.620000
v 0.662010 0.400995 -0.680000
v 0.662010 0.373850 -0.665000
v 0.662010 0.373850 -0.635000
v -0.687991 0.400995 -0.620000
v -0.687991 0.400995 -0.680000
v -0.687991 0.373850 -0.665000
v -0.687991 0.373850 -0.635000
v 0.662010 0.400995 0.680000
v 0.662010 0.400995 0.620000
v 0.662010 0.373850 0.635000
v 0.662010 0.373850 0.665000
v -0.687991 0.400995 0.680000
v -0.687991 0.400995 0.620000
v -0.687991 0.373850 0.635000
v -0.687991 0.373850 0.665000
v -0.100000 0.030000 0.100000
v 0.100000 0.030000 0.100000
v -0.100000 0.030000 -0.100000
v 0.100000 0.030000 -0.100000
v -0.100000 0.000000 -0.100000
v -0.100000 0.000000 0.100000
v 0.100000 0.000000 0.100000
v 0.100000 0.000000 -0.100000
vn 0.7071 -0.0000 -0.7071
vn 0.7071 -0.0000 0.7071
vn -0.7071 -0.0000 0.7071
vn -0.7071 -0.0000 -0.7071
vn -1.0000 -0.0000 -0.0000
vn -0.0000 -1.0000 -0.0000
vn -0.0000 -0.0000 1.0000
vn 1.0000 -0.0000 -0.0000
vn -0.0000 -0.0000 -1.0000
vn -0.0000 1.0000 -0.0000
vn 0.5000 -0.0000 -0.8660
vn 0.5000 -0.0000 0.8660
vn -0.5000 -0.0000 0.8660
vn -0.5000 -0.0000 -0.8660
vn 0.5032 0.2806 -0.8174
vn 1.0000 0.0020 0.0020
vn 0.4993 -0.2644 0.8251
vn -0.4993 -0.2644 0.8251
vn -1.0000 0.0020 0.0020
vn -0.5032 0.2806 -0.8174
vn -0.5000 -0.8660 -0.0000
vn 0.4398 0.8981 -0.0078
vn 0.5000 -0.8660 -0.0000
vn -0.3527 0.9357 -0.0000
vn -0.3875 0.7913 -0.4729
vn -0.4509 -0.7809 0.4323
vn 0.4509 -0.7809 0.4323
vn 0.3875 0.7913 -0.4729
vn -0.5042 0.2848 0.8153
vn -1.0000 0.0052 -0.0052
vn -0.4985 -0.2611 -0.8267
vn 0.4985 -0.2611 -0.8267
vn 1.0000 0.0052 -0.0052
vn 0.5042 0.2848 0.8153
vn -0.4398 0.8981 0.0078
vn 0.3527 0.9357 -0.0000
vn 0.3875 0.7913 0.4729
vn 0.4509 -0.7809 -0.4323
vn -0.4509 -0.7809 -0.4323
vn -0.3875 0.7913 0.4729
vn -0.0000 -0.4837 -0.8753
vn -0.0000 -0.4837 0.8753
vn 0.4784 0.2909 -0.8286
vn 1.0000 0.0030 -0.0000
vn 0.4813 -0.2709 0.8336
vn -0.4813 -0.2709 0.8336
vn -1.0000 0.0030 -0.0000
vn -0.4784 0.2909 -0.8286
vn -0.4398 0.8981 -0.0078
vn -0.5340 0.7168 -0.4484
vn -0.5298 -0.7378 0.4183
vn 0.5298 -0.7378 0.4183
vn 0.5340 0.7168 -0.4484
vn -0.4776 0.2957 0.8273
vn -1.0000 0.0081 -0.0000
vn -0.4818 -0.2670 -0.8346
vn 0.4818 -0.2670 -0.8346
vn 1.0000 0.0081 -0.0000
vn 0.4776 0.2957 0.8273
vn 0.4398 0.8981 0.0078
vn 0.5340 0.7168 0.4484
vn 0.5298 -0.7378 -0.4183
vn -0.5298 -0.7378 -0.4183
vn -0.5340 0.7168 0.4484
vt 0.673955 0.315899
vt 0.660527 0.339638
vt 0.660527 0.315899
vt 0.660527 0.402552
vt 0.673955 0.378813
vt 0.673955 0.402552
vt 0.660527 0.433526
vt 0.673955 0.409788
vt 0.673955 0.433526
vt 0.673955 0.346874
vt 0.660527 0.370612
vt 0.660527 0.346874
vt 0.672358 0.295282
vt 0.658929 0.014865
vt 0.672358 0.014865
vt 0.000484 0.984367
vt 0.016045 0.531250
vt 0.311716 0.546875
vt 0.641404 0.015571
vt 0.654833 0.453052
vt 0.641404 0.453052
vt 0.672358 0.014865
vt 0.685786 0.295282
vt 0.640797 0.453053
vt 0.627368 0.015571
vt 0.640797 0.015571
vt 0.017313 0.000986
vt 0.312984 0.016610
vt 0.297422 0.468742
vt 0.865904 0.190837
vt 0.852475 0.214575
vt 0.852475 0.190837
vt 0.852941 0.183852
vt 0.866369 0.160114
vt 0.866369 0.183852
vt 0.853406 0.151738
vt 0.866835 0.128000
vt 0.866835 0.151738
vt 0.866439 0.097515
vt 0.853010 0.121254
vt 0.853010 0.097515
vt 0.815554 0.016049
vt 0.828982 0.077226
vt 0.815554 0.077226
vt 0.406347 0.546854
vt 0.390747 0.999369
vt 0.312748 0.983765
vt 0.752290 0.015226
vt 0.765719 0.453130
vt 0.752290 0.453130
vt 0.828982 0.016049
vt 0.842411 0.077226
vt 0.828982 0.077226
vt 0.735092 0.453130
vt 0.721663 0.015226
vt 0.735091 0.015226
vt 0.328197 0.000986
vt 0.406196 0.016589
vt 0.390596 0.468118
vt 0.835184 0.190834
vt 0.821756 0.214573
vt 0.821756 0.190834
vt 0.821290 0.183856
vt 0.834719 0.160118
vt 0.834719 0.183856
vt 0.821429 0.152439
vt 0.834858 0.128700
vt 0.834858 0.152439
vt 0.834719 0.097281
vt 0.821290 0.121019
vt 0.821290 0.097281
vt 0.859882 0.077057
vt 0.846454 0.015881
vt 0.859882 0.015881
vt 0.499809 0.546228
vt 0.484223 0.998894
vt 0.406297 0.983285
vt 0.765719 0.015226
vt 0.779147 0.453130
vt 0.859882 0.015881
vt 0.873311 0.077057
vt 0.859882 0.077057
vt 0.748520 0.453130
vt 0.735092 0.015226
vt 0.748520 0.015226
vt 0.422120 0.000354
vt 0.500047 0.015963
vt 0.484461 0.467644
vt 0.874982 0.999384
vt 0.864982 0.766051
vt 0.874982 0.766051
vt 0.864982 0.999384
vt 0.854982 0.766051
vt 0.854982 0.999384
vt 0.844982 0.766051
vt 0.904981 0.999384
vt 0.894982 0.766051
vt 0.904981 0.766051
vt 0.894982 0.999384
vt 0.884982 0.766051
vt 0.884982 0.999384
vt 0.843759 0.593750
vt 0.781259 0.531250
vt 0.781259 0.593750
vt 0.718704 0.673489
vt 0.709105 0.731603
vt 0.709105 0.673489
vt 0.699013 0.731603
vt 0.699013 0.673489
vt 0.689143 0.731603
vt 0.689143 0.673489
vt 0.748265 0.731603
vt 0.738395 0.673489
vt 0.748265 0.673489
vt 0.738395 0.731603
vt 0.728303 0.673489
vt 0.728303 0.731603
vt 0.801161 0.995238
vt 0.811161 0.883238
vt 0.811161 0.995238
vt 0.761160 0.995238
vt 0.771160 0.883238
vt 0.771161 0.995238
vt 0.791161 0.995238
vt 0.801161 0.883238
vt 0.781161 0.883238
vt 0.781161 0.995238
vt 0.751160 0.995238
vt 0.761160 0.883238
vt 0.791161 0.883238
vt 0.771639 0.761687
vt 0.781299 0.863315
vt 0.771639 0.863315
vt 0.761483 0.761687
vt 0.761483 0.863315
vt 0.751551 0.761687
vt 0.751551 0.863315
vt 0.801114 0.863315
vt 0.811046 0.761687
vt 0.811046 0.863315
vt 0.790958 0.863315
vt 0.801114 0.761687
vt 0.790958 0.761687
vt 0.781166 0.673401
vt 0.771695 0.731440
vt 0.771695 0.673401
vt 0.761734 0.731440
vt 0.761734 0.673401
vt 0.751994 0.731440
vt 0.751994 0.673401
vt 0.810338 0.731440
vt 0.800598 0.673401
vt 0.810338 0.673401
vt 0.800598 0.731440
vt 0.790637 0.673401
vt 0.790637 0.731440
vt 0.738765 0.995238
vt 0.748765 0.883238
vt 0.748765 0.995238
vt 0.698765 0.995238
vt 0.708765 0.883238
vt 0.708765 0.995238
vt 0.728765 0.995238
vt 0.738765 0.883238
vt 0.718765 0.883238
vt 0.718765 0.995238
vt 0.688765 0.995238
vt 0.698765 0.883238
vt 0.728765 0.883238
vt 0.709074 0.761687
vt 0.718731 0.863315
vt 0.709074 0.863315
vt 0.698916 0.761687
vt 0.698916 0.863315
vt 0.688984 0.761687
vt 0.688984 0.863315
vt 0.738547 0.863315
vt 0.748479 0.761687
vt 0.748479 0.863315
vt 0.728389 0.863315
vt 0.738547 0.761687
vt 0.728389 0.761687
vt 0.979088 0.540801
vt 0.968750 0.990801
vt 0.968750 0.540801
vt 0.989088 0.540801
vt 0.979088 0.990801
vt 0.999426 0.540801
vt 0.989088 0.990801
vt 0.994088 0.999849
vt 0.974088 0.999849
vt 0.994088 0.531752
vt 0.974088 0.531752
vt 0.948412 0.540801
vt 0.938075 0.990801
vt 0.938075 0.540801
vt 0.958412 0.540801
vt 0.948412 0.990801
vt 0.968750 0.540801
vt 0.958412 0.990801
vt 0.963412 0.999849
vt 0.943412 0.999849
vt 0.963412 0.531752
vt 0.943412 0.531752
vt 0.843759 0.521875
vt 0.843759 0.531250
vt 0.781259 0.603125
vt 0.853134 0.593750
vt 0.771883 0.531250
vt 0.673955 0.339638
vt 0.660527 0.378813
vt 0.660527 0.409788
vt 0.673955 0.370612
vt 0.658929 0.295282
vt 0.311716 0.984367
vt 0.296154 0.999992
vt 0.016045 0.999992
vt 0.000484 0.546875
vt 0.296154 0.531250
vt 0.654833 0.015571
vt 0.685786 0.014865
vt 0.627368 0.453053
vt 0.017313 0.468742
vt 0.001752 0.453117
vt 0.001752 0.016610
vt 0.297422 0.000986
vt 0.312984 0.453117
vt 0.865904 0.214575
vt 0.852941 0.160114
vt 0.853406 0.128000
vt 0.866439 0.121254
vt 0.828982 0.016049
vt 0.312748 0.546854
vt 0.328348 0.531250
vt 0.390747 0.531250
vt 0.406347 0.983765
vt 0.328348 0.999369
vt 0.842411 0.016049
vt 0.721663 0.453130
vt 0.328197 0.468118
vt 0.312597 0.452515
vt 0.312597 0.016589
vt 0.390596 0.000986
vt 0.406196 0.452515
vt 0.835184 0.214573
vt 0.821290 0.160118
vt 0.821429 0.128700
vt 0.834719 0.121019
vt 0.846454 0.077057
vt 0.406297 0.546227
vt 0.421882 0.530618
vt 0.484223 0.530618
vt 0.499809 0.983285
vt 0.421882 0.998894
vt 0.779147 0.015226
vt 0.873311 0.015881
vt 0.422120 0.467644
vt 0.406535 0.452035
vt 0.406535 0.015963
vt 0.484461 0.000354
vt 0.500047 0.452035
vt 0.844982 0.999384
vt 0.718704 0.731603
vt 0.751160 0.883238
vt 0.781299 0.761687
vt 0.781166 0.731440
vt 0.688765 0.883238
vt 0.718731 0.761687
vt 0.999426 0.990801
vt 0.781259 0.521875
vt 0.843759 0.603125
vt 0.853134 0.531250
vt 0.771883 0.593750
s 0
usemtl 32x32grid
f 16/1/1 8/2/1 7/3/1
f 4/4/2 14/5/2 13/6/2
f 12/7/3 2/8/3 1/9/3
f 6/10/4 10/11/4 9/12/4
f 2/13/5 10/14/5 5/15/5
f 6/16/6 8/17/6 4/18/6
f 4/19/7 12/20/7 1/21/7
f 8/22/8 14/23/8 3/13/8
f 6/24/9 16/25/9 7/26/9
f 14/27/10 16/28/10 10/29/10
f 32/30/1 24/31/1 23/32/1
f 20/33/2 30/34/2 29/35/2
f 28/36/3 18/37/3 17/38/3
f 22/39/4 26/40/4 25/41/4
f 18/42/5 26/43/5 21/44/5
f 22/45/6 24/46/6 20/47/6
f 20/48/7 28/49/7 17/50/7
f 24/51/8 30/52/8 19/53/8
f 22/54/9 32/55/9 23/56/9
f 30/57/10 32/58/10 26/59/10
f 48/60/1 40/61/1 39/62/1
f 36/63/2 46/64/2 45/65/2
f 44/66/3 34/67/3 33/68/3
f 38/69/4 42/70/4 41/71/4
f 34/72/5 42/73/5 37/74/5
f 38/75/6 40/76/6 36/77/6
f 36/78/7 44/79/7 33/49/7
f 40/80/8 46/81/8 35/82/8
f 38/83/9 48/84/9 39/85/9
f 46/86/10 48/87/10 42/88/10
f 16/1/1 15/210/1 8/2/1
f 4/4/2 3/211/2 14/5/2
f 12/7/3 11/212/3 2/8/3
f 6/10/4 5/213/4 10/11/4
f 2/13/5 11/214/5 10/14/5
f 4/18/6 1/215/6 2/216/6
f 2/216/6 5/217/6 6/16/6
f 6/16/6 7/218/6 8/17/6
f 8/17/6 3/219/6 4/18/6
f 4/18/6 2/216/6 6/16/6
f 4/19/7 13/220/7 12/20/7
f 8/22/8 15/221/8 14/23/8
f 6/24/9 9/222/9 16/25/9
f 10/29/10 11/223/10 12/224/10
f 12/224/10 13/225/10 14/27/10
f 14/27/10 15/226/10 16/28/10
f 16/28/10 9/227/10 10/29/10
f 10/29/10 12/224/10 14/27/10
f 32/30/1 31/228/1 24/31/1
f 20/33/2 19/229/2 30/34/2
f 28/36/3 27/230/3 18/37/3
f 22/39/4 21/231/4 26/40/4
f 18/42/5 27/232/5 26/43/5
f 20/47/6 17/233/6 18/234/6
f 18/234/6 21/235/6 22/45/6
f 22/45/6 23/236/6 24/46/6
f 24/46/6 19/237/6 20/47/6
f 20/47/6 18/234/6 22/45/6
f 20/48/7 29/78/7 28/49/7
f 24/51/8 31/238/8 30/52/8
f 22/54/9 25/239/9 32/55/9
f 26/59/10 27/240/10 28/241/10
f 28/241/10 29/242/10 30/57/10
f 30/57/10 31/243/10 32/58/10
f 32/58/10 25/244/10 26/59/10
f 26/59/10 28/241/10 30/57/10
f 48/60/1 47/245/1 40/61/1
f 36/63/2 35/246/2 46/64/2
f 44/66/3 43/247/3 34/67/3
f 38/69/4 37/248/4 42/70/4
f 34/72/5 43/249/5 42/73/5
f 36/77/6 33/250/6 34/251/6
f 34/251/6 37/252/6 38/75/6
f 38/75/6 39/253/6 40/76/6
f 40/76/6 35/254/6 36/77/6
f 36/77/6 34/251/6 38/75/6
f 36/78/7 45/255/7 44/79/7
f 40/80/8 47/256/8 46/81/8
f 38/83/9 41/54/9 48/84/9
f 42/88/10 43/257/10 44/258/10
f 44/258/10 45/259/10 46/86/10
f 46/86/10 47/260/10 48/87/10
f 48/87/10 41/261/10 42/88/10
f 42/88/10 44/258/10 46/86/10
usemtl 32x32grid
f 50/89/11 51/90/11 49/91/11
f 52/92/8 53/93/8 51/90/8
f 54/94/12 55/95/12 53/93/12
f 56/96/13 57/97/13 55/98/13
f 58/99/5 59/100/5 57/97/5
f 60/101/14 49/91/14 59/100/14
f 126/102/10 127/103/10 125/104/10
f 79/105/15 64/106/15 80/107/15
f 80/107/16 66/108/16 81/109/16
f 81/109/17 68/110/17 82/111/17
f 68/112/18 83/113/18 82/114/18
f 70/115/19 84/116/19 83/113/19
f 72/117/20 79/105/20 84/116/20
f 69/118/21 76/119/21 67/120/21
f 65/121/8 74/122/8 63/123/8
f 71/124/5 77/125/5 69/118/5
f 63/123/22 73/126/22 61/127/22
f 67/128/23 75/129/23 65/121/23
f 71/124/24 73/126/24 78/130/24
f 84/131/25 61/132/25 71/133/25
f 83/134/5 71/133/5 69/135/5
f 82/136/26 69/135/26 67/137/26
f 65/138/27 82/139/27 67/140/27
f 63/141/8 81/142/8 65/138/8
f 61/132/28 80/143/28 63/141/28
f 103/144/29 88/145/29 104/146/29
f 104/146/30 90/147/30 105/148/30
f 105/148/31 92/149/31 106/150/31
f 92/151/32 107/152/32 106/153/32
f 94/154/33 108/155/33 107/152/33
f 96/156/34 103/144/34 108/155/34
f 93/157/23 100/158/23 91/159/23
f 89/160/5 98/161/5 87/162/5
f 95/163/8 101/164/8 93/157/8
f 87/162/35 97/165/35 85/166/35
f 91/167/21 99/168/21 89/160/21
f 95/163/36 97/165/36 102/169/36
f 108/170/37 85/171/37 95/172/37
f 107/173/8 95/172/8 93/174/8
f 106/175/38 93/174/38 91/176/38
f 89/177/39 106/178/39 91/179/39
f 87/180/5 105/181/5 89/177/5
f 85/171/40 104/182/40 87/180/40
f 111/183/41 114/184/41 110/185/41
f 112/186/6 115/187/6 111/183/6
f 109/188/42 116/189/42 112/186/42
f 115/187/5 113/190/5 114/191/5
f 109/192/8 111/183/8 110/193/8
f 119/194/41 122/195/41 118/196/41
f 120/197/6 123/198/6 119/194/6
f 117/199/42 124/200/42 120/197/42
f 123/198/5 121/201/5 122/202/5
f 117/203/8 119/194/8 118/204/8
f 132/205/9 127/103/9 128/206/9
f 130/207/7 126/102/7 125/104/7
f 131/208/8 128/206/8 126/102/8
f 129/209/5 125/104/5 127/103/5
f 50/89/11 52/92/11 51/90/11
f 52/92/8 54/94/8 53/93/8
f 54/94/12 56/262/12 55/95/12
f 56/96/13 58/99/13 57/97/13
f 58/99/5 60/101/5 59/100/5
f 60/101/14 50/89/14 49/91/14
f 126/102/10 128/206/10 127/103/10
f 79/105/43 62/263/43 64/106/43
f 80/107/44 64/106/44 66/108/44
f 81/109/45 66/108/45 68/110/45
f 68/112/46 70/115/46 83/113/46
f 70/115/47 72/117/47 84/116/47
f 72/117/48 62/263/48 79/105/48
f 69/118/21 77/125/21 76/119/21
f 65/121/8 75/129/8 74/122/8
f 71/124/5 78/130/5 77/125/5
f 63/123/36 74/122/36 73/126/36
f 67/128/23 76/264/23 75/129/23
f 71/124/49 61/127/49 73/126/49
f 84/131/50 79/265/50 61/132/50
f 83/134/5 84/131/5 71/133/5
f 82/136/51 83/134/51 69/135/51
f 65/138/52 81/142/52 82/139/52
f 63/141/8 80/143/8 81/142/8
f 61/132/53 79/265/53 80/143/53
f 103/144/54 86/266/54 88/145/54
f 104/146/55 88/145/55 90/147/55
f 105/148/56 90/147/56 92/149/56
f 92/151/57 94/154/57 107/152/57
f 94/154/58 96/156/58 108/155/58
f 96/156/59 86/266/59 103/144/59
f 93/157/23 101/164/23 100/158/23
f 89/160/5 99/168/5 98/161/5
f 95/163/8 102/169/8 101/164/8
f 87/162/24 98/161/24 97/165/24
f 91/167/21 100/267/21 99/168/21
f 95/163/60 85/166/60 97/165/60
f 108/170/61 103/268/61 85/171/61
f 107/173/8 108/170/8 95/172/8
f 106/175/62 107/173/62 93/174/62
f 89/177/63 105/181/63 106/178/63
f 87/180/5 104/182/5 105/181/5
f 85/171/64 103/268/64 104/182/64
f 111/183/41 115/187/41 114/184/41
f 112/186/6 116/189/6 115/187/6
f 109/188/42 113/269/42 116/189/42
f 115/187/5 116/189/5 113/190/5
f 109/192/8 112/186/8 111/183/8
f 119/194/41 123/198/41 122/195/41
f 120/197/6 124/200/6 123/198/6
f 117/199/42 121/184/42 124/200/42
f 123/198/5 124/200/5 121/201/5
f 117/203/8 120/197/8 119/194/8
f 132/205/9 129/270/9 127/103/9
f 130/207/7 131/271/7 126/102/7
f 131/208/8 132/272/8 128/206/8
f 129/209/5 130/273/5 125/104/5
