# Blender 5.1.1
# www.blender.org
mtllib SquareVent.mtl
o SquareVent
v 0.239200 0.020800 0.000000
v 0.239200 0.499200 0.000000
v -0.239200 0.020800 -0.000000
v -0.239200 0.499200 -0.000000
v -0.239200 0.020800 0.020800
v 0.239200 0.020800 0.020800
v 0.239200 0.499200 0.020800
v -0.239200 0.499200 0.020800
v -0.260000 0.000000 -0.000000
v 0.260000 0.000000 0.000000
v 0.260000 0.520000 0.000000
v -0.260000 0.520000 -0.000000
v -0.260000 0.000000 0.020800
v 0.260000 0.000000 0.020800
v 0.260000 0.520000 0.020800
v -0.260000 0.520000 0.020800
v 0.249600 0.250618 0.015594
v 0.249600 0.269382 0.008765
v -0.249600 0.250618 0.015594
v -0.249600 0.269382 0.008765
v 0.249600 0.146618 0.015594
v 0.249600 0.165382 0.008765
v -0.249600 0.146618 0.015594
v -0.249600 0.165382 0.008765
v 0.249600 0.042618 0.015594
v 0.249600 0.061382 0.008765
v -0.249600 0.042618 0.015594
v -0.249600 0.061382 0.008765
v 0.249600 0.354618 0.015594
v 0.249600 0.373382 0.008765
v -0.249600 0.354618 0.015594
v -0.249600 0.373382 0.008765
v 0.249600 0.458618 0.015594
v 0.249600 0.477382 0.008765
v -0.249600 0.458618 0.015594
v -0.249600 0.477382 0.008765
v 0.249600 0.432618 0.015594
v 0.249600 0.451382 0.008765
v -0.249600 0.432618 0.015594
v -0.249600 0.451382 0.008765
v 0.249600 0.406618 0.015594
v 0.249600 0.425382 0.008765
v -0.249600 0.406618 0.015594
v -0.249600 0.425382 0.008765
v 0.249600 0.380618 0.015594
v 0.249600 0.399382 0.008765
v -0.249600 0.380618 0.015594
v -0.249600 0.399382 0.008765
v 0.249600 0.484618 0.015594
v 0.249600 0.503382 0.008765
v -0.249600 0.484618 0.015594
v -0.249600 0.503382 0.008765
v 0.249600 0.016618 0.015594
v 0.249600 0.035382 0.008765
v -0.249600 0.016618 0.015594
v -0.249600 0.035382 0.008765
v 0.249600 0.328618 0.015594
v 0.249600 0.347382 0.008765
v -0.249600 0.328618 0.015594
v -0.249600 0.347382 0.008765
v 0.249600 0.302618 0.015594
v 0.249600 0.321382 0.008765
v -0.249600 0.302618 0.015594
v -0.249600 0.321382 0.008765
v 0.249600 0.276618 0.015594
v 0.249600 0.295382 0.008765
v -0.249600 0.276618 0.015594
v -0.249600 0.295382 0.008765
v 0.249600 0.224618 0.015594
v 0.249600 0.243382 0.008765
v -0.249600 0.224618 0.015594
v -0.249600 0.243382 0.008765
v 0.249600 0.198618 0.015594
v 0.249600 0.217382 0.008765
v -0.249600 0.198618 0.015594
v -0.249600 0.217382 0.008765
v 0.249600 0.172618 0.015594
v 0.249600 0.191382 0.008765
v -0.249600 0.172618 0.015594
v -0.249600 0.191382 0.008765
v 0.249600 0.120618 0.015594
v 0.249600 0.139382 0.008765
v -0.249600 0.120618 0.015594
v -0.249600 0.139382 0.008765
v 0.249600 0.094618 0.015594
v 0.249600 0.113382 0.008765
v -0.249600 0.094618 0.015594
v -0.249600 0.113382 0.008765
v 0.249600 0.068618 0.015594
v 0.249600 0.087382 0.008765
v -0.249600 0.068618 0.015594
v -0.249600 0.087382 0.008765
v 0.249600 0.250618 0.011742
v 0.249600 0.269382 0.004912
v -0.249600 0.250618 0.011742
v -0.249600 0.269382 0.004912
v 0.249600 0.146618 0.011742
v 0.249600 0.165382 0.004912
v -0.249600 0.146618 0.011742
v -0.249600 0.165382 0.004912
v 0.249600 0.042618 0.011742
v 0.249600 0.061382 0.004912
v -0.249600 0.042618 0.011742
v -0.249600 0.061382 0.004912
v 0.249600 0.354618 0.011742
v 0.249600 0.373382 0.004912
v -0.249600 0.354618 0.011742
v -0.249600 0.373382 0.004912
v 0.249600 0.458618 0.011742
v 0.249600 0.477382 0.004912
v -0.249600 0.458618 0.011742
v -0.249600 0.477382 0.004912
v 0.249600 0.432618 0.011742
v 0.249600 0.451382 0.004912
v -0.249600 0.432618 0.011742
v -0.249600 0.451382 0.004912
v 0.249600 0.406618 0.011742
v 0.249600 0.425382 0.004912
v -0.249600 0.406618 0.011742
v -0.249600 0.425382 0.004912
v 0.249600 0.380618 0.011742
v 0.249600 0.399382 0.004912
v -0.249600 0.380618 0.011742
v -0.249600 0.399382 0.004912
v 0.249600 0.484618 0.011742
v 0.249600 0.503382 0.004912
v -0.249600 0.484618 0.011742
v -0.249600 0.503382 0.004912
v 0.249600 0.016618 0.011742
v 0.249600 0.035382 0.004912
v -0.249600 0.016618 0.011742
v -0.249600 0.035382 0.004912
v 0.249600 0.328618 0.011742
v 0.249600 0.347382 0.004912
v -0.249600 0.328618 0.011742
v -0.249600 0.347382 0.004912
v 0.249600 0.302618 0.011742
v 0.249600 0.321382 0.004912
v -0.249600 0.302618 0.011742
v -0.249600 0.321382 0.004912
v 0.249600 0.276618 0.011742
v 0.249600 0.295382 0.004912
v -0.249600 0.276618 0.011742
v -0.249600 0.295382 0.004912
v 0.249600 0.224618 0.011742
v 0.249600 0.243382 0.004912
v -0.249600 0.224618 0.011742
v -0.249600 0.243382 0.004912
v 0.249600 0.198618 0.011742
v 0.249600 0.217382 0.004912
v -0.249600 0.198618 0.011742
v -0.249600 0.217382 0.004912
v 0.249600 0.172618 0.011742
v 0.249600 0.191382 0.004912
v -0.249600 0.172618 0.011742
v -0.249600 0.191382 0.004912
v 0.249600 0.120618 0.011742
v 0.249600 0.139382 0.004912
v -0.249600 0.120618 0.011742
v -0.249600 0.139382 0.004912
v 0.249600 0.094618 0.011742
v 0.249600 0.113382 0.004912
v -0.249600 0.094618 0.011742
v -0.249600 0.113382 0.004912
v 0.249600 0.068618 0.011742
v 0.249600 0.087382 0.004912
v -0.249600 0.068618 0.011742
v -0.249600 0.087382 0.004912
vn -0.0000 1.0000 -0.0000
vn -0.0000 -1.0000 -0.0000
vn -1.0000 -0.0000 -0.0000
vn 1.0000 -0.0000 -0.0000
vn -0.0000 -0.0000 -1.0000
vn -0.0000 -0.0000 1.0000
vn -0.0000 0.3420 0.9397
vn -0.0000 -0.3420 -0.9397
vt 0.250000 0.015625
vt 0.500000 0.031250
vt 0.500000 0.015625
vt 0.750000 0.015625
vt 1.000000 0.031250
vt 1.000000 0.015625
vt 0.000000 0.015625
vt 0.250000 0.031250
vt 0.750000 0.031250
vt 0.010458 0.989542
vt 0.000498 0.750498
vt 0.010458 0.760458
vt 0.239542 0.989542
vt 0.000498 0.999502
vt 0.239542 0.760458
vt 0.249502 0.999502
vt 0.249502 0.750498
vt 0.239542 0.989542
vt 0.000498 0.999502
vt 0.010458 0.989542
vt 0.010458 0.760458
vt 0.249502 0.999502
vt 0.500000 0.000000
vt 0.750000 0.000000
vt 1.000000 0.000000
vt 0.250000 0.000000
vt 0.000000 0.000000
vt 0.031250 0.281250
vt 0.328125 0.265625
vt 0.031250 0.265625
vt 0.031250 0.218750
vt 0.328125 0.203125
vt 0.031250 0.203125
vt 0.031250 0.156250
vt 0.328125 0.140625
vt 0.031250 0.140625
vt 0.031250 0.343750
vt 0.328125 0.328125
vt 0.031250 0.328125
vt 0.031250 0.406250
vt 0.328125 0.390625
vt 0.031250 0.390625
vt 0.406250 0.390625
vt 0.703125 0.375000
vt 0.406250 0.375000
vt 0.031250 0.375000
vt 0.328125 0.359375
vt 0.031250 0.359375
vt 0.406250 0.359375
vt 0.703125 0.343750
vt 0.406250 0.343750
vt 0.406250 0.421875
vt 0.703125 0.406250
vt 0.406250 0.406250
vt 0.406250 0.140625
vt 0.703125 0.125000
vt 0.406250 0.125000
vt 0.406250 0.328125
vt 0.703125 0.312500
vt 0.406250 0.312500
vt 0.031250 0.312500
vt 0.328125 0.296875
vt 0.031250 0.296875
vt 0.406250 0.296875
vt 0.703125 0.281250
vt 0.406250 0.281250
vt 0.406250 0.265625
vt 0.703125 0.250000
vt 0.406250 0.250000
vt 0.031250 0.250000
vt 0.328125 0.234375
vt 0.031250 0.234375
vt 0.406250 0.234375
vt 0.703125 0.218750
vt 0.406250 0.218750
vt 0.406250 0.203125
vt 0.703125 0.187500
vt 0.406250 0.187500
vt 0.031250 0.187500
vt 0.328125 0.171875
vt 0.031250 0.171875
vt 0.406250 0.171875
vt 0.703125 0.156250
vt 0.406250 0.156250
vt 0.000000 0.031250
vt 0.328125 0.281250
vt 0.328125 0.218750
vt 0.328125 0.156250
vt 0.328125 0.343750
vt 0.328125 0.406250
vt 0.703125 0.390625
vt 0.328125 0.375000
vt 0.703125 0.359375
vt 0.703125 0.421875
vt 0.703125 0.140625
vt 0.703125 0.328125
vt 0.328125 0.312500
vt 0.703125 0.296875
vt 0.703125 0.265625
vt 0.328125 0.250000
vt 0.703125 0.234375
vt 0.703125 0.203125
vt 0.328125 0.187500
vt 0.703125 0.171875
s 0
usemtl 64x64grid
f 12/1/1 15/2/1 11/3/1
f 10/4/2 13/5/2 9/6/2
f 9/7/3 16/8/3 12/1/3
f 11/3/4 14/9/4 10/4/4
f 1/10/5 9/11/5 3/12/5
f 2/13/5 10/14/5 1/10/5
f 4/15/5 11/16/5 2/13/5
f 4/15/5 9/11/5 12/17/5
f 5/18/6 14/19/6 6/20/6
f 7/21/6 14/19/6 15/11/6
f 7/21/6 16/17/6 8/15/6
f 8/15/6 13/22/6 5/18/6
f 3/23/1 6/4/1 1/24/1
f 1/24/3 7/6/3 2/25/3
f 4/26/4 5/3/4 3/23/4
f 2/27/2 8/1/2 4/26/2
f 18/28/7 19/29/7 17/30/7
f 22/31/7 23/32/7 21/33/7
f 26/34/7 27/35/7 25/36/7
f 30/37/7 31/38/7 29/39/7
f 34/40/7 35/41/7 33/42/7
f 38/43/7 39/44/7 37/45/7
f 42/46/7 43/47/7 41/48/7
f 46/49/7 47/50/7 45/51/7
f 50/52/7 51/53/7 49/54/7
f 54/55/7 55/56/7 53/57/7
f 58/58/7 59/59/7 57/60/7
f 62/61/7 63/62/7 61/63/7
f 66/64/7 67/65/7 65/66/7
f 70/67/7 71/68/7 69/69/7
f 74/70/7 75/71/7 73/72/7
f 78/73/7 79/74/7 77/75/7
f 82/76/7 83/77/7 81/78/7
f 86/79/7 87/80/7 85/81/7
f 90/82/7 91/83/7 89/84/7
f 95/29/8 94/28/8 93/30/8
f 99/32/8 98/31/8 97/33/8
f 103/35/8 102/34/8 101/36/8
f 107/38/8 106/37/8 105/39/8
f 111/41/8 110/40/8 109/42/8
f 115/44/8 114/43/8 113/45/8
f 119/47/8 118/46/8 117/48/8
f 123/50/8 122/49/8 121/51/8
f 127/53/8 126/52/8 125/54/8
f 131/56/8 130/55/8 129/57/8
f 135/59/8 134/58/8 133/60/8
f 139/62/8 138/61/8 137/63/8
f 143/65/8 142/64/8 141/66/8
f 147/68/8 146/67/8 145/69/8
f 151/71/8 150/70/8 149/72/8
f 155/74/8 154/73/8 153/75/8
f 159/77/8 158/76/8 157/78/8
f 163/80/8 162/79/8 161/81/8
f 167/83/8 166/82/8 165/84/8
f 12/1/1 16/8/1 15/2/1
f 10/4/2 14/9/2 13/5/2
f 9/7/3 13/85/3 16/8/3
f 11/3/4 15/2/4 14/9/4
f 1/10/5 10/14/5 9/11/5
f 2/13/5 11/16/5 10/14/5
f 4/15/5 12/17/5 11/16/5
f 4/15/5 3/12/5 9/11/5
f 5/18/6 13/22/6 14/19/6
f 7/21/6 6/20/6 14/19/6
f 7/21/6 15/11/6 16/17/6
f 8/15/6 16/17/6 13/22/6
f 3/23/1 5/3/1 6/4/1
f 1/24/3 6/4/3 7/6/3
f 4/26/4 8/1/4 5/3/4
f 2/27/2 7/7/2 8/1/2
f 18/28/7 20/86/7 19/29/7
f 22/31/7 24/87/7 23/32/7
f 26/34/7 28/88/7 27/35/7
f 30/37/7 32/89/7 31/38/7
f 34/40/7 36/90/7 35/41/7
f 38/43/7 40/91/7 39/44/7
f 42/46/7 44/92/7 43/47/7
f 46/49/7 48/93/7 47/50/7
f 50/52/7 52/94/7 51/53/7
f 54/55/7 56/95/7 55/56/7
f 58/58/7 60/96/7 59/59/7
f 62/61/7 64/97/7 63/62/7
f 66/64/7 68/98/7 67/65/7
f 70/67/7 72/99/7 71/68/7
f 74/70/7 76/100/7 75/71/7
f 78/73/7 80/101/7 79/74/7
f 82/76/7 84/102/7 83/77/7
f 86/79/7 88/103/7 87/80/7
f 90/82/7 92/104/7 91/83/7
f 95/29/8 96/86/8 94/28/8
f 99/32/8 100/87/8 98/31/8
f 103/35/8 104/88/8 102/34/8
f 107/38/8 108/89/8 106/37/8
f 111/41/8 112/90/8 110/40/8
f 115/44/8 116/91/8 114/43/8
f 119/47/8 120/92/8 118/46/8
f 123/50/8 124/93/8 122/49/8
f 127/53/8 128/94/8 126/52/8
f 131/56/8 132/95/8 130/55/8
f 135/59/8 136/96/8 134/58/8
f 139/62/8 140/97/8 138/61/8
f 143/65/8 144/98/8 142/64/8
f 147/68/8 148/99/8 146/67/8
f 151/71/8 152/100/8 150/70/8
f 155/74/8 156/101/8 154/73/8
f 159/77/8 160/102/8 158/76/8
f 163/80/8 164/103/8 162/79/8
f 167/83/8 168/104/8 166/82/8
