# Blender 5.0.1
# www.blender.org
mtllib BigCardboardBox01.mtl
o BigCardboardBox01
v -0.200000 0.000000 0.200000
v -0.200000 0.400000 0.200000
v -0.200000 0.000000 -0.200000
v -0.200000 0.400000 -0.200000
v 0.200000 0.000000 0.200000
v 0.200000 0.400000 0.200000
v 0.200000 0.000000 -0.200000
v 0.200000 0.400000 -0.200000
vn -1.0000 -0.0000 -0.0000
vn -0.0000 -0.0000 -1.0000
vn 1.0000 -0.0000 -0.0000
vn -0.0000 -0.0000 1.0000
vn -0.0000 -1.0000 -0.0000
vn -0.0000 1.0000 -0.0000
vt 0.312500 0.312500
vt 0.000000 0.000000
vt 0.312500 0.000000
vt 0.656250 0.656250
vt 0.343750 0.343750
vt 0.656250 0.343750
vt 0.343750 0.656250
vt -0.000000 1.000000
vt 0.312500 0.687500
vt 0.312500 1.000000
vt 0.000000 0.312500
vt -0.000000 0.687500
s 0
usemtl CardboardBox
f 2/1/1 3/2/1 1/3/1
f 4/4/2 7/5/2 3/6/2
f 8/1/3 5/2/3 7/3/3
f 6/4/4 1/5/4 5/6/4
f 7/7/5 1/6/5 3/4/5
f 4/8/6 6/9/6 8/10/6
f 2/1/1 4/11/1 3/2/1
f 4/4/2 8/7/2 7/5/2
f 8/1/3 6/11/3 5/2/3
f 6/4/4 2/7/4 1/5/4
f 7/7/5 5/5/5 1/6/5
f 4/8/6 2/12/6 6/9/6
