# Blender 5.0.1
# www.blender.org
mtllib OpenSmallCardboardBoxFlat.mtl
o OpenSmallCardboardBoxFlat
v -0.105000 0.000000 0.084000
v -0.105000 0.082690 0.084000
v -0.105000 0.000000 -0.084000
v -0.105000 0.082690 -0.084000
v 0.105000 0.000000 0.084000
v 0.105000 0.082690 0.084000
v 0.105000 0.000000 -0.084000
v 0.105000 0.082690 -0.084000
v -0.105000 0.000000 0.000000
v -0.105000 0.082690 0.000000
v 0.105000 0.000000 0.000000
v 0.105000 0.082690 0.000000
v -0.124334 0.044521 -0.063336
v -0.124334 0.044521 0.063336
v -0.105000 0.005578 0.117313
v 0.105000 0.005578 0.117313
v 0.124384 0.044546 0.063336
v 0.124384 0.044546 -0.063336
v -0.105000 0.007595 -0.121639
v 0.105000 0.007595 -0.121639
v -0.124334 0.044521 0.000000
v 0.124384 0.044546 0.000000
v -0.099787 0.006721 0.079829
v -0.099787 0.085305 0.079829
v -0.099787 0.006721 -0.079829
v -0.099787 0.085305 -0.079829
v 0.099787 0.006721 0.079829
v 0.099787 0.085305 0.079829
v 0.099787 0.006721 -0.079829
v 0.099787 0.085305 -0.079829
v -0.099787 0.006721 0.000000
v -0.099787 0.085305 0.000000
v 0.099787 0.006721 0.000000
v 0.099787 0.085305 0.000000
v -0.105000 0.084852 0.089005
v -0.105000 0.085133 -0.088874
v 0.105000 0.084852 0.089005
v 0.105000 0.085133 -0.088874
v -0.105000 0.007740 0.122318
v 0.105000 0.007740 0.122318
v -0.105000 0.010037 -0.126513
v 0.105000 0.010037 -0.126513
v -0.109636 0.085038 0.084000
v -0.109636 0.085038 -0.084000
v 0.109633 0.085045 0.084000
v 0.109633 0.085045 -0.084000
v -0.109636 0.085038 0.000000
v 0.109633 0.085045 0.000000
v -0.128971 0.046869 -0.063336
v -0.128971 0.046869 0.063336
v 0.129017 0.046900 0.063336
v 0.129017 0.046900 -0.063336
v -0.128971 0.046869 0.000000
v 0.129017 0.046900 0.000000
vn -1.0000 -0.0000 -0.0000
vn -0.0000 -0.0000 -1.0000
vn 1.0000 -0.0000 -0.0000
vn -0.0000 -1.0000 -0.0000
vn -0.0000 -0.4481 0.8940
vn -0.0000 -0.0000 1.0000
vn -0.8915 -0.4530 -0.0000
vn -0.0000 -0.3966 -0.9180
vn 0.8921 -0.4519 -0.0000
vn -0.0000 1.0000 -0.0000
vn -0.0000 0.4481 -0.8940
vn -0.0000 0.3966 0.9180
vn 0.8915 0.4530 -0.0000
vn -0.8921 0.4519 -0.0000
vn -0.4519 -0.8921 -0.0000
vn -0.1965 -0.3880 0.9005
vn -0.0000 -0.9180 0.3966
vn 0.1970 -0.3877 0.9005
vn 0.4530 -0.8915 -0.0000
vn 0.1970 -0.3877 -0.9005
vn -0.0000 -0.8940 -0.4481
vn -0.1965 -0.3880 -0.9005
vn -0.0000 0.9998 -0.0191
vn -0.0271 0.9996 -0.0000
vn -0.0000 0.9988 0.0493
vn 0.0265 0.9996 -0.0000
vn 0.0073 0.9990 0.0452
vn 0.4228 -0.8319 0.3594
vn 0.0244 0.9997 -0.0050
vn 0.4136 -0.8139 -0.4080
vn -0.0252 0.9997 -0.0046
vn -0.4125 -0.8144 -0.4082
vn -0.0081 0.9990 0.0447
vn -0.4216 -0.8324 0.3596
vt 0.156250 0.125000
vt 0.031250 0.000000
vt 0.156250 0.000000
vt 0.656250 0.562500
vt 0.343750 0.437500
vt 0.656250 0.437500
vt 0.343750 0.500000
vt 0.656250 0.375000
vt 0.656250 0.500000
vt 0.000000 0.968750
vt 0.312500 0.843750
vt 0.312500 0.968750
vt 0.656250 0.125000
vt 0.343750 0.000000
vt 0.656250 0.000000
vt 0.281250 0.062500
vt 0.281250 0.125000
vt 0.343750 0.625000
vt 0.656250 0.625000
vt 0.281250 0.000000
vt 0.000000 0.843750
vt 0.312500 0.718750
vt 0.031250 0.062500
vt 0.156250 0.062500
vt 0.375000 0.406250
vt 0.500000 0.531250
vt 0.500000 0.406250
vt 0.343750 0.375000
vt 0.625000 0.531250
vt 0.625000 0.406250
vt 0.375000 0.562500
vt 0.500000 0.500000
vt 0.375000 0.500000
vt 0.625000 0.562500
vt 0.625000 0.500000
vt 0.375000 0.593750
vt 0.406250 0.625000
vt 0.406250 0.593750
vt 0.375000 0.625000
vt 0.031250 0.125000
vt 0.343750 0.562500
vt 0.343750 0.125000
vt 0.000000 0.718750
vt 0.375000 0.531250
vt 0.500000 0.562500
s 0
usemtl CardboardBox
f 10/1/1 3/2/1 9/3/1
f 4/4/2 7/5/2 3/6/2
f 12/1/3 5/2/3 11/3/3
f 11/7/4 1/8/4 9/9/4
f 4/10/5 20/11/5 8/12/5
f 6/13/6 1/14/6 5/15/6
f 12/1/7 17/16/7 6/17/7
f 7/18/4 9/9/4 3/19/4
f 8/17/3 11/3/3 7/20/3
f 2/17/1 9/3/1 1/20/1
f 15/21/8 6/22/8 16/11/8
f 10/1/9 13/16/9 4/17/9
f 12/1/7 18/23/7 22/24/7
f 10/1/9 14/23/9 21/24/9
f 25/25/3 32/26/3 31/27/3
f 29/28/6 26/9/6 25/8/6
f 27/25/1 34/26/1 33/27/1
f 23/8/10 33/7/10 31/9/10
f 23/7/2 28/19/2 27/9/2
f 31/9/10 29/18/10 25/19/10
f 33/27/1 30/29/1 29/30/1
f 31/27/3 24/29/3 23/30/3
f 42/9/11 36/18/11 38/19/11
f 37/8/12 39/7/12 40/9/12
f 51/31/13 48/32/13 45/33/13
f 49/31/14 47/32/14 44/33/14
f 48/32/13 52/34/13 46/35/13
f 47/32/14 50/34/14 43/35/14
f 53/36/15 13/37/15 21/38/15
f 50/38/15 21/39/15 14/37/15
f 43/36/16 14/37/16 2/38/16
f 39/38/1 2/39/1 15/37/1
f 40/36/17 15/37/17 16/38/17
f 6/37/3 40/36/3 16/39/3
f 51/36/18 6/37/18 17/38/18
f 54/38/19 17/39/19 22/37/19
f 52/36/19 22/37/19 18/38/19
f 46/38/20 18/39/20 8/37/20
f 20/38/3 38/39/3 8/37/3
f 41/38/21 20/39/21 19/37/21
f 36/36/1 19/37/1 4/38/1
f 49/38/22 4/39/22 13/37/22
f 38/36/23 26/37/23 30/38/23
f 26/37/24 47/36/24 32/39/24
f 47/36/24 24/37/24 32/38/24
f 35/38/25 28/39/25 24/37/25
f 28/38/26 48/39/26 34/37/26
f 48/38/26 30/39/26 34/37/26
f 37/36/27 45/38/27 28/39/27
f 37/39/28 6/36/28 45/38/28
f 38/36/29 30/38/29 46/39/29
f 46/38/30 8/36/30 38/39/30
f 36/37/31 44/38/31 26/39/31
f 36/38/32 4/37/32 44/39/32
f 43/39/33 35/37/33 24/38/33
f 43/39/34 2/37/34 35/38/34
f 10/1/1 4/40/1 3/2/1
f 4/4/2 8/41/2 7/5/2
f 12/1/3 6/40/3 5/2/3
f 11/7/4 5/28/4 1/8/4
f 4/10/5 19/21/5 20/11/5
f 6/13/6 2/42/6 1/14/6
f 12/1/7 22/24/7 17/16/7
f 7/18/4 11/7/4 9/9/4
f 8/17/3 12/1/3 11/3/3
f 2/17/1 10/1/1 9/3/1
f 15/21/8 2/43/8 6/22/8
f 10/1/9 21/24/9 13/16/9
f 12/1/7 8/40/7 18/23/7
f 10/1/9 2/40/9 14/23/9
f 25/25/3 26/44/3 32/26/3
f 29/28/6 30/7/6 26/9/6
f 27/25/1 28/44/1 34/26/1
f 23/8/10 27/28/10 33/7/10
f 23/7/2 24/18/2 28/19/2
f 31/9/10 33/7/10 29/18/10
f 33/27/1 34/26/1 30/29/1
f 31/27/3 32/26/3 24/29/3
f 42/9/11 41/7/11 36/18/11
f 37/8/12 35/28/12 39/7/12
f 51/31/13 54/45/13 48/32/13
f 49/31/14 53/45/14 47/32/14
f 48/32/13 54/45/13 52/34/13
f 47/32/14 53/45/14 50/34/14
f 53/36/15 49/39/15 13/37/15
f 50/38/15 53/36/15 21/39/15
f 43/36/16 50/39/16 14/37/16
f 39/38/1 35/36/1 2/39/1
f 40/36/17 39/39/17 15/37/17
f 6/37/3 37/38/3 40/36/3
f 51/36/18 45/39/18 6/37/18
f 54/38/19 51/36/19 17/39/19
f 52/36/19 54/39/19 22/37/19
f 46/38/20 52/36/20 18/39/20
f 20/38/3 42/36/3 38/39/3
f 41/38/21 42/36/21 20/39/21
f 36/36/1 41/39/1 19/37/1
f 49/38/22 44/36/22 4/39/22
f 38/36/23 36/39/23 26/37/23
f 26/37/24 44/38/24 47/36/24
f 47/36/24 43/39/24 24/37/24
f 35/38/25 37/36/25 28/39/25
f 28/38/26 45/36/26 48/39/26
f 48/38/26 46/36/26 30/39/26
