# Blender 5.1.1
# www.blender.org
mtllib CeilingLightLongCovered.mtl
o CeilingLightLongCovered
v -0.282515 -0.012000 0.024000
v -0.294000 -0.012000 0.012515
v -0.300000 0.000000 0.015000
v -0.285000 0.000000 0.030000
v -0.294000 -0.012000 -0.012515
v -0.282515 -0.012000 -0.024000
v -0.285000 -0.000000 -0.030000
v -0.300000 -0.000000 -0.015000
v 0.294000 -0.012000 0.012515
v 0.282515 -0.012000 0.024000
v 0.285000 0.000000 0.030000
v 0.300000 0.000000 0.015000
v 0.282515 -0.012000 -0.024000
v 0.294000 -0.012000 -0.012515
v 0.300000 -0.000000 -0.015000
v 0.285000 -0.000000 -0.030000
v -0.300000 -0.012000 0.015000
v -0.285000 -0.012000 0.030000
v -0.285000 -0.012000 -0.030000
v -0.300000 -0.012000 -0.015000
v 0.300000 -0.012000 -0.015000
v 0.285000 -0.012000 -0.030000
v 0.285000 -0.012000 0.030000
v 0.300000 -0.012000 0.015000
v -0.294000 -0.024000 0.012515
v -0.288000 -0.030000 0.010029
v -0.280029 -0.030000 0.018000
v -0.282515 -0.024000 0.024000
v -0.282515 -0.024000 -0.024000
v -0.280029 -0.030000 -0.018000
v -0.288000 -0.030000 -0.010029
v -0.294000 -0.024000 -0.012515
v 0.294000 -0.024000 -0.012515
v 0.288000 -0.030000 -0.010029
v 0.280029 -0.030000 -0.018000
v 0.282515 -0.024000 -0.024000
v 0.282515 -0.024000 0.024000
v 0.280029 -0.030000 0.018000
v 0.288000 -0.030000 0.010029
v 0.294000 -0.024000 0.012515
vn -0.0000 -0.0000 1.0000
vn 1.0000 -0.0000 -0.0000
vn -1.0000 -0.0000 -0.0000
vn -0.0000 -0.0000 -1.0000
vn -0.7071 -0.0000 0.7071
vn -0.7071 -0.0000 -0.7071
vn 0.7071 -0.0000 -0.7071
vn 0.7071 -0.0000 0.7071
vn -0.0000 -1.0000 -0.0000
vn -0.5000 -0.7071 0.5000
vn -0.5000 -0.7071 -0.5000
vn 0.5000 -0.7071 -0.5000
vn 0.5000 -0.7071 0.5000
vn -0.7071 -0.7071 -0.0000
vn -0.0000 -0.7071 -0.7071
vn 0.7071 -0.7071 -0.0000
vn -0.0000 -0.7071 0.7071
vt 0.625000 0.062500
vt 0.000000 0.000000
vt 0.625000 0.000000
vt 0.875000 0.062500
vt 0.750000 0.000000
vt 0.875000 0.000000
vt 0.875000 0.125000
vt 0.750000 0.062500
vt 0.000000 0.187500
vt 0.625000 0.250000
vt 0.000000 0.250000
vt 0.937500 0.062500
vt 0.687500 0.125000
vt 0.750000 0.125000
vt 0.937500 0.000000
vt 0.687500 0.062500
vt 0.875000 0.250000
vt 0.937500 0.187500
vt 0.937500 0.250000
vt 0.687500 0.187500
vt 0.750000 0.250000
vt 0.687500 0.250000
vt 0.937500 0.125000
vt 0.875000 0.187500
vt 0.760971 0.250000
vt 0.864029 0.250000
vt 0.625000 0.125000
vt 0.625000 0.187500
vt 0.864648 0.125000
vt 0.750000 0.187500
vt 0.760352 0.125000
vt 0.000000 0.125000
vt 0.000000 0.062500
vt 0.937500 0.875000
vt 1.000000 0.750000
vt 0.937500 0.750000
vt 0.062500 0.750000
vt -0.000000 0.875000
vt 0.062500 0.875000
vt 0.821529 0.781250
vt 0.812500 0.875000
vt 0.178471 0.843750
vt 0.062500 0.937500
vt -0.000000 1.000000
vt 0.062500 1.000000
vt 0.937500 1.000000
vt 1.000000 0.937500
vt 0.937500 0.937500
vt 0.812500 1.000000
vt 0.187500 0.937500
vt 0.187500 1.000000
vt 0.937500 0.687500
vt 1.000000 0.625000
vt 0.937500 0.625000
vt 0.187500 0.687500
vt 0.812500 0.625000
vt 0.812500 0.687500
vt 0.125000 0.687500
vt 0.062500 0.625000
vt 0.125000 0.625000
vt 0.125000 1.000000
vt 0.125000 0.937500
vt 0.875000 0.937500
vt 0.875000 1.000000
vt 0.875000 0.687500
vt 0.125000 0.862446
vt 0.812860 0.875000
vt 0.189855 0.937500
vt 0.187140 0.875000
vt 0.875000 0.761629
vt 0.187071 0.750000
vt 0.810145 0.687500
vt 0.812929 0.750000
vt -0.000000 0.687500
vt 0.062500 0.687500
vt 0.687500 0.000000
vt 1.000000 0.875000
vt -0.000000 0.750000
vt 0.178471 0.781250
vt 0.187500 0.750000
vt 0.812500 0.750000
vt 0.821529 0.843750
vt 0.187500 0.875000
vt -0.000000 0.937500
vt 1.000000 1.000000
vt 0.812500 0.937500
vt 1.000000 0.687500
vt 0.187500 0.625000
vt 0.875000 0.625000
vt 0.125000 0.762554
vt 0.810145 0.937500
vt 0.875000 0.863371
vt 0.189855 0.687500
vt -0.000000 0.625000
s 0
usemtl 32x32grid
f 11/1/1 18/2/1 23/3/1
f 15/4/2 24/5/2 21/6/2
f 3/7/3 20/8/3 17/4/3
f 7/9/4 22/10/4 19/11/4
f 4/12/5 17/7/5 18/4/5
f 19/13/6 8/8/6 7/14/6
f 21/4/7 16/15/7 15/12/7
f 23/16/8 12/5/8 11/8/8
f 1/17/9 17/18/9 2/19/9
f 5/20/9 19/21/9 6/22/9
f 13/23/9 21/24/9 14/7/9
f 9/14/9 23/20/9 10/13/9
f 2/25/9 20/24/9 5/26/9
f 6/9/9 22/27/9 13/28/9
f 14/29/9 24/30/9 9/31/9
f 10/1/9 18/32/9 1/33/9
f 11/1/1 4/33/1 18/2/1
f 15/4/2 12/8/2 24/5/2
f 3/7/3 8/14/3 20/8/3
f 7/9/4 16/28/4 22/10/4
f 4/12/5 3/23/5 17/7/5
f 19/13/6 20/16/6 8/8/6
f 21/4/7 22/6/7 16/15/7
f 23/16/8 24/76/8 12/5/8
f 1/17/9 18/24/9 17/18/9
f 5/20/9 20/30/9 19/21/9
f 13/23/9 22/18/9 21/24/9
f 9/14/9 24/30/9 23/20/9
f 2/25/9 17/30/9 20/24/9
f 6/9/9 19/32/9 22/27/9
f 14/29/9 21/24/9 24/30/9
f 10/1/9 23/27/9 18/32/9
usemtl 32x32grid
f 9/34/2 33/35/2 14/36/2
f 5/37/3 25/38/3 2/39/3
f 34/40/9 38/41/9 26/42/9
f 6/43/6 32/44/6 5/45/6
f 14/46/7 36/47/7 13/48/7
f 13/49/4 29/50/4 6/51/4
f 10/52/8 40/53/8 9/54/8
f 1/55/1 37/56/1 10/57/1
f 27/58/10 25/59/10 26/60/10
f 30/61/11 32/43/11 29/62/11
f 35/63/12 33/46/12 34/64/12
f 38/65/13 40/54/13 37/52/13
f 32/37/14 26/66/14 25/39/14
f 36/67/15 30/68/15 29/69/15
f 40/34/16 34/70/16 33/36/16
f 28/71/17 38/72/17 37/73/17
f 2/59/5 28/74/5 1/75/5
f 9/34/2 40/77/2 33/35/2
f 5/37/3 32/78/3 25/38/3
f 26/42/9 31/79/9 30/80/9
f 30/80/9 35/81/9 34/40/9
f 34/40/9 39/82/9 38/41/9
f 38/41/9 27/83/9 26/42/9
f 26/42/9 30/80/9 34/40/9
f 6/43/6 29/84/6 32/44/6
f 14/46/7 33/85/7 36/47/7
f 13/49/4 36/86/4 29/50/4
f 10/52/8 37/87/8 40/53/8
f 1/55/1 28/88/1 37/56/1
f 27/58/10 28/75/10 25/59/10
f 30/61/11 31/45/11 32/43/11
f 35/63/12 36/48/12 33/46/12
f 38/65/13 39/89/13 40/54/13
f 32/37/14 31/90/14 26/66/14
f 36/67/15 35/91/15 30/68/15
f 40/34/16 39/92/16 34/70/16
f 28/71/17 27/93/17 38/72/17
f 2/59/5 25/94/5 28/74/5
