# Blender 5.0.1
# www.blender.org
mtllib Hanger.mtl
o Hanger
v -0.500000 0.000000 0.100000
v -0.500000 0.030000 0.100000
v -0.500000 0.000000 -0.100000
v -0.500000 0.030000 -0.100000
v 0.500000 0.000000 0.100000
v 0.500000 0.030000 0.100000
v 0.500000 0.000000 -0.100000
v 0.500000 0.030000 -0.100000
v -0.010000 -0.065000 -0.082589
v -0.010000 -0.035000 -0.082589
v -0.010000 -0.065000 -0.102589
v -0.010000 -0.035000 -0.102589
v 0.010000 -0.065000 -0.082589
v 0.010000 -0.035000 -0.082589
v 0.010000 -0.065000 -0.102589
v 0.010000 -0.035000 -0.102589
v -0.004984 -0.059789 -0.084015
v 0.004984 -0.059789 -0.084015
v -0.004984 -0.042538 -0.070680
v 0.004984 -0.042538 -0.070680
v -0.210000 -0.065000 -0.082589
v -0.210000 -0.035000 -0.082589
v -0.210000 -0.065000 -0.102589
v -0.210000 -0.035000 -0.102589
v -0.190000 -0.065000 -0.082589
v -0.190000 -0.035000 -0.082589
v -0.190000 -0.065000 -0.102589
v -0.190000 -0.035000 -0.102589
v -0.204984 -0.059789 -0.084015
v -0.195016 -0.059789 -0.084015
v -0.204984 -0.042538 -0.070680
v -0.195016 -0.042538 -0.070680
v -0.410000 -0.065000 -0.082589
v -0.410000 -0.035000 -0.082589
v -0.410000 -0.065000 -0.102589
v -0.410000 -0.035000 -0.102589
v -0.390000 -0.065000 -0.082589
v -0.390000 -0.035000 -0.082589
v -0.390000 -0.065000 -0.102589
v -0.390000 -0.035000 -0.102589
v -0.404984 -0.059789 -0.084015
v -0.395016 -0.059789 -0.084015
v -0.404984 -0.042538 -0.070680
v -0.395016 -0.042538 -0.070680
v 0.190000 -0.065000 -0.082589
v 0.190000 -0.035000 -0.082589
v 0.190000 -0.065000 -0.102589
v 0.190000 -0.035000 -0.102589
v 0.210000 -0.065000 -0.082589
v 0.210000 -0.035000 -0.082589
v 0.210000 -0.065000 -0.102589
v 0.210000 -0.035000 -0.102589
v 0.195016 -0.059789 -0.084015
v 0.204984 -0.059789 -0.084015
v 0.195016 -0.042538 -0.070680
v 0.204984 -0.042538 -0.070680
v 0.390000 -0.065000 -0.082589
v 0.390000 -0.035000 -0.082589
v 0.390000 -0.065000 -0.102589
v 0.390000 -0.035000 -0.102589
v 0.410000 -0.065000 -0.082589
v 0.410000 -0.035000 -0.082589
v 0.410000 -0.065000 -0.102589
v 0.410000 -0.035000 -0.102589
v 0.395016 -0.059789 -0.084015
v 0.404984 -0.059789 -0.084015
v 0.395016 -0.042538 -0.070680
v 0.404984 -0.042538 -0.070680
vn -1.0000 -0.0000 -0.0000
vn 1.0000 -0.0000 -0.0000
vn -0.0000 -0.0000 1.0000
vn -0.0000 -1.0000 -0.0000
vn -0.0000 1.0000 -0.0000
vn -0.0000 -0.6116 0.7912
vt 0.937500 0.187500
vt 1.000000 -0.000000
vt 1.000000 0.187500
vt 0.937500 0.437500
vt 1.000000 0.250000
vt 1.000000 0.437500
vt 0.937500 0.250000
vt 0.000000 0.187500
vt 0.937500 0.000000
vt 0.000000 -0.000000
vt 0.000000 0.437500
vt 0.125000 0.687500
vt 0.062500 0.562500
vt 0.125000 0.562500
vt 0.250000 0.687500
vt 0.187500 0.562500
vt 0.250000 0.562500
vt 0.187500 0.687500
vt 0.125000 0.500000
vt 0.187500 0.500000
vt 0.187500 0.750000
vt 0.437500 0.562500
vt 0.375000 0.687500
vt 0.375000 0.562500
vt 0.000000 0.250000
vt 0.062500 0.687500
vt 0.125000 0.750000
vt 0.437500 0.687500
s 0
usemtl Hanger
f 2/1/1 3/2/1 1/3/1
f 8/4/2 5/5/2 7/6/2
f 6/7/3 1/8/3 5/1/3
f 7/9/4 1/8/4 3/10/4
f 4/11/5 6/7/5 8/4/5
f 10/12/1 11/13/1 9/14/1
f 16/15/2 13/16/2 15/17/2
f 14/18/3 9/14/3 13/16/3
f 15/16/4 9/19/4 11/20/4
f 12/21/5 14/12/5 16/18/5
f 18/22/6 19/23/6 17/24/6
f 22/12/1 23/13/1 21/14/1
f 28/15/2 25/16/2 27/17/2
f 26/18/3 21/14/3 25/16/3
f 27/16/4 21/19/4 23/20/4
f 24/21/5 26/12/5 28/18/5
f 30/22/6 31/23/6 29/24/6
f 34/12/1 35/13/1 33/14/1
f 40/15/2 37/16/2 39/17/2
f 38/18/3 33/14/3 37/16/3
f 39/16/4 33/19/4 35/20/4
f 36/21/5 38/12/5 40/18/5
f 42/22/6 43/23/6 41/24/6
f 46/12/1 47/13/1 45/14/1
f 52/15/2 49/16/2 51/17/2
f 50/18/3 45/14/3 49/16/3
f 51/16/4 45/19/4 47/20/4
f 48/21/5 50/12/5 52/18/5
f 54/22/6 55/23/6 53/24/6
f 58/12/1 59/13/1 57/14/1
f 64/15/2 61/16/2 63/17/2
f 62/18/3 57/14/3 61/16/3
f 63/16/4 57/19/4 59/20/4
f 60/21/5 62/12/5 64/18/5
f 66/22/6 67/23/6 65/24/6
f 2/1/1 4/9/1 3/2/1
f 8/4/2 6/7/2 5/5/2
f 6/7/3 2/25/3 1/8/3
f 7/9/4 5/1/4 1/8/4
f 4/11/5 2/25/5 6/7/5
f 10/12/1 12/26/1 11/13/1
f 16/15/2 14/18/2 13/16/2
f 14/18/3 10/12/3 9/14/3
f 15/16/4 13/14/4 9/19/4
f 12/21/5 10/27/5 14/12/5
f 18/22/6 20/28/6 19/23/6
f 22/12/1 24/26/1 23/13/1
f 28/15/2 26/18/2 25/16/2
f 26/18/3 22/12/3 21/14/3
f 27/16/4 25/14/4 21/19/4
f 24/21/5 22/27/5 26/12/5
f 30/22/6 32/28/6 31/23/6
f 34/12/1 36/26/1 35/13/1
f 40/15/2 38/18/2 37/16/2
f 38/18/3 34/12/3 33/14/3
f 39/16/4 37/14/4 33/19/4
f 36/21/5 34/27/5 38/12/5
f 42/22/6 44/28/6 43/23/6
f 46/12/1 48/26/1 47/13/1
f 52/15/2 50/18/2 49/16/2
f 50/18/3 46/12/3 45/14/3
f 51/16/4 49/14/4 45/19/4
f 48/21/5 46/27/5 50/12/5
f 54/22/6 56/28/6 55/23/6
f 58/12/1 60/26/1 59/13/1
f 64/15/2 62/18/2 61/16/2
f 62/18/3 58/12/3 57/14/3
f 63/16/4 61/14/4 57/19/4
f 60/21/5 58/27/5 62/12/5
f 66/22/6 68/28/6 67/23/6
