# Blender 5.0.1
# www.blender.org
mtllib HangingJacket.mtl
o HangingJacket
v -0.000388 0.069959 0.031726
v -0.000388 0.006432 -0.060879
v -0.000388 0.039385 -0.010247
v -0.000388 0.042387 -0.028083
v 0.002177 -0.059418 -0.095479
v -0.000388 -0.163783 -0.113574
v -0.000388 -0.264544 -0.123032
v 0.199554 -0.413624 0.000479
v -0.200737 -0.419169 0.000012
v -0.046035 -0.424898 0.035851
v 0.056350 -0.590088 0.030774
v -0.043516 -0.590196 0.046859
v -0.194578 -0.607817 0.006256
v 0.054752 -0.424144 0.031879
v 0.057170 -0.274107 0.029607
v 0.057170 -0.146488 0.030093
v 0.033469 -0.015159 0.033598
v 0.057170 -0.031843 0.044394
v 0.057170 0.015265 0.050282
v 0.108272 0.058981 0.050191
v 0.193654 -0.600942 -0.007254
v -0.007034 -0.417562 -0.128234
v -0.052193 -0.274107 0.029607
v -0.052193 -0.146488 0.030093
v -0.028492 -0.015159 0.033598
v -0.052193 -0.031843 0.044394
v -0.052193 0.015265 0.050282
v -0.096820 0.053927 0.044477
v 0.074592 0.013412 0.029392
v -0.071003 0.024495 0.021468
v 0.091540 0.008609 0.031297
v -0.090807 0.020805 0.024493
v -0.053570 -0.011747 -0.048429
v 0.061295 -0.022194 -0.044202
v -0.091257 0.011232 -0.004555
v 0.093731 -0.001192 0.006111
v 0.145689 -0.011852 0.002992
v -0.145332 -0.004033 -0.004453
v -0.180532 -0.050272 -0.002938
v 0.184678 -0.058177 0.000823
v 0.149030 -0.031901 0.041655
v 0.152291 -0.038233 -0.035356
v -0.146711 -0.033761 -0.049913
v -0.155103 -0.042106 0.036662
v 0.061399 -0.058204 -0.088302
v -0.057144 -0.057001 -0.088846
v -0.199366 -0.145285 -0.012223
v -0.203255 -0.272531 -0.010995
v 0.195133 -0.155796 0.005930
v 0.197956 -0.266340 0.001585
v -0.170468 -0.141642 0.042797
v -0.176691 -0.268871 0.039530
v -0.156043 -0.276879 -0.046511
v -0.152246 -0.146897 -0.045967
v 0.166391 -0.264637 -0.043392
v 0.169356 -0.151925 -0.037255
v 0.157352 -0.148798 0.041242
v 0.170384 -0.264488 0.030096
v -0.049733 -0.166902 -0.101481
v 0.060680 -0.165166 -0.103683
v 0.104522 -0.169500 -0.099588
v -0.097536 -0.169803 -0.108418
v -0.086197 -0.065353 -0.086089
v 0.093651 -0.060043 -0.086438
v 0.134110 -0.157108 -0.050145
v -0.125944 -0.159724 -0.062611
v 0.105546 -0.262603 -0.103863
v -0.096512 -0.262907 -0.112694
v -0.051938 -0.260475 -0.105780
v 0.058474 -0.258738 -0.107982
v -0.129913 -0.260869 -0.057625
v 0.133678 -0.257492 -0.047559
v -0.123317 -0.137697 0.033230
v -0.129540 -0.264926 0.022988
v 0.119401 -0.151014 0.031526
v 0.132434 -0.266704 0.013404
v 0.034885 -0.015159 0.016963
v -0.029909 -0.015159 0.016963
v 0.059670 -0.142038 0.014800
v -0.054694 -0.142038 0.014800
v -0.094816 -0.045190 0.029117
v 0.088845 -0.038810 0.029841
v 0.000384 0.064109 0.034657
v 0.045598 0.021144 0.049233
v 0.085743 0.055485 0.049162
v -0.040313 0.021144 0.049233
v -0.075370 0.051515 0.044673
v 0.000384 0.024314 0.004622
v 0.067414 -0.271491 0.015332
v -0.059529 -0.271491 0.015332
v -0.183252 -0.410238 0.042914
v -0.161029 -0.433120 -0.047932
v 0.165279 -0.412912 -0.044304
v 0.172378 -0.425236 0.032282
v 0.105421 -0.411970 -0.105774
v -0.093559 -0.412867 -0.101028
v -0.051081 -0.410280 -0.105445
v 0.058295 -0.407376 -0.108146
v -0.128462 -0.409155 -0.056207
v 0.131739 -0.408567 -0.052150
v -0.128714 -0.421271 0.029194
v 0.133000 -0.439517 0.021038
v 0.072083 -0.418287 0.017530
v -0.065158 -0.417423 0.012941
v -0.014301 -0.543343 -0.135618
v -0.189812 -0.589462 0.046298
v -0.157691 -0.617715 -0.047829
v 0.156068 -0.605360 -0.043509
v 0.174372 -0.585447 0.034467
v 0.109917 -0.533694 -0.108731
v -0.094617 -0.535249 -0.089602
v -0.058676 -0.532387 -0.111643
v 0.060658 -0.528135 -0.109383
v -0.132626 -0.529626 -0.053506
v 0.135500 -0.531924 -0.055544
v -0.116316 -0.621845 0.035401
v 0.121651 -0.618165 0.028671
v 0.106006 -0.604580 0.016591
v -0.095375 -0.610574 0.027236
v -0.012246 -0.627275 -0.119278
v -0.145560 -0.614996 -0.041328
v 0.145017 -0.604084 -0.039047
v 0.095219 -0.618465 -0.095440
v -0.081157 -0.619500 -0.079639
v -0.049152 -0.616935 -0.099266
v 0.054322 -0.613245 -0.095939
v -0.117670 -0.614442 -0.044982
v 0.117983 -0.616731 -0.048094
v -0.116353 -0.618420 0.023608
v 0.117309 -0.615126 0.012643
v 0.094922 -0.595777 -0.001110
v -0.088593 -0.594657 -0.002460
v 0.116830 -0.617004 -0.115368
v 0.064383 -0.611086 -0.116062
v -0.109776 -0.619820 -0.103216
v -0.062673 -0.615613 -0.118468
v -0.015427 -0.627278 -0.143995
v 0.144069 -0.615120 -0.058738
v -0.141410 -0.612673 -0.056569
v 0.075877 -0.597011 0.016601
v -0.078910 -0.594643 0.016066
v 0.074862 -0.496096 -0.084258
v 0.043998 -0.492157 -0.084634
v -0.058246 -0.496878 -0.072333
v -0.034093 -0.494941 -0.087145
v -0.006240 -0.502745 -0.102247
v 0.091858 -0.496454 -0.036008
v -0.120309 -0.495102 -0.027162
v 0.136491 -0.497177 -0.020957
v -0.139595 -0.505252 -0.024635
v -0.082858 -0.503823 0.025316
v -0.119399 -0.507620 0.020269
v 0.105783 -0.501707 0.013012
v 0.122652 -0.503819 0.012444
v 0.087511 -0.497870 -0.010662
v -0.068333 -0.498014 -0.015194
vn -0.4181 0.8250 -0.3803
vn 0.5171 0.7773 -0.3583
vn 0.3707 -0.4316 0.8224
vn -0.5626 -0.1025 0.8203
vn -0.2461 -0.9558 -0.1609
vn 0.1322 -0.9775 -0.1645
vn 0.1602 -0.3656 -0.9169
vn -0.1237 -0.4092 -0.9040
vn 0.4727 0.7386 -0.4807
vn -0.3827 0.7743 -0.5040
vn -0.5940 -0.4286 0.6808
vn 0.0076 0.8885 -0.4588
vn 0.4495 -0.5424 0.7098
vn 0.1264 0.8838 -0.4504
vn 0.1973 0.8530 -0.4832
vn 0.1369 0.8270 -0.5453
vn -0.2836 0.5046 0.8155
vn 0.2059 0.8759 0.4364
vn -0.2317 0.8174 -0.5275
vn -0.1798 0.7995 -0.5732
vn 0.1326 0.5018 0.8548
vn -0.2082 0.7418 0.6375
vn 0.7457 0.6156 0.2548
vn 0.7220 0.6218 -0.3035
vn -0.7524 0.5615 -0.3444
vn -0.7380 0.5735 0.3557
vn -0.3419 0.4266 -0.8373
vn 0.0606 0.7732 -0.6312
vn 0.7688 0.0525 0.6374
vn 0.7727 0.1264 -0.6220
vn 0.8185 0.0434 -0.5728
vn 0.7185 -0.0090 0.6954
vn -0.5820 0.0099 -0.8131
vn -0.8856 0.0315 0.4633
vn -0.8452 0.1619 0.5094
vn -0.8146 0.0196 -0.5796
vn 0.1613 0.1648 -0.9731
vn -0.2447 0.1715 -0.9543
vn 0.0804 0.7721 -0.6303
vn 0.1961 0.8002 -0.5668
vn -0.2558 0.6551 -0.7109
vn -0.1351 0.6233 -0.7702
vn 0.1293 0.1939 -0.9725
vn 0.1049 0.1289 -0.9861
vn 0.3342 0.0659 -0.9402
vn 0.6583 -0.0070 -0.7527
vn 0.8321 0.1469 -0.5348
vn -0.5358 -0.0032 -0.8443
vn -0.5123 0.0021 -0.8588
vn -0.8109 0.2052 -0.5480
vn 0.0909 0.0467 -0.9948
vn 0.1410 0.0421 -0.9891
vn 0.2383 0.0908 -0.9669
vn -0.3098 0.0889 -0.9466
vn 0.8598 -0.0169 -0.5103
vn -0.8491 0.0073 -0.5282
vn 0.1370 0.0503 -0.9893
vn -0.3994 0.0155 -0.9167
vn 0.2052 -0.0885 0.9747
vn -0.3926 -0.1319 0.9102
vn -0.2214 0.5407 0.8116
vn -0.0000 -0.0170 0.9999
vn 0.9638 -0.1684 -0.2066
vn -0.9638 -0.1684 -0.2066
vn 0.2654 0.4895 0.8306
vn 0.0610 -0.0156 0.9980
vn -0.0603 -0.0158 0.9981
vn 0.1262 0.0416 0.9911
vn 0.2003 -0.0181 0.9796
vn -0.1907 -0.0170 0.9815
vn -0.2448 -0.0521 0.9682
vn -0.0224 0.0089 0.9997
vn 0.0477 0.0297 0.9984
vn -0.1082 0.4338 0.8945
vn 0.0427 0.4520 0.8910
vn -0.0560 0.0675 0.9961
vn 0.0088 0.1584 0.9873
vn 0.4747 -0.1092 0.8734
vn -0.4747 -0.1092 0.8734
vn 0.9372 0.3396 -0.0798
vn -0.9346 0.3466 -0.0796
vn 0.2015 -0.5901 0.7818
vn 0.5189 0.6773 0.5215
vn -0.1928 -0.5911 0.7832
vn -0.5289 0.6195 0.5801
vn 0.7049 -0.3476 0.6183
vn -0.6635 -0.3781 0.6456
vn -0.0000 0.2984 0.9544
vn -0.0857 -0.0038 0.9963
vn -0.0233 -0.0038 0.9997
vn -0.9822 -0.0595 -0.1779
vn 0.8896 0.0017 -0.4568
vn -0.0000 0.0041 1.0000
vn -0.4030 0.0074 0.9152
vn 0.1324 0.0284 -0.9908
vn -0.0983 -0.0791 -0.9920
vn -0.2580 0.0170 -0.9660
vn 0.2910 0.0199 -0.9565
vn 0.7189 0.0026 0.6951
vn -0.0000 0.0150 0.9999
vn -0.3176 -0.0039 -0.9482
vn -0.8855 0.0521 0.4618
vn -0.0785 0.0380 0.9962
vn -0.6038 -0.0700 -0.7941
vn 0.1456 0.0441 0.9884
vn 0.2513 0.0397 0.9671
vn 0.8976 0.0049 -0.4408
vn -0.6375 -0.0014 -0.7705
vn 0.8185 -0.0026 -0.5745
vn -0.8552 -0.0133 -0.5182
vn 0.8871 -0.0267 -0.4607
vn 0.0872 0.0010 -0.9962
vn -0.2066 -0.0043 -0.9784
vn 0.3235 0.0368 -0.9455
vn -0.5170 -0.0751 -0.8527
vn 0.1640 0.0406 0.9856
vn 0.9001 -0.0462 0.4332
vn -0.2778 0.0096 0.9606
vn 0.0514 0.0112 -0.9986
vn 0.6960 -0.0363 -0.7171
vn -0.0772 0.0651 0.9949
vn -0.7759 -0.0462 -0.6292
vn 0.0491 0.0395 0.9980
vn -0.9282 0.0410 0.3698
vn 0.8997 0.0438 -0.4342
vn 0.6587 -0.0400 -0.7513
vn -0.7884 0.0135 -0.6150
vn -0.0335 -0.0059 0.9994
vn 0.2318 0.0338 -0.9722
vn -0.4487 0.0731 -0.8907
vn -0.1933 -0.9800 0.0475
vn 0.4236 -0.7677 0.4809
vn 0.5256 -0.1481 0.8377
vn -0.1077 -0.9762 -0.1883
vn 0.0264 -0.9958 -0.0871
vn 0.2068 -0.9784 -0.0016
vn -0.2248 -0.9740 0.0290
vn 0.0640 -0.9979 0.0058
vn -0.0581 -0.9948 0.0840
vn 0.0947 -0.8704 0.4832
vn -0.0001 -0.9886 -0.1507
vn 0.3774 -0.8890 -0.2594
vn -0.3657 -0.8172 -0.4454
vn -0.2315 -0.9211 -0.3131
vn 0.4655 -0.7776 -0.4228
vn -0.0153 -0.9998 0.0087
vn 0.3098 -0.9319 -0.1885
vn -0.0161 -0.9832 -0.1821
vn -0.0493 -0.9984 -0.0286
vn -0.3184 0.0136 -0.9479
vn -0.3071 -0.1144 0.9448
vn 0.8436 -0.0168 -0.5366
vn 0.4407 -0.1425 0.8863
vn -0.9368 0.1551 -0.3137
vn -0.8828 -0.1863 0.4313
vn 0.0290 -0.0949 -0.9951
vn 0.5831 -0.1074 0.8053
vn 0.9122 0.0127 -0.4096
vn -0.2498 -0.1504 0.9566
vn -0.9232 -0.0086 -0.3842
vn 0.1314 -0.1560 0.9790
vn -0.0243 -0.0950 0.9952
vn 0.1402 -0.0342 -0.9895
vn -0.1270 -0.9912 0.0374
vn 0.0025 -0.9985 -0.0553
vn -0.0296 -0.9779 -0.2067
vn -0.1260 -0.9900 -0.0632
vn 0.1165 -0.9882 -0.0999
vn 0.0046 -0.9669 -0.2553
vn 0.4277 -0.8719 -0.2383
vn -0.0281 -0.9978 -0.0605
vn 0.0032 -0.9969 -0.0789
vn 0.0157 -0.8761 0.4818
vn 0.0760 -0.9971 -0.0064
vn 0.0364 -0.9990 -0.0253
vn -0.6375 -0.0010 -0.7704
vn 0.7485 0.1022 -0.6552
vn 0.8944 0.1088 -0.4338
vn 0.0224 0.0812 -0.9964
vn 0.3126 0.0902 -0.9456
vn -0.4551 0.0945 -0.8854
vn -0.5259 0.0946 -0.8453
vn -0.6776 0.0985 -0.7288
vn -0.4913 0.0839 -0.8669
vn -0.1930 0.4809 -0.8552
vn 0.1887 0.2893 -0.9384
vn 0.4642 -0.1099 0.8789
vn -0.5279 -0.5070 0.6814
vn -0.2538 -0.9555 -0.1506
vn 0.1642 -0.9792 -0.1195
vn 0.0158 -0.3201 -0.9473
vn -0.0663 -0.3950 -0.9163
vn 0.4951 0.7437 -0.4492
vn -0.3875 0.7754 -0.4987
vn -0.0558 0.6675 -0.7425
vn 0.4176 0.4353 -0.7975
vn 0.6895 0.1113 0.7157
vn 0.8594 0.0655 -0.5071
vn 0.8589 0.0053 -0.5122
vn 0.6835 0.0067 0.7299
vn -0.5998 0.0209 -0.7999
vn -0.8857 0.0314 0.4631
vn -0.8813 0.1303 0.4542
vn -0.5672 0.1907 -0.8012
vn 0.1163 0.1406 -0.9832
vn -0.1062 0.1065 -0.9886
vn -0.1238 0.1051 -0.9867
vn 0.0651 0.1416 -0.9878
vn 0.0972 0.0434 -0.9943
vn 0.1506 0.0470 -0.9875
vn 0.1607 0.0415 -0.9861
vn -0.2407 0.0502 -0.9693
vn 0.8930 0.0304 -0.4490
vn -0.8547 0.0144 -0.5189
vn 0.3467 -0.0257 -0.9376
vn -0.5416 -0.0202 -0.8404
vn 0.3338 -0.0405 0.9418
vn -0.2345 -0.1762 0.9560
vn 0.9783 -0.1897 -0.0833
vn -0.9783 -0.1897 -0.0833
vn 0.2382 -0.3177 0.9178
vn -0.2428 -0.3142 0.9178
vn 0.0338 -0.0818 0.9961
vn 0.2207 -0.1266 0.9671
vn -0.8127 0.0022 -0.5827
vn 0.9844 -0.0375 -0.1719
vn -0.2882 0.0413 0.9567
vn 0.2283 0.0043 -0.9736
vn 0.1533 -0.0013 -0.9882
vn -0.3848 -0.0126 -0.9229
vn 0.2476 0.0008 -0.9689
vn 0.7568 0.0183 0.6534
vn -0.0335 -0.0151 0.9993
vn -0.4524 0.0499 -0.8904
vn -0.9269 0.0122 0.3752
vn -0.0806 0.0391 0.9960
vn -0.7655 0.0303 -0.6428
vn 0.2094 0.0114 0.9778
vn 0.3305 0.0073 0.9438
vn 0.8945 0.0021 -0.4471
vn -0.8090 -0.0345 -0.5868
vn 0.7941 0.0132 -0.6076
vn -0.7899 -0.0630 -0.6099
vn 0.7685 0.0049 -0.6399
vn 0.0515 0.0127 -0.9986
vn -0.2369 -0.0136 -0.9714
vn 0.2917 0.0155 -0.9564
vn -0.1067 0.0570 -0.9927
vn 0.2457 0.0093 0.9693
vn -0.1405 0.0512 0.9888
vn 0.0160 0.0249 -0.9996
vn 0.7941 0.0001 -0.6078
vn -0.1641 0.0204 0.9862
vn -0.8274 -0.0153 -0.5615
vn 0.1362 -0.0053 0.9907
vn -0.9910 -0.0280 0.1308
vn 0.8960 0.0395 -0.4423
vn 0.7545 -0.0700 -0.6526
vn -0.6921 -0.0612 -0.7192
vn -0.0032 0.0179 0.9998
vn 0.4378 -0.0247 -0.8987
vn -0.4588 0.0785 -0.8851
vn -0.3110 -0.8494 0.4264
vn 0.1933 -0.9778 -0.0813
vn -0.1228 -0.9784 -0.1664
vn 0.0670 -0.9954 -0.0678
vn 0.2077 -0.9778 -0.0266
vn -0.2230 -0.9706 0.0902
vn 0.0679 -0.9977 0.0005
vn -0.1111 -0.9909 0.0765
vn 0.2425 -0.8512 0.4654
vn 0.2571 -0.9633 -0.0769
vn 0.4152 -0.8939 -0.1691
vn -0.6736 -0.7379 0.0425
vn -0.2413 -0.9608 0.1368
vn 0.5564 -0.7786 -0.2903
vn -0.0055 -0.9971 -0.0754
vn 0.4239 -0.8694 -0.2539
vn -0.2360 -0.9168 -0.3223
vn -0.0380 -0.0348 -0.9987
vn 0.7916 0.0003 -0.6110
vn -0.9801 0.1120 -0.1638
vn -0.9181 -0.2317 0.3217
vn 0.0065 -0.1320 -0.9912
vn 0.6663 -0.1678 0.7265
vn -0.3168 -0.1828 0.9307
vn -0.8843 0.0416 -0.4651
vn 0.2009 -0.1403 0.9695
vn 0.1793 -0.0247 -0.9835
vn -0.5893 -0.0083 -0.8079
vn -0.3181 0.2060 -0.9254
vn -0.7879 0.2330 -0.5700
vt 0.738189 0.560959
vt 0.787320 0.625846
vt 0.725008 0.633569
vt 0.749027 0.716128
vt 0.772234 0.733529
vt 0.759694 0.708851
vt 0.753797 0.539969
vt 0.731125 0.545403
vt 0.737163 0.706911
vt 0.713416 0.634720
vt 0.727967 0.573025
vt 0.744245 0.731236
vt 0.729009 0.761510
vt 0.713416 0.521979
vt 0.285533 0.530551
vt 0.248733 0.478918
vt 0.286661 0.488417
vt 0.318668 0.484234
vt 0.349231 0.529776
vt 0.351985 0.503969
vt 0.394956 0.544582
vt 0.214468 0.523798
vt 0.176338 0.534444
vt 0.213466 0.499072
vt 0.212177 0.459071
vt 0.875621 0.497261
vt 0.900368 0.461062
vt 0.938026 0.461570
vt 0.390796 0.491626
vt 0.882975 0.443951
vt 0.747582 0.457591
vt 0.770399 0.497194
vt 0.705291 0.459943
vt 0.357617 0.463957
vt 0.805060 0.450554
vt 0.765956 0.430297
vt 0.912426 0.428086
vt 0.737206 0.424360
vt 0.286057 0.448770
vt 0.255080 0.448088
vt 0.873055 0.371715
vt 0.950839 0.370531
vt 0.961202 0.278797
vt 0.912128 0.363746
vt 0.914707 0.275979
vt 0.881129 0.277790
vt 0.684655 0.370381
vt 0.721691 0.267940
vt 0.727644 0.362490
vt 0.767948 0.268793
vt 0.771654 0.365972
vt 0.254988 0.392432
vt 0.288829 0.392246
vt 0.316757 0.392859
vt 0.239547 0.445729
vt 0.316940 0.450804
vt 0.331842 0.446994
vt 0.342805 0.393630
vt 0.230564 0.391867
vt 0.981559 0.371671
vt 0.201542 0.406699
vt 0.658227 0.365454
vt 0.368816 0.407934
vt 0.253301 0.337542
vt 0.223429 0.337331
vt 0.323516 0.338995
vt 0.290624 0.333427
vt 0.183721 0.347456
vt 0.390658 0.350738
vt 0.988739 0.286478
vt 0.652766 0.282735
vt 0.674350 0.267681
vt 0.809019 0.272221
vt 0.805489 0.375838
vt 0.846005 0.275981
vt 0.843279 0.466744
vt 0.600141 0.354607
vt 0.545364 0.435341
vt 0.557939 0.355623
vt 0.614703 0.434305
vt 0.610777 0.352341
vt 0.624812 0.435589
vt 0.547356 0.353627
vt 0.535321 0.436685
vt 0.184717 0.491996
vt 0.119554 0.453730
vt 0.461715 0.465491
vt 0.843005 0.374562
vt 0.155020 0.428588
vt 0.416388 0.441334
vt 0.766878 0.704833
vt 0.755825 0.565046
vt 0.793620 0.625784
vt 0.784453 0.743038
vt 0.747788 0.562620
vt 0.830461 0.632950
vt 0.829653 0.619091
vt 0.863206 0.643182
vt 0.829653 0.565679
vt 0.830788 0.551836
vt 0.863867 0.542405
vt 0.899216 0.658039
vt 0.862860 0.594057
vt 0.903516 0.593697
vt 0.902614 0.521270
vt 0.443417 0.363307
vt 0.498806 0.375606
vt 0.085076 0.362630
vt 0.538868 0.516425
vt 0.620780 0.516715
vt 0.631232 0.517665
vt 0.882922 0.157559
vt 0.995262 0.157989
vt 0.351248 0.341423
vt 0.335943 0.239487
vt 0.367262 0.241532
vt 0.643106 0.162308
vt 0.669243 0.141031
vt 0.250532 0.237437
vt 0.300578 0.230895
vt 0.918443 0.152173
vt 0.534468 0.610619
vt 0.759259 0.153565
vt 0.472751 0.252469
vt 0.534110 0.268181
vt 0.720635 0.149575
vt 0.141708 0.351294
vt 0.058101 0.252641
vt 0.116232 0.242000
vt 0.805241 0.142997
vt 0.171425 0.241260
vt 0.215903 0.235096
vt 0.527579 0.517235
vt 0.519758 0.613539
vt 0.965978 0.153951
vt 0.408426 0.249354
vt 0.623472 0.611019
vt 0.639331 0.031492
vt 0.660304 0.007772
vt 0.249445 0.116906
vt 0.312022 0.105668
vt 0.351394 0.116368
vt 0.385251 0.115938
vt 0.748239 0.028148
vt 0.809019 0.000354
vt 0.887947 0.027410
vt 0.927924 0.015700
vt 0.848256 0.145054
vt 0.972657 0.009255
vt 0.563573 0.140806
vt 0.713771 0.016279
vt 0.017942 0.123656
vt 0.081598 0.114348
vt 0.164891 0.115107
vt 0.211207 0.111927
vt 0.632049 0.801384
vt 0.643046 0.614634
vt 0.655280 0.704057
vt 0.428139 0.122774
vt 0.525107 0.801771
vt 0.992932 0.019219
vt 0.892626 0.772463
vt 0.831919 0.723261
vt 0.892626 0.668529
vt 0.890132 0.675075
vt 0.831119 0.764494
vt 0.831112 0.711523
vt 0.251865 0.797038
vt 0.246032 0.847497
vt 0.232314 0.797635
vt 0.323630 0.616072
vt 0.290710 0.592806
vt 0.347263 0.594819
vt 0.132955 0.630542
vt 0.153504 0.588693
vt 0.167818 0.609677
vt 0.207832 0.589526
vt 0.279538 0.614499
vt 0.204745 0.562866
vt 0.375897 0.656043
vt 0.347563 0.667247
vt 0.093100 0.666899
vt 0.102382 0.604757
vt 0.376609 0.677511
vt 0.416947 0.670549
vt 0.062769 0.671618
vt 0.067651 0.653926
vt 0.116025 0.745935
vt 0.064931 0.780344
vt 0.093350 0.742250
vt 0.337947 0.739470
vt 0.378901 0.776285
vt 0.273480 0.733044
vt 0.338434 0.734228
vt 0.306201 0.737825
vt 0.323417 0.720778
vt 0.116568 0.747768
vt 0.154617 0.744378
vt 0.154967 0.750911
vt 0.143775 0.724600
vt 0.020554 0.661205
vt 0.350861 0.737855
vt 0.093781 0.674649
vt 0.160386 0.628769
vt 0.148346 0.688779
vt 0.407913 0.814873
vt 0.383623 0.858677
vt 0.402807 0.810814
vt 0.309228 0.799827
vt 0.275731 0.841888
vt 0.273181 0.789917
vt 0.015014 0.807244
vt 0.006514 0.861013
vt 0.004458 0.803280
vt 0.260240 0.847063
vt 0.123770 0.806738
vt 0.135769 0.859999
vt 0.111399 0.863098
vt 0.356609 0.805873
vt 0.317422 0.847515
vt 0.330550 0.797659
vt 0.023214 0.864479
vt 0.206777 0.803921
vt 0.207976 0.852856
vt 0.156144 0.806643
vt 0.198056 0.848147
vt 0.174261 0.854669
vt 0.371446 0.805774
vt 0.341888 0.855066
vt 0.365457 0.855758
vt 0.191879 0.796847
vt 0.301927 0.849090
vt 0.147016 0.813759
vt 0.157714 0.863078
vt 0.268710 0.617984
vt 0.301247 0.619464
vt 0.318029 0.670724
vt 0.364792 0.687743
vt 0.312812 0.697420
vt 0.349295 0.723101
vt 0.331492 0.723111
vt 0.131963 0.731539
vt 0.093452 0.725618
vt 0.073233 0.677640
vt 0.215956 0.599032
vt 0.186272 0.613618
vt 0.501848 0.703660
vt 0.177681 0.111480
vt 0.160230 0.047442
vt 0.171896 0.039310
vt 0.202015 0.110607
vt 0.247425 0.044850
vt 0.248618 0.116682
vt 0.313333 0.105459
vt 0.357245 0.044204
vt 0.350758 0.116076
vt 0.386857 0.114525
vt 0.436053 0.048773
vt 0.424776 0.120367
vt 0.452518 0.044831
vt 0.763036 0.529808
vt 0.843005 0.000360
vt 0.520007 0.122457
vt 0.818489 0.762097
vt 0.890132 0.765112
vt 0.153361 0.750652
vt 0.274606 0.729465
vt 0.390912 0.863078
vt 0.141772 0.803280
vt 0.197806 0.038382
vt 0.316467 0.032900
vt 0.404569 0.041778
s 0
usemtl HangingJacket
f 32/1/1 1/2/1 4/3/1
f 1/2/2 31/4/2 4/3/2
f 19/5/3 31/4/3 20/6/3
f 27/7/4 32/1/4 26/8/4
f 4/3/5 29/9/5 3/10/5
f 30/11/6 4/3/6 3/10/6
f 29/9/7 18/12/7 17/13/7
f 26/8/8 30/11/8 25/14/8
f 3/15/9 34/16/9 2/17/9
f 33/18/10 3/15/10 2/17/10
f 30/19/11 35/20/11 25/21/11
f 33/18/12 35/20/12 30/19/12
f 29/22/13 17/23/13 36/24/13
f 34/16/14 29/22/14 36/24/14
f 42/25/15 34/16/15 36/24/15
f 36/26/16 37/27/16 42/28/16
f 35/20/17 81/29/17 25/21/17
f 37/27/18 36/26/18 41/30/18
f 38/31/19 35/32/19 43/33/19
f 35/20/20 33/18/20 43/34/20
f 81/35/21 35/32/21 44/36/21
f 35/32/22 38/31/22 44/36/22
f 40/37/23 37/27/23 41/30/23
f 40/37/24 42/28/24 37/27/24
f 39/38/25 38/31/25 43/33/25
f 39/38/26 44/36/26 38/31/26
f 5/39/27 33/18/27 2/17/27
f 5/39/28 34/16/28 45/40/28
f 57/41/29 40/37/29 41/30/29
f 40/37/30 56/42/30 42/28/30
f 55/43/31 49/44/31 50/45/31
f 49/44/32 58/46/32 50/45/32
f 54/47/33 48/48/33 47/49/33
f 52/50/34 47/49/34 48/48/34
f 39/38/35 51/51/35 44/36/35
f 54/47/36 39/38/36 43/33/36
f 5/39/37 60/52/37 6/53/37
f 59/54/38 5/39/38 6/53/38
f 45/40/39 34/16/39 64/55/39
f 42/25/40 64/55/40 34/16/40
f 46/56/41 63/57/41 33/18/41
f 43/34/42 33/18/42 63/57/42
f 63/57/43 59/54/43 62/58/43
f 60/52/44 64/55/44 61/59/44
f 56/42/45 65/60/45 42/28/45
f 64/55/46 42/25/46 65/61/46
f 64/55/47 65/61/47 61/59/47
f 54/47/48 43/33/48 66/62/48
f 63/57/49 66/63/49 43/34/49
f 63/57/50 62/58/50 66/63/50
f 70/64/51 61/59/51 67/65/51
f 69/66/52 62/58/52 59/54/52
f 6/53/53 70/64/53 7/67/53
f 69/66/54 6/53/54 7/67/54
f 72/68/55 61/59/55 65/61/55
f 62/58/56 71/69/56 66/63/56
f 72/70/57 56/42/57 55/43/57
f 54/47/58 71/71/58 53/72/58
f 51/51/59 74/73/59 73/74/59
f 57/41/60 76/75/60 58/46/60
f 41/30/61 36/26/61 82/76/61
f 78/77/62 79/78/62 77/79/62
f 80/80/63 25/81/63 24/82/63
f 17/83/64 79/78/64 16/84/64
f 36/24/65 17/23/65 82/85/65
f 17/23/66 16/86/66 82/85/66
f 25/21/67 81/29/67 24/87/67
f 44/36/68 51/51/68 81/35/68
f 51/51/69 73/74/69 81/35/69
f 57/41/70 41/30/70 82/76/70
f 75/88/71 57/41/71 82/76/71
f 75/89/72 82/85/72 16/86/72
f 24/87/73 81/29/73 73/90/73
f 1/2/74 85/91/74 20/6/74
f 1/2/75 87/92/75 83/93/75
f 19/5/76 85/91/76 84/94/76
f 27/7/77 87/92/77 28/95/77
f 25/14/78 27/7/78 26/8/78
f 19/5/79 17/13/79 18/12/79
f 25/96/80 78/97/80 86/98/80
f 77/99/81 17/100/81 84/101/81
f 87/102/82 88/103/82 83/104/82
f 86/98/83 88/103/83 87/102/83
f 85/105/84 83/104/84 88/103/84
f 84/101/85 85/105/85 88/103/85
f 86/98/86 78/97/86 88/103/86
f 84/101/87 88/103/87 77/99/87
f 78/97/88 77/99/88 88/103/88
f 24/87/89 74/106/89 23/107/89
f 15/108/90 75/89/90 16/86/90
f 89/109/91 16/84/91 79/78/91
f 90/110/92 24/82/92 23/111/92
f 90/110/93 79/78/93 80/80/93
f 76/75/94 94/112/94 58/46/94
f 55/43/95 100/113/95 72/70/95
f 68/114/96 97/115/96 96/116/96
f 53/72/97 99/117/97 92/118/97
f 7/67/98 98/119/98 22/120/98
f 58/46/99 8/121/99 50/45/99
f 90/110/100 103/122/100 89/109/100
f 7/67/101 97/115/101 69/66/101
f 48/48/102 91/123/102 52/50/102
f 23/107/103 101/124/103 10/125/103
f 53/72/104 9/126/104 48/48/104
f 76/127/105 14/128/105 102/129/105
f 74/73/106 91/123/106 101/130/106
f 67/65/107 100/131/107 95/132/107
f 15/133/108 103/122/108 14/134/108
f 50/45/109 93/135/109 55/43/109
f 68/114/110 99/136/110 71/69/110
f 23/111/111 104/137/111 90/110/111
f 67/65/112 98/119/112 70/64/112
f 92/118/113 114/138/113 107/139/113
f 22/120/114 113/140/114 105/141/114
f 96/116/115 112/142/115 111/143/115
f 101/130/116 106/144/116 116/145/116
f 8/121/117 109/146/117 21/147/117
f 102/148/118 109/146/118 94/112/118
f 95/132/119 113/140/119 98/119/119
f 93/135/120 21/147/120 108/149/120
f 101/124/121 12/150/121 10/125/121
f 92/118/122 13/151/122 9/126/122
f 102/129/123 11/152/123 117/153/123
f 9/126/124 106/144/124 91/123/124
f 95/132/125 115/154/125 110/155/125
f 141/156/126 10/157/126 12/158/126
f 96/116/127 114/159/127 99/136/127
f 104/137/128 140/160/128 103/122/128
f 93/135/129 115/161/129 100/113/129
f 22/120/130 112/142/130 97/115/130
f 116/162/131 13/163/131 107/164/131
f 117/165/132 21/166/132 109/167/132
f 125/168/133 144/169/133 124/170/133
f 123/171/134 134/172/134 133/173/134
f 124/174/135 136/175/135 125/176/135
f 120/177/136 134/172/136 126/178/136
f 120/177/137 136/175/137 137/179/137
f 123/171/138 138/180/138 128/181/138
f 127/182/139 135/183/139 124/174/139
f 122/184/140 138/180/140 108/185/140
f 121/186/141 139/187/141 127/182/141
f 119/188/142 116/189/142 129/190/142
f 118/191/143 117/192/143 11/193/143
f 118/194/144 140/195/144 131/196/144
f 119/197/145 141/198/145 12/199/145
f 132/200/146 140/195/146 141/198/146
f 129/190/147 107/201/147 121/186/147
f 130/202/148 108/185/148 117/192/148
f 148/203/149 144/204/149 156/205/149
f 118/206/150 154/207/150 130/208/150
f 126/209/151 146/210/151 120/211/151
f 131/212/152 153/213/152 118/214/152
f 125/168/153 146/210/153 145/215/153
f 132/216/154 151/217/154 156/218/154
f 128/219/155 142/220/155 123/221/155
f 131/212/156 156/218/156 155/222/156
f 127/223/157 144/169/157 148/224/157
f 129/225/158 150/226/158 152/227/158
f 122/228/159 147/229/159 128/219/159
f 122/228/160 154/207/160 149/230/160
f 127/223/161 150/226/161 121/231/161
f 126/209/162 142/220/162 143/232/162
f 119/233/163 152/227/163 151/234/163
f 143/235/164 142/236/164 147/237/164
f 147/237/165 149/238/165 155/239/165
f 149/238/166 154/240/166 155/239/166
f 154/240/167 153/241/167 155/239/167
f 156/205/168 151/242/168 152/243/168
f 156/205/169 152/243/169 148/203/169
f 152/243/170 150/244/170 148/203/170
f 147/237/171 155/239/171 143/235/171
f 155/239/172 156/205/172 143/235/172
f 146/245/173 143/235/173 145/246/173
f 144/204/174 145/246/174 156/205/174
f 156/205/175 145/246/175 143/235/175
f 103/122/176 11/247/176 14/134/176
f 115/248/177 108/249/177 138/250/177
f 138/250/178 110/251/178 115/248/178
f 110/251/179 134/252/179 113/253/179
f 134/252/180 105/254/180 113/253/180
f 105/254/181 136/255/181 112/256/181
f 136/255/182 111/257/182 112/256/182
f 111/257/183 139/258/183 114/259/183
f 114/259/184 139/258/184 107/260/184
f 32/1/185 28/95/185 1/2/185
f 1/2/186 20/6/186 31/4/186
f 19/5/187 18/12/187 31/4/187
f 27/7/188 28/95/188 32/1/188
f 4/3/189 31/4/189 29/9/189
f 30/11/190 32/1/190 4/3/190
f 29/9/191 31/4/191 18/12/191
f 26/8/192 32/1/192 30/11/192
f 3/15/193 29/22/193 34/16/193
f 33/18/194 30/19/194 3/15/194
f 5/39/195 46/56/195 33/18/195
f 5/39/196 2/17/196 34/16/196
f 57/41/197 49/44/197 40/37/197
f 40/37/198 49/44/198 56/42/198
f 55/43/199 56/42/199 49/44/199
f 49/44/200 57/41/200 58/46/200
f 54/47/201 53/72/201 48/48/201
f 52/50/202 51/51/202 47/49/202
f 39/38/203 47/49/203 51/51/203
f 54/47/204 47/49/204 39/38/204
f 5/39/205 45/40/205 60/52/205
f 59/54/206 46/56/206 5/39/206
f 63/57/207 46/56/207 59/54/207
f 60/52/208 45/40/208 64/55/208
f 70/64/209 60/52/209 61/59/209
f 69/66/210 68/114/210 62/58/210
f 6/53/211 60/52/211 70/64/211
f 69/66/212 59/54/212 6/53/212
f 72/68/213 67/65/213 61/59/213
f 62/58/214 68/114/214 71/69/214
f 72/70/215 65/60/215 56/42/215
f 54/47/216 66/62/216 71/71/216
f 51/51/217 52/50/217 74/73/217
f 57/41/218 75/88/218 76/75/218
f 78/77/62 80/80/62 79/78/62
f 80/80/219 78/77/219 25/81/219
f 17/83/220 77/79/220 79/78/220
f 1/2/74 83/93/74 85/91/74
f 1/2/75 28/95/75 87/92/75
f 19/5/76 20/6/76 85/91/76
f 27/7/77 86/261/77 87/92/77
f 25/14/221 86/261/221 27/7/221
f 19/5/222 84/94/222 17/13/222
f 24/87/223 73/90/223 74/106/223
f 15/108/224 76/127/224 75/89/224
f 89/109/225 15/133/225 16/84/225
f 90/110/226 80/80/226 24/82/226
f 90/110/93 89/109/93 79/78/93
f 76/75/227 102/148/227 94/112/227
f 55/43/228 93/135/228 100/113/228
f 68/114/229 69/66/229 97/115/229
f 53/72/230 71/71/230 99/117/230
f 7/67/231 70/64/231 98/119/231
f 58/46/232 94/112/232 8/121/232
f 90/110/233 104/137/233 103/122/233
f 7/67/234 22/120/234 97/115/234
f 48/48/235 9/126/235 91/123/235
f 23/107/236 74/106/236 101/124/236
f 53/72/237 92/118/237 9/126/237
f 76/127/238 15/108/238 14/128/238
f 74/73/239 52/50/239 91/123/239
f 67/65/240 72/68/240 100/131/240
f 15/133/241 89/109/241 103/122/241
f 50/45/242 8/121/242 93/135/242
f 68/114/243 96/116/243 99/136/243
f 23/111/244 10/157/244 104/137/244
f 67/65/245 95/132/245 98/119/245
f 92/118/246 99/117/246 114/138/246
f 22/120/247 98/119/247 113/140/247
f 96/116/248 97/115/248 112/142/248
f 101/130/249 91/123/249 106/144/249
f 8/121/232 94/112/232 109/146/232
f 102/148/250 117/262/250 109/146/250
f 95/132/251 110/155/251 113/140/251
f 93/135/252 8/121/252 21/147/252
f 101/124/253 116/263/253 12/150/253
f 92/118/254 107/139/254 13/151/254
f 102/129/255 14/128/255 11/152/255
f 9/126/256 13/151/256 106/144/256
f 95/132/257 100/131/257 115/154/257
f 141/156/258 104/137/258 10/157/258
f 96/116/259 111/143/259 114/159/259
f 104/137/260 141/156/260 140/160/260
f 93/135/261 108/149/261 115/161/261
f 22/120/262 105/141/262 112/142/262
f 116/162/263 106/264/263 13/163/263
f 117/165/264 108/265/264 21/166/264
f 125/168/133 145/215/133 144/169/133
f 123/171/265 126/178/265 134/172/265
f 124/174/266 135/183/266 136/175/266
f 120/177/267 137/179/267 134/172/267
f 120/177/268 125/176/268 136/175/268
f 123/171/269 133/173/269 138/180/269
f 127/182/270 139/187/270 135/183/270
f 122/184/271 128/181/271 138/180/271
f 121/186/272 107/201/272 139/187/272
f 119/188/273 12/266/273 116/189/273
f 118/191/274 130/202/274 117/192/274
f 118/194/275 11/267/275 140/195/275
f 119/197/276 132/200/276 141/198/276
f 132/200/277 131/196/277 140/195/277
f 129/190/278 116/189/278 107/201/278
f 130/202/279 122/184/279 108/185/279
f 118/206/280 153/268/280 154/207/280
f 126/209/151 143/232/151 146/210/151
f 131/212/281 155/222/281 153/213/281
f 125/168/153 120/211/153 146/210/153
f 132/216/282 119/269/282 151/217/282
f 128/219/283 147/229/283 142/220/283
f 131/212/284 132/216/284 156/218/284
f 127/223/285 124/170/285 144/169/285
f 129/225/158 121/231/158 150/226/158
f 122/228/286 149/230/286 147/229/286
f 122/228/287 130/208/287 154/207/287
f 127/223/288 148/224/288 150/226/288
f 126/209/162 123/221/162 142/220/162
f 119/233/289 129/225/289 152/227/289
f 103/122/290 140/160/290 11/247/290
f 138/250/178 133/270/178 110/251/178
f 110/251/179 133/270/179 134/252/179
f 134/252/180 137/271/180 105/254/180
f 105/254/181 137/271/181 136/255/181
f 136/255/291 135/272/291 111/257/291
f 111/257/292 135/272/292 139/258/292
