# Blender 5.0.1
# www.blender.org
mtllib Sink01.mtl
o Sink01
v 0.032291 0.999356 -0.167314
v 0.032291 1.034774 -0.167314
v 0.032291 0.999356 -0.202731
v 0.032291 1.034774 -0.202731
v 0.067709 0.999356 -0.167314
v 0.067709 1.034774 -0.167314
v 0.067709 0.999356 -0.202731
v 0.067709 1.034774 -0.202731
v -0.067709 0.999356 -0.167314
v -0.067709 1.034774 -0.167314
v -0.067709 0.999356 -0.202731
v -0.067709 1.034774 -0.202731
v -0.032291 0.999356 -0.167314
v -0.032291 1.034774 -0.167314
v -0.032291 0.999356 -0.202731
v -0.032291 1.034774 -0.202731
v -0.000000 0.996895 -0.206954
v -0.023730 0.996895 -0.189713
v -0.014666 0.996895 -0.161816
v 0.014666 0.996895 -0.161816
v 0.023730 0.996895 -0.189713
v -0.000000 1.057179 -0.206954
v -0.023730 1.057179 -0.189713
v -0.014666 1.057179 -0.161816
v 0.014666 1.057179 -0.161816
v 0.023730 1.057179 -0.189713
v -0.014666 1.048927 -0.161816
v 0.014666 1.048927 -0.161816
v -0.014666 1.028929 -0.161816
v 0.014666 1.028929 -0.161816
v -0.014666 1.048927 -0.075230
v 0.014666 1.048927 -0.075230
v -0.014666 1.028929 -0.075230
v 0.014666 1.028929 -0.075230
v -0.129993 0.915498 0.005564
v -0.129993 0.915498 -0.126964
v 0.129993 0.915498 -0.126964
v 0.129993 0.915498 0.005564
v -0.167960 0.863622 -0.151563
v 0.167960 0.863622 -0.151563
v -0.167960 0.863622 -0.208609
v 0.167960 0.863622 -0.208609
v -0.106440 0.863622 0.060034
v -0.167960 0.863622 -0.002740
v 0.167960 0.863622 -0.002740
v 0.106440 0.863622 0.060034
v -0.163397 0.998251 -0.136978
v 0.163397 0.998251 -0.136978
v -0.163397 0.998251 0.027044
v -0.120186 0.998251 0.077846
v 0.120186 0.998251 0.077846
v 0.163397 0.998251 0.027044
v -0.196320 0.984335 -0.159031
v -0.182867 0.999727 -0.160000
v 0.182867 0.999727 -0.160000
v 0.196320 0.984335 -0.159031
v -0.196318 0.984326 -0.208609
v -0.183674 1.000000 -0.208609
v 0.183674 1.000000 -0.208609
v 0.196318 0.984326 -0.208609
v -0.182853 0.999180 0.033977
v -0.196326 0.984362 0.035176
v -0.134809 0.984380 0.097956
v -0.128551 0.999050 0.089284
v 0.128551 0.999050 0.089284
v 0.134809 0.984380 0.097956
v 0.196326 0.984362 0.035176
v 0.182853 0.999180 0.033977
v -0.049721 0.812725 -0.207977
v 0.049721 0.812725 -0.207977
v -0.031509 0.812725 -0.128451
v -0.049721 0.812725 -0.147034
v 0.049721 0.812725 -0.147034
v 0.031509 0.812725 -0.128451
vn -1.0000 -0.0000 -0.0000
vn -0.0000 -0.0000 -1.0000
vn 1.0000 -0.0000 -0.0000
vn -0.0000 -0.0000 1.0000
vn -0.0000 1.0000 -0.0000
vn 0.9511 -0.0000 0.3090
vn -0.9511 -0.0000 0.3090
vn 0.5878 -0.0000 -0.8090
vn -0.5878 -0.0000 -0.8090
vn -0.0000 -1.0000 -0.0000
vn -0.0000 -0.9654 0.2607
vn -0.6879 0.4295 -0.5851
vn 0.6879 0.4295 -0.5851
vn 0.3954 -0.9185 -0.0000
vn -0.9273 0.3743 -0.0000
vn -0.0000 0.6578 -0.7531
vn -0.0000 0.1201 0.9928
vn 0.9273 0.3743 -0.0000
vn 0.7782 0.6278 0.0164
vn -0.7530 0.6581 -0.0001
vn -0.5835 0.5768 0.5716
vn 0.5788 0.5836 0.5696
vn -0.7399 0.6727 -0.0001
vn -0.0000 0.5088 0.8609
vn 0.7529 0.6581 0.0019
vn -0.0000 1.0000 0.0056
vn -0.0000 0.9979 0.0640
vn -0.9735 -0.2287 -0.0000
vn 0.0477 0.9989 -0.0000
vn 0.9735 -0.2287 -0.0000
vn -0.0478 0.9989 -0.0000
vn 0.1890 -0.9643 0.1853
vn 0.0360 0.9988 -0.0330
vn -0.6659 -0.3614 0.6526
vn -0.0000 -0.2996 0.9541
vn -0.0000 0.9976 -0.0698
vn -0.0360 0.9988 -0.0330
vn 0.6659 -0.3614 0.6526
vn -0.3954 -0.9185 -0.0000
vn -0.1890 -0.9643 0.1853
vn 0.7530 0.6581 -0.0001
vn -0.7782 0.6278 0.0164
vn -0.5788 0.5836 0.5696
vn 0.5835 0.5768 0.5716
vn -0.7529 0.6581 0.0019
vn 0.7399 0.6727 -0.0001
vn 0.0723 0.9974 0.0028
vn -0.0723 0.9974 0.0028
vn 0.0441 0.9983 -0.0375
vn -0.0441 0.9983 -0.0375
vt 0.573442 0.849379
vt 0.618111 0.894114
vt 0.573442 0.894090
vt 0.106527 0.839295
vt 0.151241 0.884010
vt 0.106527 0.884010
vt 0.690879 0.849403
vt 0.735547 0.894090
vt 0.690879 0.894114
vt 0.888581 0.773408
vt 0.933243 0.728694
vt 0.933243 0.773408
vt 0.455916 0.849379
vt 0.500629 0.894093
vt 0.455916 0.894093
vt 0.770056 0.877617
vt 0.814725 0.922352
vt 0.770056 0.922328
vt 0.397152 0.849378
vt 0.441866 0.894093
vt 0.397152 0.894093
vt 0.632160 0.849403
vt 0.676829 0.894090
vt 0.632160 0.894114
vt 0.106526 0.942774
vt 0.151189 0.898059
vt 0.151189 0.942774
vt 0.514679 0.849379
vt 0.559393 0.894093
vt 0.514679 0.894093
vt 0.007025 0.839295
vt 0.042726 0.915518
vt 0.007025 0.915399
vt 0.056776 0.839415
vt 0.092477 0.915399
vt 0.056776 0.915518
vt 0.800016 0.787458
vt 0.829975 0.863567
vt 0.800016 0.863567
vt 0.300400 0.827135
vt 0.337432 0.903155
vt 0.300400 0.903155
vt 0.770056 0.787458
vt 0.770056 0.863567
vt 0.190069 0.838579
vt 0.247055 0.857094
vt 0.225288 0.887053
vt 0.895107 0.787472
vt 0.920352 0.896661
vt 0.895107 0.896675
vt 0.844025 0.896772
vt 0.881057 0.787458
vt 0.881057 0.896772
vt 0.261105 0.827135
vt 0.286350 0.936352
vt 0.261105 0.936338
vt 0.871850 0.289546
vt 0.908882 0.398661
vt 0.871850 0.398661
vt 0.376699 0.827135
vt 0.351481 0.864167
vt 0.351481 0.827135
vt 0.190069 0.484852
vt 0.357384 0.813085
vt 0.190069 0.813085
vt 0.738786 0.353455
vt 0.497370 0.179294
vt 0.738786 0.084695
vt 0.975732 0.068631
vt 0.871850 0.097943
vt 0.976244 0.007025
vt 0.888581 0.445175
vt 0.992975 0.536093
vt 0.889093 0.506780
vt 0.397152 0.156302
vt 0.472134 0.007025
vt 0.473952 0.156302
vt 0.976244 0.275497
vt 0.872264 0.265089
vt 0.874532 0.445175
vt 0.770056 0.761026
vt 0.770056 0.457557
vt 0.857800 0.377430
vt 0.752836 0.007025
vt 0.857800 0.049196
vt 0.888581 0.713646
vt 0.992562 0.703239
vt 0.569407 0.507193
vt 0.549960 0.445175
vt 0.569555 0.445840
vt 0.583751 0.507192
vt 0.603199 0.445175
vt 0.602974 0.507702
vt 0.602742 0.835329
vt 0.583604 0.751840
vt 0.602101 0.752636
vt 0.550417 0.835329
vt 0.569555 0.751840
vt 0.568805 0.824697
vt 0.026054 0.825246
vt 0.007025 0.492753
vt 0.026054 0.484852
vt 0.550185 0.507702
vt 0.068390 0.469784
vt 0.007025 0.007025
vt 0.068390 0.008043
vt 0.097445 0.032625
vt 0.755118 0.706875
vt 0.756007 0.447233
vt 0.755760 0.519178
vt 0.313279 0.008062
vt 0.304520 0.032625
vt 0.398041 0.706875
vt 0.397399 0.519178
vt 0.313279 0.469765
vt 0.097445 0.445202
vt 0.304520 0.445202
vt 0.397152 0.447233
vt 0.659680 0.007025
vt 0.383103 0.076618
vt 0.755781 0.789561
vt 0.176019 0.789429
vt 0.368656 0.390648
vt 0.383103 0.401209
vt 0.397378 0.789561
vt 0.551058 0.752636
vt 0.397152 0.281848
vt 0.472134 0.431125
vt 0.400247 0.431125
vt 0.400247 0.007025
vt 0.659680 0.431125
vt 0.497370 0.258855
vt 0.473952 0.281848
vt 0.618111 0.849403
vt 0.151241 0.839295
vt 0.735547 0.849379
vt 0.888581 0.728694
vt 0.500629 0.849379
vt 0.814725 0.877641
vt 0.441866 0.849378
vt 0.676829 0.849379
vt 0.106526 0.898059
vt 0.559393 0.849379
vt 0.042726 0.839415
vt 0.092477 0.839295
vt 0.829975 0.787458
vt 0.337432 0.827135
vt 0.190069 0.875610
vt 0.225288 0.827135
vt 0.920352 0.787458
vt 0.844025 0.787458
vt 0.286350 0.827149
vt 0.908882 0.289546
vt 0.376699 0.864167
vt 0.357384 0.484852
vt 0.874532 0.773408
vt 0.752836 0.419601
vt 0.583604 0.445840
vt 0.584354 0.824697
vt 0.007025 0.817344
vt 0.007025 0.470802
vt 0.368656 0.087178
vt 0.176019 0.520669
s 0
usemtl Porcelain
f 36/63/5 38/64/5 37/65/5
f 43/66/11 74/67/11 46/68/11
f 52/69/12 38/70/12 51/71/12
f 50/72/13 35/73/13 49/74/13
f 70/75/14 40/76/14 73/77/14
f 38/70/15 48/78/15 37/79/15
f 38/80/16 50/81/16 51/82/16
f 37/83/17 47/84/17 36/85/17
f 47/86/18 35/73/18 36/87/18
f 55/88/19 60/89/19 59/90/19
f 54/91/20 57/92/20 53/93/20
f 63/94/21 61/95/21 62/96/21
f 66/97/22 68/98/22 65/99/22
f 61/95/23 53/93/23 62/96/23
f 66/100/24 64/101/24 63/102/24
f 68/98/25 56/103/25 55/88/25
f 55/104/26 58/105/26 54/106/26
f 47/107/27 55/104/27 54/106/27
f 53/93/28 44/108/28 62/96/28
f 53/93/28 41/109/28 39/110/28
f 47/107/29 61/111/29 49/112/29
f 56/103/30 45/113/30 40/114/30
f 68/115/31 48/116/31 52/117/31
f 56/103/30 42/118/30 60/89/30
f 45/119/32 74/67/32 73/77/32
f 64/120/33 49/112/33 61/111/33
f 43/121/34 62/96/34 44/108/34
f 63/102/35 46/122/35 66/100/35
f 51/123/36 64/120/36 65/124/36
f 52/117/37 65/124/37 68/115/37
f 46/125/38 67/126/38 66/97/38
f 69/127/39 39/128/39 41/129/39
f 70/75/14 42/130/14 40/76/14
f 44/131/40 71/132/40 43/66/40
f 69/127/39 72/133/39 39/128/39
f 44/131/39 39/128/39 72/133/39
f 45/119/14 73/77/14 40/76/14
f 71/132/10 69/127/10 73/77/10
f 36/63/5 35/155/5 38/64/5
f 43/66/11 71/132/11 74/67/11
f 38/70/15 52/69/15 48/78/15
f 38/80/16 35/156/16 50/81/16
f 37/83/17 48/157/17 47/84/17
f 47/86/18 49/74/18 35/73/18
f 55/88/41 56/103/41 60/89/41
f 54/91/42 58/158/42 57/92/42
f 63/94/43 64/159/43 61/95/43
f 66/97/44 67/126/44 68/98/44
f 61/95/45 54/91/45 53/93/45
f 66/100/24 65/160/24 64/101/24
f 68/98/46 67/126/46 56/103/46
f 55/104/26 59/161/26 58/105/26
f 47/107/27 48/116/27 55/104/27
f 53/93/28 39/110/28 44/108/28
f 53/93/28 57/92/28 41/109/28
f 47/107/47 54/106/47 61/111/47
f 56/103/30 67/126/30 45/113/30
f 68/115/48 55/104/48 48/116/48
f 56/103/30 40/114/30 42/118/30
f 45/119/32 46/68/32 74/67/32
f 64/120/49 50/162/49 49/112/49
f 43/121/34 63/94/34 62/96/34
f 63/102/35 43/163/35 46/122/35
f 51/123/36 50/162/36 64/120/36
f 52/117/50 51/123/50 65/124/50
f 46/125/38 45/113/38 67/126/38
f 44/131/40 72/133/40 71/132/40
f 73/77/10 74/67/10 71/132/10
f 71/132/10 72/133/10 69/127/10
f 69/127/10 70/75/10 73/77/10
usemtl Metal
f 2/1/1 3/2/1 1/3/1
f 4/4/2 7/5/2 3/6/2
f 8/7/3 5/8/3 7/9/3
f 6/10/4 1/11/4 5/12/4
f 4/13/5 6/14/5 8/15/5
f 10/16/1 11/17/1 9/18/1
f 12/19/2 15/20/2 11/21/2
f 16/22/3 13/23/3 15/24/3
f 14/25/4 9/26/4 13/27/4
f 12/28/5 14/29/5 16/30/5
f 26/31/6 20/32/6 21/33/6
f 24/34/7 18/35/7 19/36/7
f 22/37/8 21/38/8 17/39/8
f 25/40/4 19/41/4 20/42/4
f 23/43/9 17/39/9 18/44/9
f 24/45/5 26/46/5 22/47/5
f 33/48/1 27/49/1 29/50/1
f 27/51/5 32/52/5 28/53/5
f 32/54/3 30/55/3 28/56/3
f 34/57/10 29/58/10 30/59/10
f 33/60/4 32/61/4 31/62/4
f 2/1/1 4/134/1 3/2/1
f 4/4/2 8/135/2 7/5/2
f 8/7/3 6/136/3 5/8/3
f 6/10/4 2/137/4 1/11/4
f 4/13/5 2/138/5 6/14/5
f 10/16/1 12/139/1 11/17/1
f 12/19/2 16/140/2 15/20/2
f 16/22/3 14/141/3 13/23/3
f 14/25/4 10/142/4 9/26/4
f 12/28/5 10/143/5 14/29/5
f 26/31/6 25/144/6 20/32/6
f 24/34/7 23/145/7 18/35/7
f 22/37/8 26/146/8 21/38/8
f 25/40/4 24/147/4 19/41/4
f 23/43/9 22/37/9 17/39/9
f 22/47/5 23/148/5 24/45/5
f 24/45/5 25/149/5 26/46/5
f 33/48/1 31/150/1 27/49/1
f 27/51/5 31/151/5 32/52/5
f 32/54/3 34/152/3 30/55/3
f 34/57/10 33/153/10 29/58/10
f 33/60/4 34/154/4 32/61/4
