# Blender 5.0.1
# www.blender.org
mtllib BootR-col.mtl
o BootR-col
v -0.146180 -0.001029 -0.048290
v -0.146180 -0.001029 0.048354
v 0.158217 -0.001029 -0.053413
v 0.149581 0.056114 -0.053413
v 0.154937 -0.001029 0.043372
v 0.146301 0.050848 0.043372
v -0.140625 0.123218 0.049090
v -0.140625 0.123218 -0.049027
v -0.004861 -0.001029 -0.056104
v 0.009877 -0.001029 0.055231
v -0.016652 0.150155 -0.056473
v -0.001914 0.147522 0.055599
vn -0.0000 -1.0000 -0.0000
vn 0.4925 0.8692 -0.0444
vn -0.9990 0.0447 -0.0000
vn 0.9859 0.1641 0.0334
vn 0.0850 0.0043 0.9964
vn -0.0584 -0.0070 -0.9983
vn 0.0165 0.0025 -0.9999
vn -0.0440 -0.0040 0.9990
vn -0.2123 0.9772 -0.0000
vn 0.5489 0.8334 0.0639
vn 0.9879 0.1493 0.0416
vn 0.0815 0.0136 0.9966
vn -0.0552 -0.0035 -0.9985
vn 0.0178 -0.0010 -0.9998
vn -0.0458 -0.0061 0.9989
vn -0.1745 0.9836 0.0461
vt 0.000000 0.000000
s 0
usemtl Boot
f 3/1/1 10/1/1 9/1/1
f 12/1/2 4/1/2 11/1/2
f 2/1/3 8/1/3 1/1/3
f 3/1/4 6/1/4 5/1/4
f 10/1/5 6/1/5 12/1/5
f 9/1/6 8/1/6 11/1/6
f 9/1/7 4/1/7 3/1/7
f 10/1/8 7/1/8 2/1/8
f 7/1/9 11/1/9 8/1/9
f 9/1/1 2/1/1 1/1/1
f 3/1/1 5/1/1 10/1/1
f 12/1/10 6/1/10 4/1/10
f 2/1/3 7/1/3 8/1/3
f 3/1/11 4/1/11 6/1/11
f 10/1/12 5/1/12 6/1/12
f 9/1/13 1/1/13 8/1/13
f 9/1/14 11/1/14 4/1/14
f 10/1/15 12/1/15 7/1/15
f 7/1/16 12/1/16 11/1/16
f 9/1/1 10/1/1 2/1/1
