# Blender 5.0.1
# www.blender.org
mtllib Hanger.mtl
o SingleHanger
v -0.008375 -0.015000 0.005000
v -0.010000 0.015000 0.005000
v -0.008375 -0.015000 -0.005000
v -0.010000 0.015000 -0.005000
v 0.008375 -0.015000 0.005000
v 0.010000 0.015000 0.005000
v 0.008375 -0.015000 -0.005000
v 0.010000 0.015000 -0.005000
v -0.004024 -0.009125 0.004076
v -0.002758 0.004402 0.012996
v -0.004024 -0.007476 0.001722
v -0.002758 0.005532 0.011382
v 0.004024 -0.009125 0.004076
v 0.002758 0.004402 0.012996
v 0.004024 -0.007476 0.001722
v 0.002758 0.005532 0.011382
vn -0.9985 -0.0541 -0.0000
vn 0.9985 -0.0541 -0.0000
vn -0.0000 -0.0000 1.0000
vn -0.0000 -1.0000 -0.0000
vn -0.0000 1.0000 -0.0000
vn -0.9970 0.0638 0.0447
vn -0.0000 0.5962 -0.8028
vn 0.9970 0.0638 0.0447
vn -0.0000 -0.5505 0.8348
vn -0.0000 0.8192 0.5736
vt 0.031250 0.078125
vt 0.015625 0.031250
vt 0.031250 0.031250
vt 0.078125 0.078125
vt 0.062500 0.031250
vt 0.078125 0.031250
vt 0.062500 0.078125
vt 0.062500 0.015625
vt 0.031250 0.015625
vt 0.031250 0.093750
vt 0.062500 0.093750
vt 0.140625 0.031250
vt 0.125000 0.062500
vt 0.125000 0.031250
vt 0.187500 0.062500
vt 0.171875 0.031250
vt 0.187500 0.031250
vt 0.171875 0.062500
vt 0.156250 0.031250
vt 0.156250 0.062500
vt 0.093750 0.046875
vt 0.109375 0.062500
vt 0.093750 0.062500
vt 0.015625 0.078125
vt 0.140625 0.062500
vt 0.109375 0.046875
s 0
usemtl 64x64grid
f 2/1/1 3/2/1 1/3/1
f 8/4/2 5/5/2 7/6/2
f 6/7/3 1/3/3 5/5/3
f 7/8/4 1/3/4 3/9/4
f 4/10/5 6/7/5 8/11/5
f 9/12/6 12/13/6 11/14/6
f 12/15/7 15/16/7 11/17/7
f 16/18/8 13/19/8 15/16/8
f 14/20/9 9/12/9 13/19/9
f 12/21/10 14/22/10 16/23/10
f 2/1/1 4/24/1 3/2/1
f 8/4/2 6/7/2 5/5/2
f 6/7/3 2/1/3 1/3/3
f 7/8/4 5/5/4 1/3/4
f 4/10/5 2/1/5 6/7/5
f 9/12/6 10/25/6 12/13/6
f 12/15/7 16/18/7 15/16/7
f 16/18/8 14/20/8 13/19/8
f 14/20/9 10/25/9 9/12/9
f 12/21/10 10/26/10 14/22/10
