# Blender 5.1.1
# www.blender.org
mtllib WoodenSpoon.mtl
o WoodenSpoon
v -0.014000 0.019587 0.093634
v 0.014000 0.019587 0.093634
v -0.011353 0.016890 -0.142100
v 0.011353 0.016890 -0.142100
v -0.015227 0.017449 0.191547
v 0.015227 0.017449 0.191547
v -0.038279 0.019587 0.126918
v -0.038279 0.019587 0.161492
v 0.038279 0.019587 0.161492
v 0.038279 0.019587 0.126918
v 0.015227 0.012287 0.126918
v 0.015227 0.012287 0.161492
v -0.015227 0.012287 0.126918
v -0.015227 0.012287 0.161492
v -0.014000 0.006520 0.093634
v 0.014000 0.006520 0.093634
v -0.011353 0.005687 -0.142100
v 0.011353 0.005687 -0.142100
v -0.015227 0.007347 0.191547
v 0.015227 0.007347 0.191547
v -0.038279 0.010042 0.126918
v -0.038279 0.010042 0.161492
v 0.038279 0.010042 0.161492
v 0.038279 0.010042 0.126918
v 0.015227 -0.000387 0.126918
v 0.015227 -0.000387 0.161492
v -0.015227 -0.000387 0.126918
v -0.015227 -0.000387 0.161492
v 0.000000 0.019587 0.093634
v 0.000000 0.022635 -0.142100
v 0.000000 0.017735 0.195787
v 0.000000 0.009608 0.126918
v 0.000000 0.009597 0.161492
v 0.000000 0.001514 0.093634
v 0.000000 -0.000058 -0.142100
v 0.000000 0.008057 0.195787
v 0.000000 -0.003059 0.126918
v 0.000000 -0.003059 0.161492
v -0.011353 0.016890 0.073866
v 0.011353 0.016890 0.073866
v -0.011353 0.005687 0.073866
v 0.011353 0.005687 0.073866
v 0.000000 0.002724 0.073866
v 0.000000 0.022635 0.073866
vn 0.4515 0.8923 -0.0000
vn -0.2979 0.9408 -0.1616
vn -0.2948 0.9310 0.2151
vn -0.3019 0.9533 -0.0000
vn 0.1662 0.9446 0.2832
vn 0.1735 0.9848 0.0001
vn 0.1738 0.9848 0.0002
vn 0.1740 0.9848 0.0003
vn 0.0460 0.9720 -0.2306
vn 0.2979 0.9408 -0.1616
vn 0.2948 0.9310 0.2151
vn 0.3019 0.9533 -0.0000
vn 0.2525 -0.9676 -0.0000
vn 0.4013 -0.8870 0.2283
vn 0.4039 -0.8927 -0.2001
vn 0.4122 -0.9111 -0.0000
vn -0.1713 -0.9761 -0.1341
vn -0.1728 -0.9850 -0.0000
vn -0.0415 -0.9505 0.3081
vn -0.4013 -0.8870 0.2283
vn -0.4039 -0.8927 -0.2001
vn -0.4122 -0.9111 -0.0000
vn -1.0000 -0.0000 -0.0000
vn 0.9912 -0.0000 -0.1327
vn -0.2682 -0.0000 0.9634
vn -0.7935 -0.0000 0.6086
vn 0.8079 -0.0000 -0.5893
vn -0.8079 -0.0000 -0.5893
vn 0.7935 -0.0000 0.6086
vn 1.0000 -0.0000 -0.0000
vn 0.2682 -0.0000 0.9634
vn 0.1675 -0.9548 0.2457
vn 0.1728 -0.9850 -0.0000
vn 0.3297 -0.9219 -0.2035
vn -0.2525 -0.9676 -0.0000
vn -0.0460 0.9720 -0.2306
vn -0.1738 0.9848 0.0002
vn -0.1740 0.9848 0.0003
vn -0.1662 0.9446 0.2832
vn -0.4515 0.8923 -0.0000
vn -0.0000 0.9908 -0.1352
vn -0.3367 -0.9416 -0.0054
vn -0.9912 -0.0000 -0.1327
vn 0.3367 -0.9416 -0.0054
vn 0.4473 0.8839 0.1363
vn -0.0000 -0.0000 -1.0000
vn -0.0000 0.9768 0.2142
vn 0.1733 0.9849 -0.0000
vn 0.1715 0.9710 -0.1668
vn 0.4515 -0.8922 0.0115
vn -0.3297 -0.9219 -0.2035
vn -0.1675 -0.9548 0.2457
vn 0.0415 -0.9505 0.3081
vn 0.1713 -0.9761 -0.1341
vn -0.4515 -0.8922 0.0115
vn -0.1715 0.9710 -0.1668
vn -0.1733 0.9849 -0.0000
vn -0.4473 0.8839 0.1363
vn -0.2521 -0.9659 -0.0591
vn 0.2521 -0.9659 -0.0591
vt 0.500000 0.500000
vt 0.375000 1.000000
vt 0.375000 0.500000
vt 0.375000 0.125000
vt 0.250000 0.125000
vt 0.250000 -0.000000
vt 0.250000 0.375000
vt 0.250000 0.250000
vt 0.375000 0.250000
vt 0.125000 0.250000
vt 0.125000 0.125000
vt 0.125000 -0.000000
vt 0.000000 0.125000
vt 0.125000 0.375000
vt 0.000000 0.250000
vt 0.750000 0.500000
vt 0.625000 1.000000
vt 0.625000 0.500000
vt 0.750000 0.125000
vt 0.625000 -0.000000
vt 0.625000 0.125000
vt 0.625000 0.375000
vt 0.750000 0.250000
vt 0.625000 0.250000
vt 0.500000 0.250000
vt 0.500000 0.125000
vt 0.500000 -0.000000
vt 0.500000 0.375000
vt 0.250000 1.000000
vt 0.125000 0.500000
vt 0.250000 0.500000
vt 0.875000 0.500000
vt 1.000000 0.625000
vt 0.875000 0.625000
vt 1.000000 0.750000
vt 1.000000 0.375000
vt 1.000000 0.500000
vt 0.875000 1.000000
vt 1.000000 0.875000
vt 0.875000 0.875000
vt 0.875000 0.750000
vt 0.125000 1.000000
vt -0.000000 0.500000
vt 0.375000 0.375000
vt -0.000000 0.375000
vt 0.500000 1.000000
vt 0.750000 0.375000
vt 0.938477 0.245946
vt 0.997331 0.157584
vt 0.879622 0.157584
vt 0.750000 1.000000
vt 0.875000 0.375000
vt 1.000000 1.000000
vt -0.000000 1.000000
vt 0.879622 0.216439
vt 0.997331 0.216439
vt 0.938477 0.128078
s 1
usemtl WoodenSpoon
f 40/1/1 30/2/1 44/3/1
f 9/4/2 12/5/2 6/6/2
f 2/7/3 11/8/3 10/9/3
f 10/9/4 12/5/4 9/4/4
f 29/7/5 13/10/5 32/8/5
f 32/8/6 14/11/7 33/5/8
f 33/5/9 5/12/9 31/6/9
f 5/12/10 14/11/10 8/13/10
f 13/10/11 1/14/11 7/15/11
f 13/10/12 8/13/12 14/11/12
f 43/16/13 18/17/13 42/18/13
f 23/19/14 20/20/14 26/21/14
f 16/22/15 24/23/15 25/24/15
f 24/23/16 26/21/16 25/24/16
f 27/25/17 34/22/17 37/24/17
f 28/26/18 37/24/18 38/21/18
f 19/27/19 38/21/19 36/20/19
f 19/27/20 22/4/20 28/26/20
f 27/25/21 21/9/21 15/28/21
f 22/4/22 27/25/22 28/26/22
f 3/29/23 41/30/23 39/31/23
f 40/18/24 16/28/24 42/1/24
f 5/32/25 36/33/25 31/34/25
f 5/34/26 22/35/26 19/33/26
f 2/32/27 24/36/27 16/37/27
f 1/38/28 21/39/28 7/40/28
f 7/40/23 22/35/23 8/41/23
f 6/34/29 23/35/29 9/41/29
f 9/41/30 24/39/30 10/40/30
f 6/34/31 36/37/31 20/33/31
f 20/20/32 38/26/32 26/21/32
f 38/26/33 25/24/33 26/21/33
f 25/24/34 34/28/34 16/22/34
f 17/42/35 43/43/35 41/30/35
f 6/6/36 33/11/36 31/12/36
f 12/5/37 32/10/37 33/11/38
f 11/8/39 29/14/39 32/10/39
f 44/3/40 3/29/40 39/31/40
f 29/44/41 39/31/41 1/7/41
f 41/43/42 34/14/42 15/45/42
f 40/1/30 18/17/30 4/46/30
f 39/31/43 15/14/43 1/7/43
f 34/22/44 42/16/44 16/47/44
f 29/44/45 40/1/45 44/3/45
f 30/48/46 18/49/46 17/50/46
f 40/1/1 4/46/1 30/2/1
f 10/9/4 11/8/4 12/5/4
f 29/7/47 1/14/47 13/10/47
f 32/8/6 13/10/48 14/11/7
f 33/5/49 14/11/49 5/12/49
f 13/10/12 7/15/12 8/13/12
f 43/16/50 35/51/50 18/17/50
f 24/23/16 23/19/16 26/21/16
f 27/25/51 15/28/51 34/22/51
f 28/26/18 27/25/18 37/24/18
f 19/27/52 28/26/52 38/21/52
f 22/4/22 21/9/22 27/25/22
f 3/29/23 17/42/23 41/30/23
f 40/18/24 2/22/24 16/28/24
f 5/32/25 19/37/25 36/33/25
f 5/34/26 8/41/26 22/35/26
f 2/32/27 10/52/27 24/36/27
f 1/38/28 15/53/28 21/39/28
f 7/40/23 21/39/23 22/35/23
f 6/34/29 20/33/29 23/35/29
f 9/41/30 23/35/30 24/39/30
f 6/34/31 31/32/31 36/37/31
f 20/20/53 36/27/53 38/26/53
f 38/26/33 37/25/33 25/24/33
f 25/24/54 37/25/54 34/28/54
f 17/42/55 35/54/55 43/43/55
f 6/6/56 12/5/56 33/11/56
f 12/5/37 11/8/57 32/10/37
f 11/8/47 2/7/47 29/14/47
f 44/3/40 30/2/40 3/29/40
f 29/44/58 44/3/58 39/31/58
f 41/43/59 43/30/59 34/14/59
f 40/1/30 42/18/30 18/17/30
f 39/31/43 41/30/43 15/14/43
f 34/22/60 43/18/60 42/16/60
f 29/44/41 2/28/41 40/1/41
f 17/50/46 3/55/46 30/48/46
f 30/48/46 4/56/46 18/49/46
f 18/49/46 35/57/46 17/50/46
