# Blender 5.0.1
# www.blender.org
mtllib SoapBarHolder.mtl
o SoapBarHolder
v -0.028014 0.014360 0.047814
v -0.028014 0.014360 -0.047814
v 0.028014 0.014360 0.047814
v 0.028014 0.014360 -0.047814
v -0.033000 0.000000 0.052800
v -0.033000 0.000000 -0.052800
v 0.033000 0.000000 -0.052800
v 0.033000 0.000000 0.052800
v -0.028014 0.005035 0.047814
v -0.028014 0.005035 -0.047814
v 0.028014 0.005035 -0.047814
v 0.028014 0.005035 0.047814
v -0.033000 0.011895 0.052800
v -0.030534 0.014360 0.050334
v -0.030534 0.014360 -0.050334
v -0.033000 0.011895 -0.052800
v 0.030534 0.014360 -0.050334
v 0.033000 0.011895 -0.052800
v 0.030534 0.014360 0.050334
v 0.033000 0.011895 0.052800
vn -1.0000 -0.0000 -0.0000
vn -0.0000 -1.0000 -0.0000
vn -0.0000 1.0000 -0.0000
vn 1.0000 -0.0000 -0.0000
vn -0.0000 -0.0000 -1.0000
vn -0.0000 -0.0000 1.0000
vn -0.7071 0.7071 -0.0000
vn -0.0000 0.7071 -0.7071
vn 0.7071 0.7071 -0.0000
vn -0.0000 0.7071 0.7071
vt 0.375000 0.250000
vt 0.500000 0.625000
vt 0.375000 0.625000
vt 0.875000 0.250000
vt 0.625000 0.625000
vt 0.625000 0.250000
vt 0.125000 0.625000
vt -0.000000 0.250000
vt -0.000000 0.625000
vt 0.375000 0.125000
vt 0.125000 0.250000
vt 0.125000 0.125000
vt 0.125000 0.750000
vt 0.375000 0.750000
vt 0.061811 0.625000
vt 0.061811 0.250000
vt 0.375000 0.688189
vt 0.125000 0.771462
vt 0.125000 0.688189
vt 0.438189 0.250000
vt 0.521462 0.625000
vt 0.438189 0.625000
vt 0.125000 0.186811
vt 0.375000 0.103538
vt 0.375000 0.186811
vt 0.125000 0.000000
vt 0.375000 0.000000
vt 0.978538 0.250000
vt 0.875000 0.625000
vt 0.375000 0.875000
vt 0.125000 0.875000
vt 0.500000 0.250000
vt 0.375000 0.771462
vt 0.521462 0.250000
vt 0.125000 0.103538
vt 0.978538 0.625000
s 0
usemtl 8x8grid
f 4/1/1 12/2/1 3/3/1
f 5/4/2 7/5/2 8/6/2
f 10/7/3 12/1/3 11/3/3
f 1/8/4 10/7/4 2/9/4
f 3/10/5 9/11/5 1/12/5
f 2/13/6 11/3/6 4/14/6
f 15/15/7 13/8/7 14/16/7
f 17/17/8 16/18/8 15/19/8
f 19/20/9 18/21/9 17/22/9
f 14/23/10 20/24/10 19/25/10
f 20/24/6 5/26/6 8/27/6
f 13/28/1 6/29/1 5/4/1
f 1/11/3 19/25/3 3/1/3
f 2/7/3 14/16/3 1/11/3
f 16/18/5 7/30/5 6/31/5
f 4/3/3 15/19/3 2/7/3
f 18/21/4 8/6/4 7/5/4
f 3/1/3 17/22/3 4/3/3
f 4/1/1 11/32/1 12/2/1
f 5/4/2 6/29/2 7/5/2
f 10/7/3 9/11/3 12/1/3
f 1/8/4 9/11/4 10/7/4
f 3/10/5 12/1/5 9/11/5
f 2/13/6 10/7/6 11/3/6
f 15/15/7 16/9/7 13/8/7
f 17/17/8 18/33/8 16/18/8
f 19/20/9 20/34/9 18/21/9
f 14/23/10 13/35/10 20/24/10
f 20/24/6 13/35/6 5/26/6
f 13/28/1 16/36/1 6/29/1
f 1/11/3 14/23/3 19/25/3
f 2/7/3 15/15/3 14/16/3
f 16/18/5 18/33/5 7/30/5
f 4/3/3 17/17/3 15/19/3
f 18/21/4 20/34/4 8/6/4
f 3/1/3 19/20/3 17/22/3
