# Blender 5.0.1
# www.blender.org
mtllib Toilet01.mtl
o Toilet01
v -0.150574 0.310000 0.178020
v -0.174188 0.310000 -0.153992
v 0.150574 0.310000 0.178020
v 0.174188 0.310000 -0.153992
v 0.058063 0.310000 -0.213903
v -0.058063 0.310000 -0.213903
v -0.058063 0.310000 0.308634
v 0.058063 0.310000 0.308634
v 0.130169 0.537585 -0.103402
v 0.113026 0.537585 0.147498
v -0.130169 0.537585 -0.103402
v -0.113026 0.537585 0.147498
v -0.051551 0.537585 -0.142066
v 0.051551 0.537585 -0.142066
v 0.046667 0.545507 0.310830
v -0.046667 0.545507 0.310830
v -0.090008 0.210000 0.118356
v -0.104123 0.210000 -0.080109
v 0.090008 0.210000 0.118356
v 0.104123 0.210000 -0.080109
v 0.034708 0.210000 -0.115922
v -0.034708 0.210000 -0.115922
v -0.034708 0.210000 0.196433
v 0.034708 0.210000 0.196433
v 0.123244 0.309255 -0.273319
v -0.123244 0.309255 -0.273319
v -0.136938 0.549255 -0.301288
v 0.136938 0.549255 -0.301288
v 0.123244 0.302399 -0.451739
v -0.123244 0.302399 -0.451739
v -0.136938 0.545950 -0.451739
v 0.136938 0.545950 -0.451739
v -0.077598 0.628270 -0.338809
v 0.077598 0.628270 -0.338809
v -0.077598 0.626397 -0.432784
v 0.077598 0.626397 -0.432784
v -0.100099 0.000000 -0.138648
v 0.100099 0.000000 -0.138648
v 0.100099 0.000000 0.226495
v -0.100099 0.000000 0.226495
v -0.000000 0.336769 -0.035267
v -0.171741 0.537683 0.198872
v -0.160257 0.548086 0.187383
v -0.187775 0.548535 -0.168990
v -0.198680 0.537727 -0.179820
v 0.160257 0.548086 0.187383
v 0.171741 0.537683 0.198872
v 0.187775 0.548535 -0.168990
v 0.198680 0.537727 -0.179820
v -0.066227 0.548725 -0.248154
v -0.063605 0.548594 -0.233369
v 0.063605 0.548594 -0.233369
v 0.066227 0.548725 -0.248154
v 0.059955 0.546624 0.331737
v 0.066228 0.537766 0.347863
v -0.066228 0.537766 0.347863
v -0.059955 0.546624 0.331737
vn 0.3800 0.5085 0.7727
vn -0.8377 -0.5429 0.0596
vn 0.8377 -0.5429 0.0596
vn -0.6251 -0.6428 0.4428
vn 0.3278 -0.6991 -0.6354
vn 0.6251 -0.6428 0.4428
vn -0.0000 -0.7465 0.6654
vn -0.3278 -0.6991 -0.6354
vn -0.0000 -0.6999 -0.7143
vn -0.9984 -0.0567 0.0022
vn -0.0000 -0.9999 0.0125
vn -0.0000 -0.0000 -1.0000
vn -0.0000 -0.9993 0.0384
vn 0.9984 -0.0561 0.0012
vn -0.0000 0.4290 0.9033
vn -0.0000 0.9998 -0.0199
vn -0.8034 0.5954 -0.0119
vn 0.8025 0.5965 -0.0131
vn -0.0000 0.2293 -0.9733
vn -0.0000 -1.0000 -0.0000
vn -0.0000 0.1417 0.9899
vn -0.7734 0.3192 0.5477
vn 0.7734 0.3192 0.5477
vn 0.9967 -0.0389 0.0709
vn -0.9988 0.0480 -0.0000
vn 0.4459 0.2324 -0.8644
vn -0.4459 0.2324 -0.8644
vn -0.0000 0.1076 -0.9942
vn -0.0000 0.8563 -0.5165
vn 0.8466 0.5291 -0.0578
vn -0.3800 0.5085 0.7727
vn -0.0000 0.4695 0.8829
vn -0.6808 0.6642 -0.3088
vn -0.8466 0.5291 -0.0578
vn 0.6808 0.6642 -0.3088
vn -0.0000 1.0000 0.0088
vn -0.6423 0.7648 0.0506
vn 0.0717 0.9972 0.0215
vn 0.7285 0.6831 0.0519
vn -0.4271 0.8523 0.3020
vn -0.2737 0.8044 -0.5272
vn 0.4432 0.8387 0.3165
vn -0.0000 0.8765 0.4814
vn -0.8094 -0.1277 0.5732
vn -0.9926 -0.0987 0.0706
vn 0.1331 0.9858 -0.1019
vn 0.2025 0.9792 -0.0144
vn -0.4534 -0.1484 -0.8789
vn 0.0576 0.9920 0.1120
vn -0.2057 0.9785 -0.0141
vn 0.9926 -0.0987 0.0706
vn 0.8094 -0.1277 0.5732
vn -0.0477 0.9986 -0.0230
vn -0.0569 0.9917 0.1156
vn 0.4534 -0.1484 -0.8789
vn -0.0000 0.9928 0.1197
vn -0.6719 0.0826 0.7360
vn 0.5994 0.0588 0.7983
vn -0.0000 0.9986 -0.0533
vn -0.0000 -0.1697 0.9855
vn -0.0000 1.0000 0.0100
vn -0.9984 -0.0561 0.0012
vn 0.9984 -0.0567 0.0022
vn -0.8025 0.5965 -0.0131
vn 0.8034 0.5954 -0.0119
vn 0.9988 0.0480 -0.0000
vn -0.9967 -0.0389 0.0709
vn -0.7285 0.6831 0.0519
vn 0.2737 0.8044 -0.5272
vn 0.6423 0.7648 0.0506
vn -0.4432 0.8387 0.3165
vn -0.0717 0.9972 0.0215
vn 0.4271 0.8523 0.3020
vn 0.0477 0.9986 -0.0230
vn 0.2057 0.9785 -0.0141
vn -0.4445 -0.1421 -0.8844
vn 0.0569 0.9917 0.1156
vn -0.2025 0.9792 -0.0144
vn -0.1331 0.9858 -0.1019
vn -0.0576 0.9920 0.1120
vn 0.4445 -0.1421 -0.8844
vn -0.5994 0.0588 0.7983
vn 0.6719 0.0826 0.7360
vt 0.830115 0.649052
vt 0.830115 0.825432
vt 0.779258 0.673139
vt 0.132450 0.171131
vt 0.309860 0.249066
vt 0.168810 0.249066
vt 0.639699 0.172741
vt 0.454830 0.235489
vt 0.403375 0.168443
vt 0.107902 0.255078
vt 0.030558 0.181189
vt 0.288801 0.841202
vt 0.194840 0.873971
vt 0.220314 0.824587
vt 0.892531 0.161611
vt 0.952921 0.104261
vt 0.952921 0.172321
vt 0.959944 -0.000000
vt 0.892531 0.047754
vt 0.288801 0.758589
vt 0.194840 0.725820
vt 0.246186 0.675975
vt 0.220314 0.775204
vt 0.777011 0.050017
vt 0.892531 0.220405
vt 0.766880 0.220405
vt 0.127012 0.869329
vt 0.169284 0.998313
vt 0.127012 0.951942
vt 0.000000 0.455379
vt 0.185098 0.628118
vt 0.009742 0.628118
vt 0.830115 0.649052
vt 0.957110 0.824408
vt 0.830115 0.824408
vt 0.113304 0.690514
vt -0.000000 0.860032
vt 0.006268 0.688763
vt 0.187795 0.822957
vt 0.127011 0.670333
vt 0.187795 0.628118
vt 0.288801 0.851567
vt 0.355670 0.961976
vt 0.288801 0.961976
vt 0.882852 0.048284
vt 0.793680 0.001216
vt 0.859783 -0.000000
vt 0.089304 0.629347
vt 0.194840 0.455379
vt 0.042215 0.397271
vt 0.152625 0.397271
vt 0.672486 0.389321
vt 0.814911 0.649052
vt 0.672486 0.649052
vt 0.612253 0.816024
vt 0.516348 0.966397
vt 0.562869 0.816024
vt 0.096025 0.394132
vt 0.596097 0.238058
vt 0.652123 0.235489
vt 0.669289 0.389320
vt 0.409617 0.382724
vt 0.352705 0.397271
vt 0.865647 0.222392
vt 0.915031 0.220405
vt 0.912168 0.372595
vt 0.766880 0.220405
vt 0.816264 0.222392
vt 0.769743 0.372595
vt 0.814911 0.389320
vt 0.880730 0.398075
vt 0.814911 0.641129
vt 0.249552 0.506209
vt 0.353686 0.675975
vt 0.194840 0.675975
vt 0.716831 0.711649
vt 0.672486 0.746292
vt 0.912212 0.519448
vt 0.516348 0.986179
vt 0.387919 0.986179
vt 0.477401 0.816024
vt 0.288849 0.397271
vt 0.483993 0.807355
vt 0.577614 0.814810
vt 0.482791 0.814810
vt 0.393781 0.760597
vt 0.407182 0.496351
vt 0.413773 0.501769
vt 0.576413 0.807355
vt 0.672148 0.767275
vt 0.394836 0.000126
vt 0.658260 0.013547
vt 0.388710 0.008613
vt 0.486645 0.396949
vt 0.482630 0.389746
vt 0.388126 0.766662
vt 0.763635 0.000149
vt 0.656631 0.004887
vt 0.577318 0.389320
vt 0.573761 0.396949
vt 0.117784 0.008783
vt 0.368412 0.171131
vt 0.497003 0.417371
vt 0.449794 0.533534
vt 0.437598 0.711976
vt 0.830739 0.833064
vt 0.924769 1.000000
vt 0.842331 0.993674
vt 0.493528 0.739474
vt 0.646633 0.501769
vt 0.622807 0.711976
vt 0.610611 0.533534
vt 0.733426 0.168443
vt 0.563402 0.417371
vt 0.666625 0.760597
vt 0.566877 0.739474
vt 0.288801 0.851567
vt 0.382831 0.684631
vt 0.371239 0.845241
vt 0.915031 0.209163
vt 0.961052 0.361940
vt 0.915031 0.372595
vt 0.961898 0.407612
vt 0.915877 0.560389
vt 0.912212 0.389320
vt 0.672798 0.833573
vt 0.761221 0.985147
vt 0.678607 0.985147
vt 0.964717 0.190871
vt 0.246186 0.923815
vt 0.993218 0.075716
vt 0.169284 0.822958
vt 0.957110 0.649052
vt 0.127011 0.860032
vt 0.127011 0.780742
vt 0.355670 0.851567
vt 0.022451 0.628118
vt 0.814911 0.389321
vt 0.658773 0.966397
vt 0.765175 0.008586
vt 0.001558 0.020195
vt 0.386922 0.008751
vt 0.924769 0.840281
vt 0.288801 0.691848
vt 0.961899 0.571045
vt 0.767030 0.833573
s 0
f 11/1/1 41/2/1 13/3/1
f 1/4/2 18/5/2 17/6/2
f 3/7/3 20/8/3 4/9/3
f 1/4/4 23/10/4 7/11/4
f 5/12/5 20/13/5 21/14/5
f 3/15/6 24/16/6 19/17/6
f 7/18/7 24/16/7 8/19/7
f 6/20/8 18/21/8 2/22/8
f 5/12/9 22/23/9 6/20/9
f 27/24/10 30/25/10 26/26/10
f 6/27/11 25/28/11 5/29/11
f 31/30/12 29/31/12 30/32/12
f 26/33/13 29/34/13 25/35/13
f 28/36/14 29/37/14 32/38/14
f 28/39/15 33/40/15 27/41/15
f 34/42/16 35/43/16 33/44/16
f 31/45/17 33/46/17 35/47/17
f 32/38/18 34/48/18 28/36/18
f 32/49/19 35/50/19 36/51/19
f 39/52/20 37/53/20 38/54/20
f 23/55/21 39/56/21 24/57/21
f 23/10/22 17/6/22 40/58/22
f 19/59/23 24/60/23 39/61/23
f 19/59/24 38/62/24 20/8/24
f 17/6/25 37/63/25 40/58/25
f 21/64/26 20/65/26 38/66/26
f 18/67/27 22/68/27 37/69/27
f 21/64/28 37/69/28 22/68/28
f 16/70/29 15/71/29 41/72/29
f 12/73/30 41/74/30 11/75/30
f 14/76/31 41/2/31 9/77/31
f 13/3/32 41/2/32 14/76/32
f 10/78/33 41/72/33 15/71/33
f 9/79/34 41/80/34 10/81/34
f 16/82/35 41/74/35 12/73/35
f 51/83/36 53/84/36 50/85/36
f 44/86/37 42/87/37 43/88/37
f 52/89/38 49/90/38 53/84/38
f 48/91/39 47/92/39 49/93/39
f 57/94/40 42/87/40 56/95/40
f 51/83/41 45/96/41 44/86/41
f 54/97/42 47/92/42 46/98/42
f 57/94/43 55/99/43 54/100/43
f 7/11/44 42/101/44 1/4/44
f 42/101/45 2/102/45 1/4/45
f 43/88/46 16/103/46 12/104/46
f 43/88/47 11/105/47 44/86/47
f 45/106/48 6/107/48 2/108/48
f 44/86/49 13/109/49 51/83/49
f 46/110/50 9/111/50 10/112/50
f 4/9/51 47/92/51 3/7/51
f 47/92/52 8/113/52 3/7/52
f 46/110/53 15/114/53 54/100/53
f 48/115/54 14/116/54 9/111/54
f 5/117/55 49/118/55 4/119/55
f 52/89/56 13/109/56 14/116/56
f 50/120/57 26/121/57 6/122/57
f 53/123/58 25/124/58 28/125/58
f 54/100/59 16/103/59 57/94/59
f 55/126/60 7/127/60 8/128/60
f 27/129/61 53/123/61 28/125/61
f 1/4/2 2/102/2 18/5/2
f 3/7/3 19/59/3 20/8/3
f 1/4/4 17/6/4 23/10/4
f 5/12/5 4/130/5 20/13/5
f 3/15/6 8/19/6 24/16/6
f 7/18/7 23/131/7 24/16/7
f 6/20/8 22/23/8 18/21/8
f 5/12/9 21/14/9 22/23/9
f 27/24/62 31/45/62 30/25/62
f 6/27/11 26/132/11 25/28/11
f 31/30/12 32/49/12 29/31/12
f 26/33/13 30/133/13 29/34/13
f 28/36/63 25/134/63 29/37/63
f 28/39/15 34/135/15 33/40/15
f 34/42/16 36/136/16 35/43/16
f 31/45/64 27/24/64 33/46/64
f 32/38/65 36/137/65 34/48/65
f 32/49/19 31/30/19 35/50/19
f 39/52/20 40/138/20 37/53/20
f 23/55/21 40/139/21 39/56/21
f 19/59/66 39/61/66 38/62/66
f 17/6/67 18/5/67 37/63/67
f 21/64/28 38/66/28 37/69/28
f 51/83/36 52/89/36 53/84/36
f 44/86/68 45/96/68 42/87/68
f 52/89/69 48/115/69 49/90/69
f 48/91/70 46/98/70 47/92/70
f 57/94/71 43/88/71 42/87/71
f 51/83/72 50/85/72 45/96/72
f 54/97/73 55/140/73 47/92/73
f 57/94/43 56/95/43 55/99/43
f 7/11/44 56/141/44 42/101/44
f 42/101/45 45/142/45 2/102/45
f 43/88/74 57/94/74 16/103/74
f 43/88/75 12/104/75 11/105/75
f 45/106/76 50/143/76 6/107/76
f 44/86/77 11/105/77 13/109/77
f 46/110/78 48/115/78 9/111/78
f 4/9/51 49/93/51 47/92/51
f 47/92/52 55/140/52 8/113/52
f 46/110/79 10/112/79 15/114/79
f 48/115/80 52/89/80 14/116/80
f 5/117/81 53/144/81 49/118/81
f 52/89/56 51/83/56 13/109/56
f 50/120/82 27/129/82 26/121/82
f 53/123/83 5/145/83 25/124/83
f 54/100/59 15/114/59 16/103/59
f 55/126/60 56/146/60 7/127/60
f 27/129/61 50/85/61 53/123/61
