# Blender 5.1.1
# www.blender.org
mtllib KitchenSink.mtl
o KitchenSink
v -0.800000 1.000000 0.400000
v -0.800000 -0.000000 -0.400000
v -0.800000 1.000000 -0.400000
v 0.800000 1.000000 0.400000
v 0.800000 -0.000000 -0.400000
v 0.800000 1.000000 -0.400000
v -0.800000 -0.000000 -0.300000
v -0.800000 1.000000 -0.300000
v 0.800000 -0.000000 -0.300000
v 0.800000 1.000000 -0.300000
v -0.800000 1.099984 -0.300000
v -0.800000 1.099984 -0.400000
v 0.800000 1.099984 -0.400000
v 0.800000 1.099984 -0.300000
v 0.800000 0.187865 0.400000
v -0.800000 0.187865 0.400000
v 0.739800 0.157665 0.400000
v -0.739800 0.157665 0.400000
v -0.739800 0.218065 0.400000
v 0.739800 0.218065 0.400000
v 0.739800 0.939800 0.400000
v -0.739800 0.939800 0.400000
v 0.739800 0.157665 -0.300000
v 0.739800 -0.000000 -0.300000
v -0.739800 -0.000000 -0.300000
v -0.739800 0.157665 -0.300000
v 0.739800 0.218065 -0.299538
v -0.739800 0.218065 -0.299538
v -0.739800 0.939800 -0.299538
v 0.739800 0.939800 -0.299538
v 0.800000 0.000000 0.400000
v -0.800000 0.000000 0.400000
v 0.739800 0.000000 0.400000
v -0.739800 0.000000 0.400000
v 0.290556 -0.000000 -0.400000
v 0.290556 1.000000 -0.400000
v 0.290556 1.000000 0.400000
v 0.290556 1.000000 -0.300000
v 0.290556 -0.000000 -0.300000
v 0.290556 1.099984 -0.400000
v 0.290556 1.099984 -0.300000
v 0.290556 0.157665 0.400000
v 0.290556 0.218065 0.400000
v 0.290556 0.939800 0.400000
v 0.290556 0.157665 -0.300000
v 0.290556 0.218065 -0.299538
v 0.290556 0.939800 -0.299538
v -0.728987 0.939800 0.348251
v -0.728987 0.939800 -0.275331
v 0.238806 0.939800 -0.275331
v 0.238806 0.939800 0.348251
v -0.691018 0.715986 0.310281
v -0.728987 0.753955 0.348251
v -0.728987 0.753955 -0.275331
v -0.691018 0.715986 -0.237361
v 0.200837 0.715986 0.310281
v 0.238806 0.753955 0.348251
v 0.238806 0.753955 -0.275331
v 0.200837 0.715986 -0.237361
v -0.714148 0.803513 -0.168054
v -0.677399 0.766764 -0.131306
v 0.178090 0.766764 -0.131306
v 0.214838 0.803513 -0.168054
v 0.178090 0.766764 0.287534
v 0.214838 0.803513 0.324283
v -0.714148 0.803513 0.324283
v -0.677399 0.766764 0.287534
v 0.214838 0.968246 -0.168054
v 0.245514 1.000000 -0.198730
v -0.748832 1.000000 -0.198644
v -0.714148 0.968246 -0.168054
v -0.748832 1.000000 0.354872
v -0.714148 0.968246 0.324283
v 0.214838 0.968246 0.324283
v 0.245514 1.000000 0.354959
v 0.764137 1.012032 -0.264136
v 0.326419 1.012032 -0.264136
v 0.326419 1.012032 0.364137
v 0.764137 1.012032 0.364137
v -0.287291 1.004937 -0.312737
v -0.287291 1.043302 -0.128982
v -0.287291 1.083460 -0.137366
v -0.287291 1.045096 -0.321122
v -0.224198 1.004937 -0.312737
v -0.224198 1.045096 -0.321122
v -0.224198 1.043302 -0.128982
v -0.224198 1.083460 -0.137366
v 0.174078 0.997210 -0.283187
v 0.161105 0.997210 -0.251866
v 0.174078 0.997210 -0.220545
v 0.205399 0.997210 -0.207572
v 0.236720 0.997210 -0.220545
v 0.249694 0.997210 -0.251866
v 0.236720 0.997210 -0.283187
v 0.205399 0.997210 -0.296161
v 0.170450 1.028465 -0.251866
v 0.180687 1.028465 -0.276579
v 0.180687 1.028465 -0.227154
v 0.205399 1.028465 -0.216918
v 0.230112 1.028465 -0.227154
v 0.240348 1.028465 -0.251866
v 0.230112 1.028465 -0.276579
v 0.205399 1.028465 -0.286815
v 0.186309 1.028465 -0.270956
v 0.178402 1.028465 -0.251866
v 0.186309 1.028465 -0.232777
v 0.205399 1.028465 -0.224869
v 0.224489 1.028465 -0.232777
v 0.232396 1.028465 -0.251866
v 0.224489 1.028465 -0.270956
v 0.205399 1.028465 -0.278863
v 0.178402 1.226464 -0.251866
v 0.186309 1.226464 -0.270956
v 0.205399 1.226464 -0.278863
v 0.186309 1.226464 -0.232777
v 0.205399 1.226464 -0.224869
v 0.224489 1.226464 -0.232777
v 0.232396 1.226464 -0.251866
v 0.224489 1.226464 -0.270956
v 0.191440 1.226464 -0.265826
v 0.185658 1.226464 -0.251866
v 0.191440 1.226464 -0.237907
v 0.205399 1.226464 -0.232125
v 0.219358 1.226464 -0.237907
v 0.225140 1.226464 -0.251866
v 0.219358 1.226464 -0.265826
v 0.205399 1.226464 -0.271608
v 0.185658 1.344867 -0.251866
v 0.191440 1.344867 -0.265826
v 0.205399 1.344867 -0.271608
v 0.191440 1.344867 -0.237907
v 0.205399 1.344867 -0.232125
v 0.219358 1.344867 -0.237907
v 0.225140 1.344867 -0.251866
v 0.219358 1.344867 -0.265826
v 0.181457 1.363152 -0.247665
v 0.185354 1.371356 -0.259739
v 0.197428 1.379562 -0.263636
v 0.188020 1.359753 -0.234487
v 0.201198 1.363152 -0.227924
v 0.213272 1.371356 -0.231821
v 0.217169 1.379562 -0.243895
v 0.210606 1.382960 -0.257073
v 0.170459 1.374452 -0.236667
v 0.169420 1.387728 -0.243806
v 0.176559 1.401004 -0.242768
v 0.179066 1.368953 -0.225533
v 0.190200 1.374452 -0.216926
v 0.197339 1.387728 -0.215888
v 0.196300 1.401004 -0.223026
v 0.187693 1.406503 -0.234160
v 0.156864 1.374452 -0.223073
v 0.149726 1.387728 -0.224111
v 0.150764 1.401004 -0.216972
v 0.167999 1.368953 -0.214466
v 0.176606 1.374452 -0.203332
v 0.177644 1.387728 -0.196193
v 0.170505 1.401004 -0.197231
v 0.159371 1.406503 -0.205838
v 0.145866 1.363151 -0.212075
v 0.133792 1.371356 -0.208178
v 0.129895 1.379561 -0.196104
v 0.159045 1.359753 -0.205512
v 0.165608 1.363151 -0.192334
v 0.161711 1.371356 -0.180259
v 0.149637 1.379561 -0.176362
v 0.136458 1.382960 -0.182925
v 0.141666 1.344867 -0.207874
v 0.127706 1.344867 -0.202092
v 0.121924 1.344867 -0.188133
v 0.155625 1.344867 -0.202092
v 0.161407 1.344867 -0.188133
v 0.155625 1.344867 -0.174173
v 0.141666 1.344867 -0.168391
v 0.127706 1.344867 -0.174173
v 0.141666 1.234242 -0.207874
v 0.127706 1.234242 -0.202092
v 0.121924 1.234242 -0.188133
v 0.155625 1.234242 -0.202092
v 0.161407 1.234242 -0.188133
v 0.155625 1.234242 -0.174174
v 0.141666 1.234242 -0.168392
v 0.127707 1.234242 -0.174174
v 0.141666 1.227567 -0.211159
v 0.125384 1.227567 -0.204415
v 0.118640 1.227567 -0.188133
v 0.157948 1.227567 -0.204415
v 0.164692 1.227567 -0.188133
v 0.157948 1.227567 -0.171851
v 0.141666 1.227567 -0.165107
v 0.125384 1.227567 -0.171851
v 0.141666 1.210795 -0.211159
v 0.125384 1.210795 -0.204415
v 0.118640 1.210795 -0.188133
v 0.157948 1.210795 -0.204415
v 0.164692 1.210795 -0.188133
v 0.157948 1.210795 -0.171851
v 0.141666 1.210795 -0.165107
v 0.125384 1.210795 -0.171851
vn -1.0000 -0.0000 -0.0000
vn -0.0000 -0.0000 -1.0000
vn -0.0000 -1.0000 -0.0000
vn 1.0000 -0.0000 -0.0000
vn -0.0000 1.0000 -0.0000
vn -0.0000 -0.0000 1.0000
vn -0.7071 -0.7071 -0.0000
vn -0.0000 -0.7071 0.7071
vn -0.0000 -0.7071 -0.7071
vn 0.7071 -0.7071 -0.0000
vn -0.0000 0.7071 0.7071
vn -0.7071 0.7071 -0.0000
vn 0.7071 0.7071 -0.0000
vn -0.0000 0.7071 -0.7071
vn -0.0000 0.6945 0.7195
vn 0.0001 0.6941 0.7199
vn 0.0001 0.6938 0.7202
vn -0.7192 0.6948 -0.0000
vn 0.6753 0.7376 -0.0000
vn -0.0000 0.6945 -0.7195
vn 0.0001 0.6941 -0.7199
vn -0.0000 0.6948 -0.7192
vn -0.0000 0.9481 -0.3181
vn -0.3181 0.9481 -0.0000
vn -0.0000 0.9481 0.3181
vn 0.3181 0.9481 -0.0000
vn -0.0000 0.2044 0.9789
vn -0.0000 -0.9789 0.2044
vn -0.0000 0.9789 -0.2044
vn -0.9239 -0.0000 0.3827
vn -0.3689 0.2663 -0.8905
vn 0.8905 0.2663 -0.3689
vn 0.3689 0.2663 0.8905
vn -0.8905 0.2663 0.3689
vn 0.3689 0.2663 -0.8905
vn 0.8905 0.2663 0.3689
vn -0.3689 0.2663 0.8905
vn -0.8905 0.2663 -0.3689
vn 0.9239 -0.0000 0.3827
vn -0.9239 -0.0000 -0.3827
vn 0.3827 -0.0000 -0.9239
vn -0.3827 -0.0000 0.9239
vn -0.3827 -0.0000 -0.9239
vn 0.9239 -0.0000 -0.3827
vn 0.3827 -0.0000 0.9239
vn 0.3798 -0.1234 0.9168
vn 0.6459 0.7527 -0.1276
vn 0.6459 0.7527 -0.1275
vn 0.6458 0.7527 -0.1276
vn -0.8849 -0.2875 0.3665
vn -0.9168 -0.1234 -0.3797
vn 0.3665 0.2875 -0.8849
vn 0.9168 0.1234 0.3798
vn -0.3665 -0.2875 0.8849
vn -0.3798 0.1234 -0.9168
vn 0.8849 0.2875 -0.3665
vn 0.6483 0.3993 0.6483
vn 0.4823 -0.3230 0.8143
vn 0.4823 -0.3230 0.8142
vn -0.6459 -0.7527 0.1275
vn -0.8142 -0.3231 -0.4823
vn -0.8143 -0.3231 -0.4823
vn 0.1276 0.7527 -0.6459
vn 0.8142 0.3230 0.4823
vn 0.8143 0.3230 0.4823
vn -0.1275 -0.7527 0.6459
vn -0.4823 0.3230 -0.8143
vn -0.4823 -0.3230 -0.8143
vn 0.2592 -0.9304 0.2592
vn -0.6483 0.3993 -0.6483
vn 0.2592 0.9304 0.2592
vn 0.6483 -0.3993 0.6483
vn -0.2592 -0.9304 -0.2592
vn -0.6483 -0.3993 -0.6483
vn -0.2592 0.9304 -0.2592
vn -0.3665 0.2875 0.8849
vn -0.6459 0.7527 0.1275
vn 0.4823 0.3230 0.8142
vn 0.4823 0.3231 0.8142
vn 0.6459 -0.7527 -0.1275
vn 0.6459 -0.7527 -0.1276
vn -0.8142 0.3230 -0.4823
vn -0.1275 0.7527 0.6459
vn 0.8143 -0.3230 0.4823
vn 0.8143 -0.3231 0.4823
vn 0.1275 -0.7527 -0.6459
vn 0.9168 -0.1234 0.3797
vn 0.3665 -0.2875 -0.8849
vn -0.3798 -0.1234 -0.9168
vn -0.3797 -0.1234 -0.9168
vn -0.8849 0.2875 0.3665
vn 0.3798 0.1234 0.9168
vn 0.8849 -0.2875 -0.3665
vn 0.8849 -0.2875 -0.3666
vn -0.9168 0.1234 -0.3798
vn -0.8410 0.4139 0.3484
vn -0.8410 0.4138 0.3484
vn 0.3484 0.4139 0.8410
vn 0.8410 0.4139 -0.3484
vn -0.8411 0.4138 -0.3484
vn -0.8409 0.4141 -0.3484
vn -0.3484 0.4139 0.8410
vn 0.8410 0.4139 0.3484
vn 0.3484 0.4139 -0.8410
vn -0.3484 0.4139 -0.8410
vn -0.0000 0.6948 0.7192
vn 0.0001 0.6938 -0.7202
vn -0.9168 -0.1234 -0.3798
vn 0.8142 0.3230 0.4824
vn -0.2592 -0.9304 -0.2591
vn -0.6483 -0.3992 -0.6483
vn -0.8142 0.3231 -0.4823
vn 0.1276 -0.7527 -0.6459
vn -0.8409 0.4141 0.3484
vn -0.3483 0.4139 0.8410
vn 0.3483 0.4139 -0.8410
vn -0.3483 0.4139 -0.8410
vt 0.562500 0.250000
vt 0.531250 -0.000000
vt 0.562500 -0.000000
vt 0.124531 0.250000
vt 0.000000 -0.000000
vt 0.124531 0.000000
vt 0.375000 0.343750
vt 0.531250 0.500000
vt 0.375000 0.500000
vt 0.625000 0.062500
vt 0.593750 0.093750
vt 0.593750 0.062500
vt 0.437500 0.281250
vt 0.437500 0.312500
vt 0.468750 0.281250
vt 0.375000 0.281250
vt 0.124531 0.312500
vt 0.124531 0.281250
vt 0.375000 0.250000
vt -0.000000 0.312500
vt 0.124531 0.343750
vt 0.625000 0.031250
vt 0.593750 0.031250
vt 0.531250 0.312500
vt 0.531250 0.281250
vt 0.562500 0.281250
vt 0.375506 0.875115
vt 0.361375 0.985098
vt 0.361375 0.882667
vt 0.249824 1.000153
vt 0.013647 0.985098
vt 0.249824 0.985098
vt -0.000483 0.875115
vt -0.000483 1.000153
vt 0.375000 0.687500
vt 0.250469 0.875000
vt 0.250469 0.687500
vt 0.375000 0.531250
vt 0.250469 0.531250
vt -0.000000 0.687500
vt 0.500000 0.281250
vt 0.250469 0.718750
vt 0.531250 0.250000
vt 0.013647 0.992562
vt -0.000483 0.875076
vt 0.013647 0.875076
vt 0.531250 0.343750
vt 0.375000 0.375000
vt 0.531250 0.375000
vt 0.361375 0.992562
vt 0.375506 0.875076
vt 0.375506 1.000114
vt 0.406250 0.281250
vt 0.127070 0.503394
vt 0.360735 0.525889
vt 0.374833 0.503394
vt 0.375000 0.718750
vt 0.250469 0.750000
vt 0.507724 0.617972
vt 0.619194 0.581410
vt 0.619194 0.617972
vt 0.115764 0.351755
vt 0.008767 0.491995
vt 0.008767 0.351755
vt 0.000000 0.750000
vt -0.000000 0.718750
vt 0.014438 0.525889
vt 0.000340 0.503394
vt -0.000000 0.531250
vt 0.000000 0.875000
vt 0.250120 1.000153
vt 0.375506 1.000153
vt 0.375000 0.312500
vt -0.000000 0.281250
vt 0.000000 0.250000
vt 0.375000 -0.000000
vt 0.012580 0.675941
vt 0.237889 0.542809
vt 0.012580 0.542809
vt 0.237889 0.675941
vt 0.468750 0.906250
vt 0.687500 0.958147
vt 0.687500 0.906250
vt 0.687500 0.718750
vt 0.468750 0.770647
vt 0.468750 0.718750
vt 0.750000 0.781250
vt 0.698103 0.906250
vt 0.750000 0.906250
vt 0.477332 0.788861
vt 0.678918 0.898639
vt 0.477332 0.898639
vt 0.507724 0.581410
vt 0.669615 0.617972
vt 0.459284 0.581410
vt 0.459284 0.617972
vt 0.686758 0.687152
vt 0.451431 0.664656
vt 0.676561 0.664675
vt 0.439847 0.531790
vt 0.439847 0.687152
vt 0.467605 0.649711
vt 0.661295 0.556752
vt 0.661295 0.649711
vt 0.686758 0.531790
vt 0.451431 0.541806
vt 0.468750 0.781250
vt 0.678918 0.788861
vt 0.687500 0.770647
vt 0.698103 0.781250
vt 0.687500 0.898639
vt 0.406250 0.906250
vt 0.458147 0.781250
vt 0.406250 0.781250
vt 0.459284 0.657867
vt 0.669615 0.657867
vt 0.459284 0.548595
vt 0.467605 0.556752
vt 0.669615 0.548595
vt 0.676561 0.541787
vt 0.676561 0.625020
vt 0.451431 0.625020
vt 0.626139 0.625020
vt 0.669615 0.581410
vt 0.000000 0.343750
vt 0.124531 0.500000
vt 0.000000 0.500000
vt 0.115764 0.491995
vt 0.250000 0.375000
vt 0.218750 0.468750
vt 0.218750 0.375000
vt 0.156250 0.468750
vt 0.187500 0.375000
vt 0.187500 0.468750
vt 0.312500 0.406250
vt 0.281250 0.437500
vt 0.281250 0.406250
vt 0.250000 0.468750
vt 0.281250 0.375000
vt 0.281250 0.468750
vt 0.843750 0.062500
vt 0.875000 0.218750
vt 0.843750 0.218750
vt 0.812500 -0.000000
vt 0.781250 0.031250
vt 0.781250 -0.000000
vt 0.968750 -0.000000
vt 1.000000 0.031250
vt 0.968750 0.031250
vt 0.937500 -0.000000
vt 0.906250 0.031250
vt 0.906250 -0.000000
vt 0.875000 -0.000000
vt 0.843750 0.031250
vt 0.843750 -0.000000
vt 0.750000 0.031250
vt 0.750000 -0.000000
vt 0.937500 0.031250
vt 0.875000 0.031250
vt 0.812500 0.031250
vt 0.968750 0.250000
vt 0.937500 0.375000
vt 0.937500 0.250000
vt 0.812500 0.218750
vt 0.812500 0.062500
vt 0.781250 0.062500
vt 0.750000 0.218750
vt 0.750000 0.062500
vt 0.968750 0.062500
vt 0.937500 0.218750
vt 0.937500 0.062500
vt 0.906250 0.062500
vt 0.875000 0.062500
vt 0.781250 0.218750
vt 1.000000 0.062500
vt 0.968750 0.218750
vt 0.906250 0.218750
vt 0.812500 0.250000
vt 0.843750 0.250000
vt 0.875000 0.250000
vt 0.906250 0.250000
vt 1.000000 0.250000
vt 0.781250 0.250000
vt 0.750000 0.250000
vt 0.906250 0.375000
vt 0.937500 0.437500
vt 0.906250 0.437500
vt 0.875000 0.375000
vt 0.781250 0.375000
vt 0.968750 0.375000
vt 0.843750 0.375000
vt 0.812500 0.375000
vt 0.750000 0.375000
vt 1.000000 0.375000
vt 0.968750 0.437500
vt 0.875000 0.437500
vt 0.843750 0.437500
vt 0.812500 0.437500
vt 0.750000 0.437500
vt 0.781250 0.437500
vt 1.000000 0.437500
vt 0.812500 0.562500
vt 0.843750 0.562500
vt 0.875000 0.593750
vt 0.875000 0.562500
vt 0.906250 0.562500
vt 0.968750 0.562500
vt 0.750000 0.562500
vt 0.781250 0.562500
vt 0.937500 0.562500
vt 1.000000 0.562500
vt 0.750000 0.656250
vt 0.781250 0.593750
vt 0.781250 0.656250
vt 0.906250 0.593750
vt 0.937500 0.593750
vt 1.000000 0.593750
vt 0.812500 0.593750
vt 0.843750 0.593750
vt 0.968750 0.593750
vt 0.750000 0.593750
vt 0.875000 0.718750
vt 0.937500 0.718750
vt 0.937500 0.781250
vt 0.812500 0.656250
vt 0.843750 0.656250
vt 0.875000 0.656250
vt 0.906250 0.656250
vt 0.937500 0.656250
vt 0.968750 0.656250
vt 1.000000 0.656250
vt 0.625000 0.093750
vt 0.013647 0.882667
vt 0.375000 0.875000
vt -0.000483 1.000114
vt 0.361375 0.875076
vt 0.127070 0.525889
vt 0.375000 0.750000
vt 0.250120 0.985098
vt 0.468750 0.958147
vt 0.687500 0.788861
vt 0.458147 0.906250
vt 0.500779 0.625020
vt 0.156250 0.375000
vt 0.312500 0.437500
vt 1.000000 -0.000000
vt 1.000000 0.218750
vt 0.906250 0.812500
vt 0.875000 0.781250
vt 0.843750 0.750000
vt 0.906250 0.687500
vt 0.968750 0.750000
s 1
usemtl KitchenSink
f 8/1/1 2/2/1 7/3/1
f 36/4/2 5/5/2 35/6/2
f 21/7/1 27/8/1 20/9/1
f 8/10/1 12/11/1 3/12/1
f 7/13/3 2/14/3 25/15/3
f 6/1/4 9/2/4 5/3/4
f 12/16/5 41/17/5 40/18/5
f 3/19/2 40/18/2 36/4/2
f 10/20/6 41/21/6 38/17/6
f 6/22/4 14/12/4 10/23/4
f 18/24/6 19/25/6 16/26/6
f 15/27/6 21/28/6 20/29/6
f 37/30/6 22/31/6 44/32/6
f 16/33/6 22/31/6 1/34/6
f 27/35/6 47/36/6 46/37/6
f 20/38/5 46/37/5 43/39/5
f 18/40/3 45/39/3 42/37/3
f 19/7/4 29/8/4 22/9/4
f 15/41/6 20/25/6 17/24/6
f 43/42/6 18/40/6 42/37/6
f 7/2/1 1/19/1 8/43/1
f 4/19/4 9/2/4 10/43/4
f 18/44/6 32/45/6 34/46/6
f 26/47/4 34/48/4 25/49/4
f 33/48/1 23/47/1 24/49/1
f 17/50/6 31/51/6 15/52/6
f 9/25/3 33/19/3 24/43/3
f 7/25/3 34/19/3 32/16/3
f 5/14/3 9/13/3 24/53/3
f 35/54/3 25/55/3 2/56/3
f 24/57/6 45/58/6 39/42/6
f 73/59/4 60/60/4 71/61/4
f 47/39/3 21/35/3 44/37/3
f 77/62/5 79/63/5 76/64/5
f 39/42/6 26/65/6 25/66/6
f 24/67/3 35/54/3 5/68/3
f 20/57/6 42/37/6 17/35/6
f 42/37/3 23/38/3 17/35/3
f 43/39/5 28/40/5 19/69/5
f 46/37/6 29/70/6 28/40/6
f 37/71/6 21/28/6 4/72/6
f 38/17/6 11/7/6 8/73/6
f 36/4/2 13/74/2 6/75/2
f 40/18/5 14/20/5 13/74/5
f 3/19/2 35/6/2 2/76/2
f 29/69/3 48/77/3 22/40/3
f 29/69/3 50/78/3 49/79/3
f 47/39/3 51/80/3 50/78/3
f 22/40/3 51/80/3 44/37/3
f 48/81/6 57/82/6 51/83/6
f 50/84/2 54/85/2 49/86/2
f 51/87/4 58/88/4 50/89/4
f 55/90/3 56/91/3 52/92/3
f 68/61/1 65/93/1 74/59/1
f 74/94/2 66/95/2 73/96/2
f 38/97/5 70/98/5 69/99/5
f 1/100/5 70/98/5 8/101/5
f 61/102/5 64/103/5 62/104/5
f 37/105/5 72/106/5 1/100/5
f 54/107/7 52/92/7 53/81/7
f 53/81/8 56/91/8 57/83/8
f 59/108/9 54/85/9 58/109/9
f 57/110/10 59/111/10 58/88/10
f 49/112/1 53/113/1 48/114/1
f 62/104/11 60/115/11 61/102/11
f 64/103/12 63/116/12 62/104/12
f 61/102/13 66/117/13 67/118/13
f 67/118/14 65/119/14 64/103/14
f 37/105/5 69/99/5 75/120/5
f 71/96/15 69/121/16 70/122/17
f 74/59/18 69/123/18 68/61/18
f 71/115/19 72/106/19 73/117/19
f 73/96/20 75/121/21 74/94/22
f 71/96/6 63/124/6 68/94/6
f 38/21/23 76/64/23 10/125/23
f 37/126/24 77/62/24 38/21/24
f 4/127/25 78/128/25 37/126/25
f 10/125/26 79/63/26 4/127/26
f 82/129/1 80/130/1 81/131/1
f 85/132/4 86/133/4 84/134/4
f 87/135/27 81/136/27 86/137/27
f 84/134/28 81/131/28 80/130/28
f 83/138/29 87/139/29 85/140/29
f 105/141/30 115/142/30 112/143/30
f 88/144/31 103/145/31 95/146/31
f 93/147/32 102/148/32 101/149/32
f 92/150/33 99/151/33 91/152/33
f 90/153/34 96/154/34 89/155/34
f 95/146/35 102/156/35 94/157/35
f 93/147/36 100/158/36 92/150/36
f 91/152/37 98/159/37 90/153/37
f 89/155/38 97/160/38 88/144/38
f 125/161/39 133/162/39 124/163/39
f 105/141/40 113/164/40 104/165/40
f 111/166/41 119/167/41 110/168/41
f 109/169/39 117/170/39 108/171/39
f 107/172/42 115/142/42 106/173/42
f 104/165/43 114/174/43 111/166/43
f 110/175/44 118/176/44 109/169/44
f 108/171/45 116/177/45 107/172/45
f 112/143/5 120/178/5 113/164/5
f 115/142/5 121/179/5 112/143/5
f 116/177/5 122/180/5 115/142/5
f 116/177/5 124/163/5 123/181/5
f 118/176/5 124/163/5 117/170/5
f 118/176/5 126/182/5 125/161/5
f 119/167/5 127/183/5 126/184/5
f 114/174/5 120/178/5 127/183/5
f 132/185/46 141/186/46 140/187/46
f 123/181/42 131/188/42 122/180/42
f 120/178/43 130/189/43 127/183/43
f 126/182/44 134/190/44 125/161/44
f 124/163/45 132/185/45 123/181/45
f 122/180/30 128/191/30 121/179/30
f 121/179/40 129/192/40 120/178/40
f 127/183/41 135/193/41 126/184/41
f 143/194/47 150/195/48 142/190/49
f 128/191/50 139/196/50 136/197/50
f 128/191/51 137/198/51 129/192/51
f 130/189/52 143/199/52 135/193/52
f 133/162/53 142/195/53 141/186/53
f 132/185/54 139/196/54 131/188/54
f 129/192/55 138/200/55 130/189/55
f 134/190/56 143/201/56 142/195/56
f 149/162/57 158/195/57 157/186/57
f 140/185/58 149/186/59 148/187/59
f 139/188/60 144/197/60 136/191/60
f 136/191/61 145/198/62 137/192/61
f 138/189/63 151/199/63 143/193/63
f 141/162/64 150/195/65 149/186/65
f 139/188/66 148/187/66 147/196/66
f 138/189/67 145/198/67 146/200/67
f 152/191/68 161/198/68 153/192/68
f 148/185/69 155/196/69 147/188/69
f 145/192/70 154/200/70 146/189/70
f 151/194/71 158/195/71 150/190/71
f 148/185/72 157/186/72 156/187/72
f 147/188/73 152/197/73 144/191/73
f 144/191/74 153/198/74 145/192/74
f 146/189/75 159/199/75 151/193/75
f 167/194/76 174/195/76 166/190/76
f 154/189/77 167/199/77 159/193/77
f 157/162/78 166/195/78 165/186/79
f 155/188/80 164/187/80 163/196/81
f 153/192/82 162/200/82 154/189/82
f 158/190/83 167/201/83 166/195/83
f 156/185/84 165/186/84 164/187/85
f 155/188/86 160/197/86 152/191/86
f 169/202/40 178/197/40 170/203/40
f 164/185/87 173/186/87 172/187/87
f 163/188/88 168/197/88 160/191/88
f 160/191/89 169/198/90 161/192/89
f 162/189/91 175/199/91 167/193/91
f 165/162/92 174/195/92 173/186/92
f 164/185/93 171/196/93 163/188/94
f 161/192/95 170/200/95 162/189/95
f 183/204/96 186/203/97 191/205/96
f 174/206/42 183/196/42 182/187/42
f 172/207/39 181/186/39 180/195/39
f 171/208/41 176/200/41 168/209/41
f 168/209/43 177/198/43 169/202/43
f 170/203/30 183/196/30 175/205/30
f 173/210/45 182/187/45 181/186/45
f 171/211/44 180/195/44 179/201/44
f 187/212/41 192/213/41 184/214/41
f 182/215/98 189/210/98 181/216/98
f 179/217/99 188/207/99 187/211/99
f 177/218/100 186/203/101 178/219/101
f 183/204/102 190/206/102 182/215/102
f 180/220/103 189/210/103 188/207/103
f 179/221/104 184/209/104 176/213/104
f 176/213/105 185/202/105 177/218/105
f 196/222/3 198/223/3 194/224/3
f 184/214/43 193/218/43 185/225/43
f 186/226/30 199/204/30 191/227/30
f 190/228/45 197/216/45 189/229/45
f 188/230/44 195/217/44 187/231/44
f 185/225/40 194/219/40 186/226/40
f 191/227/42 198/215/42 190/228/42
f 189/229/39 196/220/39 188/230/39
f 97/160/5 105/141/5 104/165/5
f 98/159/5 105/141/5 96/154/5
f 98/159/5 107/172/5 106/173/5
f 99/151/5 108/171/5 107/172/5
f 101/149/5 108/171/5 100/158/5
f 102/148/5 109/169/5 101/149/5
f 102/156/5 111/166/5 110/168/5
f 103/145/5 104/165/5 111/166/5
f 8/1/1 3/43/1 2/2/1
f 36/4/2 6/75/2 5/5/2
f 21/7/1 30/47/1 27/8/1
f 8/10/1 11/232/1 12/11/1
f 6/1/4 10/43/4 9/2/4
f 12/16/5 11/73/5 41/17/5
f 3/19/2 12/16/2 40/18/2
f 10/20/6 14/125/6 41/21/6
f 6/22/4 13/10/4 14/12/4
f 15/27/6 4/72/6 21/28/6
f 37/30/6 1/34/6 22/31/6
f 16/33/6 19/233/6 22/31/6
f 27/35/6 30/234/6 47/36/6
f 20/38/5 27/35/5 46/37/5
f 18/40/3 26/69/3 45/39/3
f 19/7/4 28/47/4 29/8/4
f 43/42/6 19/66/6 18/40/6
f 7/2/1 32/76/1 1/19/1
f 4/19/4 31/76/4 9/2/4
f 18/44/6 16/235/6 32/45/6
f 26/47/4 18/7/4 34/48/4
f 33/48/1 17/7/1 23/47/1
f 17/50/6 33/236/6 31/51/6
f 9/25/3 31/16/3 33/19/3
f 7/25/3 25/43/3 34/19/3
f 35/54/3 39/237/3 25/55/3
f 24/57/6 23/238/6 45/58/6
f 73/59/4 66/93/4 60/60/4
f 47/39/3 30/38/3 21/35/3
f 77/62/5 78/128/5 79/63/5
f 39/42/6 45/58/6 26/65/6
f 24/67/3 39/237/3 35/54/3
f 20/57/6 43/42/6 42/37/6
f 42/37/3 45/39/3 23/38/3
f 43/39/5 46/37/5 28/40/5
f 46/37/6 47/36/6 29/70/6
f 37/71/6 44/239/6 21/28/6
f 38/17/6 41/21/6 11/7/6
f 36/4/2 40/18/2 13/74/2
f 40/18/5 41/17/5 14/20/5
f 3/19/2 36/4/2 35/6/2
f 29/69/3 49/79/3 48/77/3
f 29/69/3 47/39/3 50/78/3
f 47/39/3 44/37/3 51/80/3
f 22/40/3 48/77/3 51/80/3
f 48/81/6 53/240/6 57/82/6
f 50/84/2 58/109/2 54/85/2
f 51/87/4 57/110/4 58/88/4
f 55/90/3 59/108/3 56/91/3
f 68/61/1 63/60/1 65/93/1
f 74/94/2 65/124/2 66/95/2
f 38/97/5 8/101/5 70/98/5
f 1/100/5 72/106/5 70/98/5
f 61/102/5 67/118/5 64/103/5
f 37/105/5 75/120/5 72/106/5
f 54/107/7 55/90/7 52/92/7
f 53/81/8 52/92/8 56/91/8
f 59/108/9 55/90/9 54/85/9
f 57/110/10 56/241/10 59/111/10
f 49/112/1 54/242/1 53/113/1
f 62/104/11 63/116/11 60/115/11
f 64/103/12 65/119/12 63/116/12
f 61/102/13 60/115/13 66/117/13
f 67/118/14 66/117/14 65/119/14
f 37/105/5 38/97/5 69/99/5
f 71/96/15 68/94/106 69/121/16
f 74/59/18 75/243/18 69/123/18
f 71/115/19 70/98/19 72/106/19
f 73/96/20 72/122/107 75/121/21
f 71/96/6 60/95/6 63/124/6
f 38/21/23 77/62/23 76/64/23
f 37/126/24 78/128/24 77/62/24
f 4/127/25 79/63/25 78/128/25
f 10/125/26 76/64/26 79/63/26
f 82/129/1 83/138/1 80/130/1
f 85/132/4 87/244/4 86/133/4
f 87/135/27 82/245/27 81/136/27
f 84/134/28 86/133/28 81/131/28
f 83/138/29 82/129/29 87/139/29
f 105/141/30 106/173/30 115/142/30
f 88/144/31 97/160/31 103/145/31
f 93/147/32 94/246/32 102/148/32
f 92/150/33 100/158/33 99/151/33
f 90/153/34 98/159/34 96/154/34
f 95/146/35 103/145/35 102/156/35
f 93/147/36 101/149/36 100/158/36
f 91/152/37 99/151/37 98/159/37
f 89/155/38 96/154/38 97/160/38
f 125/161/39 134/190/39 133/162/39
f 105/141/40 112/143/40 113/164/40
f 111/166/41 114/174/41 119/167/41
f 109/169/39 118/176/39 117/170/39
f 107/172/42 116/177/42 115/142/42
f 104/165/43 113/164/43 114/174/43
f 110/175/44 119/247/44 118/176/44
f 108/171/45 117/170/45 116/177/45
f 112/143/5 121/179/5 120/178/5
f 115/142/5 122/180/5 121/179/5
f 116/177/5 123/181/5 122/180/5
f 116/177/5 117/170/5 124/163/5
f 118/176/5 125/161/5 124/163/5
f 118/176/5 119/247/5 126/182/5
f 119/167/5 114/174/5 127/183/5
f 114/174/5 113/164/5 120/178/5
f 132/185/46 133/162/46 141/186/46
f 123/181/42 132/185/42 131/188/42
f 120/178/43 129/192/43 130/189/43
f 126/182/44 135/194/44 134/190/44
f 124/163/45 133/162/45 132/185/45
f 122/180/30 131/188/30 128/191/30
f 121/179/40 128/191/40 129/192/40
f 127/183/41 130/189/41 135/193/41
f 143/194/47 151/201/48 150/195/48
f 128/191/50 131/188/50 139/196/50
f 128/191/51 136/197/108 137/198/51
f 130/189/52 138/200/52 143/199/52
f 133/162/53 134/190/53 142/195/53
f 132/185/54 140/187/54 139/196/54
f 129/192/55 137/198/55 138/200/55
f 134/190/56 135/194/56 143/201/56
f 149/162/57 150/190/57 158/195/57
f 140/185/58 141/162/58 149/186/59
f 139/188/60 147/196/60 144/197/60
f 136/191/61 144/197/62 145/198/62
f 138/189/63 146/200/63 151/199/63
f 141/162/64 142/190/109 150/195/65
f 139/188/66 140/185/66 148/187/66
f 138/189/67 137/192/67 145/198/67
f 152/191/68 160/197/68 161/198/68
f 148/185/69 156/187/69 155/196/69
f 145/192/70 153/198/70 154/200/70
f 151/194/71 159/201/71 158/195/71
f 148/185/72 149/162/72 157/186/72
f 147/188/73 155/196/110 152/197/73
f 144/191/74 152/197/111 153/198/74
f 146/189/75 154/200/75 159/199/75
f 167/194/76 175/201/76 174/195/76
f 154/189/77 162/200/77 167/199/77
f 157/162/78 158/190/78 166/195/78
f 155/188/80 156/185/80 164/187/80
f 153/192/82 161/198/112 162/200/82
f 158/190/83 159/194/83 167/201/83
f 156/185/84 157/162/84 165/186/84
f 155/188/86 163/196/113 160/197/86
f 169/202/40 177/198/40 178/197/40
f 164/185/87 165/162/87 173/186/87
f 163/188/88 171/196/88 168/197/88
f 160/191/89 168/197/90 169/198/90
f 162/189/91 170/200/91 175/199/91
f 165/162/92 166/190/92 174/195/92
f 164/185/93 172/187/93 171/196/93
f 161/192/95 169/198/95 170/200/95
f 183/204/96 178/219/114 186/203/97
f 174/206/42 175/205/42 183/196/42
f 172/207/39 173/210/39 181/186/39
f 171/208/41 179/199/41 176/200/41
f 168/209/43 176/200/43 177/198/43
f 170/203/30 178/197/30 183/196/30
f 173/210/45 174/206/45 182/187/45
f 171/211/44 172/207/44 180/195/44
f 187/212/41 195/221/41 192/213/41
f 182/215/98 190/206/98 189/210/98
f 179/217/99 180/220/99 188/207/99
f 177/218/100 185/202/100 186/203/101
f 183/204/102 191/205/115 190/206/102
f 180/220/103 181/216/103 189/210/103
f 179/221/104 187/208/116 184/209/104
f 176/213/105 184/209/117 185/202/105
f 194/224/3 193/248/3 192/249/3
f 192/249/3 195/250/3 196/222/3
f 196/222/3 197/251/3 198/223/3
f 198/223/3 199/252/3 194/224/3
f 194/224/3 192/249/3 196/222/3
f 184/214/43 192/213/43 193/218/43
f 186/226/30 194/219/30 199/204/30
f 190/228/45 198/215/45 197/216/45
f 188/230/44 196/220/44 195/217/44
f 185/225/40 193/218/40 194/219/40
f 191/227/42 199/204/42 198/215/42
f 189/229/39 197/216/39 196/220/39
f 97/160/5 96/154/5 105/141/5
f 98/159/5 106/173/5 105/141/5
f 98/159/5 99/151/5 107/172/5
f 99/151/5 100/158/5 108/171/5
f 101/149/5 109/169/5 108/171/5
f 102/148/5 110/175/5 109/169/5
f 102/156/5 103/145/5 111/166/5
f 103/145/5 97/160/5 104/165/5
