# Blender 5.0.1
# www.blender.org
mtllib BootR.mtl
o BootR
v -0.118401 -0.001029 -0.048290
v -0.118401 0.103166 -0.048290
v -0.118401 -0.001029 0.048354
v -0.118401 0.103166 0.048354
v 0.136457 -0.001029 -0.053413
v 0.129755 0.049875 -0.053413
v 0.133177 -0.001029 0.043372
v 0.126474 0.044609 0.043372
v 0.071599 -0.003758 0.056744
v 0.023110 -0.001029 0.051145
v -0.035167 0.006490 0.048354
v -0.034009 0.101198 0.048354
v 0.001772 0.067343 0.051145
v 0.057598 0.049769 0.056744
v -0.035167 0.006490 -0.052074
v 0.023110 -0.001029 -0.054865
v 0.083871 -0.003758 -0.060464
v 0.069869 0.049769 -0.056680
v 0.001772 0.067343 -0.051082
v -0.034009 0.101198 -0.048290
v -0.147752 -0.000729 0.024951
v -0.147752 -0.000729 -0.024887
v -0.133477 0.128636 -0.021831
v -0.133477 0.128636 0.021894
v 0.156768 -0.000729 -0.028658
v 0.153487 -0.000729 0.018617
v 0.146785 0.058095 0.018617
v 0.150065 0.058095 -0.028658
v 0.077975 0.055292 0.025404
v 0.082545 0.055292 -0.032319
v 0.021470 0.076489 0.026390
v 0.021470 0.076489 -0.030078
v -0.030133 0.152297 0.021894
v -0.030133 0.152297 -0.021831
v -0.035969 0.006790 0.024951
v -0.035969 0.006790 -0.024887
v 0.024652 -0.000729 0.026390
v 0.024652 -0.000729 -0.030078
v 0.091976 -0.003425 0.025404
v 0.096546 -0.003425 -0.032319
v -0.068701 -0.001029 0.051527
v -0.088066 0.096330 -0.051463
v -0.088066 0.096330 0.051527
v -0.068701 -0.001029 -0.051463
v -0.071841 -0.000729 0.023983
v -0.071841 -0.000729 -0.023920
v -0.098128 0.121801 0.039156
v -0.098128 0.121801 -0.039092
v -0.143826 0.128636 -0.028833
v -0.143826 0.128636 0.028897
v -0.019785 0.152297 0.028897
v -0.019785 0.152297 -0.028833
v -0.098128 0.121801 0.049090
v -0.098128 0.121801 -0.049027
v -0.134405 0.010733 -0.018842
v -0.134405 0.010733 0.018906
v -0.031363 0.010733 0.018906
v -0.031363 0.010733 -0.018842
v -0.098128 0.010733 0.033807
v -0.098128 0.010733 -0.033743
v -0.118401 0.050084 -0.048290
v -0.118401 0.050084 0.050516
v 0.133177 0.024528 0.043372
v 0.136457 0.024528 -0.056906
v 0.084712 0.024598 -0.062134
v 0.016633 0.035883 -0.058712
v -0.027243 0.050084 -0.055920
v -0.027243 0.050084 0.051912
v 0.016633 0.035883 0.053308
v 0.072440 0.024598 0.058906
v 0.153487 0.025789 0.018617
v 0.156768 0.025789 -0.028658
v -0.143166 0.051130 -0.026860
v -0.143166 0.051130 0.026924
v -0.088066 0.050084 0.053689
v -0.088066 0.050084 -0.056963
vn -0.6233 -0.0252 0.7815
vn 0.2012 0.2010 0.9587
vn 0.7384 0.1532 -0.6567
vn -0.2731 0.1136 -0.9552
vn 0.0463 -0.9986 -0.0259
vn -0.3388 0.3338 -0.8797
vn -0.0235 0.9544 -0.2977
vn 0.2949 0.8873 -0.3546
vn 0.3942 0.2291 -0.8900
vn 0.2059 -0.9780 0.0341
vn -0.1225 -0.9924 0.0073
vn -0.0366 -0.9989 0.0283
vn 0.0994 0.1616 -0.9818
vn -0.0156 0.2030 -0.9791
vn 0.0170 0.2433 -0.9698
vn 0.0543 0.0466 0.9974
vn -0.0138 0.0676 0.9976
vn -0.0920 0.0250 0.9954
vn -0.0544 -0.9984 -0.0155
vn -0.0400 -0.9992 -0.0000
vn -0.1270 -0.9917 -0.0199
vn -0.1231 -0.9924 -0.0000
vn 0.2170 -0.9760 -0.0199
vn 0.2052 -0.9787 -0.0000
vn 0.5105 0.5910 0.6246
vn 0.8784 0.4780 -0.0000
vn 0.2177 0.8464 0.4860
vn 0.3512 0.9363 -0.0000
vn 0.1201 0.9614 0.2475
vn -0.0410 0.9992 -0.0032
vn -0.0906 0.0593 0.9941
vn 0.4417 0.0193 0.8970
vn 0.0488 -0.9986 0.0212
vn 0.0442 -0.9990 0.0035
vn 0.7427 0.2479 0.6220
vn 0.9769 0.2027 0.0678
vn -0.6544 -0.0000 -0.7562
vn -1.0000 -0.0085 -0.0000
vn 0.0480 0.1139 0.9923
vn -0.0000 -1.0000 -0.0000
vn 0.0007 -0.9999 -0.0110
vn -0.0949 0.0405 0.9947
vn -0.0002 -0.9999 0.0126
vn 0.1153 0.3253 -0.9386
vn 0.0170 0.1498 -0.9886
vn -0.0000 1.0000 -0.0000
vn -0.4092 0.9124 -0.0000
vn 0.1899 0.9818 -0.0000
vn -0.2555 0.0226 0.9665
vn -1.0000 0.0087 -0.0000
vn 0.4417 0.0193 -0.8970
vn -0.2555 0.0226 -0.9665
vn 1.0000 -0.0079 -0.0000
vn 0.0171 -0.0910 -0.9957
vn -0.1039 -0.0420 0.9937
vn -0.9961 0.0881 -0.0000
vn 0.9976 -0.0000 0.0692
vn 0.7731 -0.0000 0.6343
vn -0.1152 -0.0782 0.9903
vn -0.0548 -0.0713 0.9959
vn 0.0955 -0.0059 0.9954
vn -0.0622 -0.1143 -0.9915
vn -0.0941 -0.0558 -0.9940
vn 0.0994 -0.1347 -0.9859
vn -0.0632 -0.1304 -0.9894
vn 0.7731 -0.0000 -0.6343
vn 0.2149 -0.0806 0.9733
vn -0.6231 0.0254 0.7818
vn -0.6888 0.0295 0.7243
vn 0.2470 0.0824 0.9655
vn 0.7728 0.2826 -0.5683
vn -0.1040 -0.0000 -0.9946
vn 0.0535 -0.9985 -0.0123
vn -0.0906 0.0593 -0.9941
vn 0.0106 0.9740 -0.2264
vn 0.1721 0.8339 -0.5245
vn 0.4721 0.5554 -0.6846
vn 0.2191 -0.9756 0.0172
vn -0.1270 -0.9917 0.0199
vn -0.0435 -0.9989 0.0148
vn 0.0524 0.2409 -0.9691
vn -0.0218 0.2259 -0.9739
vn 0.0712 0.1565 -0.9851
vn 0.0291 0.0733 0.9969
vn -0.0113 0.0633 0.9979
vn -0.0937 0.0302 0.9951
vn -0.0405 -0.9985 -0.0369
vn -0.0376 -0.9993 -0.0030
vn -0.1229 -0.9924 -0.0085
vn 0.2059 -0.9780 -0.0341
vn 0.4394 0.2102 0.8733
vn 0.3321 0.8681 0.3689
vn 0.3286 0.9441 0.0260
vn 0.0124 0.8738 0.4862
vn -0.0413 0.9991 -0.0029
vn -0.3388 0.3338 0.8797
vn 0.3796 0.0445 0.9241
vn 0.0467 -0.9986 0.0262
vn 0.0445 -0.9990 0.0031
vn 0.7227 0.1499 0.6747
vn -0.6233 -0.0252 -0.7815
vn 0.1153 0.3253 0.9386
vn -0.0002 -0.9999 -0.0126
vn -0.1039 0.0465 0.9935
vn 0.0007 -0.9999 0.0110
vn 0.0480 0.1139 -0.9923
vn 0.0476 0.1180 -0.9919
vn -0.2518 0.8934 0.3722
vn -0.2518 0.8934 -0.3722
vn 0.0893 0.9872 0.1320
vn 0.0893 0.9872 -0.1320
vn -0.2176 0.0469 0.9749
vn 0.3796 0.0445 -0.9241
vn -0.2176 0.0469 -0.9749
vn 0.0054 -0.1050 -0.9945
vn -0.0636 -0.0662 0.9958
vn -0.6231 0.0254 -0.7818
vn -0.1184 -0.0720 0.9904
vn -0.0565 -0.0683 0.9961
vn 0.0291 -0.0866 0.9958
vn -0.0865 -0.0720 -0.9936
vn -0.0689 -0.1154 -0.9909
vn 0.1358 -0.0623 -0.9888
vn -0.2749 -0.0000 -0.9615
vn 0.8110 -0.0792 -0.5796
vn 0.2478 -0.0000 0.9688
vn -0.6901 -0.0306 0.7230
vt 0.663692 0.010356
vt 0.772918 0.063297
vt 0.825682 0.003994
vt 0.623678 0.487313
vt 0.671030 0.594673
vt 0.675338 0.454143
vt 0.191047 0.838833
vt 0.249297 0.768144
vt 0.189988 0.757493
vt 0.433210 0.061640
vt 0.335441 0.122187
vt 0.432942 0.124938
vt 0.211408 0.152284
vt 0.260998 0.058372
vt 0.202803 0.010620
vt 0.879192 0.331861
vt 0.854750 0.371471
vt 0.907811 0.404845
vt 0.987316 0.855219
vt 0.941610 0.723133
vt 0.930123 0.859454
vt 0.997816 0.721825
vt 0.939340 0.612828
vt 1.000592 0.503246
vt 0.941696 0.413884
vt 0.256415 0.540584
vt 0.193943 0.463313
vt 0.191665 0.547954
vt 0.257854 0.461441
vt 0.206141 0.321150
vt 0.277571 0.182092
vt 0.469286 0.488265
vt 0.413078 0.595194
vt 0.466201 0.610727
vt 0.450855 0.357363
vt 0.416668 0.455749
vt 0.429095 0.252355
vt 0.384724 0.324473
vt 0.663840 0.131421
vt 0.775504 0.239053
vt 0.760781 0.127655
vt 0.668807 0.257571
vt 0.707286 0.323934
vt 0.642468 0.357584
vt 0.073394 0.321150
vt 0.002035 0.210935
vt 0.015198 0.324788
vt 0.075709 0.163026
vt 0.021765 0.461441
vt 0.076783 0.463313
vt 0.014302 0.540584
vt 0.079053 0.547954
vt 0.809225 0.609410
vt 0.745168 0.496535
vt 0.752267 0.604727
vt 0.808675 0.410389
vt 0.736818 0.701443
vt 0.808735 0.714605
vt 0.764115 0.856405
vt 0.821285 0.852979
vt 0.937055 0.327476
vt 0.961557 0.367280
vt 0.982891 0.318708
vt 0.287078 0.682265
vt 0.371483 0.625344
vt 0.376677 0.678485
vt 0.033470 0.066082
vt 0.091666 0.018330
vt 0.074214 0.838833
vt 0.010491 0.782394
vt 0.011378 0.834029
vt 0.073155 0.757493
vt 0.428669 0.010293
vt 0.322431 0.058310
vt 0.464118 0.785278
vt 0.573305 0.941615
vt 0.571574 0.786813
vt 0.991623 0.228108
vt 0.193940 0.726379
vt 0.076780 0.726379
vt 0.021762 0.657403
vt 0.661672 0.067544
vt 0.248957 0.657403
vt 0.824727 0.231375
vt 0.907811 0.190600
vt 0.321460 0.235187
vt 0.881610 0.177873
vt 0.954200 0.163073
vt 0.891626 0.163073
vt 0.963929 0.001764
vt 0.891339 0.016563
vt 0.953912 0.016563
vt 0.993176 0.112151
vt 0.978959 0.112151
vt 0.852764 0.112151
vt 0.866982 0.112151
vt 0.626423 0.705595
vt 0.626468 0.866387
vt 0.708652 0.762204
vt 0.287078 0.532413
vt 0.394658 0.534858
vt 0.287078 0.919169
vt 0.394658 0.876865
vt 0.394658 0.921615
vt 0.371483 0.786379
vt 0.287078 0.729458
vt 0.376677 0.733238
vt 0.287078 0.879310
vt 0.519861 0.238599
vt 0.554874 0.070630
vt 0.469543 0.681498
vt 0.569115 0.682920
vt 0.539882 0.064847
vt 0.191421 0.903274
vt 0.074588 0.903274
vt 0.011738 0.896132
vt 0.565902 0.373148
vt 0.577222 0.243307
vt 0.558580 0.174805
vt 0.526810 0.373349
vt 0.528214 0.488328
vt 0.518910 0.612425
vt 0.537462 0.168854
vt 0.257178 0.898777
vt 0.576058 0.611832
vt 0.564437 0.487046
vt 0.554954 0.003994
vt 0.629540 0.610033
vt 0.258867 0.832472
vt 0.833338 0.323202
vt 0.987821 0.610915
vt 0.264413 0.324788
vt 0.909084 0.404440
vt 0.287078 0.627762
vt 0.267311 0.003994
vt 0.457965 0.939968
vt 0.909084 0.191207
vt 0.964224 0.177873
vt 0.881315 0.001764
vt 0.685367 0.705595
vt 0.603170 0.762204
vt 0.685412 0.866387
vt 0.287078 0.783961
vt 0.536820 0.003994
s 0
usemtl Boot
f 74/1/1 4/2/1 50/3/1
f 70/4/2 8/5/2 14/6/2
f 72/7/3 6/8/3 28/9/3
f 61/10/4 42/11/4 76/12/4
f 40/13/5 5/14/5 25/15/5
f 54/16/6 2/17/6 49/18/6
f 6/19/7 30/20/7 28/21/7
f 18/22/8 32/23/8 30/20/8
f 32/23/9 20/24/9 52/25/9
f 44/26/10 36/27/10 46/28/10
f 15/29/11 38/30/11 36/27/11
f 38/30/12 17/31/12 40/13/12
f 65/32/13 6/33/13 64/34/13
f 66/35/14 18/36/14 65/32/14
f 67/37/15 19/38/15 66/35/15
f 75/39/16 12/40/16 43/41/16
f 68/42/17 13/43/17 12/40/17
f 69/44/18 14/6/18 13/43/18
f 37/45/19 9/46/19 10/47/19
f 38/30/20 39/48/20 37/45/20
f 11/49/21 37/45/21 10/47/21
f 36/27/22 37/45/22 35/50/22
f 41/51/23 35/50/23 11/49/23
f 46/28/24 35/50/24 45/52/24
f 31/53/25 12/54/25 13/55/25
f 31/53/26 52/25/26 51/56/26
f 14/57/27 31/53/27 13/55/27
f 29/58/28 32/23/28 31/53/28
f 8/59/29 29/58/29 14/57/29
f 27/60/30 30/20/30 29/58/30
f 53/61/31 4/62/31 43/63/31
f 55/64/32 48/65/32 23/66/32
f 39/48/33 7/67/33 9/46/33
f 40/13/34 26/68/34 39/48/34
f 71/69/35 8/70/35 63/71/35
f 71/69/36 28/9/36 27/72/36
f 73/73/37 2/74/37 61/10/37
f 74/75/38 49/76/38 73/77/38
f 12/78/39 53/61/39 43/63/39
f 22/79/40 45/52/40 21/80/40
f 3/81/41 45/52/41 41/51/41
f 62/82/42 43/41/42 4/2/42
f 1/83/43 46/28/43 22/79/43
f 20/84/44 54/16/44 52/85/44
f 76/12/45 20/86/45 67/37/45
f 49/87/46 24/88/46 23/89/46
f 51/90/46 34/91/46 33/92/46
f 53/93/47 33/92/47 47/94/47
f 34/91/47 54/95/47 48/96/47
f 24/88/48 53/93/48 47/94/48
f 54/95/48 23/89/48 48/96/48
f 56/97/46 57/98/46 60/99/46
f 48/65/49 58/100/49 34/101/49
f 58/102/50 33/103/50 34/104/50
f 47/105/51 56/106/51 24/107/51
f 57/108/52 47/105/52 33/103/52
f 56/106/53 23/66/53 24/107/53
f 15/109/54 76/12/54 67/37/54
f 3/110/55 75/39/55 62/82/55
f 21/111/56 73/77/56 22/112/56
f 1/113/37 73/73/37 61/10/37
f 25/114/57 71/69/57 26/115/57
f 26/115/58 63/71/58 7/116/58
f 10/117/59 70/4/59 69/44/59
f 11/118/60 69/44/60 68/42/60
f 11/118/61 75/39/61 41/119/61
f 15/109/62 66/35/62 16/120/62
f 16/120/63 65/32/63 17/121/63
f 5/122/64 65/32/64 64/34/64
f 1/113/65 76/12/65 44/123/65
f 5/124/66 72/7/66 25/114/66
f 7/125/67 70/4/67 9/126/67
f 3/110/68 74/1/68 21/127/68
f 74/1/69 62/82/69 4/2/69
f 70/4/70 63/128/70 8/5/70
f 72/7/71 64/129/71 6/8/71
f 61/10/72 2/74/72 42/11/72
f 40/13/73 17/31/73 5/14/73
f 54/16/74 42/130/74 2/17/74
f 6/19/75 18/22/75 30/20/75
f 18/22/76 19/131/76 32/23/76
f 32/23/77 19/131/77 20/24/77
f 44/26/78 15/29/78 36/27/78
f 15/29/79 16/132/79 38/30/79
f 38/30/80 16/132/80 17/31/80
f 65/32/81 18/36/81 6/33/81
f 66/35/82 19/38/82 18/36/82
f 67/37/83 20/86/83 19/38/83
f 75/39/84 68/42/84 12/40/84
f 68/42/85 69/44/85 13/43/85
f 69/44/86 70/4/86 14/6/86
f 37/45/87 39/48/87 9/46/87
f 38/30/88 40/13/88 39/48/88
f 11/49/89 35/50/89 37/45/89
f 36/27/22 38/30/22 37/45/22
f 41/51/90 45/52/90 35/50/90
f 46/28/24 36/27/24 35/50/24
f 31/53/91 51/56/91 12/54/91
f 31/53/26 32/23/26 52/25/26
f 14/57/92 29/58/92 31/53/92
f 29/58/93 30/20/93 32/23/93
f 8/59/94 27/60/94 29/58/94
f 27/60/95 28/21/95 30/20/95
f 53/61/96 50/133/96 4/62/96
f 55/64/97 60/134/97 48/65/97
f 39/48/98 26/68/98 7/67/98
f 40/13/99 25/15/99 26/68/99
f 71/69/100 27/72/100 8/70/100
f 71/69/36 72/7/36 28/9/36
f 73/73/101 49/135/101 2/74/101
f 74/75/38 50/136/38 49/76/38
f 12/78/102 51/137/102 53/61/102
f 22/79/40 46/28/40 45/52/40
f 3/81/103 21/80/103 45/52/103
f 62/82/104 75/39/104 43/41/104
f 1/83/105 44/26/105 46/28/105
f 20/84/106 42/130/106 54/16/106
f 76/12/107 42/11/107 20/86/107
f 49/87/46 50/138/46 24/88/46
f 51/90/46 52/139/46 34/91/46
f 53/93/108 51/90/108 33/92/108
f 34/91/109 52/139/109 54/95/109
f 24/88/110 50/138/110 53/93/110
f 54/95/111 49/87/111 23/89/111
f 60/99/46 55/140/46 56/97/46
f 56/97/46 59/141/46 57/98/46
f 57/98/46 58/142/46 60/99/46
f 48/65/112 60/134/112 58/100/112
f 58/102/50 57/108/50 33/103/50
f 47/105/113 59/143/113 56/106/113
f 57/108/114 59/143/114 47/105/114
f 56/106/53 55/64/53 23/66/53
f 15/109/115 44/123/115 76/12/115
f 3/110/116 41/119/116 75/39/116
f 21/111/56 74/75/56 73/77/56
f 1/113/117 22/144/117 73/73/117
f 25/114/57 72/7/57 71/69/57
f 26/115/58 71/69/58 63/71/58
f 10/117/118 9/126/118 70/4/118
f 11/118/119 10/117/119 69/44/119
f 11/118/120 68/42/120 75/39/120
f 15/109/121 67/37/121 66/35/121
f 16/120/122 66/35/122 65/32/122
f 5/122/123 17/121/123 65/32/123
f 1/113/124 61/10/124 76/12/124
f 5/124/125 64/129/125 72/7/125
f 7/125/126 63/128/126 70/4/126
f 3/110/127 62/82/127 74/1/127
