# Blender 5.0.1
# www.blender.org
mtllib CleningSpray.mtl
o CleningSpray
v -0.000000 0.024449 -0.049240
v -0.019511 0.024449 -0.037252
v -0.026848 0.024449 0.000000
v -0.019511 0.024449 0.037252
v -0.000000 0.024449 0.049240
v 0.019511 0.024449 0.037252
v 0.026848 0.024449 0.000000
v 0.019511 0.024449 -0.037252
v -0.000000 0.000000 -0.042118
v 0.016689 0.000000 -0.031864
v 0.022965 0.000000 0.000000
v 0.016689 0.000000 0.031864
v -0.000000 0.000000 0.042118
v -0.016689 0.000000 0.031864
v -0.022965 0.000000 0.000000
v -0.016689 0.000000 -0.031864
v -0.000000 0.078332 -0.049240
v 0.019511 0.078332 -0.037252
v 0.026848 0.078332 0.000000
v 0.019511 0.078332 0.037252
v -0.000000 0.078332 0.049240
v -0.019511 0.078332 0.037252
v -0.026848 0.078332 0.000000
v -0.019511 0.078332 -0.037252
v 0.012969 0.106145 -0.006678
v 0.017846 0.106145 0.013128
v 0.012969 0.106145 0.034022
v -0.000000 0.106145 0.041991
v -0.012969 0.106145 0.034022
v -0.017846 0.106145 0.013128
v -0.000000 0.106145 -0.013052
v -0.012969 0.106145 -0.006678
v -0.007870 0.165726 -0.036522
v -0.007870 0.181728 -0.036522
v 0.007870 0.165726 -0.036522
v 0.007870 0.181728 -0.036522
v 0.006270 0.142823 -0.015508
v -0.006270 0.142823 -0.015508
v 0.006270 0.162509 0.012606
v -0.006270 0.162509 0.012606
v -0.000000 0.105842 0.006715
v -0.000000 0.158161 0.006715
v 0.011115 0.105842 0.014918
v 0.011115 0.158161 0.014918
v 0.011115 0.105842 0.031324
v 0.011115 0.158161 0.031324
v -0.000000 0.105842 0.039527
v -0.000000 0.158161 0.039527
v -0.011115 0.105842 0.031324
v -0.011115 0.158161 0.031324
v -0.011115 0.105842 0.014918
v -0.011115 0.158161 0.014918
v -0.000000 0.132002 0.011717
v 0.011115 0.132002 0.018373
v 0.011115 0.132002 0.031324
v -0.000000 0.132002 0.039527
v -0.011115 0.132002 0.031324
v -0.011115 0.132002 0.018373
v -0.012679 0.183267 0.001830
v -0.012679 0.157909 0.001830
v 0.012679 0.157909 0.001830
v 0.012679 0.183267 0.001830
v -0.006270 0.141324 -0.014458
v -0.006270 0.161009 0.013656
v 0.006270 0.141324 -0.014458
v 0.006270 0.161009 0.013656
v -0.009263 0.157909 0.041549
v -0.012679 0.157909 0.038132
v -0.012679 0.183267 0.038132
v -0.009263 0.183267 0.041549
v 0.012679 0.157909 0.038132
v 0.009263 0.157909 0.041549
v 0.009263 0.183267 0.041549
v 0.012679 0.183267 0.038132
vn -0.9694 -0.1540 -0.1910
vn -0.5081 -0.2409 0.8269
vn 0.5081 -0.2409 0.8269
vn 0.9694 -0.1540 0.1910
vn 0.9694 -0.1540 -0.1910
vn 0.5081 -0.2409 -0.8269
vn -0.5081 -0.2409 -0.8269
vn -0.8970 0.4052 -0.1767
vn -0.9694 -0.1540 0.1910
vn -0.0000 -1.0000 -0.0000
vn -0.5235 -0.0000 -0.8520
vn -0.9811 -0.0000 -0.1933
vn -0.9811 -0.0000 0.1933
vn -0.5235 -0.0000 0.8520
vn 0.5235 -0.0000 0.8520
vn 0.9811 -0.0000 0.1933
vn 0.9811 -0.0000 -0.1933
vn 0.5235 -0.0000 -0.8520
vn 0.9435 0.2475 0.2202
vn 0.8929 0.3928 -0.2199
vn -0.0000 1.0000 -0.0000
vn 0.5111 0.2168 0.8318
vn -0.9569 0.2208 0.1885
vn -0.3506 0.7425 -0.5707
vn 0.2981 0.7370 -0.6066
vn -0.5111 0.2168 0.8318
vn -0.0000 -0.0000 -1.0000
vn -0.0000 0.8192 -0.5736
vn 0.5105 -0.1126 -0.8525
vn 1.0000 -0.0000 -0.0000
vn 0.5938 -0.0000 0.8046
vn -0.5938 -0.0000 0.8046
vn -1.0000 -0.0000 -0.0000
vn -0.5105 -0.1126 -0.8525
vn -0.5869 0.1521 -0.7953
vn 0.5869 0.1521 -0.7953
vn -0.9922 -0.0000 -0.1244
vn -0.0000 -0.9799 -0.1997
vn -0.0000 0.9992 -0.0401
vn 0.9922 -0.0000 -0.1244
vn -0.0000 -0.8192 0.5736
vn -0.0000 -0.5736 -0.8192
vn -0.7071 -0.0000 0.7071
vn 0.7071 -0.0000 0.7071
vn -0.0000 -0.0000 1.0000
vn -0.8929 0.3928 -0.2199
vn 0.9569 0.2208 0.1885
vn 0.8970 0.4052 -0.1767
vn -0.9435 0.2475 0.2202
vn -0.2981 0.7370 -0.6066
vn 0.3506 0.7425 -0.5707
vn 0.5869 -0.1521 -0.7953
vn -0.5869 -0.1521 -0.7953
vn -0.5105 0.1126 -0.8525
vn 0.5105 0.1126 -0.8525
vt 0.250000 0.125000
vt 0.062500 0.000000
vt 0.250000 0.000000
vt 0.500000 0.000000
vt 0.375000 0.125000
vt 0.375000 0.000000
vt 0.625000 0.125000
vt 0.625000 0.000000
vt 0.750000 0.125000
vt 0.750000 0.000000
vt 0.937500 0.000000
vt 1.000000 0.000000
vt 0.937500 0.062500
vt 0.062500 0.062500
vt -0.000000 0.000000
vt 0.250000 0.312500
vt 0.187500 0.437500
vt 0.062500 0.312500
vt 0.000000 0.687500
vt 0.375000 0.687500
vt -0.000000 0.062500
vt 0.062500 0.125000
vt 0.375000 0.312500
vt 0.500000 0.312500
vt 0.500000 0.125000
vt 0.625000 0.312500
vt 0.750000 0.312500
vt 0.937500 0.312500
vt 0.937500 0.125000
vt 1.000000 0.312500
vt 1.000000 0.062500
vt 0.750000 0.437500
vt 0.625000 0.437500
vt 0.812500 0.437500
vt 0.187500 0.875000
vt 0.062500 0.687500
vt 0.187500 0.500000
vt 0.500000 0.437500
vt 0.250000 0.437500
vt -0.000000 0.437500
vt -0.000000 0.312500
vt 1.000000 0.437500
vt 0.937500 0.437500
vt 0.375000 0.437500
vt 0.812500 1.000000
vt 0.750000 0.937500
vt 0.812500 0.937500
vt 0.500000 0.625000
vt 0.562500 0.500000
vt 0.562500 0.625000
vt 1.000000 0.562500
vt 0.937500 0.687500
vt 0.937500 0.562500
vt 0.875000 0.687500
vt 0.875000 0.562500
vt 0.812500 0.562500
vt 0.812500 0.687500
vt 0.750000 0.562500
vt 0.750000 0.687500
vt 0.687500 0.562500
vt 0.687500 0.687500
vt 0.625000 0.562500
vt 0.687500 0.437500
vt 0.875000 0.437500
vt 1.000000 0.812500
vt 1.000000 0.687500
vt 0.937500 0.812500
vt 0.750000 0.812500
vt 0.812500 0.812500
vt 0.875000 0.812500
vt 0.500000 0.500000
vt 0.500000 0.562500
vt 0.562500 0.562500
vt 1.000000 0.937500
vt 0.937500 1.000000
vt 0.937500 0.937500
vt 0.875000 0.937500
vt 0.937500 0.925368
vt 0.875000 1.000000
vt 0.750000 0.925368
vt 0.312500 0.875000
vt 0.187500 0.937500
vt 0.062500 0.875000
vt 0.062500 0.500000
vt 0.312500 0.500000
vt 0.250000 0.562500
vt 0.312500 0.687500
vt 0.250000 0.812500
vt 0.125000 0.812500
vt 0.125000 0.562500
vt 0.062500 0.437500
vt 0.750000 1.000000
vt 0.625000 0.687500
vt 1.000000 1.000000
vt 0.875000 0.925368
vt 0.812500 0.925368
s 0
usemtl 16x16grid
f 3/1/1 16/2/1 15/3/1
f 13/4/2 4/5/2 14/6/2
f 6/7/3 13/4/3 12/8/3
f 7/9/4 12/8/4 11/10/4
f 10/11/5 7/9/5 11/10/5
f 9/12/6 8/13/6 10/11/6
f 2/14/7 9/15/7 16/2/7
f 23/16/8 32/17/8 24/18/8
f 14/6/9 3/1/9 15/3/9
f 11/19/10 13/17/10 15/20/10
f 24/18/11 1/21/11 2/14/11
f 23/16/12 2/22/12 3/1/12
f 22/23/13 3/1/13 4/5/13
f 21/24/14 4/5/14 5/25/14
f 20/26/15 5/25/15 6/7/15
f 19/27/16 6/7/16 7/9/16
f 18/28/17 7/9/17 8/29/17
f 17/30/18 8/13/18 1/31/18
f 20/26/19 26/32/19 27/33/19
f 19/27/20 25/34/20 26/32/20
f 28/35/21 26/36/21 31/37/21
f 21/24/22 27/33/22 28/38/22
f 22/23/23 30/39/23 23/16/23
f 24/18/24 31/40/24 17/41/24
f 18/28/25 31/42/25 25/43/25
f 21/24/26 29/44/26 22/23/26
f 34/45/27 35/46/27 33/47/27
f 39/48/28 38/49/28 40/50/28
f 53/51/29 44/52/29 54/53/29
f 54/53/30 46/54/30 55/55/30
f 46/54/31 56/56/31 55/55/31
f 48/57/32 57/58/32 56/56/32
f 50/59/33 58/60/33 57/58/33
f 52/61/34 53/62/34 58/60/34
f 51/63/35 53/62/35 41/33/35
f 49/32/33 58/60/33 51/63/33
f 56/56/32 49/32/32 47/34/32
f 55/55/31 47/34/31 45/64/31
f 54/53/30 45/64/30 43/43/30
f 53/51/36 43/43/36 41/42/36
f 33/52/37 59/65/37 34/66/37
f 35/54/38 60/67/38 33/52/38
f 34/57/39 62/68/39 36/59/39
f 35/54/40 62/69/40 61/70/40
f 63/50/41 66/71/41 64/49/41
f 66/48/30 37/49/30 39/50/30
f 65/72/42 38/49/42 37/73/42
f 38/71/33 64/50/33 40/48/33
f 70/74/43 68/75/43 67/76/43
f 72/77/44 74/45/44 73/47/44
f 61/70/10 72/77/10 68/78/10
f 69/74/33 60/67/33 68/76/33
f 73/77/45 67/75/45 72/79/45
f 59/69/21 70/47/21 74/80/21
f 62/69/30 71/77/30 61/70/30
f 3/1/1 2/22/1 16/2/1
f 13/4/2 5/25/2 4/5/2
f 6/7/3 5/25/3 13/4/3
f 7/9/4 6/7/4 12/8/4
f 10/11/5 8/29/5 7/9/5
f 9/12/6 1/31/6 8/13/6
f 2/14/7 1/21/7 9/15/7
f 23/16/46 30/39/46 32/17/46
f 14/6/9 4/5/9 3/1/9
f 15/20/10 16/81/10 9/82/10
f 9/82/10 10/83/10 11/19/10
f 11/19/10 12/84/10 13/17/10
f 13/17/10 14/85/10 15/20/10
f 15/20/10 9/82/10 11/19/10
f 24/18/11 17/41/11 1/21/11
f 23/16/12 24/18/12 2/22/12
f 22/23/13 23/16/13 3/1/13
f 21/24/14 22/23/14 4/5/14
f 20/26/15 21/24/15 5/25/15
f 19/27/16 20/26/16 6/7/16
f 18/28/17 19/27/17 7/9/17
f 17/30/18 18/28/18 8/13/18
f 20/26/47 19/27/47 26/32/47
f 19/27/48 18/28/48 25/34/48
f 31/37/21 32/86/21 30/87/21
f 30/87/21 29/88/21 28/35/21
f 28/35/21 27/89/21 26/36/21
f 26/36/21 25/90/21 31/37/21
f 31/37/21 30/87/21 28/35/21
f 21/24/22 20/26/22 27/33/22
f 22/23/49 29/44/49 30/39/49
f 24/18/50 32/91/50 31/40/50
f 18/28/51 17/30/51 31/42/51
f 21/24/26 28/38/26 29/44/26
f 34/45/27 36/92/27 35/46/27
f 39/48/28 37/71/28 38/49/28
f 53/51/52 42/66/52 44/52/52
f 54/53/30 44/52/30 46/54/30
f 46/54/31 48/57/31 56/56/31
f 48/57/32 50/59/32 57/58/32
f 50/59/33 52/61/33 58/60/33
f 52/61/53 42/93/53 53/62/53
f 51/63/54 58/60/54 53/62/54
f 49/32/33 57/58/33 58/60/33
f 56/56/32 57/58/32 49/32/32
f 55/55/31 56/56/31 47/34/31
f 54/53/30 55/55/30 45/64/30
f 53/51/55 54/53/55 43/43/55
f 33/52/37 60/67/37 59/65/37
f 35/54/38 61/70/38 60/67/38
f 34/57/39 59/69/39 62/68/39
f 35/54/40 36/57/40 62/69/40
f 63/50/41 65/48/41 66/71/41
f 66/48/30 65/71/30 37/49/30
f 65/72/42 63/71/42 38/49/42
f 38/71/33 63/49/33 64/50/33
f 70/74/43 69/94/43 68/75/43
f 72/77/44 71/79/44 74/45/44
f 68/78/10 60/67/10 61/70/10
f 61/70/10 71/95/10 72/77/10
f 72/77/10 67/76/10 68/78/10
f 69/74/33 59/65/33 60/67/33
f 73/77/45 70/76/45 67/75/45
f 74/80/21 62/68/21 59/69/21
f 59/69/21 69/96/21 70/47/21
f 70/47/21 73/46/21 74/80/21
f 62/69/30 74/47/30 71/77/30
