# Blender 5.1.1
# www.blender.org
mtllib Janitor.mtl
o Janitor
v -1.700000 0.000000 -5.900000
v 0.100000 0.000000 -5.900000
v 0.100000 0.000000 -7.400000
v 0.100000 0.000000 -8.400001
v 0.100000 0.000000 -8.900001
v -1.700000 0.000000 -8.900001
v 0.300000 0.000000 -7.400000
v 0.300000 0.000000 -8.400000
v -1.700000 3.000000 -5.900000
v 0.100000 3.000000 -5.900000
v 0.100000 3.000000 -8.900001
v -1.700000 3.000000 -8.900001
v 0.100000 2.000000 -7.400000
v 0.100000 2.000000 -8.400001
v 0.100000 3.000000 -7.400000
v 0.100000 3.000000 -8.400001
v 0.300000 2.000000 -7.400000
v 0.300000 2.000000 -8.400001
vn -0.0000 1.0000 -0.0000
vn -0.0000 -0.0000 1.0000
vn 1.0000 -0.0000 -0.0000
vn -0.0000 -0.0000 -1.0000
vn -1.0000 -0.0000 -0.0000
vn -0.0000 -1.0000 -0.0000
vt -2.008464 -2.721648
vt 2.326568 -2.721646
vt 2.326568 0.890880
vt 2.326568 3.299233
vt 2.326568 4.503407
vt -2.008464 4.503407
vt 2.808238 3.299230
vt 1.472265 -1.314301
vt -0.695251 2.298225
vt -0.695251 -1.314301
vt 2.315188 -1.314301
vt -1.297340 2.298225
vt -1.297340 -1.314301
vt 1.472265 2.298225
vt 0.508924 -1.314301
vt -1.297339 -1.314301
vt 0.508924 1.094050
vt 1.713100 -1.314301
vt 1.713100 1.094050
vt 2.315188 2.298225
vt 0.508924 2.298225
vt 1.713100 2.298225
vt -1.297339 2.298225
vt 1.713100 1.696139
vt 1.472265 0.491962
vt 1.472265 1.696139
vt 1.472265 1.094050
vt -0.695251 2.298226
vt 1.472265 2.298226
vt -0.695251 -1.314301
vt 2.808238 0.890879
vt 1.713100 0.491962
s 0
usemtl ConcreteTiles
f 1/1/1 2/2/1 3/3/1
f 1/1/1 3/3/1 4/4/1
f 5/5/1 6/6/1 4/4/1
f 1/1/1 4/4/1 6/6/1
f 3/3/1 8/7/1 4/4/1
f 3/3/1 7/31/1 8/7/1
usemtl Concrete
f 5/8/2 12/9/2 6/10/2
f 6/11/3 9/12/3 1/13/3
f 1/10/4 10/14/4 2/2/4
f 3/15/5 2/16/5 13/17/5
f 5/11/5 4/18/5 14/19/5
f 11/20/5 5/11/5 14/19/5
f 15/21/5 14/19/5 13/17/5
f 14/19/5 16/22/5 11/20/5
f 2/16/5 10/23/5 13/17/5
f 13/17/5 10/23/5 15/21/5
f 18/24/6 13/25/6 14/26/6
f 3/8/4 17/19/4 7/18/4
f 8/18/2 14/27/2 4/8/2
f 5/8/2 11/14/2 12/9/2
f 6/11/3 12/20/3 9/12/3
f 1/10/4 9/9/4 10/14/4
f 15/21/5 16/22/5 14/19/5
f 18/24/6 17/32/6 13/25/6
f 3/8/4 13/27/4 17/19/4
f 8/18/2 18/19/2 14/27/2
usemtl SmoothConcrete
f 12/28/6 11/29/6 16/26/6
f 12/28/6 16/26/6 9/30/6
f 16/26/6 15/25/6 9/30/6
f 9/30/6 15/25/6 10/8/6
