# Blender 5.1.1
# www.blender.org
mtllib SecurityCorridor.mtl
o SecurityCorridor
v 0.300000 0.000000 -4.700000
v 1.300000 0.000000 -4.700000
v 0.300000 0.000000 -5.700000
v 1.300000 0.000000 -5.700000
v 0.300000 0.000000 -7.400000
v 1.300000 0.000000 -7.400000
v -1.900000 0.000000 -4.700000
v -1.900000 0.000000 -5.700000
v -2.900000 0.000000 -4.700000
v -2.900000 0.000000 -5.700000
v -7.000000 0.000000 -4.700000
v -7.000000 0.000000 -5.700000
v -8.000001 0.000000 -4.700000
v -8.000001 0.000000 -5.700000
v 0.300000 0.000000 -8.400001
v 1.300000 0.000000 -8.400001
v 0.300000 0.000000 -8.700000
v 1.300000 0.000000 -8.700000
v -1.900000 0.000000 -8.700000
v -2.900000 0.000000 -8.700000
v -7.000000 0.000000 -8.700000
v -8.000001 0.000000 -8.700000
v 1.500000 0.000000 -7.400000
v 1.500000 0.000000 -8.400000
v 0.300000 3.000000 -4.700000
v 1.300000 3.000000 -4.700000
v 1.300000 3.000000 -5.700000
v 1.300000 3.000000 -7.400000
v -1.900000 3.000000 -4.700000
v -2.900000 3.000000 -4.700000
v -7.000000 3.000000 -4.700000
v -8.000001 3.000000 -4.700000
v 1.300000 3.000000 -8.400001
v 1.300000 3.000000 -8.700000
v 1.300000 2.000000 -7.400000
v 1.300000 2.000000 -8.400001
v 1.500000 2.000000 -7.400000
v 1.500000 2.000000 -8.400001
v 0.300000 3.000000 -5.700000
v -1.900000 3.000000 -5.700000
v -2.900000 3.000000 -5.700000
v -7.000000 3.000000 -5.700000
v -1.900000 3.000000 -8.700000
v -2.900000 3.000000 -8.700000
v 0.300000 2.000000 -7.400000
v 0.300000 2.000000 -8.400001
v 0.300000 3.000000 -7.400000
v 0.300000 3.000000 -8.400001
v 0.300000 3.000000 -8.700000
v -8.000001 3.000000 -5.700000
v -7.000000 3.000000 -8.700000
v -8.000001 3.000000 -8.700000
v 1.400000 2.700000 -5.240000
v -8.100000 2.700000 -5.240000
v 1.400000 2.869706 -5.169706
v -8.100000 2.869706 -5.169706
v 1.400000 2.940000 -5.000000
v -8.100000 2.940000 -5.000000
v 1.400000 2.869706 -4.830295
v -8.100000 2.869706 -4.830295
v 1.400000 2.700000 -4.760000
v -8.100000 2.700000 -4.760000
v 1.400000 2.530294 -4.830295
v -8.100000 2.530295 -4.830295
v 1.400000 2.460000 -5.000000
v -8.100000 2.460000 -5.000000
v 1.400000 2.530294 -5.169706
v -8.100000 2.530295 -5.169706
v 0.234738 2.700000 -5.260538
v 0.165261 2.700000 -5.260538
v 0.234738 2.884228 -5.184228
v 0.165261 2.884228 -5.184228
v 0.234738 2.960537 -5.000000
v 0.165261 2.960537 -5.000000
v 0.234738 2.884228 -4.815772
v 0.165261 2.884228 -4.815772
v 0.234738 2.700000 -4.739462
v 0.165261 2.700000 -4.739462
v 0.234738 2.515772 -4.815772
v 0.165261 2.515773 -4.815772
v 0.234738 2.439462 -5.000000
v 0.165261 2.439463 -5.000000
v 0.234738 2.515772 -5.184228
v 0.165261 2.515773 -5.184228
v -0.765262 2.700000 -5.260538
v -0.834738 2.700000 -5.260538
v -0.765262 2.884228 -5.184228
v -0.834738 2.884228 -5.184228
v -0.765262 2.960537 -5.000000
v -0.834738 2.960537 -5.000000
v -0.765262 2.884228 -4.815772
v -0.834738 2.884228 -4.815772
v -0.765262 2.700000 -4.739462
v -0.834738 2.700000 -4.739462
v -0.765262 2.515772 -4.815772
v -0.834738 2.515773 -4.815772
v -0.765262 2.439462 -5.000000
v -0.834738 2.439463 -5.000000
v -0.765262 2.515772 -5.184228
v -0.834738 2.515773 -5.184228
v -1.765262 2.700000 -5.260538
v -1.834738 2.700000 -5.260538
v -1.765262 2.884228 -5.184228
v -1.834738 2.884228 -5.184228
v -1.765262 2.960537 -5.000000
v -1.834738 2.960537 -5.000000
v -1.765262 2.884228 -4.815772
v -1.834738 2.884228 -4.815772
v -1.765262 2.700000 -4.739462
v -1.834738 2.700000 -4.739462
v -1.765262 2.515772 -4.815772
v -1.834738 2.515773 -4.815772
v -1.765262 2.439462 -5.000000
v -1.834738 2.439463 -5.000000
v -1.765262 2.515772 -5.184228
v -1.834738 2.515773 -5.184228
v -2.765261 2.700000 -5.260538
v -2.834738 2.700000 -5.260538
v -2.765261 2.884228 -5.184228
v -2.834738 2.884228 -5.184228
v -2.765261 2.960537 -5.000000
v -2.834738 2.960537 -5.000000
v -2.765261 2.884228 -4.815772
v -2.834738 2.884228 -4.815772
v -2.765261 2.700000 -4.739462
v -2.834738 2.700000 -4.739462
v -2.765261 2.515772 -4.815772
v -2.834738 2.515773 -4.815772
v -2.765261 2.439462 -5.000000
v -2.834738 2.439463 -5.000000
v -2.765261 2.515772 -5.184228
v -2.834738 2.515773 -5.184228
v -3.765261 2.700000 -5.260538
v -3.834738 2.700000 -5.260538
v -3.765261 2.884228 -5.184228
v -3.834738 2.884228 -5.184228
v -3.765261 2.960537 -5.000000
v -3.834738 2.960537 -5.000000
v -3.765261 2.884228 -4.815772
v -3.834738 2.884228 -4.815772
v -3.765261 2.700000 -4.739462
v -3.834738 2.700000 -4.739462
v -3.765261 2.515772 -4.815772
v -3.834738 2.515773 -4.815772
v -3.765261 2.439462 -5.000000
v -3.834738 2.439463 -5.000000
v -3.765261 2.515772 -5.184228
v -3.834738 2.515773 -5.184228
v -4.765262 2.700000 -5.260538
v -4.834739 2.700000 -5.260538
v -4.765262 2.884228 -5.184228
v -4.834739 2.884228 -5.184228
v -4.765262 2.960537 -5.000000
v -4.834739 2.960537 -5.000000
v -4.765262 2.884228 -4.815772
v -4.834739 2.884228 -4.815772
v -4.765262 2.700000 -4.739462
v -4.834739 2.700000 -4.739462
v -4.765262 2.515772 -4.815772
v -4.834739 2.515773 -4.815772
v -4.765262 2.439462 -5.000000
v -4.834739 2.439463 -5.000000
v -4.765262 2.515772 -5.184228
v -4.834739 2.515773 -5.184228
v -5.765262 2.700000 -5.260538
v -5.834739 2.700000 -5.260538
v -5.765262 2.884228 -5.184228
v -5.834739 2.884228 -5.184228
v -5.765262 2.960537 -5.000000
v -5.834739 2.960537 -5.000000
v -5.765262 2.884228 -4.815772
v -5.834739 2.884228 -4.815772
v -5.765262 2.700000 -4.739462
v -5.834739 2.700000 -4.739462
v -5.765262 2.515772 -4.815772
v -5.834739 2.515773 -4.815772
v -5.765262 2.439462 -5.000000
v -5.834739 2.439463 -5.000000
v -5.765262 2.515772 -5.184228
v -5.834739 2.515773 -5.184228
v -6.765262 2.700000 -5.260538
v -6.834739 2.700000 -5.260538
v -6.765262 2.884228 -5.184228
v -6.834739 2.884228 -5.184228
v -6.765262 2.960537 -5.000000
v -6.834739 2.960537 -5.000000
v -6.765262 2.884228 -4.815772
v -6.834739 2.884228 -4.815772
v -6.765262 2.700000 -4.739462
v -6.834739 2.700000 -4.739462
v -6.765262 2.515772 -4.815772
v -6.834739 2.515773 -4.815772
v -6.765262 2.439462 -5.000000
v -6.834739 2.439463 -5.000000
v -6.765262 2.515772 -5.184228
v -6.834739 2.515773 -5.184228
vn -0.0000 1.0000 -0.0000
vn -1.0000 -0.0000 -0.0000
vn -0.0000 -0.0000 -1.0000
vn -0.0000 -1.0000 -0.0000
vn -0.0000 -0.0000 1.0000
vn 1.0000 -0.0000 -0.0000
vn -0.0000 0.3827 -0.9239
vn -0.0000 0.9239 -0.3827
vn -0.0000 0.9239 0.3827
vn -0.0000 0.3827 0.9239
vn -0.0000 -0.3827 0.9239
vn -0.0000 -0.9239 0.3827
vn -0.0000 -0.9239 -0.3827
vn -0.0000 -0.3827 -0.9239
vt -6.282702 7.904263
vt -5.126632 6.748193
vt -5.126632 7.904263
vt -6.282702 6.748193
vt -5.126633 4.782876
vt -2.583279 7.904263
vt -2.583279 6.748193
vt -1.427210 7.904263
vt -1.427210 6.748193
vt 3.312676 7.904263
vt 3.312676 6.748193
vt 4.468746 7.904263
vt -6.282702 4.782876
vt -5.126633 3.626805
vt -6.282702 3.626805
vt -5.126633 3.279985
vt -1.427210 3.279986
vt 4.468746 3.279985
vt 4.468746 6.748193
vt 2.156608 -5.043714
vt 1.000539 -4.812503
vt 1.000536 -5.043718
vt 8.293172 0.184686
vt 9.449241 -3.283522
vt 9.449241 0.184686
vt 7.137102 0.184687
vt 8.293171 -3.283522
vt -2.458276 0.184686
vt -1.302206 -3.283522
vt -1.302206 0.184686
vt 12.570627 -3.283522
vt 11.414558 -2.127453
vt 11.414558 -3.283522
vt 11.414558 0.184686
vt 12.570627 -2.127453
vt 12.917448 0.184687
vt 12.570627 0.184687
vt 12.917448 -3.283523
vt -1.311602 -5.043714
vt -2.467671 -4.812498
vt -2.467672 -5.043712
vt 4.468746 -5.043712
vt 2.156608 -4.812500
vt -1.311601 -4.812500
vt 1.000539 7.821145
vt 4.468747 11.289353
vt 1.000540 11.289353
vt 4.468746 -1.317228
vt 1.000540 -4.785436
vt 4.468746 -4.785436
vt -3.739349 7.821146
vt -3.739348 11.289355
vt -1.542814 -1.317226
vt 1.000540 -1.317228
vt -4.664202 -3.629366
vt -3.508132 -4.785436
vt -3.508132 -3.629366
vt -3.508132 -1.317226
vt -1.542814 -4.785436
vt -4.664202 -1.317226
vt -5.011020 -1.317226
vt -4.664202 -4.785436
vt -5.011020 -4.785436
vt -5.126630 -0.188221
vt -6.282701 -1.344291
vt -5.126630 -1.344290
vt -5.126630 1.777097
vt -6.282700 -0.188221
vt -2.583278 -1.344291
vt -1.427208 -1.344291
vt -2.583278 -0.188221
vt 3.312677 -1.344291
vt -1.427208 -0.188221
vt 4.468746 -1.344291
vt 3.312676 -0.188222
vt -5.126630 2.933167
vt -6.282701 1.777097
vt -5.126630 3.279986
vt -6.282701 2.933167
vt -1.427208 3.279986
vt 4.468747 3.279986
vt 4.468746 -0.188222
vt -3.614345 -3.283523
vt -3.614347 0.184686
vt -7.207555 7.821146
vt -7.082553 -3.283522
vt -7.082554 0.184687
vt 1.771584 7.512967
vt 1.461910 -6.112712
vt 1.771584 -6.112712
vt 1.461910 7.512967
vt 1.152235 -6.112712
vt 1.152235 7.512967
vt 0.842560 -6.112712
vt 0.842560 7.512967
vt 0.532886 -6.112712
vt 0.532886 7.512967
vt 0.223211 -6.112712
vt 0.223211 7.512967
vt -0.086463 -6.112712
vt -0.086463 7.512967
vt -0.396138 -6.112712
vt -0.396138 7.512967
vt -0.705812 -6.112712
vt 1.782886 0.793241
vt 1.470386 0.646165
vt 1.782886 0.646165
vt 1.470386 0.793241
vt 1.157886 0.646165
vt 1.157886 0.793241
vt 0.845386 0.646165
vt 0.532886 0.793241
vt 0.532886 0.646165
vt 0.220386 0.793241
vt 0.220386 0.646165
vt -0.092114 0.793241
vt -0.092114 0.646165
vt -3.817114 -1.081759
vt -3.217114 -1.681760
vt -2.617114 -1.081759
vt -0.404614 0.646165
vt -0.404614 0.793241
vt -0.717114 0.646165
vt -1.542850 -1.506024
vt -2.391378 -1.506024
vt -2.391378 -0.657495
vt 0.845386 0.793241
vt 3.437679 -3.283523
vt 3.437680 0.184686
vt 4.593749 0.184686
vt 7.137102 -3.283522
vt 1.245259 3.286112
vt 0.088074 -0.185444
vt 1.245259 -0.185444
vt -6.282702 3.279985
vt -2.583279 3.279986
vt 3.312676 3.279985
vt -2.458276 -3.283522
vt 4.468746 -4.812498
vt 4.468747 7.821144
vt -6.282701 3.279986
vt -2.583278 3.279986
vt 3.312677 3.279986
vt -7.207554 11.289356
vt -0.705812 7.512967
vt -2.792850 -0.657495
vt -3.217114 -0.481759
vt -3.641378 -0.657495
vt -3.641378 -1.506024
vt -2.792850 -1.506024
vt -0.717114 0.793241
vt -1.967114 -0.481759
vt -1.542850 -0.657495
vt -1.367114 -1.081759
vt -1.967114 -1.681760
vt -2.567114 -1.081759
vt 4.593748 -3.283522
vt 0.088074 3.286112
s 0
usemtl SmoothConcrete
f 2/1/1 3/2/1 1/3/1
f 4/4/1 5/5/1 3/2/1
f 3/2/1 7/6/1 1/3/1
f 8/7/1 9/8/1 7/6/1
f 10/9/1 11/10/1 9/8/1
f 12/11/1 13/12/1 11/10/1
f 6/13/1 15/14/1 5/5/1
f 16/15/1 17/16/1 15/14/1
f 8/7/1 20/17/1 10/9/1
f 12/11/1 22/18/1 14/19/1
f 6/20/1 24/21/1 16/22/1
f 2/1/1 4/4/1 3/2/1
f 4/4/1 6/13/1 5/5/1
f 3/2/1 8/7/1 7/6/1
f 8/7/1 10/9/1 9/8/1
f 10/9/1 12/11/1 11/10/1
f 12/11/1 14/19/1 13/12/1
f 6/13/1 16/15/1 15/14/1
f 16/15/1 18/135/1 17/16/1
f 8/7/1 19/136/1 20/17/1
f 12/11/1 21/137/1 22/18/1
f 6/20/1 23/43/1 24/21/1
usemtl GrayBricks
f 2/23/2 27/24/2 4/25/2
f 1/26/3 26/27/3 2/23/3
f 13/28/3 31/29/3 11/30/3
f 33/31/2 35/32/2 28/33/2
f 35/32/2 6/34/2 4/25/2
f 4/25/2 27/24/2 35/32/2
f 28/33/2 35/32/2 27/24/2
f 36/35/2 18/36/2 16/37/2
f 34/38/2 36/35/2 33/31/2
f 18/36/2 36/35/2 34/38/2
f 10/45/6 44/46/6 41/47/6
f 19/48/2 40/49/2 43/50/2
f 12/51/5 41/47/5 42/52/5
f 3/53/5 40/49/5 8/54/5
f 46/55/6 47/56/6 45/57/6
f 3/53/6 5/58/6 45/57/6
f 39/59/6 3/53/6 45/57/6
f 45/57/6 47/56/6 39/59/6
f 15/60/6 17/61/6 46/55/6
f 48/62/6 46/55/6 49/63/6
f 46/55/6 17/61/6 49/63/6
f 50/83/6 13/28/6 14/84/6
f 42/52/2 21/85/2 12/51/2
f 52/86/6 14/84/6 22/87/6
f 11/30/3 30/128/3 9/129/3
f 30/128/3 7/130/3 9/129/3
f 7/130/3 25/131/3 1/26/3
f 34/132/5 17/133/5 18/134/5
f 2/23/2 26/27/2 27/24/2
f 1/26/3 25/131/3 26/27/3
f 13/28/3 32/138/3 31/29/3
f 33/31/2 36/35/2 35/32/2
f 10/45/6 20/140/6 44/46/6
f 19/48/2 8/54/2 40/49/2
f 12/51/5 10/45/5 41/47/5
f 3/53/5 39/59/5 40/49/5
f 46/55/6 48/62/6 47/56/6
f 50/83/6 32/138/6 13/28/6
f 42/52/2 51/144/2 21/85/2
f 52/86/6 50/83/6 14/84/6
f 11/30/3 31/29/3 30/128/3
f 30/128/3 29/157/3 7/130/3
f 7/130/3 29/157/3 25/131/3
f 34/132/5 49/158/5 17/133/5
usemtl SmoothConcrete
f 36/39/4 37/40/4 35/41/4
f 35/42/3 23/43/3 6/20/3
f 38/44/5 16/22/5 24/21/5
f 39/64/4 26/65/4 25/66/4
f 47/67/4 27/68/4 39/64/4
f 29/69/4 39/64/4 25/66/4
f 30/70/4 40/71/4 29/69/4
f 31/72/4 41/73/4 30/70/4
f 32/74/4 42/75/4 31/72/4
f 48/76/4 28/77/4 47/67/4
f 49/78/4 33/79/4 48/76/4
f 44/80/4 40/71/4 41/73/4
f 52/81/4 42/75/4 50/82/4
f 36/39/4 38/44/4 37/40/4
f 35/42/3 37/139/3 23/43/3
f 38/44/5 36/39/5 16/22/5
f 39/64/4 27/68/4 26/65/4
f 47/67/4 28/77/4 27/68/4
f 29/69/4 40/71/4 39/64/4
f 30/70/4 41/73/4 40/71/4
f 31/72/4 42/75/4 41/73/4
f 32/74/4 50/82/4 42/75/4
f 48/76/4 33/79/4 28/77/4
f 49/78/4 34/141/4 33/79/4
f 44/80/4 43/142/4 40/71/4
f 52/81/4 51/143/4 42/75/4
usemtl Metal
f 54/88/7 55/89/7 53/90/7
f 56/91/8 57/92/8 55/89/8
f 58/93/9 59/94/9 57/92/9
f 60/95/10 61/96/10 59/94/10
f 62/97/11 63/98/11 61/96/11
f 64/99/12 65/100/12 63/98/12
f 66/101/13 67/102/13 65/100/13
f 68/103/14 53/104/14 67/102/14
f 70/105/7 71/106/7 69/107/7
f 72/108/8 73/109/8 71/106/8
f 74/110/9 75/111/9 73/109/9
f 75/111/10 78/112/10 77/113/10
f 77/113/11 80/114/11 79/115/11
f 79/115/12 82/116/12 81/117/12
f 82/118/2 78/119/2 74/120/2
f 82/116/13 83/121/13 81/117/13
f 84/122/14 69/123/14 83/121/14
f 75/124/6 79/125/6 83/126/6
f 86/105/7 87/106/7 85/107/7
f 88/108/8 89/109/8 87/106/8
f 90/110/9 91/111/9 89/109/9
f 92/127/10 93/113/10 91/111/10
f 93/113/11 96/114/11 95/115/11
f 95/115/12 98/116/12 97/117/12
f 98/118/2 94/119/2 90/120/2
f 98/116/13 99/121/13 97/117/13
f 100/122/14 85/123/14 99/121/14
f 91/124/6 95/125/6 99/126/6
f 102/105/7 103/106/7 101/107/7
f 104/108/8 105/109/8 103/106/8
f 106/110/9 107/111/9 105/109/9
f 107/111/10 110/112/10 109/113/10
f 109/113/11 112/114/11 111/115/11
f 112/114/12 113/117/12 111/115/12
f 114/118/2 110/119/2 106/120/2
f 114/116/13 115/121/13 113/117/13
f 116/122/14 101/123/14 115/121/14
f 107/124/6 111/125/6 115/126/6
f 118/105/7 119/106/7 117/107/7
f 120/108/8 121/109/8 119/106/8
f 122/110/9 123/111/9 121/109/9
f 124/127/10 125/113/10 123/111/10
f 125/113/11 128/114/11 127/115/11
f 127/115/12 130/116/12 129/117/12
f 130/118/2 126/119/2 122/120/2
f 130/116/13 131/121/13 129/117/13
f 132/122/14 117/123/14 131/121/14
f 123/124/6 127/125/6 131/126/6
f 134/105/7 135/106/7 133/107/7
f 136/108/8 137/109/8 135/106/8
f 138/110/9 139/111/9 137/109/9
f 139/111/10 142/112/10 141/113/10
f 141/113/11 144/114/11 143/115/11
f 143/115/12 146/116/12 145/117/12
f 146/118/2 142/119/2 138/120/2
f 146/116/13 147/121/13 145/117/13
f 148/122/14 133/123/14 147/121/14
f 139/124/6 143/125/6 147/126/6
f 150/105/7 151/106/7 149/107/7
f 152/108/8 153/109/8 151/106/8
f 154/110/9 155/111/9 153/109/9
f 155/111/10 158/112/10 157/113/10
f 157/113/11 160/114/11 159/115/11
f 160/114/12 161/117/12 159/115/12
f 162/118/2 158/119/2 154/120/2
f 162/116/13 163/121/13 161/117/13
f 164/122/14 149/123/14 163/121/14
f 155/124/6 159/125/6 163/126/6
f 166/105/7 167/106/7 165/107/7
f 168/108/8 169/109/8 167/106/8
f 170/110/9 171/111/9 169/109/9
f 172/127/10 173/113/10 171/111/10
f 173/113/11 176/114/11 175/115/11
f 176/114/12 177/117/12 175/115/12
f 178/118/2 174/119/2 170/120/2
f 178/116/13 179/121/13 177/117/13
f 180/122/14 165/123/14 179/121/14
f 171/124/6 175/125/6 179/126/6
f 182/105/7 183/106/7 181/107/7
f 184/108/8 185/109/8 183/106/8
f 186/110/9 187/111/9 185/109/9
f 187/111/10 190/112/10 189/113/10
f 189/113/11 192/114/11 191/115/11
f 192/114/12 193/117/12 191/115/12
f 194/118/2 190/119/2 186/120/2
f 194/116/13 195/121/13 193/117/13
f 196/122/14 181/123/14 195/121/14
f 187/124/6 191/125/6 195/126/6
f 54/88/7 56/91/7 55/89/7
f 56/91/8 58/93/8 57/92/8
f 58/93/9 60/95/9 59/94/9
f 60/95/10 62/97/10 61/96/10
f 62/97/11 64/99/11 63/98/11
f 64/99/12 66/101/12 65/100/12
f 66/101/13 68/103/13 67/102/13
f 68/103/14 54/145/14 53/104/14
f 70/105/7 72/108/7 71/106/7
f 72/108/8 74/110/8 73/109/8
f 74/110/9 76/127/9 75/111/9
f 75/111/10 76/127/10 78/112/10
f 77/113/11 78/112/11 80/114/11
f 79/115/12 80/114/12 82/116/12
f 74/120/2 72/146/2 70/147/2
f 70/147/2 84/148/2 82/118/2
f 82/118/2 80/149/2 78/119/2
f 78/119/2 76/150/2 74/120/2
f 74/120/2 70/147/2 82/118/2
f 82/116/13 84/122/13 83/121/13
f 84/122/14 70/151/14 69/123/14
f 83/126/6 69/152/6 71/153/6
f 71/153/6 73/154/6 75/124/6
f 75/124/6 77/155/6 79/125/6
f 79/125/6 81/156/6 83/126/6
f 83/126/6 71/153/6 75/124/6
f 86/105/7 88/108/7 87/106/7
f 88/108/8 90/110/8 89/109/8
f 90/110/9 92/127/9 91/111/9
f 92/127/10 94/112/10 93/113/10
f 93/113/11 94/112/11 96/114/11
f 95/115/12 96/114/12 98/116/12
f 90/120/2 88/146/2 86/147/2
f 86/147/2 100/148/2 98/118/2
f 98/118/2 96/149/2 94/119/2
f 94/119/2 92/150/2 90/120/2
f 90/120/2 86/147/2 98/118/2
f 98/116/13 100/122/13 99/121/13
f 100/122/14 86/151/14 85/123/14
f 99/126/6 85/152/6 87/153/6
f 87/153/6 89/154/6 91/124/6
f 91/124/6 93/155/6 95/125/6
f 95/125/6 97/156/6 99/126/6
f 99/126/6 87/153/6 91/124/6
f 102/105/7 104/108/7 103/106/7
f 104/108/8 106/110/8 105/109/8
f 106/110/9 108/127/9 107/111/9
f 107/111/10 108/127/10 110/112/10
f 109/113/11 110/112/11 112/114/11
f 112/114/12 114/116/12 113/117/12
f 106/120/2 104/146/2 102/147/2
f 102/147/2 116/148/2 114/118/2
f 114/118/2 112/149/2 110/119/2
f 110/119/2 108/150/2 106/120/2
f 106/120/2 102/147/2 114/118/2
f 114/116/13 116/122/13 115/121/13
f 116/122/14 102/151/14 101/123/14
f 115/126/6 101/152/6 103/153/6
f 103/153/6 105/154/6 107/124/6
f 107/124/6 109/155/6 111/125/6
f 111/125/6 113/156/6 115/126/6
f 115/126/6 103/153/6 107/124/6
f 118/105/7 120/108/7 119/106/7
f 120/108/8 122/110/8 121/109/8
f 122/110/9 124/127/9 123/111/9
f 124/127/10 126/112/10 125/113/10
f 125/113/11 126/112/11 128/114/11
f 127/115/12 128/114/12 130/116/12
f 122/120/2 120/146/2 118/147/2
f 118/147/2 132/148/2 130/118/2
f 130/118/2 128/149/2 126/119/2
f 126/119/2 124/150/2 122/120/2
f 122/120/2 118/147/2 130/118/2
f 130/116/13 132/122/13 131/121/13
f 132/122/14 118/151/14 117/123/14
f 131/126/6 117/152/6 119/153/6
f 119/153/6 121/154/6 123/124/6
f 123/124/6 125/155/6 127/125/6
f 127/125/6 129/156/6 131/126/6
f 131/126/6 119/153/6 123/124/6
f 134/105/7 136/108/7 135/106/7
f 136/108/8 138/110/8 137/109/8
f 138/110/9 140/127/9 139/111/9
f 139/111/10 140/127/10 142/112/10
f 141/113/11 142/112/11 144/114/11
f 143/115/12 144/114/12 146/116/12
f 138/120/2 136/146/2 134/147/2
f 134/147/2 148/148/2 146/118/2
f 146/118/2 144/149/2 142/119/2
f 142/119/2 140/150/2 138/120/2
f 138/120/2 134/147/2 146/118/2
f 146/116/13 148/122/13 147/121/13
f 148/122/14 134/151/14 133/123/14
f 147/126/6 133/152/6 135/153/6
f 135/153/6 137/154/6 139/124/6
f 139/124/6 141/155/6 143/125/6
f 143/125/6 145/156/6 147/126/6
f 147/126/6 135/153/6 139/124/6
f 150/105/7 152/108/7 151/106/7
f 152/108/8 154/110/8 153/109/8
f 154/110/9 156/127/9 155/111/9
f 155/111/10 156/127/10 158/112/10
f 157/113/11 158/112/11 160/114/11
f 160/114/12 162/116/12 161/117/12
f 154/120/2 152/146/2 150/147/2
f 150/147/2 164/148/2 162/118/2
f 162/118/2 160/149/2 158/119/2
f 158/119/2 156/150/2 154/120/2
f 154/120/2 150/147/2 162/118/2
f 162/116/13 164/122/13 163/121/13
f 164/122/14 150/151/14 149/123/14
f 163/126/6 149/152/6 151/153/6
f 151/153/6 153/154/6 155/124/6
f 155/124/6 157/155/6 159/125/6
f 159/125/6 161/156/6 163/126/6
f 163/126/6 151/153/6 155/124/6
f 166/105/7 168/108/7 167/106/7
f 168/108/8 170/110/8 169/109/8
f 170/110/9 172/127/9 171/111/9
f 172/127/10 174/112/10 173/113/10
f 173/113/11 174/112/11 176/114/11
f 176/114/12 178/116/12 177/117/12
f 170/120/2 168/146/2 166/147/2
f 166/147/2 180/148/2 178/118/2
f 178/118/2 176/149/2 174/119/2
f 174/119/2 172/150/2 170/120/2
f 170/120/2 166/147/2 178/118/2
f 178/116/13 180/122/13 179/121/13
f 180/122/14 166/151/14 165/123/14
f 179/126/6 165/152/6 167/153/6
f 167/153/6 169/154/6 171/124/6
f 171/124/6 173/155/6 175/125/6
f 175/125/6 177/156/6 179/126/6
f 179/126/6 167/153/6 171/124/6
f 182/105/7 184/108/7 183/106/7
f 184/108/8 186/110/8 185/109/8
f 186/110/9 188/127/9 187/111/9
f 187/111/10 188/127/10 190/112/10
f 189/113/11 190/112/11 192/114/11
f 192/114/12 194/116/12 193/117/12
f 186/120/2 184/146/2 182/147/2
f 182/147/2 196/148/2 194/118/2
f 194/118/2 192/149/2 190/119/2
f 190/119/2 188/150/2 186/120/2
f 186/120/2 182/147/2 194/118/2
f 194/116/13 196/122/13 195/121/13
f 196/122/14 182/151/14 181/123/14
f 195/126/6 181/152/6 183/153/6
f 183/153/6 185/154/6 187/124/6
f 187/124/6 189/155/6 191/125/6
f 191/125/6 193/156/6 195/126/6
f 195/126/6 183/153/6 187/124/6
