# Blender 5.0.1
# www.blender.org
mtllib Toilet02.mtl
o Toilet02
v -0.150574 0.310000 0.178020
v -0.174188 0.310000 -0.153992
v 0.150574 0.310000 0.178020
v 0.174188 0.310000 -0.153992
v 0.058063 0.310000 -0.237046
v -0.058063 0.310000 -0.237046
v -0.154000 0.549776 -0.399310
v 0.154000 0.549776 -0.399310
v -0.058063 0.310000 0.308634
v 0.058063 0.310000 0.308634
v 0.130169 0.537585 -0.103402
v 0.113026 0.537585 0.147498
v -0.130169 0.537585 -0.103402
v -0.113026 0.537585 0.147498
v -0.051551 0.537585 -0.142066
v 0.051551 0.537585 -0.142066
v 0.046667 0.542606 0.296095
v -0.046667 0.542606 0.296095
v -0.090008 0.210000 0.118356
v -0.104123 0.210000 -0.080109
v 0.090008 0.210000 0.118356
v 0.104123 0.210000 -0.080109
v 0.034708 0.210000 -0.237959
v -0.034708 0.210000 -0.237959
v -0.034708 0.210000 0.196433
v 0.034708 0.210000 0.196433
v -0.100099 0.000000 -0.296312
v 0.100099 0.000000 -0.296312
v 0.100099 0.000000 0.226495
v -0.100099 0.000000 0.226495
v -0.000000 0.336769 -0.035267
v -0.192500 0.549776 -0.249310
v -0.192500 1.049789 -0.285201
v 0.192500 1.049789 -0.285201
v 0.192500 0.549776 -0.249310
v 0.154000 1.049789 -0.254275
v -0.154000 1.049789 -0.254275
v -0.171479 0.534861 0.198613
v -0.161031 0.547541 0.189602
v -0.198372 0.534859 -0.179494
v -0.184737 0.550000 -0.181211
v -0.198329 0.549950 -0.196382
v 0.161031 0.547541 0.189602
v 0.171479 0.534861 0.198613
v 0.184737 0.550000 -0.181211
v 0.198372 0.534859 -0.179494
v 0.198329 0.549950 -0.196382
v 0.060248 0.546016 0.332679
v 0.066124 0.534865 0.347363
v -0.066124 0.534865 0.347363
v -0.060248 0.546016 0.332679
v 0.192500 0.549776 -0.367751
v -0.192500 0.549776 -0.367751
v -0.154000 1.049789 -0.399310
v 0.154000 1.049789 -0.399310
v 0.192500 1.049789 -0.367751
v -0.192500 1.049789 -0.367751
v -0.192500 0.549776 -0.289002
v 0.192500 0.549776 -0.289002
v -0.141167 0.549776 -0.249310
v 0.141167 0.549776 -0.249310
v 0.154000 1.069789 -0.293488
v 0.123200 1.069789 -0.268747
v -0.123200 1.069789 -0.268747
v -0.154000 1.069789 -0.293488
v 0.123200 1.069789 -0.384775
v -0.123200 1.069789 -0.384775
v 0.154000 1.069789 -0.359528
v -0.154000 1.069789 -0.359528
vn 0.5006 -0.6136 -0.6107
vn 0.3800 0.5085 0.7727
vn -0.8377 -0.5429 0.0596
vn 0.8377 -0.5429 0.0596
vn -0.6251 -0.6428 0.4428
vn 0.8958 -0.2056 -0.3940
vn 0.6251 -0.6428 0.4428
vn -0.0000 -0.7465 0.6654
vn -0.4096 -0.7101 -0.5727
vn -0.0000 0.0091 -1.0000
vn -0.0000 -0.5605 -0.8282
vn -0.0000 -1.0000 -0.0000
vn -0.0000 0.1417 0.9899
vn -0.7734 0.3192 0.5477
vn 0.7734 0.3192 0.5477
vn 0.9998 -0.0192 -0.0000
vn -0.9939 0.0842 0.0707
vn 0.8508 0.3689 -0.3742
vn -0.8508 0.3689 -0.3742
vn -0.0000 0.2677 -0.9635
vn -0.0000 0.8495 -0.5277
vn 0.8466 0.5291 -0.0578
vn -0.3800 0.5085 0.7727
vn -0.0000 0.4695 0.8829
vn -0.6695 0.6695 -0.3216
vn -0.8466 0.5291 -0.0578
vn 0.6695 0.6695 -0.3216
vn -0.5006 -0.6136 -0.6107
vn 0.4610 0.8874 -0.0000
vn 0.8723 -0.4891 -0.0000
vn 0.5976 0.5986 0.5334
vn -0.5976 0.5986 0.5334
vn -0.7517 0.6573 0.0535
vn 0.7392 0.6715 0.0517
vn -0.5247 0.7659 0.3716
vn 0.5507 0.7350 0.3957
vn -0.0000 0.7964 0.6048
vn -0.8094 -0.1277 0.5732
vn -0.9926 -0.0987 0.0706
vn 0.1262 0.9879 -0.0897
vn 0.2333 0.9724 -0.0085
vn -0.5702 -0.1982 -0.7972
vn -0.0000 1.0000 -0.0033
vn 0.0578 0.9914 0.1176
vn -0.0000 0.9532 0.3023
vn -0.1920 0.9813 -0.0131
vn 0.9926 -0.0987 0.0706
vn 0.8094 -0.1277 0.5732
vn -0.0960 0.9938 -0.0570
vn -0.0578 0.9914 0.1176
vn 0.8547 -0.4882 -0.1762
vn -0.0000 0.9957 -0.0928
vn -0.0000 -0.1697 0.9855
vn -0.8723 -0.4891 -0.0000
vn 0.6340 -0.0000 -0.7734
vn -0.6340 -0.0000 -0.7734
vn -0.0000 -0.0000 -1.0000
vn 1.0000 -0.0000 -0.0000
vn -1.0000 -0.0000 -0.0000
vn -0.6262 -0.0059 0.7796
vn 0.6262 -0.0059 0.7796
vn -0.0000 0.0099 1.0000
vn -0.0000 1.0000 -0.0000
vn -0.4610 0.8874 -0.0000
vn -0.0000 0.5879 -0.8089
vn 0.3428 0.8368 0.4268
vn -0.3455 0.8384 -0.4215
vn 0.3455 0.8384 -0.4215
vn -0.3428 0.8368 0.4268
vn -0.0000 0.5862 0.8102
vn 0.4096 -0.7101 -0.5727
vn -0.8958 -0.2056 -0.3940
vn 0.9939 0.0842 0.0707
vn -0.9998 -0.0192 -0.0000
vn -0.7392 0.6715 0.0517
vn 0.7517 0.6573 0.0535
vn -0.5507 0.7350 0.3957
vn 0.5247 0.7659 0.3716
vn 0.0960 0.9938 -0.0570
vn 0.1920 0.9813 -0.0131
vn -0.9870 -0.1184 -0.1083
vn -0.8664 -0.4905 -0.0938
vn -0.2333 0.9724 -0.0085
vn -0.1262 0.9879 -0.0897
vn 0.9870 -0.1184 -0.1083
vn 0.5749 -0.1530 -0.8038
vn -0.6117 -0.0078 0.7911
vn 0.6117 -0.0078 0.7911
vt 0.486301 0.361458
vt 0.236958 0.703496
vt 0.000000 0.000000
vt 0.801486 0.232722
vt 0.924683 0.312838
vt 0.801710 0.281109
vt 0.188701 0.102994
vt 0.128895 0.263532
vt 0.129393 0.142142
vt 0.489568 0.102994
vt 0.549374 0.263532
vt 0.490402 0.306067
vt 0.440565 0.765477
vt 0.429232 0.836789
vt 0.360175 0.822415
vt 0.546922 0.363114
vt 0.440565 0.950826
vt 0.429232 0.879513
vt 0.477286 0.913549
vt 0.360175 0.893887
vt 0.191967 0.361458
vt 0.187867 0.306067
vt 0.334303 0.765477
vt 0.277205 0.826810
vt 0.262830 0.765477
vt 0.082743 0.841142
vt 0.154215 0.841142
vt 0.678268 0.000000
vt 0.801486 0.321775
vt 0.678268 0.321775
vt 0.082970 0.841142
vt 0.000000 0.970212
vt 0.040247 0.841142
vt 0.131346 0.096259
vt -0.000000 0.075784
vt 0.548875 0.142142
vt 0.546922 0.096259
vt 0.678268 0.075784
vt 0.678268 0.396955
vt 0.131346 0.363114
vt 0.000000 0.396955
vt 0.319928 0.826810
vt 0.236958 0.958840
vt 0.907760 0.633913
vt 0.965205 0.633913
vt 0.936482 0.842873
vt 0.854727 0.087388
vt 0.937600 0.232722
vt 0.801486 0.232722
vt 0.801710 0.344567
vt 0.801486 0.392954
vt 0.566021 0.792205
vt 0.483148 0.937539
vt 0.531902 0.704817
vt 0.619263 0.937539
vt 0.888846 0.000000
vt 0.000000 0.703496
vt 0.171857 0.181707
vt 0.343715 0.363415
vt 0.473754 0.723595
vt 0.353088 0.320337
vt 0.482120 0.732925
vt 0.237986 0.732925
vt 0.237499 0.723034
vt 0.246352 0.723595
vt 0.260942 0.495634
vt 0.253618 0.489570
vt 0.459164 0.495634
vt 0.482607 0.723034
vt 0.474663 0.716558
vt 0.322972 0.407691
vt 0.318866 0.397410
vt 0.397134 0.407691
vt 0.466488 0.489570
vt 0.401240 0.397410
vt 0.191967 0.026236
vt 0.326131 0.089070
vt 0.331331 0.430406
vt 0.290488 0.521783
vt 0.279937 0.676069
vt 0.245443 0.716558
vt 0.334454 0.330680
vt 0.320560 0.765477
vt 0.328324 0.699844
vt 0.391781 0.699844
vt 0.440169 0.676069
vt 0.429618 0.521783
vt 0.352138 0.089070
vt 0.486301 0.026236
vt 0.388775 0.430406
vt 0.474094 0.722026
vt 0.123551 0.850472
vt 0.199985 0.989089
vt 0.128513 0.989089
vt 0.167277 0.181707
vt 0.334553 0.363415
vt 0.241574 0.765477
vt 0.477286 0.802754
vt 0.801486 0.000000
vt 0.123217 0.970212
vt 0.360175 0.958840
vt 0.329853 0.001655
vt 0.325180 0.320337
vt 0.478532 0.765477
vt 0.399546 0.765477
vt 0.246012 0.722026
vt 0.348415 0.001655
vt 0.343814 0.330680
vt 0.204947 0.850472
s 0
f 5/1/1 8/2/1 52/3/1
f 13/4/2 31/5/2 15/6/2
f 1/7/3 20/8/3 19/9/3
f 3/10/4 22/11/4 4/12/4
f 1/13/5 25/14/5 9/15/5
f 5/1/6 22/11/6 23/16/6
f 3/17/7 26/18/7 21/19/7
f 9/15/8 26/18/8 10/20/8
f 6/21/9 20/8/9 2/22/9
f 5/23/10 24/24/10 6/25/10
f 6/26/11 8/2/11 5/27/11
f 29/28/12 27/29/12 28/30/12
f 25/31/13 29/32/13 26/33/13
f 25/34/14 19/9/14 30/35/14
f 21/36/15 26/37/15 29/38/15
f 22/11/16 29/38/16 28/39/16
f 20/8/17 30/35/17 19/9/17
f 23/16/18 22/11/18 28/39/18
f 20/8/19 24/40/19 27/41/19
f 23/42/20 27/43/20 24/24/20
f 18/44/21 17/45/21 31/46/21
f 14/47/22 31/48/22 13/49/22
f 16/50/23 31/5/23 11/51/23
f 15/6/24 31/5/24 16/50/24
f 12/52/25 31/53/25 17/54/25
f 11/55/26 31/53/26 12/52/26
f 18/56/27 31/48/27 14/47/27
f 7/57/28 6/21/28 53/3/28
f 56/3/29 62/3/29 34/3/29
f 5/1/30 59/58/30 35/59/30
f 45/60/31 46/61/31 47/62/31
f 42/63/32 40/64/32 41/65/32
f 39/66/33 40/64/33 38/67/33
f 43/68/34 46/69/34 45/70/34
f 51/71/35 38/67/35 50/72/35
f 48/73/36 44/74/36 43/68/36
f 51/71/37 49/75/37 48/73/37
f 9/76/38 38/77/38 1/7/38
f 38/77/39 2/22/39 1/7/39
f 39/66/40 18/78/40 14/79/40
f 39/66/41 13/80/41 41/81/41
f 42/82/42 6/21/42 2/22/42
f 41/65/43 47/62/43 60/83/43
f 41/81/44 13/80/44 15/84/44
f 45/60/45 15/84/45 16/85/45
f 43/68/46 11/86/46 12/87/46
f 4/12/47 44/88/47 3/10/47
f 44/88/48 10/89/48 3/10/48
f 43/68/49 17/90/49 48/73/49
f 11/86/50 45/91/50 16/85/50
f 46/61/51 5/1/51 35/59/51
f 48/73/52 18/78/52 51/71/52
f 49/92/53 9/93/53 10/94/53
f 58/95/54 6/21/54 32/96/54
f 55/3/55 52/3/55 8/2/55
f 57/3/56 7/57/56 53/3/56
f 54/3/57 8/2/57 7/57/57
f 59/58/58 56/3/58 34/3/58
f 58/95/59 57/3/59 53/3/59
f 58/95/60 37/3/60 33/3/60
f 36/3/61 59/58/61 34/3/61
f 37/3/62 61/3/62 36/3/62
f 35/59/63 59/58/63 61/3/63
f 58/95/63 32/97/63 60/3/63
f 66/3/63 69/3/63 64/3/63
f 57/3/64 65/3/64 69/3/64
f 54/3/65 66/3/65 55/3/65
f 36/3/66 62/3/66 63/3/66
f 54/3/67 69/3/67 67/3/67
f 55/3/68 68/3/68 56/3/68
f 37/3/69 65/3/69 33/3/69
f 37/3/70 63/3/70 64/3/70
f 1/7/3 2/22/3 20/8/3
f 3/10/4 21/36/4 22/11/4
f 1/13/5 19/98/5 25/14/5
f 5/1/71 4/12/71 22/11/71
f 3/17/7 10/20/7 26/18/7
f 9/15/8 25/14/8 26/18/8
f 6/21/72 24/40/72 20/8/72
f 5/23/10 23/42/10 24/24/10
f 6/26/11 7/57/11 8/2/11
f 29/28/12 30/99/12 27/29/12
f 25/31/13 30/100/13 29/32/13
f 22/11/73 21/36/73 29/38/73
f 20/8/74 27/41/74 30/35/74
f 23/42/20 28/101/20 27/43/20
f 56/3/29 68/3/29 62/3/29
f 5/1/30 52/3/30 59/58/30
f 39/66/75 41/81/75 40/64/75
f 43/68/76 44/74/76 46/69/76
f 51/71/77 39/66/77 38/67/77
f 48/73/78 49/75/78 44/74/78
f 51/71/37 50/72/37 49/75/37
f 9/76/38 50/102/38 38/77/38
f 38/77/39 40/103/39 2/22/39
f 39/66/79 51/71/79 18/78/79
f 39/66/80 14/79/80 13/80/80
f 2/22/81 40/103/81 42/82/81
f 42/82/82 32/96/82 6/21/82
f 32/97/43 42/63/43 41/65/43
f 41/65/43 45/60/43 47/62/43
f 47/62/43 35/104/43 61/105/43
f 60/83/43 32/97/43 41/65/43
f 47/62/43 61/105/43 60/83/43
f 45/60/45 41/106/45 15/84/45
f 43/68/83 45/70/83 11/86/83
f 4/12/47 46/61/47 44/88/47
f 44/88/48 49/107/48 10/89/48
f 43/68/84 12/87/84 17/90/84
f 35/59/85 47/108/85 46/61/85
f 46/61/86 4/12/86 5/1/86
f 48/73/52 17/90/52 18/78/52
f 49/92/53 50/109/53 9/93/53
f 58/95/54 53/3/54 6/21/54
f 55/3/55 56/3/55 52/3/55
f 57/3/56 54/3/56 7/57/56
f 54/3/57 55/3/57 8/2/57
f 59/58/58 52/3/58 56/3/58
f 58/95/59 33/3/59 57/3/59
f 58/95/87 60/3/87 37/3/87
f 36/3/88 61/3/88 59/58/88
f 37/3/62 60/83/62 61/3/62
f 64/3/63 63/3/63 62/3/63
f 62/3/63 68/3/63 66/3/63
f 66/3/63 67/3/63 69/3/63
f 69/3/63 65/3/63 64/3/63
f 64/3/63 62/3/63 66/3/63
f 57/3/64 33/3/64 65/3/64
f 54/3/65 67/3/65 66/3/65
f 36/3/66 34/3/66 62/3/66
f 54/3/67 57/3/67 69/3/67
f 55/3/68 66/3/68 68/3/68
f 37/3/69 64/3/69 65/3/69
f 37/3/70 36/3/70 63/3/70
