# Blender 5.0.1
# www.blender.org
mtllib Toilet02Lid.mtl
o Toilet02Lid
v -0.172886 0.000496 0.214547
v -0.200000 0.000623 -0.130570
v 0.172886 0.000496 0.214547
v 0.200000 0.000623 -0.130570
v -0.066667 0.000645 -0.192845
v 0.066667 0.000645 -0.192845
v 0.066667 0.000446 0.350317
v -0.066667 0.000446 0.350317
v -0.172886 0.018112 0.214138
v -0.200000 0.018238 -0.130978
v 0.066667 0.018261 -0.193254
v 0.200000 0.018238 -0.130978
v 0.172886 0.018112 0.214138
v -0.066667 0.018062 0.349908
v -0.066667 0.018261 -0.193254
v 0.066667 0.018062 0.349908
vn -0.0000 1.0000 0.0004
vn -0.0000 -1.0000 -0.0004
vn 0.7875 0.0143 0.6161
vn -0.0000 0.0232 0.9997
vn -0.9969 0.0018 0.0783
vn 0.4231 -0.0210 -0.9058
vn 0.9969 0.0018 0.0783
vn -0.7875 0.0143 0.6161
vn -0.4231 -0.0210 -0.9058
vn -0.0000 -0.0232 -0.9997
vt 0.031728 0.476723
vt 0.156024 0.000000
vt 0.468073 0.072873
vt 0.780121 -0.000000
vt 0.904417 0.476723
vt 0.624097 0.635598
vt 0.936145 0.405571
vt 0.956904 0.573216
vt 0.936291 0.573693
vt 0.020619 0.791623
vt 0.000000 0.635598
vt 0.020619 0.635598
vt 0.977518 0.000477
vt 0.957050 0.405093
vt 0.956904 0.000000
vt 0.998283 0.156024
vt 0.979381 0.000000
vt 1.000000 0.000000
vt 0.936291 0.000477
vt 0.956759 0.405093
vt 0.977663 0.405571
vt 0.956904 0.573217
vt 0.998283 0.312048
vt 0.979381 0.468073
vt 0.977663 0.312048
vt 0.977664 0.156024
vt 0.436345 0.476723
vt 0.312048 0.635598
vt 0.156024 0.635598
vt -0.000000 0.072873
vt 0.312048 0.000000
vt 0.499800 0.476723
vt 0.468073 0.072873
vt 0.624097 -0.000000
vt 0.936145 0.072873
vt 0.780121 0.635598
vt -0.000000 0.791623
vt 0.956904 0.000000
vt 0.977518 0.573693
vt 1.000000 0.468073
s 0
f 13/1/1 11/2/1 10/3/1
f 6/4/2 3/5/2 8/6/2
f 3/7/3 16/8/3 7/9/3
f 7/10/4 14/11/4 8/12/4
f 2/13/5 9/14/5 10/15/5
f 6/16/6 12/17/6 4/18/6
f 4/19/7 13/20/7 3/7/7
f 1/21/8 14/22/8 9/14/8
f 5/23/9 10/24/9 15/25/9
f 5/23/10 11/26/10 6/16/10
f 10/3/1 9/27/1 14/28/1
f 14/28/1 16/29/1 13/1/1
f 13/1/1 12/30/1 11/2/1
f 11/2/1 15/31/1 10/3/1
f 10/3/1 14/28/1 13/1/1
f 8/6/2 1/32/2 2/33/2
f 2/33/2 5/34/2 6/4/2
f 6/4/2 4/35/2 3/5/2
f 3/5/2 7/36/2 8/6/2
f 8/6/2 2/33/2 6/4/2
f 3/7/3 13/20/3 16/8/3
f 7/10/4 16/37/4 14/11/4
f 2/13/5 1/21/5 9/14/5
f 6/16/6 11/26/6 12/17/6
f 4/19/7 12/38/7 13/20/7
f 1/21/8 8/39/8 14/22/8
f 5/23/9 2/40/9 10/24/9
f 5/23/10 15/25/10 11/26/10
