# Blender 5.0.1
# www.blender.org
mtllib Toilet01.mtl
o Toilet01.001
v -0.150574 0.310000 0.178020
v -0.174188 0.310000 -0.153992
v 0.150574 0.310000 0.178020
v 0.174188 0.310000 -0.153992
v 0.058063 0.310000 -0.213903
v -0.058063 0.310000 -0.213903
v -0.058063 0.310000 0.308634
v 0.058063 0.310000 0.308634
v 0.130169 0.537585 -0.103402
v 0.113026 0.537585 0.147498
v -0.130169 0.537585 -0.103402
v -0.113026 0.537585 0.147498
v -0.051551 0.537585 -0.142066
v 0.051551 0.537585 -0.142066
v 0.046667 0.537585 0.310830
v -0.046667 0.537585 0.310830
v -0.090008 0.210000 0.118356
v -0.104123 0.210000 -0.080109
v 0.090008 0.210000 0.118356
v 0.104123 0.210000 -0.080109
v 0.034708 0.210000 -0.115922
v -0.034708 0.210000 -0.115922
v -0.034708 0.210000 0.196433
v 0.034708 0.210000 0.196433
v 0.123244 0.309255 -0.273319
v -0.123244 0.309255 -0.273319
v -0.136938 0.549255 -0.301288
v 0.136938 0.549255 -0.301288
v 0.123244 0.302399 -0.451739
v -0.123244 0.302399 -0.451739
v -0.136938 0.545950 -0.451739
v 0.136938 0.545950 -0.451739
v -0.077598 0.628270 -0.338809
v 0.077598 0.628270 -0.338809
v -0.077598 0.626397 -0.432784
v 0.077598 0.626397 -0.432784
v -0.100099 0.000000 -0.138648
v 0.100099 0.000000 -0.138648
v 0.100099 0.000000 0.226495
v -0.100099 0.000000 0.226495
v -0.000000 0.336769 -0.074757
v -0.171753 0.537809 0.198884
v -0.164035 0.548205 0.192237
v -0.189966 0.548205 -0.170031
v -0.198689 0.537809 -0.179829
v 0.164035 0.548205 0.192237
v 0.171753 0.537809 0.198884
v 0.189966 0.548205 -0.170031
v 0.198689 0.537809 -0.179829
v -0.066230 0.537811 -0.248167
v -0.064543 0.548205 -0.234835
v -0.054366 0.548205 -0.250000
v -0.076602 0.549895 -0.257251
v 0.064543 0.548205 -0.234835
v 0.066230 0.537811 -0.248167
v 0.076602 0.549895 -0.257251
v 0.054366 0.548205 -0.250000
v 0.060852 0.548205 0.338590
v 0.066230 0.537812 0.347871
v -0.066230 0.537812 0.347871
v -0.060852 0.548205 0.338590
v 0.036198 0.437177 0.231852
v 0.087672 0.437177 0.105159
v 0.039987 0.437177 -0.119449
v -0.039987 0.437177 -0.119449
v -0.036198 0.437177 0.231852
v -0.100969 0.437177 -0.089459
v 0.100969 0.437177 -0.089459
v -0.087672 0.437177 0.105159
vn 0.3825 0.4986 0.7779
vn -0.8377 -0.5429 0.0596
vn 0.8377 -0.5429 0.0596
vn -0.6251 -0.6428 0.4428
vn 0.3278 -0.6991 -0.6354
vn 0.6251 -0.6428 0.4428
vn -0.0000 -0.7465 0.6654
vn -0.3278 -0.6991 -0.6354
vn -0.0000 -0.6999 -0.7143
vn -0.9984 -0.0567 0.0022
vn -0.0000 -0.9999 0.0125
vn -0.0000 -0.0000 -1.0000
vn -0.0000 -0.9993 0.0384
vn 0.9984 -0.0561 0.0012
vn -0.0000 0.4290 0.9033
vn -0.0000 0.9998 -0.0199
vn -0.8034 0.5954 -0.0119
vn 0.8025 0.5965 -0.0131
vn -0.0000 0.2293 -0.9733
vn -0.0000 -1.0000 -0.0000
vn -0.0000 0.1417 0.9899
vn -0.7734 0.3192 0.5477
vn 0.7734 0.3192 0.5477
vn 0.9967 -0.0389 0.0709
vn -0.9988 0.0480 -0.0000
vn 0.4459 0.2324 -0.8644
vn -0.4459 0.2324 -0.8644
vn -0.0000 0.1076 -0.9942
vn -0.0000 0.9503 -0.3112
vn 0.7078 0.7047 -0.0484
vn -0.3825 0.4986 0.7779
vn -0.0000 0.4066 0.9136
vn -0.5179 0.8292 -0.2104
vn -0.7078 0.7047 -0.0484
vn 0.5179 0.8292 -0.2104
vn -0.2488 0.4365 0.8646
vn 0.6329 0.6474 -0.4247
vn -0.7842 0.6180 0.0561
vn 0.2915 0.7719 -0.5650
vn 0.7903 0.6102 0.0562
vn -0.5951 0.6843 0.4215
vn -0.2906 0.7740 -0.5625
vn 0.5851 0.6982 0.4125
vn -0.0000 0.6660 0.7459
vn -0.8094 -0.1277 0.5732
vn -0.9926 -0.0987 0.0706
vn 0.2936 0.9332 -0.2070
vn 0.1895 0.9818 -0.0136
vn -0.4534 -0.1484 -0.8789
vn 0.0548 0.9929 0.1060
vn -0.1927 0.9812 -0.0132
vn 0.9926 -0.0987 0.0706
vn 0.8094 -0.1277 0.5732
vn -0.0540 0.9925 0.1098
vn 0.4534 -0.1484 -0.8789
vn -0.0108 0.9992 0.0378
vn 0.0125 0.9951 0.0982
vn -0.5934 0.0597 0.8027
vn 0.5934 0.0597 0.8027
vn -0.0000 0.9340 -0.3573
vn -0.0000 -0.1697 0.9855
vn 0.8624 0.3655 -0.3504
vn -0.9606 0.2702 -0.0656
vn -0.8624 0.3655 -0.3504
vn -0.0000 0.2197 0.9756
vn -0.4278 0.2452 0.8700
vn 0.9606 0.2702 -0.0656
vn -0.0000 0.6182 -0.7860
vn 0.4278 0.2452 0.8700
vn -0.2936 0.9332 -0.2070
vn -0.9984 -0.0561 0.0012
vn 0.9984 -0.0567 0.0022
vn -0.8025 0.5965 -0.0131
vn 0.8034 0.5954 -0.0119
vn 0.9988 0.0480 -0.0000
vn -0.9967 -0.0389 0.0709
vn -0.6329 0.6474 -0.4247
vn 0.2488 0.4365 0.8646
vn -0.7903 0.6102 0.0562
vn 0.2906 0.7740 -0.5625
vn 0.7842 0.6180 0.0561
vn -0.5851 0.6982 0.4125
vn -0.2915 0.7719 -0.5650
vn 0.5951 0.6843 0.4215
vn 0.1514 0.9866 -0.0615
vn 0.1927 0.9812 -0.0132
vn 0.0540 0.9925 0.1098
vn -0.1895 0.9818 -0.0136
vn -0.0548 0.9929 0.1060
vn 0.1412 0.9680 -0.2076
vn -0.0000 0.9739 0.2269
vn -0.0000 0.9999 -0.0145
vn -0.1391 0.9859 0.0934
vn -0.0000 1.0000 -0.0000
vn -0.0000 0.9935 0.1137
vn -0.6717 0.0866 0.7358
vn -0.5873 0.0998 0.8032
vn 0.5873 0.0998 0.8032
vn 0.6717 0.0866 0.7358
vn -0.1514 0.9866 -0.0615
vt 0.939470 0.900118
vt 0.939470 0.994741
vt 0.903955 0.923674
vt 0.122270 0.162378
vt 0.293380 0.234347
vt 0.158066 0.234341
vt 0.607297 0.160374
vt 0.429407 0.224842
vt 0.382791 0.162028
vt 0.433764 0.637324
vt 0.469705 0.716209
vt 0.367378 0.700308
vt 0.490919 0.462519
vt 0.603879 0.431159
vt 0.586168 0.478420
vt 0.433764 0.842355
vt 0.469705 0.763470
vt 0.509388 0.801120
vt 0.367378 0.779370
vt 0.490919 0.541581
vt 0.603879 0.572941
vt 0.520548 0.620643
vt 0.586168 0.525680
vt 0.796129 0.677039
vt 0.905045 0.841159
vt 0.784269 0.841159
vt 0.186464 0.680252
vt 0.217000 0.803691
vt 0.186464 0.759314
vt 0.000000 0.727826
vt 0.177141 0.856648
vt 0.009323 0.856648
vt 0.509388 0.637324
vt 0.603178 0.805141
vt 0.509388 0.805141
vt 0.328275 0.722231
vt 0.218035 0.884347
vt 0.226038 0.720556
vt 0.952202 0.539390
vt 0.892715 0.393327
vt 0.952202 0.352926
vt 0.146063 0.635874
vt 0.040401 0.677150
vt 0.040401 0.635874
vt 0.897888 0.675363
vt 0.814248 0.626622
vt 0.877803 0.625446
vt 0.302735 0.663543
vt 0.186464 0.727826
vt 0.146063 0.677150
vt 0.847816 0.000000
vt 0.984118 0.185589
vt 0.847816 0.185589
vt 0.367378 0.886876
vt 0.503151 0.978657
vt 0.367378 0.934136
vt 0.100855 0.237553
vt 0.086391 0.375516
vt 0.563609 0.223853
vt 0.614191 0.219979
vt 0.636557 0.366776
vt 0.388493 0.366776
vt 0.333269 0.377204
vt 0.863168 0.232849
vt 0.847816 0.185589
vt 0.983986 0.188329
vt 0.847816 0.327370
vt 0.863168 0.280110
vt 0.983986 0.324630
vt 0.820508 0.439624
vt 0.868863 0.449179
vt 0.808909 0.625446
vt 0.293006 0.520816
vt 0.218035 0.402549
vt 0.293006 0.388005
vt 0.866539 0.963231
vt 0.844992 1.000000
vt 0.892715 0.509253
vt 0.781413 0.270827
vt 0.719983 0.273283
vt 0.774641 0.140471
vt 0.775600 0.486110
vt 0.627781 0.451020
vt 0.620950 0.459097
vt 0.617611 0.443958
vt 0.627781 0.541202
vt 0.620950 0.533125
vt 0.625811 0.540054
vt 0.360024 -0.000000
vt 0.109171 0.006516
vt 0.113017 0.000000
vt 0.186504 0.896140
vt 0.197523 0.803691
vt 0.197523 0.898512
vt 0.373694 0.001817
vt 0.623462 0.007581
vt 0.367378 0.009468
vt 0.650792 0.700951
vt 0.612254 0.625446
vt 0.660010 0.697290
vt 0.208542 0.896141
vt 0.197523 0.803691
vt 0.208582 0.806343
vt 0.650792 0.783811
vt 0.612254 0.859316
vt 0.603879 0.854062
vt 0.660010 0.787472
vt 0.026561 0.167751
vt 0.348636 0.162388
vt 0.017517 0.538311
vt 0.062738 0.618220
vt -0.000000 0.547969
vt 0.195090 0.595162
vt 0.218035 0.635874
vt 0.367378 0.547141
vt 0.646584 0.366776
vt 0.661927 0.461013
vt 0.625811 0.452168
vt 0.062738 0.394858
vt 0.195090 0.417916
vt 0.087534 0.429587
vt 0.691916 0.153893
vt 0.646584 0.625446
vt 0.661927 0.531209
vt 0.674320 0.584734
vt 0.367378 0.456959
vt 0.520548 0.383457
vt 0.341545 0.792614
vt 0.343760 0.703446
vt 0.362976 0.848831
vt 0.603879 0.402879
vt 0.757001 0.412202
vt 0.757001 0.580020
vt 0.603879 0.589343
vt 0.000000 0.465109
vt 0.784269 0.702850
vt 0.784269 0.781912
vt 0.290020 0.609200
vt 0.362976 0.548423
vt 0.359127 0.662367
vt 0.847816 0.273283
vt 0.839084 0.105229
vt 0.773216 0.058847
vt 0.837248 -0.000000
vt 0.812047 0.922525
vt 0.860283 0.871528
vt 0.784269 0.969927
vt 0.362976 0.377204
vt 0.892715 0.365245
vt 0.830376 0.352926
vt 0.906069 0.841159
vt 0.017517 0.474767
vt 0.509388 0.678559
vt 0.217000 0.635874
vt 0.603178 0.637324
vt 0.339366 0.884347
vt 0.892715 0.498989
vt 0.238881 0.662367
vt 0.984118 0.000000
vt 0.503151 0.842355
vt 0.617611 0.548264
vt 0.367378 0.006527
vt 0.186464 0.806343
vt 0.618651 0.000000
vt 0.603879 0.630700
vt 0.197523 0.898513
vt -0.000000 0.012644
vt 0.087534 0.583491
vt 0.401175 0.637324
vt 0.674320 0.407488
vt 0.218035 0.377204
vt 0.719983 0.000187
vt 0.401175 0.366776
vt 0.343760 0.807752
vt 0.341546 0.718585
vt 0.362976 0.662367
vt 0.775600 0.456580
vt 0.775600 0.535642
s 0
f 67/1/1 41/2/1 65/3/1
f 1/4/2 18/5/2 17/6/2
f 3/7/3 20/8/3 4/9/3
f 1/10/4 23/11/4 7/12/4
f 5/13/5 20/14/5 21/15/5
f 3/16/6 24/17/6 19/18/6
f 7/12/7 24/17/7 8/19/7
f 6/20/8 18/21/8 2/22/8
f 5/13/9 22/23/9 6/20/9
f 27/24/10 30/25/10 26/26/10
f 6/27/11 25/28/11 5/29/11
f 31/30/12 29/31/12 30/32/12
f 26/33/13 29/34/13 25/35/13
f 28/36/14 29/37/14 32/38/14
f 28/39/15 33/40/15 27/41/15
f 34/42/16 35/43/16 33/44/16
f 31/45/17 33/46/17 35/47/17
f 32/38/18 34/48/18 28/36/18
f 32/49/19 35/43/19 36/50/19
f 39/51/20 37/52/20 38/53/20
f 23/54/21 39/55/21 24/56/21
f 23/57/22 17/6/22 40/58/22
f 19/59/23 24/60/23 39/61/23
f 19/59/24 38/62/24 20/8/24
f 17/6/25 37/63/25 40/58/25
f 21/64/26 20/65/26 38/66/26
f 18/67/27 22/68/27 37/69/27
f 21/64/28 37/69/28 22/68/28
f 66/70/29 62/71/29 41/72/29
f 69/73/30 41/74/30 67/75/30
f 64/76/31 41/2/31 68/77/31
f 65/3/32 41/2/32 64/76/32
f 63/78/33 41/72/33 62/71/33
f 68/79/34 41/80/34 63/81/34
f 66/70/35 41/72/35 69/82/35
f 50/83/36 52/84/36 53/85/36
f 55/86/37 57/87/37 54/88/37
f 44/89/38 42/90/38 43/91/38
f 54/92/39 49/93/39 55/94/39
f 48/95/40 47/96/40 49/97/40
f 61/98/41 42/99/41 60/100/41
f 51/101/42 45/102/42 44/103/42
f 58/104/43 47/105/43 46/106/43
f 61/98/44 59/107/44 58/104/44
f 7/108/45 42/90/45 1/4/45
f 42/90/46 2/109/46 1/4/46
f 16/110/47 43/111/47 61/112/47
f 43/111/48 11/113/48 44/114/48
f 2/22/49 50/115/49 6/20/49
f 44/116/50 13/117/50 51/118/50
f 46/119/51 9/120/51 10/121/51
f 4/9/52 47/96/52 3/7/52
f 47/96/53 8/122/53 3/7/53
f 48/123/54 14/124/54 9/125/54
f 55/126/55 4/127/55 5/13/55
f 52/128/56 56/129/56 27/130/56
f 57/87/57 51/118/57 14/124/57
f 50/83/58 27/131/58 26/132/58
f 55/86/59 25/133/59 28/134/59
f 58/135/60 16/110/60 61/112/60
f 59/107/61 7/136/61 8/137/61
f 66/138/62 12/139/62 16/140/62
f 9/141/63 63/81/63 10/142/63
f 10/142/64 62/143/64 15/144/64
f 65/3/65 14/145/65 13/146/65
f 14/145/66 68/77/66 9/147/66
f 69/73/67 11/148/67 12/139/67
f 15/149/68 66/70/68 16/150/68
f 67/1/69 13/146/69 11/151/69
f 46/119/70 15/152/70 58/135/70
f 1/4/2 2/109/2 18/5/2
f 3/7/3 19/59/3 20/8/3
f 1/10/4 17/153/4 23/11/4
f 5/13/5 4/127/5 20/14/5
f 3/16/6 8/19/6 24/17/6
f 7/12/7 23/11/7 24/17/7
f 6/20/8 22/23/8 18/21/8
f 5/13/9 21/15/9 22/23/9
f 27/24/71 31/45/71 30/25/71
f 6/27/11 26/154/11 25/28/11
f 31/30/12 32/49/12 29/31/12
f 26/33/13 30/155/13 29/34/13
f 28/36/72 25/156/72 29/37/72
f 28/39/15 34/157/15 33/40/15
f 34/42/16 36/50/16 35/43/16
f 31/45/73 27/24/73 33/46/73
f 32/38/74 36/158/74 34/48/74
f 32/49/19 31/30/19 35/43/19
f 39/51/20 40/159/20 37/52/20
f 23/54/21 40/160/21 39/55/21
f 19/59/75 39/61/75 38/62/75
f 17/6/76 18/5/76 37/63/76
f 21/64/28 38/66/28 37/69/28
f 50/83/77 51/118/77 52/84/77
f 55/86/78 56/161/78 57/87/78
f 44/89/79 45/162/79 42/90/79
f 54/92/80 48/163/80 49/93/80
f 48/95/81 46/164/81 47/96/81
f 61/98/82 43/165/82 42/99/82
f 51/101/83 50/166/83 45/102/83
f 58/104/84 59/107/84 47/105/84
f 61/98/44 60/100/44 59/107/44
f 7/108/45 60/167/45 42/90/45
f 42/90/46 45/162/46 2/109/46
f 16/110/85 12/168/85 43/111/85
f 43/111/86 12/168/86 11/113/86
f 2/22/49 45/169/49 50/115/49
f 44/116/87 11/170/87 13/117/87
f 46/119/88 48/171/88 9/120/88
f 4/9/52 49/97/52 47/96/52
f 47/96/53 59/172/53 8/122/53
f 48/123/89 54/88/89 14/124/89
f 55/126/55 49/173/55 4/127/55
f 27/130/90 53/174/90 52/128/90
f 52/128/91 57/175/91 56/129/91
f 56/129/92 28/176/92 27/130/92
f 14/124/93 54/88/93 57/87/93
f 57/87/94 52/84/94 51/118/94
f 51/118/95 13/117/95 14/124/95
f 26/132/96 6/177/96 50/83/96
f 50/83/97 53/85/97 27/131/97
f 28/134/98 56/161/98 55/86/98
f 55/86/99 5/178/99 25/133/99
f 58/135/60 15/152/60 16/110/60
f 59/107/61 60/100/61 7/136/61
f 66/138/62 69/73/62 12/139/62
f 9/141/63 68/79/63 63/81/63
f 10/142/64 63/81/64 62/143/64
f 65/3/65 64/76/65 14/145/65
f 14/145/66 64/76/66 68/77/66
f 69/73/67 67/75/67 11/148/67
f 15/149/68 62/71/68 66/70/68
f 67/1/69 65/3/69 13/146/69
f 46/119/100 10/121/100 15/152/100
