# Blender 5.0.1
# www.blender.org
mtllib TrashCanFull02.mtl
o TrashCanFull02
v -0.121511 0.000000 0.123149
v -0.121511 0.000000 0.123149
v -0.121511 0.000000 0.123149
v -0.153937 0.000000 0.090730
v -0.153937 0.000000 0.090730
v -0.153937 0.000000 0.090730
v -0.153937 0.000000 -0.090730
v -0.153937 0.000000 -0.090730
v -0.153937 0.000000 -0.090730
v -0.121511 0.000000 -0.123149
v -0.121511 0.000000 -0.123149
v -0.121511 0.000000 -0.123149
v 0.153937 0.000000 0.090730
v 0.153937 0.000000 0.090730
v 0.153937 0.000000 0.090730
v 0.121511 0.000000 0.123149
v 0.121511 0.000000 0.123149
v 0.121511 0.000000 0.123149
v 0.121511 0.000000 -0.123149
v 0.121511 0.000000 -0.123149
v 0.121511 0.000000 -0.123149
v 0.153937 0.000000 -0.090730
v 0.153937 0.000000 -0.090730
v 0.153937 0.000000 -0.090730
v -0.171041 0.513122 0.104413
v -0.171041 0.513122 0.104413
v -0.138615 0.513122 0.136832
v -0.138615 0.513122 0.136832
v -0.138615 0.513122 -0.136832
v -0.138615 0.513122 -0.136832
v -0.171041 0.513122 -0.104413
v -0.171041 0.513122 -0.104413
v 0.171041 0.513122 -0.104413
v 0.171041 0.513122 -0.104413
v 0.138615 0.513122 -0.136832
v 0.138615 0.513122 -0.136832
v 0.138615 0.513122 0.136832
v 0.138615 0.513122 0.136832
v 0.171041 0.513122 0.104413
v 0.171041 0.513122 0.104413
v -0.131032 0.513122 0.116067
v -0.131032 0.513122 0.116067
v -0.150275 0.513122 0.096827
v -0.150275 0.513122 0.096827
v -0.150275 0.513122 -0.096827
v -0.150275 0.513122 -0.096827
v -0.131032 0.513122 -0.116067
v -0.131032 0.513122 -0.116067
v 0.150275 0.513122 0.096827
v 0.150275 0.513122 0.096827
v 0.131032 0.513122 0.116067
v 0.131032 0.513122 0.116067
v 0.131032 0.513122 -0.116067
v 0.131032 0.513122 -0.116067
v 0.150275 0.513122 -0.096827
v 0.150275 0.513122 -0.096827
v -0.137502 0.494844 0.086961
v -0.137502 0.494844 0.086961
v -0.137502 0.494844 0.086961
v -0.137502 0.494844 0.086961
v -0.118259 0.494844 0.106201
v -0.118259 0.494844 0.106201
v -0.118259 0.494844 0.106201
v -0.118259 0.494844 0.106201
v -0.118259 0.494844 -0.106201
v -0.118259 0.494844 -0.106201
v -0.118259 0.494844 -0.106201
v -0.118259 0.494844 -0.106201
v -0.137502 0.494844 -0.086961
v -0.137502 0.494844 -0.086961
v -0.137502 0.494844 -0.086961
v -0.137502 0.494844 -0.086961
v 0.137502 0.494844 -0.086961
v 0.137502 0.494844 -0.086961
v 0.137502 0.494844 -0.086961
v 0.137502 0.494844 -0.086961
v 0.118259 0.494844 -0.106201
v 0.118259 0.494844 -0.106201
v 0.118259 0.494844 -0.106201
v 0.118259 0.494844 -0.106201
v 0.118259 0.494844 0.106201
v 0.118259 0.494844 0.106201
v 0.118259 0.494844 0.106201
v 0.118259 0.494844 0.106201
v 0.137502 0.494844 0.086961
v 0.137502 0.494844 0.086961
v 0.137502 0.494844 0.086961
v 0.137502 0.494844 0.086961
v -0.061710 0.522864 0.063751
v -0.061710 0.522864 0.063751
v -0.061710 0.522864 0.063751
v -0.061710 0.522864 0.063751
v 0.085093 0.518921 0.059481
v 0.085093 0.518921 0.059481
v 0.085093 0.518921 0.059481
v 0.085093 0.518921 0.059481
v -0.091235 0.507926 -0.055034
v -0.091235 0.507926 -0.055034
v -0.091235 0.507926 -0.055034
v -0.091235 0.507926 -0.055034
v 0.070876 0.524835 -0.054833
v 0.070876 0.524835 -0.054833
v 0.070876 0.524835 -0.054833
v 0.070876 0.524835 -0.054833
v 0.121513 0.000000 0.090730
v 0.121511 0.000000 -0.090723
v -0.121512 0.000000 0.090730
v -0.121512 0.000000 -0.090729
v -0.171041 0.513122 0.104413
v -0.171041 0.513122 0.104413
v -0.138615 0.513122 0.136832
v -0.138615 0.513122 0.136832
v -0.138615 0.513122 -0.136832
v -0.138615 0.513122 -0.136832
v -0.171041 0.513122 -0.104413
v -0.171041 0.513122 -0.104413
v 0.171041 0.513122 -0.104413
v 0.171041 0.513122 -0.104413
v 0.138615 0.513122 -0.136832
v 0.138615 0.513122 -0.136832
v 0.138615 0.513122 0.136832
v 0.138615 0.513122 0.136832
v 0.171041 0.513122 0.104413
v 0.171041 0.513122 0.104413
v -0.131032 0.513122 0.116067
v -0.131032 0.513122 0.116067
v -0.150275 0.513122 0.096827
v -0.150275 0.513122 0.096827
v -0.150275 0.513122 -0.096827
v -0.150275 0.513122 -0.096827
v -0.131032 0.513122 -0.116067
v -0.131032 0.513122 -0.116067
v 0.150275 0.513122 0.096827
v 0.150275 0.513122 0.096827
v 0.131032 0.513122 0.116067
v 0.131032 0.513122 0.116067
v 0.131032 0.513122 -0.116067
v 0.131032 0.513122 -0.116067
v 0.150275 0.513122 -0.096827
v 0.150275 0.513122 -0.096827
vn -0.0000 -0.0267 0.9996
vn 0.9994 -0.0333 -0.0000
vn -0.0000 0.4750 -0.8800
vn -0.0000 -0.0267 -0.9996
vn -0.9994 -0.0333 -0.0000
vn -0.0000 0.4750 0.8800
vn 0.4135 0.9105 -0.0017
vn -0.8197 0.5729 -0.0000
vn -0.7064 -0.0424 0.7065
vn -0.7064 -0.0424 -0.7065
vn 0.7064 -0.0424 -0.7065
vn 0.7064 -0.0424 0.7065
vn -0.0000 -1.0000 -0.0000
vn -0.5319 0.6589 -0.5320
vn 0.5319 0.6589 -0.5320
vn 0.5319 0.6589 0.5320
vn -0.5319 0.6589 0.5320
vn 0.8197 0.5729 -0.0000
vn -0.2627 0.9284 0.2628
vn 0.2772 0.9199 0.2773
vn -0.3180 0.9479 -0.0163
vn 0.0145 0.8617 0.5072
vn -0.0423 0.9986 -0.0307
vn -0.1628 0.9731 -0.1628
vn -0.0388 0.9185 -0.3935
vn 0.2790 0.9188 -0.2791
vn -0.0000 1.0000 -0.0000
vt 0.500000 0.531250
vt 0.500000 0.968750
vt 0.250000 0.968750
vt 0.250000 0.531250
vt 0.718750 0.531250
vt 0.718750 0.968750
vt 0.531250 0.968750
vt 0.531250 0.531250
vt 0.500000 0.937500
vt 0.250000 0.937500
vt 1.000000 0.531250
vt 1.000000 0.968750
vt 0.750000 0.968750
vt 0.750000 0.531250
vt 0.218750 0.531250
vt 0.218750 0.968750
vt 0.031250 0.968750
vt 0.031250 0.531250
vt 1.000000 0.937500
vt 0.750000 0.937500
vt 0.906250 0.250000
vt 0.812500 0.250000
vt 0.812500 0.125000
vt 0.875000 0.125000
vt 0.718750 0.937500
vt 0.531250 0.937500
vt 0.000000 0.968750
vt 0.000000 0.531250
vt 0.031250 0.062500
vt 0.062500 0.062500
vt 0.062500 0.250000
vt 0.031250 0.250000
vt 0.218750 0.937500
vt 0.031250 0.937500
vt 0.000000 0.937500
vt 0.625000 0.062500
vt 0.625000 0.125000
vt 0.531250 0.125000
vt 0.812500 0.062500
vt 0.625000 0.250000
vt 0.562500 0.250000
vt 0.625000 0.312500
vt 0.812500 0.312500
vt 0.062500 0.281250
vt 0.312500 0.281250
vt 0.312500 0.250000
vt 0.343750 0.250000
vt 0.312500 0.062500
vt 0.343750 0.062500
vt 0.312500 0.031250
vt 0.062500 0.031250
vt 1.000000 1.000000
vt 0.750000 1.000000
vt 0.718750 1.000000
vt 0.531250 1.000000
vt 0.218750 1.000000
vt 0.031250 1.000000
vt 0.500000 1.000000
vt 0.250000 1.000000
vt 0.000000 1.000000
s 0
usemtl TrashCanFull02
f 16/1/1 37/2/1 27/3/1
f 16/1/1 27/3/1 1/4/1
f 24/5/2 34/6/2 40/7/2
f 24/5/2 40/7/2 15/8/2
f 41/3/3 51/2/3 81/9/3
f 41/3/3 81/9/3 61/10/3
f 10/11/4 29/12/4 35/13/4
f 10/11/4 35/13/4 19/14/4
f 6/15/5 26/16/5 32/17/5
f 6/15/5 32/17/5 9/18/5
f 53/13/6 47/12/6 65/19/6
f 53/13/6 65/19/6 77/20/6
s 1
f 74/21/7 102/22/7 95/23/7
f 74/21/7 95/23/7 86/24/7
s 0
f 50/7/8 56/6/8 76/25/8
s 1
f 50/7/8 76/25/8 88/26/8
s 0
f 3/4/9 28/3/9 25/16/9
f 3/4/9 25/16/9 5/15/9
s 1
f 30/27/10 12/28/10 8/18/10
s 0
f 30/27/10 8/18/10 31/17/10
f 33/6/11 23/5/11 21/14/11
f 33/6/11 21/14/11 36/13/11
s 1
f 38/2/12 18/1/12 14/8/12
s 0
f 38/2/12 14/8/12 39/7/12
f 7/29/13 108/30/13 107/31/13
f 7/29/13 107/31/13 4/32/13
f 49/7/14 87/26/14 84/9/14
f 49/7/14 84/9/14 52/2/14
f 57/33/15 43/16/15 42/3/15
f 57/33/15 42/3/15 63/10/15
f 45/17/16 69/34/16 66/35/16
f 45/17/16 66/35/16 48/27/16
f 75/25/17 55/6/17 54/13/17
f 75/25/17 54/13/17 80/20/17
f 46/17/18 44/16/18 58/33/18
s 1
f 46/17/18 58/33/18 70/34/18
s 0
f 64/36/19 91/37/19 59/38/19
f 85/24/20 94/23/20 83/39/20
s 1
f 60/38/21 92/37/21 100/40/21
f 60/38/21 100/40/21 72/41/21
f 82/39/22 93/23/22 89/37/22
f 82/39/22 89/37/22 62/36/22
f 96/23/23 104/22/23 98/40/23
f 96/23/23 98/40/23 90/37/23
s 0
f 71/41/24 99/40/24 68/42/24
s 1
f 97/40/25 103/22/25 79/43/25
f 97/40/25 79/43/25 67/42/25
s 0
f 101/22/26 73/21/26 78/43/26
f 4/32/13 107/31/13 2/44/13
f 17/45/13 105/46/13 13/47/13
f 105/46/13 106/48/13 22/49/13
f 105/46/13 22/49/13 13/47/13
f 22/49/13 106/48/13 20/50/13
f 106/48/13 108/30/13 11/51/13
f 106/48/13 11/51/13 20/50/13
f 11/51/13 108/30/13 7/29/13
f 2/44/13 107/31/13 105/46/13
f 2/44/13 105/46/13 17/45/13
f 107/31/13 108/30/13 106/48/13
f 107/31/13 106/48/13 105/46/13
f 114/12/27 132/52/27 138/53/27
f 114/12/27 138/53/27 120/13/27
f 117/6/27 139/54/27 134/55/27
f 117/6/27 134/55/27 124/7/27
f 110/16/27 127/56/27 130/57/27
f 110/16/27 130/57/27 116/17/27
f 112/3/27 121/2/27 135/58/27
f 112/3/27 135/58/27 125/59/27
f 111/16/27 126/3/27 128/59/27
f 111/16/27 128/59/27 109/56/27
f 113/57/27 115/60/27 129/27/27
f 113/57/27 129/27/27 131/17/27
f 118/53/27 119/54/27 137/6/27
f 118/53/27 137/6/27 140/13/27
f 122/7/27 123/55/27 133/58/27
f 122/7/27 133/58/27 136/2/27
