# Blender 5.0.1
# www.blender.org
mtllib SoapBar.mtl
o SoapBar
v -0.020444 0.020444 0.040000
v -0.020444 0.025000 0.035444
v -0.025000 0.020444 0.035444
v -0.025000 0.020444 -0.035444
v -0.020444 0.025000 -0.035444
v -0.020444 0.020444 -0.040000
v 0.025000 0.020444 0.035444
v 0.020444 0.025000 0.035444
v 0.020444 0.020444 0.040000
v 0.020444 0.020444 -0.040000
v 0.020444 0.025000 -0.035444
v 0.025000 0.020444 -0.035444
v -0.025000 0.004556 0.035444
v -0.020444 0.000000 0.035444
v -0.020444 0.004556 0.040000
v -0.025000 0.004556 -0.035444
v -0.020444 0.004556 -0.040000
v -0.020444 0.000000 -0.035444
v 0.020444 0.004556 -0.040000
v 0.025000 0.004556 -0.035444
v 0.020444 0.000000 -0.035444
v 0.025000 0.004556 0.035444
v 0.020444 0.004556 0.040000
v 0.020444 0.000000 0.035444
vn -0.5774 0.5774 0.5773
vn -0.5774 0.5774 -0.5773
vn 0.5774 0.5774 0.5773
vn 0.5774 0.5774 -0.5773
vn -0.5774 -0.5774 0.5773
vn -0.5774 -0.5774 -0.5774
vn 0.5774 -0.5774 -0.5773
vn 0.5774 -0.5774 0.5773
vn -0.7071 -0.0000 0.7071
vn -0.7071 0.7071 -0.0000
vn -0.0000 0.7071 -0.7071
vn 0.7071 0.7071 -0.0000
vn -0.0000 0.7071 0.7071
vn -0.7071 -0.0000 -0.7071
vn 0.7071 -0.0000 -0.7071
vn 0.7071 -0.0000 0.7071
vn -0.0000 -0.7071 0.7071
vn 0.7071 -0.7071 -0.0000
vn -0.0000 -0.7071 -0.7071
vn -0.7071 -0.7071 -0.0000
vn -0.0000 -0.0000 1.0000
vn -1.0000 -0.0000 -0.0000
vn -0.0000 1.0000 -0.0000
vn -0.0000 -0.0000 -1.0000
vn 1.0000 -0.0000 -0.0000
vn -0.0000 -1.0000 -0.0000
vt 0.034167 0.204443
vt 0.034167 0.271355
vt 0.000000 0.229120
vt 0.000000 0.746204
vt 0.034167 0.721527
vt 0.034167 0.784168
vt 0.392084 0.259966
vt 0.349374 0.278473
vt 0.355069 0.215833
vt 0.340833 0.795557
vt 0.340833 0.728645
vt 0.386389 0.758542
vt 0.875000 0.278473
vt 0.840833 0.278473
vt 0.840832 0.250000
vt 0.000000 0.954443
vt 0.034167 0.954443
vt 0.034167 1.000000
vt 0.340833 0.954443
vt 0.375000 0.954443
vt 0.340833 1.000000
vt 0.375000 0.045557
vt 0.340833 0.045557
vt 0.340833 0.000000
vt 0.000000 0.045557
vt 0.034167 0.045557
vt 0.534168 0.278473
vt 0.534167 0.250000
vt 0.477222 0.278473
vt 0.534167 0.721527
vt 0.477222 0.721527
vt 0.534168 0.750000
vt 0.840833 0.721527
vt 0.840833 0.750000
vt 0.875000 0.721527
vt 0.897778 0.721527
vt 0.977222 0.278473
vt 0.977222 0.721527
vt 0.897778 0.278473
s 0
usemtl 8x8grid
f 1/1/1 2/2/1 3/3/1
f 4/4/2 5/5/2 6/6/2
f 7/7/3 8/8/3 9/9/3
f 10/10/4 11/11/4 12/12/4
f 13/13/5 14/14/5 15/15/5
f 16/16/6 17/17/6 18/18/6
f 19/19/7 20/20/7 21/21/7
f 22/22/8 23/23/8 24/24/8
f 1/1/9 13/25/9 15/26/9
f 5/5/10 3/3/10 2/2/10
f 11/11/11 6/6/11 5/5/11
f 8/8/12 12/12/12 11/11/12
f 2/2/13 9/9/13 8/8/13
f 17/17/14 4/4/14 6/6/14
f 20/20/15 10/10/15 12/12/15
f 23/23/16 7/7/16 9/9/16
f 15/15/17 24/27/17 23/28/17
f 22/29/18 21/30/18 20/31/18
f 19/32/19 18/33/19 17/34/19
f 16/35/20 14/14/20 13/13/20
f 9/9/21 15/26/21 23/23/21
f 3/36/22 16/37/22 13/38/22
f 5/5/23 8/8/23 11/11/23
f 6/6/24 19/19/24 17/17/24
f 12/12/25 22/29/25 20/31/25
f 14/14/26 21/30/26 24/27/26
f 1/1/9 3/3/9 13/25/9
f 5/5/10 4/4/10 3/3/10
f 11/11/11 10/10/11 6/6/11
f 8/8/12 7/7/12 12/12/12
f 2/2/13 1/1/13 9/9/13
f 17/17/14 16/16/14 4/4/14
f 20/20/15 19/19/15 10/10/15
f 23/23/16 22/22/16 7/7/16
f 15/15/17 14/14/17 24/27/17
f 22/29/18 24/27/18 21/30/18
f 19/32/19 21/30/19 18/33/19
f 16/35/20 18/33/20 14/14/20
f 9/9/21 1/1/21 15/26/21
f 3/36/22 4/39/22 16/37/22
f 5/5/23 2/2/23 8/8/23
f 6/6/24 10/10/24 19/19/24
f 12/12/25 7/7/25 22/29/25
f 14/14/26 18/33/26 21/30/26
