# Blender 5.0.1
# www.blender.org
mtllib ToiletBrush.mtl
o ToiletBrush
v 0.000000 0.007000 -0.034920
v 0.000000 0.063000 -0.034920
v 0.024692 0.007000 -0.024692
v 0.024692 0.063000 -0.024692
v 0.034920 0.007000 0.000000
v 0.034920 0.063000 0.000000
v 0.024692 0.007000 0.024692
v 0.024692 0.063000 0.024692
v 0.000000 0.007000 0.034920
v 0.000000 0.063000 0.034920
v -0.024692 0.007000 0.024692
v -0.024692 0.063000 0.024692
v -0.034920 0.007000 0.000000
v -0.034920 0.063000 0.000000
v -0.024692 0.007000 -0.024692
v -0.024692 0.063000 -0.024692
v 0.000000 0.012030 -0.038800
v 0.000000 0.057971 -0.038800
v 0.027436 0.057971 -0.027436
v 0.027436 0.012030 -0.027436
v 0.038800 0.057971 0.000000
v 0.038800 0.012030 0.000000
v 0.027436 0.057971 0.027436
v 0.027436 0.012030 0.027436
v 0.000000 0.057971 0.038800
v 0.000000 0.012030 0.038800
v -0.027436 0.057971 0.027436
v -0.027436 0.012030 0.027436
v -0.038800 0.057971 0.000000
v -0.038800 0.012030 0.000000
v -0.027436 0.057971 -0.027436
v -0.027436 0.012030 -0.027436
v -0.000000 0.264324 -0.007500
v 0.005303 0.264324 -0.005303
v 0.000000 0.061570 -0.005000
v 0.000000 0.261570 -0.005000
v 0.003536 0.061570 -0.003536
v 0.003536 0.261570 -0.003536
v 0.005000 0.061570 0.000000
v 0.005000 0.261570 0.000000
v 0.003536 0.061570 0.003536
v 0.003536 0.261570 0.003536
v 0.000000 0.061570 0.005000
v 0.000000 0.261570 0.005000
v -0.003536 0.061570 0.003536
v -0.003536 0.261570 0.003536
v -0.005000 0.061570 0.000000
v -0.005000 0.261570 0.000000
v -0.003536 0.061570 -0.003536
v -0.003536 0.261570 -0.003536
v 0.007500 0.264324 0.000000
v 0.005303 0.264324 0.005303
v -0.000000 0.264324 0.007500
v -0.005303 0.264324 0.005303
v -0.007500 0.264324 0.000000
v -0.005303 0.264324 -0.005303
v -0.000000 0.327126 -0.007500
v -0.005303 0.327126 -0.005303
v -0.007500 0.327126 0.000000
v -0.005303 0.327126 0.005303
v -0.000000 0.327126 0.007500
v 0.005303 0.327126 0.005303
v 0.007500 0.327126 0.000000
v 0.005303 0.327126 -0.005303
v 0.000000 0.331046 -0.005250
v -0.003712 0.331046 -0.003712
v -0.005250 0.331046 0.000000
v -0.003712 0.331046 0.003712
v 0.000000 0.331046 0.005250
v 0.003712 0.331046 0.003712
v 0.005250 0.331046 0.000000
v 0.003712 0.331046 -0.003712
v -0.000000 0.264324 -0.007500
v 0.005303 0.264324 -0.005303
v 0.000000 0.261570 -0.005000
v 0.003536 0.261570 -0.003536
v 0.005000 0.261570 0.000000
v 0.003536 0.261570 0.003536
v 0.000000 0.261570 0.005000
v -0.003536 0.261570 0.003536
v -0.005000 0.261570 0.000000
v -0.003536 0.261570 -0.003536
v 0.007500 0.264324 0.000000
v 0.005303 0.264324 0.005303
v -0.000000 0.264324 0.007500
v -0.005303 0.264324 0.005303
v -0.007500 0.264324 0.000000
v -0.005303 0.264324 -0.005303
vn 0.3116 0.5804 -0.7523
vn 0.7523 0.5804 -0.3116
vn 0.7523 0.5804 0.3116
vn 0.3116 0.5804 0.7523
vn -0.3116 0.5804 0.7523
vn -0.7523 0.5804 0.3116
vn -0.0000 1.0000 -0.0000
vn -0.7523 0.5804 -0.3116
vn -0.3116 0.5804 -0.7523
vn -0.0000 -1.0000 -0.0000
vn -0.3116 -0.5804 -0.7523
vn -0.3827 -0.0000 -0.9239
vn -0.7523 -0.5804 -0.3116
vn -0.9239 -0.0000 -0.3827
vn -0.7523 -0.5804 0.3116
vn -0.9239 -0.0000 0.3827
vn -0.3116 -0.5804 0.7523
vn -0.3827 -0.0000 0.9239
vn 0.3116 -0.5804 0.7523
vn 0.3827 -0.0000 0.9239
vn 0.7523 -0.5804 0.3116
vn 0.9239 -0.0000 0.3827
vn 0.7523 -0.5804 -0.3116
vn 0.9239 -0.0000 -0.3827
vn 0.3116 -0.5804 -0.7523
vn 0.3827 -0.0000 -0.9239
vn -0.8162 0.4685 0.3381
vn -0.3381 0.4685 -0.8162
vn 0.3381 0.4685 -0.8162
vn 0.8162 0.4685 0.3381
vn -0.3381 0.4685 0.8162
vn -0.8162 0.4685 -0.3381
vn 0.8162 0.4685 -0.3381
vn 0.3381 0.4685 0.8162
vn 0.7079 -0.6426 -0.2932
vn -0.2932 -0.6426 0.7079
vn -0.2932 -0.6426 -0.7079
vn 0.2932 -0.6426 0.7079
vn -0.7079 -0.6426 -0.2932
vn 0.7079 -0.6426 0.2932
vn -0.7079 -0.6426 0.2932
vn 0.2932 -0.6426 -0.7079
vt 0.500000 0.312500
vt 0.375000 0.250000
vt 0.500000 0.250000
vt 0.375000 0.312500
vt 0.250000 0.250000
vt 0.250000 0.312500
vt 0.125000 0.250000
vt 0.125000 0.312500
vt 0.000000 0.250000
vt 1.000000 0.312500
vt 0.875000 0.250000
vt 1.000000 0.250000
vt 0.875000 0.312500
vt 0.750000 0.250000
vt 0.812500 0.750000
vt 1.000000 0.812500
vt 0.937500 1.000000
vt 0.750000 0.312500
vt 0.625000 0.250000
vt 0.687500 0.750000
vt 0.750000 0.937500
vt 0.562500 1.000000
vt 0.625000 0.062500
vt 0.500000 -0.000000
vt 0.625000 -0.000000
vt 0.500000 0.062500
vt 0.750000 0.062500
vt 0.750000 -0.000000
vt 0.875000 0.062500
vt 0.875000 -0.000000
vt 1.000000 0.062500
vt 1.000000 -0.000000
vt 0.125000 0.062500
vt 0.000000 -0.000000
vt 0.125000 -0.000000
vt -0.000000 0.062500
vt 0.250000 0.062500
vt 0.250000 -0.000000
vt 0.375000 0.062500
vt 0.375000 -0.000000
vt 1.000000 0.375000
vt 0.937500 0.687500
vt 0.937500 0.375000
vt 0.250000 1.000000
vt 0.187500 0.375000
vt 0.250000 0.375000
vt 0.750000 0.375000
vt 0.687500 0.687500
vt 0.687500 0.375000
vt 0.187500 1.000000
vt 0.125000 0.375000
vt 0.625000 0.687500
vt 0.625000 0.375000
vt 0.125000 1.000000
vt 0.062500 0.375000
vt 0.875000 0.687500
vt 0.875000 0.375000
vt 0.062500 1.000000
vt 0.000000 0.375000
vt 0.812500 0.375000
vt 0.750000 0.687500
vt 0.500000 1.000000
vt 0.437500 0.375000
vt 0.500000 0.375000
vt 0.562500 0.687500
vt 0.562500 0.375000
vt 0.437500 1.000000
vt 0.375000 0.375000
vt 0.375000 1.000000
vt 0.312500 0.375000
vt 0.812500 0.687500
vt 0.937500 0.625000
vt 0.875000 0.625000
vt 0.312500 1.000000
vt 0.500000 0.687500
vt 0.750000 0.437500
vt 0.875000 0.500000
vt 0.812500 0.625000
vt 0.750000 0.625000
vt 0.687500 0.625000
vt 0.625000 0.625000
vt 0.562500 0.625000
vt 1.000000 0.625000
vt 0.500000 0.625000
vt 0.625000 0.437500
vt 0.937500 0.437500
vt 0.500000 0.437500
vt 0.812500 0.437500
vt 0.562500 0.437500
vt 0.875000 0.437500
vt 0.687500 0.437500
vt 0.000000 0.312500
vt 0.812500 1.000000
vt 0.750000 0.812500
vt 0.937500 0.750000
vt 1.000000 0.937500
vt 0.625000 0.312500
vt 0.500000 0.937500
vt 0.500000 0.812500
vt 0.562500 0.750000
vt 0.687500 1.000000
vt 1.000000 0.687500
vt 0.000000 1.000000
vt 0.687500 0.562500
vt 0.687500 0.500000
vt 0.875000 0.562500
vt 1.000000 0.437500
s 0
usemtl ToiletBrush
f 2/1/1 19/2/1 18/3/1
f 4/4/2 21/5/2 19/2/2
f 6/6/3 23/7/3 21/5/3
f 8/8/4 25/9/4 23/7/4
f 10/10/5 27/11/5 25/12/5
f 12/13/6 29/14/6 27/11/6
f 14/15/7 10/16/7 6/17/7
f 14/18/8 31/19/8 29/14/8
f 31/19/9 2/1/9 18/3/9
f 7/20/10 11/21/10 15/22/10
f 32/23/11 1/24/11 15/25/11
f 31/19/12 17/26/12 32/23/12
f 30/27/13 15/25/13 13/28/13
f 29/14/14 32/23/14 30/27/14
f 28/29/15 13/28/15 11/30/15
f 27/11/16 30/27/16 28/29/16
f 26/31/17 11/30/17 9/32/17
f 25/12/18 28/29/18 26/31/18
f 24/33/19 9/34/19 7/35/19
f 23/7/20 26/36/20 24/33/20
f 22/37/21 7/35/21 5/38/21
f 21/5/22 24/33/22 22/37/22
f 20/39/23 5/38/23 3/40/23
f 19/2/24 22/37/24 20/39/24
f 17/26/25 3/40/25 1/24/25
f 18/3/26 20/39/26 17/26/26
f 53/41/18 60/42/18 54/43/18
f 36/44/26 37/45/26 35/46/26
f 33/47/26 64/48/26 34/49/26
f 38/50/24 39/51/24 37/45/24
f 34/49/24 63/52/24 51/53/24
f 40/54/22 41/55/22 39/51/22
f 54/43/16 59/56/16 55/57/16
f 42/58/20 43/59/20 41/55/20
f 56/60/12 57/61/12 33/47/12
f 44/62/18 45/63/18 43/64/18
f 51/53/22 62/65/22 52/66/22
f 46/67/16 47/68/16 45/63/16
f 48/69/14 49/70/14 47/68/14
f 55/57/14 58/71/14 56/60/14
f 60/72/27 67/56/27 59/73/27
f 50/74/12 35/46/12 49/70/12
f 52/66/20 61/75/20 53/64/20
f 67/76/7 69/77/7 71/78/7
f 57/79/28 66/71/28 65/61/28
f 64/80/29 65/61/29 72/48/29
f 63/81/30 70/65/30 62/82/30
f 61/83/31 68/42/31 60/72/31
f 59/73/32 66/71/32 58/78/32
f 64/80/33 71/52/33 63/81/33
f 62/82/34 69/75/34 61/84/34
f 76/49/35 83/85/35 77/53/35
f 79/41/36 86/86/36 80/43/36
f 82/60/37 73/76/37 75/47/37
f 78/66/38 85/87/38 79/64/38
f 81/57/39 88/88/39 82/60/39
f 77/53/40 84/89/40 78/66/40
f 80/43/41 87/90/41 81/57/41
f 75/47/42 74/91/42 76/49/42
f 2/1/1 4/4/1 19/2/1
f 4/4/2 6/6/2 21/5/2
f 6/6/3 8/8/3 23/7/3
f 8/8/4 10/92/4 25/9/4
f 10/10/5 12/13/5 27/11/5
f 12/13/6 14/18/6 29/14/6
f 6/17/7 4/93/7 2/21/7
f 2/21/7 16/94/7 14/15/7
f 14/15/7 12/95/7 10/16/7
f 10/16/7 8/96/7 6/17/7
f 6/17/7 2/21/7 14/15/7
f 14/18/8 16/97/8 31/19/8
f 31/19/9 16/97/9 2/1/9
f 15/22/10 1/98/10 3/99/10
f 3/99/10 5/100/10 7/20/10
f 7/20/10 9/94/10 11/21/10
f 11/21/10 13/101/10 15/22/10
f 15/22/10 3/99/10 7/20/10
f 32/23/11 17/26/11 1/24/11
f 31/19/12 18/3/12 17/26/12
f 30/27/13 32/23/13 15/25/13
f 29/14/14 31/19/14 32/23/14
f 28/29/15 30/27/15 13/28/15
f 27/11/16 29/14/16 30/27/16
f 26/31/17 28/29/17 11/30/17
f 25/12/18 27/11/18 28/29/18
f 24/33/19 26/36/19 9/34/19
f 23/7/20 25/9/20 26/36/20
f 22/37/21 24/33/21 7/35/21
f 21/5/22 23/7/22 24/33/22
f 20/39/23 22/37/23 5/38/23
f 19/2/24 21/5/24 22/37/24
f 17/26/25 20/39/25 3/40/25
f 18/3/26 19/2/26 20/39/26
f 53/41/18 61/102/18 60/42/18
f 36/44/26 38/50/26 37/45/26
f 33/47/26 57/61/26 64/48/26
f 38/50/24 40/54/24 39/51/24
f 34/49/24 64/48/24 63/52/24
f 40/54/22 42/58/22 41/55/22
f 54/43/16 60/42/16 59/56/16
f 42/58/20 44/103/20 43/59/20
f 56/60/12 58/71/12 57/61/12
f 44/62/18 46/67/18 45/63/18
f 51/53/22 63/52/22 62/65/22
f 46/67/16 48/69/16 47/68/16
f 48/69/14 50/74/14 49/70/14
f 55/57/14 59/56/14 58/71/14
f 60/72/27 68/42/27 67/56/27
f 50/74/12 36/44/12 35/46/12
f 52/66/20 62/65/20 61/75/20
f 71/78/7 72/79/7 65/104/7
f 65/104/7 66/105/7 67/76/7
f 67/76/7 68/88/7 69/77/7
f 69/77/7 70/106/7 71/78/7
f 71/78/7 65/104/7 67/76/7
f 57/79/28 58/78/28 66/71/28
f 64/80/29 57/79/29 65/61/29
f 63/81/30 71/52/30 70/65/30
f 61/83/31 69/102/31 68/42/31
f 59/73/32 67/56/32 66/71/32
f 64/80/33 72/48/33 71/52/33
f 62/82/34 70/65/34 69/75/34
f 76/49/35 74/91/35 83/85/35
f 79/41/36 85/107/36 86/86/36
f 82/60/37 88/88/37 73/76/37
f 78/66/38 84/89/38 85/87/38
f 81/57/39 87/90/39 88/88/39
f 77/53/40 83/85/40 84/89/40
f 80/43/41 86/86/41 87/90/41
f 75/47/42 73/76/42 74/91/42
