# Blender 5.0.1
# www.blender.org
mtllib ToiletBrushHolder.mtl
o ToiletBrushHolder
v 0.000000 0.000000 -0.050000
v 0.000000 0.070000 -0.039566
v 0.035355 0.000000 -0.035355
v 0.027978 0.070000 -0.027978
v 0.050000 0.000000 0.000000
v 0.039566 0.070000 0.000000
v 0.035355 0.000000 0.035355
v 0.027978 0.070000 0.027978
v 0.000000 0.000000 0.050000
v 0.000000 0.070000 0.039566
v -0.035355 0.000000 0.035355
v -0.027978 0.070000 0.027978
v -0.050000 0.000000 0.000000
v -0.039566 0.070000 0.000000
v -0.035355 0.000000 -0.035355
v -0.027978 0.070000 -0.027978
v 0.031820 0.070000 -0.031820
v 0.000000 0.070000 -0.045000
v 0.045000 0.070000 0.000000
v 0.031820 0.070000 0.031820
v 0.000000 0.070000 0.045000
v -0.031820 0.070000 0.031820
v -0.045000 0.070000 0.000000
v -0.031820 0.070000 -0.031820
v 0.027978 0.007578 -0.027978
v 0.000000 0.007578 -0.039566
v 0.039566 0.007578 0.000000
v 0.027978 0.007578 0.027978
v 0.000000 0.007578 0.039566
v -0.027978 0.007578 0.027978
v -0.039566 0.007578 0.000000
v -0.027978 0.007578 -0.027978
vn 0.3819 0.0658 -0.9219
vn 0.9219 0.0658 -0.3819
vn 0.9219 0.0658 0.3819
vn 0.3819 0.0658 0.9219
vn -0.3819 0.0658 0.9219
vn -0.9219 0.0658 0.3819
vn 0.3827 -0.0000 -0.9239
vn -0.9219 0.0658 -0.3819
vn -0.3819 0.0658 -0.9219
vn -0.0000 -1.0000 -0.0000
vn -0.0000 1.0000 -0.0000
vn -0.9239 -0.0000 -0.3827
vn -0.3827 -0.0000 0.9239
vn 0.3827 -0.0000 0.9239
vn 0.9239 -0.0000 -0.3827
vn -0.3827 -0.0000 -0.9239
vn -0.9239 -0.0000 0.3827
vn 0.9239 -0.0000 0.3827
vt 0.148922 0.331336
vt 0.111715 0.265107
vt 0.148922 0.265107
vt 0.111715 0.331336
vt 0.074508 0.265107
vt 0.074508 0.331336
vt 0.037300 0.265107
vt 0.037300 0.331336
vt 0.000093 0.265107
vt 0.297750 0.331336
vt 0.260543 0.265107
vt 0.297750 0.265107
vt 0.260543 0.331336
vt 0.223336 0.265107
vt 0.293854 0.401910
vt 0.257134 0.337227
vt 0.257134 0.401910
vt 0.223336 0.331336
vt 0.186129 0.265107
vt 0.186129 0.331336
vt 0.070011 0.000561
vt 0.098323 0.068912
vt 0.029972 0.097224
vt 0.006912 0.159698
vt 0.027141 0.187354
vt 0.001660 0.161874
vt 0.061000 0.182102
vt 0.029316 0.182102
vt 0.088657 0.161874
vt 0.063176 0.187354
vt 0.083404 0.128014
vt 0.083404 0.159698
vt 0.063176 0.100358
vt 0.088657 0.125838
vt 0.029316 0.105610
vt 0.061000 0.105610
vt 0.001660 0.125838
vt 0.027141 0.100358
vt 0.006912 0.128014
vt 0.123860 0.000561
vt 0.177948 0.022965
vt 0.155544 0.077053
vt 0.073534 0.401910
vt 0.036814 0.337227
vt 0.036814 0.401910
vt 0.146974 0.401910
vt 0.110254 0.337227
vt 0.110254 0.401910
vt 0.183694 0.401910
vt 0.146974 0.337227
vt 0.220414 0.337227
vt 0.220414 0.401910
vt 0.000094 0.337227
vt 0.000094 0.401910
vt 0.073534 0.337227
vt 0.183694 0.337227
vt 0.000093 0.331336
vt 0.293854 0.337227
vt 0.001660 0.068912
vt 0.001660 0.028873
vt 0.029972 0.000561
vt 0.098323 0.028873
vt 0.070011 0.097224
vt 0.123860 0.077053
vt 0.101456 0.054649
vt 0.101456 0.022965
vt 0.155544 0.000561
vt 0.177948 0.054649
s 0
usemtl 64x64grid
f 18/1/1 3/2/1 1/3/1
f 17/4/2 5/5/2 3/2/2
f 19/6/3 7/7/3 5/5/3
f 20/8/4 9/9/4 7/7/4
f 21/10/5 11/11/5 9/12/5
f 22/13/6 13/14/6 11/11/6
f 10/15/7 30/16/7 12/17/7
f 23/18/8 15/19/8 13/14/8
f 24/20/9 1/3/9 15/19/9
f 7/21/10 11/22/10 15/23/10
f 2/24/11 17/25/11 18/26/11
f 6/27/11 17/25/11 4/28/11
f 6/27/11 20/29/11 19/30/11
f 10/31/11 20/29/11 8/32/11
f 10/31/11 22/33/11 21/34/11
f 14/35/11 22/33/11 12/36/11
f 14/35/11 24/37/11 23/38/11
f 2/24/11 24/37/11 16/39/11
f 31/40/11 29/41/11 27/42/11
f 6/43/12 28/44/12 8/45/12
f 2/46/13 25/47/13 4/48/13
f 16/49/14 26/50/14 2/46/14
f 12/17/15 31/51/15 14/52/15
f 8/45/16 29/53/16 10/54/16
f 4/48/17 27/55/17 6/43/17
f 14/52/18 32/56/18 16/49/18
f 18/1/1 17/4/1 3/2/1
f 17/4/2 19/6/2 5/5/2
f 19/6/3 20/8/3 7/7/3
f 20/8/4 21/57/4 9/9/4
f 21/10/5 22/13/5 11/11/5
f 22/13/6 23/18/6 13/14/6
f 10/15/7 29/58/7 30/16/7
f 23/18/8 24/20/8 15/19/8
f 24/20/9 18/1/9 1/3/9
f 15/23/10 1/59/10 3/60/10
f 3/60/10 5/61/10 7/21/10
f 7/21/10 9/62/10 11/22/10
f 11/22/10 13/63/10 15/23/10
f 15/23/10 3/60/10 7/21/10
f 2/24/11 4/28/11 17/25/11
f 6/27/11 19/30/11 17/25/11
f 6/27/11 8/32/11 20/29/11
f 10/31/11 21/34/11 20/29/11
f 10/31/11 12/36/11 22/33/11
f 14/35/11 23/38/11 22/33/11
f 14/35/11 16/39/11 24/37/11
f 2/24/11 18/26/11 24/37/11
f 27/42/11 25/64/11 26/65/11
f 26/65/11 32/66/11 31/40/11
f 31/40/11 30/67/11 29/41/11
f 29/41/11 28/68/11 27/42/11
f 27/42/11 26/65/11 31/40/11
f 6/43/12 27/55/12 28/44/12
f 2/46/13 26/50/13 25/47/13
f 16/49/14 32/56/14 26/50/14
f 12/17/15 30/16/15 31/51/15
f 8/45/16 28/44/16 29/53/16
f 4/48/17 25/47/17 27/55/17
f 14/52/18 31/51/18 32/56/18
