# Blender 5.1.1
# www.blender.org
mtllib Pan.mtl
o Pan
v 0.000000 -0.000000 -0.142245
v -0.100583 -0.000000 -0.100583
v -0.142245 0.000000 0.000000
v -0.100583 0.000000 0.100583
v 0.000000 0.000000 0.142245
v 0.100583 0.000000 0.100583
v 0.142245 0.000000 0.000000
v 0.100583 -0.000000 -0.100583
v -0.112284 0.050918 -0.112284
v 0.000000 0.050918 -0.158794
v -0.158794 0.050918 -0.000000
v -0.112284 0.050918 0.112284
v 0.000000 0.050918 0.158794
v 0.112284 0.050918 0.112284
v 0.158794 0.050918 -0.000000
v 0.112284 0.050918 -0.112284
v -0.130660 0.050918 -0.130660
v 0.000000 0.050918 -0.184782
v -0.184782 0.050918 -0.000000
v -0.130660 0.050918 0.130660
v 0.000000 0.050918 0.184782
v 0.130660 0.050918 0.130660
v 0.184782 0.050918 -0.000000
v 0.130660 0.050918 -0.130660
v 0.000000 0.020194 -0.125080
v -0.088445 0.020194 -0.088445
v -0.125080 0.020194 -0.000000
v -0.088445 0.020194 0.088445
v 0.000000 0.020194 0.125080
v 0.088445 0.020194 0.088445
v 0.125080 0.020194 -0.000000
v 0.088445 0.020194 -0.088445
v -0.026074 0.012336 -0.139727
v -0.026074 0.039371 -0.156205
v -0.028707 0.012336 -0.421205
v -0.028707 0.039371 -0.421205
v 0.026074 0.012336 -0.139727
v 0.026074 0.039371 -0.156205
v 0.028707 0.012336 -0.421205
v 0.028707 0.039371 -0.421205
vn -0.0000 -1.0000 -0.0000
vn -0.0000 1.0000 -0.0000
vn 0.3029 -0.6110 -0.7314
vn 0.7314 -0.6110 0.3029
vn -0.3029 -0.6110 0.7314
vn -0.7314 -0.6110 -0.3029
vn 0.7314 -0.6110 -0.3030
vn 0.7314 -0.6110 -0.3029
vn 0.3030 -0.6110 0.7314
vn 0.3029 -0.6110 0.7314
vn -0.7314 -0.6110 0.3030
vn -0.7314 -0.6110 0.3029
vn -0.3030 -0.6110 -0.7314
vn -0.3029 -0.6110 -0.7314
vn 0.2687 0.7119 0.6488
vn 0.6488 0.7119 0.2687
vn 0.6488 0.7119 -0.2687
vn 0.2687 0.7119 -0.6488
vn -0.2687 0.7119 -0.6488
vn -0.6488 0.7119 -0.2687
vn -0.6488 0.7119 0.2687
vn -0.2687 0.7119 0.6488
vn -0.9999 0.0057 0.0094
vn -0.0000 -0.0000 -1.0000
vn 0.9999 0.0041 0.0095
vn 1.0000 0.0016 0.0098
vn 0.9999 0.0057 0.0094
vn 0.3030 -0.6110 -0.7314
vn 0.7314 -0.6110 0.3030
vn -0.3030 -0.6110 0.7314
vn -0.7314 -0.6110 -0.3030
vn -1.0000 -0.0000 0.0099
vn 1.0000 -0.0000 0.0099
vt 0.625000 0.125000
vt 0.375000 0.125000
vt 0.375000 0.375000
vt 0.375000 0.625000
vt 0.625000 0.625000
vt 0.625000 0.875000
vt 0.000000 0.000000
vt 0.062500 0.125000
vt 0.000000 0.125000
vt 0.000000 0.250000
vt 0.062500 0.375000
vt 0.000000 0.375000
vt 0.000000 0.500000
vt 0.062500 0.625000
vt -0.000000 0.625000
vt -0.000000 0.750000
vt 0.062500 0.875000
vt -0.000000 0.875000
vt 0.062500 0.250000
vt 0.062500 0.500000
vt 0.062500 0.750000
vt 0.062500 1.000000
vt -0.000000 1.000000
vt 0.125000 1.000000
vt 0.125000 0.875000
vt 0.125000 0.750000
vt 0.125000 0.625000
vt 0.125000 0.500000
vt 0.125000 0.375000
vt 0.125000 0.250000
vt 0.125000 0.125000
vt 0.125000 0.000000
vt 0.062500 0.000000
vt 0.187500 1.000000
vt 0.187500 0.875000
vt 0.187500 0.750000
vt 0.187500 0.625000
vt 0.187500 0.500000
vt 0.187500 0.375000
vt 0.187500 0.250000
vt 0.187500 0.125000
vt 0.937500 0.750000
vt 1.000000 1.000000
vt 1.000000 0.750000
vt 0.875000 0.687500
vt 0.875000 0.750000
vt 0.875000 1.000000
vt 0.812500 0.750000
vt 0.812500 1.000000
vt 0.750000 0.750000
vt 0.750000 1.000000
vt 0.937500 1.000000
vt 0.500000 0.437500
vt 0.625000 0.375000
vt 0.687500 0.250000
vt 0.500000 0.062500
vt 0.312500 0.250000
vt 0.500000 0.937500
vt 0.375000 0.875000
vt 0.312500 0.750000
vt 0.500000 0.562500
vt 0.687500 0.750000
vt 0.187500 0.000000
vt 0.937500 0.687500
s 1
usemtl Pan
f 6/1/1 4/2/1 2/3/1
f 28/4/2 30/5/2 32/6/2
f 1/7/3 24/8/3 8/9/3
f 7/10/4 22/11/4 6/12/4
f 5/13/5 20/14/5 4/15/5
f 3/16/6 17/17/6 2/18/6
f 8/9/7 23/19/8 7/10/8
f 6/12/9 21/20/10 5/13/10
f 4/15/11 19/21/12 3/16/12
f 2/18/13 18/22/14 1/23/14
f 10/24/2 17/17/2 9/25/2
f 11/26/2 17/17/2 19/21/2
f 11/26/2 20/14/2 12/27/2
f 13/28/2 20/14/2 21/20/2
f 13/28/2 22/11/2 14/29/2
f 15/30/2 22/11/2 23/19/2
f 15/30/2 24/8/2 16/31/2
f 10/32/2 24/8/2 18/33/2
f 9/25/15 25/34/15 10/24/15
f 11/26/16 26/35/16 9/25/16
f 12/27/17 27/36/17 11/26/17
f 13/28/18 28/37/18 12/27/18
f 14/29/19 29/38/19 13/28/19
f 15/30/20 30/39/20 14/29/20
f 16/31/21 31/40/21 15/30/21
f 10/32/22 32/41/22 16/31/22
f 34/42/23 35/43/23 33/44/23
f 36/42/24 39/45/24 35/46/24
f 39/47/25 38/48/26 37/46/27
f 39/49/1 33/50/1 35/51/1
f 36/47/2 38/42/2 40/52/2
f 2/3/1 1/53/1 8/54/1
f 8/54/1 7/55/1 6/1/1
f 6/1/1 5/56/1 4/2/1
f 4/2/1 3/57/1 2/3/1
f 2/3/1 8/54/1 6/1/1
f 32/6/2 25/58/2 26/59/2
f 26/59/2 27/60/2 28/4/2
f 28/4/2 29/61/2 30/5/2
f 30/5/2 31/62/2 32/6/2
f 32/6/2 26/59/2 28/4/2
f 1/7/3 18/33/28 24/8/3
f 7/10/4 23/19/29 22/11/4
f 5/13/5 21/20/30 20/14/5
f 3/16/6 19/21/31 17/17/6
f 8/9/7 24/8/7 23/19/8
f 6/12/9 22/11/9 21/20/10
f 4/15/11 20/14/11 19/21/12
f 2/18/13 17/17/13 18/22/14
f 10/24/2 18/22/2 17/17/2
f 11/26/2 9/25/2 17/17/2
f 11/26/2 19/21/2 20/14/2
f 13/28/2 12/27/2 20/14/2
f 13/28/2 21/20/2 22/11/2
f 15/30/2 14/29/2 22/11/2
f 15/30/2 23/19/2 24/8/2
f 10/32/2 16/31/2 24/8/2
f 9/25/15 26/35/15 25/34/15
f 11/26/16 27/36/16 26/35/16
f 12/27/17 28/37/17 27/36/17
f 13/28/18 29/38/18 28/37/18
f 14/29/19 30/39/19 29/38/19
f 15/30/20 31/40/20 30/39/20
f 16/31/21 32/41/21 31/40/21
f 10/32/22 25/63/22 32/41/22
f 34/42/32 36/52/32 35/43/32
f 36/42/24 40/64/24 39/45/24
f 39/47/25 40/49/33 38/48/26
f 39/49/1 37/48/1 33/50/1
f 36/47/2 34/46/2 38/42/2
