# Blender 5.0.1
# www.blender.org
mtllib TrashCan02.mtl
o TrashCan02
v -0.121511 0.000000 0.123149
v -0.121511 0.000000 0.123149
v -0.121511 0.000000 0.123149
v -0.153937 0.000000 0.090730
v -0.153937 0.000000 0.090730
v -0.153937 0.000000 0.090730
v -0.153937 0.000000 -0.090730
v -0.153937 0.000000 -0.090730
v -0.153937 0.000000 -0.090730
v -0.121511 0.000000 -0.123149
v -0.121511 0.000000 -0.123149
v -0.121511 0.000000 -0.123149
v 0.153937 0.000000 0.090730
v 0.153937 0.000000 0.090730
v 0.153937 0.000000 0.090730
v 0.121511 0.000000 0.123149
v 0.121511 0.000000 0.123149
v 0.121511 0.000000 0.123149
v 0.121511 0.000000 -0.123149
v 0.121511 0.000000 -0.123149
v 0.121511 0.000000 -0.123149
v 0.153937 0.000000 -0.090730
v 0.153937 0.000000 -0.090730
v 0.153937 0.000000 -0.090730
v -0.171041 0.513122 0.104413
v -0.171041 0.513122 0.104413
v -0.138615 0.513122 0.136832
v -0.138615 0.513122 0.136832
v -0.138615 0.513122 -0.136832
v -0.138615 0.513122 -0.136832
v -0.171041 0.513122 -0.104413
v -0.171041 0.513122 -0.104413
v 0.171041 0.513122 -0.104413
v 0.171041 0.513122 -0.104413
v 0.138615 0.513122 -0.136832
v 0.138615 0.513122 -0.136832
v 0.138615 0.513122 0.136832
v 0.138615 0.513122 0.136832
v 0.171041 0.513122 0.104413
v 0.171041 0.513122 0.104413
v -0.131032 0.513122 0.116067
v -0.131032 0.513122 0.116067
v -0.150275 0.513122 0.096827
v -0.150275 0.513122 0.096827
v -0.150275 0.513122 -0.096827
v -0.150275 0.513122 -0.096827
v -0.131032 0.513122 -0.116067
v -0.131032 0.513122 -0.116067
v 0.150275 0.513122 0.096827
v 0.150275 0.513122 0.096827
v 0.131032 0.513122 0.116067
v 0.131032 0.513122 0.116067
v 0.131032 0.513122 -0.116067
v 0.131032 0.513122 -0.116067
v 0.150275 0.513122 -0.096827
v 0.150275 0.513122 -0.096827
v -0.137502 0.022413 0.086961
v -0.137502 0.022413 0.086961
v -0.137502 0.022413 0.086961
v -0.118259 0.022413 0.106201
v -0.118259 0.022413 0.106201
v -0.118259 0.022413 0.106201
v -0.118259 0.022413 -0.106201
v -0.118259 0.022413 -0.106201
v -0.118259 0.022413 -0.106201
v -0.137502 0.022413 -0.086961
v -0.137502 0.022413 -0.086961
v -0.137502 0.022413 -0.086961
v 0.137502 0.022413 -0.086961
v 0.137502 0.022413 -0.086961
v 0.137502 0.022413 -0.086961
v 0.118259 0.022413 -0.106201
v 0.118259 0.022413 -0.106201
v 0.118259 0.022413 -0.106201
v 0.118259 0.022413 0.106201
v 0.118259 0.022413 0.106201
v 0.118259 0.022413 0.106201
v 0.137502 0.022413 0.086961
v 0.137502 0.022413 0.086961
v 0.137502 0.022413 0.086961
v -0.118259 0.022413 0.086961
v 0.118257 0.022413 0.086961
v -0.118259 0.022413 -0.086960
v 0.118258 0.022413 -0.086959
v 0.121513 0.000000 0.090730
v 0.121511 0.000000 -0.090723
v -0.121512 0.000000 0.090730
v -0.121512 0.000000 -0.090729
v -0.171041 0.513122 0.104413
v -0.171041 0.513122 0.104413
v -0.138615 0.513122 0.136832
v -0.138615 0.513122 0.136832
v -0.138615 0.513122 -0.136832
v -0.138615 0.513122 -0.136832
v -0.171041 0.513122 -0.104413
v -0.171041 0.513122 -0.104413
v 0.171041 0.513122 -0.104413
v 0.171041 0.513122 -0.104413
v 0.138615 0.513122 -0.136832
v 0.138615 0.513122 -0.136832
v 0.138615 0.513122 0.136832
v 0.138615 0.513122 0.136832
v 0.171041 0.513122 0.104413
v 0.171041 0.513122 0.104413
v -0.131032 0.513122 0.116067
v -0.131032 0.513122 0.116067
v -0.150275 0.513122 0.096827
v -0.150275 0.513122 0.096827
v -0.150275 0.513122 -0.096827
v -0.150275 0.513122 -0.096827
v -0.131032 0.513122 -0.116067
v -0.131032 0.513122 -0.116067
v 0.150275 0.513122 0.096827
v 0.150275 0.513122 0.096827
v 0.131032 0.513122 0.116067
v 0.131032 0.513122 0.116067
v 0.131032 0.513122 -0.116067
v 0.131032 0.513122 -0.116067
v 0.150275 0.513122 -0.096827
v 0.150275 0.513122 -0.096827
vn -0.0000 -0.0267 0.9996
vn 0.9994 -0.0333 -0.0000
vn -0.0000 0.0201 -0.9998
vn -0.0000 -0.0267 -0.9996
vn -0.9994 -0.0333 -0.0000
vn -0.0000 0.0201 0.9998
vn -0.0000 1.0000 -0.0000
vn -0.9997 0.0260 -0.0000
vn -0.7064 -0.0424 0.7065
vn -0.7064 -0.0424 -0.7065
vn 0.7064 -0.0424 -0.7065
vn 0.7064 -0.0424 0.7065
vn -0.0000 -1.0000 -0.0000
vn -0.7067 0.0326 -0.7068
vn 0.7067 0.0326 -0.7068
vn 0.7067 0.0326 0.7068
vn -0.7067 0.0326 0.7068
vn 0.9997 0.0260 -0.0000
vt 0.500000 0.531250
vt 0.500000 0.968750
vt 0.250000 0.968750
vt 0.250000 0.531250
vt 0.718750 0.531250
vt 0.718750 0.968750
vt 0.531250 0.968750
vt 0.531250 0.531250
vt 0.500000 0.593750
vt 0.250000 0.593750
vt 1.000000 0.531250
vt 1.000000 0.968750
vt 0.750000 0.968750
vt 0.750000 0.531250
vt 0.218750 0.531250
vt 0.218750 0.968750
vt 0.031250 0.968750
vt 0.031250 0.531250
vt 1.000000 0.593750
vt 0.750000 0.593750
vt 0.406250 0.093750
vt 0.437500 0.093750
vt 0.437500 0.218750
vt 0.406250 0.218750
vt 0.718750 0.593750
vt 0.531250 0.593750
vt 0.000000 0.968750
vt 0.000000 0.531250
vt 0.031250 0.062500
vt 0.062500 0.062500
vt 0.062500 0.250000
vt 0.031250 0.250000
vt 0.218750 0.593750
vt 0.031250 0.593750
vt 0.000000 0.593750
vt 0.625000 0.250000
vt 0.625000 0.218750
vt 0.656250 0.218750
vt 0.437500 0.250000
vt 0.625000 0.093750
vt 0.656250 0.093750
vt 0.625000 0.062500
vt 0.437500 0.062500
vt 0.062500 0.281250
vt 0.312500 0.281250
vt 0.312500 0.250000
vt 0.343750 0.250000
vt 0.312500 0.062500
vt 0.343750 0.062500
vt 0.312500 0.031250
vt 0.062500 0.031250
vt 1.000000 1.000000
vt 0.750000 1.000000
vt 0.718750 1.000000
vt 0.531250 1.000000
vt 0.218750 1.000000
vt 0.031250 1.000000
vt 0.500000 1.000000
vt 0.250000 1.000000
vt 0.000000 1.000000
s 0
usemtl TrashCan02
f 16/1/1 37/2/1 27/3/1
f 16/1/1 27/3/1 1/4/1
f 24/5/2 34/6/2 40/7/2
f 24/5/2 40/7/2 15/8/2
f 41/3/3 51/2/3 75/9/3
f 41/3/3 75/9/3 60/10/3
f 10/11/4 29/12/4 35/13/4
f 10/11/4 35/13/4 19/14/4
f 6/15/5 26/16/5 32/17/5
f 6/15/5 32/17/5 9/18/5
f 53/13/6 47/12/6 63/19/6
f 53/13/6 63/19/6 72/20/6
f 69/21/7 84/22/7 82/23/7
f 69/21/7 82/23/7 78/24/7
f 50/7/8 56/6/8 71/25/8
f 50/7/8 71/25/8 80/26/8
f 3/4/9 28/3/9 25/16/9
f 3/4/9 25/16/9 5/15/9
s 1
f 30/27/10 12/28/10 8/18/10
s 0
f 30/27/10 8/18/10 31/17/10
f 33/6/11 23/5/11 21/14/11
f 33/6/11 21/14/11 36/13/11
s 1
f 38/2/12 18/1/12 14/8/12
s 0
f 38/2/12 14/8/12 39/7/12
f 7/29/13 88/30/13 87/31/13
f 7/29/13 87/31/13 4/32/13
f 49/7/14 79/26/14 77/9/14
f 49/7/14 77/9/14 52/2/14
f 58/33/15 43/16/15 42/3/15
f 58/33/15 42/3/15 62/10/15
f 45/17/16 67/34/16 65/35/16
f 45/17/16 65/35/16 48/27/16
f 70/25/17 55/6/17 54/13/17
f 70/25/17 54/13/17 74/20/17
f 46/17/18 44/16/18 59/33/18
f 46/17/18 59/33/18 68/34/18
f 61/36/7 81/37/7 57/38/7
f 78/24/7 82/23/7 76/39/7
f 57/38/7 81/37/7 83/40/7
f 57/38/7 83/40/7 66/41/7
f 76/39/7 82/23/7 81/37/7
f 76/39/7 81/37/7 61/36/7
f 82/23/7 84/22/7 83/40/7
f 82/23/7 83/40/7 81/37/7
f 66/41/7 83/40/7 64/42/7
f 83/40/7 84/22/7 73/43/7
f 83/40/7 73/43/7 64/42/7
f 84/22/7 69/21/7 73/43/7
f 4/32/13 87/31/13 2/44/13
f 17/45/13 85/46/13 13/47/13
f 85/46/13 86/48/13 22/49/13
f 85/46/13 22/49/13 13/47/13
f 22/49/13 86/48/13 20/50/13
f 86/48/13 88/30/13 11/51/13
f 86/48/13 11/51/13 20/50/13
f 11/51/13 88/30/13 7/29/13
f 2/44/13 87/31/13 85/46/13
f 2/44/13 85/46/13 17/45/13
f 87/31/13 88/30/13 86/48/13
f 87/31/13 86/48/13 85/46/13
f 94/12/7 112/52/7 118/53/7
f 94/12/7 118/53/7 100/13/7
f 97/6/7 119/54/7 114/55/7
f 97/6/7 114/55/7 104/7/7
f 90/16/7 107/56/7 110/57/7
f 90/16/7 110/57/7 96/17/7
f 92/3/7 101/2/7 115/58/7
f 92/3/7 115/58/7 105/59/7
f 91/16/7 106/3/7 108/59/7
f 91/16/7 108/59/7 89/56/7
f 93/57/7 95/60/7 109/27/7
f 93/57/7 109/27/7 111/17/7
f 98/53/7 99/54/7 117/6/7
f 98/53/7 117/6/7 120/13/7
f 102/7/7 103/55/7 113/58/7
f 102/7/7 113/58/7 116/2/7
