# Blender 5.1.1
# www.blender.org
mtllib MetalBed01collision.mtl
o MetalBed01collision
v -0.450939 0.500000 -0.934009
v -0.434009 0.500000 -0.950939
v -0.434009 0.500000 0.950939
v -0.450939 0.500000 0.934009
v 0.450939 0.500000 0.934009
v 0.434009 0.500000 0.950939
v 0.434009 0.500000 -0.950939
v 0.450939 0.500000 -0.934009
v -0.451405 0.500000 -0.992937
v -0.492937 0.500000 -0.951405
v 0.492937 0.500000 -0.951405
v 0.451405 0.500000 -0.992937
v 0.451405 0.500000 0.992937
v 0.492937 0.500000 0.951405
v -0.492937 0.500000 0.951405
v -0.451405 0.500000 0.992937
v -0.450000 0.600000 1.000000
v -0.500000 0.600000 0.950000
v -0.500000 0.500000 0.950000
v -0.450000 0.500000 1.000000
v -0.450000 0.500000 -1.000000
v -0.500000 0.500000 -0.950000
v -0.500000 0.600000 -0.950000
v -0.450000 0.600000 -1.000000
v 0.500000 0.500000 -0.950000
v 0.450000 0.500000 -1.000000
v 0.450000 0.600000 -1.000000
v 0.500000 0.600000 -0.950000
v 0.500000 0.600000 0.950000
v 0.450000 0.600000 1.000000
v 0.450000 0.500000 1.000000
v 0.500000 0.500000 0.950000
v 0.450939 0.000000 0.934009
v 0.492937 0.000000 0.951405
v 0.451405 0.000000 0.992937
v 0.434009 0.000000 0.950939
v -0.434009 0.000000 0.950939
v -0.450939 0.000000 0.934009
v -0.492937 0.000000 0.951405
v -0.451405 0.000000 0.992937
v -0.450939 0.000000 -0.934009
v -0.434009 0.000000 -0.950939
v -0.451405 0.000000 -0.992937
v -0.492937 0.000000 -0.951405
v 0.434009 0.000000 -0.950939
v 0.450939 0.000000 -0.934009
v 0.492937 0.000000 -0.951405
v 0.451405 0.000000 -0.992937
vn -0.7071 -0.0000 0.7071
vn -0.7071 -0.0000 -0.7071
vn 0.7071 -0.0000 -0.7071
vn 0.7071 -0.0000 0.7071
vn -1.0000 -0.0000 -0.0000
vn -0.0000 -0.0000 1.0000
vn 1.0000 -0.0000 -0.0000
vn -0.0000 -0.0000 -1.0000
vn -0.0000 1.0000 -0.0000
vn 0.9239 -0.0000 -0.3827
vn -0.3827 -0.0000 0.9239
vn -0.0000 -1.0000 -0.0000
vn 0.3827 -0.0000 0.9239
vn -0.9239 -0.0000 -0.3827
vn 0.3827 -0.0000 -0.9239
vn -0.9239 -0.0000 0.3827
vn 0.9239 -0.0000 0.3827
vn -0.3827 -0.0000 -0.9239
vt 0.194837 0.362756
vt 0.209994 0.354721
vt 0.210823 0.362756
vt 0.210823 0.668109
vt 0.194008 0.676145
vt 0.194837 0.668109
vt 0.638680 0.332523
vt 0.653837 0.324487
vt 0.654666 0.332523
vt 0.654666 0.011099
vt 0.637852 0.019134
vt 0.638680 0.011099
vt 0.644472 0.354721
vt 0.628991 0.499361
vt 0.628991 0.354721
vt 0.653837 0.019134
vt 0.637851 0.324487
vt 0.644472 0.521559
vt 0.628991 0.666200
vt 0.628991 0.521559
vt 0.000000 0.000000
vt 0.424424 0.913451
vt 0.417674 0.910655
vt 0.417674 0.906808
vt 0.424424 0.904012
vt 0.417674 0.945088
vt 0.424424 0.938445
vt 0.424424 0.942292
vt 0.449342 0.936049
vt 0.456092 0.942692
vt 0.449342 0.945488
vt 0.456092 0.913851
vt 0.449342 0.907208
vt 0.456092 0.904412
vt 0.456092 0.938845
vt 0.449342 0.911056
vt 0.194008 0.354721
vt 0.209994 0.676145
vt 0.644472 0.499361
vt 0.644472 0.666200
vt 0.417674 0.935649
s 0
f 19/1/1 17/2/1 18/3/1
f 23/4/2 21/5/2 22/6/2
f 27/7/3 25/8/3 26/9/3
f 31/10/4 29/11/4 30/12/4
f 22/6/5 18/3/5 23/4/5
f 20/13/6 30/14/6 17/15/6
f 32/16/7 28/17/7 29/11/7
f 26/18/8 24/19/8 27/20/8
f 10/21/9 2/21/9 9/21/9
f 43/22/10 2/21/10 42/23/10
f 2/21/4 41/24/4 42/23/4
f 44/25/11 1/21/11 10/21/11
f 34/26/12 36/27/12 33/28/12
f 47/29/12 45/30/12 48/31/12
f 44/25/12 42/23/12 41/24/12
f 39/32/12 37/33/12 40/34/12
f 9/21/2 44/25/2 10/21/2
f 11/21/3 48/31/3 12/21/3
f 46/35/13 11/21/13 8/21/13
f 45/30/1 8/21/1 7/21/1
f 48/31/14 7/21/14 12/21/14
f 7/21/9 11/21/9 12/21/9
f 13/21/4 34/26/4 14/21/4
f 34/26/15 5/21/15 14/21/15
f 36/27/16 13/21/16 6/21/16
f 33/28/2 6/21/2 5/21/2
f 15/21/1 40/34/1 16/21/1
f 40/34/17 3/21/17 16/21/17
f 37/33/3 4/21/3 3/21/3
f 38/36/18 15/21/18 4/21/18
f 3/21/9 15/21/9 16/21/9
f 14/21/9 6/21/9 13/21/9
f 26/18/12 32/16/12 20/13/12
f 28/17/9 24/19/9 18/3/9
f 19/1/1 20/37/1 17/2/1
f 23/4/2 24/38/2 21/5/2
f 27/7/3 28/17/3 25/8/3
f 31/10/4 32/16/4 29/11/4
f 22/6/5 19/1/5 18/3/5
f 20/13/6 31/39/6 30/14/6
f 32/16/7 25/8/7 28/17/7
f 26/18/8 21/40/8 24/19/8
f 10/21/9 1/21/9 2/21/9
f 43/22/10 9/21/10 2/21/10
f 2/21/4 1/21/4 41/24/4
f 44/25/11 41/24/11 1/21/11
f 34/26/12 35/41/12 36/27/12
f 47/29/12 46/35/12 45/30/12
f 44/25/12 43/22/12 42/23/12
f 39/32/12 38/36/12 37/33/12
f 9/21/2 43/22/2 44/25/2
f 11/21/3 47/29/3 48/31/3
f 46/35/13 47/29/13 11/21/13
f 45/30/1 46/35/1 8/21/1
f 48/31/14 45/30/14 7/21/14
f 7/21/9 8/21/9 11/21/9
f 13/21/4 35/41/4 34/26/4
f 34/26/15 33/28/15 5/21/15
f 36/27/16 35/41/16 13/21/16
f 33/28/2 36/27/2 6/21/2
f 15/21/1 39/32/1 40/34/1
f 40/34/17 37/33/17 3/21/17
f 37/33/3 38/36/3 4/21/3
f 38/36/18 39/32/18 15/21/18
f 3/21/9 4/21/9 15/21/9
f 14/21/9 5/21/9 6/21/9
f 20/13/12 19/1/12 22/6/12
f 22/6/12 21/5/12 26/18/12
f 26/18/12 25/8/12 32/16/12
f 32/16/12 31/10/12 20/13/12
f 20/13/12 22/6/12 26/18/12
f 18/3/9 17/15/9 30/14/9
f 30/14/9 29/11/9 28/17/9
f 28/17/9 27/7/9 24/19/9
f 24/19/9 23/4/9 18/3/9
f 18/3/9 30/14/9 28/17/9
