# Blender 5.1.1
# www.blender.org
mtllib MetalBed01.mtl
o MetalBed01
v -0.450939 0.500000 -0.934009
v -0.434009 0.500000 -0.950939
v -0.434009 0.500000 0.950939
v -0.450939 0.500000 0.934009
v 0.450939 0.500000 0.934009
v 0.434009 0.500000 0.950939
v 0.434009 0.500000 -0.950939
v 0.450939 0.500000 -0.934009
v -0.492937 0.500000 0.951405
v -0.451405 0.500000 0.992937
v -0.451405 0.500000 -0.992937
v -0.492937 0.500000 -0.951405
v 0.492937 0.500000 -0.951405
v 0.451405 0.500000 -0.992937
v 0.451405 0.500000 0.992937
v 0.492937 0.500000 0.951405
v -0.450000 0.600000 1.000000
v -0.500000 0.600000 0.950000
v -0.500000 0.500000 0.950000
v -0.450000 0.500000 1.000000
v -0.450000 0.500000 -1.000000
v -0.500000 0.500000 -0.950000
v -0.500000 0.600000 -0.950000
v -0.450000 0.600000 -1.000000
v 0.500000 0.500000 -0.950000
v 0.450000 0.500000 -1.000000
v 0.450000 0.600000 -1.000000
v 0.500000 0.600000 -0.950000
v 0.500000 0.600000 0.950000
v 0.450000 0.600000 1.000000
v 0.450000 0.500000 1.000000
v 0.500000 0.500000 0.950000
v -0.429289 0.600000 0.950000
v -0.450000 0.600000 0.929289
v -0.450000 0.500000 0.929289
v -0.429289 0.500000 0.950000
v -0.429289 0.500000 -0.950000
v -0.450000 0.500000 -0.929289
v -0.450000 0.600000 -0.929289
v -0.429289 0.600000 -0.950000
v 0.450000 0.500000 -0.929289
v 0.429289 0.500000 -0.950000
v 0.429289 0.600000 -0.950000
v 0.450000 0.600000 -0.929289
v 0.450000 0.600000 0.929289
v 0.429289 0.600000 0.950000
v 0.429289 0.500000 0.950000
v 0.450000 0.500000 0.929289
v 0.450939 0.000000 0.934009
v 0.492937 0.000000 0.951405
v 0.451405 0.000000 0.992937
v 0.434009 0.000000 0.950939
v -0.434009 0.000000 0.950939
v -0.450939 0.000000 0.934009
v -0.492937 0.000000 0.951405
v -0.451405 0.000000 0.992937
v -0.450939 0.000000 -0.934009
v -0.434009 0.000000 -0.950939
v -0.451405 0.000000 -0.992937
v -0.492937 0.000000 -0.951405
v 0.434009 0.000000 -0.950939
v 0.450939 0.000000 -0.934009
v 0.492937 0.000000 -0.951405
v 0.451405 0.000000 -0.992937
v 0.456450 0.510000 0.200000
v -0.456450 0.510000 0.200000
v -0.456450 0.510000 0.000000
v 0.456450 0.510000 -0.000000
v -0.456450 0.555000 0.025981
v 0.456450 0.555000 0.025981
v -0.456450 0.555000 -0.025981
v 0.456450 0.555000 -0.025981
v -0.456450 0.555000 0.225981
v 0.456450 0.555000 0.225981
v -0.456450 0.555000 0.174019
v 0.456450 0.555000 0.174019
v 0.456450 0.510000 0.400000
v -0.456450 0.510000 0.400000
v -0.456450 0.555000 0.425981
v 0.456450 0.555000 0.425981
v -0.456450 0.555000 0.374019
v 0.456450 0.555000 0.374019
v 0.456450 0.510000 0.600000
v -0.456450 0.510000 0.600000
v -0.456450 0.555000 0.625981
v 0.456450 0.555000 0.625981
v -0.456450 0.555000 0.574019
v 0.456450 0.555000 0.574019
v 0.456450 0.510000 0.800000
v -0.456450 0.510000 0.800000
v -0.456450 0.555000 0.825981
v 0.456450 0.555000 0.825981
v -0.456450 0.555000 0.774019
v 0.456450 0.555000 0.774019
v -0.456450 0.510000 -0.200000
v 0.456450 0.510000 -0.200000
v -0.456450 0.555000 -0.174019
v 0.456450 0.555000 -0.174019
v -0.456450 0.555000 -0.225981
v 0.456450 0.555000 -0.225981
v -0.456450 0.510000 -0.400000
v 0.456450 0.510000 -0.400000
v -0.456450 0.555000 -0.374019
v 0.456450 0.555000 -0.374019
v -0.456450 0.555000 -0.425981
v 0.456450 0.555000 -0.425981
v -0.456450 0.510000 -0.600000
v 0.456450 0.510000 -0.600000
v -0.456450 0.555000 -0.574019
v 0.456450 0.555000 -0.574019
v -0.456450 0.555000 -0.625981
v 0.456450 0.555000 -0.625981
v -0.456450 0.510000 -0.800000
v 0.456450 0.510000 -0.800000
v -0.456450 0.555000 -0.774019
v 0.456450 0.555000 -0.774019
v -0.456450 0.555000 -0.825981
v 0.456450 0.555000 -0.825981
vn -0.7071 -0.0000 0.7071
vn -0.7071 -0.0000 -0.7071
vn 0.7071 -0.0000 -0.7071
vn 0.7071 -0.0000 0.7071
vn -1.0000 -0.0000 -0.0000
vn -0.0000 -0.0000 1.0000
vn 1.0000 -0.0000 -0.0000
vn -0.0000 -0.0000 -1.0000
vn -0.0000 1.0000 -0.0000
vn -0.0000 -1.0000 -0.0000
vn -0.9239 -0.0000 0.3827
vn 0.3827 -0.0000 -0.9239
vn -0.3827 -0.0000 -0.9239
vn 0.9239 -0.0000 0.3827
vn 0.9239 -0.0000 -0.3827
vn -0.3827 -0.0000 0.9239
vn -0.9239 -0.0000 -0.3827
vn 0.3827 -0.0000 0.9239
vn -0.0000 -0.5000 -0.8660
vn -0.0000 -0.5000 0.8660
vt -1.050078 -0.355257
vt -0.974294 -0.395435
vt -0.970150 -0.355257
vt -0.970150 1.171508
vt -1.054221 1.211686
vt -1.050078 1.171508
vt 1.169137 -0.506423
vt 1.244921 -0.546601
vt 1.249065 -0.506423
vt 1.249065 -2.113544
vt 1.164994 -2.073366
vt 1.169137 -2.113544
vt 1.198096 -0.395435
vt 1.120691 0.327769
vt 1.120692 -0.395435
vt 1.244921 -2.073366
vt 1.164994 -0.546601
vt 1.198097 0.438757
vt 1.120692 1.161962
vt 1.120692 0.438757
vt -1.014043 -0.563243
vt -1.054221 -2.073366
vt -1.014043 -2.056724
vt 0.623710 -2.056724
vt 0.663888 -0.546601
vt 0.623710 -0.563243
vt -0.997401 -2.073366
vt -0.290839 -2.113544
vt -0.307481 -2.073366
vt -0.290839 -2.056724
vt -0.250661 -0.546601
vt -0.290839 -0.563243
vt -0.307481 -0.546601
vt -1.014043 -0.506423
vt -0.997401 -0.546601
vt -0.082852 -2.073366
vt 0.623710 -2.113544
vt 0.607068 -2.073366
vt -0.099495 -0.563243
vt -0.139673 -2.073366
vt -0.099495 -2.056724
vt 0.607068 -0.546601
vt -0.099495 -0.506423
vt -0.082852 -0.546601
vt -0.584886 -0.378793
vt -0.664814 1.114688
vt -0.664814 -0.378793
vt -0.666530 1.131330
vt -0.584886 1.114688
vt -0.586603 1.131330
vt 1.437458 -1.312636
vt 1.360053 -0.622716
vt 1.360053 -1.312636
vt -0.201339 1.114688
vt -0.279550 1.131330
vt -0.281267 1.114688
vt -0.201339 -0.378793
vt -0.281267 -0.378793
vt -0.199623 -0.395435
vt 1.574881 -0.395435
vt 1.497477 0.294485
vt 1.497477 -0.395435
vt -0.586602 -0.395435
vt -0.666530 -0.395435
vt -0.250661 -2.073366
vt 0.624839 -2.107868
vt 0.663888 -2.073366
vt 0.658212 -2.074495
vt 0.624839 -0.512098
vt 0.623710 -0.506423
vt -0.100624 -0.512098
vt -0.139673 -0.546601
vt -0.133997 -0.545472
vt -1.054221 -0.546601
vt -0.199623 1.131330
vt -0.100624 -2.107868
vt -0.099495 -2.113544
vt 0.624464 -2.060516
vt 0.610860 -2.074121
vt 0.624464 -0.559451
vt -0.100249 -0.559451
vt -0.086645 -0.545847
vt -0.100249 -2.060516
vt 0.610860 -0.545847
vt 0.658212 -0.545472
vt -0.086645 -2.074121
vt -0.133997 -2.074495
vt 0.097855 1.838953
vt 0.064107 2.240032
vt 0.064107 1.840394
vt 0.111459 1.840356
vt 0.097855 2.238591
vt 0.255821 1.842395
vt 0.222447 2.238591
vt 0.222447 1.838953
vt 1.719617 2.116432
vt 1.685869 2.499701
vt 1.685869 2.112679
vt 0.064107 2.556403
vt 0.097855 2.523185
vt 0.097855 2.542424
vt -0.364747 2.086876
vt -0.398121 2.489956
vt -0.398121 2.090317
vt 1.154440 2.117507
vt 1.120692 2.508284
vt 1.120692 2.121261
vt 1.511081 2.050939
vt 1.497477 2.451980
vt 1.497477 2.052342
vt 1.544829 2.052380
vt 1.511081 2.450577
vt -0.825414 2.086876
vt -0.859162 2.487956
vt -0.859162 2.088318
vt -0.218768 2.090317
vt -0.252141 2.486514
vt -0.252141 2.086876
vt 1.342833 2.121262
vt 1.309084 2.504530
vt 1.309084 2.117508
vt -0.811810 2.088279
vt -0.825414 2.486514
vt -0.509108 2.086876
vt -0.542482 2.489956
vt -0.542482 2.090318
vt -0.653470 2.088318
vt -0.687218 2.486514
vt -0.687218 2.086876
vt -0.700822 2.487917
vt -0.700822 2.088279
vt 1.877957 2.138239
vt 1.844209 2.529015
vt 1.844209 2.141992
vt 0.222447 2.511206
vt 0.256195 2.544424
vt 0.222447 2.558403
vt 0.097855 2.351021
vt 0.064107 2.384239
vt 0.064107 2.365000
vt 0.256195 2.400218
vt 0.222447 2.367000
vt 0.256195 2.353021
vt 1.685869 1.268121
vt 1.726308 2.001691
vt 1.685869 2.001691
vt 0.863267 1.687596
vt 0.821513 0.954026
vt 0.863267 0.954026
vt 1.844209 1.293681
vt 1.884648 2.027251
vt 1.844209 2.027251
vt 2.451230 2.692595
vt 2.451230 2.651007
vt 2.487341 2.671968
vt -1.514491 2.056244
vt -1.474053 1.322674
vt -1.474053 2.056244
vt -0.046881 1.727965
vt -0.088635 0.994395
vt -0.046881 0.994395
vt -1.041407 2.700962
vt -1.077519 2.721588
vt -1.077519 2.680001
vt 2.770716 -0.575240
vt 2.806684 -0.554362
vt 2.770716 -0.533485
vt 2.037389 2.027251
vt 1.996951 1.293681
vt 2.037389 1.293681
vt -0.355348 2.621821
vt -0.391316 2.642698
vt -0.391316 2.600944
vt 2.188816 2.027251
vt 2.148377 1.293681
vt 2.188816 1.293681
vt 0.105861 1.727965
vt 0.064107 0.994395
vt 0.105862 0.994395
vt -0.208393 2.621821
vt -0.244361 2.642698
vt -0.244361 2.600944
vt -0.665982 1.242318
vt -0.706420 1.975888
vt -0.706420 1.242318
vt 1.533589 2.735133
vt 1.497477 2.755759
vt 1.497477 2.714172
vt 1.120692 1.272950
vt 1.161130 2.006520
vt 1.120692 2.006520
vt 0.258604 1.727965
vt 0.216849 0.994395
vt 0.258604 0.994395
vt 2.790050 1.827326
vt 2.754083 1.848203
vt 2.754083 1.806449
vt 2.149693 0.338135
vt 2.190132 -0.395435
vt 2.190132 0.338135
vt 2.900682 2.138239
vt 2.900682 2.179826
vt 2.864570 2.159200
vt -1.776905 2.056244
vt -1.817343 1.322674
vt -1.776905 1.322674
vt 1.885964 0.338135
vt 1.844209 -0.395435
vt 1.885964 -0.395435
vt -1.785558 2.721587
vt -1.821670 2.700961
vt -1.785558 2.680000
vt -1.363065 1.322674
vt -1.322627 2.056244
vt -1.363065 2.056244
vt 1.996952 2.651007
vt 2.032919 2.671884
vt 1.996952 2.692761
vt 2.149693 1.182693
vt 2.190131 0.449123
vt 2.190132 1.182693
vt 1.885963 1.182693
vt 1.844209 0.449123
vt 1.885963 0.449123
vt 0.971661 2.621582
vt 1.007628 2.642459
vt 0.971661 2.663336
vt -0.514555 1.975888
vt -0.554994 1.242318
vt -0.514555 1.242318
vt 2.634442 2.692595
vt 2.598330 2.671968
vt 2.634442 2.651007
vt 1.309084 2.006520
vt 1.349523 1.272950
vt 1.349523 2.006520
vt 1.901282 -1.379974
vt 1.859528 -2.113544
vt 1.901282 -2.113544
vt 0.369592 2.639555
vt 0.405559 2.660432
vt 0.369592 2.681309
vt -0.363129 1.975888
vt -0.403568 1.242318
vt -0.363129 1.242318
vt 2.335916 2.692595
vt 2.299804 2.671968
vt 2.335916 2.651007
vt -1.211639 1.322674
vt -1.171200 2.056244
vt -1.211639 2.056244
vt 1.748540 -1.379974
vt 1.706785 -2.113544
vt 1.748540 -2.113544
vt 2.781541 2.671967
vt 2.745429 2.692594
vt 2.745429 2.651006
vt -1.968770 1.322674
vt -1.928331 2.056244
vt -1.968770 2.056244
vt -1.518818 2.721588
vt -1.518818 2.680000
vt -1.482706 2.700961
vt -1.665917 1.322674
vt -1.625479 2.056244
vt -1.665917 2.056244
vt 1.748540 -0.535416
vt 1.706786 -1.268986
vt 1.748540 -1.268986
vt -1.629805 2.680000
vt -1.629805 2.721588
vt -1.665917 2.700961
vt -0.211703 1.975888
vt -0.252141 1.242318
vt -0.211703 1.242318
vt 0.100219 2.708978
vt 0.064107 2.688351
vt 0.100219 2.667391
vt -1.054221 -0.395435
vt -0.974294 1.211686
vt 1.198096 0.327769
vt 1.198097 1.161962
vt -1.014043 -2.113544
vt -0.290839 -0.506423
vt 1.437457 -0.622716
vt -0.279550 -0.395435
vt 1.574881 0.294485
vt 0.111459 2.239994
vt 0.255821 2.242033
vt 1.719617 2.503455
vt 0.064107 2.509206
vt -0.364747 2.486514
vt 1.154440 2.504530
vt 1.544829 2.452018
vt -0.218768 2.489955
vt 1.342833 2.508284
vt -0.811810 2.487917
vt -0.509108 2.486514
vt -0.653470 2.487956
vt 1.877957 2.525261
vt 0.256195 2.525185
vt 0.097855 2.398218
vt 0.222447 2.386240
vt 1.726308 1.268121
vt 0.821513 1.687596
vt 1.884647 1.293681
vt -1.514491 1.322674
vt -0.088635 1.727965
vt 1.996951 2.027251
vt 2.148378 2.027251
vt 0.064107 1.727965
vt -0.665982 1.975888
vt 1.161130 1.272950
vt 0.216849 1.727965
vt 2.149693 -0.395435
vt -1.817343 2.056244
vt 1.844209 0.338135
vt -1.322627 1.322674
vt 2.149693 0.449123
vt 1.844209 1.182693
vt -0.554994 1.975888
vt 1.309084 1.272950
vt 1.859528 -1.379974
vt -0.403567 1.975888
vt -1.171200 1.322674
vt 1.706785 -1.379974
vt -1.928331 1.322674
vt -1.625479 1.322674
vt 1.706786 -0.535416
vt -0.252141 1.975888
s 0
usemtl Metal
f 19/1/1 17/2/1 18/3/1
f 23/4/2 21/5/2 22/6/2
f 27/7/3 25/8/3 26/9/3
f 31/10/4 29/11/4 30/12/4
f 22/6/5 18/3/5 23/4/5
f 20/13/6 30/14/6 17/15/6
f 32/16/7 28/17/7 29/11/7
f 26/18/8 24/19/8 27/20/8
f 39/21/9 18/22/9 34/23/9
f 35/24/10 22/25/10 38/26/10
f 33/27/9 30/28/9 46/29/9
f 45/30/9 28/31/9 44/32/9
f 43/33/9 24/34/9 40/35/9
f 47/36/10 20/37/10 36/38/10
f 41/39/10 32/40/10 48/41/10
f 37/42/10 26/43/10 42/44/10
f 35/45/7 39/46/7 34/47/7
f 40/48/4 38/49/4 37/50/4
f 37/51/6 43/52/6 40/53/6
f 44/54/1 42/55/1 41/56/1
f 41/56/5 45/57/5 44/54/5
f 48/58/2 46/59/2 45/57/2
f 47/60/8 33/61/8 46/62/8
f 36/63/3 34/47/3 33/64/3
f 29/65/9 46/29/9 30/28/9
f 10/66/10 19/67/10 9/68/10
f 11/69/10 22/25/10 21/70/10
f 18/22/9 33/64/9 34/23/9
f 14/71/10 25/72/10 13/73/10
f 23/74/9 40/35/9 24/34/9
f 28/31/9 43/75/9 44/32/9
f 15/76/10 32/40/10 31/77/10
f 4/78/10 36/38/10 3/79/10
f 1/80/10 37/42/10 38/26/10
f 8/81/10 42/44/10 7/82/10
f 5/83/10 47/36/10 48/41/10
f 9/68/10 35/24/10 4/78/10
f 10/66/10 36/38/10 20/37/10
f 11/69/10 37/42/10 2/84/10
f 12/85/10 38/26/10 22/25/10
f 13/73/10 41/39/10 8/81/10
f 14/71/10 42/44/10 26/43/10
f 15/76/10 47/36/10 6/86/10
f 16/87/10 48/41/10 32/40/10
f 6/88/11 51/89/11 15/90/11
f 5/91/2 52/92/2 6/88/2
f 15/93/4 50/94/4 16/95/4
f 16/96/12 49/97/12 5/98/12
f 50/99/10 52/100/10 49/101/10
f 9/102/1 56/103/1 10/104/1
f 4/105/13 55/106/13 9/107/13
f 3/108/3 54/109/3 4/110/3
f 10/111/14 53/112/14 3/108/14
f 2/113/15 59/114/15 11/115/15
f 11/116/2 60/117/2 12/118/2
f 12/119/16 57/120/16 1/121/16
f 1/122/4 58/123/4 2/113/4
f 13/124/3 64/125/3 14/126/3
f 14/127/17 61/128/17 7/129/17
f 7/129/1 62/130/1 8/131/1
f 8/132/18 63/133/18 13/134/18
f 63/135/10 61/136/10 64/137/10
f 60/138/10 58/139/10 57/140/10
f 55/141/10 53/142/10 56/143/10
f 76/144/19 66/145/19 75/146/19
f 74/147/9 75/148/9 73/149/9
f 68/150/20 69/151/20 67/152/20
f 66/153/5 73/154/5 75/155/5
f 66/156/20 74/157/20 73/158/20
f 70/159/9 71/160/9 69/161/9
f 70/162/7 68/163/7 72/164/7
f 74/165/7 65/166/7 76/167/7
f 72/168/19 67/169/19 71/170/19
f 67/171/5 69/172/5 71/173/5
f 82/174/19 78/175/19 81/176/19
f 80/177/9 81/178/9 79/179/9
f 78/180/5 79/181/5 81/182/5
f 78/183/20 80/184/20 79/185/20
f 80/186/7 77/187/7 82/188/7
f 88/189/19 84/190/19 87/191/19
f 86/192/9 87/193/9 85/194/9
f 84/195/5 85/196/5 87/197/5
f 84/198/20 86/199/20 85/200/20
f 86/201/7 83/202/7 88/203/7
f 94/204/19 90/205/19 93/206/19
f 92/207/9 93/208/9 91/209/9
f 90/210/5 91/211/5 93/212/5
f 89/213/20 91/214/20 90/215/20
f 92/216/7 89/217/7 94/218/7
f 95/219/20 98/220/20 97/221/20
f 98/222/9 99/223/9 97/224/9
f 98/225/7 96/226/7 100/227/7
f 100/228/19 95/229/19 99/230/19
f 95/231/5 97/232/5 99/233/5
f 101/234/20 104/235/20 103/236/20
f 104/237/9 105/238/9 103/239/9
f 104/240/7 102/241/7 106/242/7
f 106/243/19 101/244/19 105/245/19
f 101/246/5 103/247/5 105/248/5
f 108/249/20 109/250/20 107/251/20
f 110/252/9 111/253/9 109/254/9
f 110/255/7 108/256/7 112/257/7
f 112/258/19 107/259/19 111/260/19
f 107/261/5 109/262/5 111/263/5
f 114/264/20 115/265/20 113/266/20
f 116/267/9 117/268/9 115/269/9
f 116/270/7 114/271/7 118/272/7
f 118/273/19 113/274/19 117/275/19
f 113/276/5 115/277/5 117/278/5
f 19/1/1 20/279/1 17/2/1
f 23/4/2 24/280/2 21/5/2
f 27/7/3 28/17/3 25/8/3
f 31/10/4 32/16/4 29/11/4
f 22/6/5 19/1/5 18/3/5
f 20/13/6 31/281/6 30/14/6
f 32/16/7 25/8/7 28/17/7
f 26/18/8 21/282/8 24/19/8
f 39/21/9 23/74/9 18/22/9
f 35/24/10 19/67/10 22/25/10
f 33/27/9 17/283/9 30/28/9
f 45/30/9 29/65/9 28/31/9
f 43/33/9 27/284/9 24/34/9
f 47/36/10 31/77/10 20/37/10
f 41/39/10 25/72/10 32/40/10
f 37/42/10 21/70/10 26/43/10
f 35/45/7 38/49/7 39/46/7
f 40/48/4 39/46/4 38/49/4
f 37/51/6 42/285/6 43/52/6
f 44/54/1 43/75/1 42/55/1
f 41/56/5 48/58/5 45/57/5
f 48/58/2 47/286/2 46/59/2
f 47/60/8 36/287/8 33/61/8
f 36/63/3 35/45/3 34/47/3
f 29/65/9 45/57/9 46/29/9
f 10/66/10 20/37/10 19/67/10
f 11/69/10 12/85/10 22/25/10
f 18/22/9 17/283/9 33/64/9
f 14/71/10 26/43/10 25/72/10
f 23/74/9 39/46/9 40/35/9
f 28/31/9 27/284/9 43/75/9
f 15/76/10 16/87/10 32/40/10
f 4/78/10 35/24/10 36/38/10
f 1/80/10 2/84/10 37/42/10
f 8/81/10 41/39/10 42/44/10
f 5/83/10 6/86/10 47/36/10
f 9/68/10 19/67/10 35/24/10
f 10/66/10 3/79/10 36/38/10
f 11/69/10 21/70/10 37/42/10
f 12/85/10 1/80/10 38/26/10
f 13/73/10 25/72/10 41/39/10
f 14/71/10 7/82/10 42/44/10
f 15/76/10 31/77/10 47/36/10
f 16/87/10 5/83/10 48/41/10
f 6/88/11 52/92/11 51/89/11
f 5/91/2 49/288/2 52/92/2
f 15/93/4 51/289/4 50/94/4
f 16/96/12 50/290/12 49/97/12
f 50/99/10 51/291/10 52/100/10
f 9/102/1 55/292/1 56/103/1
f 4/105/13 54/293/13 55/106/13
f 3/108/3 53/112/3 54/109/3
f 10/111/14 56/294/14 53/112/14
f 2/113/15 58/123/15 59/114/15
f 11/116/2 59/295/2 60/117/2
f 12/119/16 60/296/16 57/120/16
f 1/122/4 57/297/4 58/123/4
f 13/124/3 63/298/3 64/125/3
f 14/127/17 64/299/17 61/128/17
f 7/129/1 61/128/1 62/130/1
f 8/132/18 62/300/18 63/133/18
f 63/135/10 62/301/10 61/136/10
f 60/138/10 59/302/10 58/139/10
f 55/141/10 54/303/10 53/142/10
f 76/144/19 65/304/19 66/145/19
f 74/147/9 76/305/9 75/148/9
f 68/150/20 70/306/20 69/151/20
f 66/156/20 65/307/20 74/157/20
f 70/159/9 72/308/9 71/160/9
f 72/168/19 68/309/19 67/169/19
f 82/174/19 77/310/19 78/175/19
f 80/177/9 82/311/9 81/178/9
f 78/183/20 77/312/20 80/184/20
f 88/189/19 83/313/19 84/190/19
f 86/192/9 88/314/9 87/193/9
f 84/198/20 83/315/20 86/199/20
f 94/204/19 89/316/19 90/205/19
f 92/207/9 94/317/9 93/208/9
f 89/213/20 92/318/20 91/214/20
f 95/219/20 96/319/20 98/220/20
f 98/222/9 100/320/9 99/223/9
f 100/228/19 96/321/19 95/229/19
f 101/234/20 102/322/20 104/235/20
f 104/237/9 106/323/9 105/238/9
f 106/243/19 102/324/19 101/244/19
f 108/249/20 110/325/20 109/250/20
f 110/252/9 112/326/9 111/253/9
f 112/258/19 108/327/19 107/259/19
f 114/264/20 116/328/20 115/265/20
f 116/267/9 118/329/9 117/268/9
f 118/273/19 114/330/19 113/274/19
