# Blender 5.1.0
# www.blender.org
mtllib RectangleVent.mtl
o RectangleVent
v 0.355000 0.020000 0.000000
v 0.355000 0.480000 0.000000
v -0.355000 0.020000 -0.000000
v -0.355000 0.480000 -0.000000
v -0.355000 0.020000 0.020000
v 0.355000 0.020000 0.020000
v 0.355000 0.480000 0.020000
v -0.355000 0.480000 0.020000
v -0.375000 0.000000 -0.000000
v 0.375000 0.000000 0.000000
v 0.375000 0.500000 0.000000
v -0.375000 0.500000 -0.000000
v -0.375000 0.000000 0.020000
v 0.375000 0.000000 0.020000
v 0.375000 0.500000 0.020000
v -0.375000 0.500000 0.020000
v 0.360000 0.240979 0.014994
v 0.360000 0.259021 0.008427
v -0.360000 0.240979 0.014994
v -0.360000 0.259021 0.008427
v 0.360000 0.140979 0.014994
v 0.360000 0.159021 0.008427
v -0.360000 0.140979 0.014994
v -0.360000 0.159021 0.008427
v 0.360000 0.040979 0.014994
v 0.360000 0.059021 0.008427
v -0.360000 0.040979 0.014994
v -0.360000 0.059021 0.008427
v 0.360000 0.340979 0.014994
v 0.360000 0.359021 0.008427
v -0.360000 0.340979 0.014994
v -0.360000 0.359021 0.008427
v 0.360000 0.440979 0.014994
v 0.360000 0.459021 0.008427
v -0.360000 0.440979 0.014994
v -0.360000 0.459021 0.008427
v 0.360000 0.415979 0.014994
v 0.360000 0.434021 0.008427
v -0.360000 0.415979 0.014994
v -0.360000 0.434021 0.008427
v 0.360000 0.390979 0.014994
v 0.360000 0.409021 0.008427
v -0.360000 0.390979 0.014994
v -0.360000 0.409021 0.008427
v 0.360000 0.365979 0.014994
v 0.360000 0.384021 0.008427
v -0.360000 0.365979 0.014994
v -0.360000 0.384021 0.008427
v 0.360000 0.465979 0.014994
v 0.360000 0.484021 0.008427
v -0.360000 0.465979 0.014994
v -0.360000 0.484021 0.008427
v 0.360000 0.015979 0.014994
v 0.360000 0.034021 0.008427
v -0.360000 0.015979 0.014994
v -0.360000 0.034021 0.008427
v 0.360000 0.315979 0.014994
v 0.360000 0.334021 0.008427
v -0.360000 0.315979 0.014994
v -0.360000 0.334021 0.008427
v 0.360000 0.290979 0.014994
v 0.360000 0.309021 0.008427
v -0.360000 0.290979 0.014994
v -0.360000 0.309021 0.008427
v 0.360000 0.265979 0.014994
v 0.360000 0.284021 0.008427
v -0.360000 0.265979 0.014994
v -0.360000 0.284021 0.008427
v 0.360000 0.215979 0.014994
v 0.360000 0.234021 0.008427
v -0.360000 0.215979 0.014994
v -0.360000 0.234021 0.008427
v 0.360000 0.190979 0.014994
v 0.360000 0.209021 0.008427
v -0.360000 0.190979 0.014994
v -0.360000 0.209021 0.008427
v 0.360000 0.165979 0.014994
v 0.360000 0.184021 0.008427
v -0.360000 0.165979 0.014994
v -0.360000 0.184021 0.008427
v 0.360000 0.115979 0.014994
v 0.360000 0.134021 0.008427
v -0.360000 0.115979 0.014994
v -0.360000 0.134021 0.008427
v 0.360000 0.090979 0.014994
v 0.360000 0.109021 0.008427
v -0.360000 0.090979 0.014994
v -0.360000 0.109021 0.008427
v 0.360000 0.065979 0.014994
v 0.360000 0.084021 0.008427
v -0.360000 0.065979 0.014994
v -0.360000 0.084021 0.008427
v 0.360000 0.240979 0.011290
v 0.360000 0.259021 0.004723
v -0.360000 0.240979 0.011290
v -0.360000 0.259021 0.004723
v 0.360000 0.140979 0.011290
v 0.360000 0.159021 0.004723
v -0.360000 0.140979 0.011290
v -0.360000 0.159021 0.004723
v 0.360000 0.040979 0.011290
v 0.360000 0.059021 0.004723
v -0.360000 0.040979 0.011290
v -0.360000 0.059021 0.004723
v 0.360000 0.340979 0.011290
v 0.360000 0.359021 0.004723
v -0.360000 0.340979 0.011290
v -0.360000 0.359021 0.004723
v 0.360000 0.440979 0.011290
v 0.360000 0.459021 0.004723
v -0.360000 0.440979 0.011290
v -0.360000 0.459021 0.004723
v 0.360000 0.415979 0.011290
v 0.360000 0.434021 0.004723
v -0.360000 0.415979 0.011290
v -0.360000 0.434021 0.004723
v 0.360000 0.390979 0.011290
v 0.360000 0.409021 0.004723
v -0.360000 0.390979 0.011290
v -0.360000 0.409021 0.004723
v 0.360000 0.365979 0.011290
v 0.360000 0.384021 0.004723
v -0.360000 0.365979 0.011290
v -0.360000 0.384021 0.004723
v 0.360000 0.465979 0.011290
v 0.360000 0.484021 0.004723
v -0.360000 0.465979 0.011290
v -0.360000 0.484021 0.004723
v 0.360000 0.015979 0.011290
v 0.360000 0.034021 0.004723
v -0.360000 0.015979 0.011290
v -0.360000 0.034021 0.004723
v 0.360000 0.315979 0.011290
v 0.360000 0.334021 0.004723
v -0.360000 0.315979 0.011290
v -0.360000 0.334021 0.004723
v 0.360000 0.290979 0.011290
v 0.360000 0.309021 0.004723
v -0.360000 0.290979 0.011290
v -0.360000 0.309021 0.004723
v 0.360000 0.265979 0.011290
v 0.360000 0.284021 0.004723
v -0.360000 0.265979 0.011290
v -0.360000 0.284021 0.004723
v 0.360000 0.215979 0.011290
v 0.360000 0.234021 0.004723
v -0.360000 0.215979 0.011290
v -0.360000 0.234021 0.004723
v 0.360000 0.190979 0.011290
v 0.360000 0.209021 0.004723
v -0.360000 0.190979 0.011290
v -0.360000 0.209021 0.004723
v 0.360000 0.165979 0.011290
v 0.360000 0.184021 0.004723
v -0.360000 0.165979 0.011290
v -0.360000 0.184021 0.004723
v 0.360000 0.115979 0.011290
v 0.360000 0.134021 0.004723
v -0.360000 0.115979 0.011290
v -0.360000 0.134021 0.004723
v 0.360000 0.090979 0.011290
v 0.360000 0.109021 0.004723
v -0.360000 0.090979 0.011290
v -0.360000 0.109021 0.004723
v 0.360000 0.065979 0.011290
v 0.360000 0.084021 0.004723
v -0.360000 0.065979 0.011290
v -0.360000 0.084021 0.004723
vn -1.0000 -0.0000 -0.0000
vn 1.0000 -0.0000 -0.0000
vn -0.0000 1.0000 -0.0000
vn -0.0000 -1.0000 -0.0000
vn -0.0000 -0.0000 -1.0000
vn -0.0000 -0.0000 1.0000
vn -0.0000 0.3420 0.9397
vn -0.0000 -0.3420 -0.9397
vt 0.500000 0.015625
vt 0.703125 0.031250
vt 0.703125 0.015625
vt 0.000000 0.015625
vt 0.203125 0.031250
vt 0.203125 0.015625
vt 1.000000 0.031250
vt 1.000000 0.015625
vt 0.500000 0.031250
vt 0.024080 0.789595
vt 0.311680 0.781715
vt 0.303801 0.789595
vt 0.024080 0.970822
vt 0.016201 0.781715
vt 0.303801 0.970822
vt 0.016201 0.978701
vt 0.311680 0.978701
vt -0.000000 0.000000
vt 0.203125 0.000000
vt 0.703125 0.000000
vt 1.000000 0.000000
vt 0.500000 0.000000
vt 0.031250 0.281250
vt 0.453125 0.265625
vt 0.031250 0.265625
vt 0.031250 0.218750
vt 0.453125 0.203125
vt 0.031250 0.203125
vt 0.031250 0.156250
vt 0.453125 0.140625
vt 0.031250 0.140625
vt 0.031250 0.343750
vt 0.453125 0.328125
vt 0.031250 0.328125
vt 0.031250 0.406250
vt 0.453125 0.390625
vt 0.031250 0.390625
vt 0.531250 0.390625
vt 0.953125 0.375000
vt 0.531250 0.375000
vt 0.031250 0.375000
vt 0.453125 0.359375
vt 0.031250 0.359375
vt 0.531250 0.359375
vt 0.953125 0.343750
vt 0.531250 0.343750
vt 0.531250 0.421875
vt 0.953125 0.406250
vt 0.531250 0.406250
vt 0.531250 0.140625
vt 0.953125 0.125000
vt 0.531250 0.125000
vt 0.531250 0.328125
vt 0.953125 0.312500
vt 0.531250 0.312500
vt 0.031250 0.312500
vt 0.453125 0.296875
vt 0.031250 0.296875
vt 0.531250 0.296875
vt 0.953125 0.281250
vt 0.531250 0.281250
vt 0.531250 0.265625
vt 0.953125 0.250000
vt 0.531250 0.250000
vt 0.031250 0.250000
vt 0.453125 0.234375
vt 0.031250 0.234375
vt 0.531250 0.234375
vt 0.953125 0.218750
vt 0.531250 0.218750
vt 0.531250 0.203125
vt 0.953125 0.187500
vt 0.531250 0.187500
vt 0.031250 0.187500
vt 0.453125 0.171875
vt 0.031250 0.171875
vt 0.531250 0.171875
vt 0.953125 0.156250
vt 0.531250 0.156250
vt 0.000000 0.031250
vt 0.453125 0.281250
vt 0.453125 0.218750
vt 0.453125 0.156250
vt 0.453125 0.343750
vt 0.453125 0.406250
vt 0.953125 0.390625
vt 0.453125 0.375000
vt 0.953125 0.359375
vt 0.953125 0.421875
vt 0.953125 0.140625
vt 0.953125 0.328125
vt 0.453125 0.312500
vt 0.953125 0.296875
vt 0.953125 0.265625
vt 0.453125 0.250000
vt 0.953125 0.234375
vt 0.953125 0.203125
vt 0.453125 0.187500
vt 0.953125 0.171875
s 0
usemtl 64x64grid
f 9/1/1 16/2/1 12/3/1
f 11/4/2 14/5/2 10/6/2
f 12/3/3 15/7/3 11/8/3
f 10/6/4 13/9/4 9/1/4
f 1/10/5 9/11/5 3/12/5
f 2/13/5 10/14/5 1/10/5
f 4/15/5 11/16/5 2/13/5
f 3/12/5 12/17/5 4/15/5
f 5/12/6 14/14/6 6/10/6
f 6/10/6 15/16/6 7/13/6
f 7/13/6 16/17/6 8/15/6
f 8/15/6 13/11/6 5/12/6
f 1/18/1 7/6/1 2/19/1
f 3/20/3 6/8/3 1/21/3
f 4/22/2 5/3/2 3/20/2
f 2/19/4 8/1/4 4/22/4
f 18/23/7 19/24/7 17/25/7
f 22/26/7 23/27/7 21/28/7
f 26/29/7 27/30/7 25/31/7
f 30/32/7 31/33/7 29/34/7
f 34/35/7 35/36/7 33/37/7
f 38/38/7 39/39/7 37/40/7
f 42/41/7 43/42/7 41/43/7
f 46/44/7 47/45/7 45/46/7
f 50/47/7 51/48/7 49/49/7
f 54/50/7 55/51/7 53/52/7
f 58/53/7 59/54/7 57/55/7
f 62/56/7 63/57/7 61/58/7
f 66/59/7 67/60/7 65/61/7
f 70/62/7 71/63/7 69/64/7
f 74/65/7 75/66/7 73/67/7
f 78/68/7 79/69/7 77/70/7
f 82/71/7 83/72/7 81/73/7
f 86/74/7 87/75/7 85/76/7
f 90/77/7 91/78/7 89/79/7
f 95/24/8 94/23/8 93/25/8
f 99/27/8 98/26/8 97/28/8
f 103/30/8 102/29/8 101/31/8
f 107/33/8 106/32/8 105/34/8
f 111/36/8 110/35/8 109/37/8
f 115/39/8 114/38/8 113/40/8
f 119/42/8 118/41/8 117/43/8
f 123/45/8 122/44/8 121/46/8
f 127/48/8 126/47/8 125/49/8
f 131/51/8 130/50/8 129/52/8
f 135/54/8 134/53/8 133/55/8
f 139/57/8 138/56/8 137/58/8
f 143/60/8 142/59/8 141/61/8
f 147/63/8 146/62/8 145/64/8
f 151/66/8 150/65/8 149/67/8
f 155/69/8 154/68/8 153/70/8
f 159/72/8 158/71/8 157/73/8
f 163/75/8 162/74/8 161/76/8
f 167/78/8 166/77/8 165/79/8
f 9/1/1 13/9/1 16/2/1
f 11/4/2 15/80/2 14/5/2
f 12/3/3 16/2/3 15/7/3
f 10/6/4 14/5/4 13/9/4
f 1/10/5 10/14/5 9/11/5
f 2/13/5 11/16/5 10/14/5
f 4/15/5 12/17/5 11/16/5
f 3/12/5 9/11/5 12/17/5
f 5/12/6 13/11/6 14/14/6
f 6/10/6 14/14/6 15/16/6
f 7/13/6 15/16/6 16/17/6
f 8/15/6 16/17/6 13/11/6
f 1/18/1 6/4/1 7/6/1
f 3/20/3 5/3/3 6/8/3
f 4/22/2 8/1/2 5/3/2
f 2/19/4 7/6/4 8/1/4
f 18/23/7 20/81/7 19/24/7
f 22/26/7 24/82/7 23/27/7
f 26/29/7 28/83/7 27/30/7
f 30/32/7 32/84/7 31/33/7
f 34/35/7 36/85/7 35/36/7
f 38/38/7 40/86/7 39/39/7
f 42/41/7 44/87/7 43/42/7
f 46/44/7 48/88/7 47/45/7
f 50/47/7 52/89/7 51/48/7
f 54/50/7 56/90/7 55/51/7
f 58/53/7 60/91/7 59/54/7
f 62/56/7 64/92/7 63/57/7
f 66/59/7 68/93/7 67/60/7
f 70/62/7 72/94/7 71/63/7
f 74/65/7 76/95/7 75/66/7
f 78/68/7 80/96/7 79/69/7
f 82/71/7 84/97/7 83/72/7
f 86/74/7 88/98/7 87/75/7
f 90/77/7 92/99/7 91/78/7
f 95/24/8 96/81/8 94/23/8
f 99/27/8 100/82/8 98/26/8
f 103/30/8 104/83/8 102/29/8
f 107/33/8 108/84/8 106/32/8
f 111/36/8 112/85/8 110/35/8
f 115/39/8 116/86/8 114/38/8
f 119/42/8 120/87/8 118/41/8
f 123/45/8 124/88/8 122/44/8
f 127/48/8 128/89/8 126/47/8
f 131/51/8 132/90/8 130/50/8
f 135/54/8 136/91/8 134/53/8
f 139/57/8 140/92/8 138/56/8
f 143/60/8 144/93/8 142/59/8
f 147/63/8 148/94/8 146/62/8
f 151/66/8 152/95/8 150/65/8
f 155/69/8 156/96/8 154/68/8
f 159/72/8 160/97/8 158/71/8
f 163/75/8 164/98/8 162/74/8
f 167/78/8 168/99/8 166/77/8
