# Blender 5.0.1
# www.blender.org
mtllib SmallCardboardPackage.mtl
o SmallCardboardPackage
v -0.080459 0.000000 0.064368
v -0.080459 0.040747 0.064368
v -0.080459 0.000000 -0.064368
v -0.080459 0.040747 -0.064368
v 0.080459 0.000000 0.064368
v 0.080459 0.040747 0.064368
v 0.080459 0.000000 -0.064368
v 0.080459 0.040747 -0.064368
v -0.104290 0.020374 0.064368
v -0.104290 0.020374 -0.064368
v 0.104290 0.020374 -0.064368
v 0.104290 0.020374 0.064368
v -0.080459 0.020374 0.054802
v 0.080459 0.020374 0.054802
v -0.080459 0.020374 -0.054802
v 0.080459 0.020374 -0.054802
vn -0.6498 0.7601 -0.0000
vn -0.3415 -0.3994 -0.8508
vn 0.6498 0.7601 -0.0000
vn -0.0000 -1.0000 -0.0000
vn -0.0000 1.0000 -0.0000
vn 0.3415 -0.3994 0.8508
vn 0.3415 0.3994 0.8508
vn 0.6498 -0.7601 -0.0000
vn 0.3415 0.3994 -0.8508
vn -0.6498 -0.7601 -0.0000
vn -0.0000 -0.4250 0.9052
vn -0.3415 0.3994 0.8508
vn -0.3415 -0.3994 0.8508
vn -0.0000 0.4250 0.9052
vn 0.3415 -0.3994 -0.8508
vn -0.0000 0.4250 -0.9052
vn -0.0000 -0.4250 -0.9052
vn -0.3415 0.3994 -0.8508
vt 0.281250 0.093750
vt 0.031250 0.046875
vt 0.281250 0.046875
vt 0.343750 0.562500
vt 0.343750 0.515625
vt 0.379454 0.515625
vt 0.343750 0.625000
vt 0.656250 0.375000
vt 0.656250 0.625000
vt 0.000000 0.968750
vt 0.312500 0.718750
vt 0.312500 0.968750
vt 0.379454 0.484375
vt 0.343750 0.531250
vt 0.343750 0.484375
vt 0.343750 0.437500
vt 0.031250 0.000000
vt 0.281250 0.000000
vt 0.656250 0.468750
vt 0.656250 0.515625
vt 0.620546 0.515625
vt 0.620546 0.484375
vt 0.656250 0.531250
vt 0.656250 0.437500
vt 0.656250 0.484375
vt 0.656250 0.562500
vt 0.343750 0.468750
vt 0.031250 0.093750
vt 0.343750 0.375000
vt 0.000000 0.718750
s 0
usemtl CardboardBox
f 2/1/1 10/2/1 9/3/1
f 8/4/2 11/5/2 16/6/2
f 8/1/3 12/2/3 11/3/3
f 7/7/4 1/8/4 3/9/4
f 4/10/5 6/11/5 8/12/5
f 13/13/6 2/14/6 9/15/6
f 1/16/7 13/13/7 9/15/7
f 11/3/8 5/17/8 7/18/8
f 3/19/9 10/20/9 15/21/9
f 9/3/10 3/17/10 1/18/10
f 2/14/11 14/22/11 6/23/11
f 5/24/12 12/25/12 14/22/12
f 12/25/13 6/23/13 14/22/13
f 5/24/14 13/13/14 1/16/14
f 10/20/15 4/26/15 15/21/15
f 3/19/16 16/6/16 7/27/16
f 8/4/17 15/21/17 4/26/17
f 11/5/18 7/27/18 16/6/18
f 2/1/1 4/28/1 10/2/1
f 8/1/3 6/28/3 12/2/3
f 7/7/4 5/29/4 1/8/4
f 4/10/5 2/30/5 6/11/5
f 11/3/8 12/2/8 5/17/8
f 9/3/10 10/2/10 3/17/10
f 2/14/11 13/13/11 14/22/11
f 5/24/14 14/22/14 13/13/14
f 3/19/16 15/21/16 16/6/16
f 8/4/17 16/6/17 15/21/17
