# Blender 5.0.1
# www.blender.org
mtllib Sink02.mtl
o Sink02
v -0.129993 0.915498 0.005564
v -0.129993 0.915498 -0.126964
v 0.129993 0.915498 -0.126964
v 0.129993 0.915498 0.005564
v -0.167960 0.863622 -0.151563
v 0.167960 0.863622 -0.151563
v -0.167960 0.863622 -0.208609
v 0.167960 0.863622 -0.208609
v -0.010054 1.057187 -0.067025
v 0.010054 1.057187 -0.067025
v -0.010054 1.077185 -0.067025
v 0.010054 1.077185 -0.067025
v -0.000000 0.996895 -0.206954
v -0.023730 0.996895 -0.189713
v -0.014666 0.996895 -0.161816
v 0.014666 0.996895 -0.161816
v 0.023730 0.996895 -0.189713
v -0.000000 1.057179 -0.206954
v -0.023730 1.057179 -0.189713
v -0.014666 1.057179 -0.161816
v 0.014666 1.057179 -0.161816
v 0.023730 1.057179 -0.189713
v -0.010054 1.031988 -0.161816
v 0.010054 1.031988 -0.161816
v -0.010054 1.011990 -0.161816
v 0.010054 1.011990 -0.161816
v -0.010054 1.077185 -0.090664
v 0.010054 1.077185 -0.090664
v -0.010054 1.057187 -0.090664
v 0.010054 1.057187 -0.090664
v -0.106440 0.863622 0.060034
v -0.167960 0.863622 -0.002740
v 0.167960 0.863622 -0.002740
v 0.106440 0.863622 0.060034
v -0.163397 0.998251 -0.136978
v 0.163397 0.998251 -0.136978
v -0.163397 0.998251 0.027044
v -0.120186 0.998251 0.077846
v 0.120186 0.998251 0.077846
v 0.163397 0.998251 0.027044
v 0.023730 1.075772 -0.189713
v 0.014666 1.075772 -0.133460
v -0.014666 1.075772 -0.133460
v -0.000000 1.075772 -0.206954
v -0.023730 1.075772 -0.189713
v 0.018965 1.075772 -0.160141
v -0.018965 1.075772 -0.160141
v -0.196320 0.984335 -0.159031
v -0.182867 0.999727 -0.160000
v 0.182867 0.999727 -0.160000
v 0.196320 0.984335 -0.159031
v -0.196318 0.984326 -0.208609
v -0.183674 1.000000 -0.208609
v 0.183674 1.000000 -0.208609
v 0.196318 0.984326 -0.208609
v -0.182853 0.999180 0.033977
v -0.196326 0.984362 0.035176
v -0.134809 0.984380 0.097956
v -0.128551 0.999050 0.089284
v 0.128551 0.999050 0.089284
v 0.134809 0.984380 0.097956
v 0.196326 0.984362 0.035176
v 0.182853 0.999180 0.033977
v -0.049721 0.812725 -0.207977
v 0.049721 0.812725 -0.207977
v -0.031509 0.812725 -0.128451
v -0.049721 0.812725 -0.147034
v 0.049721 0.812725 -0.147034
v 0.031509 0.812725 -0.128451
vn -0.0000 1.0000 -0.0000
vn -0.0000 -0.9654 0.2607
vn 1.0000 -0.0000 -0.0000
vn -0.0000 -0.0000 1.0000
vn -1.0000 -0.0000 -0.0000
vn -0.0000 -1.0000 -0.0000
vn 0.9511 -0.0000 0.3090
vn -0.9511 -0.0000 0.3090
vn 0.5878 -0.0000 -0.8090
vn -0.5878 -0.0000 -0.8090
vn -0.0000 0.8441 -0.5362
vn -0.0000 -0.8441 0.5362
vn -0.6879 0.4295 -0.5851
vn 0.6879 0.4295 -0.5851
vn 0.3954 -0.9185 -0.0000
vn -0.9273 0.3743 -0.0000
vn -0.0000 0.6578 -0.7531
vn -0.0000 0.1201 0.9928
vn 0.9273 0.3743 -0.0000
vn 0.9594 -0.2358 0.1546
vn -0.0000 -0.8363 0.5483
vn -0.9594 -0.2358 0.1546
vn 0.7782 0.6278 0.0164
vn -0.7530 0.6581 -0.0001
vn -0.5835 0.5768 0.5716
vn 0.5788 0.5836 0.5696
vn -0.7399 0.6727 -0.0001
vn -0.0000 0.5088 0.8609
vn 0.7529 0.6581 0.0019
vn -0.0000 1.0000 0.0056
vn -0.0000 0.9979 0.0640
vn -0.9735 -0.2287 -0.0000
vn 0.0477 0.9989 -0.0000
vn 0.9735 -0.2287 -0.0000
vn -0.0478 0.9989 -0.0000
vn 0.1890 -0.9643 0.1853
vn 0.0360 0.9988 -0.0330
vn -0.6659 -0.3614 0.6526
vn -0.0000 -0.2996 0.9541
vn -0.0000 0.9976 -0.0698
vn -0.0360 0.9988 -0.0330
vn 0.6659 -0.3614 0.6526
vn -0.3954 -0.9185 -0.0000
vn -0.1890 -0.9643 0.1853
vn 0.7530 0.6581 -0.0001
vn -0.7782 0.6278 0.0164
vn -0.5788 0.5836 0.5696
vn 0.5835 0.5768 0.5716
vn -0.7529 0.6581 0.0019
vn 0.7399 0.6727 -0.0001
vn 0.0723 0.9974 0.0028
vn -0.0723 0.9974 0.0028
vn 0.0441 0.9983 -0.0375
vn -0.0441 0.9983 -0.0375
vt 0.111432 0.079286
vt 0.292033 0.434037
vt 0.111433 0.434037
vt 0.424000 0.089984
vt 0.686981 0.278215
vt 0.424000 0.380457
vt 0.358963 0.660595
vt 0.397321 0.643444
vt 0.383494 0.672444
vt 0.345528 0.818162
vt 0.318306 0.845600
vt 0.318306 0.818162
vt 0.639923 0.517330
vt 0.650627 0.476481
vt 0.664454 0.505481
vt 0.626096 0.675560
vt 0.653534 0.643476
vt 0.653534 0.675560
vt 0.228671 0.843491
vt 0.267690 0.926121
vt 0.228671 0.925617
vt 0.845531 0.878523
vt 0.884549 0.960145
vt 0.845531 0.960649
vt 0.208136 0.845435
vt 0.208136 0.927560
vt 0.358963 0.798590
vt 0.398987 0.880655
vt 0.358963 0.880655
vt 0.884549 0.878019
vt 0.905085 0.962088
vt 0.884549 0.852690
vt 0.650627 0.619547
vt 0.626096 0.631396
vt 0.626096 0.922885
vt 0.653534 0.822787
vt 0.653534 0.922885
vt 0.372790 0.774661
vt 0.397321 0.786510
vt 0.653534 0.778493
vt 0.626096 0.778493
vt 0.626096 0.822787
vt 0.653534 0.790573
vt 0.317878 0.583184
vt 0.208136 0.618296
vt 0.320481 0.519363
vt 0.806994 0.553891
vt 0.919340 0.652824
vt 0.809598 0.617711
vt 0.794915 0.303065
vt 0.711182 0.464401
vt 0.712202 0.303065
vt 0.320481 0.806082
vt 0.210239 0.798396
vt 0.396278 0.092669
vt 0.396278 0.420655
vt 0.794915 0.876810
vt 0.681329 0.476481
vt 0.794915 0.522059
vt 0.806994 0.840610
vt 0.917236 0.832924
vt 0.267690 0.843995
vt 0.228671 0.818162
vt 0.269441 0.818324
vt 0.398987 0.933838
vt 0.358963 0.892734
vt 0.398987 0.892734
vt 0.905085 0.854633
vt 0.905085 0.879962
vt 0.344929 0.519363
vt 0.390819 0.555722
vt 0.339063 0.555722
vt 0.397321 0.596020
vt 0.364941 0.619515
vt 0.806994 0.852998
vt 0.843779 0.852852
vt 0.306226 0.818470
vt 0.193428 0.586906
vt 0.172625 0.519363
vt 0.193016 0.520749
vt 0.426628 0.544024
vt 0.447431 0.476481
vt 0.446557 0.543853
vt 0.833109 0.089979
vt 0.806994 0.024424
vt 0.827278 0.006040
vt 0.833109 0.457872
vt 0.806994 0.523427
vt 0.812329 0.449332
vt 0.424000 0.807634
vt 0.443142 0.807767
vt 0.812329 0.098519
vt 0.196056 0.850516
vt 0.173499 0.586735
vt 0.072261 0.506183
vt 0.006040 0.006040
vt 0.072261 0.007140
vt 0.103531 0.033708
vt 0.610436 0.760989
vt 0.614016 0.481227
vt 0.613024 0.558747
vt 0.336561 0.007160
vt 0.327049 0.033708
vt 0.009620 0.803871
vt 0.007032 0.601630
vt 0.336561 0.506163
vt 0.103531 0.479615
vt 0.327049 0.479615
vt 0.006040 0.524109
vt 0.509197 0.464401
vt 0.411921 0.081255
vt 0.614016 0.853838
vt 0.993960 0.419162
vt 0.411921 0.432069
vt 0.006040 0.896720
vt 0.176914 0.850649
vt 0.173358 0.943505
vt 0.794915 0.167376
vt 0.711182 0.006040
vt 0.788604 0.006040
vt 0.788604 0.464401
vt 0.509197 0.006040
vt 0.686981 0.192227
vt 0.712202 0.167376
vt 0.292033 0.079286
vt 0.372790 0.631595
vt 0.345528 0.845600
vt 0.626096 0.488330
vt 0.626096 0.643476
vt 0.398987 0.798590
vt 0.626096 0.790573
vt 0.681329 0.922388
vt 0.358963 0.933838
vt 0.208136 0.820105
vt 0.384953 0.519363
vt 0.332561 0.596020
vt 0.427040 0.477866
vt 0.827278 0.541811
vt 0.006040 0.507284
vt 0.446698 0.900623
vt 0.993960 0.128689
s 0
usemtl Porcelain
f 2/1/1 4/2/1 3/3/1
f 31/4/2 69/5/2 34/6/2
f 40/44/13 4/45/13 39/46/13
f 38/47/14 1/48/14 37/49/14
f 65/50/15 6/51/15 68/52/15
f 4/45/16 36/53/16 3/54/16
f 4/2/17 38/55/17 39/56/17
f 3/57/18 35/58/18 2/59/18
f 35/60/19 1/48/19 2/61/19
f 50/78/23 55/79/23 54/80/23
f 49/81/24 52/82/24 48/83/24
f 58/84/25 56/85/25 57/86/25
f 61/87/26 63/88/26 60/89/26
f 56/90/27 48/83/27 57/91/27
f 61/87/28 59/92/28 58/84/28
f 63/93/29 51/94/29 50/78/29
f 50/95/30 53/96/30 49/97/30
f 35/98/31 50/95/31 49/97/31
f 48/83/32 32/99/32 57/91/32
f 48/83/32 7/100/32 5/101/32
f 35/98/33 56/102/33 37/103/33
f 51/94/34 33/104/34 6/105/34
f 63/106/35 36/107/35 40/108/35
f 51/94/34 8/109/34 55/79/34
f 33/110/36 69/5/36 68/52/36
f 59/111/37 37/103/37 56/102/37
f 31/112/38 57/91/38 32/99/38
f 58/84/39 34/113/39 61/87/39
f 39/56/40 59/111/40 60/114/40
f 40/108/41 60/114/41 63/106/41
f 34/115/42 62/116/42 61/117/42
f 64/118/43 5/119/43 7/120/43
f 65/50/15 8/121/15 6/51/15
f 32/122/44 66/123/44 31/4/44
f 64/118/43 67/124/43 5/119/43
f 32/122/43 5/119/43 67/124/43
f 33/110/15 68/52/15 6/51/15
f 66/123/6 64/118/6 68/52/6
f 2/1/1 1/125/1 4/2/1
f 31/4/2 66/123/2 69/5/2
f 4/45/16 40/44/16 36/53/16
f 4/2/17 1/125/17 38/55/17
f 3/57/18 36/132/18 35/58/18
f 35/60/19 37/49/19 1/48/19
f 50/78/45 51/94/45 55/79/45
f 49/81/46 53/137/46 52/82/46
f 58/84/47 59/92/47 56/85/47
f 61/87/48 62/138/48 63/88/48
f 56/90/49 49/81/49 48/83/49
f 61/87/28 60/89/28 59/92/28
f 63/93/50 62/116/50 51/94/50
f 50/95/30 54/139/30 53/96/30
f 35/98/31 36/107/31 50/95/31
f 48/83/32 5/101/32 32/99/32
f 48/83/32 52/82/32 7/100/32
f 35/98/51 49/97/51 56/102/51
f 51/94/34 62/116/34 33/104/34
f 63/106/52 50/95/52 36/107/52
f 51/94/34 6/105/34 8/109/34
f 33/110/36 34/6/36 69/5/36
f 59/111/53 38/55/53 37/103/53
f 31/112/38 58/140/38 57/91/38
f 58/84/39 31/141/39 34/113/39
f 39/56/40 38/55/40 59/111/40
f 40/108/54 39/56/54 60/114/54
f 34/115/42 33/104/42 62/116/42
f 32/122/44 67/124/44 66/123/44
f 68/52/6 69/5/6 66/123/6
f 66/123/6 67/124/6 64/118/6
f 64/118/6 65/50/6 68/52/6
usemtl Metal
f 28/7/3 10/8/3 30/9/3
f 9/10/4 12/11/4 11/12/4
f 29/13/5 11/14/5 27/15/5
f 30/16/6 9/17/6 29/18/6
f 22/19/7 16/20/7 17/21/7
f 20/22/8 14/23/8 15/24/8
f 18/25/9 17/21/9 13/26/9
f 21/27/4 15/28/4 16/29/4
f 19/30/10 13/31/10 14/23/10
f 20/22/8 45/32/8 19/30/8
f 29/13/5 23/33/5 25/34/5
f 23/35/11 28/36/11 24/37/11
f 24/38/3 30/9/3 26/39/3
f 30/16/12 25/40/12 26/41/12
f 27/42/1 12/43/1 28/36/1
f 21/62/20 41/63/20 46/64/20
f 20/65/21 42/66/21 43/67/21
f 18/25/9 41/63/9 22/19/9
f 19/30/10 44/68/10 18/69/10
f 43/70/1 46/71/1 47/72/1
f 47/72/1 41/73/1 44/74/1
f 43/75/22 47/76/22 20/22/22
f 42/77/20 21/62/20 46/64/20
f 28/7/3 12/126/3 10/8/3
f 9/10/4 10/127/4 12/11/4
f 29/13/5 9/128/5 11/14/5
f 30/16/6 10/129/6 9/17/6
f 22/19/7 21/62/7 16/20/7
f 20/22/8 19/30/8 14/23/8
f 18/25/9 22/19/9 17/21/9
f 21/27/4 20/130/4 15/28/4
f 19/30/10 18/69/10 13/31/10
f 20/22/22 47/76/22 45/32/22
f 29/13/5 27/15/5 23/33/5
f 23/35/11 27/42/11 28/36/11
f 24/38/3 28/7/3 30/9/3
f 30/16/12 29/18/12 25/40/12
f 27/42/1 11/131/1 12/43/1
f 21/62/7 22/19/7 41/63/7
f 20/65/21 21/133/21 42/66/21
f 18/25/9 44/134/9 41/63/9
f 19/30/10 45/32/10 44/68/10
f 43/70/1 42/135/1 46/71/1
f 44/74/1 45/136/1 47/72/1
f 47/72/1 46/71/1 41/73/1
