# Blender 5.1.1
# www.blender.org
mtllib Calendar.mtl
o Calendar
v -0.090000 -0.100000 0.000000
v 0.090000 -0.100000 0.000000
v -0.090000 0.100000 -0.000000
v 0.090000 0.100000 -0.000000
v -0.090000 0.070000 -0.000000
v 0.090000 0.070000 -0.000000
v -0.090000 0.070000 0.003983
v -0.090000 -0.100000 0.003983
v 0.090000 -0.100000 0.003983
v 0.090000 0.070000 0.003983
vn -0.0000 -0.0000 1.0000
vn -0.0000 1.0000 -0.0000
vn -1.0000 -0.0000 -0.0000
vn 1.0000 -0.0000 -0.0000
vn -0.0000 -1.0000 -0.0000
vt 1.000159 0.820846
vt 0.065023 0.961116
vt 0.065023 0.820845
vt 0.023264 0.270270
vt 0.008464 0.000000
vt 0.023264 0.000000
vt 1.000159 0.000000
vt 0.065023 0.794865
vt 0.065023 0.000000
vt 0.023264 0.500000
vt 0.008464 0.270270
vt 0.023264 1.000000
vt 0.008464 0.770270
vt 0.023264 0.770270
vt 0.008464 0.500000
vt 1.000159 0.961116
vt 1.000159 0.794865
vt 0.008464 1.000000
s 0
usemtl Calendar
f 6/1/1 3/2/1 5/3/1
f 5/4/2 10/5/2 6/6/2
f 9/7/1 7/8/1 8/9/1
f 1/10/3 7/11/3 5/4/3
f 6/12/4 9/13/4 2/14/4
f 2/14/5 8/15/5 1/10/5
f 6/1/1 4/16/1 3/2/1
f 5/4/2 7/11/2 10/5/2
f 9/7/1 10/17/1 7/8/1
f 1/10/3 8/15/3 7/11/3
f 6/12/4 10/18/4 9/13/4
f 2/14/5 9/13/5 8/15/5
