# Blender 5.0.1
# www.blender.org
mtllib WallBookShelf.mtl
o WallBookShelf
v -0.400000 0.000000 0.075000
v 0.400000 0.000000 0.075000
v -0.400000 0.000000 -0.075000
v 0.400000 0.000000 -0.075000
v -0.400000 0.020000 -0.075000
v -0.400000 0.020000 0.075000
v 0.400000 0.020000 0.075000
v 0.400000 0.020000 -0.075000
v 0.370021 0.018071 0.070000
v 0.370021 0.058072 0.070000
v 0.370021 0.018071 -0.070000
v 0.370021 0.158072 -0.070000
v 0.390021 0.018071 0.070000
v 0.390021 0.058072 0.070000
v 0.390021 0.018071 -0.070000
v 0.390021 0.158072 -0.070000
v -0.390041 0.018071 0.070000
v -0.390041 0.058072 0.070000
v -0.390041 0.018071 -0.070000
v -0.390041 0.158072 -0.070000
v -0.370041 0.018071 0.070000
v -0.370041 0.058072 0.070000
v -0.370041 0.018071 -0.070000
v -0.370041 0.158072 -0.070000
vn -0.0000 -1.0000 -0.0000
vn -0.0000 1.0000 -0.0000
vn -0.0000 -0.0000 -1.0000
vn -0.0000 -0.0000 1.0000
vn 1.0000 -0.0000 -0.0000
vn -1.0000 -0.0000 -0.0000
vn -0.0000 0.8137 0.5812
vt 0.000000 0.000000
vt 1.000000 0.187500
vt 0.000000 0.187500
vt 1.000000 0.250000
vt 0.000000 0.437500
vt 0.000000 0.250000
vt 0.000000 0.500000
vt 1.000000 0.437500
vt 1.000000 0.500000
vt 0.625000 0.750000
vt 0.562500 0.562500
vt 0.625000 0.562500
vt 0.375000 0.562500
vt 0.437500 0.750000
vt 0.375000 0.750000
vt 0.625000 0.812500
vt 0.937500 0.937500
vt 0.625000 0.937500
vt 0.437500 0.937500
vt 0.062500 1.000000
vt 0.062500 0.937500
vt 0.375000 0.812500
vt 0.375000 0.937500
vt 0.812500 1.000000
vt 0.812500 0.937500
vt 0.437500 1.000000
vt 1.000000 0.000000
vt 0.562500 0.750000
vt 0.437500 0.562500
vt 0.937500 0.562500
vt 0.062500 0.562500
vt 0.937500 1.000000
s 0
usemtl WallBookShelf
f 3/1/1 2/2/1 1/3/1
f 7/4/2 5/5/2 6/6/2
f 3/7/3 8/8/3 4/9/3
f 2/2/4 6/6/4 1/3/4
f 4/10/5 7/11/5 2/12/5
f 1/13/6 5/14/6 3/15/6
f 10/16/6 11/17/6 9/18/6
f 12/19/3 15/20/3 11/21/3
f 15/21/5 14/22/5 13/23/5
f 14/17/4 9/24/4 13/25/4
f 12/19/7 14/24/7 16/26/7
f 18/16/6 19/17/6 17/18/6
f 20/19/3 23/20/3 19/21/3
f 23/21/5 22/22/5 21/23/5
f 22/17/4 17/24/4 21/25/4
f 20/19/7 22/24/7 24/26/7
f 3/1/1 4/27/1 2/2/1
f 7/4/2 8/8/2 5/5/2
f 3/7/3 5/5/3 8/8/3
f 2/2/4 7/4/4 6/6/4
f 4/10/5 8/28/5 7/11/5
f 1/13/6 6/29/6 5/14/6
f 10/16/6 12/30/6 11/17/6
f 12/19/3 16/26/3 15/20/3
f 15/21/5 16/31/5 14/22/5
f 14/17/4 10/32/4 9/24/4
f 12/19/7 10/25/7 14/24/7
f 18/16/6 20/30/6 19/17/6
f 20/19/3 24/26/3 23/20/3
f 23/21/5 24/31/5 22/22/5
f 22/17/4 18/32/4 17/24/4
f 20/19/7 18/25/7 22/24/7
