# Blender 5.0.1
# www.blender.org
mtllib Book04.mtl
o Book04
v -0.151893 0.000000 0.081010
v -0.151893 0.000000 0.081010
v -0.151893 0.000000 0.081010
v -0.151893 0.020252 0.081010
v -0.151893 0.020252 0.081010
v -0.151893 0.020252 0.081010
v -0.151893 0.000000 -0.081010
v -0.151893 0.000000 -0.081010
v -0.151893 0.000000 -0.081010
v -0.151893 0.020252 -0.081010
v -0.151893 0.020252 -0.081010
v -0.151893 0.020252 -0.081010
v 0.151893 0.000000 0.081010
v 0.151893 0.000000 0.081010
v 0.151893 0.000000 0.081010
v 0.151893 0.020252 0.081010
v 0.151893 0.020252 0.081010
v 0.151893 0.020252 0.081010
v 0.151893 0.000000 -0.081010
v 0.151893 0.000000 -0.081010
v 0.151893 0.000000 -0.081010
v 0.151893 0.020252 -0.081010
v 0.151893 0.020252 -0.081010
v 0.151893 0.020252 -0.081010
v 0.000000 0.000000 -0.081010
v 0.000000 0.000000 -0.081010
v 0.000000 0.025315 -0.081010
v 0.000000 0.025315 -0.081010
v 0.000000 0.025315 -0.081010
v 0.000000 0.000000 0.081010
v 0.000000 0.000000 0.081010
v 0.000000 0.025315 0.081010
v 0.000000 0.025315 0.081010
v 0.000000 0.025315 0.081010
v 0.054681 0.035442 -0.081010
v 0.054681 0.035442 -0.081010
v 0.054681 0.035442 -0.081010
v 0.054681 0.000000 0.081010
v 0.054681 0.000000 0.081010
v 0.054681 0.000000 -0.081010
v 0.054681 0.000000 -0.081010
v 0.054681 0.035442 0.081010
v 0.054681 0.035442 0.081010
v 0.054681 0.035442 0.081010
v -0.054681 0.000000 -0.081010
v -0.054681 0.000000 -0.081010
v -0.054681 0.035442 0.081010
v -0.054681 0.035442 0.081010
v -0.054681 0.035442 0.081010
v -0.054681 0.035442 -0.081010
v -0.054681 0.035442 -0.081010
v -0.054681 0.035442 -0.081010
v -0.054681 0.000000 0.081010
v -0.054681 0.000000 0.081010
vn -1.0000 -0.0000 -0.0000
vn -0.0000 -0.0000 -1.0000
vn 1.0000 -0.0000 -0.0000
vn -0.0000 -0.0000 1.0000
vn -0.0000 -1.0000 -0.0000
vn -0.1544 0.9880 -0.0000
vn -0.1821 0.9833 -0.0000
vn 0.1544 0.9880 -0.0000
vn 0.1821 0.9833 -0.0000
vt 0.000000 0.562500
vt 0.093750 0.562500
vt 0.093750 1.000000
vt 0.000000 1.000000
vt 0.656250 0.437500
vt 0.656250 0.562500
vt 0.906250 0.531250
vt 0.906250 0.437500
vt 0.906250 0.562500
vt 1.000000 0.562500
vt 1.000000 1.000000
vt 0.906250 1.000000
vt 0.343750 0.437500
vt 0.343750 0.562500
vt 0.093750 0.531250
vt 0.093750 0.437500
vt 0.906250 0.000000
vt 0.656250 0.000000
vt 0.343750 1.000000
vt 0.656250 1.000000
vt 0.500000 1.000000
vt 0.500000 0.562500
vt 0.500000 0.437500
vt 0.500000 0.000000
vt 0.343750 0.000000
vt 0.500000 0.531250
vt 0.093750 0.000000
s 0
usemtl Book04
f 3/1/1 6/2/1 12/3/1
f 3/1/1 12/3/1 9/4/1
f 40/5/2 35/6/2 22/7/2
f 40/5/2 22/7/2 19/8/2
f 21/9/3 24/10/3 18/11/3
f 21/9/3 18/11/3 15/12/3
f 53/13/4 47/14/4 4/15/4
f 53/13/4 4/15/4 1/16/4
f 41/5/5 20/8/5 14/17/5
f 41/5/5 14/17/5 39/18/5
f 52/19/6 11/3/6 5/2/6
s 1
f 52/19/6 5/2/6 49/14/6
s 0
f 37/20/7 29/21/7 34/22/7
f 37/20/7 34/22/7 44/6/7
f 46/13/5 26/23/5 31/24/5
f 46/13/5 31/24/5 54/25/5
f 38/5/4 42/6/4 32/26/4
f 38/5/4 32/26/4 30/23/4
f 45/13/2 50/14/2 27/26/2
f 45/13/2 27/26/2 25/23/2
f 13/8/4 16/7/4 42/6/4
f 13/8/4 42/6/4 38/5/4
f 23/12/8 36/20/8 43/6/8
f 23/12/8 43/6/8 17/9/8
f 26/23/5 41/5/5 39/18/5
f 26/23/5 39/18/5 31/24/5
f 25/23/2 27/26/2 35/6/2
f 25/23/2 35/6/2 40/5/2
f 7/16/2 10/15/2 50/14/2
f 7/16/2 50/14/2 45/13/2
f 8/16/5 46/13/5 54/25/5
f 8/16/5 54/25/5 2/27/5
f 28/21/9 51/19/9 48/14/9
f 28/21/9 48/14/9 33/22/9
f 30/23/4 32/26/4 47/14/4
f 30/23/4 47/14/4 53/13/4
