# Blender 5.1.1
# www.blender.org
mtllib WallClock.mtl
o WallClock
v 0.000000 0.150000 -0.000000
v -0.106066 0.106066 -0.000000
v -0.150000 0.000000 0.000000
v -0.106066 -0.106066 0.000000
v 0.000000 -0.150000 0.000000
v 0.106066 -0.106066 0.000000
v 0.150000 0.000000 0.000000
v 0.106066 0.106066 -0.000000
v -0.096115 0.096115 0.014098
v 0.000000 0.135927 0.014098
v -0.135927 0.000000 0.014098
v -0.096115 -0.096115 0.014099
v 0.000000 -0.135927 0.014099
v 0.096115 -0.096115 0.014099
v 0.135927 0.000000 0.014098
v 0.096115 0.096115 0.014098
v -0.106066 0.106066 0.014098
v 0.000000 0.150000 0.014098
v -0.150000 0.000000 0.014098
v -0.106066 -0.106066 0.014099
v 0.000000 -0.150000 0.014099
v 0.106066 -0.106066 0.014099
v 0.150000 0.000000 0.014098
v 0.106066 0.106066 0.014098
v -0.096115 0.096115 0.005625
v -0.000000 0.135927 0.005625
v -0.135927 0.000000 0.005625
v -0.096115 -0.096115 0.005625
v -0.000000 -0.135927 0.005625
v 0.096115 -0.096115 0.005625
v 0.135927 0.000000 0.005625
v 0.096115 0.096115 0.005625
vn -0.9239 0.3827 -0.0000
vn 0.3827 0.9239 -0.0000
vn 0.9239 -0.3827 -0.0000
vn -0.3827 -0.9239 -0.0000
vn 0.9239 0.3827 -0.0000
vn 0.3827 -0.9239 -0.0000
vn -0.9239 -0.3827 -0.0000
vn -0.3827 0.9239 -0.0000
vn -0.0000 -0.0000 1.0000
vt 0.565895 0.226545
vt 0.575121 0.339818
vt 0.565895 0.339818
vt 0.013972 1.000000
vt 0.001378 0.875000
vt 0.013972 0.875000
vt 0.013972 0.750000
vt 0.001378 0.625000
vt 0.013972 0.625000
vt 0.013972 0.500000
vt 0.001378 0.375000
vt 0.013972 0.375000
vt 0.013972 0.250000
vt 0.001378 0.125000
vt 0.013972 0.125000
vt 0.001378 0.750000
vt 0.001378 0.500000
vt 0.001378 0.250000
vt 0.001378 0.000000
vt 0.013972 0.000000
vt 0.145128 0.323336
vt 0.249793 0.381978
vt 0.134296 0.334173
vt 0.086430 0.218701
vt 0.101752 0.218697
vt 0.145073 0.114035
vt 0.134235 0.103203
vt 0.249707 0.055337
vt 0.249711 0.070660
vt 0.354373 0.113980
vt 0.365205 0.103142
vt 0.413071 0.218615
vt 0.397749 0.218619
vt 0.354429 0.323280
vt 0.365266 0.334112
vt 0.249794 0.381978
vt 0.249790 0.366656
vt 0.480643 0.011180
vt 0.957785 0.480067
vt 0.488899 0.957209
vt 0.565895 0.453091
vt 0.575121 0.566364
vt 0.565895 0.566364
vt 0.565895 0.679636
vt 0.575121 0.792909
vt 0.565895 0.792909
vt 0.565895 0.113273
vt 0.575121 0.226545
vt 0.575121 0.453091
vt 0.575121 0.679636
vt 0.575121 0.906182
vt 0.565895 0.906182
vt 0.565895 -0.000000
vt 0.575121 0.113273
vt 0.001378 1.000000
vt 0.249789 0.366656
vt 0.153217 0.821585
vt 0.011756 0.488322
vt 0.147380 0.152641
vt 0.816324 0.146804
vt 0.822162 0.815748
vt 0.575121 -0.000000
s 0
usemtl 64x64grid
f 15/1/1 30/2/1 14/3/1
f 1/4/2 24/5/2 8/6/2
f 7/7/3 22/8/3 6/9/3
f 5/10/4 20/11/4 4/12/4
f 3/13/1 17/14/1 2/15/1
f 8/6/5 23/16/5 7/7/5
f 6/9/6 21/17/6 5/10/6
f 4/12/7 19/18/7 3/13/7
f 2/15/8 18/19/8 1/20/8
f 9/21/9 18/22/9 17/23/9
f 9/21/9 19/24/9 11/25/9
f 12/26/9 19/24/9 20/27/9
f 12/26/9 21/28/9 13/29/9
f 14/30/9 21/28/9 22/31/9
f 14/30/9 23/32/9 15/33/9
f 16/34/9 23/32/9 24/35/9
f 16/34/9 18/36/9 10/37/9
f 13/41/2 28/42/2 12/43/2
f 11/44/3 25/45/3 9/46/3
f 16/47/7 31/48/7 15/1/7
f 14/3/8 29/49/8 13/41/8
f 12/43/5 27/50/5 11/44/5
f 9/46/6 26/51/6 10/52/6
f 10/53/4 32/54/4 16/47/4
f 15/1/1 31/48/1 30/2/1
f 1/4/2 18/55/2 24/5/2
f 7/7/3 23/16/3 22/8/3
f 5/10/4 21/17/4 20/11/4
f 3/13/1 19/18/1 17/14/1
f 8/6/5 24/5/5 23/16/5
f 6/9/6 22/8/6 21/17/6
f 4/12/7 20/11/7 19/18/7
f 2/15/8 17/14/8 18/19/8
f 9/21/9 10/56/9 18/22/9
f 9/21/9 17/23/9 19/24/9
f 12/26/9 11/25/9 19/24/9
f 12/26/9 20/27/9 21/28/9
f 14/30/9 13/29/9 21/28/9
f 14/30/9 22/31/9 23/32/9
f 16/34/9 15/33/9 23/32/9
f 16/34/9 24/35/9 18/36/9
f 13/41/2 29/49/2 28/42/2
f 11/44/3 27/50/3 25/45/3
f 16/47/7 32/54/7 31/48/7
f 14/3/8 30/2/8 29/49/8
f 12/43/5 28/42/5 27/50/5
f 9/46/6 25/45/6 26/51/6
f 10/53/4 26/62/4 32/54/4
usemtl WallClock
f 29/38/9 31/39/9 26/40/9
f 26/40/9 25/57/9 27/58/9
f 27/58/9 28/59/9 29/38/9
f 29/38/9 30/60/9 31/39/9
f 31/39/9 32/61/9 26/40/9
f 26/40/9 27/58/9 29/38/9
