# Blender 5.0.1
# www.blender.org
mtllib FlatDeskLamp.mtl
o FlatDeskLamp
v 0.000000 -0.007500 -0.050000
v 0.000000 0.007500 -0.050000
v 0.035355 -0.007500 -0.035355
v 0.035355 0.007500 -0.035355
v 0.050000 -0.007500 0.000000
v 0.050000 0.007500 0.000000
v 0.035355 -0.007500 0.035355
v 0.035355 0.007500 0.035355
v 0.000000 -0.007500 0.050000
v 0.000000 0.007500 0.050000
v -0.035355 -0.007500 0.035355
v -0.035355 0.007500 0.035355
v -0.050000 -0.007500 0.000000
v -0.050000 0.007500 0.000000
v -0.035355 -0.007500 -0.035355
v -0.035355 0.007500 -0.035355
v 0.000000 0.235538 0.046856
v 0.000000 0.248833 0.044512
v 0.031820 0.237827 0.059836
v 0.031820 0.251122 0.057491
v 0.045000 0.243353 0.091172
v 0.045000 0.256647 0.088828
v 0.031820 0.248878 0.122509
v 0.031820 0.262173 0.120164
v 0.000000 0.251167 0.135488
v 0.000000 0.264462 0.133144
v -0.031820 0.248878 0.122509
v -0.031820 0.262173 0.120164
v -0.045000 0.243353 0.091172
v -0.045000 0.256647 0.088828
v -0.031820 0.237827 0.059836
v -0.031820 0.251122 0.057491
v 0.028000 0.247808 0.065452
v 0.028000 0.007002 -0.034506
v -0.028000 0.007002 -0.034506
v -0.028000 0.247808 0.065452
v -0.023245 0.005677 -0.031315
v -0.023245 0.246484 0.068643
v -0.025061 0.003534 -0.026152
v -0.025061 0.244341 0.073806
v -0.030939 0.003534 -0.026152
v -0.030939 0.244341 0.073806
v -0.032755 0.005677 -0.031315
v -0.032755 0.246484 0.068643
v 0.032755 0.005677 -0.031315
v 0.032755 0.246484 0.068643
v 0.030939 0.003534 -0.026152
v 0.030939 0.244341 0.073806
v 0.025061 0.003534 -0.026152
v 0.025061 0.244341 0.073806
v 0.023245 0.005677 -0.031315
v 0.023245 0.246484 0.068643
vn 0.3827 -0.0000 -0.9239
vn 0.9239 -0.0000 -0.3827
vn 0.9239 -0.0000 0.3827
vn 0.3827 -0.0000 0.9239
vn -0.3827 -0.0000 0.9239
vn -0.9239 -0.0000 0.3827
vn -0.0000 1.0000 -0.0000
vn -0.9239 -0.0000 -0.3827
vn -0.3827 -0.0000 -0.9239
vn -0.0000 -1.0000 -0.0000
vn 0.3827 -0.1604 -0.9098
vn 0.9239 -0.0665 -0.3769
vn 0.9239 0.0665 0.3769
vn 0.3827 0.1604 0.9098
vn -0.3827 0.1604 0.9098
vn -0.9239 0.0665 0.3769
vn -0.0000 0.9848 -0.1736
vn -0.9239 -0.0665 -0.3769
vn -0.3827 -0.1604 -0.9098
vn -0.0000 -0.9848 0.1736
vn 0.5878 0.3102 -0.7472
vn -0.0000 -0.3834 0.9236
vn 0.9511 -0.1185 0.2854
vn -0.5878 0.3102 -0.7472
vn -0.9511 -0.1185 0.2854
vt 0.500000 0.625000
vt 0.437500 0.562500
vt 0.500000 0.562500
vt 0.437500 0.625000
vt 0.375000 0.562500
vt 0.375000 0.625000
vt 0.312500 0.562500
vt 0.312500 0.625000
vt 0.250000 0.562500
vt 0.250000 0.625000
vt 0.187500 0.562500
vt 0.187500 0.625000
vt 0.125000 0.562500
vt 0.010000 0.250000
vt 0.250000 0.010000
vt 0.490000 0.250000
vt 0.125000 0.625000
vt 0.062500 0.562500
vt 0.062500 0.625000
vt -0.000000 0.562500
vt 0.919706 0.080294
vt 0.580294 0.080294
vt 0.580294 0.419706
vt 1.000000 0.562500
vt 0.937500 0.625000
vt 0.937500 0.562500
vt 0.875000 0.562500
vt 0.875000 0.625000
vt 0.812500 0.562500
vt 0.750000 0.625000
vt 0.750000 0.562500
vt 0.687500 0.562500
vt 0.687500 0.625000
vt 0.625000 0.562500
vt 0.562500 0.625000
vt 0.562500 0.562500
vt 1.000000 0.687500
vt -0.000000 0.750000
vt -0.000000 0.687500
vt 1.000000 0.812500
vt -0.000000 0.875000
vt -0.000000 0.812500
vt 1.000000 0.750000
vt 1.000000 0.937500
vt -0.000000 1.000000
vt -0.000000 0.937500
vt 1.000000 0.875000
vt 0.419706 0.419706
vt 0.250000 0.490000
vt 0.080294 0.419706
vt 0.080294 0.080294
vt 0.419706 0.080294
vt -0.000000 0.625000
vt 0.750000 0.490000
vt 0.919706 0.419706
vt 0.990000 0.250000
vt 0.750000 0.010000
vt 0.510000 0.250000
vt 1.000000 0.625000
vt 0.812500 0.625000
vt 0.625000 0.625000
vt 1.000000 1.000000
s 0
usemtl FlatDeskLamp
f 2/1/1 3/2/1 1/3/1
f 4/4/2 5/5/2 3/2/2
f 6/6/3 7/7/3 5/5/3
f 8/8/4 9/9/4 7/7/4
f 10/10/5 11/11/5 9/9/5
f 12/12/6 13/13/6 11/11/6
f 14/14/7 10/15/7 6/16/7
f 14/17/8 15/18/8 13/13/8
f 16/19/9 1/20/9 15/18/9
f 7/21/10 11/22/10 15/23/10
f 17/24/11 20/25/11 19/26/11
f 20/25/12 21/27/12 19/26/12
f 22/28/13 23/29/13 21/27/13
f 23/29/14 26/30/14 25/31/14
f 26/30/15 27/32/15 25/31/15
f 28/33/16 29/34/16 27/32/16
f 30/14/17 26/15/17 22/16/17
f 29/34/18 32/35/18 31/36/18
f 32/35/19 17/3/19 31/36/19
f 23/21/20 27/22/20 31/23/20
f 36/37/21 37/38/21 35/39/21
f 48/40/22 49/41/22 47/42/22
f 38/43/23 39/42/23 37/38/23
f 52/44/24 34/45/24 51/46/24
f 46/43/23 47/42/23 45/38/23
f 40/40/22 41/41/22 39/42/22
f 33/37/21 45/38/21 34/39/21
f 42/47/25 43/46/25 41/41/25
f 50/47/25 51/46/25 49/41/25
f 44/44/24 35/45/24 43/46/24
f 2/1/1 4/4/1 3/2/1
f 4/4/2 6/6/2 5/5/2
f 6/6/3 8/8/3 7/7/3
f 8/8/4 10/10/4 9/9/4
f 10/10/5 12/12/5 11/11/5
f 12/12/6 14/17/6 13/13/6
f 6/16/7 4/48/7 2/49/7
f 2/49/7 16/50/7 14/14/7
f 14/14/7 12/51/7 10/15/7
f 10/15/7 8/52/7 6/16/7
f 6/16/7 2/49/7 14/14/7
f 14/17/8 16/19/8 15/18/8
f 16/19/9 2/53/9 1/20/9
f 15/23/10 1/54/10 3/55/10
f 3/55/10 5/56/10 7/21/10
f 7/21/10 9/57/10 11/22/10
f 11/22/10 13/58/10 15/23/10
f 15/23/10 3/55/10 7/21/10
f 17/24/11 18/59/11 20/25/11
f 20/25/12 22/28/12 21/27/12
f 22/28/13 24/60/13 23/29/13
f 23/29/14 24/60/14 26/30/14
f 26/30/15 28/33/15 27/32/15
f 28/33/16 30/61/16 29/34/16
f 22/16/17 20/48/17 18/49/17
f 18/49/17 32/50/17 30/14/17
f 30/14/17 28/51/17 26/15/17
f 26/15/17 24/52/17 22/16/17
f 22/16/17 18/49/17 30/14/17
f 29/34/18 30/61/18 32/35/18
f 32/35/19 18/1/19 17/3/19
f 31/23/20 17/54/20 19/55/20
f 19/55/20 21/56/20 23/21/20
f 23/21/20 25/57/20 27/22/20
f 27/22/20 29/58/20 31/23/20
f 31/23/20 19/55/20 23/21/20
f 36/37/21 38/43/21 37/38/21
f 48/40/22 50/47/22 49/41/22
f 38/43/23 40/40/23 39/42/23
f 52/44/24 33/62/24 34/45/24
f 46/43/23 48/40/23 47/42/23
f 40/40/22 42/47/22 41/41/22
f 33/37/21 46/43/21 45/38/21
f 42/47/25 44/44/25 43/46/25
f 50/47/25 52/44/25 51/46/25
f 44/44/24 36/62/24 35/45/24
