# Blender 5.0.1
# www.blender.org
mtllib PlasticSpoon.mtl
o PlasticSpoon
v -0.006046 0.000511 -0.074837
v -0.006046 0.005506 -0.075056
v 0.006046 0.000511 -0.074837
v 0.006046 0.005506 -0.075056
v -0.006046 0.005161 0.020907
v -0.010348 -0.000743 0.037087
v -0.010348 0.004106 0.036831
v -0.006046 0.010156 0.020688
v 0.010348 -0.000743 0.037087
v 0.006046 0.005161 0.020907
v 0.006046 0.010156 0.020688
v 0.010348 0.004106 0.036831
v -0.002933 0.004455 0.071934
v -0.010348 0.003287 0.064553
v -0.010348 0.007950 0.063172
v -0.002933 0.009116 0.070553
v 0.010348 0.003287 0.064553
v 0.002933 0.004455 0.071934
v 0.002933 0.009116 0.070553
v 0.010348 0.007950 0.063172
v -0.014125 0.008216 0.035876
v 0.014125 0.008216 0.035876
v 0.014125 0.003223 0.036140
v -0.014125 0.003223 0.036140
v -0.014125 0.007927 0.065857
v -0.004506 0.009442 0.075432
v -0.004506 0.012743 0.074123
v -0.014125 0.011899 0.064512
v 0.014125 0.011899 0.064512
v 0.004506 0.012743 0.074123
v 0.004506 0.009442 0.075432
v 0.014125 0.007927 0.065857
v 0.000000 0.004106 0.036831
v 0.000000 -0.000743 0.037087
v 0.000000 0.010156 0.020688
v 0.000000 0.005161 0.020907
vn -0.0000 -0.0438 -0.9990
vn -0.0000 -0.9988 0.0485
vn 1.0000 -0.0000 -0.0000
vn -1.0000 -0.0000 -0.0000
vn 0.8819 -0.0249 -0.4709
vn -0.8819 -0.0249 -0.4709
vn -0.0000 0.9988 -0.0485
vn -0.7012 0.2628 0.6628
vn 0.6979 0.2297 0.6783
vn -0.0000 0.3686 0.9296
vn -0.0053 -0.9891 0.1471
vn -0.0054 0.9892 -0.1465
vn -0.5182 -0.5946 0.6147
vn 0.4610 0.7160 -0.5243
vn -0.4783 0.6558 -0.5841
vn 0.5182 -0.5946 0.6147
vn -0.7323 -0.6738 0.0989
vn 0.7041 0.7043 -0.0906
vn -0.0000 -0.5742 0.8187
vn -0.0000 0.7015 -0.7127
vn 0.7572 -0.6451 0.1021
vn -0.7440 0.6612 -0.0965
vn -0.6097 -0.6785 -0.4097
vn 0.6097 -0.6785 -0.4097
vn -0.0000 -0.9394 -0.3427
vn 0.6199 0.6660 0.4148
vn -0.6199 0.6660 0.4148
vn -0.0000 0.9364 0.3509
vn 0.8816 -0.0207 -0.4716
vn -0.8816 -0.0207 -0.4716
vn -0.6979 0.2297 0.6783
vn 0.7012 0.2628 0.6628
vn -0.0000 -0.9894 0.1452
vn -0.0000 -0.9877 0.1563
vn 0.0083 -0.9889 0.1482
vn -0.0000 0.9895 -0.1444
vn -0.0000 0.9877 -0.1560
vn 0.0085 0.9890 -0.1477
vn 0.4783 0.6558 -0.5841
vn -0.4610 0.7160 -0.5243
vn -0.7572 -0.6451 0.1021
vn 0.7440 0.6612 -0.0965
vn 0.7323 -0.6738 0.0989
vn -0.7042 0.7043 -0.0906
vt 0.062500 0.062500
vt 0.078125 0.031250
vt 0.078125 0.062500
vt 0.107132 0.219400
vt 0.093929 0.219400
vt 0.080726 0.000300
vt 0.171875 -0.000000
vt 0.156250 0.218750
vt 0.156250 -0.000000
vt 0.140625 -0.000000
vt 0.171875 0.250000
vt 0.156250 0.250000
vt 0.140625 0.250000
vt 0.044480 0.220693
vt 0.031188 0.220693
vt 0.017896 0.000301
vt 0.140625 0.343750
vt 0.156250 0.312500
vt 0.156250 0.343750
vt 0.171875 0.343750
vt 0.171875 0.312500
vt 0.140625 0.312500
vt 0.078125 0.000000
vt 0.062500 0.031250
vt 0.062500 0.000000
vt 0.093929 0.258380
vt 0.116528 0.320447
vt 0.087524 0.337102
vt 0.031188 0.259933
vt 0.053939 0.319787
vt 0.024740 0.336533
vt 0.063082 0.322096
vt 0.071329 0.320447
vt 0.037636 0.336533
vt 0.062242 0.321691
vt 0.041094 0.343699
vt 0.000134 0.321691
vt 0.008437 0.319787
vt 0.100334 0.337102
vt 0.124776 0.322096
vt 0.103769 0.343700
vt 0.063082 0.255042
vt 0.071329 0.258380
vt 0.062242 0.256470
vt 0.084088 0.343700
vt 0.021282 0.343699
vt 0.124776 0.255042
vt 0.000134 0.256470
vt 0.008437 0.259933
vt 0.080726 0.219400
vt 0.116528 0.258380
vt 0.053939 0.259933
vt 0.017896 0.220693
vt 0.107132 0.000300
vt 0.171875 0.218750
vt 0.140625 0.218750
vt 0.044480 0.000301
s 0
usemtl 64x64grid
f 2/1/1 3/2/1 1/3/1
f 10/4/2 36/5/2 1/6/2
f 4/7/3 10/8/3 3/9/3
f 5/8/4 2/10/4 1/9/4
f 10/8/5 22/11/5 23/12/5
f 21/13/6 5/8/6 24/12/6
f 8/14/7 35/15/7 4/16/7
f 27/17/8 25/18/8 26/19/8
f 30/20/9 32/18/9 29/21/9
f 28/22/4 24/12/4 25/18/4
f 30/23/10 26/24/10 31/25/10
f 34/26/11 17/27/11 13/28/11
f 33/29/12 15/30/12 19/31/12
f 23/12/3 29/21/3 32/18/3
f 13/28/13 25/32/13 14/33/13
f 16/34/14 28/35/14 27/36/14
f 19/31/15 29/37/15 20/38/15
f 18/39/16 32/40/16 31/41/16
f 14/33/17 24/42/17 6/43/17
f 15/30/18 21/44/18 28/35/18
f 18/39/19 26/45/19 13/28/19
f 16/34/20 30/46/20 19/31/20
f 17/27/21 23/47/21 32/40/21
f 20/38/22 22/48/22 12/49/22
f 24/42/23 5/50/23 6/43/23
f 10/4/24 23/47/24 9/51/24
f 34/26/25 10/4/25 9/51/25
f 8/14/26 21/44/26 7/52/26
f 22/48/27 11/53/27 12/49/27
f 34/26/25 5/50/25 36/5/25
f 11/53/28 33/29/28 12/49/28
f 33/29/28 8/14/28 7/52/28
f 2/1/1 4/24/1 3/2/1
f 1/6/2 3/54/2 10/4/2
f 36/5/2 5/50/2 1/6/2
f 4/7/3 11/55/3 10/8/3
f 5/8/4 8/56/4 2/10/4
f 10/8/29 11/55/29 22/11/29
f 21/13/30 8/56/30 5/8/30
f 4/16/7 2/57/7 8/14/7
f 35/15/7 11/53/7 4/16/7
f 27/17/31 28/22/31 25/18/31
f 30/20/32 31/19/32 32/18/32
f 28/22/4 21/13/4 24/12/4
f 30/23/10 27/2/10 26/24/10
f 14/33/33 6/43/33 34/26/33
f 34/26/33 9/51/33 17/27/33
f 17/27/34 18/39/34 13/28/34
f 13/28/35 14/33/35 34/26/35
f 20/38/36 12/49/36 33/29/36
f 33/29/36 7/52/36 15/30/36
f 15/30/37 16/34/37 19/31/37
f 19/31/38 20/38/38 33/29/38
f 23/12/3 22/11/3 29/21/3
f 13/28/13 26/45/13 25/32/13
f 16/34/39 15/30/39 28/35/39
f 19/31/40 30/46/40 29/37/40
f 18/39/16 17/27/16 32/40/16
f 14/33/41 25/32/41 24/42/41
f 15/30/42 7/52/42 21/44/42
f 18/39/19 31/41/19 26/45/19
f 16/34/20 27/36/20 30/46/20
f 17/27/43 9/51/43 23/47/43
f 20/38/44 29/37/44 22/48/44
f 34/26/25 36/5/25 10/4/25
f 34/26/25 6/43/25 5/50/25
f 11/53/28 35/15/28 33/29/28
f 33/29/28 35/15/28 8/14/28
