# Blender 5.0.1
# www.blender.org
mtllib OpenBigCardboardBoxFlat01.mtl
o OpenBigCardboardBoxFlat01
v -0.200000 0.000000 0.160000
v -0.200000 0.200000 0.160000
v -0.200000 0.000000 -0.160000
v -0.200000 0.200000 -0.160000
v 0.200000 0.000000 0.160000
v 0.200000 0.200000 0.160000
v 0.200000 0.000000 -0.160000
v 0.200000 0.200000 -0.160000
v -0.200000 0.000000 0.000000
v -0.200000 0.200000 0.000000
v 0.200000 0.000000 0.000000
v 0.200000 0.200000 0.000000
v 0.233527 0.137681 0.104556
v 0.233527 0.137681 -0.104556
v -0.200000 0.053900 -0.225228
v 0.200000 0.053900 -0.225228
v -0.239192 0.141079 -0.104556
v -0.239192 0.141079 0.104556
v -0.200000 0.055284 0.228244
v 0.200000 0.055284 0.228244
v -0.239192 0.141079 0.000000
v 0.233527 0.137681 0.000000
v -0.186281 0.020364 0.149025
v -0.186281 0.206645 0.149025
v -0.186281 0.020364 -0.149025
v -0.186281 0.206645 -0.149025
v 0.186281 0.020364 0.149025
v 0.186281 0.206645 0.149025
v 0.186281 0.020364 -0.149025
v 0.186281 0.206645 -0.149025
v -0.186281 0.020364 0.000000
v -0.186281 0.206645 0.000000
v 0.186281 0.020364 0.000000
v 0.186281 0.206645 0.000000
v -0.200000 0.202910 0.166172
v -0.200000 0.202782 -0.166231
v 0.200000 0.202910 0.166172
v 0.200000 0.202782 -0.166231
v -0.200000 0.056682 -0.231459
v 0.200000 0.056682 -0.231459
v -0.200000 0.058194 0.234416
v 0.200000 0.058194 0.234416
v -0.205790 0.203851 0.160000
v -0.205790 0.203851 -0.160000
v 0.206124 0.203295 0.160000
v 0.206124 0.203295 -0.160000
v -0.205790 0.203851 0.000000
v 0.206124 0.203295 0.000000
v 0.239651 0.140976 0.104556
v 0.239651 0.140976 -0.104556
v -0.244982 0.144931 -0.104556
v -0.244982 0.144931 0.104556
v -0.244982 0.144931 0.000000
v 0.239651 0.140976 0.000000
vn -1.0000 -0.0000 -0.0000
vn -0.0000 -0.0000 -1.0000
vn 1.0000 -0.0000 -0.0000
vn -0.0000 -0.0000 1.0000
vn -0.0000 -1.0000 -0.0000
vn 0.8326 -0.5538 -0.0000
vn -0.0000 -0.4265 -0.9045
vn -0.0000 -0.4077 0.9131
vn -0.8806 -0.4738 -0.0000
vn -0.0000 1.0000 -0.0000
vn -0.0000 0.4265 0.9045
vn -0.0000 0.4077 -0.9131
vn -0.8326 0.5538 -0.0000
vn 0.8806 0.4738 -0.0000
vn -0.3416 -0.5135 -0.7872
vn -0.5538 -0.8326 -0.0000
vn -0.3416 -0.5135 0.7872
vn -0.0000 -0.9045 0.4265
vn 0.2922 -0.5431 0.7872
vn 0.4738 -0.8806 -0.0000
vn 0.2922 -0.5431 -0.7872
vn -0.0000 -0.9131 -0.4077
vn -0.0000 0.9757 -0.2191
vn -0.1418 0.9899 -0.0000
vn -0.0000 0.9771 0.2128
vn 0.1665 0.9860 -0.0000
vn -0.0300 0.9801 -0.1961
vn -0.5191 -0.7804 -0.3484
vn -0.0369 0.9822 0.1844
vn -0.5155 -0.7750 0.3655
vn 0.0855 0.9855 0.1462
vn 0.4375 -0.8133 0.3835
vn 0.0786 0.9843 -0.1583
vn 0.4409 -0.8196 -0.3659
vt 0.156250 0.156250
vt 0.031250 -0.000000
vt 0.156250 0.000000
vt 0.656250 0.656250
vt 0.343750 0.500000
vt 0.656250 0.500000
vt 0.343750 0.343750
vt 0.656250 0.343750
vt 0.656250 0.375000
vt 0.031250 0.156250
vt 0.000000 0.843750
vt 0.312500 0.718750
vt 0.312500 0.843750
vt 0.343750 0.625000
vt 0.656250 0.625000
vt 0.281250 0.156250
vt 0.281250 0.000000
vt -0.000000 0.968750
vt 0.312500 0.968750
vt 0.500000 0.375000
vt 0.375000 0.531250
vt 0.500000 0.531250
vt 0.375000 0.375000
vt 0.625000 0.531250
vt 0.625000 0.375000
vt 0.375000 0.468750
vt 0.500000 0.406250
vt 0.375000 0.406250
vt 0.625000 0.468750
vt 0.625000 0.406250
vt 0.406250 0.562500
vt 0.437500 0.593750
vt 0.437500 0.562500
vt 0.406250 0.593750
vt 0.343750 0.656250
vt 0.343750 0.375000
vt -0.000000 0.718750
vt 0.500000 0.468750
s 0
usemtl CardboardBox
f 10/1/1 3/2/1 9/3/1
f 4/4/2 7/5/2 3/6/2
f 12/1/3 5/2/3 11/3/3
f 6/6/4 1/7/4 5/8/4
f 11/5/5 1/9/5 9/6/5
f 10/1/6 17/10/6 4/10/6
f 19/11/7 6/12/7 20/13/7
f 7/14/5 9/6/5 3/15/5
f 8/16/3 11/3/3 7/17/3
f 2/16/1 9/3/1 1/17/1
f 4/18/8 16/13/8 8/19/8
f 10/1/6 18/16/6 21/1/6
f 12/1/9 13/10/9 6/10/9
f 12/1/9 14/16/9 22/1/9
f 31/20/3 26/21/3 32/22/3
f 29/5/4 26/4/4 25/6/4
f 27/23/1 34/22/1 33/20/1
f 23/7/2 28/6/2 27/8/2
f 23/9/10 33/5/10 31/6/10
f 31/6/10 29/14/10 25/15/10
f 33/20/1 30/24/1 29/25/1
f 31/20/3 24/24/3 23/25/3
f 37/9/11 41/5/11 42/6/11
f 40/6/12 36/14/12 38/15/12
f 51/26/13 47/27/13 44/28/13
f 47/27/13 52/29/13 43/30/13
f 49/26/14 48/27/14 45/28/14
f 48/27/14 50/29/14 46/30/14
f 51/31/15 4/32/15 17/33/15
f 53/33/16 17/34/16 21/32/16
f 52/31/16 21/32/16 18/33/16
f 43/33/17 18/34/17 2/32/17
f 19/33/1 35/34/1 2/32/1
f 42/33/18 19/34/18 20/32/18
f 37/31/3 20/32/3 6/33/3
f 49/33/19 6/34/19 13/32/19
f 54/31/20 13/32/20 22/33/20
f 50/33/20 22/34/20 14/32/20
f 46/31/21 14/32/21 8/33/21
f 16/32/3 38/31/3 8/34/3
f 39/31/22 16/32/22 15/33/22
f 4/32/1 39/31/1 15/34/1
f 38/31/23 26/32/23 30/33/23
f 26/32/24 47/31/24 32/34/24
f 47/31/24 24/32/24 32/33/24
f 35/33/25 28/34/25 24/32/25
f 28/33/26 48/34/26 34/32/26
f 48/33/26 30/34/26 34/32/26
f 36/31/27 44/33/27 26/34/27
f 44/34/28 36/33/28 4/31/28
f 43/34/29 35/32/29 24/33/29
f 43/33/30 2/32/30 35/34/30
f 37/31/31 45/34/31 28/33/31
f 37/33/32 6/31/32 45/34/32
f 38/32/33 30/34/33 46/33/33
f 46/33/34 8/32/34 38/34/34
f 10/1/1 4/10/1 3/2/1
f 4/4/2 8/35/2 7/5/2
f 12/1/3 6/10/3 5/2/3
f 6/6/4 2/5/4 1/7/4
f 11/5/5 5/36/5 1/9/5
f 10/1/6 21/1/6 17/10/6
f 19/11/7 2/37/7 6/12/7
f 7/14/5 11/5/5 9/6/5
f 8/16/3 12/1/3 11/3/3
f 2/16/1 10/1/1 9/3/1
f 4/18/8 15/11/8 16/13/8
f 10/1/6 2/16/6 18/16/6
f 12/1/9 22/1/9 13/10/9
f 12/1/9 8/16/9 14/16/9
f 31/20/3 25/23/3 26/21/3
f 29/5/4 30/35/4 26/4/4
f 27/23/1 28/21/1 34/22/1
f 23/7/2 24/5/2 28/6/2
f 23/9/10 27/36/10 33/5/10
f 31/6/10 33/5/10 29/14/10
f 33/20/1 34/22/1 30/24/1
f 31/20/3 32/22/3 24/24/3
f 37/9/11 35/36/11 41/5/11
f 40/6/12 39/5/12 36/14/12
f 51/26/13 53/38/13 47/27/13
f 47/27/13 53/38/13 52/29/13
f 49/26/14 54/38/14 48/27/14
f 48/27/14 54/38/14 50/29/14
f 51/31/15 44/34/15 4/32/15
f 53/33/16 51/31/16 17/34/16
f 52/31/16 53/34/16 21/32/16
f 43/33/17 52/31/17 18/34/17
f 19/33/1 41/31/1 35/34/1
f 42/33/18 41/31/18 19/34/18
f 37/31/3 42/34/3 20/32/3
f 49/33/19 45/31/19 6/34/19
f 54/31/20 49/34/20 13/32/20
f 50/33/20 54/31/20 22/34/20
f 46/31/21 50/34/21 14/32/21
f 16/32/3 40/33/3 38/31/3
f 39/31/22 40/34/22 16/32/22
f 4/32/1 36/33/1 39/31/1
f 38/31/23 36/34/23 26/32/23
f 26/32/24 44/33/24 47/31/24
f 47/31/24 43/34/24 24/32/24
f 35/33/25 37/31/25 28/34/25
f 28/33/26 45/31/26 48/34/26
f 48/33/26 46/31/26 30/34/26
