# Blender 5.0.1
# www.blender.org
mtllib ToothbrushHolder01.mtl
o ToothbrushHolder01
v 0.000000 0.000000 -0.057600
v 0.000000 0.000000 -0.057600
v 0.000000 0.000000 -0.057600
v -0.040729 0.000000 -0.040729
v -0.040729 0.000000 -0.040729
v -0.040729 0.000000 -0.040729
v -0.057600 0.000000 0.000000
v -0.057600 0.000000 0.000000
v -0.057600 0.000000 0.000000
v -0.040729 0.000000 0.040729
v -0.040729 0.000000 0.040729
v -0.040729 0.000000 0.040729
v 0.000000 0.000000 0.057600
v 0.000000 0.000000 0.057600
v 0.000000 0.000000 0.057600
v 0.040729 0.000000 0.040729
v 0.040729 0.000000 0.040729
v 0.040729 0.000000 0.040729
v 0.057600 0.000000 0.000000
v 0.057600 0.000000 0.000000
v 0.057600 0.000000 0.000000
v 0.040729 0.000000 -0.040729
v 0.040729 0.000000 -0.040729
v 0.040729 0.000000 -0.040729
v -0.041339 0.160000 -0.041339
v -0.041339 0.160000 -0.041339
v 0.000000 0.160000 -0.058462
v 0.000000 0.160000 -0.058462
v -0.058462 0.160000 0.000000
v -0.058462 0.160000 0.000000
v -0.041339 0.160000 0.041339
v -0.041339 0.160000 0.041339
v 0.000000 0.160000 0.058462
v 0.000000 0.160000 0.058462
v 0.041339 0.160000 0.041339
v 0.041339 0.160000 0.041339
v 0.058462 0.160000 0.000000
v 0.058462 0.160000 0.000000
v 0.041339 0.160000 -0.041339
v 0.041339 0.160000 -0.041339
v -0.049283 0.160000 -0.049283
v -0.049283 0.160000 -0.049283
v 0.000000 0.160000 -0.069696
v 0.000000 0.160000 -0.069696
v -0.069696 0.160000 0.000000
v -0.069696 0.160000 0.000000
v -0.049283 0.160000 0.049283
v -0.049283 0.160000 0.049283
v 0.000000 0.160000 0.069696
v 0.000000 0.160000 0.069696
v 0.049283 0.160000 0.049283
v 0.049283 0.160000 0.049283
v 0.069696 0.160000 0.000000
v 0.069696 0.160000 0.000000
v 0.049283 0.160000 -0.049283
v 0.049283 0.160000 -0.049283
v -0.033823 0.010902 -0.033823
v -0.033823 0.010902 -0.033823
v -0.033823 0.010902 -0.033823
v 0.000000 0.010902 -0.047833
v 0.000000 0.010902 -0.047833
v 0.000000 0.010902 -0.047833
v -0.047833 0.010902 0.000000
v -0.047833 0.010902 0.000000
v -0.047833 0.010902 0.000000
v -0.033823 0.010902 0.033823
v -0.033823 0.010902 0.033823
v -0.033823 0.010902 0.033823
v 0.000000 0.010902 0.047833
v 0.000000 0.010902 0.047833
v 0.000000 0.010902 0.047833
v 0.033823 0.010902 0.033823
v 0.033823 0.010902 0.033823
v 0.033823 0.010902 0.033823
v 0.047833 0.010902 0.000000
v 0.047833 0.010902 0.000000
v 0.047833 0.010902 0.000000
v 0.033823 0.010902 -0.033823
v 0.033823 0.010902 -0.033823
v 0.033823 0.010902 -0.033823
v -0.041339 0.160000 -0.041339
v 0.000000 0.160000 -0.058462
v 0.000000 0.160000 -0.058462
v -0.058462 0.160000 0.000000
v -0.041339 0.160000 0.041339
v 0.000000 0.160000 0.058462
v 0.041339 0.160000 0.041339
v 0.058462 0.160000 0.000000
v 0.041339 0.160000 -0.041339
v -0.049283 0.160000 -0.049283
v 0.000000 0.160000 -0.069696
v 0.000000 0.160000 -0.069696
v -0.069696 0.160000 0.000000
v -0.049283 0.160000 0.049283
v 0.000000 0.160000 0.069696
v 0.049283 0.160000 0.049283
v 0.069696 0.160000 0.000000
v 0.049283 0.160000 -0.049283
vn -0.0000 -1.0000 -0.0000
vn -0.9219 0.0657 0.3819
vn 0.9216 -0.0697 -0.3818
vn 0.3818 -0.0697 0.9216
vn -0.9216 -0.0697 0.3818
vn -0.3818 -0.0697 -0.9216
vn 0.3818 -0.0697 -0.9216
vn 0.9216 -0.0697 0.3818
vn -0.3818 -0.0697 0.9216
vn -0.9216 -0.0697 -0.3818
vn -0.0000 1.0000 -0.0000
vn -0.3819 0.0657 -0.9219
vn 0.9219 0.0657 -0.3819
vn 0.3819 0.0657 0.9219
vn -0.3819 0.0657 0.9219
vn -0.9219 0.0657 -0.3819
vn 0.3819 0.0657 -0.9219
vn 0.9219 0.0657 0.3819
vt 0.062500 0.250000
vt 0.125000 0.375000
vt 0.250000 0.437500
vt 0.375000 0.375000
vt 0.437500 0.250000
vt 0.375000 0.125000
vt 0.250000 0.062500
vt 0.125000 0.125000
vt 0.750000 0.937500
vt 0.875000 0.937500
vt 0.875000 0.562500
vt 0.750000 0.562500
vt 0.500000 0.562500
vt 0.625000 0.562500
vt 0.625000 0.937500
vt 0.500000 0.937500
vt 0.250000 0.562500
vt 0.375000 0.562500
vt 0.375000 0.937500
vt 0.250000 0.937500
vt 0.000000 0.562500
vt 0.125000 0.562500
vt 0.125000 0.937500
vt 0.000000 0.937500
vt 1.000000 0.562500
vt 1.000000 0.937500
vt 0.750000 0.437500
vt 0.625000 0.375000
vt 0.562500 0.250000
vt 0.625000 0.125000
vt 0.750000 0.062500
vt 0.875000 0.125000
vt 0.937500 0.250000
vt 0.875000 0.375000
vt 0.125000 1.000000
vt 0.000000 1.000000
vt 0.250000 1.000000
vt 0.375000 1.000000
vt 0.500000 1.000000
vt 0.625000 1.000000
vt 0.750000 1.000000
vt 0.875000 1.000000
vt 1.000000 1.000000
s 0
usemtl ToothbrushHolder01
f 7/1/1 4/2/1 1/3/1
f 1/3/1 22/4/1 19/5/1
f 19/5/1 16/6/1 13/7/1
f 13/7/1 10/8/1 7/1/1
f 7/1/1 1/3/1 19/5/1
f 19/5/1 13/7/1 7/1/1
f 37/9/2 40/10/2 80/11/2
f 37/9/2 80/11/2 76/12/2
f 21/12/3 24/11/3 56/10/3
f 21/12/3 56/10/3 54/9/3
f 14/13/4 17/14/4 51/15/4
f 14/13/4 51/15/4 49/16/4
f 8/17/5 12/18/5 48/19/5
f 8/17/5 48/19/5 45/20/5
f 3/21/6 5/22/6 41/23/6
f 3/21/6 41/23/6 44/24/6
f 23/11/7 2/25/7 43/26/7
f 23/11/7 43/26/7 55/10/7
f 18/14/8 20/12/8 53/9/8
f 18/14/8 53/9/8 52/15/8
f 11/18/9 15/13/9 50/16/9
f 11/18/9 50/16/9 47/19/9
f 6/22/10 9/17/10 46/20/10
f 6/22/10 46/20/10 42/23/10
f 60/27/11 57/28/11 63/29/11
f 63/29/11 66/30/11 69/31/11
f 69/31/11 72/32/11 75/33/11
f 75/33/11 78/34/11 60/27/11
f 60/27/11 63/29/11 69/31/11
f 69/31/11 75/33/11 60/27/11
f 34/16/12 35/15/12 73/14/12
f 34/16/12 73/14/12 71/13/12
f 30/20/13 32/19/13 68/18/13
f 30/20/13 68/18/13 65/17/13
f 27/24/14 25/23/14 58/22/14
f 27/24/14 58/22/14 61/21/14
f 39/10/15 28/26/15 62/25/15
f 39/10/15 62/25/15 79/11/15
f 36/15/16 38/9/16 77/12/16
f 36/15/16 77/12/16 74/14/16
f 31/19/17 33/16/17 70/13/17
f 31/19/17 70/13/17 67/18/17
f 26/23/18 29/20/18 64/17/18
f 26/23/18 64/17/18 59/22/18
f 81/35/11 82/36/11 91/24/11
f 81/35/11 91/24/11 90/23/11
f 84/37/11 81/35/11 90/23/11
f 84/37/11 90/23/11 93/20/11
f 85/38/11 84/37/11 93/20/11
f 85/38/11 93/20/11 94/19/11
f 86/39/11 85/38/11 94/19/11
f 86/39/11 94/19/11 95/16/11
f 87/40/11 86/39/11 95/16/11
f 87/40/11 95/16/11 96/15/11
f 88/41/11 87/40/11 96/15/11
f 88/41/11 96/15/11 97/9/11
f 89/42/11 88/41/11 97/9/11
f 89/42/11 97/9/11 98/10/11
f 83/43/11 89/42/11 98/10/11
f 83/43/11 98/10/11 92/26/11
