# Blender 5.0.1
# www.blender.org
mtllib TrashCan03.mtl
o TrashCan03
v -0.138220 0.000000 0.000000
v -0.138220 0.000000 0.000000
v -0.138220 0.000000 0.000000
v 0.138220 0.000000 0.000000
v 0.138220 0.000000 0.000000
v 0.152778 0.511479 0.000000
v 0.152778 0.511479 0.000000
v -0.152777 0.511203 0.000000
v -0.152777 0.511203 0.000000
v -0.152777 0.511203 0.000000
v -0.118933 0.000000 0.138220
v -0.118933 0.000000 0.138220
v -0.118933 0.000000 0.138220
v -0.138220 0.000000 0.116243
v -0.138220 0.000000 0.116243
v -0.138220 0.000000 0.116243
v -0.133490 0.511924 0.153577
v -0.133490 0.511924 0.153577
v -0.133490 0.511924 0.153577
v -0.133490 0.511924 0.153577
v -0.152777 0.511820 0.131491
v -0.152777 0.511820 0.131491
v -0.152777 0.511820 0.131491
v -0.152777 0.511820 0.131491
v -0.138220 0.000000 -0.116243
v -0.138220 0.000000 -0.116243
v -0.138220 0.000000 -0.116243
v -0.118933 -0.000000 -0.138220
v -0.118933 -0.000000 -0.138220
v -0.118933 -0.000000 -0.138220
v -0.133490 0.511924 -0.153577
v -0.133490 0.511924 -0.153577
v -0.133490 0.511924 -0.153577
v -0.133490 0.511924 -0.153577
v -0.152777 0.511820 -0.131491
v -0.152777 0.511820 -0.131491
v -0.152777 0.511820 -0.131491
v -0.152777 0.511820 -0.131491
v 0.138220 0.000000 0.116234
v 0.138220 0.000000 0.116234
v 0.138220 0.000000 0.116234
v 0.118933 0.000000 0.138220
v 0.118933 0.000000 0.138220
v 0.118933 0.000000 0.138220
v 0.133492 0.511924 0.153577
v 0.133492 0.511924 0.153577
v 0.133492 0.511924 0.153577
v 0.133492 0.511924 0.153577
v 0.152778 0.511860 0.131482
v 0.152778 0.511860 0.131482
v 0.152778 0.511860 0.131482
v 0.152778 0.511860 0.131482
v 0.118933 0.000000 -0.138220
v 0.118933 0.000000 -0.138220
v 0.118933 0.000000 -0.138220
v 0.138220 0.000000 -0.116234
v 0.138220 0.000000 -0.116234
v 0.138220 0.000000 -0.116234
v 0.133492 0.511924 -0.153577
v 0.133492 0.511924 -0.153577
v 0.133492 0.511924 -0.153577
v 0.133492 0.511924 -0.153577
v 0.152778 0.511860 -0.131482
v 0.152778 0.511860 -0.131482
v 0.152778 0.511860 -0.131482
v 0.152778 0.511860 -0.131482
v -0.152777 0.635792 0.000000
v -0.152777 0.635792 0.000000
v -0.152777 0.635792 0.000000
v -0.133490 0.656969 0.000000
v -0.133490 0.656969 0.000000
v -0.133490 0.656969 0.000000
v -0.133490 0.656969 0.000000
v 0.152778 0.635822 0.000000
v 0.152778 0.635822 0.000000
v 0.152778 0.635822 0.000000
v 0.133492 0.656969 0.000000
v 0.133492 0.656969 0.000000
v 0.133492 0.656969 0.000000
v 0.133492 0.656969 0.000000
v -0.118933 0.000000 0.000000
v -0.118933 -0.000000 -0.116241
v 0.118933 0.000000 0.000000
v 0.118933 0.000000 -0.116234
v -0.118933 0.000000 0.116244
v 0.118933 0.000000 0.116235
vn -1.0000 -0.0000 -0.0000
vn -0.0000 -1.0000 -0.0000
vn 1.0000 -0.0000 -0.0000
vn -0.0000 0.7270 0.6866
vn 0.9996 -0.0285 0.0001
vn 0.9996 -0.0284 -0.0000
vn -0.9996 -0.0285 -0.0001
vn -0.9996 -0.0284 -0.0000
vn -0.0000 -0.0300 0.9996
vn 0.9996 -0.0284 -0.0001
vn 0.9996 -0.0285 -0.0000
vn -0.0000 -0.0300 -0.9996
vn -0.0000 0.7270 -0.6866
vn -0.7516 -0.0411 0.6584
vn -0.7517 -0.0411 0.6582
vn -0.7517 -0.0411 0.6583
vn -0.6219 0.5695 -0.5374
vn -0.6219 0.5695 -0.5375
vn -0.6220 0.5695 -0.5374
vn -0.7517 -0.0411 -0.6582
vn -0.7517 -0.0411 -0.6583
vn -0.7518 -0.0411 -0.6582
vn 0.7519 -0.0411 -0.6580
vn 0.7518 -0.0411 -0.6581
vn 0.6214 0.5698 0.5377
vn 0.7519 -0.0411 0.6580
vn 0.7520 -0.0411 0.6579
vn -0.6219 0.5696 0.5374
vn -0.6219 0.5695 0.5374
vn 0.6214 0.5699 -0.5377
vn 0.6214 0.5698 -0.5377
vn 0.6215 0.5698 -0.5377
vn -0.9996 -0.0284 0.0001
vn -0.9996 -0.0285 -0.0000
vt 0.093750 0.718750
vt 0.187500 0.718750
vt 0.187500 0.812500
vt 0.062500 0.062500
vt 0.093750 0.062500
vt 0.093750 0.156250
vt 0.062500 0.156250
vt 0.531250 0.718750
vt 0.625000 0.718750
vt 0.625000 0.812500
vt 0.093750 0.250000
vt 0.062500 0.250000
vt 0.312500 0.718750
vt 0.500000 0.718750
vt 0.500000 0.875000
vt 0.312500 0.875000
vt 0.281250 0.718750
vt 0.625000 0.343750
vt 0.531250 0.343750
vt 0.187500 0.343750
vt 0.093750 0.343750
vt 0.718750 0.718750
vt 0.500000 0.343750
vt 0.312500 0.343750
vt 0.718750 0.343750
vt 0.937500 0.343750
vt 0.937500 0.718750
vt 0.750000 0.718750
vt 0.750000 0.343750
vt 0.937500 0.875000
vt 0.750000 0.875000
vt 0.281250 0.343750
vt 0.125000 0.812500
vt 0.125000 0.968750
vt 0.093750 0.968750
vt 0.093750 0.812500
vt 0.062500 0.718750
vt 0.062500 0.343750
vt 0.562500 0.812500
vt 0.562500 0.968750
vt 0.531250 0.968750
vt 0.531250 0.812500
vt 0.281250 0.812500
vt 0.281250 0.968750
vt 0.250000 0.968750
vt 0.250000 0.812500
vt 0.718750 0.812500
vt 0.718750 0.968750
vt 0.687500 0.968750
vt 0.687500 0.812500
vt 0.093750 0.281250
vt 0.281250 0.250000
vt 0.281250 0.281250
vt 0.281250 0.062500
vt 0.281250 0.156250
vt 0.093750 0.031250
vt 0.312500 0.062500
vt 0.281250 0.031250
vt 0.312500 0.250000
vt 0.312500 0.156250
s 0
usemtl TrashCan03
f 38/1/1 10/2/1 69/3/1
f 25/4/2 82/5/2 81/6/2
f 25/4/2 81/6/2 1/7/2
f 52/8/3 7/9/3 76/10/3
f 1/7/2 81/6/2 85/11/2
f 1/7/2 85/11/2 14/12/2
f 77/13/4 70/14/4 17/15/4
f 77/13/4 17/15/4 45/16/4
f 10/2/1 24/17/1 69/3/1
f 5/18/5 6/9/5 51/8/5
f 5/18/6 51/8/6 41/19/6
f 3/20/7 9/2/7 37/1/7
f 3/20/8 37/1/8 27/21/8
f 7/9/3 66/22/3 76/10/3
f 42/23/9 46/14/9 18/13/9
s 1
f 42/23/9 18/13/9 11/24/9
s 0
f 58/25/10 65/22/10 6/9/10
f 58/25/11 6/9/11 5/18/11
f 28/26/12 32/27/12 60/28/12
s 1
f 28/26/12 60/28/12 53/29/12
s 0
f 59/28/13 31/27/13 71/30/13
f 59/28/13 71/30/13 78/31/13
s 1
f 13/24/14 20/13/15 22/17/15
f 13/24/14 22/17/15 15/32/16
f 73/33/17 33/34/18 35/35/19
f 73/33/17 35/35/19 68/36/17
f 34/37/20 30/38/21 26/21/20
f 34/37/20 26/21/20 36/1/22
f 64/22/23 57/25/24 55/29/23
f 64/22/23 55/29/23 62/28/23
f 79/39/25 47/40/25 49/41/25
f 79/39/25 49/41/25 74/42/25
f 48/14/26 44/23/26 40/19/26
f 48/14/26 40/19/26 50/8/27
f 19/43/28 72/44/29 67/45/29
f 19/43/28 67/45/29 21/46/29
f 61/47/30 80/48/31 75/49/32
f 61/47/30 75/49/32 63/50/31
s 0
f 16/32/33 23/17/33 8/2/33
f 16/32/34 8/2/34 2/20/34
f 12/51/2 85/11/2 86/52/2
f 12/51/2 86/52/2 43/53/2
f 81/6/2 82/5/2 84/54/2
f 81/6/2 84/54/2 83/55/2
f 82/5/2 25/4/2 29/56/2
f 56/57/2 84/54/2 54/58/2
f 43/53/2 86/52/2 39/59/2
f 54/58/2 84/54/2 82/5/2
f 54/58/2 82/5/2 29/56/2
f 83/55/2 84/54/2 56/57/2
f 83/55/2 56/57/2 4/60/2
f 86/52/2 85/11/2 81/6/2
f 86/52/2 81/6/2 83/55/2
f 14/12/2 85/11/2 12/51/2
f 39/59/2 86/52/2 83/55/2
f 39/59/2 83/55/2 4/60/2
