# Blender 5.0.1
# www.blender.org
mtllib Bottle01.mtl
o Bottle01
v -0.023990 0.109385 -0.023990
v -0.023990 0.109385 -0.023990
v -0.023990 0.109385 -0.023990
v -0.023990 0.109385 -0.023990
v -0.000000 0.109385 -0.033926
v -0.000000 0.109385 -0.033926
v -0.000000 0.109385 -0.033926
v -0.000000 0.109385 -0.033926
v -0.033926 0.109385 0.000000
v -0.033926 0.109385 0.000000
v -0.033926 0.109385 0.000000
v -0.033926 0.109385 0.000000
v -0.023990 0.109385 0.023990
v -0.023990 0.109385 0.023990
v -0.023990 0.109385 0.023990
v -0.023990 0.109385 0.023990
v -0.000000 0.109385 0.033926
v -0.000000 0.109385 0.033926
v -0.000000 0.109385 0.033926
v -0.000000 0.109385 0.033926
v 0.023990 0.109385 0.023990
v 0.023990 0.109385 0.023990
v 0.023990 0.109385 0.023990
v 0.023990 0.109385 0.023990
v 0.033926 0.109385 0.000000
v 0.033926 0.109385 0.000000
v 0.033926 0.109385 0.000000
v 0.033926 0.109385 0.000000
v 0.023990 0.109385 -0.023990
v 0.023990 0.109385 -0.023990
v 0.023990 0.109385 -0.023990
v 0.023990 0.109385 -0.023990
v -0.010698 0.155234 -0.010698
v -0.010698 0.155234 -0.010698
v -0.010698 0.155234 -0.010698
v -0.010698 0.155234 -0.010698
v -0.000000 0.155234 -0.015129
v -0.000000 0.155234 -0.015129
v -0.000000 0.155234 -0.015129
v -0.000000 0.155234 -0.015129
v -0.015129 0.155234 0.000000
v -0.015129 0.155234 0.000000
v -0.015129 0.155234 0.000000
v -0.015129 0.155234 0.000000
v -0.010698 0.155234 0.010698
v -0.010698 0.155234 0.010698
v -0.010698 0.155234 0.010698
v -0.010698 0.155234 0.010698
v -0.000000 0.155234 0.015129
v -0.000000 0.155234 0.015129
v -0.000000 0.155234 0.015129
v -0.000000 0.155234 0.015129
v 0.010698 0.155234 0.010698
v 0.010698 0.155234 0.010698
v 0.010698 0.155234 0.010698
v 0.010698 0.155234 0.010698
v 0.015129 0.155234 0.000000
v 0.015129 0.155234 0.000000
v 0.015129 0.155234 0.000000
v 0.015129 0.155234 0.000000
v 0.010698 0.155234 -0.010698
v 0.010698 0.155234 -0.010698
v 0.010698 0.155234 -0.010698
v 0.010698 0.155234 -0.010698
v -0.009372 0.200017 -0.009372
v -0.009372 0.200017 -0.009372
v -0.009372 0.200017 -0.009372
v -0.009372 0.200017 -0.009372
v -0.000000 0.200017 -0.013254
v -0.000000 0.200017 -0.013254
v -0.000000 0.200017 -0.013254
v -0.000000 0.200017 -0.013254
v -0.013254 0.200017 0.000000
v -0.013254 0.200017 0.000000
v -0.013254 0.200017 0.000000
v -0.013254 0.200017 0.000000
v -0.009372 0.200017 0.009372
v -0.009372 0.200017 0.009372
v -0.009372 0.200017 0.009372
v -0.009372 0.200017 0.009372
v -0.000000 0.200017 0.013254
v -0.000000 0.200017 0.013254
v -0.000000 0.200017 0.013254
v -0.000000 0.200017 0.013254
v 0.009372 0.200017 0.009372
v 0.009372 0.200017 0.009372
v 0.009372 0.200017 0.009372
v 0.009372 0.200017 0.009372
v 0.013254 0.200017 0.000000
v 0.013254 0.200017 0.000000
v 0.013254 0.200017 0.000000
v 0.013254 0.200017 0.000000
v 0.009372 0.200017 -0.009372
v 0.009372 0.200017 -0.009372
v 0.009372 0.200017 -0.009372
v 0.009372 0.200017 -0.009372
v -0.010290 0.201823 -0.010290
v -0.010290 0.201823 -0.010290
v -0.010290 0.201823 -0.010290
v -0.010290 0.201823 -0.010290
v -0.000000 0.201823 -0.014553
v -0.000000 0.201823 -0.014553
v -0.000000 0.201823 -0.014553
v -0.000000 0.201823 -0.014553
v -0.014553 0.201823 0.000000
v -0.014553 0.201823 0.000000
v -0.014553 0.201823 0.000000
v -0.014553 0.201823 0.000000
v -0.010290 0.201823 0.010290
v -0.010290 0.201823 0.010290
v -0.010290 0.201823 0.010290
v -0.010290 0.201823 0.010290
v -0.000000 0.201823 0.014553
v -0.000000 0.201823 0.014553
v -0.000000 0.201823 0.014553
v -0.000000 0.201823 0.014553
v 0.010290 0.201823 0.010290
v 0.010290 0.201823 0.010290
v 0.010290 0.201823 0.010290
v 0.010290 0.201823 0.010290
v 0.014553 0.201823 0.000000
v 0.014553 0.201823 0.000000
v 0.014553 0.201823 0.000000
v 0.014553 0.201823 0.000000
v 0.010290 0.201823 -0.010290
v 0.010290 0.201823 -0.010290
v 0.010290 0.201823 -0.010290
v 0.010290 0.201823 -0.010290
v -0.009203 0.223230 -0.009203
v -0.009203 0.223230 -0.009203
v -0.009203 0.223230 -0.009203
v -0.000000 0.223230 -0.013015
v -0.000000 0.223230 -0.013015
v -0.000000 0.223230 -0.013015
v -0.013015 0.223230 0.000000
v -0.013015 0.223230 0.000000
v -0.013015 0.223230 0.000000
v -0.009203 0.223230 0.009203
v -0.009203 0.223230 0.009203
v -0.009203 0.223230 0.009203
v -0.000000 0.223230 0.013015
v -0.000000 0.223230 0.013015
v -0.000000 0.223230 0.013015
v 0.009203 0.223230 0.009203
v 0.009203 0.223230 0.009203
v 0.009203 0.223230 0.009203
v 0.013015 0.223230 0.000000
v 0.013015 0.223230 0.000000
v 0.013015 0.223230 0.000000
v 0.009203 0.223230 -0.009203
v 0.009203 0.223230 -0.009203
v 0.009203 0.223230 -0.009203
v -0.000000 0.007114 -0.033926
v -0.000000 0.007114 -0.033926
v -0.000000 0.007114 -0.033926
v -0.000000 0.007114 -0.033926
v -0.000000 0.000000 -0.032203
v -0.000000 0.000000 -0.032203
v -0.000000 0.000000 -0.032203
v -0.022771 0.000000 -0.022771
v -0.022771 0.000000 -0.022771
v -0.022771 0.000000 -0.022771
v -0.023990 0.007114 -0.023990
v -0.023990 0.007114 -0.023990
v -0.023990 0.007114 -0.023990
v -0.023990 0.007114 -0.023990
v -0.032203 0.000000 0.000000
v -0.032203 0.000000 0.000000
v -0.032203 0.000000 0.000000
v -0.033926 0.007114 0.000000
v -0.033926 0.007114 0.000000
v -0.033926 0.007114 0.000000
v -0.033926 0.007114 0.000000
v -0.022771 0.000000 0.022771
v -0.022771 0.000000 0.022771
v -0.022771 0.000000 0.022771
v -0.023990 0.007114 0.023990
v -0.023990 0.007114 0.023990
v -0.023990 0.007114 0.023990
v -0.023990 0.007114 0.023990
v -0.000000 0.000000 0.032203
v -0.000000 0.000000 0.032203
v -0.000000 0.000000 0.032203
v -0.000000 0.007114 0.033926
v -0.000000 0.007114 0.033926
v -0.000000 0.007114 0.033926
v -0.000000 0.007114 0.033926
v 0.022771 0.000000 0.022771
v 0.022771 0.000000 0.022771
v 0.022771 0.000000 0.022771
v 0.023990 0.007114 0.023990
v 0.023990 0.007114 0.023990
v 0.023990 0.007114 0.023990
v 0.023990 0.007114 0.023990
v 0.032203 0.000000 0.000000
v 0.032203 0.000000 0.000000
v 0.032203 0.000000 0.000000
v 0.033926 0.007114 0.000000
v 0.033926 0.007114 0.000000
v 0.033926 0.007114 0.000000
v 0.033926 0.007114 0.000000
v 0.022771 0.000000 -0.022771
v 0.022771 0.000000 -0.022771
v 0.022771 0.000000 -0.022771
v 0.023990 0.007114 -0.023990
v 0.023990 0.007114 -0.023990
v 0.023990 0.007114 -0.023990
v 0.023990 0.007114 -0.023990
vn 0.3827 -0.0000 -0.9239
vn 0.3579 0.3542 -0.8640
vn 0.9239 -0.0000 0.3827
vn -0.3827 -0.0000 0.9239
vn -0.0000 -1.0000 -0.0000
vn -0.9239 -0.0000 -0.3827
vn 0.9239 -0.0000 -0.3827
vn 0.3827 -0.0000 0.9239
vn -0.9239 -0.0000 0.3827
vn 0.9232 0.0387 -0.3824
vn 0.8640 0.3542 0.3579
vn -0.3579 0.3542 0.8640
vn -0.8640 0.3542 -0.3579
vn 0.8640 0.3542 -0.3579
vn 0.3579 0.3542 0.8640
vn -0.8640 0.3542 0.3579
vn -0.3579 0.3542 -0.8640
vn 0.7696 -0.5533 -0.3188
vn 0.3824 0.0387 0.9232
vn -0.9232 0.0387 0.3824
vn -0.3824 0.0387 -0.9232
vn 0.3824 0.0387 -0.9232
vn 0.9232 0.0387 0.3824
vn -0.3824 0.0387 0.9232
vn -0.9232 0.0387 -0.3824
vn 0.9219 0.0662 0.3818
vn 0.3188 -0.5533 0.7696
vn -0.7696 -0.5533 0.3188
vn -0.3188 -0.5533 -0.7696
vn 0.3188 -0.5533 -0.7696
vn 0.7696 -0.5533 0.3188
vn -0.3188 -0.5533 0.7696
vn -0.7696 -0.5533 -0.3188
vn -0.0000 1.0000 -0.0000
vn -0.3818 0.0662 0.9219
vn -0.9219 0.0662 -0.3818
vn 0.9219 0.0662 -0.3818
vn 0.3818 0.0662 0.9219
vn -0.9219 0.0662 0.3818
vn -0.3818 0.0662 -0.9219
vn 0.3818 0.0662 -0.9219
vn -0.3734 -0.2184 -0.9016
vn -0.9016 -0.2184 -0.3734
vn -0.9016 -0.2184 0.3734
vn -0.3734 -0.2184 0.9016
vn 0.3734 -0.2184 0.9016
vn 0.9016 -0.2184 0.3734
vn 0.9016 -0.2184 -0.3734
vn 0.3734 -0.2184 -0.9016
vn -0.3827 -0.0000 -0.9239
vt 0.875000 0.562500
vt 1.000000 0.562500
vt 1.000000 1.000000
vt 0.875000 1.000000
vt 0.875000 0.437500
vt 1.000000 0.437500
vt 0.625000 0.562500
vt 0.750000 0.562500
vt 0.750000 1.000000
vt 0.625000 1.000000
vt 0.375000 0.562500
vt 0.500000 0.562500
vt 0.500000 1.000000
vt 0.375000 1.000000
vt 0.625000 0.375000
vt 0.750000 0.437500
vt 0.875000 0.375000
vt 0.937500 0.250000
vt 0.875000 0.125000
vt 0.750000 0.062500
vt 0.625000 0.125000
vt 0.562500 0.250000
vt 0.125000 0.562500
vt 0.250000 0.562500
vt 0.250000 1.000000
vt 0.125000 1.000000
vt 0.375000 0.000000
vt 0.437500 0.000000
vt 0.437500 0.375000
vt 0.375000 0.375000
vt 0.625000 0.437500
vt 0.375000 0.437500
vt 0.500000 0.437500
vt 0.125000 0.437500
vt 0.250000 0.437500
vt 0.000000 0.437500
vt 0.000000 0.562500
vt 0.875000 0.000000
vt 0.937500 0.000000
vt 0.937500 0.062500
vt 0.875000 0.062500
vt 0.250000 0.000000
vt 0.312500 0.000000
vt 0.312500 0.375000
vt 0.250000 0.375000
vt 0.125000 0.000000
vt 0.187500 0.000000
vt 0.187500 0.375000
vt 0.125000 0.375000
vt 0.000000 0.000000
vt 0.062500 0.000000
vt 0.062500 0.375000
vt 0.000000 0.375000
vt 0.500000 0.000000
vt 0.500000 0.375000
vt 0.812500 0.000000
vt 0.812500 0.062500
vt 0.750000 0.000000
vt 0.625000 0.000000
vt 0.687500 0.000000
vt 0.687500 0.062500
vt 0.625000 0.062500
vt 0.562500 0.000000
vt 0.562500 0.062500
vt 0.500000 0.062500
vt 1.000000 0.000000
vt 1.000000 0.062500
vt 0.812500 0.312500
vt 0.750000 0.375000
vt 0.687500 0.312500
vt 0.625000 0.250000
vt 0.687500 0.187500
vt 0.750000 0.125000
vt 0.812500 0.187500
vt 0.875000 0.250000
vt 0.125000 0.625000
vt 0.000000 0.625000
vt 0.250000 0.625000
vt 0.375000 0.625000
vt 0.500000 0.625000
vt 0.625000 0.625000
vt 0.750000 0.625000
vt 0.875000 0.625000
vt 1.000000 0.625000
vt 0.000000 1.000000
s 0
usemtl Bottle01
f 206/1/1 154/2/1 6/3/1
f 206/1/1 6/3/1 30/4/1
f 29/5/2 5/6/2 37/2/2
f 29/5/2 37/2/2 61/1/2
f 194/7/3 200/8/3 27/9/3
f 194/7/3 27/9/3 24/10/3
f 178/11/4 187/12/4 20/13/4
f 178/11/4 20/13/4 14/14/4
f 160/15/5 157/16/5 202/17/5
f 202/17/5 195/18/5 188/19/5
f 188/19/5 181/20/5 174/21/5
f 174/21/5 167/22/5 160/15/5
f 160/15/5 202/17/5 188/19/5
f 188/19/5 174/21/5 160/15/5
f 166/23/6 173/24/6 12/25/6
f 166/23/6 12/25/6 4/26/6
f 201/8/7 208/1/7 32/4/7
f 201/8/7 32/4/7 28/9/7
f 185/12/8 192/7/8 22/10/8
f 185/12/8 22/10/8 18/13/8
f 172/24/9 180/11/9 16/14/9
f 172/24/9 16/14/9 11/25/9
f 60/27/10 64/28/10 96/29/10
f 60/27/10 96/29/10 92/30/10
f 23/31/11 25/16/11 57/8/11
f 23/31/11 57/8/11 55/7/11
f 13/32/12 19/33/12 51/12/12
f 13/32/12 51/12/12 45/11/12
s 1
f 3/34/13 10/35/13 42/24/13
s 0
f 3/34/13 42/24/13 35/23/13
f 26/16/14 31/5/14 63/1/14
f 26/16/14 63/1/14 58/8/14
s 1
f 17/33/15 21/31/15 53/7/15
s 0
f 17/33/15 53/7/15 49/12/15
f 9/35/16 15/32/16 47/11/16
f 9/35/16 47/11/16 41/24/16
f 7/36/17 1/34/17 33/23/17
s 1
f 7/36/17 33/23/17 39/37/17
s 0
f 90/38/18 95/39/18 127/40/18
f 90/38/18 127/40/18 122/41/18
f 50/42/19 54/43/19 86/44/19
f 50/42/19 86/44/19 82/45/19
f 43/46/20 48/47/20 80/48/20
f 43/46/20 80/48/20 75/49/20
f 40/50/21 34/51/21 66/52/21
f 40/50/21 66/52/21 72/53/21
f 62/28/22 38/54/22 70/55/22
f 62/28/22 70/55/22 94/29/22
f 56/43/23 59/27/23 91/30/23
f 56/43/23 91/30/23 88/44/23
f 46/47/24 52/42/24 84/45/24
f 46/47/24 84/45/24 78/48/24
f 36/51/25 44/46/25 76/49/25
f 36/51/25 76/49/25 68/52/25
f 120/56/26 123/38/26 148/41/26
f 120/56/26 148/41/26 146/57/26
f 81/58/27 85/56/27 117/57/27
f 81/58/27 117/57/27 113/20/27
f 73/59/28 79/60/28 111/61/28
f 73/59/28 111/61/28 105/62/28
f 71/54/29 65/63/29 97/64/29
f 71/54/29 97/64/29 103/65/29
f 93/39/30 69/66/30 101/67/30
f 93/39/30 101/67/30 125/40/30
f 87/56/31 89/38/31 121/41/31
f 87/56/31 121/41/31 119/57/31
f 77/60/32 83/58/32 115/20/32
f 77/60/32 115/20/32 109/61/32
f 67/63/33 74/59/33 106/62/33
f 67/63/33 106/62/33 99/64/33
f 150/68/34 132/69/34 129/70/34
f 129/70/34 135/71/34 138/72/34
f 138/72/34 141/73/34 144/74/34
f 144/74/34 147/75/34 150/68/34
f 150/68/34 129/70/34 138/72/34
f 138/72/34 144/74/34 150/68/34
f 110/60/35 116/58/35 143/20/35
f 110/60/35 143/20/35 139/61/35
f 100/63/36 108/59/36 137/62/36
f 100/63/36 137/62/36 131/64/36
f 124/38/37 128/39/37 152/40/37
f 124/38/37 152/40/37 149/41/37
f 114/58/38 118/56/38 145/57/38
f 114/58/38 145/57/38 142/20/38
f 107/59/39 112/60/39 140/61/39
f 107/59/39 140/61/39 136/62/39
f 104/54/40 98/63/40 130/64/40
f 104/54/40 130/64/40 134/65/40
f 126/39/41 102/66/41 133/67/41
f 126/39/41 133/67/41 151/40/41
f 163/76/42 155/77/42 159/37/42
f 163/76/42 159/37/42 161/23/42
f 171/78/43 165/76/43 162/23/43
f 171/78/43 162/23/43 169/24/43
s 1
f 179/79/44 170/78/44 168/24/44
s 0
f 179/79/44 168/24/44 176/11/44
f 186/80/45 177/79/45 175/11/45
f 186/80/45 175/11/45 183/12/45
f 191/81/46 184/80/46 182/12/46
f 191/81/46 182/12/46 189/7/46
f 198/82/47 193/81/47 190/7/47
f 198/82/47 190/7/47 196/8/47
s 1
f 207/83/48 199/82/48 197/8/48
s 0
f 207/83/48 197/8/48 204/1/48
f 153/84/49 205/83/49 203/1/49
f 153/84/49 203/1/49 158/2/49
f 156/37/50 164/23/50 2/26/50
f 156/37/50 2/26/50 8/85/50
