# Blender 5.0.1
# www.blender.org
mtllib CigaretteBox02.mtl
o CigaretteBox02
v -0.027783 0.000000 0.011184
v -0.027783 0.000000 0.011184
v -0.027783 0.000000 0.011184
v -0.027783 -0.000000 -0.011184
v -0.027783 -0.000000 -0.011184
v -0.027783 -0.000000 -0.011184
v 0.027783 0.000000 0.011184
v 0.027783 0.000000 0.011184
v 0.027783 0.000000 0.011184
v 0.027783 -0.000000 -0.011184
v 0.027783 -0.000000 -0.011184
v 0.027783 -0.000000 -0.011184
v -0.027783 0.052003 0.011184
v -0.027783 0.052003 0.011184
v -0.027783 0.052003 -0.011184
v -0.027783 0.052003 -0.011184
v 0.027783 0.052003 0.011184
v 0.027783 0.052003 0.011184
v 0.027783 0.052003 -0.011184
v 0.027783 0.052003 -0.011184
v -0.027783 0.078604 -0.020834
v -0.027783 0.078604 -0.020834
v -0.027783 0.078604 -0.020834
v -0.027783 0.057312 -0.027685
v -0.027783 0.057312 -0.027685
v -0.027783 0.057312 -0.027685
v 0.027783 0.078604 -0.020834
v 0.027783 0.078604 -0.020834
v 0.027783 0.078604 -0.020834
v 0.027783 0.057312 -0.027685
v 0.027783 0.057312 -0.027685
v 0.027783 0.057312 -0.027685
v -0.027783 0.073295 -0.004333
v -0.027783 0.073295 -0.004333
v -0.027783 0.052003 -0.011184
v -0.027783 0.052003 -0.011184
v 0.027783 0.073295 -0.004333
v 0.027783 0.073295 -0.004333
v 0.027783 0.052003 -0.011184
v 0.027783 0.052003 -0.011184
v -0.027285 0.001314 0.010372
v -0.027285 0.001314 -0.010611
v -0.027285 0.001314 -0.010611
v 0.027285 0.001314 0.010372
v 0.027285 0.001314 -0.010611
v 0.027285 0.001314 -0.010611
v -0.027285 0.065358 0.010372
v -0.027285 0.065358 -0.010611
v -0.027285 0.065358 -0.010611
v 0.027285 0.065358 0.010372
v 0.027285 0.065358 -0.010611
v 0.027285 0.065358 -0.010611
vn -1.0000 -0.0000 -0.0000
vn -0.0000 -1.0000 -0.0000
vn -0.0000 -0.0000 -1.0000
vn -0.0000 -0.0000 1.0000
vn 1.0000 -0.0000 -0.0000
vn -0.0000 0.3063 -0.9519
vn -0.0000 0.9519 0.3063
vn -0.0000 -0.9519 -0.3063
vt 0.125000 0.875000
vt 0.000000 0.875000
vt 0.000000 0.562500
vt 0.125000 0.562500
vt 1.000000 0.687500
vt 0.875000 0.687500
vt 0.875000 0.375000
vt 1.000000 0.375000
vt 0.437500 0.562500
vt 0.750000 0.562500
vt 0.750000 0.875000
vt 0.437500 0.875000
vt 0.875000 0.562500
vt 0.875000 0.875000
vt 0.875000 1.000000
vt 0.750000 1.000000
vt 1.000000 1.000000
vt 0.437500 1.000000
vt 0.125000 1.000000
vt 0.000000 1.000000
vt 0.000000 0.000000
vt 0.125000 0.000000
vt 0.125000 0.375000
vt 0.000000 0.375000
vt 0.437500 0.375000
vt 0.437500 0.000000
vt 0.562500 0.375000
vt 0.562500 0.000000
s 0
usemtl CigaretteBox01
f 14/1/1 16/2/1 6/3/1
f 14/1/1 6/3/1 3/4/1
f 1/5/2 4/6/2 10/7/2
f 1/5/2 10/7/2 7/8/2
f 11/9/3 5/10/3 15/11/3
f 11/9/3 15/11/3 19/12/3
f 2/4/4 8/9/4 17/12/4
f 2/4/4 17/12/4 13/1/4
f 9/10/5 12/13/5 20/14/5
f 9/10/5 20/14/5 18/11/5
f 38/11/5 40/14/5 32/15/5
f 38/11/5 32/15/5 29/16/5
f 27/6/6 31/5/6 25/17/6
f 27/6/6 25/17/6 21/15/6
f 33/1/7 37/12/7 28/18/7
f 33/1/7 28/18/7 22/19/7
f 39/12/8 35/11/8 24/16/8
f 39/12/8 24/16/8 30/18/8
f 23/19/1 26/20/1 36/2/1
f 23/19/1 36/2/1 34/1/1
f 47/21/1 49/22/1 43/23/1
f 47/21/1 43/23/1 41/24/1
f 45/25/3 42/23/3 48/22/3
f 45/25/3 48/22/3 51/26/3
f 44/27/5 46/25/5 52/26/5
f 44/27/5 52/26/5 50/28/5
