# Blender 5.0.1
# www.blender.org
mtllib Sink02.mtl
o Sink02
v -0.129993 0.915498 0.005564
v -0.129993 0.915498 -0.126964
v 0.129993 0.915498 -0.126964
v 0.129993 0.915498 0.005564
v -0.167960 0.863622 -0.151563
v 0.167960 0.863622 -0.151563
v -0.167960 0.863622 -0.208609
v 0.167960 0.863622 -0.208609
v -0.010054 1.057187 -0.067025
v 0.010054 1.057187 -0.067025
v -0.010054 1.077185 -0.067025
v 0.010054 1.077185 -0.067025
v -0.000000 0.996895 -0.206954
v -0.023730 0.996895 -0.189713
v -0.014666 0.996895 -0.161816
v 0.014666 0.996895 -0.161816
v 0.023730 0.996895 -0.189713
v -0.000000 1.057179 -0.206954
v -0.023730 1.057179 -0.189713
v -0.014666 1.057179 -0.161816
v 0.014666 1.057179 -0.161816
v 0.023730 1.057179 -0.189713
v -0.010054 1.031988 -0.161816
v 0.010054 1.031988 -0.161816
v -0.010054 1.011990 -0.161816
v 0.010054 1.011990 -0.161816
v -0.010054 1.077185 -0.090664
v 0.010054 1.077185 -0.090664
v -0.010054 1.057187 -0.090664
v 0.010054 1.057187 -0.090664
v -0.106440 0.863622 0.060034
v -0.167960 0.863622 -0.002740
v 0.167960 0.863622 -0.002740
v 0.106440 0.863622 0.060034
v -0.163397 0.998251 -0.136978
v 0.163397 0.998251 -0.136978
v -0.163397 0.998251 0.027044
v -0.120186 0.998251 0.077846
v 0.120186 0.998251 0.077846
v 0.163397 0.998251 0.027044
v 0.023730 1.075772 -0.189713
v 0.014666 1.075772 -0.133460
v -0.014666 1.075772 -0.133460
v -0.000000 1.075772 -0.206954
v -0.023730 1.075772 -0.189713
v 0.018965 1.075772 -0.160141
v -0.018965 1.075772 -0.160141
v -0.196320 0.984335 -0.159031
v -0.182867 0.999727 -0.160000
v 0.182867 0.999727 -0.160000
v 0.196320 0.984335 -0.159031
v -0.196318 0.984326 -0.208609
v -0.183674 1.000000 -0.208609
v 0.183674 1.000000 -0.208609
v 0.196318 0.984326 -0.208609
v -0.182853 0.999180 0.033977
v -0.196326 0.984362 0.035176
v -0.134809 0.984380 0.097956
v -0.128551 0.999050 0.089284
v 0.128551 0.999050 0.089284
v 0.134809 0.984380 0.097956
v 0.196326 0.984362 0.035176
v 0.182853 0.999180 0.033977
v -0.049721 0.812725 -0.207977
v 0.049721 0.812725 -0.207977
v -0.031509 0.812725 -0.128451
v -0.049721 0.812725 -0.147034
v 0.049721 0.812725 -0.147034
v 0.031509 0.812725 -0.128451
vn -0.0000 1.0000 -0.0000
vn -0.0000 -0.9654 0.2607
vn 1.0000 -0.0000 -0.0000
vn -0.0000 -0.0000 1.0000
vn -1.0000 -0.0000 -0.0000
vn -0.0000 -1.0000 -0.0000
vn 0.9511 -0.0000 0.3090
vn -0.9511 -0.0000 0.3090
vn 0.5878 -0.0000 -0.8090
vn -0.5878 -0.0000 -0.8090
vn -0.0000 0.8441 -0.5362
vn -0.0000 -0.8441 0.5362
vn -0.6879 0.4295 -0.5851
vn 0.6879 0.4295 -0.5851
vn 0.3954 -0.9185 -0.0000
vn -0.9273 0.3743 -0.0000
vn -0.0000 0.6578 -0.7531
vn -0.0000 0.1201 0.9928
vn 0.9273 0.3743 -0.0000
vn 0.9594 -0.2358 0.1546
vn -0.0000 -0.8363 0.5483
vn -0.9594 -0.2358 0.1546
vn 0.7782 0.6278 0.0164
vn -0.7530 0.6581 -0.0001
vn -0.5835 0.5768 0.5716
vn 0.5788 0.5836 0.5696
vn -0.7399 0.6727 -0.0001
vn -0.0000 0.5088 0.8609
vn 0.7529 0.6581 0.0019
vn -0.0000 1.0000 0.0056
vn -0.0000 0.9979 0.0640
vn -0.9735 -0.2287 -0.0000
vn 0.0477 0.9989 -0.0000
vn 0.9735 -0.2287 -0.0000
vn -0.0478 0.9989 -0.0000
vn 0.1890 -0.9643 0.1853
vn 0.0360 0.9988 -0.0330
vn -0.6659 -0.3614 0.6526
vn -0.0000 -0.2996 0.9541
vn -0.0000 0.9976 -0.0698
vn -0.0360 0.9988 -0.0330
vn 0.6659 -0.3614 0.6526
vn -0.3954 -0.9185 -0.0000
vn -0.1890 -0.9643 0.1853
vn 0.7530 0.6581 -0.0001
vn -0.7782 0.6278 0.0164
vn -0.5788 0.5836 0.5696
vn 0.5835 0.5768 0.5716
vn -0.7529 0.6581 0.0019
vn 0.7399 0.6727 -0.0001
vn 0.0723 0.9974 0.0028
vn -0.0723 0.9974 0.0028
vn 0.0441 0.9983 -0.0375
vn -0.0441 0.9983 -0.0375
vt 0.842431 0.540712
vt 0.657569 0.709288
vt 0.657569 0.540712
vt 0.829215 0.750000
vt 0.670785 0.750000
vt 0.000000 0.000000
vt 0.468222 0.532359
vt 0.331725 0.375000
vt 0.423081 0.375489
vt 0.656250 0.522312
vt 0.625000 0.500000
vt 0.633142 0.510178
vt 0.866858 0.510178
vt 0.634075 0.498409
vt 0.635204 0.500000
vt 0.868485 0.498690
vt 0.875000 0.500000
vt 0.844221 0.750866
vt 0.772523 0.614854
vt 0.875000 0.695112
vt 0.664291 0.750000
vt 0.551181 0.626681
vt 0.483411 0.546474
vt 0.616540 0.547186
vt 0.864796 0.500000
vt 0.875000 0.685046
vt 0.625000 0.685046
vt 0.624377 0.706972
vt 0.842431 0.709288
s 0
usemtl Porcelain
f 2/1/1 4/2/1 3/3/1
f 31/4/2 69/5/2 34/5/2
f 40/7/13 4/6/13 39/8/13
f 38/9/14 1/6/14 37/10/14
f 65/6/15 6/11/15 68/6/15
f 4/6/16 36/12/16 3/3/16
f 4/6/17 38/9/17 39/8/17
f 3/3/18 35/13/18 2/1/18
f 35/13/19 1/6/19 2/1/19
f 50/14/23 55/11/23 54/15/23
f 49/16/24 52/17/24 48/17/24
f 58/18/25 56/19/25 57/20/25
f 61/21/26 63/22/26 60/23/26
f 56/19/27 48/17/27 57/20/27
f 61/21/28 59/24/28 58/18/28
f 63/22/29 51/11/29 50/14/29
f 50/14/30 53/25/30 49/16/30
f 35/13/31 50/14/31 49/16/31
f 48/17/32 32/26/32 57/20/32
f 48/17/32 7/17/32 5/17/32
f 35/13/33 56/19/33 37/10/33
f 51/11/34 33/27/34 6/11/34
f 63/22/35 36/12/35 40/7/35
f 51/11/34 8/11/34 55/11/34
f 33/27/36 69/5/36 68/27/36
f 59/24/37 37/10/37 56/19/37
f 31/4/38 57/20/38 32/26/38
f 58/18/39 34/5/39 61/21/39
f 39/8/40 59/24/40 60/23/40
f 40/7/41 60/23/41 63/22/41
f 34/5/42 62/28/42 61/21/42
f 64/6/43 5/17/43 7/17/43
f 65/6/15 8/11/15 6/11/15
f 32/26/44 66/4/44 31/4/44
f 64/6/43 67/6/43 5/17/43
f 32/26/43 5/17/43 67/26/43
f 33/27/15 68/27/15 6/11/15
f 66/4/6 64/6/6 68/6/6
f 2/1/1 1/29/1 4/2/1
f 31/4/2 66/4/2 69/5/2
f 4/6/16 40/7/16 36/12/16
f 4/6/17 1/6/17 38/9/17
f 3/3/18 36/12/18 35/13/18
f 35/13/19 37/10/19 1/6/19
f 50/14/45 51/11/45 55/11/45
f 49/16/46 53/25/46 52/17/46
f 58/18/47 59/24/47 56/19/47
f 61/21/48 62/28/48 63/22/48
f 56/19/49 49/16/49 48/17/49
f 61/21/28 60/23/28 59/24/28
f 63/22/50 62/28/50 51/11/50
f 50/14/30 54/15/30 53/25/30
f 35/13/31 36/12/31 50/14/31
f 48/17/32 5/17/32 32/26/32
f 48/17/32 52/17/32 7/17/32
f 35/13/51 49/16/51 56/19/51
f 51/11/34 62/28/34 33/27/34
f 63/22/52 50/14/52 36/12/52
f 51/11/34 6/11/34 8/11/34
f 33/27/36 34/5/36 69/5/36
f 59/24/53 38/9/53 37/10/53
f 31/4/38 58/18/38 57/20/38
f 58/18/39 31/4/39 34/5/39
f 39/8/40 38/9/40 59/24/40
f 40/7/54 39/8/54 60/23/54
f 34/5/42 33/27/42 62/28/42
f 32/26/44 67/26/44 66/4/44
f 68/6/6 69/5/6 66/4/6
f 66/4/6 67/26/6 64/6/6
f 64/6/6 65/6/6 68/6/6
usemtl Metal
f 28/6/3 10/6/3 30/6/3
f 9/6/4 12/6/4 11/6/4
f 29/6/5 11/6/5 27/6/5
f 30/6/6 9/6/6 29/6/6
f 22/6/7 16/6/7 17/6/7
f 20/6/8 14/6/8 15/6/8
f 18/6/9 17/6/9 13/6/9
f 21/6/4 15/6/4 16/6/4
f 19/6/10 13/6/10 14/6/10
f 20/6/8 45/6/8 19/6/8
f 29/6/5 23/6/5 25/6/5
f 23/6/11 28/6/11 24/6/11
f 24/6/3 30/6/3 26/6/3
f 30/6/12 25/6/12 26/6/12
f 27/6/1 12/6/1 28/6/1
f 21/6/20 41/6/20 46/6/20
f 20/6/21 42/6/21 43/6/21
f 18/6/9 41/6/9 22/6/9
f 19/6/10 44/6/10 18/6/10
f 43/6/1 46/6/1 47/6/1
f 47/6/1 41/6/1 44/6/1
f 43/6/22 47/6/22 20/6/22
f 42/6/20 21/6/20 46/6/20
f 28/6/3 12/6/3 10/6/3
f 9/6/4 10/6/4 12/6/4
f 29/6/5 9/6/5 11/6/5
f 30/6/6 10/6/6 9/6/6
f 22/6/7 21/6/7 16/6/7
f 20/6/8 19/6/8 14/6/8
f 18/6/9 22/6/9 17/6/9
f 21/6/4 20/6/4 15/6/4
f 19/6/10 18/6/10 13/6/10
f 20/6/22 47/6/22 45/6/22
f 29/6/5 27/6/5 23/6/5
f 23/6/11 27/6/11 28/6/11
f 24/6/3 28/6/3 30/6/3
f 30/6/12 29/6/12 25/6/12
f 27/6/1 11/6/1 12/6/1
f 21/6/7 22/6/7 41/6/7
f 20/6/21 21/6/21 42/6/21
f 18/6/9 44/6/9 41/6/9
f 19/6/10 45/6/10 44/6/10
f 43/6/1 42/6/1 46/6/1
f 44/6/1 45/6/1 47/6/1
f 47/6/1 46/6/1 41/6/1
