# Blender 5.1.1
# www.blender.org
mtllib Tongs.mtl
o Tongs
v 0.048203 -0.004819 0.095222
v 0.048203 0.017859 0.095222
v 0.015562 -0.004833 -0.105429
v 0.015562 0.017874 -0.105429
v 0.067311 -0.008706 0.191276
v 0.067311 0.021747 0.191276
v 0.053983 -0.031759 0.128000
v 0.059987 -0.031759 0.162049
v 0.059987 0.044800 0.162049
v 0.053983 0.044800 0.128000
v 0.061173 0.021747 0.126732
v 0.067177 0.021747 0.160781
v 0.061173 -0.008707 0.126732
v 0.067177 -0.008706 0.160781
v 0.061072 -0.004819 0.092952
v 0.061072 0.017859 0.092952
v 0.026595 -0.004833 -0.107374
v 0.026595 0.017874 -0.107374
v 0.077261 -0.008706 0.189522
v 0.077261 0.021747 0.189522
v 0.063384 -0.031759 0.126343
v 0.069387 -0.031759 0.160391
v 0.069387 0.044800 0.160391
v 0.063384 0.044800 0.126343
v 0.073654 0.021747 0.124532
v 0.079658 0.021747 0.158580
v 0.073654 -0.008707 0.124532
v 0.079658 -0.008706 0.158580
v 0.048203 0.006520 0.095222
v 0.009905 0.006520 -0.104431
v 0.067766 0.006520 0.195501
v 0.063811 0.006520 0.126267
v 0.069826 0.006520 0.160314
v 0.066003 0.006520 0.092083
v 0.031841 0.006520 -0.108299
v 0.077297 0.006520 0.193820
v 0.076286 0.006520 0.124068
v 0.082290 0.006520 0.158116
v 0.047427 -0.004833 0.075285
v 0.047427 0.017874 0.075285
v 0.058460 -0.004833 0.073340
v 0.058460 0.017874 0.073340
v 0.061378 0.006520 0.072825
v 0.041770 0.006520 0.076283
v -0.048203 -0.004819 0.095222
v -0.048203 0.017859 0.095222
v -0.015562 -0.004833 -0.105429
v -0.015562 0.017874 -0.105429
v -0.067311 -0.008706 0.191276
v -0.067311 0.021747 0.191276
v -0.053983 -0.031759 0.128000
v -0.059987 -0.031759 0.162049
v -0.059987 0.044800 0.162049
v -0.053983 0.044800 0.128000
v -0.061173 0.021747 0.126732
v -0.067177 0.021747 0.160781
v -0.061173 -0.008707 0.126732
v -0.067177 -0.008706 0.160781
v -0.061072 -0.004819 0.092952
v -0.061072 0.017859 0.092952
v -0.026595 -0.004833 -0.107374
v -0.026595 0.017874 -0.107374
v -0.077261 -0.008706 0.189522
v -0.077261 0.021747 0.189522
v -0.063384 -0.031759 0.126343
v -0.069387 -0.031759 0.160391
v -0.069387 0.044800 0.160391
v -0.063384 0.044800 0.126343
v -0.073654 0.021747 0.124532
v -0.079658 0.021747 0.158580
v -0.073654 -0.008707 0.124532
v -0.079658 -0.008706 0.158580
v -0.048203 0.006520 0.095222
v -0.009905 0.006520 -0.104431
v -0.067766 0.006520 0.195501
v -0.063811 0.006520 0.126267
v -0.069826 0.006520 0.160314
v -0.066003 0.006520 0.092083
v -0.031841 0.006520 -0.108299
v -0.077297 0.006520 0.193820
v -0.076286 0.006520 0.124068
v -0.082290 0.006520 0.158116
v -0.047427 -0.004833 0.075285
v -0.047427 0.017874 0.075285
v -0.058460 -0.004833 0.073340
v -0.058460 0.017874 0.073340
v -0.061378 0.006520 0.072825
v -0.041770 0.006520 0.076283
v 0.017637 0.001781 -0.109460
v 0.017637 0.011260 -0.109460
v 0.021958 0.001781 -0.110272
v 0.021958 0.011260 -0.110272
v 0.013628 0.001781 -0.119655
v 0.013628 0.011260 -0.119655
v 0.016742 0.001781 -0.122900
v 0.016742 0.011260 -0.122900
v 0.005248 0.001781 -0.125846
v 0.005248 0.011260 -0.125846
v 0.006156 0.001781 -0.130418
v 0.006156 0.011260 -0.130418
v -0.004901 0.001781 -0.125922
v -0.004901 0.011260 -0.125922
v -0.006508 0.001781 -0.130264
v -0.006508 0.011260 -0.130264
v -0.013359 0.001781 -0.119858
v -0.013359 0.011260 -0.119858
v -0.016935 0.001781 -0.122489
v -0.016935 0.011260 -0.122489
v -0.017498 0.001781 -0.109720
v -0.017498 0.011260 -0.109720
v -0.021886 0.001781 -0.109744
v -0.021886 0.011260 -0.109744
v 0.018845 0.001781 -0.105371
v 0.018845 0.011260 -0.105371
v 0.023550 0.001781 -0.106183
v 0.023550 0.011260 -0.106183
v -0.018680 0.001781 -0.105630
v -0.018680 0.011260 -0.105630
v -0.023457 0.001781 -0.105655
v -0.023457 0.011260 -0.105655
vn -0.8787 0.4514 0.1549
vn -0.9546 -0.2980 0.0042
vn -0.8708 -0.2933 0.3946
vn -0.9388 -0.3019 0.1656
vn -0.9040 0.1686 0.3929
vn -0.9698 0.1738 0.1712
vn -0.9699 0.1735 0.1711
vn -0.9697 0.1740 0.1713
vn -0.9972 0.0460 -0.0584
vn -0.9546 0.2980 0.0042
vn -0.8708 0.2933 0.3946
vn -0.9388 0.3019 0.1655
vn 0.9529 0.2525 -0.1680
vn 0.9132 0.4013 0.0707
vn 0.8330 0.4010 -0.3812
vn 0.8973 0.4122 -0.1582
vn 0.8722 -0.4008 -0.2804
vn 0.9700 -0.1729 -0.1710
vn 0.9895 -0.0414 0.1384
vn 0.9132 -0.4013 0.0707
vn 0.8330 -0.4010 -0.3812
vn 0.8973 -0.4122 -0.1582
vn 0.0001 -1.0000 0.0004
vn -0.0000 -1.0000 -0.0000
vn 0.0001 -1.0000 0.0003
vn 0.0001 1.0000 0.0004
vn 0.0001 1.0000 0.0007
vn 0.1673 -0.2682 0.9487
vn 0.1673 -0.2683 0.9487
vn 0.1057 -0.7935 0.5994
vn -0.1093 0.7773 -0.6196
vn -0.1092 0.7773 -0.6196
vn -0.1093 -0.7773 -0.6196
vn -0.1092 -0.7773 -0.6196
vn 0.1057 0.7935 0.5994
vn -0.0000 1.0000 -0.0000
vn 0.1673 0.2682 0.9487
vn 0.1672 0.2682 0.9487
vn 0.9829 0.1676 0.0761
vn 0.9700 0.1729 -0.1710
vn 0.9084 0.1687 -0.3827
vn 0.9529 -0.2525 -0.1680
vn -0.9972 -0.0460 -0.0584
vn -0.9698 -0.1738 0.1712
vn -0.9697 -0.1740 0.1713
vn -0.9040 -0.1686 0.3929
vn -0.8787 -0.4515 0.1549
vn -0.9992 -0.0000 0.0389
vn 0.8898 -0.4033 -0.2137
vn 0.0001 -1.0000 0.0007
vn 0.8898 0.4033 -0.2137
vn -0.8469 0.4472 0.2877
vn -0.1736 -0.0000 -0.9848
vn 0.8787 0.4514 0.1549
vn 0.9546 -0.2980 0.0042
vn 0.8708 -0.2933 0.3946
vn 0.9388 -0.3019 0.1656
vn 0.8934 -0.0000 0.4492
vn 0.9698 0.1738 0.1712
vn 0.9697 0.1740 0.1713
vn 0.9972 0.0460 -0.0584
vn 0.9546 0.2980 0.0042
vn 0.8708 0.2933 0.3946
vn 0.9388 0.3019 0.1655
vn -0.8935 0.4247 -0.1457
vn -0.9132 0.4013 0.0707
vn -0.8330 0.4010 -0.3812
vn -0.8973 0.4122 -0.1582
vn -0.9084 -0.1687 -0.3827
vn -0.9700 -0.1729 -0.1710
vn -0.9895 -0.0414 0.1384
vn -0.9132 -0.4013 0.0707
vn -0.8330 -0.4010 -0.3812
vn -0.8973 -0.4122 -0.1582
vn -0.0001 -1.0000 0.0004
vn -0.0001 1.0000 0.0004
vn -0.0001 1.0000 0.0007
vn -0.1673 -0.2682 0.9487
vn -0.1673 -0.2683 0.9487
vn -0.1057 -0.7935 0.5994
vn 0.1093 0.7773 -0.6196
vn 0.1092 0.7773 -0.6196
vn 0.1092 -0.7773 -0.6196
vn 0.1093 -0.7773 -0.6196
vn -0.1057 0.7935 0.5994
vn -0.1673 0.2682 0.9487
vn -0.9895 0.0414 0.1384
vn -0.9700 0.1729 -0.1710
vn -0.9084 0.1687 -0.3827
vn -0.9529 -0.2525 -0.1680
vn 0.9852 -0.1715 0.0043
vn 0.9698 -0.1738 0.1712
vn 0.9699 -0.1733 0.1710
vn 0.9040 -0.1686 0.3929
vn 0.8787 -0.4515 0.1549
vn 0.9992 -0.0000 0.0389
vn -0.9592 -0.2523 -0.1276
vn -0.0001 -1.0000 0.0007
vn -0.8898 0.4033 -0.2137
vn 0.1736 -0.0000 -0.9848
vn -0.9306 -0.0000 0.3660
vn 0.9243 -0.0000 -0.3818
vn -0.0122 -0.0000 -0.9999
vn -0.5942 -0.0000 0.8043
vn 0.5790 -0.0000 -0.8153
vn -0.0075 -0.0000 1.0000
vn 0.5827 -0.0000 0.8127
vn -0.5978 -0.0000 -0.8017
vn -0.9332 -0.0000 -0.3595
vn -0.9335 -0.0000 -0.3586
vn -0.9322 -0.0000 -0.3620
vn 0.9258 -0.0000 0.3780
vn -0.9321 -0.0000 -0.3621
vn -0.9590 -0.0000 0.2833
vn 0.9607 -0.0000 0.2776
vn 0.9319 -0.0000 -0.3628
vn -0.8934 -0.0000 0.4492
vn -0.9699 0.1733 0.1710
vn -0.9852 0.1715 0.0043
vn -0.9388 0.3019 0.1656
vn 0.8935 0.4247 -0.1457
vn 0.9084 -0.1687 -0.3827
vn 0.9829 -0.1676 0.0761
vn 0.1672 -0.2682 0.9487
vn 0.9895 0.0414 0.1384
vn 0.8722 0.4008 -0.2804
vn 0.8935 -0.4247 -0.1457
vn -0.9852 -0.1715 0.0043
vn -0.9699 -0.1733 0.1710
vn -0.8469 -0.4473 0.2877
vn 0.9592 -0.2523 -0.1276
vn 0.9592 0.2523 -0.1276
vn -0.1736 0.0001 -0.9848
vn -0.1736 -0.0001 -0.9848
vn 0.9040 0.1686 0.3929
vn 0.9699 0.1733 0.1710
vn 0.9852 0.1715 0.0043
vn 0.9388 0.3019 0.1656
vn -0.9529 0.2525 -0.1680
vn -0.8722 -0.4008 -0.2804
vn -0.9829 -0.1676 0.0761
vn -0.0001 -1.0000 0.0003
vn -0.1672 -0.2682 0.9487
vn -0.1672 0.2682 0.9487
vn -0.9829 0.1676 0.0761
vn -0.8722 0.4008 -0.2804
vn -0.8935 -0.4247 -0.1457
vn 0.9972 -0.0460 -0.0584
vn 0.9697 -0.1740 0.1713
vn 0.8469 -0.4473 0.2877
vn -0.8898 -0.4033 -0.2137
vn -0.9592 0.2523 -0.1276
vn 0.8469 0.4472 0.2877
vn 0.1736 0.0001 -0.9848
vn 0.1736 -0.0001 -0.9848
vt 0.500000 0.500000
vt 0.375000 0.875000
vt 0.375000 0.500000
vt 0.375000 0.125000
vt 0.250000 0.125000
vt 0.250000 -0.000000
vt 0.250000 0.375000
vt 0.250000 0.250000
vt 0.375000 0.250000
vt 0.125000 0.375000
vt 0.125000 0.250000
vt 0.125000 0.125000
vt 0.125000 -0.000000
vt 0.000000 0.125000
vt 0.000000 0.250000
vt 0.750000 0.500000
vt 0.625000 0.875000
vt 0.625000 0.500000
vt 0.750000 0.125000
vt 0.625000 -0.000000
vt 0.625000 0.125000
vt 0.625000 0.375000
vt 0.750000 0.250000
vt 0.625000 0.250000
vt 0.500000 0.375000
vt 0.500000 0.125000
vt 0.500000 -0.000000
vt 0.500000 0.250000
vt 0.250000 0.500000
vt 0.125000 0.875000
vt 0.125000 0.500000
vt 0.875000 0.500000
vt 1.000000 0.625000
vt 0.875000 0.625000
vt 1.000000 0.750000
vt 1.000000 0.375000
vt 1.000000 0.500000
vt 0.875000 1.000000
vt 1.000000 0.875000
vt 0.875000 0.875000
vt 0.875000 0.750000
vt -0.000000 0.500000
vt 0.250000 0.875000
vt 0.375000 0.375000
vt -0.000000 0.375000
vt 0.500000 0.875000
vt 0.750000 0.375000
vt 0.938477 0.245946
vt 0.997331 0.157584
vt 0.879622 0.157584
vt 0.750000 0.875000
vt 0.875000 0.375000
vt 0.000000 1.000000
vt 0.000000 0.875000
vt 0.500000 1.000000
vt 0.625000 1.000000
vt 0.750000 1.000000
vt 0.125000 1.000000
vt 0.375000 1.000000
vt 0.250000 1.000000
vt 1.000000 1.000000
vt -0.000000 0.875000
vt 0.879622 0.216439
vt 0.997331 0.216439
vt 0.938477 0.130240
s 1
usemtl Tongs
f 40/1/1 30/2/1 44/3/1
f 9/4/2 12/5/2 6/6/2
f 2/7/3 11/8/3 10/9/3
f 10/9/4 12/5/4 9/4/4
f 32/8/5 1/10/5 13/11/5
f 32/8/6 14/12/7 33/5/8
f 33/5/9 5/13/9 31/6/9
f 5/13/10 14/12/10 8/14/10
f 13/11/11 1/10/11 7/15/11
f 13/11/12 8/14/12 14/12/12
f 43/16/13 18/17/13 42/18/13
f 23/19/14 20/20/14 26/21/14
f 16/22/15 24/23/15 25/24/15
f 24/23/16 26/21/16 25/24/16
f 37/24/17 15/25/17 34/22/17
f 28/26/18 37/24/18 38/21/18
f 19/27/19 38/21/19 36/20/19
f 19/27/20 22/4/20 28/26/20
f 27/28/21 21/9/21 15/25/21
f 22/4/22 27/28/22 28/26/22
f 39/29/23 17/30/24 41/31/25
f 40/18/26 16/25/27 42/1/26
f 5/32/28 36/33/28 31/34/29
f 5/34/30 22/35/30 19/33/30
f 2/32/31 24/36/32 16/37/31
f 1/38/33 21/39/34 7/40/34
f 7/40/24 22/35/24 8/41/24
f 6/34/35 23/35/35 9/41/35
f 10/40/36 23/35/36 24/39/36
f 6/34/37 36/37/37 20/33/38
f 20/20/39 38/26/39 26/21/39
f 38/26/40 25/24/40 26/21/40
f 37/28/41 16/22/41 25/24/41
f 17/30/42 43/42/42 41/31/42
f 6/6/43 33/12/43 31/13/43
f 12/5/44 32/11/44 33/12/45
f 2/7/46 32/11/46 11/8/46
f 44/3/47 3/43/47 39/29/47
f 29/44/48 39/29/48 1/7/48
f 15/45/49 43/31/49 34/10/49
f 40/1/26 18/17/36 4/46/36
f 39/29/23 15/10/50 1/7/50
f 43/18/51 16/47/51 34/22/51
f 29/44/52 40/1/52 44/3/52
f 30/48/53 18/49/53 17/50/53
f 74/2/54 84/1/54 88/3/54
f 53/4/55 50/6/55 56/5/55
f 46/7/56 54/9/56 55/8/56
f 54/9/57 56/5/57 55/8/57
f 76/8/58 45/10/58 73/7/58
f 58/12/59 76/8/59 77/5/60
f 49/13/61 77/5/61 75/6/61
f 49/13/62 52/14/62 58/12/62
f 57/11/63 51/15/63 45/10/63
f 52/14/64 57/11/64 58/12/64
f 87/16/65 62/17/65 79/51/65
f 67/19/66 70/21/66 64/20/66
f 60/22/67 69/24/67 68/23/67
f 68/23/68 70/21/68 67/19/68
f 81/24/69 59/25/69 71/28/69
f 81/24/70 72/26/70 82/21/70
f 82/21/71 63/27/71 80/20/71
f 63/27/72 72/26/72 66/4/72
f 71/28/73 59/25/73 65/9/73
f 71/28/74 66/4/74 72/26/74
f 83/29/75 61/30/24 47/43/24
f 84/18/76 60/25/77 46/22/77
f 80/33/78 49/32/78 75/34/79
f 49/34/80 66/35/80 52/41/80
f 46/32/81 68/36/82 54/52/82
f 65/39/83 45/38/84 51/40/83
f 66/35/24 51/40/24 52/41/24
f 67/35/85 50/34/85 53/41/85
f 54/40/36 67/35/36 53/41/36
f 50/34/86 80/37/86 75/32/86
f 64/20/87 82/26/87 80/27/87
f 69/24/88 82/26/88 70/21/88
f 60/22/89 81/28/89 69/24/89
f 87/42/90 61/30/90 85/31/90
f 50/6/91 77/12/91 56/5/91
f 56/5/92 76/11/92 55/8/93
f 76/11/94 46/7/94 55/8/94
f 47/43/95 88/3/95 83/29/95
f 83/29/96 73/44/96 45/7/96
f 59/45/97 87/31/97 85/42/97
f 62/17/36 84/1/76 48/46/36
f 59/10/98 83/29/75 45/7/98
f 60/47/99 87/18/99 78/22/99
f 73/44/96 84/1/96 46/25/96
f 61/50/100 62/49/100 74/48/100
f 111/30/24 117/53/24 119/54/24
f 96/55/36 98/17/36 94/56/36
f 92/57/36 94/17/36 90/51/36
f 90/43/101 93/58/101 89/30/101
f 91/43/102 96/58/102 92/30/102
f 91/56/24 93/51/24 95/57/24
f 99/46/103 104/59/103 100/2/103
f 94/2/104 97/60/104 93/43/104
f 95/2/105 100/60/105 96/43/105
f 95/56/24 97/46/24 99/17/24
f 104/60/36 106/2/36 102/59/36
f 99/55/24 101/2/24 103/46/24
f 100/59/36 102/46/36 98/55/36
f 98/46/106 101/59/106 97/2/106
f 108/30/36 110/60/36 106/58/36
f 102/17/107 105/55/107 101/46/107
f 103/17/108 108/55/108 104/46/108
f 103/59/24 105/43/24 107/2/24
f 111/40/109 120/57/110 112/51/111
f 105/17/112 110/57/112 109/56/112
f 107/51/113 112/56/111 108/17/113
f 107/43/24 109/58/24 111/30/24
f 92/57/36 114/40/36 116/38/36
f 89/53/114 114/30/114 90/58/114
f 112/54/36 118/58/36 110/53/36
f 110/40/115 117/57/115 109/51/115
f 92/53/116 115/30/116 91/58/116
f 91/38/24 113/51/24 89/40/24
f 40/1/1 4/46/1 30/2/1
f 10/9/4 11/8/4 12/5/4
f 32/8/117 29/7/117 1/10/117
f 32/8/6 13/11/118 14/12/7
f 33/5/119 14/12/119 5/13/119
f 13/11/12 7/15/120 8/14/12
f 43/16/121 35/51/121 18/17/121
f 24/23/16 23/19/16 26/21/16
f 37/24/122 27/28/122 15/25/122
f 28/26/18 27/28/18 37/24/18
f 19/27/123 28/26/123 38/21/123
f 22/4/22 21/9/22 27/28/22
f 39/29/23 3/43/24 17/30/24
f 40/18/26 2/22/27 16/25/27
f 5/32/28 19/37/124 36/33/28
f 5/34/30 8/41/30 22/35/30
f 2/32/31 10/52/32 24/36/32
f 1/38/33 15/61/33 21/39/34
f 7/40/24 21/39/24 22/35/24
f 6/34/35 20/33/35 23/35/35
f 10/40/36 9/41/36 23/35/36
f 6/34/37 31/32/37 36/37/37
f 20/20/125 36/27/125 38/26/125
f 38/26/40 37/28/40 25/24/40
f 37/28/126 34/25/126 16/22/126
f 17/30/127 35/62/127 43/42/127
f 6/6/128 12/5/128 33/12/128
f 12/5/44 11/8/129 32/11/44
f 2/7/117 29/10/117 32/11/117
f 44/3/47 30/2/47 3/43/47
f 29/44/130 44/3/130 39/29/130
f 15/45/131 41/42/131 43/31/131
f 40/1/26 42/18/26 18/17/36
f 39/29/23 41/31/25 15/10/50
f 43/18/132 42/16/132 16/47/132
f 29/44/48 2/25/48 40/1/48
f 17/50/53 3/63/133 30/48/53
f 30/48/53 4/64/134 18/49/53
f 18/49/53 35/65/53 17/50/53
f 74/2/54 48/46/54 84/1/54
f 54/9/57 53/4/57 56/5/57
f 76/8/135 57/11/135 45/10/135
f 58/12/59 57/11/136 76/8/59
f 49/13/137 58/12/137 77/5/137
f 52/14/64 51/15/138 57/11/64
f 87/16/139 86/18/139 62/17/139
f 68/23/68 69/24/68 70/21/68
f 81/24/140 78/22/140 59/25/140
f 81/24/70 71/28/70 72/26/70
f 82/21/141 72/26/141 63/27/141
f 71/28/74 65/9/74 66/4/74
f 83/29/75 85/31/142 61/30/24
f 84/18/76 86/1/76 60/25/77
f 80/33/78 63/37/143 49/32/78
f 49/34/80 63/33/80 66/35/80
f 46/32/81 60/37/81 68/36/82
f 65/39/83 59/61/84 45/38/84
f 66/35/24 65/39/24 51/40/24
f 67/35/85 64/33/85 50/34/85
f 54/40/36 68/39/36 67/35/36
f 50/34/86 64/33/144 80/37/86
f 64/20/145 70/21/145 82/26/145
f 69/24/88 81/28/88 82/26/88
f 60/22/146 78/25/146 81/28/146
f 87/42/147 79/62/147 61/30/147
f 50/6/148 75/13/148 77/12/148
f 56/5/92 77/12/149 76/11/92
f 76/11/58 73/10/58 46/7/58
f 47/43/95 74/2/95 88/3/95
f 83/29/150 88/3/150 73/44/150
f 59/45/151 78/10/151 87/31/151
f 62/17/36 86/18/76 84/1/76
f 59/10/98 85/31/142 83/29/75
f 60/47/152 86/16/152 87/18/152
f 73/44/153 88/3/153 84/1/153
f 74/48/100 47/63/154 61/50/100
f 61/50/100 79/65/100 62/49/100
f 62/49/100 48/64/155 74/48/100
f 111/30/24 109/58/24 117/53/24
f 96/55/36 100/46/36 98/17/36
f 92/57/36 96/56/36 94/17/36
f 90/43/101 94/60/101 93/58/101
f 91/43/102 95/60/102 96/58/102
f 91/56/24 89/17/24 93/51/24
f 99/46/103 103/55/103 104/59/103
f 94/2/104 98/59/104 97/60/104
f 95/2/105 99/59/105 100/60/105
f 95/56/24 93/55/24 97/46/24
f 104/60/36 108/43/36 106/2/36
f 99/55/24 97/59/24 101/2/24
f 100/59/36 104/2/36 102/46/36
f 98/46/106 102/55/106 101/59/106
f 108/30/36 112/43/36 110/60/36
f 102/17/107 106/56/107 105/55/107
f 103/17/108 107/56/108 108/55/108
f 103/59/24 101/60/24 105/43/24
f 111/40/110 119/38/110 120/57/110
f 105/17/112 106/51/112 110/57/112
f 107/51/113 111/57/109 112/56/111
f 107/43/24 105/60/24 109/58/24
f 92/57/36 90/51/36 114/40/36
f 89/53/114 113/54/114 114/30/114
f 112/54/36 120/30/36 118/58/36
f 110/40/115 118/38/115 117/57/115
f 92/53/116 116/54/116 115/30/116
f 91/38/24 115/57/24 113/51/24
