# Blender 5.0.1
# www.blender.org
mtllib CeilingLightBulb.mtl
o CeilingLightBulb
v -0.000000 -0.036311 -0.019061
v -0.000000 -0.100628 -0.026207
v -0.000000 -0.111483 0.000000
v 0.018128 -0.036311 -0.005890
v 0.031257 -0.079724 -0.010156
v 0.024924 -0.100628 -0.008098
v 0.011204 -0.036311 0.015421
v 0.019318 -0.079724 0.026589
v 0.015404 -0.100628 0.021202
v -0.011204 -0.036311 0.015421
v -0.019318 -0.079724 0.026589
v -0.015404 -0.100628 0.021202
v -0.018128 -0.036311 -0.005890
v -0.031257 -0.079724 -0.010156
v -0.024924 -0.100628 -0.008098
v 0.000000 -0.079724 -0.032865
v -0.000000 -0.034695 -0.021050
v 0.020019 -0.034695 -0.006505
v 0.012373 -0.034695 0.017029
v -0.012373 -0.034695 0.017029
v -0.020019 -0.034695 -0.006505
v -0.000000 -0.000000 -0.021050
v 0.020019 -0.000000 -0.006505
v 0.012373 -0.000000 0.017029
v -0.012373 -0.000000 0.017029
v -0.020019 -0.000000 -0.006505
v 0.000000 -0.000438 -0.005000
v 0.000000 0.217622 -0.005000
v 0.004755 -0.000438 -0.001545
v 0.004755 0.217622 -0.001545
v 0.002939 -0.000438 0.004045
v 0.002939 0.217622 0.004045
v -0.002939 -0.000438 0.004045
v -0.002939 0.217622 0.004045
v -0.004755 -0.000438 -0.001545
v -0.004755 0.217622 -0.001545
vn 0.5692 -0.2495 -0.7834
vn 0.2679 -0.8901 -0.3687
vn 0.5693 0.2491 -0.7835
vn 0.9210 -0.2495 0.2992
vn 0.4334 -0.8901 0.1408
vn 0.9211 0.2491 0.2993
vn -0.0000 -0.2495 0.9684
vn -0.0000 -0.8901 0.4557
vn -0.0000 0.2491 0.9685
vn -0.9210 -0.2495 0.2992
vn -0.4334 -0.8901 0.1408
vn -0.9211 0.2491 0.2993
vn -0.5693 0.2491 -0.7835
vn -0.5692 -0.2495 -0.7834
vn -0.2679 -0.8901 -0.3687
vn -0.6741 -0.7054 0.2190
vn -0.4166 -0.7054 -0.5734
vn 0.4166 -0.7054 -0.5734
vn 0.6741 -0.7054 0.2190
vn -0.0000 -0.7054 0.7088
vn -0.5878 -0.0000 -0.8090
vn -0.0000 -0.0000 1.0000
vn 0.5878 -0.0000 -0.8090
vn -0.9511 -0.0000 0.3090
vn 0.9511 -0.0000 0.3090
vn -0.0000 -1.0000 -0.0000
vn -0.0000 1.0000 -0.0000
vt 0.269963 0.134793
vt 0.327945 0.169700
vt 0.276499 0.169700
vt 0.179405 0.213964
vt 0.135642 0.213964
vt 0.165882 0.172344
vt 0.283513 0.062300
vt 0.334480 0.134793
vt 0.001322 0.134793
vt 0.059303 0.169700
vt 0.007857 0.169700
vt 0.214810 0.188241
vt 0.014871 0.062300
vt 0.065839 0.134793
vt 0.075017 0.169700
vt 0.132999 0.134793
vt 0.126464 0.169700
vt 0.214810 0.239688
vt 0.082032 0.062300
vt 0.068482 0.134793
vt 0.135642 0.134793
vt 0.193624 0.169700
vt 0.142178 0.169700
vt 0.165882 0.255585
vt 0.149192 0.062300
vt 0.200160 0.134793
vt 0.216352 0.062300
vt 0.267320 0.134793
vt 0.202803 0.134793
vt 0.209338 0.169700
vt 0.260785 0.169700
vt 0.188562 0.059600
vt 0.186610 0.062300
vt 0.255722 0.059600
vt 0.253770 0.062300
vt 0.322883 0.059600
vt 0.320931 0.062300
vt 0.052289 0.062300
vt 0.012919 0.059600
vt 0.054241 0.059600
vt 0.121401 0.059600
vt 0.119450 0.062300
vt 0.214400 0.059600
vt 0.255722 0.001664
vt 0.080080 0.059600
vt 0.121401 0.001664
vt 0.281561 0.059600
vt 0.322883 0.001664
vt 0.147240 0.059600
vt 0.188562 0.001664
vt 0.054241 0.001664
vt 0.036908 0.172344
vt 0.036908 0.232887
vt 0.001322 0.221324
vt 0.089739 0.241312
vt 0.089739 0.182693
vt 0.124194 0.193888
vt 0.421875 0.171875
vt 0.406250 0.000000
vt 0.421875 0.000000
vt 0.406250 0.171875
vt 0.390625 0.000000
vt 0.468750 0.171875
vt 0.453125 0.000000
vt 0.468750 0.000000
vt 0.453125 0.171875
vt 0.437500 0.000000
vt 0.437500 0.171875
vt 0.214400 0.001664
vt 0.080080 0.001664
vt 0.281561 0.001664
vt 0.147240 0.001664
vt 0.012919 0.001664
vt 0.001322 0.183906
vt 0.058902 0.202615
vt 0.124194 0.230116
vt 0.068444 0.212002
vt 0.390625 0.171875
s 0
usemtl 64x64grid
f 10/25/16 21/32/16 13/33/16
f 13/27/17 17/34/17 1/35/17
f 1/7/18 18/36/18 4/37/18
f 7/38/19 18/39/19 19/40/19
f 7/19/20 20/41/20 10/42/20
f 21/43/21 22/44/21 17/34/21
f 19/45/22 25/46/22 20/41/22
f 17/47/23 23/48/23 18/36/23
f 20/49/24 26/50/24 21/32/24
f 18/39/25 24/51/25 19/40/25
f 7/52/26 13/53/26 1/54/26
f 22/55/27 25/56/27 24/57/27
f 10/25/16 20/49/16 21/32/16
f 13/27/17 21/43/17 17/34/17
f 1/7/18 17/47/18 18/36/18
f 7/38/19 4/13/19 18/39/19
f 7/19/20 19/45/20 20/41/20
f 21/43/21 26/69/21 22/44/21
f 19/45/22 24/70/22 25/46/22
f 17/47/23 22/71/23 23/48/23
f 20/49/24 25/72/24 26/50/24
f 18/39/25 23/73/25 24/51/25
f 1/54/26 4/74/26 7/52/26
f 7/52/26 10/75/26 13/53/26
f 24/57/27 23/76/27 22/55/27
f 22/55/27 26/77/27 25/56/27
usemtl 64x64grid
f 16/1/1 6/2/1 2/3/1
f 3/4/2 2/5/2 6/6/2
f 1/7/3 5/8/3 16/1/3
f 5/9/4 9/10/4 6/11/4
f 3/4/5 6/6/5 9/12/5
f 4/13/6 8/14/6 5/9/6
f 9/15/7 11/16/7 12/17/7
f 3/4/8 9/12/8 12/18/8
f 7/19/9 11/16/9 8/20/9
f 11/21/10 15/22/10 12/23/10
f 3/4/11 12/18/11 15/24/11
f 10/25/12 14/26/12 11/21/12
f 13/27/13 16/28/13 14/29/13
f 15/30/14 16/28/14 2/31/14
f 3/4/15 15/24/15 2/5/15
f 16/1/1 5/8/1 6/2/1
f 1/7/3 4/37/3 5/8/3
f 5/9/4 8/14/4 9/10/4
f 4/13/6 7/38/6 8/14/6
f 9/15/7 8/20/7 11/16/7
f 7/19/9 10/42/9 11/16/9
f 11/21/10 14/26/10 15/22/10
f 10/25/12 13/33/12 14/26/12
f 13/27/13 1/35/13 16/28/13
f 15/30/14 14/29/14 16/28/14
usemtl 64x64grid
f 28/58/23 29/59/23 27/60/23
f 30/61/25 31/62/25 29/59/25
f 32/63/22 33/64/22 31/65/22
f 34/66/24 35/67/24 33/64/24
f 36/68/21 27/60/21 35/67/21
f 28/58/23 30/61/23 29/59/23
f 30/61/25 32/78/25 31/62/25
f 32/63/22 34/66/22 33/64/22
f 34/66/24 36/68/24 35/67/24
f 36/68/21 28/58/21 27/60/21
