# Blender 5.0.1
# www.blender.org
mtllib BrokenBigCardboardBox02.mtl
o BrokenBigCardboardBox02
v -0.204866 -0.003415 0.203369
v -0.207673 0.394617 0.166467
v -0.218761 0.007267 -0.219021
v -0.182027 0.403216 -0.176444
v 0.220246 0.014051 0.215849
v 0.219986 0.378558 0.189692
v 0.215188 0.023870 -0.195673
v 0.203387 0.399602 -0.197223
v -0.206075 -0.020881 -0.106658
v -0.199621 0.002931 0.005820
v -0.208996 0.004737 0.064462
v -0.202612 0.104265 0.198978
v -0.199454 0.200707 0.200498
v -0.204420 0.299637 0.195682
v -0.194093 0.408133 0.113987
v -0.202514 0.424188 -0.018908
v -0.201726 0.415873 -0.123254
v -0.214224 0.295098 -0.206698
v -0.182851 0.192466 -0.192718
v -0.183831 0.096274 -0.217797
v 0.088458 -0.004903 -0.186348
v 0.025513 0.027334 -0.191119
v -0.096531 -0.011752 -0.195708
v -0.109231 0.412702 -0.202676
v -0.025910 0.394016 -0.229052
v 0.102003 0.395094 -0.202804
v 0.198965 0.297675 -0.200223
v 0.222438 0.180822 -0.210775
v 0.203768 0.089543 -0.202055
v 0.184999 0.004353 0.092166
v 0.200163 -0.000617 -0.000954
v 0.214658 0.003504 -0.118212
v 0.185698 0.425747 -0.095023
v 0.179531 0.387394 0.019530
v 0.202426 0.410329 0.094105
v 0.195575 0.293301 0.212192
v 0.197750 0.204183 0.196040
v 0.220200 0.108059 0.196444
v -0.098184 0.009923 0.185910
v 0.000053 -0.000009 0.200008
v 0.077756 -0.019711 0.223022
v 0.099668 0.400000 0.199511
v -0.012284 0.427882 0.184717
v -0.125273 0.395047 0.218238
v 0.075847 0.383622 -0.115677
v 0.087280 0.384244 -0.003100
v 0.119661 0.401183 0.111205
v 0.014491 0.380219 -0.108685
v -0.000246 0.391111 0.000383
v -0.025368 0.388785 0.097796
v -0.113763 0.391964 -0.120471
v -0.095444 0.374357 0.008087
v -0.115302 0.421803 0.082260
v -0.123636 0.003860 -0.102781
v -0.100687 0.002500 0.034659
v -0.097920 -0.023193 0.075521
v -0.001131 0.000245 -0.105160
v 0.018509 -0.002739 0.006787
v 0.001189 0.000474 0.100590
v 0.106004 0.019199 -0.111764
v 0.100671 0.012420 -0.019935
v 0.076559 -0.027927 0.111838
v 0.079010 0.105061 0.200243
v -0.012806 0.125588 0.201703
v -0.126605 0.092174 0.187687
v 0.116890 0.203768 0.213451
v -0.001848 0.203033 0.207060
v -0.112579 0.206261 0.220002
v 0.094051 0.288845 0.213382
v -0.018041 0.301339 0.222303
v -0.115446 0.313050 0.215282
v 0.199412 0.127650 -0.121221
v 0.186666 0.098273 0.007139
v 0.196399 0.096221 0.085836
v 0.212153 0.189070 -0.104111
v 0.202227 0.200652 0.029035
v 0.219884 0.200416 0.101063
v 0.212002 0.271529 -0.085850
v 0.216479 0.295436 -0.013573
v 0.196611 0.292710 0.115693
v -0.106375 0.111860 -0.227509
v -0.001982 0.097137 -0.200879
v 0.065682 0.090826 -0.184656
v -0.103898 0.198819 -0.198038
v 0.014402 0.211853 -0.212216
v 0.133041 0.194639 -0.216642
v -0.101050 0.314087 -0.187935
v -0.026013 0.295429 -0.229966
v 0.095585 0.294718 -0.209193
v -0.214632 0.096362 0.112443
v -0.195192 0.097479 -0.003259
v -0.208683 0.104867 -0.066112
v -0.201344 0.197268 0.106620
v -0.191201 0.205858 0.000406
v -0.200919 0.201156 -0.089390
v -0.199983 0.296424 0.088680
v -0.201644 0.304162 -0.027340
v -0.190252 0.304016 -0.111950
vn -0.9501 0.2215 0.2195
vn 0.0847 0.0579 -0.9947
vn 0.9621 -0.2723 0.0120
vn -0.2061 -0.0599 0.9767
vn 0.2958 -0.9529 0.0672
vn -0.0950 0.9780 0.1855
vn -0.0381 0.9461 0.3215
vn 0.2330 0.9703 0.0657
vn 0.3757 0.8227 -0.4266
vn -0.0291 0.9672 -0.2525
vn -0.1084 0.9444 0.3104
vn -0.1565 0.9565 -0.2461
vn -0.0416 0.9921 0.1182
vn -0.0554 0.9985 0.0001
vn -0.0729 0.9894 -0.1260
vn 0.0830 0.9928 0.0859
vn -0.1816 0.9758 -0.1220
vn -0.1750 0.9843 -0.0216
vn -0.0390 0.9694 0.2424
vn 0.4071 0.9109 0.0667
vn 0.4674 0.7962 -0.3842
vn 0.1139 -0.9916 -0.0616
vn 0.1541 -0.9463 0.2843
vn -0.3515 -0.9362 -0.0086
vn -0.1066 -0.9673 -0.2303
vn 0.2746 -0.9438 0.1840
vn -0.0127 -0.9995 0.0288
vn -0.0260 -0.9871 0.1582
vn -0.0296 -0.9996 -0.0049
vn 0.3206 -0.7919 -0.5197
vn 0.1533 -0.9551 -0.2535
vn 0.1638 -0.9850 -0.0550
vn -0.3482 -0.9369 -0.0322
vn 0.2318 -0.9403 0.2493
vn -0.1145 -0.9902 -0.0797
vn 0.2355 -0.9405 -0.2449
vn 0.1574 0.0331 0.9870
vn 0.1437 -0.0203 0.9894
vn -0.2211 0.0364 0.9746
vn 0.0070 0.1795 0.9837
vn -0.2380 0.1767 0.9550
vn -0.1448 -0.0282 0.9891
vn 0.0297 -0.1437 0.9892
vn 0.0004 -0.0691 0.9976
vn -0.0399 -0.2678 0.9627
vn 0.2083 -0.1695 0.9633
vn -0.0537 -0.0136 0.9985
vn 0.1112 -0.1344 0.9847
vn 0.0062 0.1235 0.9923
vn 0.0919 0.1187 0.9887
vn -0.0772 -0.0452 0.9960
vn 0.9614 -0.0552 -0.2696
vn 0.9638 -0.1899 -0.1871
vn 0.9546 0.2068 0.2143
vn 0.9829 0.1761 0.0530
vn 0.9842 0.1240 0.1260
vn 0.9807 0.1213 0.1532
vn 0.9726 -0.1856 0.1399
vn 0.9753 -0.2156 0.0475
vn 0.9845 -0.1229 -0.1250
vn 0.9787 0.1894 0.0797
vn 0.9970 -0.0149 0.0756
vn 0.9349 0.2719 -0.2283
vn 0.9837 0.1633 -0.0748
vn 0.9805 0.1605 -0.1138
vn 0.9349 0.3215 0.1505
vn -0.0492 -0.1051 -0.9932
vn -0.1240 -0.2178 -0.9681
vn 0.0814 0.1058 -0.9910
vn 0.1786 -0.0566 -0.9823
vn 0.0725 -0.1100 -0.9913
vn 0.0961 0.0404 -0.9946
vn -0.1699 0.2502 -0.9532
vn 0.2754 0.3015 -0.9128
vn 0.2200 -0.1270 -0.9672
vn -0.0741 0.0889 -0.9933
vn -0.0884 -0.2476 -0.9648
vn -0.0280 0.0638 -0.9976
vn 0.1207 0.2340 -0.9647
vn -0.4870 0.0086 -0.8733
vn 0.1684 0.0090 -0.9857
vn -0.9144 0.3562 0.1925
vn -0.9850 0.0529 -0.1644
vn -0.9822 0.0630 -0.1770
vn -0.9969 -0.0746 0.0253
vn -0.9868 0.0310 -0.1587
vn -0.9969 -0.0420 0.0661
vn -0.9828 0.1366 0.1241
vn -0.9793 0.1195 -0.1634
vn -0.9766 0.0288 0.2130
vn -0.9986 -0.0490 0.0219
vn -0.9954 -0.0036 -0.0953
vn -0.9911 -0.0739 0.1111
vn -0.9981 -0.0465 -0.0400
vn -0.9999 -0.0082 0.0138
vn -0.9846 -0.1144 -0.1324
vn -0.9396 -0.1285 -0.3174
vn 0.0537 0.0270 -0.9982
vn 0.9744 -0.0863 -0.2077
vn -0.5180 0.2352 0.8224
vn 0.2310 -0.9729 0.0104
vn -0.1390 0.9671 0.2131
vn 0.1794 0.9823 0.0538
vn -0.0407 0.9135 -0.4048
vn -0.2275 0.9585 0.1719
vn -0.3604 0.9327 0.0146
vn -0.3631 0.9312 0.0317
vn 0.0023 0.9891 -0.1472
vn -0.0340 0.9916 0.1251
vn 0.0744 0.9932 -0.0891
vn 0.0799 0.9958 0.0444
vn 0.2864 0.9252 0.2492
vn 0.0792 0.9891 0.1242
vn 0.3757 0.8231 -0.4259
vn 0.2639 0.9558 -0.1297
vn 0.2638 0.9617 -0.0746
vn -0.1199 0.9847 0.1266
vn -0.2602 -0.9250 0.2769
vn -0.0997 -0.9950 -0.0060
vn -0.2656 -0.9612 0.0739
vn 0.2692 -0.9339 0.2354
vn -0.0015 -1.0000 -0.0096
vn -0.1598 -0.8405 -0.5177
vn 0.3057 -0.9312 -0.1987
vn -0.0481 -0.9987 -0.0182
vn -0.0375 -0.9989 0.0273
vn -0.4457 -0.8158 0.3685
vn 0.1701 -0.9834 -0.0627
vn 0.0864 -0.9569 -0.2772
vn -0.1530 -0.9555 -0.2523
vn -0.1458 -0.9879 -0.0527
vn -0.1356 -0.9903 0.0308
vn 0.1526 0.0371 0.9876
vn -0.1975 -0.2446 0.9493
vn -0.2203 0.0372 0.9747
vn 0.0221 0.2021 0.9791
vn 0.0132 -0.0121 0.9998
vn -0.1053 -0.0578 0.9928
vn 0.2099 0.0531 0.9763
vn -0.0527 -0.1125 0.9922
vn 0.1132 -0.0845 0.9900
vn 0.0115 0.0039 0.9999
vn 0.0627 -0.1428 0.9878
vn -0.0668 0.0423 0.9969
vn 0.1185 0.2215 0.9679
vn -0.0550 0.2866 0.9565
vn 0.2007 0.2705 0.9416
vn 0.9717 -0.1340 -0.1947
vn 0.9513 0.2231 0.2128
vn 0.9997 0.0225 0.0106
vn 0.9925 0.1218 -0.0039
vn 0.9842 0.1239 0.1261
vn 0.9835 -0.1307 -0.1250
vn 0.9665 -0.2314 0.1111
vn 0.9819 -0.1680 0.0878
vn 0.9551 -0.1810 -0.2347
vn 0.9939 0.0256 -0.1074
vn 0.9881 -0.1533 -0.0105
vn 0.9854 -0.0808 0.1498
vn 0.9821 -0.0480 0.1823
vn 0.9347 0.3190 0.1571
vn 0.9594 -0.0961 -0.2650
vn -0.1251 -0.0122 -0.9921
vn 0.0490 -0.1049 -0.9933
vn 0.0830 0.1048 -0.9910
vn -0.0699 -0.2538 -0.9647
vn 0.2104 -0.2278 -0.9507
vn 0.2289 -0.0458 -0.9724
vn -0.0894 0.3220 -0.9425
vn -0.1097 -0.0822 -0.9906
vn -0.0724 -0.2505 -0.9654
vn 0.1761 -0.0798 -0.9811
vn -0.4699 0.0886 -0.8783
vn 0.1663 -0.1273 -0.9778
vn -0.3151 -0.1658 -0.9344
vn -0.3313 -0.1663 -0.9288
vn 0.2004 0.0495 -0.9785
vn -0.9860 0.0322 -0.1634
vn -0.9838 0.0370 -0.1751
vn -0.9329 -0.2498 0.2595
vn -0.9905 0.0263 0.1352
vn -0.9859 0.0260 -0.1654
vn -0.9739 0.0664 0.2169
vn -0.9993 0.0324 0.0189
vn -0.9950 0.0397 -0.0918
vn -0.9893 0.1043 0.1016
vn -0.9991 0.0062 -0.0416
vn -0.9946 -0.1036 0.0073
vn -0.9884 0.0733 -0.1332
vn -0.9691 0.1020 -0.2245
vn -0.9970 0.0372 0.0677
vn -1.0000 -0.0068 -0.0070
vt 0.078125 0.234375
vt 0.000000 0.312500
vt 0.000000 0.234375
vt 0.421875 0.656250
vt 0.343750 0.578125
vt 0.421875 0.578125
vt 0.765625 0.234375
vt 0.687500 0.312500
vt 0.687500 0.234375
vt 0.078125 0.656250
vt 0.000000 0.578125
vt 0.078125 0.578125
vt 0.343750 0.421875
vt 0.421875 0.343750
vt 0.421875 0.421875
vt 0.343750 0.765625
vt 0.421875 0.687500
vt 0.421875 0.765625
vt 0.578125 0.765625
vt 0.656250 0.687500
vt 0.656250 0.765625
vt 0.500000 0.687500
vt 0.578125 0.687500
vt 0.500000 0.765625
vt 0.578125 1.000000
vt 0.656250 0.921875
vt 0.656250 1.000000
vt 0.578125 0.843750
vt 0.656250 0.843750
vt 0.500000 0.921875
vt 0.578125 0.921875
vt 0.500000 1.000000
vt 0.421875 0.921875
vt 0.421875 0.843750
vt 0.500000 0.843750
vt 0.343750 1.000000
vt 0.421875 1.000000
vt 0.343750 0.843750
vt 0.656250 0.421875
vt 0.578125 0.343750
vt 0.656250 0.343750
vt 0.500000 0.421875
vt 0.578125 0.421875
vt 0.500000 0.343750
vt 0.578125 0.656250
vt 0.656250 0.578125
vt 0.656250 0.656250
vt 0.578125 0.578125
vt 0.656250 0.500000
vt 0.578125 0.500000
vt 0.500000 0.578125
vt 0.500000 0.656250
vt 0.421875 0.500000
vt 0.500000 0.500000
vt 0.343750 0.656250
vt 0.343750 0.500000
vt 0.078125 0.421875
vt 0.000000 0.343750
vt 0.078125 0.343750
vt 0.000000 0.500000
vt 0.000000 0.421875
vt 0.078125 0.500000
vt 0.312500 0.343750
vt 0.234375 0.421875
vt 0.234375 0.343750
vt 0.156250 0.343750
vt 0.156250 0.421875
vt 0.312500 0.421875
vt 0.234375 0.500000
vt 0.156250 0.500000
vt 0.312500 0.578125
vt 0.312500 0.500000
vt 0.234375 0.578125
vt 0.156250 0.578125
vt 0.234375 0.656250
vt 0.765625 0.000000
vt 0.687500 0.078125
vt 0.687500 0.000000
vt 0.765625 0.156250
vt 0.765625 0.078125
vt 0.687500 0.156250
vt 1.000000 0.078125
vt 0.921875 0.000000
vt 1.000000 0.000000
vt 0.843750 0.078125
vt 0.843750 0.000000
vt 1.000000 0.156250
vt 0.921875 0.078125
vt 0.921875 0.156250
vt 0.843750 0.156250
vt 1.000000 0.234375
vt 0.921875 0.234375
vt 0.921875 0.312500
vt 0.843750 0.234375
vt 0.843750 0.312500
vt 0.343750 0.343750
vt 0.421875 0.500000
vt 0.656250 0.500000
vt 0.578125 0.500000
vt 0.500000 0.500000
vt 0.078125 0.000000
vt 0.000000 0.078125
vt 0.000000 0.000000
vt 0.078125 0.078125
vt 0.000000 0.156250
vt 0.078125 0.156250
vt 0.312500 0.000000
vt 0.234375 0.078125
vt 0.234375 0.000000
vt 0.156250 0.078125
vt 0.156250 0.000000
vt 0.312500 0.078125
vt 0.234375 0.156250
vt 0.156250 0.156250
vt 0.312500 0.234375
vt 0.312500 0.156250
vt 0.234375 0.234375
vt 0.156250 0.234375
vt 0.312500 0.312500
vt 0.156250 0.312500
vt 0.078125 0.312500
vt 0.765625 0.312500
vt 0.000000 0.656250
vt 0.343750 0.687500
vt 0.343750 0.921875
vt 0.312500 0.656250
vt 0.156250 0.656250
vt 1.000000 0.312500
vt 0.234375 0.312500
s 0
usemtl CardboardBox
f 98/1/1 4/2/1 18/3/1
f 26/4/2 27/5/2 89/6/2
f 80/7/3 6/8/3 36/9/3
f 44/10/4 14/11/4 71/12/4
f 30/13/5 41/14/5 62/15/5
f 15/16/6 44/17/6 53/18/6
f 47/19/7 6/20/7 35/21/7
f 47/19/8 43/22/8 42/23/8
f 53/18/9 43/22/9 50/24/9
f 26/25/10 33/26/10 8/27/10
f 33/26/11 46/28/11 34/29/11
f 34/29/12 47/19/12 35/21/12
f 26/25/13 48/30/13 45/31/13
f 48/30/14 46/28/14 45/31/14
f 46/28/15 50/24/15 47/19/15
f 25/32/16 51/33/16 48/30/16
f 48/30/17 52/34/17 49/35/17
f 52/34/18 50/24/18 49/35/18
f 4/36/19 51/33/19 24/37/19
f 51/33/20 16/38/20 52/34/20
f 16/38/21 53/18/21 52/34/21
f 11/39/22 39/40/22 1/41/22
f 59/42/23 39/40/23 56/43/23
f 62/15/24 40/44/24 59/42/24
f 23/45/25 9/46/25 3/47/25
f 54/48/26 10/49/26 9/46/26
f 55/50/27 11/39/27 10/49/27
f 23/45/28 57/51/28 54/48/28
f 57/51/29 55/50/29 54/48/29
f 55/50/30 59/42/30 56/43/30
f 22/52/31 60/6/31 57/51/31
f 57/51/32 61/53/32 58/54/32
f 58/54/33 62/15/33 59/42/33
f 7/55/34 60/6/34 21/4/34
f 60/6/35 31/56/35 61/53/35
f 61/53/36 30/13/36 62/15/36
f 65/57/37 1/58/37 39/59/37
f 65/57/38 13/60/38 12/61/38
f 68/62/39 14/11/39 13/60/39
f 5/63/40 63/64/40 41/65/40
f 63/64/41 40/66/41 41/65/41
f 64/67/42 39/59/42 40/66/42
f 38/68/43 66/69/43 63/64/43
f 63/64/44 67/70/44 64/67/44
f 64/67/45 68/62/45 65/57/45
f 36/71/46 66/69/46 37/72/46
f 69/73/47 67/70/47 66/69/47
f 70/74/48 68/62/48 67/70/48
f 36/71/49 42/75/49 69/73/49
f 42/75/50 70/74/50 69/73/50
f 70/74/51 44/10/51 71/12/51
f 30/76/52 38/77/52 5/78/52
f 77/79/53 38/77/53 74/80/53
f 80/7/54 37/81/54 77/79/54
f 29/82/55 32/83/55 7/84/55
f 32/83/56 73/85/56 31/86/56
f 73/85/57 30/76/57 31/86/57
f 28/87/58 72/88/58 29/82/58
f 75/89/59 73/85/59 72/88/59
f 76/90/60 74/80/60 73/85/60
f 27/91/61 75/89/61 28/87/61
f 78/92/62 76/90/62 75/89/62
f 76/90/63 80/7/63 77/79/63
f 27/91/64 33/93/64 78/92/64
f 33/93/65 79/94/65 78/92/65
f 34/95/66 80/7/66 79/94/66
f 21/14/67 29/13/67 7/96/67
f 86/97/68 29/13/68 83/15/68
f 86/97/69 27/5/69 28/56/69
f 20/39/70 23/40/70 3/41/70
f 23/40/71 82/42/71 22/44/71
f 22/44/72 83/15/72 21/14/72
f 19/98/73 81/43/73 20/39/73
f 84/99/74 82/42/74 81/43/74
f 85/100/75 83/15/75 82/42/75
f 19/98/76 87/48/76 84/99/76
f 84/99/77 88/51/77 85/100/77
f 85/100/78 89/6/78 86/97/78
f 4/47/79 87/48/79 18/46/79
f 87/48/80 25/52/80 88/51/80
f 25/52/81 89/6/81 88/51/81
f 9/101/82 20/102/82 3/103/82
f 92/104/83 19/105/83 20/102/83
f 98/1/84 19/105/84 95/106/84
f 1/107/85 90/108/85 11/109/85
f 11/109/86 91/110/86 10/111/86
f 10/111/87 92/104/87 9/101/87
f 12/112/88 93/113/88 90/108/88
f 93/113/89 91/110/89 90/108/89
f 94/114/90 92/104/90 91/110/90
f 14/115/91 93/113/91 13/116/91
f 96/117/92 94/114/92 93/113/92
f 97/118/93 95/106/93 94/114/93
f 2/119/94 96/117/94 14/115/94
f 96/117/95 16/120/95 97/118/95
f 97/118/96 17/121/96 98/1/96
f 98/1/97 17/121/97 4/2/97
f 26/4/98 8/55/98 27/5/98
f 80/7/99 35/122/99 6/8/99
f 44/10/100 2/123/100 14/11/100
f 30/13/101 5/96/101 41/14/101
f 15/16/102 2/124/102 44/17/102
f 47/19/103 42/23/103 6/20/103
f 47/19/104 50/24/104 43/22/104
f 53/18/105 44/17/105 43/22/105
f 26/25/106 45/31/106 33/26/106
f 33/26/107 45/31/107 46/28/107
f 34/29/108 46/28/108 47/19/108
f 26/25/109 25/32/109 48/30/109
f 48/30/110 49/35/110 46/28/110
f 46/28/111 49/35/111 50/24/111
f 25/32/112 24/37/112 51/33/112
f 48/30/113 51/33/113 52/34/113
f 52/34/114 53/18/114 50/24/114
f 4/36/115 17/125/115 51/33/115
f 51/33/116 17/125/116 16/38/116
f 16/38/117 15/16/117 53/18/117
f 11/39/118 56/43/118 39/40/118
f 59/42/119 40/44/119 39/40/119
f 62/15/120 41/14/120 40/44/120
f 23/45/121 54/48/121 9/46/121
f 54/48/122 55/50/122 10/49/122
f 55/50/123 56/43/123 11/39/123
f 23/45/124 22/52/124 57/51/124
f 57/51/125 58/54/125 55/50/125
f 55/50/126 58/54/126 59/42/126
f 22/52/127 21/4/127 60/6/127
f 57/51/128 60/6/128 61/53/128
f 58/54/129 61/53/129 62/15/129
f 7/55/130 32/5/130 60/6/130
f 60/6/131 32/5/131 31/56/131
f 61/53/132 31/56/132 30/13/132
f 65/57/133 12/61/133 1/58/133
f 65/57/134 68/62/134 13/60/134
f 68/62/135 71/12/135 14/11/135
f 5/63/136 38/68/136 63/64/136
f 63/64/137 64/67/137 40/66/137
f 64/67/138 65/57/138 39/59/138
f 38/68/139 37/72/139 66/69/139
f 63/64/140 66/69/140 67/70/140
f 64/67/141 67/70/141 68/62/141
f 36/71/142 69/73/142 66/69/142
f 69/73/143 70/74/143 67/70/143
f 70/74/144 71/12/144 68/62/144
f 36/71/145 6/126/145 42/75/145
f 42/75/146 43/127/146 70/74/146
f 70/74/147 43/127/147 44/10/147
f 30/76/148 74/80/148 38/77/148
f 77/79/149 37/81/149 38/77/149
f 80/7/150 36/9/150 37/81/150
f 29/82/151 72/88/151 32/83/151
f 32/83/152 72/88/152 73/85/152
f 73/85/153 74/80/153 30/76/153
f 28/87/154 75/89/154 72/88/154
f 75/89/155 76/90/155 73/85/155
f 76/90/156 77/79/156 74/80/156
f 27/91/157 78/92/157 75/89/157
f 78/92/158 79/94/158 76/90/158
f 76/90/159 79/94/159 80/7/159
f 27/91/160 8/128/160 33/93/160
f 33/93/161 34/95/161 79/94/161
f 34/95/162 35/122/162 80/7/162
f 21/14/163 83/15/163 29/13/163
f 86/97/164 28/56/164 29/13/164
f 86/97/165 89/6/165 27/5/165
f 20/39/166 81/43/166 23/40/166
f 23/40/167 81/43/167 82/42/167
f 22/44/168 82/42/168 83/15/168
f 19/98/169 84/99/169 81/43/169
f 84/99/170 85/100/170 82/42/170
f 85/100/171 86/97/171 83/15/171
f 19/98/172 18/46/172 87/48/172
f 84/99/173 87/48/173 88/51/173
f 85/100/174 88/51/174 89/6/174
f 4/47/175 24/45/175 87/48/175
f 87/48/176 24/45/176 25/52/176
f 25/52/177 26/4/177 89/6/177
f 9/101/178 92/104/178 20/102/178
f 92/104/179 95/106/179 19/105/179
f 98/1/180 18/3/180 19/105/180
f 1/107/181 12/112/181 90/108/181
f 11/109/182 90/108/182 91/110/182
f 10/111/183 91/110/183 92/104/183
f 12/112/184 13/116/184 93/113/184
f 93/113/185 94/114/185 91/110/185
f 94/114/186 95/106/186 92/104/186
f 14/115/187 96/117/187 93/113/187
f 96/117/188 97/118/188 94/114/188
f 97/118/189 98/1/189 95/106/189
f 2/119/190 15/129/190 96/117/190
f 96/117/191 15/129/191 16/120/191
f 97/118/192 16/120/192 17/121/192
