# Blender 5.0.1
# www.blender.org
mtllib ShoeL-col.mtl
o ShoeL-col
v -0.141762 0.000000 0.047269
v -0.139465 0.086745 0.047269
v -0.141762 0.000000 -0.047269
v -0.139465 0.086745 -0.047269
v 0.150667 0.000000 0.052281
v 0.148443 0.053764 0.052281
v 0.147458 0.000000 -0.042396
v 0.145234 0.053764 -0.042396
v 0.008556 0.000000 0.049775
v 0.006952 0.000000 -0.055265
v -0.021073 0.104019 0.049775
v -0.022677 0.104019 -0.055265
vn -0.0000 -1.0000 -0.0000
vn 0.2870 0.9579 -0.0044
vn -0.9996 0.0265 -0.0000
vn 0.9986 0.0413 -0.0338
vn 0.0912 0.0038 -0.9958
vn -0.0167 -0.0047 0.9998
vn -0.0176 -0.0007 0.9998
vn -0.0537 -0.0153 -0.9984
vn -0.1444 0.9895 -0.0000
vn 0.2844 0.9587 -0.0096
vn 0.0835 0.0238 -0.9962
vn -0.0212 0.0006 0.9998
vn -0.0161 -0.0046 0.9999
vn -0.0686 0.0018 -0.9976
vn -0.1462 0.9893 0.0022
vt 0.000000 0.000000
s 0
usemtl Shoe
f 9/1/1 7/1/1 5/1/1
f 11/1/2 8/1/2 12/1/2
f 2/1/3 3/1/3 1/1/3
f 7/1/4 6/1/4 5/1/4
f 10/1/5 8/1/5 7/1/5
f 11/1/6 1/1/6 9/1/6
f 6/1/7 9/1/7 5/1/7
f 3/1/8 12/1/8 10/1/8
f 11/1/9 4/1/9 2/1/9
f 3/1/1 9/1/1 1/1/1
f 9/1/1 10/1/1 7/1/1
f 11/1/10 6/1/10 8/1/10
f 2/1/3 4/1/3 3/1/3
f 7/1/4 8/1/4 6/1/4
f 10/1/11 12/1/11 8/1/11
f 11/1/12 2/1/12 1/1/12
f 6/1/13 11/1/13 9/1/13
f 3/1/14 4/1/14 12/1/14
f 11/1/15 12/1/15 4/1/15
f 3/1/1 10/1/1 9/1/1
