# Blender 5.0.1
# www.blender.org
mtllib ShoeR.mtl
o ShoeR
v -0.116097 0.000000 -0.047269
v -0.116097 0.076855 -0.047269
v -0.116097 0.000000 0.047269
v -0.116097 0.076855 0.047269
v 0.133209 0.000000 -0.052281
v 0.126653 0.044644 -0.052281
v 0.130000 0.000000 0.042396
v 0.123444 0.044644 0.042396
v 0.076340 -0.002669 0.055476
v 0.012833 0.000000 0.051224
v -0.026925 0.005376 0.044178
v -0.033543 0.100000 0.043120
v -0.010296 0.066882 0.045850
v 0.071584 0.046264 0.052787
v -0.026925 0.005376 -0.051347
v 0.012833 0.000000 -0.054143
v 0.088344 -0.002669 -0.055476
v 0.088807 0.049289 -0.055476
v -0.010296 0.066882 -0.050000
v -0.033543 0.100000 -0.047269
v -0.144809 0.000293 0.024376
v -0.144809 0.000293 -0.024376
v -0.130844 0.087542 -0.021386
v -0.130844 0.087542 0.021386
v 0.153077 0.000293 -0.028065
v 0.149868 0.000293 0.018180
v 0.143312 0.053175 0.018180
v 0.146521 0.053175 -0.028065
v 0.088702 0.051703 0.024820
v 0.093172 0.051703 -0.031646
v 0.008972 0.067471 0.025784
v 0.008972 0.067471 -0.029454
v -0.029752 0.110687 0.021386
v -0.029752 0.110687 -0.021386
v -0.027710 0.005669 0.024376
v -0.027710 0.005669 -0.024376
v 0.014342 0.000293 0.025784
v 0.014342 0.000293 -0.029454
v 0.096273 -0.002344 0.024820
v 0.100743 -0.002344 -0.031646
v -0.066752 0.000000 0.051606
v -0.086422 0.070168 -0.050373
v -0.086422 0.070168 0.050373
v -0.066752 0.000000 -0.054525
v -0.058933 0.000293 0.023430
v -0.058933 0.000293 -0.023430
v -0.096265 0.080856 0.036183
v -0.096265 0.080856 -0.036183
v -0.140968 0.087542 -0.028236
v -0.140968 0.087542 0.028236
v -0.019629 0.110687 0.028236
v -0.019629 0.110687 -0.028236
v -0.096265 0.080856 0.046553
v -0.096265 0.080856 -0.046553
v -0.131752 0.011506 -0.018463
v -0.131752 0.011506 0.018463
v -0.030955 0.011506 0.018463
v -0.030955 0.011506 -0.018463
v -0.096265 0.011506 0.031236
v -0.096265 0.011506 -0.031236
v -0.116097 0.018419 -0.047269
v -0.116097 0.018419 0.049385
v 0.130000 0.025000 0.041179
v 0.133209 0.025000 -0.055697
v 0.088344 0.019188 -0.058917
v 0.012892 0.030227 -0.055670
v -0.026925 0.028884 -0.053022
v -0.026925 0.028884 0.045257
v 0.012892 0.030227 0.046581
v 0.076340 0.019188 0.055917
v 0.149868 0.026234 0.018180
v 0.153077 0.026234 -0.028065
v -0.140322 0.019442 -0.026306
v -0.140322 0.019442 0.026306
v -0.072525 0.024030 0.050967
v -0.072525 0.024030 -0.054011
vn -0.6151 -0.0282 0.7879
vn 0.1987 0.1469 0.9690
vn 0.7292 0.1775 -0.6608
vn -0.1567 0.0306 -0.9872
vn 0.0524 -0.9981 -0.0309
vn -0.1349 0.7783 -0.6132
vn -0.0039 0.9442 -0.3294
vn 0.1792 0.9750 -0.1316
vn 0.6467 0.4454 -0.6192
vn 0.1701 -0.9853 0.0157
vn -0.1260 -0.9920 0.0071
vn -0.0298 -0.9991 0.0291
vn 0.0463 0.1861 -0.9814
vn -0.0261 0.1139 -0.9931
vn -0.0696 0.1093 -0.9916
vn 0.1190 0.0486 0.9917
vn -0.0857 0.0220 0.9961
vn -0.0943 -0.0398 0.9947
vn -0.0411 -0.9991 -0.0140
vn -0.0322 -0.9995 -0.0000
vn -0.1306 -0.9912 -0.0192
vn -0.1268 -0.9919 -0.0000
vn 0.1389 -0.9899 0.0282
vn 0.1697 -0.9855 -0.0000
vn 0.4984 0.4128 0.7624
vn 0.8339 0.5519 -0.0000
vn 0.2183 0.9466 0.2373
vn 0.1940 0.9810 -0.0000
vn 0.0775 0.9687 0.2358
vn -0.0272 0.9996 -0.0022
vn -0.0288 0.3128 0.9494
vn 0.3982 0.0305 0.9168
vn 0.0559 -0.9981 0.0258
vn 0.0496 -0.9988 0.0039
vn 0.7218 0.1999 0.6626
vn 0.9694 0.2359 0.0673
vn -0.6544 -0.0000 -0.7562
vn -1.0000 -0.0095 -0.0000
vn -0.0404 0.3031 0.9521
vn -0.0000 -1.0000 -0.0000
vn 0.0009 -0.9999 -0.0102
vn -0.0959 0.0360 0.9947
vn -0.0001 -0.9999 0.0126
vn -0.2812 0.9098 -0.3053
vn 0.0124 0.0818 -0.9966
vn -0.0000 1.0000 -0.0000
vn -0.4092 0.9124 -0.0000
vn 0.1899 0.9818 -0.0000
vn -0.2305 0.0315 0.9726
vn -0.9999 0.0121 -0.0000
vn 0.3982 0.0305 -0.9168
vn -0.2305 0.0315 -0.9726
vn 0.9999 -0.0119 -0.0000
vn 0.0292 -0.0711 -0.9970
vn -0.0214 -0.1141 0.9932
vn -0.9736 0.2281 -0.0000
vn 0.9976 -0.0000 0.0692
vn 0.7725 0.0309 0.6342
vn -0.1181 0.1510 0.9815
vn -0.0317 -0.0459 0.9984
vn 0.1741 0.0679 0.9824
vn -0.0768 -0.0502 -0.9958
vn -0.0229 -0.1555 -0.9876
vn 0.0883 -0.1349 -0.9869
vn -0.1455 -0.0138 -0.9893
vn 0.7731 -0.0000 -0.6343
vn 0.2377 -0.0196 0.9711
vn -0.6216 0.0670 0.7805
vn -0.6890 0.0262 0.7243
vn 0.2619 0.0277 0.9647
vn 0.7536 0.3484 -0.5574
vn -0.1040 -0.0000 -0.9946
vn 0.0607 -0.9980 -0.0179
vn -0.0288 0.3128 -0.9494
vn 0.1312 0.9836 -0.1237
vn 0.1623 0.9702 -0.1800
vn 0.5744 0.4591 -0.6777
vn 0.1357 -0.9904 -0.0248
vn -0.1326 -0.9910 0.0199
vn -0.0351 -0.9993 0.0140
vn 0.0972 0.1115 -0.9890
vn -0.0310 0.1336 -0.9905
vn -0.0026 0.0804 -0.9968
vn 0.1134 0.0404 0.9927
vn -0.0332 -0.0011 0.9994
vn -0.1294 0.0914 0.9874
vn -0.0325 -0.9990 -0.0318
vn -0.0306 -0.9995 -0.0024
vn -0.1265 -0.9919 -0.0097
vn 0.1703 -0.9852 -0.0213
vn 0.6559 0.3977 0.6415
vn 0.1887 0.9359 0.2975
vn 0.1844 0.9827 0.0146
vn 0.0166 0.9387 0.3443
vn -0.0275 0.9996 -0.0019
vn -0.1349 0.7783 0.6132
vn 0.3379 0.0670 0.9388
vn 0.0530 -0.9981 0.0314
vn 0.0501 -0.9987 0.0035
vn 0.7396 0.1800 0.6486
vn -0.6151 -0.0282 -0.7879
vn -0.2471 0.8816 0.4021
vn -0.0001 -0.9999 -0.0126
vn -0.0365 0.0019 0.9993
vn 0.0013 -1.0000 0.0091
vn -0.0904 0.2603 -0.9613
vn 0.0128 0.0825 -0.9965
vn -0.2559 0.8896 0.3782
vn -0.2559 0.8896 -0.3782
vn 0.0919 0.9865 0.1358
vn 0.0919 0.9865 -0.1358
vn -0.1915 0.0698 0.9790
vn 0.3379 0.0670 -0.9388
vn -0.1915 0.0698 -0.9790
vn 0.0742 0.0392 -0.9965
vn -0.0875 0.0054 0.9961
vn -0.6216 0.0670 -0.7805
vn 0.7567 -0.0000 0.6537
vn -0.0676 -0.0201 0.9975
vn -0.1528 0.1503 0.9768
vn 0.1289 -0.0455 0.9906
vn -0.0638 -0.0709 -0.9954
vn -0.0503 -0.0503 -0.9975
vn 0.0794 -0.1550 -0.9847
vn -0.1529 -0.0000 -0.9882
vn 0.8110 -0.0792 -0.5796
vn 0.2598 0.0470 0.9645
vn -0.6892 -0.0827 0.7198
vt 0.601753 0.012270
vt 0.741579 0.074714
vt 0.768021 0.009151
vt 0.607151 0.546571
vt 0.671965 0.656977
vt 0.673346 0.533415
vt 0.183764 0.817156
vt 0.235532 0.770970
vt 0.182976 0.755422
vt 0.494560 0.072963
vt 0.367222 0.143822
vt 0.479695 0.179406
vt 0.213401 0.135949
vt 0.263524 0.057035
vt 0.204701 0.008769
vt 0.830037 0.326437
vt 0.829038 0.357043
vt 0.865677 0.391134
vt 0.991295 0.808737
vt 0.942847 0.728398
vt 0.934876 0.853162
vt 0.998866 0.718776
vt 0.938106 0.531364
vt 0.986393 0.481815
vt 0.937852 0.437475
vt 0.193441 0.523735
vt 0.261252 0.445865
vt 0.195737 0.447765
vt 0.208074 0.345752
vt 0.271287 0.166074
vt 0.486323 0.572906
vt 0.422487 0.665585
vt 0.470442 0.682330
vt 0.461738 0.388033
vt 0.412568 0.572970
vt 0.466241 0.290697
vt 0.372658 0.330022
vt 0.627752 0.292493
vt 0.726125 0.147853
vt 0.613848 0.183175
vt 0.721181 0.331946
vt 0.801435 0.273742
vt 0.632408 0.389613
vt 0.073897 0.345752
vt 0.001773 0.195232
vt 0.012101 0.349424
vt 0.076241 0.146807
vt 0.029215 0.445865
vt 0.077315 0.447765
vt 0.079616 0.523735
vt 0.011173 0.542733
vt 0.760314 0.481815
vt 0.804654 0.437475
vt 0.768752 0.418823
vt 0.807819 0.531364
vt 0.743190 0.679148
vt 0.809632 0.717911
vt 0.767960 0.801209
vt 0.825776 0.845635
vt 0.906872 0.326584
vt 0.907840 0.357222
vt 0.924635 0.315039
vt 0.289659 0.681426
vt 0.359836 0.625455
vt 0.366602 0.677650
vt 0.033545 0.064829
vt 0.092368 0.016563
vt 0.025272 0.816840
vt 0.078392 0.755422
vt 0.021769 0.771539
vt 0.079180 0.817156
vt 0.491867 0.013348
vt 0.351734 0.071004
vt 0.453249 0.758942
vt 0.586474 0.924665
vt 0.581760 0.758942
vt 0.895454 0.227803
vt 0.195739 0.732324
vt 0.077317 0.732324
vt 0.021707 0.662591
vt 0.598640 0.076986
vt 0.251349 0.662591
vt 0.836787 0.227448
vt 0.865677 0.204137
vt 0.292369 0.272036
vt 0.844354 0.163540
vt 0.915851 0.178125
vt 0.905979 0.163540
vt 0.905515 0.018499
vt 0.834018 0.003915
vt 0.843890 0.018499
vt 0.942350 0.113551
vt 0.927410 0.113551
vt 0.808208 0.113551
vt 0.823148 0.113551
vt 0.627094 0.705534
vt 0.627131 0.865680
vt 0.706075 0.761915
vt 0.289659 0.531739
vt 0.390024 0.534182
vt 0.289659 0.918069
vt 0.390024 0.875811
vt 0.390024 0.920512
vt 0.359836 0.784539
vt 0.289659 0.728567
vt 0.366602 0.732343
vt 0.289659 0.878254
vt 0.523616 0.291456
vt 0.553768 0.077007
vt 0.457964 0.711462
vt 0.577046 0.711462
vt 0.539578 0.073580
vt 0.183866 0.875531
vt 0.079282 0.875531
vt 0.022627 0.873111
vt 0.558238 0.391532
vt 0.570376 0.292924
vt 0.555295 0.198091
vt 0.535545 0.388876
vt 0.539578 0.573579
vt 0.531381 0.683109
vt 0.538258 0.194332
vt 0.236390 0.872542
vt 0.563109 0.674253
vt 0.553768 0.547113
vt 0.554920 0.001448
vt 0.624280 0.673203
vt 0.243992 0.816245
vt 0.812765 0.315153
vt 0.981948 0.418823
vt 0.268975 0.542733
vt 0.268048 0.349423
vt 0.871483 0.391242
vt 0.289659 0.627986
vt 0.325535 0.009519
vt 0.448535 0.924665
vt 0.871483 0.204137
vt 0.834489 0.178125
vt 0.915381 0.003915
vt 0.685766 0.705534
vt 0.606811 0.761915
vt 0.685803 0.865680
vt 0.289659 0.782007
vt 0.538727 0.002988
s 0
usemtl Shoe
f 74/1/1 4/2/1 50/3/1
f 70/4/2 8/5/2 14/6/2
f 72/7/3 6/8/3 28/9/3
f 61/10/4 42/11/4 76/12/4
f 40/13/5 5/14/5 25/15/5
f 54/16/6 2/17/6 49/18/6
f 6/19/7 30/20/7 28/21/7
f 18/22/8 32/23/8 30/20/8
f 19/24/9 52/25/9 32/23/9
f 46/26/10 15/27/10 36/28/10
f 15/27/11 38/29/11 36/28/11
f 38/29/12 17/30/12 40/13/12
f 65/31/13 6/32/13 64/33/13
f 66/34/14 18/35/14 65/31/14
f 67/36/15 19/37/15 66/34/15
f 68/38/16 43/39/16 75/40/16
f 68/38/17 13/41/17 12/42/17
f 69/43/18 14/6/18 13/41/18
f 37/44/19 9/45/19 10/46/19
f 38/29/20 39/47/20 37/44/20
f 11/48/21 37/44/21 10/46/21
f 36/28/22 37/44/22 35/49/22
f 45/50/23 11/48/23 41/51/23
f 46/26/24 35/49/24 45/50/24
f 13/52/25 51/53/25 12/54/25
f 31/55/26 52/25/26 51/53/26
f 14/56/27 31/55/27 13/52/27
f 29/57/28 32/23/28 31/55/28
f 8/58/29 29/57/29 14/56/29
f 27/59/30 30/20/30 29/57/30
f 53/60/31 4/61/31 43/62/31
f 55/63/32 48/64/32 23/65/32
f 39/47/33 7/66/33 9/45/33
f 40/13/34 26/67/34 39/47/34
f 63/68/35 27/69/35 8/70/35
f 71/71/36 28/9/36 27/69/36
f 73/72/37 2/73/37 61/10/37
f 74/74/38 49/75/38 73/76/38
f 12/77/39 53/60/39 43/62/39
f 22/78/40 45/50/40 21/79/40
f 3/80/41 45/50/41 41/51/41
f 62/81/42 43/39/42 4/2/42
f 1/82/43 46/26/43 22/78/43
f 20/83/44 54/16/44 52/84/44
f 67/36/45 42/11/45 20/85/45
f 23/86/46 50/87/46 24/88/46
f 33/89/46 52/90/46 34/91/46
f 53/92/47 33/89/47 47/93/47
f 34/91/47 54/94/47 48/95/47
f 24/88/48 53/92/48 47/93/48
f 54/94/48 23/86/48 48/95/48
f 56/96/46 57/97/46 60/98/46
f 48/64/49 58/99/49 34/100/49
f 58/101/50 33/102/50 34/103/50
f 47/104/51 56/105/51 24/106/51
f 57/107/52 47/104/52 33/102/52
f 56/105/53 23/65/53 24/106/53
f 15/108/54 76/12/54 67/36/54
f 3/109/55 75/40/55 62/81/55
f 21/110/56 73/76/56 22/111/56
f 1/112/37 73/72/37 61/10/37
f 25/113/57 71/71/57 26/114/57
f 26/114/58 63/68/58 7/115/58
f 10/116/59 70/4/59 69/43/59
f 11/117/60 69/43/60 68/38/60
f 11/117/61 75/40/61 41/118/61
f 15/108/62 66/34/62 16/119/62
f 16/119/63 65/31/63 17/120/63
f 5/121/64 65/31/64 64/33/64
f 1/112/65 76/12/65 44/122/65
f 5/123/66 72/7/66 25/113/66
f 7/124/67 70/4/67 9/125/67
f 3/109/68 74/1/68 21/126/68
f 74/1/69 62/81/69 4/2/69
f 70/4/70 63/127/70 8/5/70
f 72/7/71 64/128/71 6/8/71
f 61/10/72 2/73/72 42/11/72
f 40/13/73 17/30/73 5/14/73
f 54/16/74 42/129/74 2/17/74
f 6/19/75 18/22/75 30/20/75
f 18/22/76 19/24/76 32/23/76
f 19/24/77 20/130/77 52/25/77
f 46/26/78 44/131/78 15/27/78
f 15/27/79 16/132/79 38/29/79
f 38/29/80 16/132/80 17/30/80
f 65/31/81 18/35/81 6/32/81
f 66/34/82 19/37/82 18/35/82
f 67/36/83 20/85/83 19/37/83
f 68/38/84 12/42/84 43/39/84
f 68/38/85 69/43/85 13/41/85
f 69/43/86 70/4/86 14/6/86
f 37/44/87 39/47/87 9/45/87
f 38/29/88 40/13/88 39/47/88
f 11/48/89 35/49/89 37/44/89
f 36/28/22 38/29/22 37/44/22
f 45/50/90 35/49/90 11/48/90
f 46/26/24 36/28/24 35/49/24
f 13/52/91 31/55/91 51/53/91
f 31/55/26 32/23/26 52/25/26
f 14/56/92 29/57/92 31/55/92
f 29/57/93 30/20/93 32/23/93
f 8/58/94 27/59/94 29/57/94
f 27/59/95 28/21/95 30/20/95
f 53/60/96 50/133/96 4/61/96
f 55/63/97 60/134/97 48/64/97
f 39/47/98 26/67/98 7/66/98
f 40/13/99 25/15/99 26/67/99
f 63/68/100 71/71/100 27/69/100
f 71/71/36 72/7/36 28/9/36
f 73/72/101 49/135/101 2/73/101
f 74/74/38 50/136/38 49/75/38
f 12/77/102 51/137/102 53/60/102
f 22/78/40 46/26/40 45/50/40
f 3/80/103 21/79/103 45/50/103
f 62/81/104 75/40/104 43/39/104
f 1/82/105 44/131/105 46/26/105
f 20/83/106 42/129/106 54/16/106
f 67/36/107 76/12/107 42/11/107
f 23/86/46 49/138/46 50/87/46
f 33/89/46 51/139/46 52/90/46
f 53/92/108 51/139/108 33/89/108
f 34/91/109 52/90/109 54/94/109
f 24/88/110 50/87/110 53/92/110
f 54/94/111 49/138/111 23/86/111
f 60/98/46 55/140/46 56/96/46
f 56/96/46 59/141/46 57/97/46
f 57/97/46 58/142/46 60/98/46
f 48/64/112 60/134/112 58/99/112
f 58/101/50 57/107/50 33/102/50
f 47/104/113 59/143/113 56/105/113
f 57/107/114 59/143/114 47/104/114
f 56/105/53 55/63/53 23/65/53
f 15/108/115 44/122/115 76/12/115
f 3/109/116 41/118/116 75/40/116
f 21/110/56 74/74/56 73/76/56
f 1/112/117 22/144/117 73/72/117
f 25/113/57 72/7/57 71/71/57
f 26/114/118 71/71/118 63/68/118
f 10/116/119 9/125/119 70/4/119
f 11/117/120 10/116/120 69/43/120
f 11/117/121 68/38/121 75/40/121
f 15/108/122 67/36/122 66/34/122
f 16/119/123 66/34/123 65/31/123
f 5/121/124 17/120/124 65/31/124
f 1/112/125 61/10/125 76/12/125
f 5/123/126 64/128/126 72/7/126
f 7/124/127 63/127/127 70/4/127
f 3/109/128 62/81/128 74/1/128
