# Blender 5.0.1
# www.blender.org
mtllib ShoeL.mtl
o ShoeL
v -0.116097 0.000000 0.047269
v -0.116097 0.076855 0.047269
v -0.116097 0.000000 -0.047269
v -0.116097 0.076855 -0.047269
v 0.133209 0.000000 0.052281
v 0.126653 0.044644 0.052281
v 0.130000 0.000000 -0.042396
v 0.123444 0.044644 -0.042396
v 0.076340 -0.002669 -0.055476
v 0.012833 0.000000 -0.051224
v -0.026925 0.005376 -0.044178
v -0.033543 0.100000 -0.043120
v -0.010296 0.066882 -0.045850
v 0.071584 0.046264 -0.052787
v -0.026925 0.005376 0.051347
v 0.012833 0.000000 0.054143
v 0.088344 -0.002669 0.055476
v 0.088807 0.049289 0.055476
v -0.010296 0.066882 0.050000
v -0.033543 0.100000 0.047269
v -0.144809 0.000293 -0.024376
v -0.144809 0.000293 0.024376
v -0.130844 0.087542 0.021386
v -0.130844 0.087542 -0.021386
v 0.153077 0.000293 0.028065
v 0.149868 0.000293 -0.018180
v 0.143312 0.053175 -0.018180
v 0.146521 0.053175 0.028065
v 0.088702 0.051703 -0.024820
v 0.093172 0.051703 0.031646
v 0.008972 0.067471 -0.025784
v 0.008972 0.067471 0.029454
v -0.029752 0.110687 -0.021386
v -0.029752 0.110687 0.021386
v -0.027710 0.005669 -0.024376
v -0.027710 0.005669 0.024376
v 0.014342 0.000293 -0.025784
v 0.014342 0.000293 0.029454
v 0.096273 -0.002344 -0.024820
v 0.100743 -0.002344 0.031646
v -0.066752 0.000000 -0.051606
v -0.086422 0.070168 0.050373
v -0.086422 0.070168 -0.050373
v -0.066752 0.000000 0.054525
v -0.058933 0.000293 -0.023430
v -0.058933 0.000293 0.023430
v -0.096265 0.080856 -0.036183
v -0.096265 0.080856 0.036183
v -0.140968 0.087542 0.028236
v -0.140968 0.087542 -0.028236
v -0.019629 0.110687 -0.028236
v -0.019629 0.110687 0.028236
v -0.096265 0.080856 -0.046553
v -0.096265 0.080856 0.046553
v -0.131752 0.011506 0.018463
v -0.131752 0.011506 -0.018463
v -0.030955 0.011506 -0.018463
v -0.030955 0.011506 0.018463
v -0.096265 0.011506 -0.031236
v -0.096265 0.011506 0.031236
v -0.116097 0.018419 0.047269
v -0.116097 0.018419 -0.049385
v 0.130000 0.025000 -0.041179
v 0.133209 0.025000 0.055697
v 0.088344 0.019188 0.058917
v 0.012892 0.030227 0.055670
v -0.026925 0.028884 0.053022
v -0.026925 0.028884 -0.045257
v 0.012892 0.030227 -0.046581
v 0.076340 0.019188 -0.055917
v 0.149868 0.026234 -0.018180
v 0.153077 0.026234 0.028065
v -0.140322 0.019442 0.026306
v -0.140322 0.019442 -0.026306
v -0.072525 0.024030 -0.050967
v -0.072525 0.024030 0.054011
vn -0.6890 0.0262 -0.7243
vn 0.2619 0.0277 -0.9647
vn 0.7536 0.3484 0.5574
vn -0.1567 0.0306 0.9872
vn 0.0607 -0.9980 0.0179
vn -0.0288 0.3128 0.9494
vn -0.0039 0.9442 0.3294
vn 0.1792 0.9750 0.1316
vn 0.6467 0.4454 0.6192
vn 0.1357 -0.9904 0.0248
vn -0.1260 -0.9920 -0.0071
vn -0.0351 -0.9993 -0.0140
vn 0.0463 0.1861 0.9814
vn -0.0261 0.1139 0.9931
vn -0.0696 0.1093 0.9916
vn 0.1190 0.0486 -0.9917
vn -0.0332 -0.0011 -0.9994
vn -0.1294 0.0914 -0.9874
vn -0.0411 -0.9991 0.0140
vn -0.0322 -0.9995 -0.0000
vn -0.1265 -0.9919 0.0097
vn -0.1268 -0.9919 -0.0000
vn 0.1389 -0.9899 -0.0282
vn 0.1697 -0.9855 -0.0000
vn 0.6559 0.3977 -0.6415
vn 0.8339 0.5519 -0.0000
vn 0.1887 0.9359 -0.2975
vn 0.1844 0.9827 -0.0146
vn 0.0166 0.9387 -0.3443
vn -0.0275 0.9996 0.0019
vn -0.0288 0.3128 -0.9494
vn 0.3982 0.0305 -0.9168
vn 0.0559 -0.9981 -0.0258
vn 0.0496 -0.9988 -0.0039
vn 0.7396 0.1800 -0.6486
vn 0.9694 0.2359 -0.0673
vn -0.6544 -0.0000 0.7562
vn -1.0000 -0.0095 -0.0000
vn -0.2471 0.8816 -0.4021
vn -0.0000 -1.0000 -0.0000
vn -0.0001 -0.9999 0.0126
vn -0.0365 0.0019 -0.9993
vn -0.0001 -0.9999 -0.0126
vn -0.2812 0.9098 0.3053
vn 0.0128 0.0825 0.9965
vn -0.0000 1.0000 -0.0000
vn -0.4092 0.9124 -0.0000
vn -0.2559 0.8896 0.3782
vn 0.0919 0.9865 -0.1358
vn 0.1899 0.9818 -0.0000
vn -0.1915 0.0698 -0.9790
vn -0.9999 0.0121 -0.0000
vn 0.3379 0.0670 0.9388
vn -0.2305 0.0315 0.9726
vn 0.9999 -0.0119 -0.0000
vn 0.0742 0.0392 0.9965
vn -0.0875 0.0054 -0.9961
vn -0.9736 0.2281 -0.0000
vn -0.6216 0.0670 0.7805
vn 0.9976 -0.0000 -0.0692
vn 0.7725 0.0309 -0.6342
vn -0.0676 -0.0201 -0.9975
vn -0.1528 0.1503 -0.9768
vn 0.1741 0.0679 -0.9824
vn -0.0768 -0.0502 0.9958
vn -0.0229 -0.1555 0.9876
vn 0.0794 -0.1550 0.9847
vn -0.1455 -0.0138 0.9893
vn 0.7731 -0.0000 0.6343
vn 0.2377 -0.0196 -0.9711
vn -0.6216 0.0670 -0.7805
vn -0.6151 -0.0282 -0.7879
vn 0.1987 0.1469 -0.9690
vn 0.7292 0.1775 0.6608
vn -0.1040 -0.0000 0.9946
vn 0.0524 -0.9981 0.0309
vn -0.1349 0.7783 0.6132
vn 0.1312 0.9836 0.1237
vn 0.1623 0.9702 0.1800
vn 0.5744 0.4591 0.6777
vn 0.1701 -0.9853 -0.0157
vn -0.1326 -0.9910 -0.0199
vn -0.0298 -0.9991 -0.0291
vn 0.0972 0.1115 0.9890
vn -0.0310 0.1336 0.9905
vn -0.0026 0.0804 0.9968
vn 0.1134 0.0404 -0.9927
vn -0.0857 0.0220 -0.9961
vn -0.0943 -0.0398 -0.9947
vn -0.0325 -0.9990 0.0318
vn -0.0306 -0.9995 0.0024
vn -0.1306 -0.9912 0.0192
vn 0.1703 -0.9852 0.0213
vn 0.4984 0.4128 -0.7624
vn 0.2183 0.9466 -0.2373
vn 0.1940 0.9810 -0.0000
vn 0.0775 0.9687 -0.2358
vn -0.0272 0.9996 0.0022
vn -0.1349 0.7783 -0.6132
vn 0.3379 0.0670 -0.9388
vn 0.0530 -0.9981 -0.0314
vn 0.0501 -0.9987 -0.0035
vn 0.7218 0.1999 -0.6626
vn -0.6151 -0.0282 0.7879
vn -0.0404 0.3031 -0.9521
vn 0.0009 -0.9999 0.0102
vn -0.0959 0.0360 -0.9947
vn 0.0013 -1.0000 -0.0091
vn -0.0904 0.2603 0.9613
vn 0.0124 0.0818 0.9966
vn -0.2559 0.8896 -0.3782
vn 0.0919 0.9865 0.1358
vn -0.2305 0.0315 -0.9726
vn 0.3982 0.0305 0.9168
vn -0.1915 0.0698 0.9790
vn 0.0292 -0.0711 0.9970
vn -0.0214 -0.1141 -0.9932
vn 0.7567 -0.0000 -0.6537
vn -0.1181 0.1510 -0.9815
vn -0.0317 -0.0459 -0.9984
vn 0.1289 -0.0455 -0.9906
vn -0.0638 -0.0709 0.9954
vn -0.0503 -0.0503 0.9975
vn 0.0883 -0.1349 0.9869
vn -0.1529 -0.0000 0.9882
vn 0.8110 -0.0792 0.5796
vn 0.2598 0.0470 -0.9645
vn -0.6892 -0.0827 -0.7198
vt 0.601753 0.012270
vt 0.741579 0.074714
vt 0.598640 0.076986
vt 0.607151 0.546571
vt 0.671965 0.656977
vt 0.624280 0.673203
vt 0.183764 0.817156
vt 0.235532 0.770970
vt 0.243992 0.816245
vt 0.367222 0.143822
vt 0.494560 0.072963
vt 0.479695 0.179406
vt 0.213401 0.135949
vt 0.263524 0.057035
vt 0.271287 0.166074
vt 0.830037 0.326437
vt 0.829038 0.357043
vt 0.812765 0.315153
vt 0.942847 0.728398
vt 0.991295 0.808737
vt 0.934876 0.853162
vt 0.938106 0.531364
vt 0.998866 0.718776
vt 0.937852 0.437475
vt 0.986393 0.481815
vt 0.193441 0.523735
vt 0.261252 0.445865
vt 0.268975 0.542733
vt 0.208074 0.345752
vt 0.195737 0.447765
vt 0.268048 0.349423
vt 0.422487 0.665585
vt 0.486323 0.572906
vt 0.470442 0.682330
vt 0.412568 0.572970
vt 0.461738 0.388033
vt 0.372658 0.330022
vt 0.466241 0.290697
vt 0.726125 0.147853
vt 0.627752 0.292493
vt 0.613848 0.183175
vt 0.721181 0.331946
vt 0.632408 0.389613
vt 0.673346 0.533415
vt 0.001773 0.195232
vt 0.073897 0.345752
vt 0.012101 0.349424
vt 0.076241 0.146807
vt 0.029215 0.445865
vt 0.077315 0.447765
vt 0.079616 0.523735
vt 0.011173 0.542733
vt 0.760314 0.481815
vt 0.804654 0.437475
vt 0.807819 0.531364
vt 0.743190 0.679148
vt 0.809632 0.717911
vt 0.767960 0.801209
vt 0.825776 0.845635
vt 0.907840 0.357222
vt 0.906872 0.326584
vt 0.924635 0.315039
vt 0.359836 0.625455
vt 0.289659 0.681426
vt 0.366602 0.677650
vt 0.033545 0.064829
vt 0.092368 0.016563
vt 0.025272 0.816840
vt 0.078392 0.755422
vt 0.079180 0.817156
vt 0.182976 0.755422
vt 0.351734 0.071004
vt 0.491867 0.013348
vt 0.586474 0.924665
vt 0.453249 0.758942
vt 0.581760 0.758942
vt 0.895454 0.227803
vt 0.871483 0.204137
vt 0.077317 0.732324
vt 0.195739 0.732324
vt 0.021707 0.662591
vt 0.251349 0.662591
vt 0.836787 0.227448
vt 0.865677 0.204137
vt 0.905979 0.163540
vt 0.834489 0.178125
vt 0.844354 0.163540
vt 0.843890 0.018499
vt 0.915381 0.003915
vt 0.905515 0.018499
vt 0.942350 0.113551
vt 0.927410 0.113551
vt 0.808208 0.113551
vt 0.834018 0.003915
vt 0.915851 0.178125
vt 0.823148 0.113551
vt 0.706075 0.761915
vt 0.627131 0.865680
vt 0.627094 0.705534
vt 0.289659 0.531739
vt 0.289659 0.627986
vt 0.390024 0.875811
vt 0.289659 0.918069
vt 0.390024 0.920512
vt 0.359836 0.784539
vt 0.289659 0.728567
vt 0.289659 0.782007
vt 0.289659 0.878254
vt 0.366602 0.732343
vt 0.523616 0.291456
vt 0.538258 0.194332
vt 0.553768 0.077007
vt 0.555295 0.198091
vt 0.457964 0.711462
vt 0.577046 0.711462
vt 0.539578 0.073580
vt 0.538727 0.002988
vt 0.183866 0.875531
vt 0.079282 0.875531
vt 0.022627 0.873111
vt 0.558238 0.391532
vt 0.553768 0.547113
vt 0.570376 0.292924
vt 0.535545 0.388876
vt 0.539578 0.573579
vt 0.531381 0.683109
vt 0.236390 0.872542
vt 0.563109 0.674253
vt 0.554920 0.001448
vt 0.768021 0.009151
vt 0.204701 0.008769
vt 0.865677 0.391134
vt 0.981948 0.418823
vt 0.292369 0.272036
vt 0.801435 0.273742
vt 0.768752 0.418823
vt 0.871483 0.391242
vt 0.021769 0.771539
vt 0.325535 0.009519
vt 0.448535 0.924665
vt 0.685766 0.705534
vt 0.685803 0.865680
vt 0.606811 0.761915
vt 0.390024 0.534182
s 0
usemtl Shoe
f 74/1/1 4/2/1 62/3/1
f 70/4/2 8/5/2 63/6/2
f 72/7/3 6/8/3 64/9/3
f 42/10/4 61/11/4 76/12/4
f 40/13/5 5/14/5 17/15/5
f 54/16/6 2/17/6 42/18/6
f 30/19/7 6/20/7 28/21/7
f 32/22/8 18/23/8 30/19/8
f 52/24/9 19/25/9 32/22/9
f 46/26/10 15/27/10 44/28/10
f 38/29/11 15/27/11 36/30/11
f 38/29/12 17/15/12 16/31/12
f 6/32/13 65/33/13 64/34/13
f 18/35/14 66/36/14 65/33/14
f 19/37/15 67/38/15 66/36/15
f 43/39/16 68/40/16 75/41/16
f 68/40/17 13/42/17 69/43/17
f 69/43/18 14/44/18 70/4/18
f 9/45/19 37/46/19 10/47/19
f 39/48/20 38/29/20 37/46/20
f 11/49/21 37/46/21 35/50/21
f 37/46/22 36/30/22 35/50/22
f 11/49/23 45/51/23 41/52/23
f 35/50/24 46/26/24 45/51/24
f 13/53/25 51/54/25 31/55/25
f 31/55/26 52/24/26 32/22/26
f 14/56/27 31/55/27 29/57/27
f 29/57/28 32/22/28 30/19/28
f 8/58/29 29/57/29 27/59/29
f 27/59/30 30/19/30 28/21/30
f 4/60/31 53/61/31 43/62/31
f 48/63/32 55/64/32 23/65/32
f 7/66/33 39/48/33 9/45/33
f 26/67/34 40/13/34 39/48/34
f 63/68/35 27/69/35 71/70/35
f 71/70/36 28/71/36 72/7/36
f 2/72/37 73/73/37 61/11/37
f 49/74/38 74/75/38 73/76/38
f 12/77/39 53/61/39 51/78/39
f 21/79/40 46/26/40 22/80/40
f 3/81/41 45/51/41 21/79/41
f 62/3/42 43/39/42 75/41/42
f 46/26/43 1/82/43 22/80/43
f 54/16/44 20/83/44 52/84/44
f 67/38/45 42/10/45 76/12/45
f 24/85/46 49/86/46 23/87/46
f 34/88/46 51/89/46 33/90/46
f 33/90/47 53/91/47 47/92/47
f 34/88/48 54/93/48 52/94/48
f 24/85/49 53/91/49 50/95/49
f 23/87/50 54/93/50 48/96/50
f 60/97/46 57/98/46 56/99/46
f 48/63/51 58/100/51 60/101/51
f 33/102/52 58/103/52 34/104/52
f 47/105/53 56/106/53 59/107/53
f 47/105/54 57/108/54 33/102/54
f 24/109/55 55/64/55 56/106/55
f 15/110/56 76/12/56 44/111/56
f 3/112/57 75/41/57 41/113/57
f 73/76/58 21/114/58 22/115/58
f 1/116/59 73/73/59 22/117/59
f 71/70/60 25/118/60 26/119/60
f 63/68/61 26/119/61 7/120/61
f 10/121/62 70/4/62 9/122/62
f 11/123/63 69/43/63 10/121/63
f 75/41/64 11/123/64 41/113/64
f 66/36/65 15/110/65 16/124/65
f 65/33/66 16/124/66 17/125/66
f 5/126/67 65/33/67 17/125/67
f 76/12/68 1/116/68 44/111/68
f 72/7/69 5/127/69 25/118/69
f 70/4/70 7/128/70 9/122/70
f 74/1/71 3/112/71 21/129/71
f 74/1/72 50/130/72 4/2/72
f 70/4/73 14/44/73 8/5/73
f 72/7/74 28/71/74 6/8/74
f 42/10/75 2/72/75 61/11/75
f 40/13/76 25/131/76 5/14/76
f 54/16/77 49/132/77 2/17/77
f 30/19/78 18/23/78 6/20/78
f 32/22/79 19/25/79 18/23/79
f 52/24/80 20/133/80 19/25/80
f 46/26/81 36/30/81 15/27/81
f 38/29/82 16/31/82 15/27/82
f 38/29/83 40/13/83 17/15/83
f 6/32/84 18/35/84 65/33/84
f 18/35/85 19/37/85 66/36/85
f 19/37/86 20/134/86 67/38/86
f 43/39/87 12/135/87 68/40/87
f 68/40/88 12/135/88 13/42/88
f 69/43/89 13/42/89 14/44/89
f 9/45/90 39/48/90 37/46/90
f 39/48/91 40/13/91 38/29/91
f 11/49/92 10/47/92 37/46/92
f 37/46/22 38/29/22 36/30/22
f 11/49/93 35/50/93 45/51/93
f 35/50/24 36/30/24 46/26/24
f 13/53/94 12/136/94 51/54/94
f 31/55/26 51/54/26 52/24/26
f 14/56/95 13/53/95 31/55/95
f 29/57/96 31/55/96 32/22/96
f 8/58/97 14/56/97 29/57/97
f 27/59/98 29/57/98 30/19/98
f 4/60/99 50/137/99 53/61/99
f 48/63/100 60/101/100 55/64/100
f 7/66/101 26/67/101 39/48/101
f 26/67/102 25/131/102 40/13/102
f 63/68/103 8/138/103 27/69/103
f 71/70/36 27/69/36 28/71/36
f 2/72/104 49/139/104 73/73/104
f 49/74/38 50/140/38 74/75/38
f 12/77/105 43/62/105 53/61/105
f 21/79/40 45/51/40 46/26/40
f 3/81/106 41/52/106 45/51/106
f 62/3/107 4/2/107 43/39/107
f 46/26/108 44/28/108 1/82/108
f 54/16/109 42/18/109 20/83/109
f 67/38/110 20/134/110 42/10/110
f 24/85/46 50/95/46 49/86/46
f 34/88/46 52/94/46 51/89/46
f 33/90/111 51/89/111 53/91/111
f 34/88/47 48/96/47 54/93/47
f 24/85/50 47/92/50 53/91/50
f 23/87/112 49/86/112 54/93/112
f 56/99/46 55/141/46 60/97/46
f 60/97/46 58/142/46 57/98/46
f 57/98/46 59/143/46 56/99/46
f 48/63/113 34/144/113 58/100/113
f 33/102/52 57/108/52 58/103/52
f 47/105/114 24/109/114 56/106/114
f 47/105/115 59/107/115 57/108/115
f 24/109/55 23/65/55 55/64/55
f 15/110/116 67/38/116 76/12/116
f 3/112/117 62/3/117 75/41/117
f 73/76/58 74/75/58 21/114/58
f 1/116/37 61/11/37 73/73/37
f 71/70/60 72/7/60 25/118/60
f 63/68/118 71/70/118 26/119/118
f 10/121/119 69/43/119 70/4/119
f 11/123/120 68/40/120 69/43/120
f 75/41/121 68/40/121 11/123/121
f 66/36/122 67/38/122 15/110/122
f 65/33/123 66/36/123 16/124/123
f 5/126/124 64/34/124 65/33/124
f 76/12/125 61/11/125 1/116/125
f 72/7/126 64/9/126 5/127/126
f 70/4/127 63/6/127 7/128/127
f 74/1/128 62/3/128 3/112/128
