# Blender 5.1.1
# www.blender.org
mtllib UtensilHanger.mtl
o UtensilHanger
v -0.400000 0.000000 0.040000
v -0.400000 0.100000 0.040000
v -0.400000 0.000000 0.000000
v -0.400000 0.100000 -0.000000
v 0.400000 0.000000 0.040000
v 0.400000 0.100000 0.040000
v 0.400000 0.000000 0.000000
v 0.400000 0.100000 -0.000000
v -0.013508 0.024386 0.015961
v -0.013508 0.080932 0.072553
v 0.013508 0.024386 0.015961
v 0.013508 0.080932 0.072553
v 0.148582 0.024386 0.015961
v 0.148582 0.080932 0.072553
v 0.175597 0.024386 0.015961
v 0.175597 0.080932 0.072553
v 0.310672 0.024386 0.015961
v 0.310672 0.080932 0.072553
v 0.337687 0.024386 0.015961
v 0.337687 0.080932 0.072553
v -0.148582 0.024386 0.015961
v -0.148582 0.080932 0.072553
v -0.175597 0.024386 0.015961
v -0.175597 0.080932 0.072553
v -0.310672 0.024386 0.015961
v -0.310672 0.080932 0.072553
v -0.337687 0.024386 0.015961
v -0.337687 0.080932 0.072553
vn -0.0000 1.0000 -0.0000
vn -0.0000 -0.7074 0.7068
vn -0.0000 -1.0000 -0.0000
vn -1.0000 -0.0000 -0.0000
vn -0.0000 -0.0000 1.0000
vn 1.0000 -0.0000 -0.0000
vn -0.0000 -0.0000 -1.0000
vt -0.000000 0.625000
vt -0.000000 1.000000
vt 0.000000 0.875000
vt 0.125000 -0.000000
vt -0.000000 0.250000
vt 0.125000 0.250000
vt -0.000000 0.500000
vt 0.875000 0.250000
vt 1.000000 -0.000000
vt 1.000000 0.250000
vt -0.000000 -0.000000
vt 0.875000 -0.000000
s 0
usemtl UtensilHanger
f 6/1/1 4/2/1 2/3/1
f 13/4/2 16/5/2 14/6/2
f 5/3/3 3/7/3 7/2/3
f 4/8/4 1/9/4 2/10/4
f 2/3/5 5/3/5 6/1/5
f 6/8/6 7/9/6 8/10/6
f 9/4/2 12/5/2 10/6/2
f 17/4/2 20/5/2 18/6/2
f 25/11/2 28/6/2 27/4/2
f 21/11/2 24/6/2 23/4/2
f 8/3/7 3/3/7 4/1/7
f 6/1/1 8/7/1 4/2/1
f 13/4/2 15/11/2 16/5/2
f 5/3/3 1/1/3 3/7/3
f 4/8/4 3/12/4 1/9/4
f 2/3/5 1/1/5 5/3/5
f 6/8/6 5/12/6 7/9/6
f 9/4/2 11/11/2 12/5/2
f 17/4/2 19/11/2 20/5/2
f 25/11/2 26/5/2 28/6/2
f 21/11/2 22/5/2 24/6/2
f 8/3/7 7/1/7 3/3/7
