# Blender 5.0.1
# www.blender.org
mtllib BrokenCardboardBox01.mtl
o BrokenCardboardBox01
v -0.150010 0.004644 0.127703
v -0.135722 0.301707 0.121137
v -0.152445 0.005134 -0.155343
v -0.158808 0.295481 -0.144327
v 0.129742 -0.024216 0.160041
v 0.129731 0.317615 0.166582
v 0.148896 0.002140 -0.148406
v 0.122378 0.307839 -0.159250
v -0.134915 -0.014157 -0.073196
v -0.131227 -0.013396 0.004600
v -0.123050 0.000682 0.082134
v -0.154753 0.082682 0.161462
v -0.163498 0.149811 0.124172
v -0.169249 0.214777 0.128936
v -0.157062 0.272082 0.101803
v -0.135092 0.288456 -0.011243
v -0.170650 0.289617 -0.070306
v -0.151061 0.225417 -0.148803
v -0.134365 0.146954 -0.163498
v -0.151404 0.076785 -0.147994
v 0.060512 -0.004212 -0.145467
v -0.012463 -0.000445 -0.134883
v -0.070610 -0.010999 -0.131270
v -0.073797 0.311630 -0.171801
v -0.004685 0.276067 -0.163113
v 0.074573 0.290243 -0.162904
v 0.152892 0.237979 -0.154102
v 0.136690 0.166364 -0.156834
v 0.152009 0.096270 -0.161966
v 0.159211 0.006706 0.070592
v 0.136749 -0.018806 -0.011877
v 0.185536 -0.009065 -0.060907
v 0.144901 0.287283 -0.066996
v 0.149747 0.292274 0.000003
v 0.163393 0.303434 0.086235
v 0.150764 0.229858 0.152869
v 0.129592 0.122123 0.154473
v 0.163635 0.072927 0.160788
v -0.078449 0.007280 0.130094
v -0.015035 0.005182 0.147574
v 0.056246 -0.024039 0.144809
v 0.059791 0.316961 0.143461
v -0.003610 0.315898 0.152896
v -0.084676 0.303721 0.170010
v 0.105553 0.293816 -0.051028
v 0.106392 0.287743 0.003345
v 0.055731 0.329751 0.079939
v -0.024154 0.297412 -0.078675
v -0.032306 0.311016 -0.003632
v -0.013486 0.287605 0.092904
v -0.040191 0.293346 -0.066165
v -0.081331 0.313163 -0.007873
v -0.069223 0.307698 0.076276
v -0.066801 0.027650 -0.073757
v -0.071056 0.009377 -0.024979
v -0.076876 -0.011718 0.056809
v -0.010890 0.001508 -0.088103
v 0.011614 0.032144 -0.012682
v -0.018953 0.015873 0.075157
v 0.084326 0.003122 -0.089961
v 0.096034 -0.016793 0.004288
v 0.088264 0.011211 0.075338
v 0.075095 0.097551 0.152475
v 0.006283 0.071715 0.125469
v -0.082108 0.059870 0.158587
v 0.088376 0.159358 0.136556
v 0.000195 0.150619 0.150334
v -0.067040 0.143998 0.155010
v 0.081836 0.219394 0.142788
v 0.007073 0.214379 0.156657
v -0.074009 0.210334 0.125776
v 0.154339 0.048664 -0.055956
v 0.150311 0.073856 -0.001281
v 0.149601 0.076648 0.074739
v 0.152119 0.132493 -0.062951
v 0.142735 0.152926 0.001568
v 0.150728 0.149139 0.074106
v 0.175318 0.207123 -0.091269
v 0.157113 0.223009 0.007963
v 0.158031 0.235283 0.075040
v -0.103610 0.062750 -0.159304
v 0.000496 0.074904 -0.150790
v 0.053425 0.089359 -0.134859
v -0.063786 0.158121 -0.169526
v 0.003246 0.135855 -0.149382
v 0.070578 0.118274 -0.144070
v -0.060796 0.211528 -0.158169
v 0.002456 0.256444 -0.130297
v 0.050502 0.249393 -0.159164
v -0.153497 0.073865 0.072793
v -0.148057 0.086544 -0.008656
v -0.157907 0.070643 -0.076348
v -0.150436 0.151022 0.073989
v -0.171619 0.142457 -0.018660
v -0.144736 0.122062 -0.055290
v -0.131453 0.226008 0.072904
v -0.141692 0.216973 -0.032728
v -0.163430 0.246418 -0.090489
vn -0.9801 -0.0973 -0.1729
vn 0.0366 -0.1124 -0.9930
vn 0.9920 -0.0922 0.0862
vn 0.0366 0.0753 0.9965
vn 0.0848 -0.9038 -0.4195
vn -0.0690 0.9971 0.0309
vn 0.0425 0.9868 -0.1564
vn -0.4813 0.8528 0.2025
vn -0.2164 0.8963 -0.3871
vn 0.2243 0.9614 0.1595
vn 0.1303 0.9880 -0.0830
vn -0.1117 0.9876 -0.1101
vn 0.0366 0.9984 -0.0420
vn 0.1593 0.9814 0.1072
vn 0.1715 0.9072 -0.3841
vn 0.4659 0.8774 -0.1144
vn -0.3878 0.8987 -0.2050
vn 0.2882 0.9420 0.1722
vn -0.1181 0.9715 0.2057
vn -0.3338 0.7953 -0.5060
vn -0.4208 0.8993 0.1190
vn 0.0331 -0.9938 0.1060
vn 0.3538 -0.9035 0.2418
vn -0.3806 -0.9176 -0.1149
vn -0.1326 -0.9708 -0.1997
vn 0.3507 -0.9364 -0.0075
vn -0.1548 -0.9691 0.1923
vn -0.2322 -0.8001 0.5531
vn -0.4688 -0.8130 -0.3454
vn 0.4704 -0.8620 -0.1888
vn -0.0452 -0.9980 0.0432
vn 0.0230 -0.9286 0.3703
vn -0.0423 -0.9797 -0.1962
vn 0.0746 -0.9923 0.0991
vn -0.1237 -0.9739 -0.1904
vn -0.0348 -0.9311 0.3632
vn -0.0118 -0.4770 0.8788
vn 0.0500 0.0335 0.9982
vn -0.2634 0.3657 0.8927
vn -0.2029 -0.0302 0.9787
vn 0.1472 0.2691 0.9518
vn -0.2484 -0.4747 0.8443
vn -0.0717 0.0781 0.9944
vn -0.2449 -0.3085 0.9191
vn 0.3535 -0.0236 0.9351
vn -0.3358 0.0800 0.9385
vn 0.1645 -0.1149 0.9797
vn 0.0237 0.4052 0.9139
vn -0.1155 -0.1803 0.9768
vn 0.1801 0.0339 0.9831
vn -0.3012 -0.4361 0.8480
vn 0.9260 -0.3246 0.1929
vn 0.8239 0.5559 -0.1103
vn 0.9637 -0.1866 0.1908
vn 0.8320 0.4743 -0.2877
vn 0.6489 0.2903 0.7033
vn 0.9669 -0.1155 -0.2276
vn 0.9996 0.0256 -0.0105
vn 0.9978 0.0314 0.0591
vn 0.9954 0.0952 0.0058
vn 0.8806 -0.3808 -0.2821
vn 0.9537 -0.2177 0.2076
vn 0.9749 -0.1893 -0.1173
vn 0.9120 0.3871 -0.1354
vn 0.9397 0.3199 0.1212
vn 0.9943 0.1020 -0.0323
vn -0.0409 0.1095 -0.9931
vn -0.2518 -0.1549 -0.9553
vn -0.0971 -0.1285 -0.9869
vn 0.2260 -0.2562 -0.9399
vn 0.0059 -0.3530 -0.9356
vn -0.1503 -0.1794 -0.9722
vn -0.2681 -0.1453 -0.9524
vn 0.0976 -0.1463 -0.9844
vn 0.2859 0.0092 -0.9582
vn -0.1165 0.2128 -0.9701
vn 0.3369 0.1778 -0.9246
vn 0.0505 -0.1066 -0.9930
vn -0.1248 -0.1498 -0.9808
vn 0.6376 -0.5921 -0.4928
vn -0.3715 -0.8302 -0.4156
vn -0.9564 -0.2539 0.1445
vn -0.9602 0.2721 -0.0638
vn -0.9740 -0.1819 -0.1352
vn -0.8063 -0.3920 -0.4430
vn -0.9182 -0.3613 0.1624
vn -0.9645 -0.2597 0.0483
vn -0.9915 -0.1298 -0.0011
vn -0.9974 0.0405 -0.0603
vn -0.9730 0.2116 0.0919
vn -0.9652 -0.0669 -0.2528
vn -0.9029 0.3947 0.1700
vn -0.7438 0.1771 -0.6445
vn -0.8161 -0.0962 -0.5698
vn -0.9938 0.0645 0.0908
vn -0.9399 -0.2603 0.2210
vn -0.9825 -0.0875 -0.1641
vn 0.0888 -0.0346 -0.9954
vn 0.9197 0.1648 0.3563
vn -0.6286 -0.3904 0.6726
vn -0.0827 -0.9332 -0.3498
vn -0.4456 0.6918 -0.5682
vn 0.2238 0.9581 0.1786
vn -0.0769 0.9066 -0.4149
vn 0.3134 0.9452 0.0918
vn -0.3491 0.9347 0.0668
vn -0.0947 0.9892 0.1119
vn 0.2421 0.9093 -0.3386
vn -0.1684 0.9457 -0.2779
vn 0.0638 0.9832 -0.1713
vn -0.4567 0.8401 0.2928
vn -0.0926 0.9757 0.1984
vn 0.0661 0.9580 -0.2790
vn 0.0386 0.9975 0.0592
vn -0.0308 0.9968 0.0740
vn -0.0297 0.9989 0.0375
vn -0.3586 0.9312 0.0652
vn -0.1229 -0.9613 0.2466
vn 0.0077 -0.9892 -0.1464
vn -0.0377 -0.8840 -0.4659
vn 0.4638 -0.7493 0.4728
vn 0.5029 -0.8229 -0.2644
vn 0.2459 -0.9427 -0.2256
vn 0.1806 -0.9829 0.0350
vn 0.2084 -0.9263 0.3141
vn 0.2759 -0.9577 -0.0814
vn 0.0192 -0.9922 0.1229
vn -0.4788 -0.8691 -0.1241
vn -0.5229 -0.8110 0.2625
vn -0.0943 -0.9917 -0.0875
vn -0.0478 -0.9696 -0.2402
vn 0.0635 -0.9582 0.2791
vn -0.0895 -0.4000 0.9121
vn -0.2482 0.4455 0.8602
vn 0.0298 -0.0705 0.9971
vn -0.0872 0.0228 0.9959
vn -0.3646 -0.0022 0.9312
vn 0.3192 0.2051 0.9252
vn -0.1602 0.2784 0.9470
vn 0.1291 0.2212 0.9666
vn 0.0950 -0.2925 0.9515
vn -0.1265 -0.1160 0.9852
vn 0.1871 -0.0812 0.9790
vn -0.3530 -0.0545 0.9340
vn -0.3123 -0.0771 0.9469
vn 0.1461 0.0520 0.9879
vn 0.1980 0.0571 0.9785
vn 0.9777 0.1434 -0.1533
vn 0.9681 -0.0129 0.2503
vn 0.9926 -0.0851 0.0868
vn 0.9985 -0.0387 -0.0393
vn 0.9764 -0.1595 0.1455
vn 0.9907 0.1359 0.0043
vn 0.9725 0.2185 -0.0810
vn 0.9892 0.0906 0.1152
vn 0.9938 -0.0164 -0.1104
vn 0.8928 -0.1863 -0.4102
vn 0.9539 -0.2148 0.2094
vn 0.9964 -0.0845 0.0018
vn 0.9115 0.3881 -0.1361
vn 0.9922 0.0964 -0.0789
vn 0.9874 -0.0531 -0.1494
vn -0.2544 -0.1296 -0.9584
vn -0.2078 0.0262 -0.9778
vn 0.0523 0.0263 -0.9983
vn -0.2004 0.1028 -0.9743
vn 0.1053 -0.2227 -0.9692
vn 0.2536 0.1279 -0.9588
vn -0.0729 -0.0761 -0.9944
vn 0.2905 0.0090 -0.9568
vn -0.0035 -0.3016 -0.9534
vn -0.0762 0.1679 -0.9829
vn 0.3070 0.1507 -0.9397
vn -0.4961 0.1326 -0.8581
vn -0.3119 0.0262 -0.9497
vn 0.0590 -0.1272 -0.9901
vn 0.0211 -0.1035 -0.9944
vn -0.9958 0.0235 -0.0884
vn -0.9730 0.2272 -0.0410
vn -0.9727 -0.1857 -0.1394
vn -0.9983 -0.0570 -0.0085
vn -0.9797 -0.1773 -0.0930
vn -0.9745 -0.1409 0.1749
vn -0.9671 0.0422 -0.2507
vn -0.9093 -0.3404 0.2394
vn -0.8279 -0.4162 -0.3759
vn -0.8302 0.2027 -0.5194
vn -0.9666 0.2458 0.0727
vn -0.9427 -0.0483 0.3302
vn -0.8498 0.3621 0.3831
vn -0.9047 -0.3599 -0.2280
vn -0.8549 -0.0753 0.5132
vt 0.078125 0.234375
vt 0.000000 0.312500
vt 0.000000 0.234375
vt 0.421875 0.656250
vt 0.343750 0.578125
vt 0.421875 0.578125
vt 0.078125 0.312500
vt 0.078125 0.234375
vt 0.078125 0.578125
vt 0.000000 0.656250
vt 0.000000 0.578125
vt 0.078125 0.390625
vt 0.078125 0.312500
vt 0.078125 0.765625
vt 0.000000 0.687500
vt 0.078125 0.687500
vt 0.312500 0.765625
vt 0.234375 0.687500
vt 0.312500 0.687500
vt 0.156250 0.765625
vt 0.234375 0.765625
vt 0.156250 0.687500
vt 0.312500 1.000000
vt 0.234375 0.921875
vt 0.312500 0.921875
vt 0.312500 0.843750
vt 0.234375 0.843750
vt 0.234375 1.000000
vt 0.156250 0.921875
vt 0.156250 0.843750
vt 0.078125 1.000000
vt 0.156250 1.000000
vt 0.078125 0.921875
vt 0.000000 1.000000
vt 0.000000 0.843750
vt 0.078125 0.843750
vt 0.312500 0.390625
vt 0.234375 0.312500
vt 0.312500 0.312500
vt 0.156250 0.390625
vt 0.234375 0.390625
vt 0.156250 0.312500
vt 0.234375 0.625000
vt 0.312500 0.546875
vt 0.312500 0.625000
vt 0.234375 0.468750
vt 0.312500 0.468750
vt 0.156250 0.546875
vt 0.234375 0.546875
vt 0.078125 0.625000
vt 0.156250 0.625000
vt 0.078125 0.546875
vt 0.156250 0.468750
vt 0.000000 0.625000
vt 0.000000 0.468750
vt 0.078125 0.468750
vt 0.000000 0.390625
vt 0.078125 0.421875
vt 0.000000 0.343750
vt 0.078125 0.343750
vt 0.078125 0.500000
vt 0.000000 0.421875
vt 0.000000 0.500000
vt 0.312500 0.343750
vt 0.234375 0.421875
vt 0.234375 0.343750
vt 0.156250 0.421875
vt 0.156250 0.343750
vt 0.312500 0.500000
vt 0.312500 0.421875
vt 0.156250 0.500000
vt 0.312500 0.578125
vt 0.234375 0.500000
vt 0.156250 0.578125
vt 0.312500 0.656250
vt 0.234375 0.578125
vt 0.234375 0.656250
vt 0.078125 0.656250
vt 0.078125 0.000000
vt 0.000000 0.078125
vt 0.000000 0.000000
vt 0.078125 0.078125
vt 0.000000 0.156250
vt 0.078125 0.156250
vt 0.312500 0.000000
vt 0.234375 0.078125
vt 0.234375 0.000000
vt 0.156250 0.000000
vt 0.156250 0.078125
vt 0.312500 0.078125
vt 0.234375 0.156250
vt 0.156250 0.156250
vt 0.312500 0.156250
vt 0.234375 0.234375
vt 0.156250 0.234375
vt 0.312500 0.234375
vt 0.156250 0.312500
vt 0.421875 0.421875
vt 0.343750 0.343750
vt 0.421875 0.343750
vt 0.421875 0.500000
vt 0.343750 0.421875
vt 0.343750 0.500000
vt 0.656250 0.343750
vt 0.578125 0.421875
vt 0.578125 0.343750
vt 0.500000 0.343750
vt 0.500000 0.421875
vt 0.656250 0.500000
vt 0.656250 0.421875
vt 0.578125 0.500000
vt 0.500000 0.500000
vt 0.578125 0.578125
vt 0.656250 0.578125
vt 0.578125 0.656250
vt 0.500000 0.656250
vt 0.500000 0.578125
vt 0.078125 0.078125
vt 0.078125 0.156250
vt 0.234375 0.078125
vt 0.312500 0.156250
vt 0.312500 0.078125
vt 0.234375 0.156250
vt 0.156250 0.078125
vt 0.156250 0.234375
vt 0.156250 0.156250
vt 0.343750 0.656250
vt 0.000000 0.765625
vt 0.000000 0.921875
vt 0.000000 0.546875
vt 0.156250 0.656250
vt 0.656250 0.656250
s 0
usemtl CardboardBox
f 98/1/1 4/2/1 18/3/1
f 26/4/2 27/5/2 89/6/2
f 35/7/3 36/3/3 80/8/3
f 71/9/4 2/10/4 14/11/4
f 62/12/5 5/2/5 41/13/5
f 53/14/6 2/15/6 44/16/6
f 35/17/7 42/18/7 6/19/7
f 50/20/8 42/18/8 47/21/8
f 50/20/9 44/16/9 43/22/9
f 8/23/10 45/24/10 33/25/10
f 45/24/11 34/26/11 33/25/11
f 46/27/12 35/17/12 34/26/12
f 26/28/13 48/29/13 45/24/13
f 45/24/14 49/30/14 46/27/14
f 49/30/15 47/21/15 46/27/15
f 24/31/16 48/29/16 25/32/16
f 51/33/17 49/30/17 48/29/17
f 49/30/18 53/14/18 50/20/18
f 4/34/19 51/33/19 24/31/19
f 51/33/20 16/35/20 52/36/20
f 16/35/21 53/14/21 52/36/21
f 11/37/22 39/38/22 1/39/22
f 59/40/23 39/38/23 56/41/23
f 59/40/24 41/13/24 40/42/24
f 23/43/25 9/44/25 3/45/25
f 9/44/26 55/46/26 10/47/26
f 10/47/27 56/41/27 11/37/27
f 23/43/28 57/48/28 54/49/28
f 57/48/29 55/46/29 54/49/29
f 55/46/30 59/40/30 56/41/30
f 21/50/31 57/48/31 22/51/31
f 60/52/32 58/53/32 57/48/32
f 58/53/33 62/12/33 59/40/33
f 7/54/34 60/52/34 21/50/34
f 60/52/35 31/55/35 61/56/35
f 61/56/36 30/57/36 62/12/36
f 65/58/37 1/59/37 39/60/37
f 68/61/38 12/62/38 65/58/38
f 71/9/39 13/63/39 68/61/39
f 5/64/40 63/65/40 41/66/40
f 41/66/41 64/67/41 40/68/41
f 40/68/42 65/58/42 39/60/42
f 37/69/43 63/65/43 38/70/43
f 63/65/44 67/71/44 64/67/44
f 64/67/45 68/61/45 65/58/45
f 36/72/46 66/73/46 37/69/46
f 66/73/47 70/74/47 67/71/47
f 67/71/48 71/9/48 68/61/48
f 6/75/49 69/76/49 36/72/49
f 42/77/50 70/74/50 69/76/50
f 70/74/51 44/78/51 71/9/51
f 30/79/52 38/80/52 5/81/52
f 74/82/53 37/83/53 38/80/53
f 77/84/54 36/3/54 37/83/54
f 7/85/55 72/86/55 32/87/55
f 72/86/56 31/88/56 32/87/56
f 73/89/57 30/79/57 31/88/57
f 29/90/58 75/91/58 72/86/58
f 75/91/59 73/89/59 72/86/59
f 76/92/60 74/82/60 73/89/60
f 28/93/61 78/94/61 75/91/61
f 78/94/62 76/92/62 75/91/62
f 79/95/63 77/84/63 76/92/63
f 27/96/64 33/38/64 78/94/64
f 33/38/65 79/95/65 78/94/65
f 34/97/66 80/8/66 79/95/66
f 83/98/67 7/99/67 21/100/67
f 86/101/68 29/102/68 83/98/68
f 89/6/69 28/103/69 86/101/69
f 3/104/70 81/105/70 23/106/70
f 81/105/71 22/107/71 23/106/71
f 82/108/72 21/100/72 22/107/72
f 19/109/73 81/105/73 20/110/73
f 84/111/74 82/108/74 81/105/74
f 85/112/75 83/98/75 82/108/75
f 19/109/76 87/113/76 84/111/76
f 87/113/77 85/112/77 84/111/77
f 85/112/78 89/6/78 86/101/78
f 18/114/79 24/115/79 87/113/79
f 87/113/80 25/116/80 88/117/80
f 25/116/81 89/6/81 88/117/81
f 92/118/82 3/81/82 9/79/82
f 95/119/83 20/80/83 92/118/83
f 95/119/84 18/3/84 19/83/84
f 1/85/85 90/120/85 11/87/85
f 90/120/86 10/88/86 11/87/86
f 10/88/87 92/118/87 9/79/87
f 13/121/88 90/120/88 12/122/88
f 93/123/89 91/124/89 90/120/89
f 91/124/90 95/119/90 92/118/90
f 14/96/91 93/123/91 13/121/91
f 93/123/92 97/125/92 94/126/92
f 97/125/93 95/119/93 94/126/93
f 14/96/94 15/38/94 96/94/94
f 96/94/95 16/42/95 97/125/95
f 97/125/96 17/13/96 98/1/96
f 98/1/97 17/13/97 4/2/97
f 26/4/98 8/127/98 27/5/98
f 35/7/99 6/2/99 36/3/99
f 71/9/100 44/78/100 2/10/100
f 62/12/101 30/57/101 5/2/101
f 53/14/102 15/128/102 2/15/102
f 35/17/103 47/21/103 42/18/103
f 50/20/104 43/22/104 42/18/104
f 50/20/105 53/14/105 44/16/105
f 8/23/106 26/28/106 45/24/106
f 45/24/107 46/27/107 34/26/107
f 46/27/108 47/21/108 35/17/108
f 26/28/109 25/32/109 48/29/109
f 45/24/110 48/29/110 49/30/110
f 49/30/111 50/20/111 47/21/111
f 24/31/112 51/33/112 48/29/112
f 51/33/113 52/36/113 49/30/113
f 49/30/114 52/36/114 53/14/114
f 4/34/115 17/129/115 51/33/115
f 51/33/116 17/129/116 16/35/116
f 16/35/117 15/128/117 53/14/117
f 11/37/118 56/41/118 39/38/118
f 59/40/119 40/42/119 39/38/119
f 59/40/120 62/12/120 41/13/120
f 23/43/121 54/49/121 9/44/121
f 9/44/122 54/49/122 55/46/122
f 10/47/123 55/46/123 56/41/123
f 23/43/124 22/51/124 57/48/124
f 57/48/125 58/53/125 55/46/125
f 55/46/126 58/53/126 59/40/126
f 21/50/127 60/52/127 57/48/127
f 60/52/128 61/56/128 58/53/128
f 58/53/129 61/56/129 62/12/129
f 7/54/130 32/130/130 60/52/130
f 60/52/131 32/130/131 31/55/131
f 61/56/132 31/55/132 30/57/132
f 65/58/133 12/62/133 1/59/133
f 68/61/134 13/63/134 12/62/134
f 71/9/135 14/11/135 13/63/135
f 5/64/136 38/70/136 63/65/136
f 41/66/137 63/65/137 64/67/137
f 40/68/138 64/67/138 65/58/138
f 37/69/139 66/73/139 63/65/139
f 63/65/140 66/73/140 67/71/140
f 64/67/141 67/71/141 68/61/141
f 36/72/142 69/76/142 66/73/142
f 66/73/143 69/76/143 70/74/143
f 67/71/144 70/74/144 71/9/144
f 6/75/145 42/77/145 69/76/145
f 42/77/146 43/131/146 70/74/146
f 70/74/147 43/131/147 44/78/147
f 30/79/148 74/82/148 38/80/148
f 74/82/149 77/84/149 37/83/149
f 77/84/150 80/8/150 36/3/150
f 7/85/151 29/90/151 72/86/151
f 72/86/152 73/89/152 31/88/152
f 73/89/153 74/82/153 30/79/153
f 29/90/154 28/93/154 75/91/154
f 75/91/155 76/92/155 73/89/155
f 76/92/156 77/84/156 74/82/156
f 28/93/157 27/96/157 78/94/157
f 78/94/158 79/95/158 76/92/158
f 79/95/159 80/8/159 77/84/159
f 27/96/160 8/39/160 33/38/160
f 33/38/161 34/97/161 79/95/161
f 34/97/162 35/7/162 80/8/162
f 83/98/163 29/102/163 7/99/163
f 86/101/164 28/103/164 29/102/164
f 89/6/165 27/5/165 28/103/165
f 3/104/166 20/110/166 81/105/166
f 81/105/167 82/108/167 22/107/167
f 82/108/168 83/98/168 21/100/168
f 19/109/169 84/111/169 81/105/169
f 84/111/170 85/112/170 82/108/170
f 85/112/171 86/101/171 83/98/171
f 19/109/172 18/114/172 87/113/172
f 87/113/173 88/117/173 85/112/173
f 85/112/174 88/117/174 89/6/174
f 18/114/175 4/132/175 24/115/175
f 87/113/176 24/115/176 25/116/176
f 25/116/177 26/4/177 89/6/177
f 92/118/178 20/80/178 3/81/178
f 95/119/179 19/83/179 20/80/179
f 95/119/180 98/1/180 18/3/180
f 1/85/181 12/122/181 90/120/181
f 90/120/182 91/124/182 10/88/182
f 10/88/183 91/124/183 92/118/183
f 13/121/184 93/123/184 90/120/184
f 93/123/185 94/126/185 91/124/185
f 91/124/186 94/126/186 95/119/186
f 14/96/187 96/94/187 93/123/187
f 93/123/188 96/94/188 97/125/188
f 97/125/189 98/1/189 95/119/189
f 14/96/190 2/39/190 15/38/190
f 96/94/191 15/38/191 16/42/191
f 97/125/192 16/42/192 17/13/192
