# Blender 5.0.1
# www.blender.org
mtllib Pencil02.mtl
o Pencil02
v -0.000000 -0.008336 -0.009315
v 0.000000 0.090000 0.000000
v 0.008067 -0.008336 -0.004657
v 0.008067 -0.008336 0.004657
v -0.000000 -0.008336 0.009315
v -0.008067 -0.008336 0.004657
v -0.008067 -0.008336 -0.004657
v 0.000000 0.056104 -0.009315
v 0.008067 0.056104 -0.004657
v 0.008067 0.056104 0.004657
v 0.000000 0.056104 0.009315
v -0.008067 0.056104 0.004657
v -0.008067 0.056104 -0.004657
vn 0.4864 0.2315 -0.8425
vn 0.9728 0.2315 -0.0000
vn 0.4864 0.2315 0.8425
vn -0.4864 0.2315 0.8425
vn -0.9728 0.2315 -0.0000
vn -0.4864 0.2315 -0.8425
vn -0.0000 -1.0000 -0.0000
vn -0.5000 -0.0000 -0.8660
vn -1.0000 -0.0000 -0.0000
vn -0.5000 -0.0000 0.8660
vn 0.5000 -0.0000 0.8660
vn 1.0000 -0.0000 -0.0000
vn 0.5000 -0.0000 -0.8660
vt 0.375000 0.750000
vt 0.250000 1.000000
vt 0.250000 0.750000
vt 0.625000 0.750000
vt 0.500000 1.000000
vt 0.500000 0.750000
vt 0.375000 1.000000
vt 0.125000 1.000000
vt 0.125000 0.750000
vt 0.000000 1.000000
vt -0.000000 0.750000
vt 0.718416 0.586424
vt 1.000000 0.437500
vt 0.718416 0.288576
vt 0.000000 0.375000
vt 0.125000 0.375000
vt 0.250000 0.375000
vt 0.375000 0.375000
vt 0.500000 0.375000
vt 0.625000 0.375000
vt 0.625000 0.437500
vt 0.817698 0.586424
vt 0.817698 0.288576
s 0
usemtl Pencil
f 8/1/1 2/2/1 9/3/1
f 9/4/2 2/5/2 10/6/2
f 10/6/3 2/7/3 11/1/3
f 11/1/4 2/2/4 12/3/4
f 12/3/5 2/8/5 13/9/5
f 13/9/6 2/10/6 8/11/6
f 3/12/7 5/13/7 7/14/7
f 13/9/8 1/15/8 7/16/8
f 12/3/9 7/16/9 6/17/9
f 11/1/10 6/17/10 5/18/10
f 4/19/11 11/1/11 5/18/11
f 9/4/12 4/19/12 3/20/12
f 8/1/13 3/17/13 1/18/13
f 7/14/7 1/21/7 3/12/7
f 3/12/7 4/22/7 5/13/7
f 5/13/7 6/23/7 7/14/7
f 13/9/8 8/11/8 1/15/8
f 12/3/9 13/9/9 7/16/9
f 11/1/10 12/3/10 6/17/10
f 4/19/11 10/6/11 11/1/11
f 9/4/12 10/6/12 4/19/12
f 8/1/13 9/3/13 3/17/13
