# Blender 5.0.1
# www.blender.org
mtllib CigaretteBox01.mtl
o CigaretteBox01
v -0.027783 0.069337 0.011184
v -0.027783 0.069337 0.011184
v -0.027783 0.069337 0.011184
v -0.027783 0.069337 -0.011184
v -0.027783 0.069337 -0.011184
v -0.027783 0.069337 -0.011184
v -0.027783 0.000000 0.011184
v -0.027783 0.000000 0.011184
v -0.027783 0.000000 0.011184
v -0.027783 -0.000000 -0.011184
v -0.027783 -0.000000 -0.011184
v -0.027783 -0.000000 -0.011184
v 0.027783 0.069337 0.011184
v 0.027783 0.069337 0.011184
v 0.027783 0.069337 0.011184
v 0.027783 0.069337 -0.011184
v 0.027783 0.069337 -0.011184
v 0.027783 0.069337 -0.011184
v 0.027783 0.000000 0.011184
v 0.027783 0.000000 0.011184
v 0.027783 0.000000 0.011184
v 0.027783 -0.000000 -0.011184
v 0.027783 -0.000000 -0.011184
v 0.027783 -0.000000 -0.011184
vn -1.0000 -0.0000 -0.0000
vn -0.0000 -1.0000 -0.0000
vn 1.0000 -0.0000 -0.0000
vn -0.0000 1.0000 -0.0000
vn -0.0000 -0.0000 1.0000
vn -0.0000 -0.0000 -1.0000
vt 0.125000 1.000000
vt 0.000000 1.000000
vt 0.000000 0.562500
vt 0.125000 0.562500
vt 1.000000 0.687500
vt 0.875000 0.687500
vt 0.875000 0.375000
vt 1.000000 0.375000
vt 0.750000 0.562500
vt 0.875000 0.562500
vt 0.875000 1.000000
vt 0.750000 1.000000
vt 1.000000 1.000000
vt 0.437500 0.562500
vt 0.437500 1.000000
s 0
usemtl CigaretteBox01
f 3/1/1 6/2/1 12/3/1
f 3/1/1 12/3/1 9/4/1
f 7/5/2 10/6/2 22/7/2
f 7/5/2 22/7/2 19/8/2
f 21/9/3 24/10/3 18/11/3
f 21/9/3 18/11/3 15/12/3
f 13/6/4 16/5/4 4/13/4
f 13/6/4 4/13/4 1/11/4
f 8/4/5 20/14/5 14/15/5
f 8/4/5 14/15/5 2/1/5
f 23/14/6 11/9/6 5/12/6
f 23/14/6 5/12/6 17/15/6
