# Blender 5.1.0
# www.blender.org
mtllib Screw.mtl
o Screw
v -0.003781 0.000256 0.000000
v -0.002673 0.000256 0.002673
v 0.000000 0.000256 0.003781
v 0.002673 0.000256 0.002673
v 0.003781 0.000256 0.000000
v 0.002673 0.000256 -0.002673
v 0.000000 0.000256 -0.003781
v -0.002673 0.000256 -0.002673
v -0.009999 0.008059 0.000000
v -0.007070 0.008059 -0.007070
v -0.007070 0.008059 0.007070
v 0.000000 0.008059 0.009999
v 0.007070 0.008059 0.007070
v 0.009999 0.008059 0.000000
v 0.007070 0.008059 -0.007070
v 0.000000 0.008059 -0.009999
v -0.009999 0.000256 0.000000
v -0.007070 0.000256 -0.007070
v -0.007070 0.000256 0.007070
v 0.000000 0.000256 0.009999
v 0.007070 0.000256 0.007070
v 0.009999 0.000256 0.000000
v 0.007070 0.000256 -0.007070
v 0.000000 0.000256 -0.009999
v -0.003781 -0.026825 -0.000000
v -0.002673 -0.026825 -0.002673
v -0.002673 -0.026825 0.002673
v -0.000000 -0.026825 0.003781
v 0.002673 -0.026825 0.002673
v 0.003781 -0.026825 -0.000000
v 0.002673 -0.026825 -0.002673
v -0.000000 -0.026825 -0.003781
v -0.008400 0.008059 0.000000
v -0.005940 0.008059 -0.005940
v -0.005940 0.008059 0.005940
v 0.000000 0.008059 0.008400
v 0.005940 0.008059 0.005940
v 0.008400 0.008059 0.000000
v 0.005940 0.008059 -0.005940
v 0.000000 0.008059 -0.008400
v 0.000000 0.005301 0.000000
v -0.001794 0.008059 0.001794
v 0.001794 0.008059 -0.001794
v -0.001794 0.008059 -0.001794
v 0.001794 0.008059 0.001794
vn 0.9239 -0.0000 -0.3827
vn -0.9239 -0.0000 -0.3827
vn 0.3827 -0.0000 -0.9239
vn 0.3827 -0.0000 0.9239
vn -0.9239 -0.0000 0.3827
vn -0.3827 -0.0000 -0.9239
vn 0.9239 -0.0000 0.3827
vn -0.3827 -0.0000 0.9239
vn -0.0000 -1.0000 -0.0000
vn -0.0000 1.0000 -0.0000
vn -0.7542 0.6238 -0.2049
vn -0.2049 0.6238 -0.7542
vn -0.2049 0.6238 0.7542
vn -0.7542 0.6238 0.2049
vn 0.7542 0.6238 -0.2049
vn 0.2049 0.6238 -0.7542
vn 0.2049 0.6238 0.7542
vn 0.7542 0.6238 0.2049
vt 0.000000 0.000000
s 0
f 6/1/1 30/1/1 31/1/1
f 18/1/2 9/1/2 10/1/2
f 24/1/3 15/1/3 23/1/3
f 22/1/1 15/1/1 14/1/1
f 21/1/4 12/1/4 20/1/4
f 19/1/5 9/1/5 17/1/5
f 24/1/6 10/1/6 16/1/6
f 21/1/7 14/1/7 13/1/7
f 20/1/8 11/1/8 19/1/8
f 1/1/9 18/1/9 8/1/9
f 2/1/9 17/1/9 1/1/9
f 3/1/9 19/1/9 2/1/9
f 4/1/9 20/1/9 3/1/9
f 4/1/9 22/1/9 21/1/9
f 6/1/9 22/1/9 5/1/9
f 8/1/9 24/1/9 7/1/9
f 7/1/9 23/1/9 6/1/9
f 31/1/9 29/1/9 27/1/9
f 4/1/4 28/1/4 29/1/4
f 1/1/5 27/1/5 2/1/5
f 7/1/6 26/1/6 8/1/6
f 5/1/7 29/1/7 30/1/7
f 2/1/8 28/1/8 3/1/8
f 1/1/2 26/1/2 25/1/2
f 6/1/3 32/1/3 7/1/3
f 15/1/10 38/1/10 14/1/10
f 9/1/10 35/1/10 33/1/10
f 14/1/10 37/1/10 13/1/10
f 9/1/10 34/1/10 10/1/10
f 16/1/10 39/1/10 15/1/10
f 13/1/10 36/1/10 12/1/10
f 10/1/10 40/1/10 16/1/10
f 12/1/10 35/1/10 11/1/10
f 37/1/10 38/1/10 45/1/10
f 37/1/10 45/1/10 36/1/10
f 41/1/11 36/1/11 45/1/11
f 41/1/12 45/1/12 38/1/12
f 39/1/10 43/1/10 38/1/10
f 38/1/13 43/1/13 41/1/13
f 40/1/14 41/1/14 43/1/14
f 43/1/10 39/1/10 40/1/10
f 36/1/15 41/1/15 42/1/15
f 35/1/10 36/1/10 42/1/10
f 33/1/10 35/1/10 42/1/10
f 41/1/16 33/1/16 42/1/16
f 33/1/17 41/1/17 44/1/17
f 34/1/10 33/1/10 44/1/10
f 40/1/10 34/1/10 44/1/10
f 41/1/18 40/1/18 44/1/18
f 6/1/1 5/1/1 30/1/1
f 18/1/2 17/1/2 9/1/2
f 24/1/3 16/1/3 15/1/3
f 22/1/1 23/1/1 15/1/1
f 21/1/4 13/1/4 12/1/4
f 19/1/5 11/1/5 9/1/5
f 24/1/6 18/1/6 10/1/6
f 21/1/7 22/1/7 14/1/7
f 20/1/8 12/1/8 11/1/8
f 1/1/9 17/1/9 18/1/9
f 2/1/9 19/1/9 17/1/9
f 3/1/9 20/1/9 19/1/9
f 4/1/9 21/1/9 20/1/9
f 4/1/9 5/1/9 22/1/9
f 6/1/9 23/1/9 22/1/9
f 8/1/9 18/1/9 24/1/9
f 7/1/9 24/1/9 23/1/9
f 27/1/9 25/1/9 26/1/9
f 26/1/9 32/1/9 31/1/9
f 31/1/9 30/1/9 29/1/9
f 29/1/9 28/1/9 27/1/9
f 27/1/9 26/1/9 31/1/9
f 4/1/4 3/1/4 28/1/4
f 1/1/5 25/1/5 27/1/5
f 7/1/6 32/1/6 26/1/6
f 5/1/7 4/1/7 29/1/7
f 2/1/8 27/1/8 28/1/8
f 1/1/2 8/1/2 26/1/2
f 6/1/3 31/1/3 32/1/3
f 15/1/10 39/1/10 38/1/10
f 9/1/10 11/1/10 35/1/10
f 14/1/10 38/1/10 37/1/10
f 9/1/10 33/1/10 34/1/10
f 16/1/10 40/1/10 39/1/10
f 13/1/10 37/1/10 36/1/10
f 10/1/10 34/1/10 40/1/10
f 12/1/10 36/1/10 35/1/10
