# Blender 5.1.1
# www.blender.org
mtllib NumberPlate.mtl
o NumberPlane
v -0.090000 -0.050000 0.000000
v -0.100000 -0.040000 0.000000
v 0.100000 -0.040000 0.000000
v 0.090000 -0.050000 0.000000
v -0.090000 0.050000 -0.000000
v -0.100000 0.040000 -0.000000
v 0.090000 0.050000 -0.000000
v 0.100000 0.040000 -0.000000
vn -0.0000 -0.0000 1.0000
vt 1.000000 0.300000
vt 0.950000 0.750000
vt 0.000000 0.700000
vt 0.000000 0.300000
vt 0.050000 0.250000
vt 0.950000 0.250000
vt 1.000000 0.700000
vt 0.050000 0.750000
s 0
usemtl NumberPlate
f 3/1/1 7/2/1 6/3/1
f 6/3/1 2/4/1 1/5/1
f 1/5/1 4/6/1 3/1/1
f 3/1/1 8/7/1 7/2/1
f 7/2/1 5/8/1 6/3/1
f 6/3/1 1/5/1 3/1/1
