# Blender 5.0.1
# www.blender.org
mtllib Key01.mtl
o Key01
v -0.005000 0.000000 0.005000
v 0.005000 0.000000 0.005000
v -0.000646 0.000000 -0.050801
v 0.003500 0.000000 -0.051710
v -0.001940 0.000000 -0.042193
v -0.002278 0.000000 -0.031939
v -0.002838 0.000000 -0.021606
v -0.003500 0.000000 -0.014227
v 0.010000 0.000000 -0.005000
v -0.010000 0.000000 -0.005000
v 0.003500 0.000000 -0.014227
v 0.003500 0.000000 -0.023805
v 0.003500 0.000000 -0.033106
v 0.003500 0.000000 -0.042408
v 0.002785 0.000000 0.003367
v 0.004201 0.000000 0.000536
v -0.002785 0.000000 0.003367
v -0.004201 0.000000 0.000536
v 0.002785 0.002000 0.003367
v 0.004201 0.002000 0.000536
v -0.002785 0.002000 0.003367
v 0.003500 0.002000 -0.042408
v 0.003500 0.002000 -0.051710
v -0.000646 0.002000 -0.050801
v -0.001940 0.002000 -0.042193
v -0.002278 0.002000 -0.031939
v -0.002838 0.002000 -0.021606
v -0.003500 0.002000 -0.014227
v -0.004201 0.002000 0.000536
v -0.010000 0.002000 -0.005000
v 0.010000 0.002000 -0.005000
v 0.003500 0.002000 -0.014227
v 0.003500 0.002000 -0.023805
v 0.003500 0.002000 -0.033106
v 0.005000 0.002000 0.005000
v -0.005000 0.002000 0.005000
v -0.000883 0.000000 -0.036886
v -0.000883 0.002000 -0.036886
v -0.001056 0.000000 -0.026358
v -0.001056 0.002000 -0.026358
v -0.000422 0.000000 -0.046745
v -0.000422 0.002000 -0.046745
vn -0.0000 1.0000 -0.0000
vn -0.0000 -1.0000 -0.0000
vn -0.9363 -0.0000 -0.3511
vn -0.8944 -0.0000 0.4472
vn -0.9960 -0.0000 -0.0894
vn -0.0000 -0.0000 1.0000
vn -0.8944 -0.0000 -0.4472
vn 0.8944 -0.0000 -0.4472
vn -0.0000 -0.0000 -1.0000
vn -0.8175 -0.0000 -0.5759
vn 0.8175 -0.0000 -0.5759
vn -0.2141 -0.0000 -0.9768
vn 1.0000 -0.0000 -0.0000
vn -0.9486 -0.0000 -0.3165
vn 0.8944 -0.0000 0.4472
vn -0.9625 -0.0000 -0.2714
vn -0.9807 -0.0000 0.1954
vn -0.9769 -0.0000 0.2139
vn -0.9985 -0.0000 0.0553
vt 0.589515 0.750282
vt 0.657276 0.673158
vt 0.680017 0.836579
vt 0.184948 0.486610
vt 0.091641 0.341459
vt 0.214623 0.358573
vt 0.118850 0.846095
vt 0.081035 0.922359
vt 0.022741 0.836579
vt 0.517810 0.486610
vt 0.634535 0.509737
vt 0.560734 0.565733
vt 0.351379 0.212362
vt 0.000000 0.163465
vt 0.115425 0.080388
vt 0.112293 0.000000
vt 0.147220 0.034103
vt 0.245072 0.047720
vt 0.287983 0.024448
vt 0.263022 0.100927
vt 0.583908 0.846095
vt 0.611118 0.341459
vt 0.488135 0.358572
vt 0.068224 0.509737
vt 0.142024 0.565733
vt 0.045482 0.673158
vt -0.000000 1.000000
vt 0.351379 0.212362
vt 0.702758 0.163465
vt 0.587334 0.080388
vt 0.590465 -0.000000
vt 0.457686 0.047720
vt 0.555538 0.034103
vt 0.439736 0.100927
vt 0.414776 0.024448
vt 0.773712 0.506719
vt 0.738235 0.416881
vt 0.773712 0.416881
vt 0.773711 0.969366
vt 0.738235 0.825523
vt 0.773711 0.825523
vt 0.773712 0.635366
vt 0.738235 0.506719
vt 0.809188 0.326403
vt 0.773712 0.177382
vt 0.809188 0.177382
vt 0.809188 0.554839
vt 0.773712 0.499476
vt 0.809188 0.499476
vt 0.809188 0.608705
vt 0.773712 0.554839
vt 0.809188 0.554839
vt 0.809188 0.424623
vt 0.773712 0.326403
vt 0.809188 0.326403
vt 0.738235 0.635366
vt 0.702758 1.000000
vt 0.621723 0.922358
vt 0.738235 0.340395
vt 0.702758 0.158966
vt 0.738235 0.158966
vt 0.809188 0.499476
vt 0.773712 0.424623
vt 0.809188 0.424623
vt 0.738235 0.507633
vt 0.702758 0.340395
vt 0.773712 0.152760
vt 0.738235 0.067666
vt 0.773712 0.067666
vt 0.702758 0.000000
vt 0.738235 0.000000
vt 0.113244 0.750282
vt 0.773712 0.328493
vt 0.738235 0.237336
vt 0.773712 0.237336
vt 0.809188 0.177383
vt 0.773712 0.000000
vt 0.809188 0.000000
vt 0.738235 0.152760
vt 0.075065 0.994170
vt 0.552910 0.666776
vt 0.738235 0.328493
vt 0.149848 0.666776
vt 0.738235 -0.000000
vt 0.773712 -0.000000
vt 0.627694 0.994170
vt 0.702758 0.670044
vt 0.738235 0.670044
vt 0.738235 0.832454
vt 0.702758 0.832454
vt 0.702758 0.994865
vt 0.738235 0.969366
vt 0.773712 0.326403
vt 0.773712 0.554839
vt 0.773712 0.608705
vt 0.773712 0.424623
vt 0.773712 0.499476
vt 0.702758 0.507633
vt 0.773712 0.177382
vt 0.738235 0.994865
s 0
f 38/1/1 34/2/1 22/3/1
f 7/4/2 11/5/2 8/6/2
f 5/7/2 41/8/2 14/9/2
f 27/10/1 33/11/1 40/12/1
f 10/13/2 11/5/2 9/14/2
f 16/15/2 2/16/2 15/17/2
f 2/16/2 17/18/2 15/17/2
f 1/19/2 18/20/2 17/18/2
f 10/13/2 16/15/2 18/20/2
f 38/1/1 22/3/1 25/21/1
f 32/22/1 27/10/1 28/23/1
f 12/24/2 39/25/2 13/26/2
f 41/8/2 4/27/2 14/9/2
f 32/22/1 30/28/1 31/29/1
f 20/30/1 35/31/1 31/29/1
f 21/32/1 35/31/1 19/33/1
f 29/34/1 36/35/1 21/32/1
f 29/34/1 31/29/1 30/28/1
f 7/36/3 40/37/3 39/38/3
f 1/39/4 30/40/4 10/41/4
f 8/42/5 27/43/5 7/36/5
f 16/44/6 29/45/6 18/46/6
f 15/47/7 20/48/7 16/49/7
f 18/50/8 21/51/8 17/52/8
f 17/53/9 19/54/9 15/55/9
f 10/41/10 28/56/10 8/42/10
f 22/3/1 23/57/1 42/58/1
f 11/59/11 31/60/11 9/61/11
f 3/62/12 23/63/12 4/64/12
f 12/65/13 32/66/13 11/59/13
f 5/67/14 42/68/14 41/69/14
f 9/61/15 35/70/15 2/71/15
f 5/7/2 14/9/2 37/72/2
f 6/73/16 38/74/16 37/75/16
f 2/76/6 36/77/6 1/78/6
f 40/12/1 33/11/1 34/2/1
f 13/26/2 37/72/2 14/9/2
f 37/75/17 25/79/17 5/67/17
f 3/80/2 4/27/2 41/8/2
f 26/81/1 34/2/1 38/1/1
f 7/4/2 39/25/2 12/24/2
f 39/38/18 26/82/18 6/73/18
f 6/83/2 13/26/2 39/25/2
f 6/83/2 37/72/2 13/26/2
f 41/69/19 24/84/19 3/85/19
f 25/21/1 22/3/1 42/58/1
f 26/81/1 40/12/1 34/2/1
f 24/86/1 42/58/1 23/57/1
f 34/87/13 12/65/13 13/88/13
f 34/87/13 14/89/13 22/90/13
f 14/89/13 23/91/13 22/90/13
f 7/4/2 12/24/2 11/5/2
f 10/13/2 8/6/2 11/5/2
f 16/15/2 9/14/2 2/16/2
f 2/16/2 1/19/2 17/18/2
f 1/19/2 10/13/2 18/20/2
f 10/13/2 9/14/2 16/15/2
f 32/22/1 33/11/1 27/10/1
f 32/22/1 28/23/1 30/28/1
f 20/30/1 19/33/1 35/31/1
f 21/32/1 36/35/1 35/31/1
f 29/34/1 30/28/1 36/35/1
f 29/34/1 20/30/1 31/29/1
f 7/36/3 27/43/3 40/37/3
f 1/39/4 36/92/4 30/40/4
f 8/42/5 28/56/5 27/43/5
f 16/44/6 20/93/6 29/45/6
f 15/47/7 19/94/7 20/48/7
f 18/50/8 29/95/8 21/51/8
f 17/53/9 21/96/9 19/54/9
f 10/41/10 30/40/10 28/56/10
f 11/59/11 32/66/11 31/60/11
f 3/62/12 24/97/12 23/63/12
f 12/65/13 33/98/13 32/66/13
f 5/67/14 25/79/14 42/68/14
f 9/61/15 31/60/15 35/70/15
f 6/73/16 26/82/16 38/74/16
f 2/76/6 35/99/6 36/77/6
f 37/75/17 38/74/17 25/79/17
f 39/38/18 40/37/18 26/82/18
f 41/69/19 42/68/19 24/84/19
f 34/87/13 33/98/13 12/65/13
f 34/87/13 13/88/13 14/89/13
f 14/89/13 4/100/13 23/91/13
