# Blender 5.1.1
# www.blender.org
mtllib CuttingBoard.mtl
o CuttingBoard
v -0.215965 0.000000 0.158400
v -0.237600 0.000000 0.136765
v 0.237600 0.000000 0.136765
v 0.215965 0.000000 0.158400
v -0.237600 -0.000000 -0.136765
v -0.215965 -0.000000 -0.158400
v 0.215965 -0.000000 -0.158400
v 0.237600 -0.000000 -0.136765
v -0.215965 0.020000 -0.158400
v -0.237600 0.020000 -0.136765
v -0.237600 0.020000 0.136765
v -0.215965 0.020000 0.158400
v 0.215965 0.020000 0.158400
v 0.237600 0.020000 0.136765
v 0.237600 0.020000 -0.136765
v 0.215965 0.020000 -0.158400
v -0.215965 0.020000 -0.136767
v 0.215967 0.020000 -0.136765
v -0.215965 0.020000 0.136768
v 0.215966 0.020000 0.136766
v 0.215966 0.000000 0.136765
v 0.215965 -0.000000 -0.136768
v -0.215966 -0.000000 -0.136765
v -0.215966 0.000000 0.136765
vn -0.0000 -0.0000 1.0000
vn 1.0000 -0.0000 -0.0000
vn -0.0000 -0.0000 -1.0000
vn -0.0000 -1.0000 -0.0000
vn -0.0000 1.0000 -0.0000
vn 0.7071 -0.0000 0.7071
vn -0.7071 -0.0000 0.7071
vn 0.7071 -0.0000 -0.7071
vn -0.7071 -0.0000 -0.7071
vn -1.0000 -0.0000 -0.0000
vt 0.875000 0.375000
vt 0.937500 1.000000
vt 0.875000 1.000000
vt 1.000000 0.375000
vt 0.937500 0.000000
vt 1.000000 0.000000
vt 1.000000 1.000000
vt 0.937500 0.375000
vt 0.062500 0.062500
vt 0.687500 -0.000000
vt 0.062500 -0.000000
vt 0.000000 0.562500
vt 0.062500 0.937500
vt 0.000000 0.937500
vt 0.812500 0.562500
vt 0.875000 0.500000
vt 0.875000 0.562500
vt 0.812500 0.750000
vt 0.875000 0.812500
vt 0.812500 0.812500
vt 0.875000 0.687500
vt 0.812500 0.625000
vt 0.875000 0.625000
vt 0.812500 0.875000
vt 0.875000 0.937500
vt 0.812500 0.937500
vt 0.875000 0.000000
vt 0.687500 1.000000
vt 0.062500 1.000000
vt 0.687500 0.937500
vt 0.750000 0.562500
vt 0.750000 0.937500
vt 0.687500 0.500000
vt 0.062500 0.562500
vt 0.062500 0.500000
vt 0.687500 0.562500
vt 0.687500 0.062500
vt 0.750000 0.437500
vt 0.750000 0.062500
vt 0.687500 0.437500
vt -0.000000 0.437500
vt 0.000000 0.062500
vt 0.062500 0.437500
vt 0.812500 0.500000
vt 0.875000 0.750000
vt 0.812500 0.687500
vt 0.875000 0.875000
s 1
usemtl CuttingBoard
f 4/1/1 12/2/1 1/3/1
f 8/4/2 14/5/2 3/6/2
f 6/7/3 16/8/3 7/4/3
f 24/9/4 4/10/4 1/11/4
f 11/12/5 17/13/5 10/14/5
f 14/15/6 4/16/6 3/17/6
f 2/18/7 12/19/7 11/20/7
f 16/21/8 8/22/8 7/23/8
f 6/24/9 10/25/9 9/26/9
f 2/27/10 10/8/10 5/1/10
f 17/13/5 16/28/5 9/29/5
f 10/14/5 17/13/5 9/29/5
f 18/30/5 14/31/5 15/32/5
f 13/33/5 19/34/5 12/35/5
f 16/28/5 18/30/5 15/32/5
f 14/31/5 20/36/5 13/33/5
f 19/34/5 11/12/5 12/35/5
f 20/36/5 17/13/5 19/34/5
f 21/37/4 8/38/4 3/39/4
f 22/40/4 6/35/4 7/33/4
f 4/10/4 21/37/4 3/39/4
f 5/41/4 24/9/4 2/42/4
f 8/38/4 22/40/4 7/33/4
f 23/43/4 21/37/4 24/9/4
f 6/35/4 23/43/4 5/41/4
f 24/9/4 1/11/4 2/42/4
f 4/1/1 13/8/1 12/2/1
f 8/4/2 15/8/2 14/5/2
f 6/7/3 9/2/3 16/8/3
f 24/9/4 21/37/4 4/10/4
f 11/12/5 19/34/5 17/13/5
f 14/15/6 13/44/6 4/16/6
f 2/18/7 1/45/7 12/19/7
f 16/21/8 15/46/8 8/22/8
f 6/24/9 5/47/9 10/25/9
f 2/27/10 11/5/10 10/8/10
f 17/13/5 18/30/5 16/28/5
f 18/30/5 20/36/5 14/31/5
f 13/33/5 20/36/5 19/34/5
f 20/36/5 18/30/5 17/13/5
f 21/37/4 22/40/4 8/38/4
f 22/40/4 23/43/4 6/35/4
f 5/41/4 23/43/4 24/9/4
f 23/43/4 22/40/4 21/37/4
