# Blender 5.0.1
# www.blender.org
mtllib BigCardboardBoxFlat01.mtl
o BigCardboardBoxFlat01
v -0.200000 0.000000 0.160000
v -0.200000 0.200000 0.160000
v -0.200000 0.000000 -0.160000
v -0.200000 0.200000 -0.160000
v 0.200000 0.000000 0.160000
v 0.200000 0.200000 0.160000
v 0.200000 0.000000 -0.160000
v 0.200000 0.200000 -0.160000
vn -1.0000 -0.0000 -0.0000
vn -0.0000 -0.0000 -1.0000
vn 1.0000 -0.0000 -0.0000
vn -0.0000 -0.0000 1.0000
vn -0.0000 -1.0000 -0.0000
vn -0.0000 1.0000 -0.0000
vt 0.281250 0.156250
vt 0.031250 -0.000000
vt 0.281250 -0.000000
vt 0.656250 0.656250
vt 0.343750 0.500000
vt 0.656250 0.500000
vt 0.343750 0.343750
vt 0.656250 0.343750
vt 0.343750 0.625000
vt 0.656250 0.375000
vt 0.656250 0.625000
vt -0.000000 0.968750
vt 0.312500 0.718750
vt 0.312500 0.968750
vt 0.031250 0.156250
vt 0.343750 0.656250
vt 0.343750 0.375000
vt -0.000000 0.718750
s 0
usemtl CardboardBox
f 2/1/1 3/2/1 1/3/1
f 4/4/2 7/5/2 3/6/2
f 8/1/3 5/2/3 7/3/3
f 6/6/4 1/7/4 5/8/4
f 7/9/5 1/10/5 3/11/5
f 4/12/6 6/13/6 8/14/6
f 2/1/1 4/15/1 3/2/1
f 4/4/2 8/16/2 7/5/2
f 8/1/3 6/15/3 5/2/3
f 6/6/4 2/5/4 1/7/4
f 7/9/5 5/17/5 1/10/5
f 4/12/6 2/18/6 6/13/6
