# Blender 5.0.1
# www.blender.org
mtllib BrokenCardboardBoxFlat.mtl
o BrokenCardboardBoxFlat
v -0.165063 -0.014122 0.106207
v -0.137523 0.136396 0.120968
v -0.149964 -0.000144 -0.120136
v -0.144967 0.103092 -0.114089
v 0.133969 -0.001229 0.090060
v 0.150070 0.118205 0.119996
v 0.147097 -0.036838 -0.113252
v 0.150791 0.114527 -0.108157
v -0.136616 0.004748 -0.059141
v -0.136897 0.011991 -0.012977
v -0.141976 -0.007741 0.049778
v -0.130612 0.015308 0.119839
v -0.150446 0.061534 0.116189
v -0.132408 0.097967 0.107224
v -0.160635 0.128553 0.090728
v -0.155724 0.126726 -0.007932
v -0.149518 0.117188 -0.057514
v -0.152176 0.083297 -0.115211
v -0.153750 0.070624 -0.113421
v -0.140410 0.033991 -0.130752
v 0.087723 -0.008356 -0.122814
v 0.008954 0.011020 -0.116369
v -0.059468 -0.020657 -0.132226
v -0.073476 0.116516 -0.119143
v 0.006489 0.151825 -0.120402
v 0.105448 0.127912 -0.140863
v 0.139354 0.092907 -0.111229
v 0.163989 0.053672 -0.103962
v 0.146483 0.034074 -0.115516
v 0.158836 0.008342 0.059373
v 0.138429 0.002357 -0.009833
v 0.148410 0.004824 -0.063053
v 0.154663 0.121427 -0.051789
v 0.130779 0.129050 -0.020618
v 0.117147 0.132414 0.049005
v 0.149650 0.086367 0.106319
v 0.154618 0.054725 0.127354
v 0.160992 0.047035 0.112921
v -0.052010 -0.007573 0.097752
v 0.001091 -0.004294 0.124666
v 0.065000 0.004260 0.124114
v 0.090961 0.121431 0.100202
v 0.001284 0.114722 0.128463
v -0.066254 0.135648 0.093514
v 0.065503 0.117803 -0.059736
v 0.075248 0.117943 -0.000340
v 0.075510 0.116100 0.057090
v 0.010099 0.119638 -0.061358
v -0.009209 0.114816 -0.008949
v 0.022085 0.135064 0.059343
v -0.075111 0.117694 -0.059995
v -0.078688 0.114118 -0.000199
v -0.064564 0.132996 0.083260
v -0.100681 0.003445 -0.045883
v -0.059565 -0.004240 0.010421
v -0.075774 -0.002109 0.058480
v 0.000423 0.001590 -0.064874
v -0.000693 -0.000239 -0.002919
v 0.000046 0.000100 0.060015
v 0.084759 -0.002465 -0.070579
v 0.074216 0.001474 -0.000319
v 0.074619 0.001790 0.061496
v 0.059972 0.034033 0.156046
v -0.012748 0.023008 0.109647
v -0.086754 0.004488 0.117748
v 0.072181 0.062617 0.121115
v 0.005184 0.051004 0.109517
v -0.059727 0.054404 0.107029
v 0.060676 0.065831 0.129934
v -0.013000 0.096055 0.126212
v -0.080564 0.081399 0.114512
v 0.141971 0.009861 -0.053164
v 0.153903 0.042135 -0.006055
v 0.148339 0.028784 0.057775
v 0.163742 0.056787 -0.075690
v 0.156726 0.069176 -0.007709
v 0.170569 0.075238 0.070309
v 0.150638 0.089328 -0.060437
v 0.150769 0.110186 0.026446
v 0.138784 0.113619 0.057641
v -0.052171 0.009146 -0.124468
v 0.005509 0.027272 -0.130357
v 0.068858 0.029307 -0.117183
v -0.095432 0.045107 -0.110715
v -0.017356 0.047044 -0.130837
v 0.103220 0.074983 -0.137755
v -0.064791 0.079253 -0.107786
v -0.001684 0.090076 -0.118090
v 0.081339 0.118210 -0.140332
v -0.132565 0.028240 0.079868
v -0.152589 0.034155 -0.003101
v -0.172104 0.014263 -0.087851
v -0.150538 0.059883 0.063587
v -0.152562 0.058708 -0.013592
v -0.149835 0.059100 -0.059964
v -0.175972 0.083152 0.057844
v -0.150658 0.086323 0.000891
v -0.161211 0.085053 -0.050603
vn -0.9279 0.3458 -0.1392
vn 0.1909 -0.5199 -0.8326
vn 0.9811 0.0654 -0.1824
vn -0.0145 0.3643 0.9312
vn -0.0649 -0.9975 0.0294
vn -0.0914 0.9603 -0.2634
vn -0.0144 0.9791 0.2027
vn 0.3172 0.9207 -0.2275
vn 0.0596 0.9526 0.2983
vn -0.0297 0.9924 -0.1194
vn -0.0171 0.9681 -0.2499
vn -0.2273 0.9695 -0.0913
vn 0.2762 0.9276 0.2516
vn 0.0333 0.9994 -0.0078
vn 0.3355 0.9416 0.0287
vn -0.3516 0.8128 0.4646
vn -0.0214 0.9963 0.0838
vn -0.0906 0.9654 -0.2447
vn -0.1862 0.9822 -0.0247
vn -0.0048 0.9982 0.0594
vn -0.0615 0.9757 -0.2103
vn 0.0942 -0.9928 -0.0737
vn 0.0319 -0.9871 -0.1567
vn 0.1317 -0.9889 -0.0693
vn -0.0711 -0.9929 0.0952
vn -0.0924 -0.9838 0.1538
vn -0.1060 -0.9461 -0.3061
vn 0.0359 -0.9580 0.2845
vn -0.0384 -0.9935 -0.1075
vn 0.0280 -0.9982 0.0537
vn -0.0599 -0.9801 -0.1894
vn 0.0239 -0.9993 -0.0291
vn 0.0227 -0.9997 0.0051
vn -0.4412 -0.8942 0.0758
vn 0.0225 -0.9980 0.0593
vn 0.0145 -0.9999 0.0050
vn 0.0917 -0.7742 0.6263
vn 0.0872 0.1638 0.9826
vn 0.0822 -0.2068 0.9749
vn 0.3342 -0.5498 0.7655
vn 0.1022 -0.7195 0.6870
vn -0.4504 0.2442 0.8588
vn 0.1884 0.7268 0.6605
vn -0.5410 0.3501 0.7647
vn 0.0633 0.1766 0.9822
vn -0.0102 0.5525 0.8335
vn 0.0808 -0.8980 0.4326
vn -0.0548 -0.3663 0.9289
vn 0.1467 0.4031 0.9033
vn -0.0757 -0.0621 0.9952
vn -0.2406 0.4049 0.8821
vn 0.6538 0.3866 0.6504
vn 0.9071 -0.4150 -0.0708
vn 0.8457 0.3811 0.3735
vn 0.9994 0.0076 -0.0325
vn 0.7565 0.6312 0.1711
vn 0.8604 0.4192 -0.2899
vn 0.8785 -0.4634 -0.1164
vn 0.9142 -0.4028 0.0444
vn 0.9929 -0.0996 0.0657
vn 0.8500 0.5244 -0.0504
vn 0.9320 0.3611 0.0304
vn 0.9371 0.2936 -0.1891
vn 0.8742 -0.4305 -0.2246
vn 0.8271 0.5462 -0.1324
vn 0.6134 0.7753 0.1504
vn 0.1447 -0.0303 -0.9890
vn 0.0462 -0.4389 -0.8973
vn 0.5247 0.1751 -0.8331
vn -0.1827 -0.2450 -0.9522
vn 0.1214 0.2221 -0.9674
vn -0.0509 0.1227 -0.9911
vn 0.2156 0.5642 -0.7970
vn -0.0687 -0.1036 -0.9922
vn 0.1900 -0.5185 -0.8337
vn -0.0144 -0.1381 -0.9903
vn -0.2451 0.2991 -0.9222
vn -0.1290 0.3245 -0.9370
vn 0.0858 0.0252 -0.9960
vn -0.1009 -0.3115 -0.9449
vn -0.2581 -0.0020 -0.9661
vn -0.3706 -0.9158 0.1546
vn -0.8021 -0.0097 -0.5970
vn -0.9181 -0.3959 -0.0181
vn -0.8379 0.4621 -0.2905
vn -0.8397 -0.4949 -0.2236
vn -0.7936 -0.6018 0.0896
vn -0.9133 -0.3985 -0.0843
vn -0.8924 -0.4111 0.1861
vn -0.9171 0.3795 0.1221
vn -0.8973 0.4412 -0.0123
vn -0.9981 0.0555 0.0253
vn -0.9218 -0.3834 -0.0574
vn -0.6830 -0.2628 0.6814
vn -0.8910 -0.2007 -0.4072
vn -0.9762 -0.0783 0.2020
vn -0.9388 0.3088 -0.1525
vn 0.5429 -0.1703 -0.8224
vn 0.6846 0.7073 -0.1759
vn 0.3430 -0.2755 0.8980
vn 0.0690 -0.9669 -0.2456
vn -0.0612 0.9765 -0.2065
vn -0.3623 0.9319 0.0146
vn 0.0190 0.9576 0.2875
vn 0.3726 0.9115 -0.1743
vn 0.1470 0.9701 0.1932
vn -0.1861 0.9821 0.0282
vn -0.3593 0.9327 0.0316
vn 0.0151 0.8783 0.4779
vn -0.0445 0.9962 0.0752
vn -0.0068 0.9596 -0.2814
vn -0.0231 0.9995 -0.0205
vn -0.0025 0.9982 0.0595
vn -0.0368 0.9760 -0.2145
vn -0.0147 0.9700 -0.2428
vn 0.1754 0.9706 -0.1648
vn 0.1625 0.9867 -0.0102
vn 0.0448 -0.9854 -0.1642
vn 0.0963 -0.9930 -0.0690
vn 0.0218 -0.9988 0.0427
vn -0.1952 -0.9648 0.1762
vn -0.2115 -0.9772 0.0210
vn 0.0755 -0.9947 0.0696
vn 0.4358 -0.8954 -0.0918
vn 0.0614 -0.9977 -0.0284
vn 0.0688 -0.9976 0.0046
vn -0.2303 -0.9684 0.0961
vn -0.0447 -0.9978 0.0492
vn 0.0226 -0.9997 0.0050
vn 0.0127 -0.7696 0.6384
vn 0.1166 -0.9929 -0.0242
vn 0.0790 -0.9949 0.0628
vn -0.0479 -0.3731 0.9265
vn 0.1094 0.1248 0.9861
vn -0.0515 0.2626 0.9635
vn 0.3674 -0.6507 0.6646
vn -0.5483 0.1723 0.8184
vn 0.2336 -0.5981 0.7666
vn -0.1181 -0.8971 0.4258
vn -0.2349 0.7909 0.5651
vn -0.0368 0.0282 0.9989
vn 0.3313 -0.6612 0.6731
vn -0.2147 -0.4144 0.8844
vn -0.0910 -0.3306 0.9394
vn -0.3130 -0.3714 0.8741
vn 0.2591 0.3419 0.9033
vn -0.4010 0.1991 0.8942
vn 0.8808 -0.4713 -0.0461
vn 0.9317 0.1692 0.3214
vn 0.7173 0.6639 0.2115
vn 0.8111 0.5230 0.2618
vn 0.9315 -0.3636 0.0132
vn 0.9318 -0.3630 0.0053
vn 0.7186 -0.6905 0.0824
vn 0.9882 -0.0959 0.1195
vn 0.9076 -0.3992 -0.1300
vn 0.8853 0.4344 -0.1661
vn 0.9827 0.1800 -0.0447
vn 0.7200 0.6635 0.2036
vn 0.9925 -0.1097 -0.0547
vn 0.7344 -0.2609 0.6265
vn 0.5846 0.8078 0.0755
vn 0.0118 0.1536 -0.9881
vn 0.5014 0.0610 -0.8631
vn 0.5096 0.2082 -0.8348
vn 0.1307 0.2197 -0.9668
vn 0.1208 -0.6327 -0.7649
vn 0.1788 -0.6198 -0.7641
vn 0.2520 0.4873 -0.8361
vn -0.2506 0.0679 -0.9657
vn -0.0407 -0.0713 -0.9966
vn 0.0851 0.0091 -0.9963
vn -0.2088 0.3469 -0.9144
vn -0.2042 -0.1609 -0.9656
vn -0.0123 -0.2942 -0.9557
vn 0.0008 -0.0375 -0.9993
vn -0.1310 0.2734 -0.9530
vn -0.8137 0.0476 -0.5793
vn -0.9192 0.3656 0.1461
vn -0.9848 0.1025 -0.1405
vn -0.6844 0.6833 0.2545
vn -0.9697 0.0547 0.2379
vn -0.4675 -0.8306 0.3026
vn -0.8731 -0.4873 0.0168
vn -0.9996 0.0122 0.0260
vn -0.9980 -0.0241 -0.0589
vn -0.5838 -0.4758 0.6578
vn -0.6031 -0.7354 -0.3090
vn -0.9787 -0.0382 0.2015
vn -0.7114 -0.3187 0.6264
vn -0.9338 0.3539 -0.0530
vn -0.9367 0.3031 -0.1756
vt 0.093750 0.093750
vt 0.031250 0.125000
vt 0.031250 0.093750
vt 0.421875 0.562500
vt 0.343750 0.531250
vt 0.421875 0.531250
vt 0.078125 0.468750
vt 0.000000 0.437500
vt 0.078125 0.437500
vt 0.421875 0.437500
vt 0.343750 0.375000
vt 0.421875 0.375000
vt 0.078125 0.781250
vt 0.000000 0.718750
vt 0.078125 0.718750
vt 0.312500 0.781250
vt 0.234375 0.718750
vt 0.312500 0.718750
vt 0.156250 0.781250
vt 0.234375 0.781250
vt 0.156250 0.718750
vt 0.312500 0.968750
vt 0.234375 0.906250
vt 0.312500 0.906250
vt 0.312500 0.843750
vt 0.234375 0.843750
vt 0.156250 0.968750
vt 0.234375 0.968750
vt 0.156250 0.906250
vt 0.078125 0.968750
vt 0.078125 0.906250
vt 0.156250 0.843750
vt 0.000000 0.968750
vt 0.000000 0.906250
vt 0.078125 0.843750
vt 0.000000 0.781250
vt 0.578125 0.437500
vt 0.656250 0.375000
vt 0.656250 0.437500
vt 0.500000 0.437500
vt 0.578125 0.375000
vt 0.500000 0.375000
vt 0.656250 0.625000
vt 0.578125 0.562500
vt 0.656250 0.562500
vt 0.656250 0.500000
vt 0.578125 0.500000
vt 0.578125 0.625000
vt 0.500000 0.562500
vt 0.500000 0.625000
vt 0.421875 0.500000
vt 0.500000 0.500000
vt 0.343750 0.625000
vt 0.421875 0.625000
vt 0.343750 0.500000
vt 0.078125 0.375000
vt 0.000000 0.343750
vt 0.078125 0.343750
vt 0.078125 0.406250
vt 0.000000 0.375000
vt 0.000000 0.406250
vt 0.312500 0.375000
vt 0.234375 0.343750
vt 0.312500 0.343750
vt 0.234375 0.375000
vt 0.156250 0.343750
vt 0.156250 0.375000
vt 0.234375 0.406250
vt 0.156250 0.406250
vt 0.312500 0.437500
vt 0.312500 0.406250
vt 0.234375 0.437500
vt 0.156250 0.437500
vt 0.234375 0.468750
vt 0.156250 0.468750
vt 0.093750 0.031250
vt 0.031250 0.000000
vt 0.093750 0.000000
vt 0.093750 0.062500
vt 0.031250 0.031250
vt 0.031250 0.062500
vt 0.281250 0.031250
vt 0.218750 0.000000
vt 0.281250 0.000000
vt 0.218750 0.031250
vt 0.156250 0.000000
vt 0.218750 0.062500
vt 0.156250 0.031250
vt 0.156250 0.062500
vt 0.281250 0.093750
vt 0.281250 0.062500
vt 0.218750 0.093750
vt 0.156250 0.093750
vt 0.281250 0.125000
vt 0.156250 0.125000
vt 0.093750 0.125000
vt 0.343750 0.468750
vt 0.343750 0.437500
vt 0.421875 0.500000
vt 0.421875 0.468750
vt 0.656250 0.468750
vt 0.578125 0.468750
vt 0.500000 0.437500
vt 0.578125 0.500000
vt 0.500000 0.500000
vt 0.500000 0.468750
vt 0.656250 0.531250
vt 0.656250 0.500000
vt 0.578125 0.531250
vt 0.500000 0.531250
vt 0.093750 0.062500
vt 0.156250 0.031250
vt 0.281250 0.062500
vt 0.218750 0.062500
vt 0.156250 0.093750
vt 0.156250 0.062500
vt 0.218750 0.125000
vt 0.156250 0.125000
vt 0.343750 0.562500
vt 0.000000 0.468750
vt 0.000000 0.843750
vt 0.312500 0.468750
s 0
usemtl CardboardBox
f 98/1/1 4/2/1 18/3/1
f 26/4/2 27/5/2 89/6/2
f 80/1/3 6/2/3 36/3/3
f 44/7/4 14/8/4 71/9/4
f 62/10/5 5/11/5 41/12/5
f 53/13/6 2/14/6 44/15/6
f 35/16/7 42/17/7 6/18/7
f 50/19/8 42/17/8 47/20/8
f 53/13/9 43/21/9 50/19/9
f 8/22/10 45/23/10 33/24/10
f 45/23/11 34/25/11 33/24/11
f 46/26/12 35/16/12 34/25/12
f 25/27/13 45/23/13 26/28/13
f 48/29/14 46/26/14 45/23/14
f 46/26/15 50/19/15 47/20/15
f 24/30/16 48/29/16 25/27/16
f 51/31/17 49/32/17 48/29/17
f 49/32/18 53/13/18 50/19/18
f 4/33/19 51/31/19 24/30/19
f 17/34/20 52/35/20 51/31/20
f 52/35/21 15/36/21 53/13/21
f 56/37/22 1/38/22 11/39/22
f 59/40/23 39/41/23 56/37/23
f 59/40/24 41/12/24 40/42/24
f 3/43/25 54/44/25 9/45/25
f 54/44/26 10/46/26 9/45/26
f 55/47/27 11/39/27 10/46/27
f 23/48/28 57/49/28 54/44/28
f 57/49/29 55/47/29 54/44/29
f 55/47/30 59/40/30 56/37/30
f 22/50/31 60/4/31 57/49/31
f 57/49/32 61/51/32 58/52/32
f 61/51/33 59/40/33 58/52/33
f 7/53/34 60/4/34 21/54/34
f 60/4/35 31/55/35 61/51/35
f 31/55/36 62/10/36 61/51/36
f 65/56/37 1/57/37 39/58/37
f 68/59/38 12/60/38 65/56/38
f 71/9/39 13/61/39 68/59/39
f 38/62/40 41/63/40 5/64/40
f 63/65/41 40/66/41 41/63/41
f 64/67/42 39/58/42 40/66/42
f 38/62/43 66/68/43 63/65/43
f 63/65/44 67/69/44 64/67/44
f 64/67/45 68/59/45 65/56/45
f 36/70/46 66/68/46 37/71/46
f 69/72/47 67/69/47 66/68/47
f 70/73/48 68/59/48 67/69/48
f 36/70/49 42/74/49 69/72/49
f 69/72/50 43/75/50 70/73/50
f 70/73/51 44/7/51 71/9/51
f 74/76/52 5/77/52 30/78/52
f 77/79/53 38/80/53 74/76/53
f 77/79/54 36/3/54 37/81/54
f 29/82/55 32/83/55 7/84/55
f 72/85/56 31/86/56 32/83/56
f 31/86/57 74/76/57 30/78/57
f 29/82/58 75/87/58 72/85/58
f 75/87/59 73/88/59 72/85/59
f 76/89/60 74/76/60 73/88/60
f 27/90/61 75/87/61 28/91/61
f 78/92/62 76/89/62 75/87/62
f 79/93/63 77/79/63 76/89/63
f 8/94/64 78/92/64 27/90/64
f 78/92/65 34/95/65 79/93/65
f 79/93/66 35/96/66 80/1/66
f 21/10/67 29/97/67 7/98/67
f 86/99/68 29/97/68 83/100/68
f 86/99/69 27/5/69 28/55/69
f 20/101/70 23/37/70 3/39/70
f 81/102/71 22/103/71 23/37/71
f 22/103/72 83/100/72 21/10/72
f 20/101/73 84/104/73 81/102/73
f 81/102/74 85/105/74 82/106/74
f 82/106/75 86/99/75 83/100/75
f 18/107/76 84/104/76 19/108/76
f 87/109/77 85/105/77 84/104/77
f 88/110/78 86/99/78 85/105/78
f 4/45/79 87/109/79 18/107/79
f 24/44/80 88/110/80 87/109/80
f 25/49/81 89/6/81 88/110/81
f 92/76/82 3/77/82 9/78/82
f 92/76/83 19/81/83 20/80/83
f 98/1/84 19/81/84 95/111/84
f 1/84/85 90/85/85 11/83/85
f 11/83/86 91/112/86 10/86/86
f 91/112/87 9/78/87 10/86/87
f 13/113/88 90/85/88 12/82/88
f 93/114/89 91/112/89 90/85/89
f 91/112/90 95/111/90 92/76/90
f 14/90/91 93/114/91 13/113/91
f 93/114/92 97/115/92 94/116/92
f 94/116/93 98/1/93 95/111/93
f 14/90/94 15/117/94 96/92/94
f 96/92/95 16/118/95 97/115/95
f 16/118/96 98/1/96 97/115/96
f 98/1/97 17/96/97 4/2/97
f 26/4/98 8/119/98 27/5/98
f 80/1/99 35/96/99 6/2/99
f 44/7/100 2/120/100 14/8/100
f 62/10/101 30/98/101 5/11/101
f 53/13/102 15/36/102 2/14/102
f 35/16/103 47/20/103 42/17/103
f 50/19/104 43/21/104 42/17/104
f 53/13/105 44/15/105 43/21/105
f 8/22/106 26/28/106 45/23/106
f 45/23/107 46/26/107 34/25/107
f 46/26/108 47/20/108 35/16/108
f 25/27/109 48/29/109 45/23/109
f 48/29/110 49/32/110 46/26/110
f 46/26/111 49/32/111 50/19/111
f 24/30/112 51/31/112 48/29/112
f 51/31/113 52/35/113 49/32/113
f 49/32/114 52/35/114 53/13/114
f 4/33/115 17/34/115 51/31/115
f 17/34/116 16/121/116 52/35/116
f 52/35/117 16/121/117 15/36/117
f 56/37/118 39/41/118 1/38/118
f 59/40/119 40/42/119 39/41/119
f 59/40/120 62/10/120 41/12/120
f 3/43/121 23/48/121 54/44/121
f 54/44/122 55/47/122 10/46/122
f 55/47/123 56/37/123 11/39/123
f 23/48/124 22/50/124 57/49/124
f 57/49/125 58/52/125 55/47/125
f 55/47/126 58/52/126 59/40/126
f 22/50/127 21/54/127 60/4/127
f 57/49/128 60/4/128 61/51/128
f 61/51/129 62/10/129 59/40/129
f 7/53/130 32/119/130 60/4/130
f 60/4/131 32/119/131 31/55/131
f 31/55/132 30/98/132 62/10/132
f 65/56/133 12/60/133 1/57/133
f 68/59/134 13/61/134 12/60/134
f 71/9/135 14/8/135 13/61/135
f 38/62/136 63/65/136 41/63/136
f 63/65/137 64/67/137 40/66/137
f 64/67/138 65/56/138 39/58/138
f 38/62/139 37/71/139 66/68/139
f 63/65/140 66/68/140 67/69/140
f 64/67/141 67/69/141 68/59/141
f 36/70/142 69/72/142 66/68/142
f 69/72/143 70/73/143 67/69/143
f 70/73/144 71/9/144 68/59/144
f 36/70/145 6/122/145 42/74/145
f 69/72/146 42/74/146 43/75/146
f 70/73/147 43/75/147 44/7/147
f 74/76/148 38/80/148 5/77/148
f 77/79/149 37/81/149 38/80/149
f 77/79/150 80/1/150 36/3/150
f 29/82/151 72/85/151 32/83/151
f 72/85/152 73/88/152 31/86/152
f 31/86/153 73/88/153 74/76/153
f 29/82/154 28/91/154 75/87/154
f 75/87/155 76/89/155 73/88/155
f 76/89/156 77/79/156 74/76/156
f 27/90/157 78/92/157 75/87/157
f 78/92/158 79/93/158 76/89/158
f 79/93/159 80/1/159 77/79/159
f 8/94/160 33/117/160 78/92/160
f 78/92/161 33/117/161 34/95/161
f 79/93/162 34/95/162 35/96/162
f 21/10/163 83/100/163 29/97/163
f 86/99/164 28/55/164 29/97/164
f 86/99/165 89/6/165 27/5/165
f 20/101/166 81/102/166 23/37/166
f 81/102/167 82/106/167 22/103/167
f 22/103/168 82/106/168 83/100/168
f 20/101/169 19/108/169 84/104/169
f 81/102/170 84/104/170 85/105/170
f 82/106/171 85/105/171 86/99/171
f 18/107/172 87/109/172 84/104/172
f 87/109/173 88/110/173 85/105/173
f 88/110/174 89/6/174 86/99/174
f 4/45/175 24/44/175 87/109/175
f 24/44/176 25/49/176 88/110/176
f 25/49/177 26/4/177 89/6/177
f 92/76/178 20/80/178 3/77/178
f 92/76/179 95/111/179 19/81/179
f 98/1/180 18/3/180 19/81/180
f 1/84/181 12/82/181 90/85/181
f 11/83/182 90/85/182 91/112/182
f 91/112/183 92/76/183 9/78/183
f 13/113/184 93/114/184 90/85/184
f 93/114/185 94/116/185 91/112/185
f 91/112/186 94/116/186 95/111/186
f 14/90/187 96/92/187 93/114/187
f 93/114/188 96/92/188 97/115/188
f 94/116/189 97/115/189 98/1/189
f 14/90/190 2/94/190 15/117/190
f 96/92/191 15/117/191 16/118/191
f 16/118/192 17/96/192 98/1/192
