# Blender 5.0.1
# www.blender.org
mtllib Blanket01.mtl
o Blanket01
v -0.448977 0.110807 0.993133
v -0.431405 0.194467 0.983371
v -0.453266 0.113167 -0.467963
v -0.472037 0.197575 -0.464947
v 0.452695 0.094299 0.983667
v 0.468234 0.173441 0.961430
v 0.454193 0.094879 -0.448905
v 0.465263 0.190200 -0.470055
v -0.452064 0.097779 -0.140871
v -0.428939 0.092364 0.143300
v -0.448382 0.093154 0.424076
v -0.453643 0.094925 0.701179
v -0.456656 0.196421 0.682754
v -0.486180 0.193229 0.417037
v -0.466844 0.195190 0.143986
v -0.478498 0.195806 -0.138878
v 0.252187 0.113908 -0.465525
v 0.099486 0.116297 -0.461255
v -0.128842 0.122119 -0.480771
v -0.270641 0.117772 -0.480715
v -0.312866 0.216591 -0.455808
v -0.082064 0.220015 -0.482045
v 0.104258 0.225205 -0.450566
v 0.272823 0.209174 -0.500334
v 0.436879 0.090973 0.720426
v 0.432614 0.086261 0.437235
v 0.454817 0.086081 0.109528
v 0.460249 0.082887 -0.132609
v 0.488946 0.176749 -0.160047
v 0.470924 0.182163 0.109520
v 0.483800 0.175483 0.427101
v 0.468516 0.186897 0.679282
v -0.224920 0.106989 0.977493
v -0.122019 0.111847 0.988204
v 0.062027 0.105567 1.004808
v 0.299323 0.107657 0.986352
v 0.282626 0.203420 1.004554
v 0.105778 0.211746 0.968155
v -0.102492 0.216665 0.982244
v -0.275502 0.205526 0.989544
v 0.284812 0.221214 -0.183821
v 0.295785 0.211877 0.093319
v 0.325932 0.228700 0.442116
v 0.276258 0.214197 0.684025
v 0.135949 0.230650 -0.163581
v 0.148744 0.242434 0.123716
v 0.097123 0.240964 0.414049
v 0.129293 0.243783 0.708093
v -0.098882 0.235558 -0.191144
v -0.110969 0.236629 0.098543
v -0.117750 0.246488 0.446578
v -0.075510 0.238299 0.681042
v -0.267522 0.218635 -0.160456
v -0.301863 0.223750 0.146709
v -0.294052 0.229713 0.424692
v -0.292664 0.225887 0.666591
v -0.281983 0.106495 -0.183711
v -0.277447 0.105840 0.165028
v -0.282383 0.100266 0.403425
v -0.239381 0.102344 0.675761
v -0.097435 0.107976 -0.169943
v -0.100159 0.109391 0.128304
v -0.114879 0.107018 0.399850
v -0.097622 0.102695 0.664442
v 0.130417 0.107312 -0.150019
v 0.092487 0.101866 0.111646
v 0.106665 0.107530 0.436269
v 0.100942 0.105893 0.731557
v 0.271833 0.095271 -0.171328
v 0.254152 0.101645 0.139120
v 0.296636 0.101796 0.435152
v 0.233833 0.104769 0.703795
v -0.472644 0.151289 0.977146
v -0.476978 0.160295 -0.504586
v 0.482938 0.140967 -0.505815
v 0.441057 0.122984 0.976296
v 0.266224 0.152529 0.970800
v 0.117913 0.157231 1.006206
v -0.125720 0.156761 0.998275
v -0.275684 0.159025 0.993793
v 0.486744 0.114733 -0.192436
v 0.478790 0.112530 0.123565
v 0.477830 0.117616 0.448061
v 0.454264 0.125253 0.678161
v -0.298624 0.172803 -0.518165
v -0.097052 0.173474 -0.519141
v 0.111318 0.177597 -0.501533
v 0.277134 0.174229 -0.515601
v -0.471529 0.134722 0.700333
v -0.473225 0.127890 0.425343
v -0.480068 0.137435 0.134222
v -0.477429 0.131590 -0.168117
vn -0.9925 0.1219 0.0091
vn 0.1362 0.6137 -0.7777
vn 0.8842 -0.4658 0.0356
vn -0.0815 -0.0656 0.9945
vn -0.0699 -0.9972 0.0264
vn -0.0732 0.9951 0.0666
vn 0.1416 0.9888 0.0473
vn 0.2018 0.9790 0.0289
vn -0.0422 0.9921 0.1184
vn -0.0613 0.9959 0.0660
vn 0.2098 0.9774 0.0264
vn 0.1680 0.9857 -0.0086
vn 0.3200 0.9474 0.0070
vn 0.3173 0.9480 -0.0237
vn 0.0826 0.9957 -0.0410
vn 0.0674 0.9972 0.0309
vn 0.1904 0.9796 -0.0637
vn 0.0450 0.9966 0.0690
vn 0.0234 0.9995 -0.0215
vn -0.0184 0.9990 -0.0402
vn -0.0225 0.9997 0.0011
vn -0.0259 0.9996 -0.0068
vn -0.0210 0.9983 -0.0546
vn -0.1013 0.9948 -0.0079
vn -0.0747 0.9968 -0.0297
vn -0.0600 0.9972 0.0456
vn -0.1066 0.9943 0.0095
vn -0.1105 0.9935 -0.0289
vn -0.1859 0.9824 -0.0158
vn -0.1752 0.9844 0.0166
vn -0.0132 -0.9984 0.0545
vn 0.0458 -0.9989 0.0132
vn 0.0064 -0.9996 0.0287
vn 0.0088 -1.0000 0.0001
vn 0.0393 -0.9981 -0.0471
vn 0.0923 -0.9954 -0.0265
vn 0.0435 -0.9990 0.0058
vn 0.0354 -0.9993 0.0071
vn 0.0306 -0.9989 -0.0368
vn 0.0196 -0.9998 -0.0021
vn 0.0398 -0.9990 -0.0225
vn 0.0403 -0.9992 0.0013
vn -0.0218 -0.9988 -0.0432
vn -0.0387 -0.9992 0.0044
vn -0.0400 -0.9991 -0.0109
vn 0.0051 -0.9998 -0.0167
vn -0.0878 -0.9959 -0.0200
vn 0.0021 -0.9998 -0.0205
vn -0.0044 -0.9998 0.0176
vn -0.0097 -0.9999 -0.0057
vn -0.0890 -0.9944 -0.0571
vn -0.0749 -0.9971 0.0162
vn -0.1137 -0.9934 0.0168
vn -0.0674 -0.9977 -0.0047
vn -0.1149 -0.5231 0.8445
vn 0.2051 0.5905 0.7806
vn -0.0318 0.2699 0.9624
vn -0.0284 0.0911 0.9954
vn 0.9447 0.3276 0.0159
vn 0.9985 -0.0484 0.0248
vn 0.9949 -0.1010 0.0045
vn 0.9683 -0.2258 0.1067
vn -0.1026 0.7310 -0.6747
vn -0.0059 0.6244 -0.7811
vn 0.0546 0.6116 -0.7893
vn -0.0699 0.3921 -0.9173
vn -0.7192 0.6933 -0.0444
vn -0.9721 0.2344 0.0002
vn -0.9754 0.2183 0.0301
vn -0.9999 -0.0128 -0.0085
vn -0.6647 -0.7460 0.0399
vn -0.8131 -0.5795 -0.0547
vn -0.8135 -0.5814 -0.0117
vn -0.8695 -0.4923 0.0407
vn -0.0320 -0.5445 -0.8381
vn 0.0513 -0.6179 -0.7846
vn 0.0167 -0.5567 -0.8306
vn -0.0424 -0.5768 -0.8158
vn 0.8890 -0.4580 -0.0058
vn 0.7268 -0.6851 0.0496
vn 0.7339 -0.6787 0.0254
vn 0.7301 -0.6822 -0.0398
vn -0.0904 -0.2250 0.9702
vn -0.0952 -0.2253 0.9696
vn 0.0780 -0.1112 0.9907
vn 0.0398 0.2638 0.9637
vn 0.0635 -0.2414 0.9683
vn 0.9303 0.3619 -0.0605
vn 0.0030 -0.6395 -0.7688
vn -0.7895 -0.6132 -0.0259
vn -0.9998 -0.0076 -0.0199
vn 0.1811 0.4124 -0.8928
vn 0.9743 -0.2251 -0.0098
vn -0.0458 0.0911 0.9948
vn -0.0864 -0.9961 0.0178
vn -0.1748 0.9844 0.0211
vn 0.1661 0.9857 0.0298
vn 0.0212 0.9920 0.1241
vn 0.0286 0.9968 0.0742
vn 0.1045 0.9936 -0.0418
vn 0.2100 0.9774 0.0246
vn 0.1725 0.9830 -0.0623
vn 0.1422 0.9859 0.0883
vn 0.0598 0.9979 -0.0255
vn 0.1935 0.9799 -0.0488
vn 0.0518 0.9986 0.0143
vn 0.1925 0.9808 -0.0305
vn -0.0186 0.9983 -0.0544
vn 0.0212 0.9998 -0.0028
vn 0.0215 0.9994 -0.0279
vn 0.0301 0.9991 0.0295
vn -0.0984 0.9951 0.0082
vn -0.0735 0.9970 -0.0248
vn -0.0924 0.9955 -0.0188
vn -0.0967 0.9952 0.0163
vn -0.1188 0.9929 0.0030
vn -0.1707 0.9853 0.0092
vn -0.1705 0.9853 -0.0050
vn -0.1869 0.9823 0.0090
vn 0.0362 -0.9993 0.0136
vn 0.0048 -0.9996 0.0286
vn -0.0336 -0.9994 -0.0060
vn -0.0060 -0.9999 0.0116
vn 0.0226 -0.9991 -0.0371
vn 0.0505 -0.9987 -0.0025
vn 0.0916 -0.9956 -0.0214
vn 0.0429 -0.9991 0.0009
vn 0.0115 -0.9988 -0.0466
vn 0.0077 -1.0000 0.0048
vn 0.0184 -0.9998 -0.0077
vn 0.0012 -0.9999 -0.0164
vn -0.0004 -0.9996 -0.0288
vn -0.0011 -0.9998 -0.0210
vn -0.0006 -0.9998 0.0175
vn 0.0179 -0.9998 -0.0052
vn -0.0173 -0.9979 -0.0621
vn -0.0825 -0.9965 0.0158
vn -0.0301 -0.9995 0.0048
vn -0.0302 -0.9995 0.0040
vn -0.0580 -0.9976 -0.0367
vn -0.0680 -0.9976 0.0116
vn -0.0780 -0.9969 -0.0047
vn -0.1138 -0.9933 0.0182
vn 0.2466 0.1493 0.9575
vn -0.1973 -0.4969 0.8451
vn 0.0686 0.5812 0.8108
vn 0.0248 0.2495 0.9681
vn 0.9971 0.0043 -0.0760
vn 0.9901 0.1247 0.0637
vn 0.9938 0.1046 -0.0381
vn 0.9948 -0.0795 0.0639
vn -0.0633 0.8099 -0.5832
vn -0.0785 0.8073 -0.5848
vn 0.0932 0.7340 -0.6727
vn -0.1347 0.7147 -0.6863
vn -0.9632 0.2557 0.0826
vn -0.9775 -0.1797 0.1108
vn -0.9767 -0.2026 -0.0706
vn -0.9754 0.2165 0.0407
vn -0.8017 -0.5978 0.0046
vn -0.6603 -0.7509 -0.0091
vn -0.9121 -0.4096 0.0158
vn -0.9121 -0.4095 0.0208
vn -0.0790 -0.6172 -0.7828
vn 0.0808 -0.5582 -0.8258
vn -0.0019 -0.5978 -0.8017
vn -0.0164 -0.6187 -0.7855
vn 0.5541 -0.8282 0.0842
vn 0.5674 -0.8233 0.0146
vn 0.7826 -0.6223 0.0154
vn 0.8131 -0.5792 -0.0584
vn -0.0332 -0.3281 0.9441
vn -0.0326 0.0082 0.9994
vn 0.2199 0.4603 0.8601
vn 0.0291 0.3464 0.9376
vn -0.0923 0.3186 0.9434
vn 0.9090 -0.4152 0.0371
vn -0.0903 -0.7511 -0.6539
vn -0.8792 -0.4747 -0.0417
vt 0.624792 0.149003
vt 0.578726 0.005288
vt 0.624792 0.005288
vt 0.738072 0.117860
vt 0.692007 0.005288
vt 0.738072 0.005288
vt 0.681432 0.149003
vt 0.635367 0.005288
vt 0.681432 0.005288
vt 0.794712 0.117860
vt 0.748647 0.005288
vt 0.794712 0.005288
vt 0.005288 0.149003
vt 0.117860 0.005288
vt 0.117860 0.149003
vt 0.005288 0.005288
vt 0.455579 0.149003
vt 0.568151 0.005288
vt 0.568151 0.149003
vt 0.343006 0.149003
vt 0.455579 0.005288
vt 0.230433 0.149003
vt 0.343006 0.005288
vt 0.230433 0.005288
vt 0.568151 0.723862
vt 0.455579 0.580147
vt 0.568151 0.580147
vt 0.455579 0.436432
vt 0.568151 0.436432
vt 0.455579 0.292718
vt 0.568151 0.292718
vt 0.343006 0.723862
vt 0.455579 0.723862
vt 0.343006 0.580147
vt 0.343006 0.436432
vt 0.343006 0.292718
vt 0.230433 0.580147
vt 0.230433 0.436432
vt 0.117860 0.723862
vt 0.230433 0.723862
vt 0.117860 0.580147
vt 0.117860 0.436432
vt 0.230433 0.292718
vt 0.005288 0.580147
vt 0.005288 0.292718
vt 0.117860 0.292718
vt 0.005288 0.723862
vt 0.005288 0.436433
vt 0.794712 0.568151
vt 0.748647 0.455579
vt 0.794712 0.455579
vt 0.748647 0.343006
vt 0.794712 0.343006
vt 0.748647 0.230433
vt 0.794712 0.230433
vt 0.748647 0.117860
vt 0.635367 0.723862
vt 0.681432 0.580147
vt 0.681432 0.723862
vt 0.635367 0.580147
vt 0.681432 0.436432
vt 0.635367 0.292717
vt 0.681432 0.292718
vt 0.635367 0.149003
vt 0.692007 0.568151
vt 0.738072 0.455579
vt 0.738072 0.568151
vt 0.692007 0.343006
vt 0.738072 0.343006
vt 0.738072 0.230433
vt 0.692007 0.117860
vt 0.578726 0.723862
vt 0.624792 0.580147
vt 0.624792 0.723862
vt 0.578726 0.580147
vt 0.624792 0.436432
vt 0.578726 0.292718
vt 0.624792 0.292718
vt 0.578726 0.149003
vt 0.578726 0.292717
vt 0.624792 0.292718
vt 0.578726 0.436432
vt 0.624792 0.436432
vt 0.624792 0.580147
vt 0.578726 0.723862
vt 0.624792 0.723862
vt 0.692007 0.230433
vt 0.738072 0.117860
vt 0.738072 0.230433
vt 0.692007 0.343006
vt 0.738072 0.343006
vt 0.692007 0.455579
vt 0.681432 0.292718
vt 0.681432 0.149003
vt 0.635367 0.436432
vt 0.681432 0.436432
vt 0.635367 0.580147
vt 0.748647 0.230433
vt 0.794712 0.117860
vt 0.748647 0.343006
vt 0.748647 0.568151
vt 0.794712 0.568151
vt 0.748647 0.117860
vt 0.794712 0.005288
vt 0.578726 0.149003
vt 0.624792 0.005288
vt 0.635367 0.436432
vt 0.692007 0.455579
vt 0.578726 0.436432
vt 0.578726 0.580147
vt 0.692007 0.568151
vt 0.635367 0.292718
vt 0.578726 0.005288
s 0
usemtl 32x32grid
f 25/13/5 36/14/5 72/15/5
f 12/19/31 33/21/31 1/18/31
f 60/17/32 34/23/32 33/21/32
f 68/22/33 34/23/33 64/20/33
f 68/22/34 36/14/34 35/24/34
f 3/25/35 57/26/35 9/27/35
f 9/27/36 58/28/36 10/29/36
f 10/29/37 59/30/37 11/31/37
f 11/31/38 60/17/38 12/19/38
f 19/32/39 57/26/39 20/33/39
f 57/26/40 62/35/40 58/28/40
f 58/28/41 63/36/41 59/30/41
f 63/36/42 60/17/42 59/30/42
f 18/40/43 61/34/43 19/32/43
f 61/34/44 66/38/44 62/35/44
f 66/38/45 63/36/45 62/35/45
f 67/43/46 64/20/46 63/36/46
f 18/40/47 69/41/47 65/37/47
f 65/37/48 70/42/48 66/38/48
f 70/42/49 67/43/49 66/38/49
f 67/43/50 72/15/50 68/22/50
f 7/47/51 69/41/51 17/39/51
f 69/41/52 27/48/52 70/42/52
f 70/42/53 26/45/53 71/46/53
f 71/46/54 25/13/54 72/15/54
f 91/80/71 9/1/71 10/81/71
f 90/82/72 10/81/72 11/83/72
f 12/84/73 90/82/73 11/83/73
f 73/85/74 12/84/74 1/86/74
f 87/87/75 17/88/75 18/89/75
f 86/90/76 18/89/76 19/91/76
f 85/92/77 19/91/77 20/66/77
f 3/67/78 85/92/78 20/66/78
f 26/93/79 84/64/79 25/94/79
f 82/95/80 26/93/80 27/96/80
f 28/58/81 82/95/81 27/96/81
f 7/59/82 81/97/82 28/58/82
f 79/98/83 33/99/83 34/55/83
f 35/53/84 79/98/84 34/55/84
f 36/51/85 78/100/85 35/53/85
f 76/101/86 36/51/86 5/102/86
f 80/103/87 1/104/87 33/99/87
f 25/94/88 76/8/88 5/9/88
f 88/71/89 7/6/89 17/88/89
f 92/105/90 3/106/90 9/1/90
f 25/13/95 5/16/95 36/14/95
f 12/19/120 60/17/120 33/21/120
f 60/17/121 64/20/121 34/23/121
f 68/22/122 35/24/122 34/23/122
f 68/22/123 72/15/123 36/14/123
f 3/25/124 20/33/124 57/26/124
f 9/27/125 57/26/125 58/28/125
f 10/29/126 58/28/126 59/30/126
f 11/31/127 59/30/127 60/17/127
f 19/32/128 61/34/128 57/26/128
f 57/26/129 61/34/129 62/35/129
f 58/28/130 62/35/130 63/36/130
f 63/36/131 64/20/131 60/17/131
f 18/40/132 65/37/132 61/34/132
f 61/34/133 65/37/133 66/38/133
f 66/38/134 67/43/134 63/36/134
f 67/43/135 68/22/135 64/20/135
f 18/40/136 17/39/136 69/41/136
f 65/37/137 69/41/137 70/42/137
f 70/42/138 71/46/138 67/43/138
f 67/43/139 71/46/139 72/15/139
f 7/47/140 28/44/140 69/41/140
f 69/41/141 28/44/141 27/48/141
f 70/42/142 27/48/142 26/45/142
f 71/46/143 26/45/143 25/13/143
f 91/80/160 92/105/160 9/1/160
f 90/82/161 91/80/161 10/81/161
f 12/84/162 89/110/162 90/82/162
f 73/85/163 89/110/163 12/84/163
f 87/87/164 88/71/164 17/88/164
f 86/90/165 87/87/165 18/89/165
f 85/92/166 86/90/166 19/91/166
f 3/67/167 74/111/167 85/92/167
f 26/93/168 83/112/168 84/64/168
f 82/95/169 83/112/169 26/93/169
f 28/58/170 81/97/170 82/95/170
f 7/59/171 75/57/171 81/97/171
f 79/98/172 80/103/172 33/99/172
f 35/53/173 78/100/173 79/98/173
f 36/51/174 77/50/174 78/100/174
f 76/101/175 77/50/175 36/51/175
f 80/103/176 73/11/176 1/104/176
f 25/94/177 84/64/177 76/8/177
f 88/71/178 75/5/178 7/6/178
f 92/105/179 74/113/179 3/106/179
usemtl 32x32grid
f 92/1/1 4/2/1 74/3/1
f 88/4/2 8/5/2 75/6/2
f 84/7/3 6/8/3 76/9/3
f 80/10/4 2/11/4 73/12/4
f 56/15/6 2/16/6 40/14/6
f 44/17/7 6/18/7 32/19/7
f 48/20/8 37/21/8 44/17/8
f 52/22/9 38/23/9 48/20/9
f 56/15/10 39/24/10 52/22/10
f 8/25/11 41/26/11 29/27/11
f 29/27/12 42/28/12 30/29/12
f 30/29/13 43/30/13 31/31/13
f 43/30/14 32/19/14 31/31/14
f 23/32/15 41/26/15 24/33/15
f 45/34/16 42/28/16 41/26/16
f 46/35/17 43/30/17 42/28/17
f 47/36/18 44/17/18 43/30/18
f 23/32/19 49/37/19 45/34/19
f 45/34/20 50/38/20 46/35/20
f 50/38/21 47/36/21 46/35/21
f 47/36/22 52/22/22 48/20/22
f 21/39/23 49/37/23 22/40/23
f 53/41/24 50/38/24 49/37/24
f 54/42/25 51/43/25 50/38/25
f 51/43/26 56/15/26 52/22/26
f 21/39/27 16/44/27 53/41/27
f 16/44/28 54/42/28 53/41/28
f 54/42/29 14/45/29 55/46/29
f 55/46/30 13/13/30 56/15/30
f 76/49/55 37/50/55 77/51/55
f 77/51/56 38/52/56 78/53/56
f 78/53/57 39/54/57 79/55/57
f 79/55/58 40/56/58 80/10/58
f 8/57/59 81/58/59 75/59/59
f 29/60/60 82/61/60 81/58/60
f 82/61/61 31/62/61 83/63/61
f 83/63/62 32/64/62 84/7/62
f 4/65/63 85/66/63 74/67/63
f 85/66/64 22/68/64 86/69/64
f 22/68/65 87/70/65 86/69/65
f 87/70/66 24/71/66 88/4/66
f 2/72/67 89/73/67 73/74/67
f 13/75/68 90/76/68 89/73/68
f 90/76/69 15/77/69 91/78/69
f 91/78/70 16/79/70 92/1/70
f 92/1/91 16/79/91 4/2/91
f 88/4/92 24/71/92 8/5/92
f 84/7/93 32/64/93 6/8/93
f 80/10/94 40/56/94 2/11/94
f 56/15/96 13/13/96 2/16/96
f 44/17/97 37/21/97 6/18/97
f 48/20/98 38/23/98 37/21/98
f 52/22/99 39/24/99 38/23/99
f 56/15/10 40/14/10 39/24/10
f 8/25/100 24/33/100 41/26/100
f 29/27/101 41/26/101 42/28/101
f 30/29/102 42/28/102 43/30/102
f 43/30/103 44/17/103 32/19/103
f 23/32/104 45/34/104 41/26/104
f 45/34/105 46/35/105 42/28/105
f 46/35/106 47/36/106 43/30/106
f 47/36/107 48/20/107 44/17/107
f 23/32/108 22/40/108 49/37/108
f 45/34/109 49/37/109 50/38/109
f 50/38/110 51/43/110 47/36/110
f 47/36/111 51/43/111 52/22/111
f 21/39/112 53/41/112 49/37/112
f 53/41/113 54/42/113 50/38/113
f 54/42/114 55/46/114 51/43/114
f 51/43/115 55/46/115 56/15/115
f 21/39/116 4/47/116 16/44/116
f 16/44/117 15/48/117 54/42/117
f 54/42/118 15/48/118 14/45/118
f 55/46/119 14/45/119 13/13/119
f 76/49/144 6/101/144 37/50/144
f 77/51/145 37/50/145 38/52/145
f 78/53/146 38/52/146 39/54/146
f 79/55/147 39/54/147 40/56/147
f 8/57/148 29/60/148 81/58/148
f 29/60/149 30/107/149 82/61/149
f 82/61/150 30/107/150 31/62/150
f 83/63/151 31/62/151 32/64/151
f 4/65/152 21/108/152 85/66/152
f 85/66/153 21/108/153 22/68/153
f 22/68/154 23/87/154 87/70/154
f 87/70/155 23/87/155 24/71/155
f 2/72/156 13/75/156 89/73/156
f 13/75/157 14/109/157 90/76/157
f 90/76/158 14/109/158 15/77/158
f 91/78/159 15/77/159 16/79/159
