# Blender 5.0.1
# www.blender.org
mtllib PlasticCup.mtl
o PlasticCup
v -0.000000 0.000000 -0.029622
v 0.000000 0.110000 -0.039871
v 0.020946 0.000000 -0.020946
v 0.028193 0.110000 -0.028193
v 0.029622 0.000000 0.000000
v 0.039871 0.110000 0.000000
v 0.020946 0.000000 0.020946
v 0.028193 0.110000 0.028193
v -0.000000 0.000000 0.029622
v 0.000000 0.110000 0.039871
v -0.020946 0.000000 0.020946
v -0.028193 0.110000 0.028193
v -0.029622 0.000000 0.000000
v -0.039871 0.110000 0.000000
v -0.020946 0.000000 -0.020946
v -0.028193 0.110000 -0.028193
v 0.031820 0.110000 -0.031820
v 0.000000 0.110000 -0.045000
v 0.045000 0.110000 0.000000
v 0.031820 0.110000 0.031820
v 0.000000 0.110000 0.045000
v -0.031820 0.110000 0.031820
v -0.045000 0.110000 0.000000
v -0.031820 0.110000 -0.031820
v 0.022455 0.004636 -0.022455
v 0.000000 0.004636 -0.031756
v 0.031756 0.004636 0.000000
v 0.022455 0.004636 0.022455
v 0.000000 0.004636 0.031756
v -0.022455 0.004636 0.022455
v -0.031756 0.004636 0.000000
v -0.022455 0.004636 -0.022455
v 0.000000 0.102621 -0.044381
v 0.031382 0.102621 -0.031382
v 0.044381 0.102621 0.000000
v 0.031382 0.102621 0.031382
v 0.000000 0.102621 0.044381
v -0.031382 0.102621 0.031382
v -0.044381 0.102621 0.000000
v -0.031382 0.102621 -0.031382
v -0.027798 0.103279 -0.027798
v 0.000000 0.103279 -0.039312
v -0.027798 0.103279 0.027798
v -0.039312 0.103279 0.000000
v 0.027798 0.103279 0.027798
v 0.000000 0.103279 0.039312
v 0.027798 0.103279 -0.027798
v 0.039312 0.103279 0.000000
v 0.032313 0.108983 -0.032313
v -0.000000 0.108983 -0.045698
v -0.000000 0.103638 -0.045069
v 0.045698 0.108983 0.000000
v 0.032313 0.108983 0.032313
v -0.000000 0.108983 0.045698
v -0.032313 0.108983 0.032313
v -0.045698 0.108983 0.000000
v -0.032313 0.108983 -0.032313
v 0.031869 0.103638 -0.031869
v 0.045069 0.103638 0.000000
v 0.031869 0.103638 0.031869
v -0.000000 0.103638 0.045069
v -0.031869 0.103638 0.031869
v -0.045069 0.103638 0.000000
v -0.031869 0.103638 -0.031869
v -0.000000 0.000000 -0.033492
v 0.023683 0.000000 -0.023683
v 0.033492 0.000000 0.000000
v 0.023683 0.000000 0.023683
v -0.000000 0.000000 0.033492
v -0.023683 0.000000 0.023683
v -0.033492 0.000000 0.000000
v -0.023683 0.000000 -0.023683
v -0.000000 0.001867 -0.029622
v 0.020946 0.001867 -0.020946
v 0.029622 0.001867 0.000000
v 0.020946 0.001867 0.020946
v -0.000000 0.001867 0.029622
v -0.020946 0.001867 0.020946
v -0.029622 0.001867 0.000000
v -0.020946 0.001867 -0.020946
v 0.031820 0.110000 -0.031820
v 0.000000 0.110000 -0.045000
v 0.045000 0.110000 0.000000
v 0.031820 0.110000 0.031820
v 0.000000 0.110000 0.045000
v -0.031820 0.110000 0.031820
v -0.045000 0.110000 0.000000
v -0.031820 0.110000 -0.031820
v 0.032313 0.108983 -0.032313
v -0.000000 0.108983 -0.045698
v 0.045698 0.108983 0.000000
v 0.032313 0.108983 0.032313
v -0.000000 0.108983 0.045698
v -0.032313 0.108983 0.032313
v -0.045698 0.108983 0.000000
v -0.032313 0.108983 -0.032313
vn 0.3245 -0.5299 0.7835
vn -0.3245 -0.5299 0.7835
vn 0.3817 0.0706 0.9216
vn -0.7835 -0.5299 0.3245
vn 0.3827 -0.0000 -0.9239
vn -0.0000 1.0000 -0.0000
vn 0.9216 0.0706 -0.3817
vn -0.3817 0.0706 -0.9216
vn -0.9216 0.0706 0.3817
vn 0.9216 0.0706 0.3817
vn 0.3817 0.0706 -0.9216
vn -0.9216 0.0706 -0.3817
vn -0.3817 0.0706 0.9216
vn -0.3809 -0.0976 -0.9195
vn -0.9195 -0.0976 -0.3809
vn -0.9195 -0.0976 0.3809
vn -0.3809 -0.0976 0.9195
vn 0.3809 -0.0976 0.9195
vn 0.9195 -0.0976 0.3809
vn 0.9195 -0.0976 -0.3809
vn 0.3809 -0.0976 -0.9195
vn -0.3816 0.0765 0.9212
vn -0.9212 0.0765 -0.3816
vn 0.3816 0.0765 -0.9212
vn 0.9212 0.0765 0.3816
vn -0.9212 0.0765 0.3816
vn -0.3816 0.0765 -0.9212
vn 0.9212 0.0765 -0.3816
vn 0.3816 0.0765 0.9212
vn 0.3804 -0.1081 -0.9185
vn 0.9185 -0.1081 -0.3804
vn 0.9185 -0.1081 0.3804
vn 0.3804 -0.1081 0.9185
vn -0.3804 -0.1081 0.9185
vn -0.9185 -0.1081 0.3804
vn -0.9185 -0.1081 -0.3804
vn -0.3804 -0.1081 -0.9185
vn 0.7835 -0.5299 0.3245
vn 0.7835 -0.5299 -0.3245
vn 0.3245 -0.5299 -0.7835
vn -0.3245 -0.5299 -0.7835
vn -0.7835 -0.5299 -0.3245
vn -0.0000 -1.0000 -0.0000
vn -0.9239 -0.0000 -0.3827
vn -0.3827 -0.0000 0.9239
vn 0.3827 -0.0000 0.9239
vn 0.9239 -0.0000 -0.3827
vn -0.3827 -0.0000 -0.9239
vn -0.9239 -0.0000 0.3827
vn 0.9239 -0.0000 0.3827
vn -0.7805 0.5352 0.3233
vn 0.3233 0.5352 -0.7804
vn -0.3233 0.5352 -0.7804
vn 0.7804 0.5352 0.3233
vn -0.3233 0.5352 0.7804
vn 0.3233 0.5352 0.7804
vn 0.7805 0.5352 -0.3233
vn -0.7804 0.5352 -0.3233
vn -0.7804 0.5352 0.3233
vn 0.7804 0.5352 -0.3233
vt 0.062500 0.187500
vt -0.000000 0.203125
vt -0.000000 0.187500
vt 0.437500 0.187500
vt 0.500000 0.203125
vt 0.437500 0.203125
vt 0.312500 0.468750
vt 0.250000 0.265625
vt 0.250000 0.468750
vt 0.375000 0.203125
vt 0.375000 0.187500
vt 0.437500 0.484375
vt 0.500000 0.500000
vt 0.500000 0.484375
vt 0.250000 0.250000
vt 0.187500 0.234375
vt 0.250000 0.234375
vt 0.125000 0.250000
vt 0.187500 0.250000
vt 0.062500 0.234375
vt 0.125000 0.234375
vt -0.000000 0.250000
vt 0.062500 0.250000
vt 0.500000 0.250000
vt 0.437500 0.234375
vt 0.500000 0.234375
vt 0.375000 0.250000
vt 0.437500 0.250000
vt 0.312500 0.234375
vt 0.375000 0.234375
vt 0.312500 0.250000
vt 0.156948 0.765558
vt 0.250129 0.672377
vt 0.343310 0.765558
vt 0.437500 0.468750
vt 0.375000 0.265625
vt 0.375000 0.468750
vt 0.062500 0.468750
vt -0.000000 0.265625
vt 0.000000 0.468750
vt 0.187500 0.468750
vt 0.125000 0.265625
vt 0.125000 0.468750
vt 0.312500 0.265625
vt 0.500000 0.468750
vt 0.437500 0.265625
vt 0.062500 0.265625
vt 0.187500 0.265625
vt 0.312500 0.000000
vt 0.250000 0.187500
vt 0.250000 0.000000
vt 0.375000 0.000000
vt 0.312500 0.187500
vt 0.437500 0.000000
vt 0.500000 0.000000
vt 0.062500 0.000000
vt -0.000000 0.000000
vt 0.125000 0.000000
vt 0.187500 0.000000
vt 0.125000 0.187500
vt 0.187500 0.187500
vt 0.500000 0.265625
vt 0.250000 0.218750
vt 0.187500 0.203125
vt 0.250000 0.203125
vt 0.187500 0.218750
vt 0.125000 0.203125
vt 0.125000 0.218750
vt 0.062500 0.203125
vt 0.062500 0.218750
vt 0.500000 0.218750
vt 0.437500 0.218750
vt 0.375000 0.218750
vt 0.312500 0.203125
vt 0.312500 0.218750
vt 0.250000 0.484375
vt 0.187500 0.484375
vt 0.125000 0.484375
vt 0.062500 0.484375
vt 0.000000 0.484375
vt 0.375000 0.484375
vt 0.312500 0.484375
vt 0.815901 0.699786
vt 0.684357 0.699786
vt 0.684357 0.831330
vt 0.125000 0.500000
vt 0.250000 0.500000
vt 0.312500 0.500000
vt 0.437500 0.500000
vt 0.062500 0.500000
vt 0.187500 0.500000
vt 0.375000 0.500000
vt -0.000000 0.234375
vt 0.500000 0.187500
vt 0.316018 0.831447
vt 0.250129 0.858739
vt 0.184240 0.831447
vt 0.184240 0.699669
vt 0.316018 0.699669
vt -0.000000 0.218750
vt 0.750129 0.858574
vt 0.815901 0.831330
vt 0.843145 0.765558
vt 0.750129 0.672542
vt 0.657113 0.765558
vt 0.000000 0.500000
s 0
usemtl 64x64grid
f 36/1/1 61/2/1 37/3/1
f 38/4/2 61/5/2 62/6/2
f 41/7/3 26/8/3 42/9/3
f 38/4/4 63/10/4 39/11/4
f 11/12/5 77/13/5 9/14/5
f 2/15/6 17/16/6 18/17/6
f 6/18/6 17/16/6 4/19/6
f 6/18/6 20/20/6 19/21/6
f 10/22/6 20/20/6 8/23/6
f 10/24/6 22/25/6 21/26/6
f 14/27/6 22/25/6 12/28/6
f 14/27/6 24/29/6 23/30/6
f 2/15/6 24/29/6 16/31/6
f 31/32/6 29/33/6 27/34/6
f 43/35/7 31/36/7 44/37/7
f 45/38/8 29/39/8 46/40/8
f 47/41/9 27/42/9 48/43/9
f 44/37/10 32/44/10 41/7/10
f 46/45/11 30/46/11 43/35/11
f 48/43/12 28/47/12 45/38/12
f 42/9/13 25/48/13 47/41/13
f 72/49/14 33/50/14 65/51/14
f 71/52/15 40/53/15 72/49/15
f 70/54/16 39/11/16 71/52/16
f 69/55/17 38/4/17 70/54/17
f 68/56/18 37/3/18 69/57/18
f 67/58/19 36/1/19 68/56/19
f 66/59/20 35/60/20 67/58/20
f 65/51/21 34/61/21 66/59/21
f 2/8/22 47/19/22 4/48/22
f 6/42/23 45/23/23 8/47/23
f 10/62/24 43/28/24 12/46/24
f 14/36/25 41/31/25 16/44/25
f 4/48/26 48/18/26 6/42/26
f 8/47/27 46/22/27 10/39/27
f 12/46/28 44/27/28 14/36/28
f 16/44/29 42/15/29 2/8/29
f 50/63/30 58/64/30 51/65/30
f 49/66/31 59/67/31 58/64/31
f 52/68/32 60/69/32 59/67/32
f 53/70/33 61/2/33 60/69/33
f 54/71/34 62/6/34 61/5/34
f 55/72/35 63/10/35 62/6/35
f 56/73/36 64/74/36 63/10/36
f 57/75/37 51/65/37 64/74/37
f 36/1/38 59/67/38 60/69/38
f 34/61/39 59/67/39 35/60/39
f 34/61/40 51/65/40 58/64/40
f 40/53/41 51/65/41 33/50/41
f 40/53/42 63/10/42 64/74/42
f 1/76/43 66/41/43 3/77/43
f 3/77/43 67/43/43 5/78/43
f 5/78/43 68/38/43 7/79/43
f 7/79/43 69/40/43 9/80/43
f 9/14/43 70/35/43 11/12/43
f 11/12/43 71/37/43 13/81/43
f 13/81/43 72/7/43 15/82/43
f 15/82/43 65/9/43 1/76/43
f 76/83/43 78/84/43 80/85/43
f 7/79/44 75/86/44 5/78/44
f 3/77/45 73/87/45 1/76/45
f 1/76/46 80/88/46 15/82/46
f 13/81/47 78/89/47 11/12/47
f 9/80/48 76/90/48 7/79/48
f 5/78/49 74/91/49 3/77/49
f 15/82/50 79/92/50 13/81/50
f 87/30/51 94/72/51 86/25/51
f 81/16/52 90/63/52 82/17/52
f 82/17/53 96/75/53 88/29/53
f 84/20/54 91/68/54 83/21/54
f 86/25/55 93/71/55 85/26/55
f 85/93/56 92/70/56 84/20/56
f 83/21/57 89/66/57 81/16/57
f 88/29/58 95/73/58 87/30/58
f 36/1/1 60/69/1 61/2/1
f 38/4/2 37/94/2 61/5/2
f 41/7/3 32/44/3 26/8/3
f 38/4/4 62/6/4 63/10/4
f 11/12/5 78/89/5 77/13/5
f 2/15/6 4/19/6 17/16/6
f 6/18/6 19/21/6 17/16/6
f 6/18/6 8/23/6 20/20/6
f 10/22/6 21/93/6 20/20/6
f 10/24/6 12/28/6 22/25/6
f 14/27/6 23/30/6 22/25/6
f 14/27/6 16/31/6 24/29/6
f 2/15/6 18/17/6 24/29/6
f 27/34/6 25/95/6 26/96/6
f 26/96/6 32/97/6 31/32/6
f 31/32/6 30/98/6 29/33/6
f 29/33/6 28/99/6 27/34/6
f 27/34/6 26/96/6 31/32/6
f 43/35/7 30/46/7 31/36/7
f 45/38/8 28/47/8 29/39/8
f 47/41/9 25/48/9 27/42/9
f 44/37/10 31/36/10 32/44/10
f 46/45/11 29/62/11 30/46/11
f 48/43/12 27/42/12 28/47/12
f 42/9/13 26/8/13 25/48/13
f 72/49/14 40/53/14 33/50/14
f 71/52/15 39/11/15 40/53/15
f 70/54/16 38/4/16 39/11/16
f 69/55/17 37/94/17 38/4/17
f 68/56/18 36/1/18 37/3/18
f 67/58/19 35/60/19 36/1/19
f 66/59/20 34/61/20 35/60/20
f 65/51/21 33/50/21 34/61/21
f 2/8/22 42/15/22 47/19/22
f 6/42/23 48/18/23 45/23/23
f 10/62/24 46/24/24 43/28/24
f 14/36/25 44/27/25 41/31/25
f 4/48/26 47/19/26 48/18/26
f 8/47/27 45/23/27 46/22/27
f 12/46/28 43/28/28 44/27/28
f 16/44/29 41/31/29 42/15/29
f 50/63/30 49/66/30 58/64/30
f 49/66/31 52/68/31 59/67/31
f 52/68/32 53/70/32 60/69/32
f 53/70/33 54/100/33 61/2/33
f 54/71/34 55/72/34 62/6/34
f 55/72/35 56/73/35 63/10/35
f 56/73/36 57/75/36 64/74/36
f 57/75/37 50/63/37 51/65/37
f 36/1/38 35/60/38 59/67/38
f 34/61/39 58/64/39 59/67/39
f 34/61/40 33/50/40 51/65/40
f 40/53/41 64/74/41 51/65/41
f 40/53/42 39/11/42 63/10/42
f 1/76/43 65/9/43 66/41/43
f 3/77/43 66/41/43 67/43/43
f 5/78/43 67/43/43 68/38/43
f 7/79/43 68/38/43 69/40/43
f 9/14/43 69/45/43 70/35/43
f 11/12/43 70/35/43 71/37/43
f 13/81/43 71/37/43 72/7/43
f 15/82/43 72/7/43 65/9/43
f 80/85/43 73/101/43 74/102/43
f 74/102/43 75/103/43 76/83/43
f 76/83/43 77/104/43 78/84/43
f 78/84/43 79/105/43 80/85/43
f 80/85/43 74/102/43 76/83/43
f 7/79/44 76/90/44 75/86/44
f 3/77/45 74/91/45 73/87/45
f 1/76/46 73/87/46 80/88/46
f 13/81/47 79/92/47 78/89/47
f 9/80/48 77/106/48 76/90/48
f 5/78/49 75/86/49 74/91/49
f 15/82/50 80/88/50 79/92/50
f 87/30/59 95/73/59 94/72/59
f 81/16/52 89/66/52 90/63/52
f 82/17/53 90/63/53 96/75/53
f 84/20/54 92/70/54 91/68/54
f 86/25/55 94/72/55 93/71/55
f 85/93/56 93/100/56 92/70/56
f 83/21/60 91/68/60 89/66/60
f 88/29/58 96/75/58 95/73/58
