# Blender 5.0.1
# www.blender.org
mtllib PlainShelf.mtl
o PlainShelf
v -0.500000 0.000000 0.100000
v -0.500000 0.030000 0.100000
v -0.500000 0.000000 -0.100000
v -0.500000 0.030000 -0.100000
v 0.500000 0.000000 0.100000
v 0.500000 0.030000 0.100000
v 0.500000 0.000000 -0.100000
v 0.500000 0.030000 -0.100000
vn -1.0000 -0.0000 -0.0000
vn 1.0000 -0.0000 -0.0000
vn -0.0000 -0.0000 1.0000
vn -0.0000 -1.0000 -0.0000
vn -0.0000 1.0000 -0.0000
vt 0.937500 0.187500
vt 1.000000 -0.000000
vt 1.000000 0.187500
vt 0.937500 0.437500
vt 1.000000 0.250000
vt 1.000000 0.437500
vt 0.937500 0.250000
vt 0.000000 0.187500
vt 0.937500 0.000000
vt 0.000000 -0.000000
vt 0.000000 0.437500
vt 0.000000 0.250000
s 0
usemtl PlainShelf
f 2/1/1 3/2/1 1/3/1
f 8/4/2 5/5/2 7/6/2
f 6/7/3 1/8/3 5/1/3
f 7/9/4 1/8/4 3/10/4
f 4/11/5 6/7/5 8/4/5
f 2/1/1 4/9/1 3/2/1
f 8/4/2 6/7/2 5/5/2
f 6/7/3 2/12/3 1/8/3
f 7/9/4 5/1/4 1/8/4
f 4/11/5 2/12/5 6/7/5
