# Blender 5.0.1
# www.blender.org
mtllib ToiletPaperRoll.mtl
o ToiletPaperRoll
v 0.022343 0.000000 -0.009255
v -0.009255 0.000000 -0.022343
v -0.022343 0.000000 0.009255
v 0.009255 0.000000 0.022343
v -0.009255 0.100000 -0.022343
v -0.022343 0.100000 0.009255
v 0.009255 0.100000 0.022343
v 0.022343 0.100000 -0.009255
v -0.018888 0.100000 0.007823
v 0.007823 0.100000 0.018888
v 0.018888 0.100000 -0.007823
v -0.007823 0.100000 -0.018888
v -0.018888 0.000000 0.007823
v -0.007823 0.000000 -0.018888
v 0.018888 0.000000 -0.007823
v 0.007823 0.000000 0.018888
vn -0.0000 1.0000 -0.0000
vn 0.3827 -0.0000 -0.9239
vn 0.9239 -0.0000 0.3827
vn -0.0000 -1.0000 -0.0000
vn -0.3827 -0.0000 0.9239
vn -0.9239 -0.0000 -0.3827
vt 0.625000 0.375000
vt 0.750000 0.500000
vt 0.625000 0.500000
vt 0.750000 0.375000
vt 0.875000 0.500000
vt 1.000000 0.500000
vt 0.875000 0.375000
vt 1.000000 0.375000
vt 1.000000 0.625000
vt 0.875000 0.250000
vt 1.000000 0.250000
vt 0.875000 0.625000
vt 0.750000 0.250000
vt 0.500000 0.375000
vt 0.750000 0.625000
vt 0.625000 0.250000
vt 0.625000 0.625000
vt 0.500000 0.250000
vt 0.500000 0.625000
vt 0.500000 0.500000
s 0
usemtl ToiletPaper
f 6/1/1 10/2/1 9/3/1
f 10/4/1 8/5/1 11/2/1
f 8/6/1 12/7/1 11/8/1
f 1/9/2 5/10/2 8/11/2
f 4/12/3 8/13/3 7/10/3
f 3/3/4 14/14/4 13/1/4
f 2/5/4 15/8/4 14/6/4
f 3/15/5 7/16/5 6/13/5
f 10/13/2 13/17/2 9/16/2
f 2/17/6 6/18/6 5/16/6
f 1/4/4 16/5/4 15/2/4
f 4/4/4 13/3/4 16/1/4
f 9/16/3 14/19/3 12/18/3
f 5/20/1 9/1/1 12/3/1
f 12/11/5 15/12/5 11/10/5
f 11/10/6 16/15/6 10/13/6
f 6/1/1 7/4/1 10/2/1
f 10/4/1 7/7/1 8/5/1
f 8/6/1 5/5/1 12/7/1
f 1/9/2 2/12/2 5/10/2
f 4/12/3 1/15/3 8/13/3
f 3/3/4 2/20/4 14/14/4
f 2/5/4 1/7/4 15/8/4
f 3/15/5 4/17/5 7/16/5
f 10/13/2 16/15/2 13/17/2
f 2/17/6 3/19/6 6/18/6
f 1/4/4 4/7/4 16/5/4
f 4/4/4 3/2/4 13/3/4
f 9/16/3 13/17/3 14/19/3
f 5/20/1 6/14/1 9/1/1
f 12/11/5 14/9/5 15/12/5
f 11/10/6 15/12/6 16/15/6
