# Blender 5.0.1
# www.blender.org
mtllib HangingLongCoat.mtl
o HangingLongCoat
v -0.002055 0.053813 0.017386
v -0.002636 -0.016528 -0.060431
v -0.003004 0.032146 -0.014649
v -0.003109 0.041544 -0.033626
v 0.001140 -0.087253 -0.103447
v 0.001898 -0.207274 -0.107741
v 0.003487 -0.315803 -0.116911
v 0.190310 -0.478398 -0.021641
v -0.180605 -0.486270 -0.019378
v -0.033879 -0.488645 0.026468
v 0.057550 -0.676785 0.016211
v -0.035384 -0.677924 0.035162
v -0.186502 -0.703982 -0.016080
v 0.052778 -0.487102 0.021110
v 0.050636 -0.327302 0.022192
v 0.049485 -0.187008 0.020903
v 0.027953 -0.034236 0.017602
v 0.047077 -0.042190 0.027085
v 0.051179 -0.010914 0.023742
v 0.092638 0.037904 0.025723
v 0.194239 -0.695465 -0.032696
v -0.001109 -0.476411 -0.127072
v -0.038203 -0.328496 0.023378
v -0.041839 -0.188840 0.021941
v -0.026629 -0.035503 0.018046
v -0.048862 -0.044401 0.027890
v -0.048466 -0.013141 0.024420
v -0.093245 0.050200 0.014869
v 0.065801 0.001190 0.009893
v -0.067037 0.011526 0.000948
v 0.081504 -0.003969 0.011923
v -0.085250 0.007043 0.004352
v -0.048994 -0.032294 -0.052837
v 0.051999 -0.042566 -0.047945
v -0.084604 -0.004907 -0.028115
v 0.082464 -0.016123 -0.016121
v 0.131715 -0.026815 -0.021050
v -0.134515 -0.022978 -0.028401
v -0.164146 -0.077506 -0.024938
v 0.167845 -0.080103 -0.022781
v 0.134899 -0.049904 0.024030
v 0.136073 -0.058221 -0.070161
v -0.132775 -0.058332 -0.074554
v -0.140796 -0.067701 0.020631
v 0.052341 -0.084642 -0.096299
v -0.050086 -0.085292 -0.096032
v -0.175718 -0.187274 -0.031562
v -0.174364 -0.327769 -0.028373
v 0.176081 -0.193305 -0.013452
v 0.178821 -0.317046 -0.017309
v -0.148946 -0.182993 0.031809
v -0.150068 -0.324189 0.029722
v -0.126927 -0.331576 -0.071825
v -0.129169 -0.189653 -0.073382
v 0.146146 -0.315229 -0.072079
v 0.149766 -0.190109 -0.067106
v 0.139727 -0.186289 0.028542
v 0.151849 -0.315613 0.016680
v -0.038816 -0.211504 -0.093403
v 0.052778 -0.207945 -0.097405
v 0.090624 -0.211750 -0.094490
v -0.079811 -0.214689 -0.102673
v -0.075073 -0.095274 -0.092699
v 0.081043 -0.085841 -0.095201
v 0.116363 -0.197280 -0.049365
v -0.104457 -0.204067 -0.060831
v 0.091412 -0.313079 -0.098002
v -0.075777 -0.315218 -0.105954
v -0.038151 -0.312300 -0.096584
v 0.051424 -0.309351 -0.100499
v -0.103300 -0.314156 -0.053258
v 0.115263 -0.307878 -0.044563
v -0.104123 -0.179023 0.023281
v -0.104144 -0.319496 0.014038
v 0.103853 -0.190362 0.020053
v 0.114983 -0.318398 0.000809
v 0.028992 -0.034537 -0.001199
v -0.027839 -0.035858 -0.000725
v 0.051317 -0.182119 0.003753
v -0.043824 -0.184046 0.004850
v -0.083712 -0.071822 0.014356
v 0.077026 -0.060777 0.013656
v -0.001273 0.046708 0.013995
v 0.040612 -0.004180 0.022375
v 0.069858 0.032778 0.025301
v -0.037865 -0.005934 0.022902
v -0.066909 0.038189 0.017177
v -0.002040 0.011978 -0.017994
v 0.058840 -0.324235 0.006208
v -0.043888 -0.325623 0.007678
v -0.163656 -0.477302 0.030043
v -0.139123 -0.498300 -0.078420
v 0.153264 -0.474940 -0.065832
v 0.164010 -0.491323 0.015683
v 0.096573 -0.471374 -0.103824
v -0.075076 -0.473076 -0.095952
v -0.037991 -0.469211 -0.099890
v 0.054644 -0.465586 -0.104118
v -0.105615 -0.470752 -0.055198
v 0.120109 -0.468835 -0.052989
v -0.108252 -0.486656 0.017211
v 0.124975 -0.505108 0.005101
v 0.067469 -0.480244 0.004955
v -0.049674 -0.479870 0.001306
v -0.008967 -0.671235 -0.143498
v -0.184303 -0.683870 0.029752
v -0.144635 -0.711305 -0.072957
v 0.152594 -0.696622 -0.068597
v 0.175767 -0.677233 0.016029
v 0.106491 -0.661971 -0.113052
v -0.082183 -0.663468 -0.101224
v -0.048753 -0.658660 -0.114544
v 0.059992 -0.653297 -0.112143
v -0.118712 -0.659384 -0.059755
v 0.131756 -0.661743 -0.063145
v -0.105356 -0.717751 0.022131
v 0.119853 -0.713594 0.013435
v 0.076596 -0.668971 0.003045
v -0.059740 -0.666346 -0.006709
v 0.095040 -0.883842 -0.124336
v 0.053209 -0.875175 -0.124539
v -0.083385 -0.883685 -0.112046
v -0.045938 -0.878576 -0.127836
v -0.009453 -0.892071 -0.155194
v 0.137348 -0.883688 -0.083193
v -0.128740 -0.876315 -0.081797
v 0.158587 -0.887350 -0.043733
v -0.150960 -0.887508 -0.050240
v -0.035707 -0.896325 0.041221
v -0.112686 -0.903849 0.026853
v 0.052546 -0.897316 0.022900
v 0.122890 -0.903483 0.019225
v 0.066520 -0.890036 0.005340
v -0.058919 -0.884747 -0.000310
v 0.070768 -0.888527 -0.108351
v 0.042648 -0.882184 -0.108773
v -0.049390 -0.887009 -0.084726
v -0.027710 -0.884437 -0.112498
v -0.002884 -0.894962 -0.131143
v 0.094497 -0.889491 -0.061807
v -0.107762 -0.886208 -0.041831
v 0.129605 -0.893904 -0.046774
v -0.126985 -0.899754 -0.039244
v -0.073443 -0.898439 0.010124
v -0.108532 -0.903593 0.003117
v 0.100714 -0.899146 -0.004882
v 0.116944 -0.902713 -0.005982
v 0.082980 -0.892558 -0.032790
v -0.058742 -0.889486 -0.038273
v 0.118610 -1.102094 -0.143632
v 0.066557 -1.093141 -0.143593
v -0.099940 -1.099408 -0.129931
v -0.054019 -1.095179 -0.148586
v -0.009396 -1.110991 -0.173192
v 0.145293 -1.100866 -0.072749
v -0.130631 -1.090042 -0.071747
v 0.167533 -1.103677 -0.059134
v -0.163264 -1.110582 -0.067280
v -0.041912 -1.112047 0.045966
v -0.136875 -1.117932 0.027573
v 0.065658 -1.115013 0.024793
v 0.153537 -1.120288 0.019321
v 0.082420 -1.107543 0.004452
v -0.069865 -1.099858 -0.002725
v 0.096124 -1.107422 -0.116685
v 0.056522 -1.099493 -0.117735
v -0.071586 -1.099640 -0.124916
v -0.038436 -1.097848 -0.131364
v -0.007760 -1.115474 -0.151441
v 0.118708 -1.102155 -0.083746
v -0.103929 -1.095055 -0.065602
v 0.138289 -1.103554 -0.048001
v -0.142366 -1.119449 -0.044031
v -0.083966 -1.109876 0.001949
v -0.117272 -1.119946 -0.005911
v 0.106971 -1.116891 -0.012650
v 0.132645 -1.116285 -0.024793
v 0.095940 -1.107243 -0.029157
v -0.080373 -1.100149 -0.040695
v -0.048286 -0.633052 -0.115547
v 0.060182 -0.633052 -0.114599
v -0.048286 -0.657700 -0.117210
v 0.060182 -0.657700 -0.116263
v -0.006328 -0.642545 -0.145892
v -0.006328 -0.667193 -0.147555
v -0.080693 -0.613223 -0.102620
v -0.080025 -0.638181 -0.104374
v -0.120924 -0.587667 -0.053980
v -0.120924 -0.612315 -0.055644
v 0.105733 -0.614209 -0.114785
v 0.105262 -0.638857 -0.114927
v 0.133600 -0.588343 -0.055876
v 0.133600 -0.612991 -0.057540
vn -0.4563 0.8672 -0.1991
vn 0.5474 0.8111 -0.2064
vn 0.4102 -0.3820 0.8281
vn -0.4313 0.1049 0.8961
vn -0.2384 -0.8708 -0.4299
vn 0.1773 -0.8815 -0.4375
vn 0.2419 -0.4459 -0.8618
vn -0.1900 -0.4755 -0.8589
vn 0.4511 0.6567 -0.6044
vn -0.3321 0.6449 -0.6883
vn -0.6902 -0.3661 0.6242
vn 0.2099 0.7913 -0.5743
vn 0.5724 -0.4645 0.6758
vn -0.0832 0.8042 -0.5885
vn -0.0207 0.7786 -0.6271
vn 0.1298 0.8405 -0.5260
vn -0.3660 0.4952 0.7879
vn 0.2324 0.8722 0.4303
vn -0.2715 0.7591 -0.5917
vn -0.0114 0.6618 -0.7496
vn 0.1304 0.5325 0.8363
vn -0.2675 0.7287 0.6304
vn 0.8106 0.5425 0.2206
vn 0.7907 0.5452 -0.2785
vn -0.8294 0.4279 -0.3591
vn -0.8234 0.4678 0.3212
vn -0.2993 0.4841 -0.8222
vn 0.0531 0.7535 -0.6553
vn 0.8311 0.0478 0.5541
vn 0.8439 0.0753 -0.5311
vn 0.8588 0.0349 -0.5112
vn 0.7833 -0.0020 0.6217
vn -0.6688 -0.0233 -0.7431
vn -0.9226 -0.0001 0.3858
vn -0.8940 0.1054 0.4354
vn -0.8400 -0.0279 -0.5419
vn 0.1994 0.0363 -0.9792
vn -0.3349 0.0316 -0.9417
vn 0.0565 0.7534 -0.6552
vn -0.0481 0.7217 -0.6905
vn -0.3363 0.5991 -0.7266
vn 0.0613 0.5156 -0.8547
vn 0.2146 0.0728 -0.9740
vn 0.0768 0.0002 -0.9970
vn -0.4566 -0.0679 -0.8871
vn 0.4860 -0.1962 -0.8516
vn 0.8582 0.0624 -0.5095
vn 0.4549 0.0045 -0.8905
vn -0.3883 -0.1609 -0.9074
vn -0.8504 0.0772 -0.5205
vn 0.0656 0.0351 -0.9972
vn 0.2181 0.0322 -0.9754
vn 0.3125 0.0845 -0.9461
vn -0.4329 0.0696 -0.8987
vn 0.8723 -0.0299 -0.4880
vn -0.8656 -0.0434 -0.4988
vn -0.4766 0.0487 -0.8778
vn 0.6380 -0.0462 -0.7686
vn 0.1920 -0.0645 0.9793
vn -0.3788 -0.1697 0.9098
vn -0.2469 0.5583 0.7921
vn 0.0075 0.0347 0.9994
vn 0.9846 -0.1013 -0.1428
vn -0.9793 -0.1412 -0.1449
vn 0.3322 0.4949 0.8029
vn 0.0991 0.0355 0.9944
vn -0.0859 0.0338 0.9957
vn 0.1151 0.0878 0.9895
vn 0.1827 0.0470 0.9820
vn -0.1811 0.0261 0.9831
vn -0.2303 0.0004 0.9731
vn 0.0189 0.0532 0.9984
vn 0.0335 0.0766 0.9965
vn -0.0574 0.1738 0.9831
vn 0.0982 -0.4199 0.9023
vn -0.1187 0.0153 0.9928
vn -0.0276 0.1299 0.9911
vn 0.3699 0.0979 0.9239
vn -0.3892 0.1482 0.9092
vn 0.9290 0.3640 -0.0668
vn -0.9168 0.3952 -0.0570
vn 0.1228 -0.6738 0.7286
vn 0.5596 0.4580 0.6908
vn -0.2420 -0.6545 0.7163
vn -0.5553 0.3809 0.7392
vn 0.7790 -0.2064 0.5920
vn -0.7137 -0.2383 0.6587
vn -0.0000 0.3396 0.9406
vn -0.1394 0.0066 0.9902
vn 0.0162 0.0093 0.9998
vn -0.9911 -0.0546 -0.1214
vn 0.9413 0.0210 -0.3370
vn 0.0111 0.0200 0.9997
vn -0.3931 -0.0324 0.9189
vn -0.6625 0.0192 -0.7488
vn -0.0988 -0.0634 -0.9931
vn 0.5750 -0.0097 -0.8181
vn 0.3723 0.0480 -0.9269
vn 0.7835 0.0391 0.6201
vn -0.0312 -0.0097 0.9995
vn -0.4374 0.0185 -0.8991
vn -0.9212 0.0826 0.3802
vn -0.1231 0.0158 0.9923
vn -0.6760 -0.0152 -0.7367
vn 0.2245 0.0344 0.9739
vn 0.3223 0.0100 0.9466
vn 0.9057 0.0450 -0.4216
vn -0.7387 -0.0053 -0.6740
vn 0.8589 0.0183 -0.5118
vn -0.8861 0.0188 -0.4632
vn 0.9388 -0.0210 -0.3438
vn 0.0646 0.0244 -0.9976
vn 0.5087 -0.0352 -0.8602
vn 0.4000 0.0610 -0.9145
vn -0.3748 0.0396 -0.9263
vn 0.1056 0.0225 0.9942
vn 0.9349 -0.0012 0.3549
vn -0.2569 -0.0144 0.9663
vn 0.0129 0.0431 -0.9990
vn 0.7665 0.0057 -0.6422
vn -0.1222 0.0465 0.9914
vn -0.8169 0.0134 -0.5767
vn 0.0670 0.0382 0.9970
vn -0.9468 0.0942 0.3076
vn 0.8900 0.0681 -0.4509
vn -0.5705 0.0069 -0.8213
vn -0.7964 0.0698 -0.6008
vn 0.8432 -0.0224 -0.5371
vn -0.3566 0.0276 -0.9338
vn -0.5784 0.0955 -0.8101
vn -0.0716 -0.0136 0.9973
vn -0.1686 -0.9857 0.0028
vn 0.4690 -0.7540 0.4599
vn -0.3936 0.0473 -0.9181
vn -0.0445 0.0124 0.9989
vn -0.8089 -0.0465 -0.5861
vn -0.1981 0.0275 0.9798
vn 0.4287 0.0468 -0.9022
vn 0.0549 0.0313 0.9980
vn 0.6972 0.0005 -0.7169
vn -0.8908 0.0466 0.4521
vn -0.7822 -0.0011 -0.6230
vn -0.5792 0.0418 -0.8141
vn -0.7415 0.1017 -0.6632
vn 0.9201 0.0789 0.3836
vn 0.8629 -0.0116 -0.5052
vn -0.0091 0.0561 -0.9984
vn -0.1141 0.0865 -0.9897
vn -0.4491 -0.0720 0.8906
vn -0.8105 -0.1157 0.5742
vn 0.8809 0.0095 -0.4732
vn 0.5086 -0.0901 0.8563
vn -0.5584 -0.0340 -0.8289
vn 0.6903 0.1374 -0.7104
vn 0.7890 -0.0933 0.6073
vn -0.5732 0.0993 -0.8134
vn -0.9642 -0.0479 -0.2608
vn 0.3463 0.0770 -0.9350
vn 0.8341 -0.0464 -0.5497
vn -0.3826 0.1055 -0.9179
vn 0.0648 -0.0130 -0.9978
vn 0.8698 0.0008 0.4934
vn -0.0619 -0.9959 -0.0656
vn 0.8477 0.0422 -0.5287
vn -0.9960 0.0524 -0.0720
vn 0.5895 -0.0807 0.8037
vn -0.4045 -0.1393 0.9038
vn 0.5148 -0.0547 0.8555
vn 0.1917 0.0284 -0.9810
vn -0.4280 0.0480 -0.9025
vn -0.2204 -0.9710 0.0923
vn -0.0680 -0.9890 -0.1315
vn -0.0997 -0.9658 -0.2395
vn -0.2196 -0.9714 -0.0898
vn 0.1693 -0.9770 -0.1293
vn -0.0361 -0.9318 -0.3611
vn 0.5222 -0.7984 -0.2999
vn -0.0330 -0.9925 -0.1180
vn -0.0166 -0.9918 -0.1266
vn 0.0017 -0.8698 0.4933
vn 0.0676 -0.9969 -0.0396
vn 0.0348 -0.9980 -0.0533
vn -0.1609 -0.9340 -0.3189
vn 0.0200 -0.9851 -0.1708
vn 0.2972 -0.9476 -0.1174
vn -0.4049 -0.9011 -0.1553
vn 0.0489 -0.9988 -0.0011
vn -0.0199 -0.9976 0.0663
vn -0.0506 -0.9912 -0.1220
vn 0.0356 -0.6929 -0.7201
vn 0.2406 -0.9502 0.1980
vn -0.0610 -0.9980 -0.0172
vn -0.4645 -0.8639 -0.1946
vn 0.4189 -0.7946 -0.4394
vn -0.0414 -0.9990 0.0191
vn -0.4391 -0.8969 0.0527
vn 0.1797 -0.9684 -0.1730
vn -0.1875 0.0851 -0.9786
vn -0.1860 0.0270 0.9822
vn 0.0627 0.0093 0.9980
vn -0.7613 -0.0515 -0.6463
vn 0.8676 -0.0386 -0.4957
vn -0.0475 -0.0075 0.9988
vn -0.9555 0.1089 0.2743
vn 0.0232 0.0885 -0.9958
vn -0.0349 -0.0421 0.9985
vn 0.4178 0.0612 -0.9065
vn -0.5769 0.0550 -0.8149
vn -0.3397 0.0569 -0.9388
vn -0.7584 0.0439 -0.6503
vn 0.0014 0.0673 -0.9977
vn 0.8991 -0.0147 -0.4374
vn 0.0173 0.2398 -0.9707
vn 0.1306 0.2788 -0.9514
vn 0.3519 0.0537 0.9345
vn -0.5767 -0.2927 0.7627
vn -0.2275 -0.8669 -0.4436
vn 0.1077 -0.8407 -0.5308
vn -0.0007 -0.3682 -0.9298
vn -0.0564 -0.4481 -0.8922
vn 0.4941 0.5976 -0.6314
vn -0.3712 0.6550 -0.6582
vn -0.0875 0.6304 -0.7713
vn 0.4094 0.4900 -0.7696
vn 0.7605 0.1081 0.6403
vn 0.8981 0.0292 -0.4388
vn 0.8976 -0.0084 -0.4407
vn 0.7569 0.0110 0.6534
vn -0.6762 -0.0188 -0.7365
vn -0.9212 0.0016 0.3891
vn -0.9204 0.0739 0.3839
vn -0.6607 0.1144 -0.7419
vn 0.1378 0.0094 -0.9904
vn -0.1444 -0.0335 -0.9889
vn -0.1199 -0.0314 -0.9923
vn 0.0386 0.0091 -0.9992
vn 0.0797 0.0293 -0.9964
vn 0.2384 0.0412 -0.9703
vn 0.1993 0.0272 -0.9796
vn -0.3346 0.0275 -0.9420
vn 0.9122 0.0213 -0.4092
vn -0.8864 -0.0205 -0.4625
vn -0.6684 -0.0256 -0.7434
vn 0.4516 -0.0027 -0.8922
vn 0.3247 -0.0166 0.9457
vn -0.2171 -0.1093 0.9700
vn 0.0108 0.0364 0.9993
vn 0.9921 -0.1093 -0.0619
vn -0.9871 -0.1511 -0.0521
vn -0.2244 -0.4398 0.8696
vn -0.0321 0.1202 0.9922
vn -0.0116 -0.0307 0.9995
vn 0.0375 0.1528 0.9875
vn 0.1978 -0.0852 0.9765
vn -0.1783 -0.0806 0.9807
vn 0.0111 -0.0656 0.9978
vn 0.3273 -0.1126 0.9382
vn -0.8887 -0.0115 -0.4583
vn 0.9932 -0.0028 -0.1161
vn 0.0141 0.0180 0.9997
vn -0.2643 0.0080 0.9644
vn -0.3691 -0.0527 -0.9279
vn 0.2401 0.0207 -0.9705
vn 0.6176 0.0006 -0.7865
vn 0.3203 0.0285 -0.9469
vn 0.8076 0.0526 0.5873
vn 0.0149 -0.0418 0.9990
vn -0.5833 0.0679 -0.8094
vn -0.9475 0.0552 0.3149
vn -0.1372 0.0222 0.9903
vn -0.8075 0.0822 -0.5841
vn 0.3156 -0.0022 0.9489
vn 0.2228 -0.0177 0.9747
vn 0.9103 0.0489 -0.4111
vn -0.8852 -0.0452 -0.4630
vn 0.7671 0.0717 -0.6375
vn -0.8007 -0.0414 -0.5976
vn 0.8489 0.0127 -0.5284
vn 0.0121 0.0371 -0.9992
vn 0.5809 -0.0207 -0.8137
vn 0.3719 0.0502 -0.9269
vn -0.1138 0.0830 -0.9900
vn 0.2218 -0.0235 0.9748
vn 0.8077 0.0522 0.5872
vn -0.0733 0.0416 0.9964
vn -0.0106 0.0478 -0.9988
vn 0.6513 0.0503 -0.7571
vn -0.1932 0.0185 0.9810
vn -0.8050 0.0056 -0.5933
vn 0.2117 -0.0199 0.9771
vn -0.9990 0.0276 0.0358
vn 0.9033 0.0768 -0.4221
vn -0.7335 -0.0286 -0.6791
vn -0.7473 0.0463 -0.6629
vn 0.8604 -0.0302 -0.5088
vn -0.2330 0.0128 -0.9724
vn -0.5668 0.0919 -0.8187
vn -0.0312 -0.0412 0.9987
vn -0.3305 -0.8583 0.3925
vn 0.1501 -0.9784 -0.1425
vn -0.3760 0.0511 -0.9252
vn -0.0708 0.0289 0.9971
vn 0.3183 0.0813 -0.9445
vn -0.1864 0.0323 0.9819
vn 0.4053 0.0386 -0.9134
vn 0.0615 0.0289 0.9977
vn 0.8903 0.0632 -0.4510
vn -0.9191 0.0827 0.3853
vn -0.5734 0.0176 -0.8191
vn -0.5889 0.0440 -0.8070
vn -0.5494 0.0440 -0.8344
vn 0.8663 0.0291 0.4987
vn 0.8710 -0.0149 -0.4910
vn 0.0152 0.0500 -0.9986
vn 0.8787 -0.0345 -0.4761
vn -0.4254 -0.0644 0.9027
vn -0.8825 -0.1466 0.4469
vn 0.5279 0.0820 -0.8454
vn 0.5698 -0.1007 0.8156
vn -0.8723 0.1065 -0.4773
vn 0.9356 0.0173 -0.3525
vn 0.1975 -0.2019 0.9593
vn -0.4618 0.0726 -0.8840
vn -0.9520 -0.0377 -0.3036
vn 0.4142 0.1044 -0.9042
vn 0.9159 -0.0203 -0.4008
vn -0.3983 0.1022 -0.9115
vn 0.0388 0.0075 -0.9992
vn 0.9697 0.1372 0.2020
vn 0.8422 0.0434 -0.5374
vn -0.9570 0.1014 -0.2719
vn 0.8576 -0.1805 0.4816
vn -0.8770 -0.0391 0.4789
vn 0.2062 -0.1069 0.9726
vn 0.2204 0.0318 -0.9749
vn -0.0602 0.0339 -0.9976
vn -0.1796 -0.9369 -0.2999
vn 0.0219 -0.9853 -0.1695
vn 0.3018 -0.9290 -0.2141
vn -0.3824 -0.9006 0.2064
vn 0.2290 -0.9734 -0.0014
vn -0.1963 -0.9791 0.0541
vn 0.0830 -0.9930 -0.0844
vn 0.3657 -0.7115 -0.6001
vn 0.0867 -0.9875 -0.1315
vn -0.0157 -0.9964 -0.0830
vn -0.6211 -0.4156 -0.6645
vn 0.5411 -0.8286 -0.1434
vn -0.0490 -0.9984 -0.0286
vn -0.0588 -0.9979 0.0257
vn -0.1969 -0.8386 -0.5079
vn -0.8141 -0.0201 -0.5804
vn -0.1916 0.0249 0.9812
vn 0.0532 0.0119 0.9985
vn -0.7704 -0.0537 -0.6353
vn 0.8628 -0.0359 -0.5043
vn -0.0454 -0.0089 0.9989
vn -0.8943 0.0152 0.4472
vn 0.0147 0.0896 -0.9959
vn -0.0246 -0.0428 0.9988
vn -0.3405 0.0633 -0.9381
vn -0.7590 0.0254 -0.6506
vn -0.0065 0.0059 -1.0000
vn 0.8985 0.0296 -0.4380
vt 0.738189 0.560959
vt 0.787320 0.625846
vt 0.725008 0.633569
vt 0.749027 0.716128
vt 0.772234 0.733529
vt 0.759694 0.708851
vt 0.753797 0.539969
vt 0.731125 0.545403
vt 0.737163 0.706911
vt 0.713416 0.634720
vt 0.727967 0.573025
vt 0.744245 0.731236
vt 0.729009 0.761510
vt 0.713416 0.521979
vt 0.286661 0.613417
vt 0.214468 0.648798
vt 0.248733 0.603918
vt 0.318668 0.609234
vt 0.285533 0.655551
vt 0.349231 0.654776
vt 0.351985 0.628969
vt 0.394956 0.669582
vt 0.176338 0.659444
vt 0.213466 0.624072
vt 0.212177 0.584071
vt 0.875621 0.497261
vt 0.900368 0.461062
vt 0.938026 0.461570
vt 0.390796 0.616626
vt 0.882975 0.443951
vt 0.747582 0.457591
vt 0.770399 0.497194
vt 0.705291 0.459943
vt 0.357617 0.588957
vt 0.805060 0.450554
vt 0.765956 0.430297
vt 0.912426 0.428086
vt 0.737206 0.424360
vt 0.286057 0.573770
vt 0.255080 0.573088
vt 0.873055 0.371715
vt 0.950839 0.370531
vt 0.961202 0.278797
vt 0.912128 0.363746
vt 0.914707 0.275979
vt 0.881129 0.277790
vt 0.684655 0.370381
vt 0.721691 0.267940
vt 0.727644 0.362490
vt 0.767948 0.268793
vt 0.771654 0.365972
vt 0.254988 0.517432
vt 0.288829 0.517246
vt 0.316757 0.517859
vt 0.239547 0.570729
vt 0.316940 0.575804
vt 0.331842 0.571994
vt 0.342805 0.518630
vt 0.230564 0.516867
vt 0.981559 0.371671
vt 0.201542 0.531699
vt 0.658227 0.365454
vt 0.368816 0.532934
vt 0.253301 0.462542
vt 0.223429 0.462331
vt 0.323516 0.463995
vt 0.290624 0.458427
vt 0.183721 0.472456
vt 0.390658 0.475738
vt 0.674350 0.267681
vt 0.652766 0.282735
vt 0.809019 0.272221
vt 0.805489 0.375838
vt 0.843005 0.374562
vt 0.846005 0.275981
vt 0.843279 0.466744
vt 0.622943 0.410351
vt 0.568167 0.491085
vt 0.580742 0.411366
vt 0.637506 0.490049
vt 0.633579 0.408084
vt 0.647615 0.491332
vt 0.570159 0.409370
vt 0.558124 0.492428
vt 0.184717 0.616996
vt 0.119554 0.578730
vt 0.461715 0.590491
vt 0.155020 0.553588
vt 0.416388 0.566334
vt 0.766878 0.704833
vt 0.755825 0.565046
vt 0.793620 0.625784
vt 0.784453 0.743038
vt 0.747788 0.562620
vt 0.830461 0.632950
vt 0.829653 0.619091
vt 0.863206 0.643182
vt 0.829653 0.565679
vt 0.830788 0.551836
vt 0.863867 0.542405
vt 0.899216 0.658039
vt 0.862860 0.594057
vt 0.903516 0.593697
vt 0.902614 0.521270
vt 0.443417 0.488307
vt 0.498806 0.500606
vt 0.085076 0.487630
vt 0.561671 0.572169
vt 0.643583 0.572459
vt 0.654035 0.573408
vt 0.882922 0.157559
vt 0.995262 0.157989
vt 0.988739 0.286478
vt 0.351248 0.466423
vt 0.335943 0.377171
vt 0.367262 0.378969
vt 0.643106 0.162308
vt 0.669243 0.141031
vt 0.250532 0.375369
vt 0.300578 0.369618
vt 0.918443 0.152173
vt 0.646274 0.666762
vt 0.557270 0.666363
vt 0.759259 0.153565
vt 0.472751 0.388584
vt 0.534110 0.402397
vt 0.720635 0.149575
vt 0.141708 0.476294
vt 0.058101 0.388735
vt 0.116232 0.379380
vt 0.805241 0.142997
vt 0.171425 0.378730
vt 0.215903 0.373311
vt 0.550381 0.572979
vt 0.542561 0.669283
vt 0.965978 0.153951
vt 0.408426 0.385845
vt 0.639331 0.031492
vt 0.660304 0.007772
vt 0.249445 0.269408
vt 0.312022 0.259528
vt 0.351394 0.268934
vt 0.385251 0.268556
vt 0.748239 0.028148
vt 0.809019 0.000354
vt 0.887947 0.027410
vt 0.927924 0.015700
vt 0.848256 0.145054
vt 0.972657 0.009255
vt 0.576311 0.314681
vt 0.713771 0.016279
vt 0.030680 0.299604
vt 0.081598 0.267158
vt 0.164891 0.267826
vt 0.211207 0.265030
vt 0.552705 0.769170
vt 0.537389 0.787003
vt 0.428139 0.274566
vt 0.665849 0.670377
vt 0.649081 0.769038
vt 0.992932 0.019219
vt 0.892626 0.772463
vt 0.831919 0.723261
vt 0.892626 0.668529
vt 0.890132 0.675075
vt 0.831119 0.764494
vt 0.831112 0.711523
vt 0.353413 0.136426
vt 0.391689 0.132909
vt 0.654852 0.857127
vt 0.547910 0.857515
vt 0.448335 0.142250
vt 0.434665 0.140442
vt 0.469950 0.127056
vt 0.520007 0.274287
vt 0.614480 0.176429
vt 0.247164 0.138880
vt 0.312110 0.127056
vt -0.000566 0.160612
vt 0.059145 0.152536
vt 0.158686 0.136439
vt 0.206955 0.133200
vt 0.550281 0.159385
vt 0.531148 0.860831
vt 0.127177 0.134071
vt 0.146471 0.148043
vt 0.678849 0.787187
vt 0.309228 0.924827
vt 0.275731 0.966888
vt 0.273181 0.914917
vt 0.356609 0.930873
vt 0.317422 0.972515
vt 0.330550 0.922659
vt 0.159818 0.011983
vt 0.251865 0.922038
vt 0.435797 0.015987
vt 0.208087 0.008745
vt 0.246032 0.972497
vt 0.260240 0.972063
vt 0.354545 0.011971
vt 0.383623 0.983677
vt 0.371446 0.930774
vt 0.402807 0.935814
vt 0.248296 0.014424
vt 0.313242 0.002601
vt 0.198056 0.973147
vt 0.156144 0.931643
vt 0.191879 0.921847
vt 0.392821 0.008454
vt 0.123770 0.931738
vt 0.023214 0.989479
vt 0.015014 0.932244
vt 0.128309 0.009616
vt 0.093781 0.799649
vt 0.160386 0.753769
vt 0.148346 0.813779
vt 0.006514 0.986013
vt 0.135769 0.984999
vt 0.141772 0.928280
vt 0.206777 0.928921
vt 0.207976 0.977856
vt 0.365457 0.980758
vt 0.341888 0.980066
vt 0.147016 0.938759
vt 0.174261 0.979669
vt 0.157714 0.988078
vt 0.407913 0.939873
vt 0.268710 0.742984
vt 0.301247 0.744464
vt 0.318029 0.795724
vt 0.364792 0.812743
vt 0.312812 0.822420
vt 0.349295 0.848101
vt 0.331492 0.848111
vt 0.131963 0.856539
vt 0.093452 0.850618
vt 0.073233 0.802640
vt 0.215956 0.724032
vt 0.186272 0.738618
vt 0.323630 0.741072
vt 0.290710 0.717806
vt 0.347263 0.719819
vt 0.132955 0.755542
vt 0.153504 0.713693
vt 0.167818 0.734677
vt 0.207832 0.714526
vt 0.279538 0.739499
vt 0.204745 0.687866
vt 0.347563 0.792247
vt 0.375897 0.781043
vt 0.093100 0.791899
vt 0.102382 0.729757
vt 0.376609 0.802511
vt 0.416947 0.795549
vt 0.062769 0.796618
vt 0.067651 0.778926
vt 0.116025 0.870935
vt 0.064931 0.905344
vt 0.093350 0.867250
vt 0.337947 0.864470
vt 0.378901 0.901285
vt 0.286218 0.885643
vt 0.338434 0.859228
vt 0.306201 0.862825
vt 0.323417 0.845778
vt 0.116568 0.872768
vt 0.154617 0.869378
vt 0.167705 0.903511
vt 0.143775 0.849600
vt 0.020554 0.786205
vt 0.350861 0.862855
vt 0.471082 0.002601
vt 0.615612 0.051974
vt 0.000566 0.036157
vt 0.060277 0.028081
vt 0.547910 0.990897
vt 0.531148 0.994213
vt 0.689182 0.860831
vt 0.654852 0.990509
vt 0.551413 0.034929
vt 0.937213 0.902453
vt 0.992435 0.825354
vt 0.966399 0.916074
vt 0.934367 0.951050
vt 0.905181 0.937429
vt 0.894919 0.973748
vt 0.865012 0.960708
vt 0.845026 0.993625
vt 0.815840 0.980004
vt 0.963249 0.811733
vt 0.994238 0.762793
vt 0.965219 0.749053
vt 0.981858 0.700187
vt 0.763036 0.529808
vt 0.843005 0.000360
vt 0.818489 0.762097
vt 0.890132 0.765112
vt 0.301927 0.974090
vt 0.232314 0.922635
vt 0.111399 0.988098
vt 0.004458 0.928280
vt 0.390912 0.988078
vt 0.166099 0.903252
vt 0.287345 0.882064
vt 0.689182 0.994213
vt 0.952672 0.686567
s 0
usemtl HangingLongCoat
f 32/1/1 1/2/1 4/3/1
f 1/2/2 31/4/2 4/3/2
f 19/5/3 31/4/3 20/6/3
f 27/7/4 32/1/4 26/8/4
f 4/3/5 29/9/5 3/10/5
f 30/11/6 4/3/6 3/10/6
f 29/9/7 18/12/7 17/13/7
f 26/8/8 30/11/8 25/14/8
f 2/15/9 29/16/9 34/17/9
f 33/18/10 3/19/10 2/15/10
f 30/20/11 35/21/11 25/22/11
f 33/18/12 35/21/12 30/20/12
f 29/16/13 17/23/13 36/24/13
f 34/17/14 29/16/14 36/24/14
f 42/25/15 34/17/15 36/24/15
f 36/26/16 37/27/16 42/28/16
f 35/21/17 81/29/17 25/22/17
f 37/27/18 36/26/18 41/30/18
f 38/31/19 35/32/19 43/33/19
f 35/21/20 33/18/20 43/34/20
f 81/35/21 35/32/21 44/36/21
f 35/32/22 38/31/22 44/36/22
f 40/37/23 37/27/23 41/30/23
f 40/37/24 42/28/24 37/27/24
f 39/38/25 38/31/25 43/33/25
f 39/38/26 44/36/26 38/31/26
f 5/39/27 33/18/27 2/15/27
f 5/39/28 34/17/28 45/40/28
f 57/41/29 40/37/29 41/30/29
f 40/37/30 56/42/30 42/28/30
f 55/43/31 49/44/31 50/45/31
f 49/44/32 58/46/32 50/45/32
f 54/47/33 48/48/33 47/49/33
f 52/50/34 47/49/34 48/48/34
f 39/38/35 51/51/35 44/36/35
f 54/47/36 39/38/36 43/33/36
f 5/39/37 60/52/37 6/53/37
f 59/54/38 5/39/38 6/53/38
f 45/40/39 34/17/39 64/55/39
f 42/25/40 64/55/40 34/17/40
f 46/56/41 63/57/41 33/18/41
f 43/34/42 33/18/42 63/57/42
f 63/57/43 59/54/43 62/58/43
f 60/52/44 64/55/44 61/59/44
f 56/42/45 65/60/45 42/28/45
f 64/55/46 42/25/46 65/61/46
f 64/55/47 65/61/47 61/59/47
f 54/47/48 43/33/48 66/62/48
f 63/57/49 66/63/49 43/34/49
f 63/57/50 62/58/50 66/63/50
f 70/64/51 61/59/51 67/65/51
f 69/66/52 62/58/52 59/54/52
f 6/53/53 70/64/53 7/67/53
f 69/66/54 6/53/54 7/67/54
f 72/68/55 61/59/55 65/61/55
f 62/58/56 71/69/56 66/63/56
f 55/43/57 65/60/57 56/42/57
f 53/70/58 66/62/58 71/71/58
f 51/51/59 74/72/59 73/73/59
f 58/46/60 75/74/60 76/75/60
f 41/30/61 36/26/61 82/76/61
f 78/77/62 79/78/62 77/79/62
f 80/80/63 25/81/63 24/82/63
f 17/83/64 79/78/64 16/84/64
f 36/24/65 17/23/65 82/85/65
f 17/23/66 16/86/66 82/85/66
f 25/22/67 81/29/67 24/87/67
f 44/36/68 51/51/68 81/35/68
f 51/51/69 73/73/69 81/35/69
f 57/41/70 41/30/70 82/76/70
f 75/74/71 57/41/71 82/76/71
f 75/88/72 82/85/72 16/86/72
f 24/87/73 81/29/73 73/89/73
f 1/2/74 85/90/74 20/6/74
f 1/2/75 87/91/75 83/92/75
f 19/5/76 85/90/76 84/93/76
f 27/7/77 87/91/77 28/94/77
f 25/14/78 27/7/78 26/8/78
f 19/5/79 17/13/79 18/12/79
f 25/95/80 78/96/80 86/97/80
f 77/98/81 17/99/81 84/100/81
f 87/101/82 88/102/82 83/103/82
f 86/97/83 88/102/83 87/101/83
f 85/104/84 83/103/84 88/102/84
f 84/100/85 85/104/85 88/102/85
f 86/97/86 78/96/86 88/102/86
f 84/100/87 88/102/87 77/98/87
f 78/96/88 77/98/88 88/102/88
f 24/87/89 74/105/89 23/106/89
f 15/107/90 75/88/90 16/86/90
f 89/108/91 16/84/91 79/78/91
f 90/109/92 24/82/92 23/110/92
f 90/109/93 79/78/93 80/80/93
f 76/75/94 94/111/94 58/46/94
f 55/43/95 100/112/95 72/113/95
f 68/114/96 97/115/96 96/116/96
f 53/70/97 99/117/97 92/118/97
f 7/67/98 98/119/98 22/120/98
f 58/46/99 8/121/99 50/45/99
f 89/108/100 104/122/100 103/123/100
f 7/67/101 97/115/101 69/66/101
f 48/48/102 91/124/102 52/50/102
f 23/106/103 101/125/103 10/126/103
f 53/70/104 9/127/104 48/48/104
f 76/128/105 14/129/105 102/130/105
f 52/50/106 101/131/106 74/72/106
f 67/65/107 100/132/107 95/133/107
f 15/134/108 103/123/108 14/135/108
f 50/45/109 93/136/109 55/43/109
f 68/114/110 99/137/110 71/69/110
f 23/110/111 104/122/111 90/109/111
f 67/65/112 98/119/112 70/64/112
f 92/118/113 114/138/113 107/139/113
f 22/120/114 113/140/114 105/141/114
f 96/116/115 112/142/115 111/143/115
f 101/131/116 106/144/116 116/145/116
f 8/121/117 109/146/117 21/147/117
f 102/148/118 109/146/118 94/111/118
f 95/133/119 113/140/119 98/119/119
f 8/121/120 108/149/120 93/136/120
f 101/125/121 12/150/121 10/126/121
f 92/118/122 13/151/122 9/127/122
f 102/130/123 11/152/123 117/153/123
f 9/127/124 106/144/124 91/124/124
f 95/133/125 115/154/125 110/155/125
f 14/135/126 118/156/126 11/157/126
f 96/116/127 114/158/127 99/137/127
f 10/159/128 119/160/128 104/122/128
f 93/136/129 115/161/129 100/112/129
f 22/120/130 112/142/130 97/115/130
f 103/123/131 119/160/131 118/156/131
f 116/162/132 13/163/132 107/164/132
f 117/165/133 21/166/133 109/167/133
f 111/143/134 123/168/134 122/169/134
f 118/156/135 134/170/135 133/171/135
f 107/172/136 126/173/136 128/174/136
f 116/175/137 129/176/137 12/150/137
f 105/141/138 121/177/138 124/178/138
f 117/153/139 131/179/139 132/180/139
f 110/155/140 125/181/140 120/182/140
f 116/175/141 128/174/141 130/183/141
f 11/157/142 133/171/142 131/184/142
f 105/141/143 123/168/143 112/142/143
f 111/143/144 126/173/144 114/158/144
f 117/153/145 127/185/145 108/186/145
f 12/187/146 134/170/146 119/160/146
f 110/155/147 121/177/147 113/140/147
f 108/186/148 125/181/148 115/154/148
f 166/188/149 139/189/149 169/190/149
f 170/191/150 135/192/150 165/193/150
f 127/185/151 155/194/151 125/181/151
f 139/189/152 168/195/152 169/190/152
f 122/169/153 156/196/153 126/173/153
f 125/181/154 150/197/154 120/182/154
f 137/198/155 168/195/155 138/199/155
f 124/178/156 153/200/156 123/168/156
f 147/201/157 172/202/157 177/203/157
f 124/178/158 151/204/158 154/205/158
f 143/206/159 175/207/159 173/208/159
f 122/169/160 153/200/160 152/209/160
f 179/210/161 148/211/161 178/212/161
f 132/180/162 157/213/162 127/185/162
f 141/214/163 137/215/163 149/216/163
f 146/217/164 178/212/164 148/211/164
f 144/218/165 179/210/165 174/219/165
f 171/220/166 137/198/166 141/221/166
f 170/191/167 142/222/167 140/223/167
f 171/220/168 143/206/168 173/208/168
f 174/224/169 145/225/169 144/226/169
f 176/227/170 147/201/170 177/203/170
f 136/228/171 135/229/171 140/230/171
f 140/230/172 142/231/172 148/232/172
f 142/231/173 147/233/173 148/232/173
f 147/233/174 146/234/174 148/232/174
f 149/216/175 144/235/175 145/236/175
f 149/216/176 145/236/176 141/214/176
f 145/236/177 143/237/177 141/214/177
f 140/230/178 148/232/178 136/228/178
f 148/232/179 149/216/179 136/228/179
f 139/238/180 136/228/180 138/239/180
f 137/215/181 138/239/181 149/216/181
f 149/216/182 138/239/182 136/228/182
f 165/240/183 151/241/183 150/242/183
f 167/243/184 153/244/184 168/245/184
f 169/246/185 151/241/185 166/247/185
f 169/246/186 153/244/186 154/248/186
f 170/249/187 150/242/187 155/250/187
f 171/251/188 152/252/188 167/243/188
f 172/253/189 155/250/189 157/254/189
f 173/255/190 156/256/190 171/251/190
f 174/257/191 160/258/191 175/259/191
f 176/260/192 162/261/192 161/262/192
f 176/263/193 163/264/193 178/265/193
f 174/266/194 164/267/194 159/268/194
f 178/265/195 164/267/195 179/269/195
f 173/255/196 160/258/196 158/270/196
f 177/271/197 157/254/197 162/261/197
f 128/174/198 156/196/198 158/272/198
f 130/183/199 159/273/199 129/176/199
f 132/180/200 161/274/200 162/275/200
f 131/184/201 163/276/201 161/277/201
f 129/278/202 164/279/202 134/170/202
f 133/171/203 164/279/203 163/276/203
f 130/183/204 158/272/204 160/280/204
f 120/182/205 151/204/205 121/177/205
f 135/192/206 166/188/206 165/193/206
f 184/281/207 183/282/207 185/283/207
f 184/281/208 182/284/208 180/285/208
f 180/285/209 187/286/209 186/287/209
f 186/287/210 189/288/210 188/289/210
f 181/290/211 191/291/211 183/282/211
f 190/292/212 193/293/212 191/291/212
f 32/1/213 28/94/213 1/2/213
f 1/2/214 20/6/214 31/4/214
f 19/5/215 18/12/215 31/4/215
f 27/7/216 28/94/216 32/1/216
f 4/3/217 31/4/217 29/9/217
f 30/11/218 32/1/218 4/3/218
f 29/9/219 31/4/219 18/12/219
f 26/8/220 32/1/220 30/11/220
f 2/15/221 3/19/221 29/16/221
f 33/18/222 30/20/222 3/19/222
f 5/39/223 46/56/223 33/18/223
f 5/39/224 2/15/224 34/17/224
f 57/41/225 49/44/225 40/37/225
f 40/37/226 49/44/226 56/42/226
f 55/43/227 56/42/227 49/44/227
f 49/44/228 57/41/228 58/46/228
f 54/47/229 53/70/229 48/48/229
f 52/50/230 51/51/230 47/49/230
f 39/38/231 47/49/231 51/51/231
f 54/47/232 47/49/232 39/38/232
f 5/39/233 45/40/233 60/52/233
f 59/54/234 46/56/234 5/39/234
f 63/57/235 46/56/235 59/54/235
f 60/52/236 45/40/236 64/55/236
f 70/64/237 60/52/237 61/59/237
f 69/66/238 68/114/238 62/58/238
f 6/53/239 60/52/239 70/64/239
f 69/66/240 59/54/240 6/53/240
f 72/68/241 67/65/241 61/59/241
f 62/58/242 68/114/242 71/69/242
f 55/43/243 72/113/243 65/60/243
f 53/70/244 54/47/244 66/62/244
f 51/51/245 52/50/245 74/72/245
f 58/46/246 57/41/246 75/74/246
f 78/77/247 80/80/247 79/78/247
f 80/80/248 78/77/248 25/81/248
f 17/83/249 77/79/249 79/78/249
f 1/2/250 83/92/250 85/90/250
f 1/2/251 28/94/251 87/91/251
f 19/5/252 20/6/252 85/90/252
f 27/7/253 86/294/253 87/91/253
f 25/14/254 86/294/254 27/7/254
f 19/5/255 84/93/255 17/13/255
f 24/87/256 73/89/256 74/105/256
f 15/107/257 76/128/257 75/88/257
f 89/108/258 15/134/258 16/84/258
f 90/109/259 80/80/259 24/82/259
f 90/109/260 89/108/260 79/78/260
f 76/75/261 102/148/261 94/111/261
f 55/43/262 93/136/262 100/112/262
f 68/114/263 69/66/263 97/115/263
f 53/70/264 71/71/264 99/117/264
f 7/67/265 70/64/265 98/119/265
f 58/46/266 94/111/266 8/121/266
f 89/108/267 90/109/267 104/122/267
f 7/67/268 22/120/268 97/115/268
f 48/48/269 9/127/269 91/124/269
f 23/106/270 74/105/270 101/125/270
f 53/70/271 92/118/271 9/127/271
f 76/128/272 15/107/272 14/129/272
f 52/50/273 91/124/273 101/131/273
f 67/65/274 72/68/274 100/132/274
f 15/134/275 89/108/275 103/123/275
f 50/45/276 8/121/276 93/136/276
f 68/114/277 96/116/277 99/137/277
f 23/110/278 10/159/278 104/122/278
f 67/65/279 95/133/279 98/119/279
f 92/118/280 99/117/280 114/138/280
f 22/120/281 98/119/281 113/140/281
f 96/116/282 97/115/282 112/142/282
f 101/131/283 91/124/283 106/144/283
f 8/121/284 94/111/284 109/146/284
f 102/148/285 117/295/285 109/146/285
f 95/133/286 110/155/286 113/140/286
f 8/121/287 21/147/287 108/149/287
f 101/125/288 116/175/288 12/150/288
f 92/118/289 107/139/289 13/151/289
f 102/130/290 14/129/290 11/152/290
f 9/127/291 13/151/291 106/144/291
f 95/133/292 100/132/292 115/154/292
f 14/135/293 103/123/293 118/156/293
f 96/116/294 111/143/294 114/158/294
f 10/159/295 12/187/295 119/160/295
f 93/136/296 108/149/296 115/161/296
f 22/120/297 105/141/297 112/142/297
f 103/123/298 104/122/298 119/160/298
f 116/162/299 106/296/299 13/163/299
f 117/165/300 108/297/300 21/166/300
f 111/143/301 112/142/301 123/168/301
f 118/156/302 119/160/302 134/170/302
f 107/172/303 114/158/303 126/173/303
f 116/175/304 130/183/304 129/176/304
f 105/141/305 113/140/305 121/177/305
f 117/153/306 11/152/306 131/179/306
f 110/155/307 115/154/307 125/181/307
f 116/175/308 107/172/308 128/174/308
f 11/157/309 118/156/309 133/171/309
f 105/141/310 124/178/310 123/168/310
f 111/143/311 122/169/311 126/173/311
f 117/153/312 132/180/312 127/185/312
f 12/187/313 129/278/313 134/170/313
f 110/155/314 120/182/314 121/177/314
f 108/186/315 127/185/315 125/181/315
f 166/188/316 136/298/316 139/189/316
f 170/191/317 140/223/317 135/192/317
f 127/185/318 157/213/318 155/194/318
f 139/189/319 138/199/319 168/195/319
f 122/169/320 152/209/320 156/196/320
f 125/181/321 155/194/321 150/197/321
f 137/198/322 167/299/322 168/195/322
f 124/178/323 154/205/323 153/200/323
f 147/201/324 142/222/324 172/202/324
f 124/178/325 121/177/325 151/204/325
f 143/206/326 145/225/326 175/207/326
f 122/169/327 123/168/327 153/200/327
f 179/210/328 149/300/328 148/211/328
f 132/180/329 162/275/329 157/213/329
f 146/217/330 176/301/330 178/212/330
f 144/218/331 149/300/331 179/210/331
f 171/220/332 167/299/332 137/198/332
f 170/191/333 172/202/333 142/222/333
f 171/220/334 141/221/334 143/206/334
f 174/224/335 175/207/335 145/225/335
f 176/227/336 146/302/336 147/201/336
f 165/240/337 166/247/337 151/241/337
f 167/243/338 152/252/338 153/244/338
f 169/246/339 154/248/339 151/241/339
f 169/246/340 168/245/340 153/244/340
f 170/249/341 165/240/341 150/242/341
f 171/251/342 156/256/342 152/252/342
f 172/253/343 170/249/343 155/250/343
f 173/255/344 158/270/344 156/256/344
f 174/257/345 159/303/345 160/258/345
f 176/260/346 177/271/346 162/261/346
f 176/263/347 161/304/347 163/264/347
f 174/266/348 179/269/348 164/267/348
f 178/265/349 163/264/349 164/267/349
f 173/255/350 175/259/350 160/258/350
f 177/271/351 172/253/351 157/254/351
f 128/174/352 126/173/352 156/196/352
f 130/183/353 160/280/353 159/273/353
f 132/180/354 131/179/354 161/274/354
f 131/184/355 133/171/355 163/276/355
f 129/278/356 159/305/356 164/279/356
f 133/171/357 134/170/357 164/279/357
f 130/183/358 128/174/358 158/272/358
f 120/182/359 150/197/359 151/204/359
f 135/192/360 136/298/360 166/188/360
f 184/281/207 181/290/207 183/282/207
f 184/281/208 185/283/208 182/284/208
f 180/285/361 182/284/361 187/286/361
f 186/287/362 187/286/362 189/288/362
f 181/290/363 190/292/363 191/291/363
f 190/292/364 192/306/364 193/293/364
