# Blender 5.1.1
# www.blender.org
mtllib Pot.mtl
o Pot
v 0.000000 -0.000000 -0.176000
v -0.124451 -0.000000 -0.124451
v 0.000000 0.000000 0.176000
v 0.124451 0.000000 0.124451
v -0.111581 0.207223 -0.111581
v 0.000000 0.207223 -0.157799
v -0.157799 0.207223 -0.000000
v -0.111581 0.207223 0.111581
v 0.000000 0.207223 0.157799
v 0.111581 0.207223 0.111581
v 0.157799 0.207223 -0.000000
v 0.111581 0.207223 -0.111581
v -0.124451 0.207223 -0.124451
v 0.000000 0.207223 -0.176000
v 0.000000 0.207223 0.176000
v 0.124451 0.207223 0.124451
v -0.111581 0.016468 -0.111581
v 0.000000 0.016468 -0.157799
v -0.157799 0.016468 -0.000000
v -0.111581 0.016468 0.111581
v 0.000000 0.016468 0.157799
v 0.111581 0.016468 0.111581
v 0.157799 0.016468 -0.000000
v 0.111581 0.016468 -0.111581
v -0.124451 0.000000 0.124451
v -0.176000 0.000000 0.000000
v 0.124451 -0.000000 -0.124451
v 0.176000 0.000000 0.000000
v -0.124451 0.207223 0.124451
v -0.176000 0.207223 -0.000000
v 0.124451 0.207223 -0.124451
v 0.176000 0.207223 -0.000000
v -0.164611 0.155893 0.015923
v -0.127709 0.155893 0.105012
v 0.164611 0.155893 -0.015923
v 0.127709 0.155893 -0.105012
v -0.164611 0.181760 0.015923
v -0.127709 0.181760 0.105012
v 0.164611 0.181760 -0.015923
v 0.127709 0.181760 -0.105012
v -0.162274 0.155893 0.119403
v -0.183190 0.155893 0.110740
v -0.207840 0.155893 0.051230
v -0.199176 0.155893 0.030314
v 0.162274 0.155893 -0.119403
v 0.183190 0.155893 -0.110740
v 0.207840 0.155893 -0.051230
v 0.199176 0.155893 -0.030314
v -0.183190 0.181760 0.110740
v -0.162274 0.181760 0.119403
v -0.199176 0.181760 0.030314
v -0.207840 0.181760 0.051230
v 0.183190 0.181760 -0.110740
v 0.162274 0.181760 -0.119403
v 0.199176 0.181760 -0.030314
v 0.207840 0.181760 -0.051230
v 0.158453 0.181760 -0.030789
v 0.193048 0.181760 -0.045108
v 0.133813 0.181760 -0.090274
v 0.168402 0.181760 -0.104610
v -0.168402 0.181760 0.104609
v -0.133816 0.181760 0.090269
v -0.193052 0.181760 0.045100
v -0.158464 0.181760 0.030763
v -0.133804 0.155893 0.090296
v -0.168399 0.155893 0.104617
v -0.158468 0.155893 0.030752
v -0.193053 0.155893 0.045097
v 0.168399 0.155893 -0.104616
v 0.133805 0.155893 -0.090294
v 0.193049 0.155893 -0.045106
v 0.158455 0.155893 -0.030783
vn -0.0000 -1.0000 -0.0000
vn -0.3827 -0.0000 0.9239
vn 0.3827 -0.0000 -0.9239
vn 0.9239 -0.0000 0.3827
vn -0.9239 -0.0000 -0.3827
vn 0.3827 -0.0000 0.9239
vn -0.3827 -0.0000 -0.9239
vn -0.0000 1.0000 -0.0000
vn -0.9239 -0.0000 0.3827
vn 0.9239 -0.0000 -0.3827
vn 0.3844 -0.0000 0.9232
vn -0.3844 -0.0000 -0.9232
vt 0.312500 0.062500
vt 0.062500 0.062500
vt 0.062500 0.312500
vt 1.000000 1.000000
vt 0.875000 0.812500
vt 0.875000 1.000000
vt 1.000000 0.562500
vt 0.875000 0.750000
vt 0.875000 0.562500
vt 0.750000 0.562500
vt 0.625000 0.750000
vt 0.625000 0.562500
vt 0.500000 0.562500
vt 0.375000 0.750000
vt 0.375000 0.562500
vt 0.250000 0.562500
vt 0.125000 0.750000
vt 0.125000 0.562500
vt 0.500000 0.750000
vt -0.000000 0.750000
vt -0.000000 0.562500
vt -0.000000 0.812500
vt 0.125000 0.812500
vt 0.250000 0.750000
vt 0.250000 0.812500
vt 0.375000 0.812500
vt 0.500000 0.812500
vt 0.625000 0.812500
vt 0.750000 0.750000
vt 0.750000 0.812500
vt 1.000000 0.750000
vt 1.000000 0.812500
vt 0.687500 0.062500
vt 0.937500 0.062500
vt 0.937500 0.312500
vt 0.750000 1.000000
vt 0.625000 1.000000
vt 0.500000 1.000000
vt 0.375000 1.000000
vt 0.250000 1.000000
vt 0.125000 1.000000
vt -0.000000 1.000000
vt 0.562500 0.500000
vt 0.562500 0.562500
vt 0.500000 0.312500
vt 0.562500 0.375000
vt 0.500000 0.375000
vt 0.500000 0.500000
vt 0.437500 0.312500
vt 0.437500 0.375000
vt 0.375000 0.500000
vt 0.437500 0.500000
vt 0.562500 0.312500
vt 0.625000 0.500000
vt 0.625000 0.375000
vt 0.437500 0.562500
vt 0.625000 0.312500
vt 0.375000 0.312500
vt 0.375000 0.375000
vt 0.187500 0.375000
vt 0.312500 0.312500
vt 0.375000 0.187500
vt 0.187500 0.000000
vt 0.000000 0.187500
vt 0.812500 0.375000
vt 0.687500 0.312500
vt 0.625000 0.187500
vt 0.812500 -0.000000
vt 1.000000 0.187500
s 1
usemtl Pot
f 4/1/1 25/2/1 2/3/1
f 6/4/2 24/5/2 12/6/2
f 1/7/3 31/8/3 27/9/3
f 28/10/4 16/11/4 4/12/4
f 3/13/2 29/14/2 25/15/2
f 26/16/5 13/17/5 2/18/5
f 4/12/6 15/19/6 3/13/6
f 2/18/7 14/20/7 1/21/7
f 6/22/8 13/17/8 5/23/8
f 5/23/8 30/24/8 7/25/8
f 7/25/8 29/14/8 8/26/8
f 8/26/8 15/19/8 9/27/8
f 9/27/8 16/11/8 10/28/8
f 10/28/8 32/29/8 11/30/8
f 11/30/8 31/8/8 12/5/8
f 12/5/8 14/31/8 6/32/8
f 20/33/8 22/34/8 24/35/8
f 11/36/5 22/28/5 10/37/5
f 9/38/3 20/26/3 8/39/3
f 7/40/4 17/23/4 5/41/4
f 12/6/9 23/30/9 11/36/9
f 10/37/7 21/27/7 9/38/7
f 8/39/10 19/25/10 7/40/10
f 5/41/6 18/22/6 6/42/6
f 25/15/9 30/24/9 26/16/9
f 27/9/10 32/29/10 28/10/10
f 40/13/8 60/43/8 54/44/8
f 35/45/11 55/46/11 39/47/11
f 40/13/12 45/43/12 36/48/12
f 38/47/11 41/49/11 34/45/11
f 42/50/9 52/51/9 43/52/9
f 72/47/1 48/53/1 35/45/1
f 38/45/8 61/50/8 50/49/8
f 46/54/10 56/46/10 47/55/10
f 33/48/12 51/56/12 37/13/12
f 46/54/3 54/44/3 53/12/3
f 47/57/4 55/46/4 48/53/4
f 42/58/2 50/50/2 49/59/2
f 43/51/5 51/56/5 44/52/5
f 67/48/1 44/56/1 33/13/1
f 50/49/8 61/50/8 49/59/8
f 44/56/1 68/52/1 43/51/1
f 54/44/8 60/43/8 53/54/8
f 48/53/1 71/46/1 47/55/1
f 57/47/8 55/53/8 58/46/8
f 56/55/8 58/46/8 55/53/8
f 60/43/8 57/47/8 58/46/8
f 53/54/8 58/46/8 56/55/8
f 61/50/8 52/51/8 49/59/8
f 62/47/8 63/52/8 61/50/8
f 52/51/8 63/52/8 51/56/8
f 64/48/8 51/56/8 63/52/8
f 42/59/1 66/50/1 41/49/1
f 66/50/1 34/45/1 41/49/1
f 43/51/1 66/50/1 42/59/1
f 68/52/1 65/47/1 66/50/1
f 69/43/1 36/13/1 45/44/1
f 46/54/1 69/43/1 45/44/1
f 72/47/1 69/43/1 71/46/1
f 71/46/1 46/54/1 47/55/1
f 2/3/1 1/60/1 27/61/1
f 27/61/1 28/62/1 4/1/1
f 4/1/1 3/63/1 25/2/1
f 25/2/1 26/64/1 2/3/1
f 2/3/1 27/61/1 4/1/1
f 6/4/2 18/32/2 24/5/2
f 1/7/3 14/31/3 31/8/3
f 28/10/4 32/29/4 16/11/4
f 3/13/2 15/19/2 29/14/2
f 26/16/5 30/24/5 13/17/5
f 4/12/6 16/11/6 15/19/6
f 2/18/7 13/17/7 14/20/7
f 6/22/8 14/20/8 13/17/8
f 5/23/8 13/17/8 30/24/8
f 7/25/8 30/24/8 29/14/8
f 8/26/8 29/14/8 15/19/8
f 9/27/8 15/19/8 16/11/8
f 10/28/8 16/11/8 32/29/8
f 11/30/8 32/29/8 31/8/8
f 12/5/8 31/8/8 14/31/8
f 24/35/8 18/65/8 17/66/8
f 17/66/8 19/67/8 20/33/8
f 20/33/8 21/68/8 22/34/8
f 22/34/8 23/69/8 24/35/8
f 24/35/8 17/66/8 20/33/8
f 11/36/5 23/30/5 22/28/5
f 9/38/3 21/27/3 20/26/3
f 7/40/4 19/25/4 17/23/4
f 12/6/9 24/5/9 23/30/9
f 10/37/7 22/28/7 21/27/7
f 8/39/10 20/26/10 19/25/10
f 5/41/6 17/23/6 18/22/6
f 25/15/9 29/14/9 30/24/9
f 27/9/10 31/8/10 32/29/10
f 40/13/8 59/48/8 60/43/8
f 35/45/11 48/53/11 55/46/11
f 40/13/12 54/44/12 45/43/12
f 38/47/11 50/50/11 41/49/11
f 42/50/9 49/59/9 52/51/9
f 72/47/1 71/46/1 48/53/1
f 38/45/8 62/47/8 61/50/8
f 46/54/10 53/43/10 56/46/10
f 33/48/12 44/52/12 51/56/12
f 46/54/3 45/43/3 54/44/3
f 47/57/4 56/55/4 55/46/4
f 42/58/2 41/49/2 50/50/2
f 43/51/5 52/15/5 51/56/5
f 67/48/1 68/52/1 44/56/1
f 57/47/8 39/45/8 55/53/8
f 60/43/8 59/48/8 57/47/8
f 53/54/8 60/43/8 58/46/8
f 61/50/8 63/52/8 52/51/8
f 62/47/8 64/48/8 63/52/8
f 64/48/8 37/13/8 51/56/8
f 66/50/1 65/47/1 34/45/1
f 43/51/1 68/52/1 66/50/1
f 68/52/1 67/48/1 65/47/1
f 69/43/1 70/48/1 36/13/1
f 72/47/1 70/48/1 69/43/1
f 71/46/1 69/43/1 46/54/1
