# Blender 5.1.1
# www.blender.org
mtllib Flashlight.mtl
o Flashlight
v 0.000000 0.005065 0.075299
v 0.000000 0.003546 -0.074705
v 0.009990 0.009201 0.075205
v 0.008667 0.007135 -0.074786
v 0.014127 0.019188 0.074979
v 0.012256 0.015799 -0.074982
v 0.009990 0.029175 0.074754
v 0.008667 0.024464 -0.075178
v 0.000000 0.033312 0.074660
v 0.000000 0.028052 -0.075259
v -0.009990 0.029175 0.074754
v -0.008667 0.024464 -0.075178
v -0.014127 0.019188 0.074979
v -0.012256 0.015799 -0.074982
v -0.009990 0.009201 0.075205
v -0.008667 0.007135 -0.074786
v 0.000000 0.003345 0.037828
v -0.010859 0.005170 -0.064704
v 0.000000 0.001061 -0.063225
v 0.010607 0.005453 -0.063324
v -0.015357 0.016026 -0.064950
v 0.010607 0.007737 0.037729
v 0.015000 0.016057 -0.063564
v -0.010859 0.026882 -0.065195
v 0.015000 0.018341 0.037489
v 0.010607 0.026661 -0.063803
v 0.000000 0.031379 -0.065297
v 0.010607 0.028945 0.037249
v 0.000000 0.031054 -0.063902
v 0.010859 0.026882 -0.065195
v 0.000000 0.033337 0.037150
v -0.010607 0.026661 -0.063803
v 0.015357 0.016026 -0.064950
v -0.010607 0.028945 0.037249
v -0.015000 0.016057 -0.063564
v 0.010859 0.005170 -0.064704
v -0.015000 0.018341 0.037489
v -0.010607 0.005453 -0.063324
v 0.000000 0.000673 -0.064603
v -0.010607 0.007737 0.037729
v 0.012728 0.005678 0.040520
v 0.018000 0.018403 0.040232
v 0.012728 0.031128 0.039945
v 0.000000 0.036399 0.039825
v -0.012728 0.031128 0.039945
v -0.018000 0.018403 0.040232
v -0.012728 0.005678 0.040520
v 0.000000 0.000408 0.040639
v 0.000000 0.001193 0.075386
v 0.012728 0.006464 0.075267
v 0.018000 0.019188 0.074979
v 0.012728 0.031913 0.074692
v 0.000000 0.037184 0.074573
v -0.012728 0.031913 0.074692
v -0.018000 0.019188 0.074979
v -0.012728 0.006464 0.075267
v 0.000000 0.004967 0.070983
v 0.009990 0.009104 0.070890
v 0.014127 0.019091 0.070664
v 0.009990 0.029078 0.070438
v 0.000000 0.033215 0.070345
v -0.009990 0.029078 0.070438
v -0.014127 0.019091 0.070664
v -0.009990 0.009104 0.070890
v 0.010859 0.004943 -0.074737
v 0.000000 0.000446 -0.074635
v 0.015357 0.015799 -0.074982
v 0.010859 0.026655 -0.075228
v 0.000000 0.031152 -0.075329
v -0.010859 0.026655 -0.075228
v -0.015357 0.015799 -0.074982
v -0.010859 0.004943 -0.074737
v 0.008667 0.007092 -0.076668
v 0.000000 0.003504 -0.076587
v 0.012256 0.015757 -0.076864
v 0.008667 0.024421 -0.077060
v 0.000000 0.028010 -0.077141
v -0.008667 0.024421 -0.077060
v -0.012256 0.015757 -0.076864
v -0.008667 0.007092 -0.076668
vn 0.3827 -0.9236 0.0209
vn 0.9239 -0.3826 0.0086
vn 0.9239 0.3826 -0.0086
vn 0.3827 0.9236 -0.0209
vn -0.3827 0.9236 -0.0209
vn -0.9239 0.3826 -0.0086
vn -0.9239 -0.3826 0.0086
vn -0.3827 -0.9236 0.0209
vn -0.2692 -0.6659 -0.6958
vn -0.6500 -0.2852 -0.7044
vn 0.3723 -0.8933 0.2517
vn -0.6500 0.2531 -0.7166
vn 0.8988 -0.3670 0.2398
vn -0.2692 0.6338 -0.7252
vn 0.8988 0.3774 0.2229
vn 0.2692 0.6338 -0.7252
vn 0.3723 0.9038 0.2110
vn 0.6500 0.2531 -0.7166
vn -0.3723 0.9038 0.2110
vn 0.6500 -0.2852 -0.7044
vn -0.8988 0.3774 0.2229
vn 0.2692 -0.6659 -0.6958
vn -0.3723 -0.8933 0.2517
vn -0.8988 -0.3670 0.2398
vn -0.0000 0.0226 0.9997
vn -0.0000 -0.0226 -0.9997
vt 0.789725 0.586551
vt 0.852325 0.513232
vt 0.852325 0.586551
vt 0.789725 0.439913
vt 0.852325 0.439913
vt 0.852325 0.366594
vt 0.789725 0.366594
vt 0.852325 0.293275
vt 0.789725 0.219956
vt 0.852325 0.219956
vt 0.852325 0.146638
vt 0.879252 0.648907
vt 0.890993 0.707422
vt 0.879252 0.707422
vt 0.789725 0.146638
vt 0.852325 0.073319
vt 0.789725 0.000000
vt 0.852325 0.000000
vt 0.879252 0.472143
vt 0.852326 0.404694
vt 0.879252 0.404694
vt 0.298520 0.655610
vt 0.216807 0.666592
vt 0.294808 0.630522
vt 0.288422 0.630522
vt 0.360036 0.000000
vt 0.360036 0.630522
vt 0.379912 0.642464
vt 0.431651 0.000000
vt 0.431651 0.630522
vt 0.885697 0.000000
vt 0.923662 0.062363
vt 0.879252 0.006181
vt 0.423658 0.712349
vt 0.444974 0.698609
vt 0.503266 0.000000
vt 0.503266 0.630522
vt 0.931164 0.057519
vt 0.956592 0.125958
vt 0.469241 0.781049
vt 0.574881 0.000000
vt 0.574881 0.630522
vt 0.964877 0.122627
vt 0.976842 0.194650
vt 0.423658 0.849749
vt 0.444974 0.863489
vt 0.646496 0.000000
vt 0.646496 0.630522
vt 0.985609 0.192954
vt 0.983675 0.265938
vt 0.379912 0.919634
vt 0.718110 0.630522
vt 0.718110 -0.000000
vt 0.985609 0.338922
vt 0.976842 0.337226
vt 0.298520 0.906489
vt 0.294808 0.931576
vt 0.789725 0.630522
vt 0.789725 0.000000
vt 0.956592 0.405918
vt 0.233518 0.876430
vt 0.216807 0.895506
vt 0.931164 0.474357
vt 0.879252 0.525695
vt 0.923662 0.469513
vt 0.964877 0.409249
vt 0.216807 0.687502
vt 0.000000 0.601564
vt 0.216807 0.601564
vt 0.216807 0.515626
vt 0.000000 0.515627
vt 0.216807 0.429689
vt 0.000000 0.429689
vt 0.216807 0.343751
vt 0.000000 0.343751
vt 0.216807 0.257813
vt 0.000000 0.171876
vt 0.216807 0.171875
vt 0.216807 0.085938
vt 0.000000 0.085938
vt 0.216807 0.000000
vt 0.491559 0.700533
vt 0.530009 0.630522
vt 0.539253 0.652839
vt 0.615946 0.630522
vt 0.606702 0.652839
vt 0.676713 0.691289
vt 0.654396 0.700533
vt 0.676713 0.777227
vt 0.654396 0.767982
vt 0.606702 0.815676
vt 0.615946 0.837994
vt 0.539253 0.815676
vt 0.530009 0.837994
vt 0.469241 0.777227
vt 0.491559 0.767982
vt 0.469241 0.691289
vt 0.491559 0.700533
vt 0.541421 0.400000
vt 0.600000 0.541421
vt 0.458579 0.600000
vt 0.879251 0.337245
vt 0.852325 0.269796
vt 0.879251 0.269796
vt 0.879251 0.202347
vt 0.852325 0.134898
vt 0.879251 0.134898
vt 0.879251 -0.000000
vt 0.852325 0.067449
vt 0.852325 -0.000000
vt 0.879251 0.539593
vt 0.852325 0.472143
vt 0.852326 0.337245
vt 0.852325 0.202347
vt 0.879251 0.067449
vt 0.216807 0.000000
vt 0.288422 0.000000
vt 0.835852 0.748283
vt 0.853721 0.682366
vt 0.853721 0.755685
vt 0.794475 0.648391
vt 0.835852 0.689768
vt 0.735959 0.648391
vt 0.801876 0.630522
vt 0.694583 0.689768
vt 0.728558 0.630522
vt 0.694583 0.748283
vt 0.676713 0.682366
vt 0.735959 0.789660
vt 0.676713 0.755685
vt 0.794475 0.789660
vt 0.728558 0.807529
vt 0.853721 0.755685
vt 0.801876 0.807529
vt 0.041377 0.828771
vt -0.000000 0.728879
vt 0.099892 0.687502
vt 0.879252 0.531876
vt 0.890993 0.590391
vt 0.879252 0.590391
vt 0.879252 1.000000
vt 0.890993 0.941484
vt 0.890993 1.000000
vt 0.879252 0.824453
vt 0.890993 0.882969
vt 0.879252 0.882969
vt 0.890993 0.765938
vt 0.879252 0.765938
vt 0.890993 0.648907
vt 0.879252 0.941484
vt 0.890993 0.824453
vt 0.789725 0.513232
vt 0.789725 0.293275
vt 0.789725 0.073319
vt 0.233518 0.685668
vt 0.369440 0.665561
vt 0.443880 0.781049
vt 0.992604 0.265938
vt 0.369440 0.896537
vt 0.885697 0.531876
vt 0.000000 0.687502
vt 0.000000 0.257813
vt -0.000000 0.000000
vt 0.469241 0.691289
vt 0.400000 0.541421
vt 0.400000 0.458579
vt 0.458579 0.400000
vt 0.600000 0.458579
vt 0.541421 0.600000
vt 0.852326 0.539593
vt 0.216807 0.630522
vt 0.835852 0.748283
vt 0.141269 0.728879
vt 0.141269 0.787394
vt 0.099892 0.828771
vt -0.000000 0.787394
vt 0.041377 0.687502
vt 0.890993 0.531876
s 0
usemtl 32x32grid
f 66/1/1 36/2/1 39/3/1
f 36/2/2 67/4/2 33/5/2
f 67/4/3 30/6/3 33/5/3
f 68/7/4 27/8/4 30/6/4
f 27/8/5 70/9/5 24/10/5
f 70/9/6 21/11/6 24/10/6
f 6/12/3 76/13/3 8/14/3
f 71/15/7 18/16/7 21/11/7
f 18/16/8 66/17/8 39/18/8
f 15/19/3 63/20/3 13/21/3
f 40/22/9 48/23/9 47/24/9
f 38/25/7 37/26/7 35/27/7
f 46/28/10 40/22/10 47/24/10
f 35/27/6 34/29/6 32/30/6
f 39/31/11 20/32/11 19/33/11
f 34/34/12 46/28/12 45/35/12
f 32/30/5 31/36/5 29/37/5
f 36/38/13 23/39/13 20/32/13
f 44/40/14 34/34/14 45/35/14
f 29/37/4 28/41/4 26/42/4
f 33/43/15 26/44/15 23/39/15
f 28/45/16 44/40/16 43/46/16
f 26/42/3 25/47/3 23/48/3
f 30/49/17 29/50/17 26/44/17
f 42/51/18 28/45/18 43/46/18
f 20/52/2 25/47/2 22/53/2
f 29/50/19 24/54/19 32/55/19
f 22/56/20 42/51/20 41/57/20
f 19/58/1 22/53/1 17/59/1
f 24/54/21 35/60/21 32/55/21
f 17/61/22 41/57/22 48/62/22
f 18/63/23 19/64/23 38/65/23
f 21/66/24 38/65/24 35/60/24
f 49/67/1 41/68/1 50/69/1
f 41/68/2 51/70/2 50/69/2
f 42/71/3 52/72/3 51/70/3
f 43/73/4 53/74/4 52/72/4
f 44/75/5 54/76/5 53/74/5
f 54/76/6 46/77/6 55/78/6
f 46/77/7 56/79/7 55/78/7
f 47/80/8 49/81/8 56/79/8
f 1/82/25 50/83/25 3/84/25
f 3/84/25 51/85/25 5/86/25
f 5/86/25 52/87/25 7/88/25
f 7/88/25 53/89/25 9/90/25
f 11/91/25 53/89/25 54/92/25
f 13/93/25 54/92/25 55/94/25
f 13/93/25 56/95/25 15/96/25
f 15/96/25 49/97/25 1/98/25
f 11/102/1 61/103/1 9/104/1
f 7/105/7 59/106/7 5/107/7
f 1/108/5 58/109/5 57/110/5
f 1/111/4 64/112/4 15/19/4
f 11/102/2 63/20/2 62/113/2
f 9/104/8 60/114/8 7/105/8
f 3/115/6 59/106/6 58/109/6
f 38/25/8 17/116/8 40/117/8
f 2/118/26 65/119/26 66/120/26
f 6/121/26 65/119/26 4/122/26
f 8/123/26 67/124/26 6/121/26
f 10/125/26 68/126/26 8/123/26
f 12/127/26 69/128/26 10/125/26
f 14/129/26 70/130/26 12/127/26
f 16/131/26 71/132/26 14/129/26
f 16/131/26 66/133/26 72/134/26
f 79/135/26 77/136/26 75/137/26
f 2/138/1 73/139/1 4/140/1
f 2/141/8 80/142/8 74/143/8
f 12/144/6 79/145/6 14/146/6
f 8/14/4 77/147/4 10/148/4
f 4/140/2 75/149/2 6/12/2
f 14/146/7 80/142/7 16/150/7
f 12/144/5 77/147/5 78/151/5
f 66/1/1 65/152/1 36/2/1
f 36/2/2 65/152/2 67/4/2
f 67/4/3 68/7/3 30/6/3
f 68/7/4 69/153/4 27/8/4
f 27/8/5 69/153/5 70/9/5
f 70/9/6 71/15/6 21/11/6
f 6/12/3 75/149/3 76/13/3
f 71/15/7 72/154/7 18/16/7
f 18/16/8 72/154/8 66/17/8
f 15/19/3 64/112/3 63/20/3
f 40/22/9 17/155/9 48/23/9
f 38/25/7 40/117/7 37/26/7
f 46/28/10 37/156/10 40/22/10
f 35/27/6 37/26/6 34/29/6
f 39/31/11 36/38/11 20/32/11
f 34/34/12 37/156/12 46/28/12
f 32/30/5 34/29/5 31/36/5
f 36/38/13 33/43/13 23/39/13
f 44/40/14 31/157/14 34/34/14
f 29/37/4 31/36/4 28/41/4
f 33/43/15 30/49/15 26/44/15
f 28/45/16 31/157/16 44/40/16
f 26/42/3 28/41/3 25/47/3
f 30/49/17 27/158/17 29/50/17
f 42/51/18 25/159/18 28/45/18
f 20/52/2 23/48/2 25/47/2
f 29/50/19 27/158/19 24/54/19
f 22/56/20 25/159/20 42/51/20
f 19/58/1 20/52/1 22/53/1
f 24/54/21 21/66/21 35/60/21
f 17/61/22 22/56/22 41/57/22
f 18/63/23 39/160/23 19/64/23
f 21/66/24 18/63/24 38/65/24
f 49/67/1 48/161/1 41/68/1
f 41/68/2 42/71/2 51/70/2
f 42/71/3 43/73/3 52/72/3
f 43/73/4 44/75/4 53/74/4
f 44/75/5 45/162/5 54/76/5
f 54/76/6 45/162/6 46/77/6
f 46/77/7 47/80/7 56/79/7
f 47/80/8 48/163/8 49/81/8
f 1/82/25 49/164/25 50/83/25
f 3/84/25 50/83/25 51/85/25
f 5/86/25 51/85/25 52/87/25
f 7/88/25 52/87/25 53/89/25
f 11/91/25 9/90/25 53/89/25
f 13/93/25 11/91/25 54/92/25
f 13/93/25 55/94/25 56/95/25
f 15/96/25 56/95/25 49/97/25
f 11/102/1 62/113/1 61/103/1
f 7/105/7 60/114/7 59/106/7
f 1/108/5 3/115/5 58/109/5
f 1/111/4 57/170/4 64/112/4
f 11/102/2 13/21/2 63/20/2
f 9/104/8 61/103/8 60/114/8
f 3/115/6 5/107/6 59/106/6
f 38/25/8 19/171/8 17/116/8
f 2/118/26 4/122/26 65/119/26
f 6/121/26 67/124/26 65/119/26
f 8/123/26 68/126/26 67/124/26
f 10/125/26 69/128/26 68/126/26
f 12/127/26 70/130/26 69/128/26
f 14/129/26 71/132/26 70/130/26
f 16/131/26 72/134/26 71/132/26
f 16/131/26 2/172/26 66/133/26
f 75/137/26 73/173/26 74/174/26
f 74/174/26 80/175/26 79/135/26
f 79/135/26 78/176/26 77/136/26
f 77/136/26 76/177/26 75/137/26
f 75/137/26 74/174/26 79/135/26
f 2/138/1 74/178/1 73/139/1
f 2/141/8 16/150/8 80/142/8
f 12/144/6 78/151/6 79/145/6
f 8/14/4 76/13/4 77/147/4
f 4/140/2 73/139/2 75/149/2
f 14/146/7 79/145/7 80/142/7
f 12/144/5 10/148/5 77/147/5
usemtl 32x32grid
f 60/99/25 62/100/25 64/101/25
f 64/101/25 57/165/25 58/166/25
f 58/166/25 59/167/25 60/99/25
f 60/99/25 61/168/25 62/100/25
f 62/100/25 63/169/25 64/101/25
f 64/101/25 58/166/25 60/99/25
