# Blender 5.1.1
# www.blender.org
mtllib CeilingLightLongOpen.mtl
o CeilingLightLongOpen
v -0.288000 0.000000 0.018000
v 0.288000 0.000000 0.018000
v -0.288000 -0.000000 -0.018000
v 0.288000 -0.000000 -0.018000
v -0.288000 -0.012000 0.018000
v 0.288000 -0.012000 0.018000
v -0.288000 -0.012000 -0.018000
v 0.288000 -0.012000 -0.018000
v 0.275700 -0.027000 -0.013200
v 0.275700 -0.036334 -0.009334
v 0.275700 -0.040200 0.000000
v 0.275700 -0.036334 0.009334
v 0.275700 -0.027000 0.013200
v 0.282300 -0.036334 -0.009334
v 0.282300 -0.027000 -0.013200
v 0.282300 -0.040200 0.000000
v 0.282300 -0.036334 0.009334
v 0.282300 -0.027000 0.013200
v -0.282300 -0.012000 0.013200
v -0.282300 -0.012000 -0.013200
v -0.275700 -0.027000 -0.013200
v -0.275700 -0.036334 -0.009334
v -0.275700 -0.040200 0.000000
v -0.275700 -0.036334 0.009334
v -0.275700 -0.027000 0.013200
v -0.275700 -0.012000 0.013200
v -0.275700 -0.012000 -0.013200
v 0.282300 -0.012000 0.013200
v -0.282300 -0.027000 -0.013200
v -0.282300 -0.036334 -0.009334
v -0.282300 -0.040200 0.000000
v -0.282300 -0.036334 0.009334
v -0.282300 -0.027000 0.013200
v 0.282300 -0.012000 -0.013200
v 0.275700 -0.012000 0.013200
v 0.275700 -0.012000 -0.013200
v -0.282300 -0.027000 0.000000
v 0.282300 -0.027000 0.000000
v -0.276000 -0.027000 -0.010800
v 0.276000 -0.027000 -0.010800
v -0.276000 -0.034637 -0.007637
v 0.276000 -0.034637 -0.007637
v -0.276000 -0.037800 0.000000
v 0.276000 -0.037800 0.000000
v -0.276000 -0.034637 0.007637
v 0.276000 -0.034637 0.007637
v -0.276000 -0.027000 0.010800
v 0.276000 -0.027000 0.010800
v -0.276000 -0.019363 0.007637
v 0.276000 -0.019363 0.007637
v -0.276000 -0.016200 0.000000
v 0.276000 -0.016200 0.000000
v -0.276000 -0.019363 -0.007637
v 0.276000 -0.019363 -0.007637
vn -0.0000 -1.0000 -0.0000
vn -1.0000 -0.0000 -0.0000
vn -0.0000 -0.0000 -1.0000
vn -0.0000 -0.0000 1.0000
vn 1.0000 -0.0000 -0.0000
vn -0.0000 -0.9239 -0.3827
vn -0.0000 -0.9239 0.3827
vn -0.0000 -0.3827 -0.9239
vn -0.0000 -0.3827 0.9239
vn -0.0000 -0.3826 -0.9239
vn -0.0000 -0.9239 -0.3826
vn -0.0000 -0.9239 0.3826
vn -0.0000 -0.3826 0.9239
vn -0.0000 0.3826 0.9239
vn -0.0000 0.9239 0.3826
vn -0.0000 0.9239 -0.3826
vn -0.0000 0.3826 -0.9239
vt 0.000000 1.000000
vt 1.000000 0.875000
vt 0.000000 0.875000
vt 0.562500 0.687500
vt 0.437500 0.750000
vt 0.562500 0.750000
vt 1.000000 0.937500
vt 1.000000 1.000000
vt -0.000000 0.937500
vt 0.437500 0.562500
vt 0.562500 0.625000
vt 0.437500 0.625000
vt 0.062500 0.625000
vt 0.187500 0.625000
vt 0.187500 0.687500
vt 0.937500 0.687500
vt 1.000000 0.750000
vt 1.000000 0.687500
vt 0.312500 0.687500
vt 0.375000 0.625000
vt 0.375000 0.687500
vt 0.812500 0.750000
vt 0.875000 0.687500
vt 0.812500 0.687500
vt 0.312500 0.601562
vt 0.250000 0.687500
vt 0.375000 0.750000
vt 0.250000 0.750000
vt 0.750000 0.750000
vt 0.750000 0.687500
vt 0.937500 0.750000
vt 0.125000 0.687500
vt 0.062500 0.687500
vt 0.687500 0.750000
vt 0.687500 0.687500
vt 0.062500 0.750000
vt 0.187500 0.750000
vt 0.937500 0.562500
vt 1.000000 0.625000
vt 1.000000 0.562500
vt 0.812500 0.562500
vt 0.750000 0.625000
vt 0.812500 0.625000
vt 0.937500 0.625000
vt 0.875000 0.562500
vt 0.875000 0.625000
vt 0.625000 0.687500
vt 0.625000 0.750000
vt 0.625000 0.562500
vt 0.687500 0.625000
vt 0.625000 0.625000
vt 0.750000 0.562500
vt 0.125000 0.601562
vt 0.250000 0.625000
vt 0.000000 0.500000
vt 1.000000 0.437500
vt 1.000000 0.500000
vt 0.000000 0.437500
vt 1.000000 0.375000
vt 0.000000 0.375000
vt 1.000000 0.312500
vt 0.000000 0.312500
vt 1.000000 0.250000
vt 0.437500 0.687500
vt 0.562500 0.562500
vt 0.875000 0.750000
vt 0.687500 0.562500
vt 0.000000 0.250000
s 0
usemtl 32x32grid
f 7/1/1 6/2/1 5/3/1
f 7/4/2 1/5/2 3/6/2
f 8/7/3 3/1/3 4/8/3
f 5/3/4 2/7/4 1/9/4
f 6/10/5 4/11/5 2/12/5
f 24/13/5 22/14/5 21/15/5
f 9/16/3 34/17/3 15/18/3
f 38/19/5 14/20/5 15/21/5
f 10/22/6 16/23/6 11/24/6
f 11/25/2 13/26/2 9/21/2
f 38/19/5 34/27/5 28/28/5
f 11/29/7 17/24/7 12/30/7
f 10/23/8 15/31/8 14/16/8
f 37/32/2 32/13/2 33/33/2
f 13/26/2 36/27/2 9/21/2
f 12/34/9 18/30/9 13/35/9
f 26/36/5 21/15/5 27/37/5
f 29/38/3 27/39/3 21/40/3
f 29/15/2 37/32/2 19/36/2
f 24/41/7 31/42/7 23/43/7
f 21/44/8 30/45/8 29/46/8
f 13/47/4 28/34/4 35/48/4
f 33/49/4 26/50/4 19/51/4
f 25/52/9 32/50/9 24/42/9
f 23/45/6 30/43/6 22/46/6
f 37/32/2 30/14/2 31/53/2
f 38/19/5 17/54/5 16/25/5
f 7/1/1 8/8/1 6/2/1
f 7/4/2 5/64/2 1/5/2
f 8/7/3 7/9/3 3/1/3
f 5/3/4 6/2/4 2/7/4
f 6/10/5 8/65/5 4/11/5
f 21/15/5 25/33/5 24/13/5
f 24/13/5 23/53/5 22/14/5
f 9/16/3 36/31/3 34/17/3
f 38/19/5 16/25/5 14/20/5
f 10/22/6 14/66/6 16/23/6
f 9/21/2 10/20/2 11/25/2
f 11/25/2 12/54/2 13/26/2
f 28/28/5 18/26/5 38/19/5
f 38/19/5 15/21/5 34/27/5
f 11/29/7 16/22/7 17/24/7
f 10/23/8 9/66/8 15/31/8
f 37/32/2 31/53/2 32/13/2
f 13/26/2 35/28/2 36/27/2
f 12/34/9 17/29/9 18/30/9
f 26/36/5 25/33/5 21/15/5
f 29/38/3 20/44/3 27/39/3
f 19/36/2 20/37/2 29/15/2
f 37/32/2 33/33/2 19/36/2
f 24/41/7 32/52/7 31/42/7
f 21/44/8 22/38/8 30/45/8
f 13/47/4 18/35/4 28/34/4
f 33/49/4 25/67/4 26/50/4
f 25/52/9 33/67/9 32/50/9
f 23/45/6 31/41/6 30/43/6
f 37/32/2 29/15/2 30/14/2
f 38/19/5 18/26/5 17/54/5
usemtl 32x32grid
f 40/55/10 41/56/10 39/57/10
f 42/58/11 43/59/11 41/56/11
f 44/60/12 45/61/12 43/59/12
f 46/62/13 47/63/13 45/61/13
f 48/55/14 49/56/14 47/57/14
f 50/58/15 51/59/15 49/56/15
f 52/60/16 53/61/16 51/59/16
f 54/62/17 39/63/17 53/61/17
f 40/55/10 42/58/10 41/56/10
f 42/58/11 44/60/11 43/59/11
f 44/60/12 46/62/12 45/61/12
f 46/62/13 48/68/13 47/63/13
f 48/55/14 50/58/14 49/56/14
f 50/58/15 52/60/15 51/59/15
f 52/60/16 54/62/16 53/61/16
f 54/62/17 40/68/17 39/63/17
