# Blender 5.0.1
# www.blender.org
mtllib SneakerR-col.mtl
o SneakerR-col
v -0.143912 0.000000 -0.047269
v -0.141902 0.076855 -0.047269
v -0.143912 0.000000 0.047269
v -0.141902 0.076855 0.047269
v 0.151150 0.000000 -0.052281
v 0.148963 0.044644 -0.052281
v 0.147941 0.000000 0.042396
v 0.145754 0.044644 0.042396
v -0.021538 0.106711 -0.049775
v -0.023142 0.106711 0.044833
v 0.003619 0.000000 -0.049775
v 0.002014 0.000000 0.044833
vn -0.0000 -1.0000 -0.0000
vn 0.3422 0.9396 0.0116
vn -0.2408 0.9706 -0.0041
vn -0.9997 0.0261 -0.0000
vn 0.9982 0.0489 0.0338
vn 0.0158 0.0037 0.9999
vn 0.0167 -0.0004 0.9999
vn -0.0170 -0.0008 -0.9999
vn -0.0197 -0.0046 -0.9998
vn 0.3450 0.9386 0.0059
vn -0.2438 0.9698 -0.0000
vn 0.0167 0.0008 0.9999
vn 0.0194 0.0046 0.9998
vn -0.0161 -0.0038 -0.9999
vn -0.0170 0.0004 -0.9999
vt 0.000000 0.000000
s 0
usemtl Sneaker
f 11/1/1 7/1/1 12/1/1
f 9/1/2 8/1/2 6/1/2
f 2/1/3 10/1/3 9/1/3
f 3/1/4 2/1/4 1/1/4
f 7/1/5 6/1/5 8/1/5
f 1/1/1 12/1/1 3/1/1
f 12/1/6 8/1/6 10/1/6
f 12/1/7 4/1/7 3/1/7
f 11/1/8 6/1/8 5/1/8
f 11/1/9 2/1/9 9/1/9
f 11/1/1 5/1/1 7/1/1
f 9/1/10 10/1/10 8/1/10
f 2/1/11 4/1/11 10/1/11
f 3/1/4 4/1/4 2/1/4
f 7/1/5 5/1/5 6/1/5
f 1/1/1 11/1/1 12/1/1
f 12/1/12 7/1/12 8/1/12
f 12/1/13 10/1/13 4/1/13
f 11/1/14 9/1/14 6/1/14
f 11/1/15 1/1/15 2/1/15
