# Blender 5.0.1
# www.blender.org
mtllib SneakerL.mtl
o SneakerL
v -0.116097 0.000000 0.047269
v -0.116097 0.076855 0.047269
v -0.116097 0.000000 -0.047269
v -0.116097 0.076855 -0.047269
v 0.133209 0.000000 0.052281
v 0.126653 0.044644 0.052281
v 0.130000 0.000000 -0.042396
v 0.123444 0.044644 -0.042396
v 0.076340 -0.002669 -0.055476
v 0.022331 0.000000 -0.050000
v -0.026925 0.004771 -0.047269
v -0.033543 0.100000 -0.047269
v 0.004572 0.066882 -0.050000
v 0.071584 0.049692 -0.055476
v -0.026925 0.004771 0.047269
v 0.022331 0.000000 0.050000
v 0.088344 -0.002669 0.055476
v 0.083588 0.049692 0.055476
v 0.004572 0.066882 0.050000
v -0.033543 0.100000 0.047269
v -0.144809 0.000293 -0.024376
v -0.144809 0.000293 0.024376
v -0.130844 0.087542 0.021386
v -0.130844 0.087542 -0.021386
v 0.153077 0.000293 0.028065
v 0.149868 0.000293 -0.018180
v 0.143312 0.046819 -0.018180
v 0.146521 0.046819 0.028065
v 0.091517 0.052105 -0.024820
v 0.095988 0.052105 0.031646
v 0.023840 0.072840 -0.025784
v 0.023840 0.072840 0.029454
v -0.029752 0.110687 -0.021386
v -0.029752 0.110687 0.021386
v -0.027710 0.005064 -0.024376
v -0.027710 0.005064 0.024376
v 0.023840 0.000293 -0.025784
v 0.023840 0.000293 0.029454
v 0.096273 -0.002344 -0.024820
v 0.100743 -0.002344 0.031646
v -0.086422 0.000000 -0.050373
v -0.086422 0.070168 0.050373
v -0.086422 0.070168 -0.050373
v -0.086422 0.000000 0.050373
v -0.089495 0.000293 -0.023430
v -0.089495 0.000293 0.023430
v -0.096265 0.080856 -0.038271
v -0.096265 0.080856 0.038271
v -0.140968 0.087542 0.028236
v -0.140968 0.087542 -0.028236
v -0.019629 0.110687 -0.028236
v -0.019629 0.110687 0.028236
v -0.096265 0.080856 -0.047990
v -0.096265 0.080856 0.047990
v -0.131752 0.011506 0.018463
v -0.131752 0.011506 -0.018463
v -0.030955 0.011506 -0.018463
v -0.030955 0.011506 0.018463
v -0.096265 0.011506 -0.033039
v -0.096265 0.011506 0.033039
v -0.116097 0.050000 0.047269
v -0.116097 0.050000 -0.049385
v 0.130000 0.025000 -0.042396
v 0.133209 0.025000 0.055697
v 0.088344 0.025069 0.060811
v 0.022331 0.036108 0.057464
v -0.026925 0.050000 0.054733
v -0.026925 0.050000 -0.050750
v 0.022331 0.036108 -0.052115
v 0.076340 0.025069 -0.057592
v 0.149868 0.026234 -0.018180
v 0.153077 0.026234 0.028065
v -0.140322 0.051023 0.026306
v -0.140322 0.051023 -0.026306
v -0.086422 0.050000 -0.052488
v -0.086422 0.050000 0.055754
vn -0.6874 0.0570 -0.7241
vn 0.2715 0.0906 -0.9582
vn 0.7811 0.2488 0.5727
vn -0.2663 0.2485 0.9313
vn 0.0607 -0.9980 0.0179
vn -0.0676 0.1575 0.9852
vn 0.1151 0.9765 0.1821
vn 0.2622 0.9369 0.2313
vn 0.4962 0.5904 0.6365
vn 0.0773 -0.9968 -0.0197
vn -0.0912 -0.9958 -0.0096
vn -0.0390 -0.9991 -0.0171
vn 0.1111 0.2062 0.9722
vn -0.0146 0.2090 0.9778
vn 0.0150 0.2439 0.9697
vn 0.0290 0.1043 -0.9941
vn -0.0099 0.0629 -0.9980
vn -0.0867 0.0686 -0.9939
vn -0.0478 -0.9987 0.0151
vn -0.0364 -0.9993 -0.0000
vn -0.0919 -0.9957 0.0096
vn -0.0922 -0.9957 -0.0000
vn 0.0773 -0.9968 0.0197
vn 0.0770 -0.9970 -0.0000
vn 0.5511 0.5951 -0.5849
vn 0.6567 0.7542 -0.0000
vn 0.2863 0.9225 -0.2588
vn 0.2768 0.9607 -0.0219
vn 0.1236 0.9742 -0.1890
vn 0.1035 0.9946 -0.0072
vn -0.0676 0.1575 -0.9852
vn 0.4431 0.0292 -0.8960
vn 0.0559 -0.9981 -0.0258
vn 0.0496 -0.9988 -0.0039
vn 0.7450 0.2373 -0.6234
vn 0.9508 0.3028 -0.0660
vn -0.6544 -0.0000 0.7562
vn -0.9998 -0.0177 -0.0000
vn -0.2742 0.9101 -0.3106
vn -0.0000 -1.0000 -0.0000
vn -0.0002 -0.9999 0.0125
vn -0.1035 0.1038 -0.9892
vn -0.0002 -0.9999 -0.0125
vn -0.2742 0.9101 0.3106
vn 0.0166 0.2577 0.9661
vn -0.0000 1.0000 -0.0000
vn -0.4092 0.9124 -0.0000
vn -0.2518 0.8934 0.3722
vn 0.0893 0.9872 -0.1320
vn 0.1899 0.9818 -0.0000
vn -0.2172 0.0734 -0.9734
vn -0.9999 0.0121 -0.0000
vn 0.3790 0.0696 0.9228
vn -0.2592 0.0316 0.9653
vn 0.9999 -0.0119 -0.0000
vn 0.0603 -0.1068 0.9924
vn -0.1039 -0.0420 -0.9937
vn -0.9961 0.0881 -0.0000
vn -0.6231 0.0254 0.7818
vn 0.9976 -0.0000 -0.0692
vn 0.7731 -0.0000 -0.6343
vn -0.1043 -0.0756 -0.9917
vn -0.0609 -0.0584 -0.9964
vn 0.0554 -0.0422 -0.9976
vn -0.0737 -0.2019 0.9766
vn -0.0888 -0.1881 0.9781
vn 0.0809 -0.1883 0.9788
vn -0.1040 -0.0000 0.9946
vn 0.7731 -0.0000 0.6343
vn 0.2396 -0.0738 -0.9681
vn -0.6231 0.0254 -0.7818
vn -0.6210 -0.0523 -0.7821
vn 0.2545 0.1315 -0.9581
vn 0.7106 0.3439 0.6139
vn 0.0524 -0.9981 0.0309
vn -0.1736 0.7444 0.6448
vn 0.1269 0.9781 0.1651
vn 0.1659 0.8946 0.4149
vn 0.4613 0.5859 0.6663
vn 0.0791 -0.9967 -0.0155
vn -0.0952 -0.9952 -0.0212
vn -0.0334 -0.9990 -0.0310
vn 0.0987 0.2289 0.9684
vn -0.0184 0.2256 0.9740
vn 0.0647 0.1557 0.9857
vn 0.0180 0.0718 -0.9973
vn -0.0126 0.0678 -0.9976
vn -0.0750 0.0253 -0.9969
vn -0.0368 -0.9987 0.0345
vn -0.0343 -0.9994 0.0027
vn -0.0954 -0.9953 0.0180
vn 0.0791 -0.9967 0.0155
vn 0.4613 0.5859 -0.6663
vn 0.2003 0.9024 -0.3814
vn 0.2929 0.9561 -0.0000
vn 0.1369 0.9766 -0.1659
vn 0.1026 0.9947 -0.0081
vn -0.1736 0.7444 -0.6448
vn 0.3790 0.0696 -0.9228
vn 0.0530 -0.9981 -0.0314
vn 0.0501 -0.9987 -0.0035
vn 0.7383 0.2464 -0.6279
vn -0.6210 -0.0523 0.7821
vn -0.0434 0.1792 -0.9829
vn 0.0012 -0.9999 0.0110
vn -0.0863 0.0782 -0.9932
vn 0.0012 -0.9999 -0.0110
vn -0.0434 0.1792 0.9829
vn -0.0235 0.1446 0.9892
vn -0.2518 0.8934 -0.3722
vn 0.0893 0.9872 0.1320
vn -0.2592 0.0316 -0.9653
vn 0.4431 0.0292 0.8960
vn -0.2172 0.0734 0.9734
vn 0.0169 -0.1628 0.9865
vn -0.1125 -0.0581 -0.9920
vn -0.0492 -0.0766 -0.9958
vn 0.0291 -0.0767 -0.9966
vn -0.1001 -0.1620 0.9817
vn -0.0832 -0.2017 0.9759
vn 0.1120 -0.1345 0.9846
vn -0.2734 -0.1029 0.9564
vn 0.8110 -0.0792 0.5796
vn 0.2725 -0.0000 -0.9622
vn -0.6901 -0.0306 -0.7230
vt 0.678860 0.010923
vt 0.739737 0.081093
vt 0.674312 0.082333
vt 0.620306 0.549544
vt 0.671627 0.658350
vt 0.624230 0.674629
vt 0.183674 0.770201
vt 0.244402 0.816407
vt 0.184068 0.817951
vt 0.368223 0.147196
vt 0.418032 0.075701
vt 0.417535 0.148009
vt 0.218581 0.134193
vt 0.268717 0.055308
vt 0.276484 0.164321
vt 0.829886 0.327677
vt 0.830381 0.358700
vt 0.813375 0.316480
vt 0.938274 0.735378
vt 0.983162 0.810087
vt 0.925601 0.850946
vt 0.939841 0.561781
vt 0.994307 0.711286
vt 0.941701 0.441908
vt 0.988772 0.524217
vt 0.200910 0.446301
vt 0.264081 0.588963
vt 0.198615 0.596429
vt 0.213252 0.321050
vt 0.256536 0.444394
vt 0.263175 0.324716
vt 0.423055 0.665747
vt 0.472425 0.573553
vt 0.470749 0.682421
vt 0.412460 0.561038
vt 0.447664 0.412726
vt 0.373073 0.368359
vt 0.415440 0.292527
vt 0.724273 0.153734
vt 0.677631 0.297858
vt 0.675070 0.154817
vt 0.719920 0.373232
vt 0.645684 0.417410
vt 0.680129 0.536883
vt 0.006893 0.193489
vt 0.079037 0.321050
vt 0.020197 0.324716
vt 0.081382 0.145055
vt 0.026829 0.444394
vt 0.082455 0.446301
vt 0.019291 0.588963
vt 0.084757 0.596429
vt 0.757748 0.515387
vt 0.811238 0.436921
vt 0.812229 0.556903
vt 0.738991 0.674717
vt 0.808201 0.720422
vt 0.764705 0.794570
vt 0.819034 0.839706
vt 0.906000 0.358749
vt 0.906698 0.327783
vt 0.920820 0.317279
vt 0.363010 0.624872
vt 0.288329 0.681705
vt 0.370211 0.677931
vt 0.038673 0.063105
vt 0.097512 0.014829
vt 0.022622 0.815370
vt 0.078944 0.769335
vt 0.079338 0.817086
vt 0.352807 0.074801
vt 0.415098 0.009984
vt 0.586072 0.923735
vt 0.453548 0.835079
vt 0.581383 0.835079
vt 0.899420 0.227519
vt 0.868732 0.204280
vt 0.200914 0.730829
vt 0.082458 0.730829
vt 0.026833 0.661066
vt 0.256540 0.661066
vt 0.838664 0.227532
vt 0.867168 0.204280
vt 0.905675 0.163819
vt 0.835022 0.178198
vt 0.844774 0.163819
vt 0.843905 0.018151
vt 0.916575 0.003361
vt 0.906544 0.018151
vt 0.943553 0.115362
vt 0.929716 0.115362
vt 0.806896 0.115362
vt 0.833874 0.003361
vt 0.915427 0.178198
vt 0.820733 0.115362
vt 0.708292 0.762451
vt 0.627307 0.864997
vt 0.627299 0.706731
vt 0.288329 0.532085
vt 0.288329 0.627286
vt 0.395137 0.876003
vt 0.288329 0.918242
vt 0.395137 0.920683
vt 0.363010 0.785657
vt 0.288329 0.728825
vt 0.288329 0.783243
vt 0.288329 0.878444
vt 0.370211 0.732599
vt 0.524837 0.293854
vt 0.538646 0.149548
vt 0.554049 0.155383
vt 0.553291 0.082899
vt 0.458238 0.711563
vt 0.576693 0.711563
vt 0.539470 0.077378
vt 0.538345 0.000735
vt 0.183720 0.876292
vt 0.078991 0.875427
vt 0.022287 0.871595
vt 0.558364 0.417650
vt 0.553291 0.549587
vt 0.568363 0.297919
vt 0.534909 0.413747
vt 0.539470 0.574348
vt 0.531261 0.683172
vt 0.236355 0.872620
vt 0.563581 0.675216
vt 0.555869 0.000735
vt 0.767176 0.009063
vt 0.236284 0.770761
vt 0.209878 0.007033
vt 0.867168 0.393363
vt 0.986559 0.419003
vt 0.293773 0.274582
vt 0.799123 0.279714
vt 0.768153 0.410654
vt 0.868732 0.392847
vt 0.022216 0.769736
vt 0.326541 0.007239
vt 0.448858 0.923735
vt 0.685366 0.706731
vt 0.685374 0.864997
vt 0.604379 0.762451
vt 0.395137 0.534527
s 0
usemtl Sneaker
f 74/1/1 4/2/1 62/3/1
f 70/4/2 8/5/2 63/6/2
f 28/7/3 64/8/3 72/9/3
f 42/10/4 61/11/4 76/12/4
f 40/13/5 5/14/5 17/15/5
f 54/16/6 2/17/6 42/18/6
f 30/19/7 6/20/7 28/21/7
f 32/22/8 18/23/8 30/19/8
f 52/24/9 19/25/9 32/22/9
f 36/26/10 44/27/10 46/28/10
f 38/29/11 15/30/11 36/26/11
f 38/29/12 17/15/12 16/31/12
f 6/32/13 65/33/13 64/34/13
f 18/35/14 66/36/14 65/33/14
f 19/37/15 67/38/15 66/36/15
f 43/39/16 68/40/16 75/41/16
f 68/40/17 13/42/17 69/43/17
f 69/43/18 14/44/18 70/4/18
f 9/45/19 37/46/19 10/47/19
f 39/48/20 38/29/20 37/46/20
f 11/49/21 37/46/21 35/50/21
f 37/46/22 36/26/22 35/50/22
f 41/51/23 35/50/23 45/52/23
f 35/50/24 46/28/24 45/52/24
f 13/53/25 51/54/25 31/55/25
f 31/55/26 52/24/26 32/22/26
f 14/56/27 31/55/27 29/57/27
f 29/57/28 32/22/28 30/19/28
f 8/58/29 29/57/29 27/59/29
f 27/59/30 30/19/30 28/21/30
f 4/60/31 53/61/31 43/62/31
f 48/63/32 55/64/32 23/65/32
f 7/66/33 39/48/33 9/45/33
f 26/67/34 40/13/34 39/48/34
f 63/68/35 27/69/35 71/70/35
f 71/70/36 28/7/36 72/9/36
f 2/71/37 73/72/37 61/11/37
f 49/73/38 74/74/38 73/75/38
f 12/76/39 53/61/39 51/77/39
f 45/52/40 22/78/40 21/79/40
f 3/80/41 45/52/41 21/79/41
f 62/3/42 43/39/42 75/41/42
f 46/28/43 1/81/43 22/78/43
f 54/16/44 20/82/44 52/83/44
f 67/38/45 42/10/45 76/12/45
f 24/84/46 49/85/46 23/86/46
f 34/87/46 51/88/46 33/89/46
f 33/89/47 53/90/47 47/91/47
f 34/87/48 54/92/48 52/93/48
f 24/84/49 53/90/49 50/94/49
f 23/86/50 54/92/50 48/95/50
f 60/96/46 57/97/46 56/98/46
f 48/63/51 58/99/51 60/100/51
f 33/101/52 58/102/52 34/103/52
f 47/104/53 56/105/53 59/106/53
f 47/104/54 57/107/54 33/101/54
f 24/108/55 55/64/55 56/105/55
f 15/109/56 76/12/56 44/110/56
f 62/3/57 41/111/57 3/112/57
f 73/75/58 21/113/58 22/114/58
f 1/115/59 73/72/59 22/116/59
f 71/70/60 25/117/60 26/118/60
f 63/68/61 26/118/61 7/119/61
f 10/120/62 70/4/62 9/121/62
f 11/122/63 69/43/63 10/120/63
f 75/41/64 11/122/64 41/111/64
f 66/36/65 15/109/65 16/123/65
f 65/33/66 16/123/66 17/124/66
f 5/125/67 65/33/67 17/124/67
f 44/110/68 61/11/68 1/115/68
f 72/9/69 5/126/69 25/117/69
f 70/4/70 7/127/70 9/121/70
f 74/1/71 3/112/71 21/128/71
f 74/1/72 50/129/72 4/2/72
f 70/4/73 14/44/73 8/5/73
f 28/7/74 6/130/74 64/8/74
f 42/10/68 2/71/68 61/11/68
f 40/13/75 25/131/75 5/14/75
f 54/16/76 49/132/76 2/17/76
f 30/19/77 18/23/77 6/20/77
f 32/22/78 19/25/78 18/23/78
f 52/24/79 20/133/79 19/25/79
f 36/26/80 15/30/80 44/27/80
f 38/29/81 16/31/81 15/30/81
f 38/29/82 40/13/82 17/15/82
f 6/32/83 18/35/83 65/33/83
f 18/35/84 19/37/84 66/36/84
f 19/37/85 20/134/85 67/38/85
f 43/39/86 12/135/86 68/40/86
f 68/40/87 12/135/87 13/42/87
f 69/43/88 13/42/88 14/44/88
f 9/45/89 39/48/89 37/46/89
f 39/48/90 40/13/90 38/29/90
f 11/49/91 10/47/91 37/46/91
f 37/46/22 38/29/22 36/26/22
f 41/51/92 11/49/92 35/50/92
f 35/50/24 36/26/24 46/28/24
f 13/53/93 12/136/93 51/54/93
f 31/55/26 51/54/26 52/24/26
f 14/56/94 13/53/94 31/55/94
f 29/57/95 31/55/95 32/22/95
f 8/58/96 14/56/96 29/57/96
f 27/59/97 29/57/97 30/19/97
f 4/60/98 50/137/98 53/61/98
f 48/63/99 60/100/99 55/64/99
f 7/66/100 26/67/100 39/48/100
f 26/67/101 25/131/101 40/13/101
f 63/68/102 8/138/102 27/69/102
f 71/70/36 27/69/36 28/7/36
f 2/71/103 49/139/103 73/72/103
f 49/73/38 50/140/38 74/74/38
f 12/76/104 43/62/104 53/61/104
f 45/52/40 46/28/40 22/78/40
f 3/80/105 41/51/105 45/52/105
f 62/3/106 4/2/106 43/39/106
f 46/28/107 44/27/107 1/81/107
f 54/16/108 42/18/108 20/82/108
f 67/38/109 20/134/109 42/10/109
f 24/84/46 50/94/46 49/85/46
f 34/87/46 52/93/46 51/88/46
f 33/89/110 51/88/110 53/90/110
f 34/87/47 48/95/47 54/92/47
f 24/84/50 47/91/50 53/90/50
f 23/86/111 49/85/111 54/92/111
f 56/98/46 55/141/46 60/96/46
f 60/96/46 58/142/46 57/97/46
f 57/97/46 59/143/46 56/98/46
f 48/63/112 34/144/112 58/99/112
f 33/101/52 57/107/52 58/102/52
f 47/104/113 24/108/113 56/105/113
f 47/104/114 59/106/114 57/107/114
f 24/108/55 23/65/55 55/64/55
f 15/109/115 67/38/115 76/12/115
f 62/3/57 75/41/57 41/111/57
f 73/75/58 74/74/58 21/113/58
f 1/115/37 61/11/37 73/72/37
f 71/70/60 72/9/60 25/117/60
f 63/68/61 71/70/61 26/118/61
f 10/120/116 69/43/116 70/4/116
f 11/122/117 68/40/117 69/43/117
f 75/41/118 68/40/118 11/122/118
f 66/36/119 67/38/119 15/109/119
f 65/33/120 66/36/120 16/123/120
f 5/125/121 64/34/121 65/33/121
f 44/110/122 76/12/122 61/11/122
f 72/9/123 64/8/123 5/126/123
f 70/4/124 63/6/124 7/127/124
f 74/1/125 62/3/125 3/112/125
