# Blender 5.1.0
# www.blender.org
mtllib Blueprint.mtl
o Blueprint
v -0.375000 0.018496 -0.250000
v -0.375000 0.006823 0.250000
v 0.375000 0.000000 -0.250000
v 0.375000 0.000000 0.250000
v 0.125000 0.000000 -0.250000
v -0.125000 0.000000 -0.250000
v -0.375000 0.000000 -0.083333
v -0.375000 0.000000 0.083333
v -0.125000 0.000000 0.250000
v 0.125000 0.000000 0.250000
v 0.375000 0.000000 0.083333
v 0.375000 0.009549 -0.083333
v -0.125000 0.000000 -0.083333
v 0.125000 0.000000 -0.083333
v -0.125000 0.000000 0.083333
v 0.125000 0.004554 0.083333
vn 0.0182 0.9995 0.0273
vn -0.0000 1.0000 -0.0000
vn -0.0381 0.9976 0.0572
vn 0.0733 0.9912 0.1100
vn -0.0182 0.9995 0.0273
vn -0.0381 0.9976 -0.0572
vn 0.0182 0.9995 -0.0273
vn -0.0182 0.9995 -0.0273
vn 0.0273 0.9988 -0.0409
vt 0.666667 0.000000
vt 1.000000 0.328125
vt 0.666667 0.328125
vt 0.666667 0.671875
vt 1.000000 1.000000
vt 0.666667 1.000000
vt 1.000000 0.671875
vt 0.000000 0.671875
vt 0.333333 1.000000
vt 0.000000 1.000000
vt 0.333333 0.671875
vt 0.000000 0.328125
vt 0.333333 0.328125
vt 0.333333 0.000000
vt 1.000000 0.000000
vt 0.000000 0.000000
s 0
usemtl 64x64grid
f 10/1/1 11/2/1 16/3/1
f 14/4/2 3/5/2 5/6/2
f 14/4/3 11/2/3 12/7/3
f 7/8/4 6/9/4 1/10/4
f 13/11/2 5/6/2 6/9/2
f 8/12/2 13/11/2 7/8/2
f 15/13/2 14/4/2 13/11/2
f 8/12/2 9/14/2 15/13/2
f 15/13/5 10/1/5 16/3/5
f 10/1/2 4/15/2 11/2/2
f 14/4/6 12/7/6 3/5/6
f 14/4/7 16/3/7 11/2/7
f 7/8/2 13/11/2 6/9/2
f 13/11/2 14/4/2 5/6/2
f 8/12/2 15/13/2 13/11/2
f 15/13/8 16/3/8 14/4/8
f 8/12/9 2/16/9 9/14/9
f 15/13/2 9/14/2 10/1/2
