# Blender 5.1.0
# www.blender.org
mtllib RolledBlueprint.mtl
o RolledBlueprint
v 0.005214 0.041614 -0.250000
v 0.005214 0.041614 0.250000
v 0.012589 0.034240 -0.250000
v 0.012589 0.034240 0.250000
v 0.012589 0.023811 -0.250000
v 0.012589 0.023811 0.250000
v 0.005214 0.016436 -0.250000
v 0.005214 0.016436 0.250000
v -0.005214 0.016436 -0.250000
v -0.005214 0.016436 0.250000
v -0.012589 0.023811 -0.250000
v -0.012589 0.023811 0.250000
v -0.012589 0.034240 -0.250000
v -0.012589 0.034240 0.250000
v -0.005214 0.041614 -0.250000
v -0.005214 0.041614 0.250000
v 0.011481 0.056742 -0.250000
v 0.027716 0.040506 -0.250000
v 0.027716 0.040506 0.250000
v 0.011481 0.056742 0.250000
v 0.027716 0.017545 -0.250000
v 0.027716 0.017545 0.250000
v 0.011481 0.001309 -0.250000
v 0.011481 0.001309 0.250000
v -0.011481 0.001309 -0.250000
v -0.011481 0.001309 0.250000
v -0.027716 0.017545 -0.250000
v -0.027716 0.017545 0.250000
v -0.027716 0.040506 -0.250000
v -0.027716 0.040506 0.250000
v -0.011481 0.056742 -0.250000
v -0.011481 0.056742 0.250000
v 0.005214 0.041614 -0.250000
v 0.005214 0.041614 0.250000
v 0.012589 0.034240 -0.250000
v 0.012589 0.034240 0.250000
v 0.012589 0.023811 -0.250000
v 0.012589 0.023811 0.250000
v 0.005214 0.016436 -0.250000
v 0.005214 0.016436 0.250000
v -0.005214 0.016436 -0.250000
v -0.005214 0.016436 0.250000
v -0.012589 0.023811 -0.250000
v -0.012589 0.023811 0.250000
v -0.012589 0.034240 -0.250000
v -0.012589 0.034240 0.250000
v -0.005214 0.041614 -0.250000
v -0.005214 0.041614 0.250000
v 0.011481 0.056742 -0.250000
v 0.027716 0.040506 -0.250000
v 0.027716 0.040506 0.250000
v 0.011481 0.056742 0.250000
v 0.027716 0.017545 -0.250000
v 0.027716 0.017545 0.250000
v 0.011481 0.001309 -0.250000
v 0.011481 0.001309 0.250000
v -0.011481 0.001309 -0.250000
v -0.011481 0.001309 0.250000
v -0.027716 0.017545 -0.250000
v -0.027716 0.017545 0.250000
v -0.027716 0.040506 -0.250000
v -0.027716 0.040506 0.250000
v -0.011481 0.056742 -0.250000
v -0.011481 0.056742 0.250000
vn 0.7071 0.7071 -0.0000
vn 1.0000 -0.0000 -0.0000
vn 0.7071 -0.7071 -0.0000
vn -0.0000 -1.0000 -0.0000
vn -0.7071 -0.7071 -0.0000
vn -1.0000 -0.0000 -0.0000
vn -0.7071 0.7071 -0.0000
vn -0.0000 1.0000 -0.0000
vn -0.0000 -0.0000 -1.0000
vn -0.0000 -0.0000 1.0000
vt 0.312500 1.000000
vt 0.281250 0.000000
vt 0.312500 0.000000
vt 0.281250 1.000000
vt 0.250000 0.000000
vt 0.250000 1.000000
vt 0.218750 0.000000
vt 0.437500 1.000000
vt 0.468750 0.000000
vt 0.437500 0.000000
vt 0.406250 0.000000
vt 0.406250 1.000000
vt 0.375000 0.000000
vt 0.375000 1.000000
vt 0.343750 0.000000
vt 0.343750 1.000000
vt 0.927083 0.781250
vt 0.927083 0.828125
vt 0.947917 0.796875
vt 0.916667 0.796875
vt 0.947917 0.734375
vt 0.927083 0.750000
vt 0.916667 0.734375
vt 0.927083 0.703125
vt 0.885417 0.703125
vt 0.895833 0.734375
vt 0.864583 0.734375
vt 0.885417 0.750000
vt 0.864583 0.796875
vt 0.885417 0.781250
vt 0.885417 0.828125
vt 0.895833 0.796875
vt 0.791667 1.000000
vt 0.802083 -0.000000
vt 0.802083 1.000000
vt 0.781250 1.000000
vt 0.791667 -0.000000
vt 0.770833 1.000000
vt 0.781250 -0.000000
vt 0.760417 -0.000000
vt 0.770833 -0.000000
vt 0.833333 1.000000
vt 0.843750 -0.000000
vt 0.843750 1.000000
vt 0.822917 1.000000
vt 0.833333 -0.000000
vt 0.812500 1.000000
vt 0.822917 -0.000000
vt 0.812500 -0.000000
vt 0.218750 1.000000
vt 0.468750 1.000000
vt 0.760417 1.000000
s 0
usemtl Bleprint
f 20/1/1 18/2/1 17/3/1
f 19/4/2 21/5/2 18/2/2
f 22/6/3 23/7/3 21/5/3
f 24/8/4 25/9/4 23/10/4
f 26/8/5 27/11/5 25/10/5
f 28/12/6 29/13/6 27/11/6
f 30/14/7 31/15/7 29/13/7
f 32/16/8 17/3/8 31/15/8
f 3/17/9 17/18/9 18/19/9
f 4/17/10 20/18/10 2/20/10
f 3/17/9 21/21/9 5/22/9
f 4/17/10 22/21/10 19/19/10
f 7/23/9 21/21/9 23/24/9
f 8/23/10 22/21/10 6/22/10
f 7/23/9 25/25/9 9/26/9
f 10/26/10 24/24/10 8/23/10
f 9/26/9 27/27/9 11/28/9
f 12/28/10 26/25/10 10/26/10
f 11/28/9 29/29/9 13/30/9
f 12/28/10 30/29/10 28/27/10
f 13/30/9 31/31/9 15/32/9
f 14/30/10 32/31/10 30/29/10
f 1/20/9 31/31/9 17/18/9
f 16/32/10 20/18/10 32/31/10
f 9/33/8 8/34/8 7/35/8
f 11/36/1 10/37/1 9/33/1
f 13/38/2 12/39/2 11/36/2
f 13/38/3 16/40/3 14/41/3
f 1/42/4 16/43/4 15/44/4
f 3/45/5 2/46/5 1/42/5
f 5/47/6 4/48/6 3/45/6
f 7/35/7 6/49/7 5/47/7
f 20/1/1 19/4/1 18/2/1
f 19/4/2 22/6/2 21/5/2
f 22/6/3 24/50/3 23/7/3
f 24/8/4 26/51/4 25/9/4
f 26/8/5 28/12/5 27/11/5
f 28/12/6 30/14/6 29/13/6
f 30/14/7 32/16/7 31/15/7
f 32/16/8 20/1/8 17/3/8
f 3/17/9 1/20/9 17/18/9
f 4/17/10 19/19/10 20/18/10
f 3/17/9 18/19/9 21/21/9
f 4/17/10 6/22/10 22/21/10
f 7/23/9 5/22/9 21/21/9
f 8/23/10 24/24/10 22/21/10
f 7/23/9 23/24/9 25/25/9
f 10/26/10 26/25/10 24/24/10
f 9/26/9 25/25/9 27/27/9
f 12/28/10 28/27/10 26/25/10
f 11/28/9 27/27/9 29/29/9
f 12/28/10 14/30/10 30/29/10
f 13/30/9 29/29/9 31/31/9
f 14/30/10 16/32/10 32/31/10
f 1/20/9 15/32/9 31/31/9
f 16/32/10 2/20/10 20/18/10
f 9/33/8 10/37/8 8/34/8
f 11/36/1 12/39/1 10/37/1
f 13/38/2 14/41/2 12/39/2
f 13/38/3 15/52/3 16/40/3
f 1/42/4 2/46/4 16/43/4
f 3/45/5 4/48/5 2/46/5
f 5/47/6 6/49/6 4/48/6
f 7/35/7 8/34/7 6/49/7
l 49 50
l 51 52
l 50 53
l 54 51
l 53 55
l 56 54
l 55 57
l 58 56
l 58 57
l 57 59
l 60 58
l 59 61
l 62 60
l 61 63
l 64 62
l 63 49
l 52 64
l 33 35
l 36 34
l 35 37
l 38 36
l 37 39
l 40 38
l 39 41
l 42 40
l 41 43
l 44 42
l 43 45
l 46 44
l 45 47
l 48 46
l 47 33
l 34 48
l 57 41
l 42 58
l 47 48
