# Blender 5.0.1
# www.blender.org
mtllib Book02.mtl
o Book02
v -0.080167 0.000000 0.019434
v -0.080167 0.000000 0.019434
v -0.080167 0.000000 0.019434
v -0.080167 0.212563 0.019434
v -0.080167 0.212563 0.019434
v -0.080167 0.212563 0.019434
v -0.080167 0.000000 -0.019434
v -0.080167 0.000000 -0.019434
v -0.080167 0.000000 -0.019434
v -0.080167 0.212563 -0.019434
v -0.080167 0.212563 -0.019434
v -0.080167 0.212563 -0.019434
v 0.080167 0.000000 0.019434
v 0.080167 0.000000 0.019434
v 0.080167 0.000000 0.019434
v 0.080167 0.212563 0.019434
v 0.080167 0.212563 0.019434
v 0.080167 0.212563 0.019434
v 0.080167 0.000000 -0.019434
v 0.080167 0.000000 -0.019434
v 0.080167 0.000000 -0.019434
v 0.080167 0.212563 -0.019434
v 0.080167 0.212563 -0.019434
v 0.080167 0.212563 -0.019434
vn -1.0000 -0.0000 -0.0000
vn -0.0000 -0.0000 -1.0000
vn 1.0000 -0.0000 -0.0000
vn -0.0000 -0.0000 1.0000
vn -0.0000 -1.0000 -0.0000
vn -0.0000 1.0000 -0.0000
vt 0.562500 0.250000
vt 0.000000 0.250000
vt 0.000000 0.125000
vt 0.562500 0.125000
vt 1.000000 0.437500
vt 1.000000 1.000000
vt 0.562500 1.000000
vt 0.562500 0.437500
vt 0.000000 0.000000
vt 0.562500 0.000000
vt 0.437500 0.437500
vt 0.437500 1.000000
vt 0.000000 1.000000
vt 0.000000 0.437500
vt 0.000000 0.312500
vt 0.437500 0.312500
vt 0.562500 0.312500
vt 1.000000 0.312500
s 0
usemtl Book02
f 3/1/1 6/2/1 12/3/1
f 3/1/1 12/3/1 9/4/1
f 7/5/2 10/6/2 22/7/2
f 7/5/2 22/7/2 19/8/2
f 21/4/3 24/3/3 18/9/3
f 21/4/3 18/9/3 15/10/3
f 13/11/4 16/12/4 4/13/4
f 13/11/4 4/13/4 1/14/4
f 8/15/5 20/16/5 14/11/5
f 8/15/5 14/11/5 2/14/5
f 23/5/6 11/8/6 5/17/6
f 23/5/6 5/17/6 17/18/6
