# Blender 5.1.1
# www.blender.org
mtllib Bench.mtl
o Bench
v -0.700000 0.400000 0.150000
v -0.750000 0.400000 0.100000
v 0.750000 0.400000 0.100000
v 0.700000 0.400000 0.150000
v -0.750000 0.400000 -0.100000
v -0.700000 0.400000 -0.150000
v 0.700000 0.400000 -0.150000
v 0.750000 0.400000 -0.100000
v -0.700000 0.440000 -0.150000
v -0.750000 0.440000 -0.100000
v -0.750000 0.440000 0.100000
v -0.700000 0.440000 0.150000
v 0.700000 0.440000 0.150000
v 0.750000 0.440000 0.100000
v 0.750000 0.440000 -0.100000
v 0.700000 0.440000 -0.150000
v 0.600000 0.400000 0.030000
v 0.600000 0.400000 -0.030000
v 0.600000 0.374019 -0.015000
v 0.600000 0.374019 0.015000
v -0.600000 0.400000 0.030000
v -0.600000 0.400000 -0.030000
v -0.600000 0.374019 -0.015000
v -0.600000 0.374019 0.015000
v -0.674019 0.300000 -0.015000
v -0.700000 0.300000 -0.030000
v -0.700000 0.000000 -0.030000
v -0.674019 0.000000 -0.015000
v -0.674019 0.000000 0.015000
v -0.700000 0.000000 0.030000
v -0.725981 0.000000 0.015000
v -0.600000 0.425981 0.015000
v -0.725981 0.000000 -0.015000
v -0.600000 0.425981 -0.015000
v -0.674019 0.300000 0.015000
v -0.700000 0.300000 0.030000
v -0.725981 0.300000 0.015000
v -0.725981 0.300000 -0.015000
v -0.693186 0.393187 -0.015000
v -0.693186 0.393187 0.015000
v -0.675000 0.375000 -0.030000
v -0.675000 0.375000 0.030000
v -0.656813 0.356813 0.015000
v -0.656813 0.356813 -0.015000
v 0.674019 0.300000 0.015000
v 0.700000 0.300000 0.030000
v 0.700000 0.000000 0.030000
v 0.674019 0.000000 0.015000
v 0.674019 0.000000 -0.015000
v 0.700000 0.000000 -0.030000
v 0.725981 0.000000 -0.015000
v 0.600000 0.425981 -0.015000
v 0.725981 0.000000 0.015000
v 0.600000 0.425981 0.015000
v 0.674019 0.300000 -0.015000
v 0.700000 0.300000 -0.030000
v 0.725981 0.300000 -0.015000
v 0.725981 0.300000 0.015000
v 0.693187 0.393187 0.015000
v 0.693187 0.393187 -0.015000
v 0.675000 0.375000 0.030000
v 0.675000 0.375000 -0.030000
v 0.656814 0.356813 -0.015000
v 0.656814 0.356813 0.015000
vn 0.7071 -0.0000 -0.7071
vn 0.7071 -0.0000 0.7071
vn -0.7071 -0.0000 0.7071
vn -0.7071 -0.0000 -0.7071
vn -1.0000 -0.0000 -0.0000
vn -0.0000 -1.0000 -0.0000
vn -0.0000 -0.0000 1.0000
vn 1.0000 -0.0000 -0.0000
vn -0.0000 -0.0000 -1.0000
vn -0.0000 1.0000 -0.0000
vn -0.0000 -0.5000 -0.8660
vn -0.0000 -0.5000 0.8660
vn 0.4944 -0.1497 0.8563
vn 0.1727 -0.5182 -0.8377
vn 0.9571 -0.2898 -0.0000
vn 0.5000 -0.0000 0.8660
vn 0.2898 -0.9571 -0.0000
vn -0.9433 0.3320 -0.0000
vn -0.5000 -0.0000 0.8660
vn 0.1727 -0.5182 0.8377
vn -0.4932 0.1644 -0.8542
vn -0.1803 0.5123 0.8397
vn -0.5000 -0.0000 -0.8660
vn -0.3320 0.9433 -0.0000
vn -0.4932 0.1644 0.8542
vn 0.5000 -0.0000 -0.8660
vn -0.1803 0.5123 -0.8397
vn 0.4944 -0.1497 -0.8563
vn -0.4944 -0.1497 -0.8563
vn -0.1727 -0.5182 0.8377
vn -0.9571 -0.2898 -0.0000
vn -0.2898 -0.9571 -0.0000
vn 0.9433 0.3320 -0.0000
vn -0.1727 -0.5182 -0.8377
vn 0.4932 0.1644 0.8542
vn 0.1803 0.5123 -0.8397
vn 0.3320 0.9433 -0.0000
vn 0.4932 0.1644 -0.8542
vn 0.1803 0.5123 0.8397
vn -0.4944 -0.1497 0.8563
vn 0.5182 -0.1727 0.8377
vn 0.1497 -0.4944 -0.8563
vn 0.1497 -0.4944 0.8563
vn -0.5123 0.1803 -0.8397
vn -0.1644 0.4932 0.8542
vn -0.5123 0.1803 0.8397
vn -0.1644 0.4932 -0.8542
vn 0.5182 -0.1727 -0.8377
vn -0.5182 -0.1727 -0.8377
vn -0.1497 -0.4944 0.8563
vn -0.1497 -0.4944 -0.8563
vn 0.5123 0.1803 0.8397
vn 0.1644 0.4932 -0.8542
vn 0.5123 0.1803 -0.8397
vn 0.1644 0.4932 0.8542
vn -0.5182 -0.1727 0.8377
vt 0.316064 0.776306
vt 0.282200 0.757150
vt 0.316064 0.757150
vt 0.152526 0.757150
vt 0.186390 0.776306
vt 0.152526 0.776306
vt 0.282105 0.788400
vt 0.315969 0.807556
vt 0.282105 0.807556
vt 0.186360 0.807556
vt 0.152496 0.788400
vt 0.186360 0.788400
vt 0.186359 0.807556
vt 0.282140 0.788400
vt 0.282140 0.807556
vt 0.149998 0.023945
vt 0.126053 0.718363
vt 0.006326 0.694418
vt 0.381115 0.023437
vt 0.400272 0.693910
vt 0.381116 0.693910
vt 0.282171 0.757150
vt 0.186390 0.757150
vt 0.368910 0.693910
vt 0.349754 0.023437
vt 0.368910 0.023437
vt 0.186236 -0.000000
vt 0.305964 0.023945
vt 0.282018 0.718363
vt 0.590099 0.217783
vt 0.572760 0.769455
vt 0.576305 0.217694
vt 0.605150 0.217783
vt 0.615399 0.769632
vt 0.601605 0.769543
vt 0.649209 0.217960
vt 0.631869 0.769632
vt 0.635415 0.217871
vt 0.633983 0.804290
vt 0.645801 0.843694
vt 0.631471 0.840044
vt 0.599513 0.839536
vt 0.610696 0.986839
vt 0.596810 0.986525
vt 0.574138 0.763980
vt 0.583384 0.802943
vt 0.566804 0.802137
vt 0.598434 0.802943
vt 0.615001 0.840044
vt 0.641029 0.987249
vt 0.627167 0.986839
vt 0.617513 0.804290
vt 0.490402 0.414524
vt 0.476772 0.372451
vt 0.491271 0.372266
vt 0.520820 0.374677
vt 0.506934 0.230546
vt 0.521342 0.230598
vt 0.644795 0.764453
vt 0.650725 0.804072
vt 0.461147 0.372451
vt 0.448329 0.414880
vt 0.447278 0.374987
vt 0.476268 0.230546
vt 0.491309 0.230546
vt 0.519928 0.414352
vt 0.508126 0.461092
vt 0.506027 0.414524
vt 0.445601 0.230673
vt 0.460643 0.230546
vt 0.492501 0.461092
vt 0.477796 0.415084
vt 0.506896 0.372266
vt 0.570056 0.842467
vt 0.581760 0.986525
vt 0.567381 0.986257
vt 0.460005 0.460956
vt 0.462171 0.415084
vt 0.584463 0.839536
vt 0.587222 0.184131
vt 0.572677 0.145509
vt 0.587171 0.148079
vt 0.617687 0.147411
vt 0.595694 0.001512
vt 0.609550 0.000797
vt 0.648365 0.223165
vt 0.637767 0.183533
vt 0.654497 0.183512
vt 0.621296 0.183533
vt 0.602222 0.148079
vt 0.566804 0.002130
vt 0.580643 0.001512
vt 0.602273 0.184131
vt 0.490402 0.183978
vt 0.476772 0.141905
vt 0.491271 0.141720
vt 0.520820 0.144131
vt 0.506934 0.000000
vt 0.521342 0.000052
vt 0.577731 0.223197
vt 0.570671 0.185171
vt 0.461147 0.141905
vt 0.448330 0.184335
vt 0.447278 0.144441
vt 0.476268 0.000000
vt 0.491309 0.000000
vt 0.519928 0.183806
vt 0.508126 0.230546
vt 0.506027 0.183978
vt 0.445601 0.000127
vt 0.460643 0.000000
vt 0.492501 0.230546
vt 0.477796 0.184539
vt 0.506896 0.141720
vt 0.648337 0.143431
vt 0.626020 0.000797
vt 0.640363 -0.000000
vt 0.460005 0.230410
vt 0.462171 0.184539
vt 0.634158 0.147411
vt 0.282200 0.776306
vt 0.315969 0.788400
vt 0.152496 0.807556
vt 0.186359 0.788400
vt 0.006326 0.023945
vt 0.030271 0.000000
vt 0.126053 0.000000
vt 0.149998 0.694418
vt 0.030271 0.718363
vt 0.400272 0.023437
vt 0.282171 0.776306
vt 0.349754 0.693910
vt 0.186236 0.718363
vt 0.162291 0.694418
vt 0.162291 0.023945
vt 0.282018 -0.000000
vt 0.305964 0.694418
vt 0.586554 0.769543
vt 0.618944 0.217871
vt 0.645663 0.769721
vt 0.522909 0.455706
vt 0.475630 0.460956
vt 0.445424 0.455658
vt 0.522909 0.225160
vt 0.475630 0.230410
vt 0.445424 0.225112
s 0
usemtl 32x32grid.001
f 16/1/1 8/2/1 7/3/1
f 4/4/2 14/5/2 13/6/2
f 12/7/3 2/8/3 1/9/3
f 6/10/4 10/11/4 9/12/4
f 2/13/5 10/14/5 5/15/5
f 6/16/6 8/17/6 4/18/6
f 4/19/7 12/20/7 1/21/7
f 8/22/8 14/5/8 3/23/8
f 6/24/9 16/25/9 7/26/9
f 14/27/10 16/28/10 10/29/10
f 16/1/1 15/121/1 8/2/1
f 4/4/2 3/23/2 14/5/2
f 12/7/3 11/122/3 2/8/3
f 6/10/4 5/123/4 10/11/4
f 2/13/5 11/124/5 10/14/5
f 4/18/6 1/125/6 2/126/6
f 2/126/6 5/127/6 6/16/6
f 6/16/6 7/128/6 8/17/6
f 8/17/6 3/129/6 4/18/6
f 4/18/6 2/126/6 6/16/6
f 4/19/7 13/130/7 12/20/7
f 8/22/8 15/131/8 14/5/8
f 6/24/9 9/132/9 16/25/9
f 10/29/10 11/133/10 12/134/10
f 12/134/10 13/135/10 14/27/10
f 14/27/10 15/136/10 16/28/10
f 16/28/10 9/137/10 10/29/10
f 10/29/10 12/134/10 14/27/10
usemtl 32x32grid.001
f 19/30/11 22/31/11 18/32/11
f 19/33/6 24/34/6 23/35/6
f 17/36/12 24/37/12 20/38/12
f 43/39/13 36/40/13 35/41/13
f 25/42/8 29/43/8 28/44/8
f 22/45/14 44/46/14 41/47/14
f 44/48/15 35/49/15 25/42/15
f 35/41/16 30/50/16 29/51/16
f 23/35/17 43/52/17 44/48/17
f 40/53/18 38/54/18 37/55/18
f 36/56/19 31/57/19 30/58/19
f 43/39/20 21/59/20 42/60/20
f 38/61/21 41/62/21 26/63/21
f 37/55/5 33/64/5 31/65/5
f 42/66/22 32/67/22 40/68/22
f 38/61/23 27/69/23 33/70/23
f 32/71/24 39/72/24 40/53/24
f 42/66/25 37/73/25 36/56/25
f 26/74/26 28/75/26 27/76/26
f 34/77/27 41/62/27 39/78/27
f 26/74/28 44/46/28 25/79/28
f 63/80/29 56/81/29 55/82/29
f 45/83/5 49/84/5 48/85/5
f 17/86/30 64/87/30 61/88/30
f 64/89/31 55/90/31 45/83/31
f 55/82/23 50/91/23 49/92/23
f 64/89/32 19/33/32 63/93/32
f 60/94/33 58/95/33 57/96/33
f 56/97/26 51/98/26 50/99/26
f 63/80/34 18/100/34 62/101/34
f 58/102/35 61/103/35 46/104/35
f 57/96/8 53/105/8 51/106/8
f 62/107/36 52/108/36 60/109/36
f 58/102/16 47/110/16 53/111/16
f 52/112/37 59/113/37 60/94/37
f 62/107/38 57/114/38 56/97/38
f 46/115/19 48/116/19 47/117/19
f 54/118/39 61/103/39 59/119/39
f 46/115/40 64/87/40 45/120/40
f 19/30/11 23/138/11 22/31/11
f 19/33/6 20/139/6 24/34/6
f 17/36/12 21/140/12 24/37/12
f 43/39/41 42/60/41 36/40/41
f 25/42/8 35/49/8 29/43/8
f 22/45/42 23/138/42 44/46/42
f 44/48/15 43/52/15 35/49/15
f 35/41/16 36/40/16 30/50/16
f 23/35/17 24/34/17 43/52/17
f 40/53/18 39/72/18 38/54/18
f 36/56/19 37/73/19 31/57/19
f 43/39/43 24/37/43 21/59/43
f 38/61/44 39/78/44 41/62/44
f 37/55/5 38/54/5 33/64/5
f 42/66/45 21/141/45 32/67/45
f 38/61/23 26/63/23 27/69/23
f 32/71/24 34/142/24 39/72/24
f 42/66/46 40/68/46 37/73/46
f 26/74/26 25/79/26 28/75/26
f 34/77/47 22/143/47 41/62/47
f 26/74/48 41/47/48 44/46/48
f 63/80/49 62/101/49 56/81/49
f 45/83/5 55/90/5 49/84/5
f 17/86/50 20/38/50 64/87/50
f 64/89/31 63/93/31 55/90/31
f 55/82/23 56/81/23 50/91/23
f 64/89/32 20/139/32 19/33/32
f 60/94/33 59/113/33 58/95/33
f 56/97/26 57/114/26 51/98/26
f 63/80/51 19/30/51 18/100/51
f 58/102/52 59/119/52 61/103/52
f 57/96/8 58/95/8 53/105/8
f 62/107/53 18/144/53 52/108/53
f 58/102/16 46/104/16 47/110/16
f 52/112/37 54/145/37 59/113/37
f 62/107/54 60/109/54 57/114/54
f 46/115/19 45/120/19 48/116/19
f 54/118/55 17/146/55 61/103/55
f 46/115/56 61/88/56 64/87/56
