# Blender 5.0.1
# www.blender.org
mtllib Pillow03.mtl
o Pillow03
v 0.097020 0.146375 -0.075453
v 0.101106 0.145296 0.072167
v 0.034195 0.164951 -0.074126
v 0.013771 0.143734 0.081151
v -0.090764 0.066762 -0.076880
v -0.097391 0.056619 0.079506
v 0.100886 -0.014689 -0.073547
v 0.100121 -0.009844 0.079812
v -0.116900 0.297015 0.256381
v -0.120118 0.302687 -0.258130
v 0.337766 0.071146 -0.260821
v 0.339788 0.070993 0.263966
v 0.111822 0.071393 0.253662
v -0.039382 0.117278 0.254362
v 0.337955 0.074578 -0.085831
v 0.340861 0.073786 0.088473
v -0.037916 0.124089 -0.248900
v 0.108198 0.069926 -0.264761
v -0.120978 0.304401 0.085919
v -0.118037 0.291578 -0.083124
v -0.170008 0.209587 0.199471
v -0.159726 0.250977 0.232817
v -0.011957 0.268081 0.198301
v -0.055461 0.282420 0.230776
v -0.178332 0.213358 -0.201652
v -0.163766 0.255603 -0.232786
v -0.010478 0.271086 -0.199759
v -0.048729 0.286164 -0.230178
v 0.269943 -0.013948 0.199601
v 0.304076 0.017013 0.237491
v 0.270608 0.162294 0.198302
v 0.302339 0.137688 0.232176
v 0.271116 -0.011630 -0.200852
v 0.301974 0.020715 -0.231594
v 0.265880 0.166689 -0.200512
v 0.302441 0.143414 -0.232194
v -0.172244 0.216310 -0.077150
v -0.157786 0.253288 -0.075954
v -0.143925 0.248649 0.077241
v -0.166035 0.214040 0.074639
v -0.023312 0.271136 0.078320
v -0.061175 0.291851 0.080158
v -0.067140 0.274112 -0.075043
v -0.021988 0.267228 -0.076422
v 0.102159 -0.005185 -0.202739
v 0.105105 0.026145 -0.238118
v -0.066572 0.089536 -0.224395
v -0.094282 0.060014 -0.203716
v 0.033473 0.161552 -0.206442
v 0.003030 0.138210 -0.228708
v 0.097531 0.126556 -0.235261
v 0.101847 0.151938 -0.195344
v 0.275637 -0.005707 0.076579
v 0.302236 0.023762 0.074714
v 0.305045 0.028607 -0.076752
v 0.271782 -0.004291 -0.075385
v 0.269931 0.147969 -0.075967
v 0.302894 0.120494 -0.076934
v 0.296096 0.115379 0.074881
v 0.261785 0.145266 0.077520
v -0.087629 0.069318 0.197253
v -0.071204 0.080982 0.235587
v 0.099452 0.026150 0.234321
v 0.099524 0.003165 0.199405
v 0.102102 0.134024 0.201008
v 0.098790 0.102024 0.223974
v -0.006322 0.131329 0.227155
v 0.025558 0.156163 0.200015
vn 0.2835 0.9590 -0.0008
vn -0.3179 -0.9452 -0.0748
vn -0.8424 0.5387 -0.0076
vn 0.1519 0.9874 0.0451
vn -0.4223 -0.2196 -0.8794
vn -0.0926 0.8447 -0.5271
vn 0.7035 -0.7097 0.0378
vn 0.6424 0.7510 -0.1528
vn -0.0842 -0.8324 0.5478
vn 0.5435 0.1947 0.8165
vn -0.9349 0.3525 0.0409
vn -0.9309 0.3626 0.0435
vn 0.3433 0.9381 0.0457
vn 0.4722 0.8736 -0.1180
vn 0.0049 -0.6914 -0.7225
vn -0.3096 -0.6989 -0.6447
vn 0.6591 0.2234 -0.7181
vn 0.0309 0.6685 -0.7431
vn 0.6940 -0.7190 -0.0377
vn 0.7413 -0.6707 -0.0251
vn 0.6024 0.7899 0.1149
vn 0.6403 0.7662 0.0545
vn -0.6850 -0.3463 0.6410
vn -0.3101 -0.8644 0.3958
vn -0.1541 0.7252 0.6711
vn 0.1531 0.5657 0.8103
vn -0.9147 0.3919 -0.0988
vn -0.8617 -0.5054 -0.0455
vn -0.3516 -0.1681 0.9209
vn 0.2452 0.9688 0.0361
vn 0.4130 0.1680 0.8951
vn 0.9412 0.3135 -0.1261
vn -0.6898 0.7230 0.0370
vn -0.4051 -0.2810 -0.8700
vn -0.8769 -0.4777 0.0542
vn 0.9277 0.3731 -0.0146
vn 0.3876 0.1313 -0.9124
vn 0.2029 0.9774 0.0596
vn 0.7956 -0.6049 -0.0341
vn -0.0315 -0.3856 0.9221
vn -0.0995 -0.9893 0.1071
vn -0.1661 0.9781 -0.1258
vn -0.0404 0.4113 0.9106
vn 0.8692 0.4943 0.0132
vn 0.0139 -0.5205 -0.8537
vn 0.8143 -0.5803 0.0134
vn 0.0598 -0.9956 -0.0726
vn -0.0838 0.9850 0.1508
vn 0.8969 0.4422 -0.0096
vn 0.0139 0.3741 -0.9273
vn -0.6834 0.7252 0.0838
vn -0.8778 -0.4782 0.0288
vn 0.3332 0.9406 -0.0655
vn 0.9464 0.2791 0.1626
vn -0.2286 -0.4299 -0.8735
vn -0.3147 -0.9473 0.0591
vn 0.1536 0.6359 -0.7563
vn 0.2842 0.9571 0.0559
vn 0.8128 -0.5826 -0.0036
vn 0.0241 -0.9992 0.0317
vn 0.6820 0.7313 -0.0080
vn -0.0004 0.9998 0.0176
vn -0.1139 -0.3758 0.9197
vn -0.3165 -0.9400 0.1276
vn 0.2239 0.7279 0.6480
vn 0.2759 0.9577 0.0817
vn -0.0038 0.9909 0.1349
vn -0.3914 -0.9198 0.0271
vn -0.9436 0.3154 -0.1006
vn 0.2889 0.9512 0.1082
vn -0.5536 -0.3619 -0.7501
vn -0.0542 0.7738 -0.6311
vn 0.7329 -0.6801 0.0201
vn 0.6897 0.7126 -0.1284
vn -0.0438 -0.7539 0.6555
vn 0.6264 0.1856 0.7571
vn -0.9311 0.3629 0.0369
vn -0.8423 0.5311 0.0923
vn 0.4790 0.8775 -0.0230
vn 0.1500 0.9884 -0.0237
vn -0.0211 -0.7476 -0.6638
vn -0.1510 -0.4681 -0.8707
vn 0.4510 0.2335 -0.8614
vn 0.2026 0.8163 -0.5410
vn 0.7420 -0.6704 -0.0106
vn 0.7030 -0.7112 -0.0097
vn 0.6391 0.7634 0.0940
vn 0.6582 0.7513 0.0482
vn -0.7606 -0.4540 0.4640
vn -0.2556 -0.8078 0.5312
vn -0.0855 0.5868 0.8052
vn 0.1913 0.6019 0.7754
vn -0.7432 0.6674 0.0467
vn -0.9116 -0.3938 0.1181
vn -0.3408 -0.1574 0.9269
vn 0.2100 0.9763 0.0532
vn 0.5820 0.1702 0.7952
vn 0.9573 0.2768 -0.0836
vn -0.7181 0.6940 0.0526
vn -0.3245 -0.1972 -0.9251
vn -0.8755 -0.4806 0.0499
vn 0.8715 0.4809 0.0964
vn 0.4016 0.1315 -0.9063
vn 0.3070 0.9454 0.1099
vn 0.8348 -0.5505 -0.0037
vn -0.0418 -0.4176 0.9077
vn 0.0223 -0.9976 -0.0658
vn -0.0027 0.9962 0.0872
vn -0.1448 0.6562 0.7406
vn 0.6956 0.7069 -0.1279
vn 0.0175 -0.5106 -0.8596
vn 0.8183 -0.5747 0.0104
vn -0.0387 -0.9975 0.0585
vn -0.0091 0.9989 0.0460
vn 0.7998 0.5942 0.0854
vn -0.0244 0.4582 -0.8885
vn -0.9213 0.3862 -0.0453
vn -0.9140 -0.4005 -0.0647
vn 0.1930 0.9740 -0.1187
vn 0.8765 0.4814 -0.0047
vn -0.2705 -0.4865 -0.8308
vn -0.3891 -0.9184 -0.0714
vn -0.0046 0.4613 -0.8872
vn 0.1434 0.9893 -0.0262
vn 0.7935 -0.6083 -0.0160
vn 0.0606 -0.9981 -0.0108
vn 0.7987 0.5991 0.0560
vn -0.0092 0.9999 0.0076
vn -0.1068 -0.3660 0.9245
vn -0.3326 -0.9377 0.1003
vn 0.2220 0.7257 0.6513
vn -0.0282 0.9945 -0.1012
vt 0.833609 0.430266
vt 0.671498 0.219734
vt 0.833609 0.219734
vt 0.328876 0.219734
vt 0.166766 0.430266
vt 0.166766 0.219734
vt 0.036484 0.041029
vt 0.166766 0.009201
vt 0.166766 0.041029
vt 0.963890 0.608971
vt 0.833609 0.640799
vt 0.833609 0.608971
vt 0.459158 0.041029
vt 0.490987 0.219734
vt 0.459158 0.219734
vt 0.963890 0.041029
vt 0.995719 0.219734
vt 0.963891 0.219734
vt 0.459158 0.608971
vt 0.328876 0.640799
vt 0.328876 0.608971
vt 0.541217 0.041029
vt 0.671498 0.009201
vt 0.671498 0.041029
vt 0.036484 0.608971
vt 0.004656 0.430266
vt 0.036484 0.430266
vt 0.541217 0.608971
vt 0.509388 0.430266
vt 0.541217 0.430266
vt 0.328876 0.009201
vt 0.490987 0.009201
vt 0.328876 0.041029
vt 0.671498 0.640799
vt 0.509388 0.640799
vt 0.671498 0.608971
vt 0.490987 0.430266
vt 0.490987 0.640799
vt 0.459158 0.430266
vt 0.995719 0.430266
vt 0.995719 0.640799
vt 0.963890 0.430266
vt 0.166766 0.640799
vt 0.004656 0.640799
vt 0.166766 0.608971
vt 0.833609 0.009201
vt 0.995719 0.009201
vt 0.833609 0.041029
vt 0.004656 0.219734
vt 0.004656 0.009201
vt 0.036484 0.219734
vt 0.509388 0.219734
vt 0.509388 0.009201
vt 0.541217 0.219734
vt 0.490500 0.888051
vt 0.328389 0.935961
vt 0.328389 0.888051
vt 0.255599 0.750664
vt 0.045066 0.798574
vt 0.255599 0.798574
vt 0.490500 0.983871
vt 0.490500 0.935961
vt 0.045066 0.702754
vt 0.045066 0.750664
vt 0.671498 0.430266
vt 0.166279 0.935961
vt 0.004169 0.888051
vt 0.166279 0.888051
vt 0.044949 0.798488
vt 0.255482 0.750578
vt 0.255482 0.798488
vt 0.044949 0.702668
vt 0.044949 0.750578
vt 0.004169 0.983870
vt 0.004169 0.935961
vt 0.608577 0.937140
vt 0.446467 0.889230
vt 0.608577 0.889230
vt 0.676665 0.798574
vt 0.466132 0.750664
vt 0.466132 0.798574
vt 0.676665 0.702754
vt 0.676665 0.750664
vt 0.446467 0.985049
vt 0.446467 0.937140
vt 0.466015 0.750578
vt 0.676548 0.798488
vt 0.466015 0.798488
vt 0.932798 0.889230
vt 0.770688 0.937140
vt 0.770688 0.889230
vt 0.328876 0.430266
vt 0.932798 0.985050
vt 0.932798 0.937140
vt 0.676548 0.702668
vt 0.676548 0.750578
vt 0.166279 0.983871
vt 0.255482 0.702668
vt 0.608577 0.985049
vt 0.255599 0.702754
vt 0.328389 0.983871
vt 0.466132 0.702754
vt 0.770688 0.985050
vt 0.466015 0.702668
s 0
usemtl Pillow03
f 3/1/1 2/2/1 1/3/1
f 5/4/2 8/5/2 6/6/2
f 21/7/3 39/8/3 40/9/3
f 27/10/4 43/11/4 44/12/4
f 25/13/5 47/14/5 48/15/5
f 35/16/6 51/17/6 52/18/6
f 33/19/7 55/20/7 56/21/7
f 31/22/8 59/23/8 60/24/8
f 29/25/9 63/26/9 64/27/9
f 23/28/10 67/29/10 68/30/10
f 25/13/11 38/31/11 26/32/11
f 40/9/12 38/31/12 37/33/12
f 23/28/13 42/34/13 24/35/13
f 41/36/14 43/11/14 42/34/14
f 33/19/15 46/37/15 34/38/15
f 45/39/16 47/14/16 46/37/16
f 27/10/17 50/40/17 28/41/17
f 49/42/18 51/17/18 50/40/18
f 29/25/19 54/43/19 30/44/19
f 56/21/20 54/43/20 53/45/20
f 35/16/21 58/46/21 36/47/21
f 57/48/22 59/23/22 58/46/22
f 21/7/23 62/49/23 22/50/23
f 64/27/24 62/49/24 61/51/24
f 31/22/25 66/52/25 32/53/25
f 68/30/26 66/52/26 65/54/26
f 22/55/27 19/56/27 39/57/27
f 40/9/28 61/51/28 21/7/28
f 14/58/29 22/59/29 62/60/29
f 24/61/30 19/56/30 9/62/30
f 14/58/31 24/63/31 9/64/31
f 4/65/32 23/28/32 68/30/32
f 20/66/33 26/67/33 38/68/33
f 26/69/34 17/70/34 47/71/34
f 25/13/35 5/4/35 37/33/35
f 27/10/36 3/1/36 49/42/36
f 28/72/37 17/70/37 10/73/37
f 20/66/38 28/74/38 10/75/38
f 16/76/39 30/77/39 54/78/39
f 30/79/40 13/80/40 63/81/40
f 8/5/41 29/25/41 64/27/41
f 60/24/42 65/54/42 31/22/42
f 32/82/43 13/80/43 12/83/43
f 16/76/44 32/84/44 12/85/44
f 18/86/45 34/87/45 46/88/45
f 34/89/46 15/90/46 55/91/46
f 45/39/47 56/21/47 7/92/47
f 52/18/48 57/48/48 35/16/48
f 36/93/49 15/90/49 11/94/49
f 18/86/50 36/95/50 11/96/50
f 39/57/51 20/66/51 38/68/51
f 5/4/52 40/9/52 37/33/52
f 19/56/53 43/97/53 20/66/53
f 3/1/54 41/36/54 4/65/54
f 17/70/55 46/88/55 47/71/55
f 45/39/56 5/4/56 48/15/56
f 50/98/57 18/86/57 17/70/57
f 52/18/58 3/1/58 1/3/58
f 15/90/59 54/78/59 55/91/59
f 7/92/60 53/45/60 8/5/60
f 15/90/61 59/99/61 16/76/61
f 57/48/62 2/2/62 60/24/62
f 63/81/63 14/58/63 62/60/63
f 8/5/64 61/51/64 6/6/64
f 13/80/65 67/100/65 14/58/65
f 2/2/66 68/30/66 65/54/66
f 3/1/67 4/65/67 2/2/67
f 5/4/68 7/92/68 8/5/68
f 21/7/69 22/50/69 39/8/69
f 27/10/70 28/41/70 43/11/70
f 25/13/71 26/32/71 47/14/71
f 35/16/72 36/47/72 51/17/72
f 33/19/73 34/38/73 55/20/73
f 31/22/74 32/53/74 59/23/74
f 29/25/75 30/44/75 63/26/75
f 23/28/76 24/35/76 67/29/76
f 25/13/77 37/33/77 38/31/77
f 40/9/78 39/8/78 38/31/78
f 23/28/79 41/36/79 42/34/79
f 41/36/80 44/12/80 43/11/80
f 33/19/81 45/39/81 46/37/81
f 45/39/82 48/15/82 47/14/82
f 27/10/83 49/42/83 50/40/83
f 49/42/84 52/18/84 51/17/84
f 29/25/85 53/45/85 54/43/85
f 56/21/86 55/20/86 54/43/86
f 35/16/87 57/48/87 58/46/87
f 57/48/88 60/24/88 59/23/88
f 21/7/89 61/51/89 62/49/89
f 64/27/90 63/26/90 62/49/90
f 31/22/91 65/54/91 66/52/91
f 68/30/92 67/29/92 66/52/92
f 22/55/93 9/62/93 19/56/93
f 40/9/94 6/6/94 61/51/94
f 14/58/95 9/64/95 22/59/95
f 24/61/96 42/101/96 19/56/96
f 14/58/97 67/100/97 24/63/97
f 4/65/98 41/36/98 23/28/98
f 20/66/99 10/75/99 26/67/99
f 26/69/100 10/73/100 17/70/100
f 25/13/101 48/15/101 5/4/101
f 27/10/102 44/12/102 3/1/102
f 28/72/103 50/98/103 17/70/103
f 20/66/104 43/97/104 28/74/104
f 16/76/105 12/85/105 30/77/105
f 30/79/106 12/83/106 13/80/106
f 8/5/107 53/45/107 29/25/107
f 60/24/108 2/2/108 65/54/108
f 32/82/109 66/102/109 13/80/109
f 16/76/110 59/99/110 32/84/110
f 18/86/111 11/96/111 34/87/111
f 34/89/112 11/94/112 15/90/112
f 45/39/113 33/19/113 56/21/113
f 52/18/114 1/3/114 57/48/114
f 36/93/115 58/103/115 15/90/115
f 18/86/116 51/104/116 36/95/116
f 39/57/117 19/56/117 20/66/117
f 5/4/118 6/6/118 40/9/118
f 19/56/119 42/101/119 43/97/119
f 3/1/120 44/12/120 41/36/120
f 17/70/121 18/86/121 46/88/121
f 45/39/122 7/92/122 5/4/122
f 50/98/123 51/104/123 18/86/123
f 52/18/124 49/42/124 3/1/124
f 15/90/125 16/76/125 54/78/125
f 7/92/126 56/21/126 53/45/126
f 15/90/127 58/103/127 59/99/127
f 57/48/128 1/3/128 2/2/128
f 63/81/129 13/80/129 14/58/129
f 8/5/130 64/27/130 61/51/130
f 13/80/131 66/102/131 67/100/131
f 2/2/132 4/65/132 68/30/132
