# Blender 5.0.1
# www.blender.org
mtllib BigCorridor.mtl
o BigCorridor
v -11.400001 0.000000 -5.100000
v -8.400001 0.000000 -4.500000
v -11.400001 0.000000 -7.500000
v -8.400001 0.000000 -7.500000
v -11.400001 0.000000 -2.100000
v -8.400001 0.000000 -2.700000
v -11.400001 0.000000 0.300000
v -8.400001 0.000000 0.300000
v -14.400001 0.000000 -5.100000
v -14.400001 0.000000 -2.100000
vn -0.0000 1.0000 -0.0000
vt 0.000000 0.000000
vt 1.000000 0.000000
vt 1.000000 1.000000
vt 0.000000 1.000000
s 0
usemtl BigCorridorFloor
f 6/1/1 5/2/1 8/3/1
f 1/2/1 6/4/1 2/1/1
f 2/1/1 4/2/1 1/3/1
f 1/2/1 10/4/1 5/1/1
f 7/1/1 8/2/1 5/3/1
f 3/1/1 1/2/1 4/3/1
f 1/2/1 5/3/1 6/4/1
f 1/2/1 9/3/1 10/4/1
