# Blender 5.1.0
# www.blender.org
mtllib CellVent.mtl
o CellVent
v -1.250000 0.000010 1.500000
v -1.250000 0.500010 1.500000
v -0.750000 0.500010 1.500000
v -0.750000 0.000010 1.500000
v -1.250000 0.000010 3.000000
v -1.250000 0.500010 3.000000
v -0.750000 0.500010 3.000000
v -0.750000 0.000010 3.000000
vn -0.0000 1.0000 -0.0000
vn -1.0000 -0.0000 -0.0000
vn 1.0000 -0.0000 -0.0000
vn -0.0000 -1.0000 -0.0000
vt -0.009693 2.042070
vt 1.009693 -1.016086
vt 1.009693 2.042070
vt 2.029078 0.003299
vt -1.029078 1.022685
vt 2.029078 1.022685
vt -1.029078 0.003299
vt -0.009693 -1.016086
s 0
usemtl MetalVent
f 1/1/1 8/2/1 4/3/1
f 4/4/2 7/5/2 3/6/2
f 2/6/3 5/7/3 1/4/3
f 3/3/4 6/8/4 2/1/4
f 1/1/1 5/8/1 8/2/1
f 4/4/2 8/7/2 7/5/2
f 2/6/3 6/5/3 5/7/3
f 3/3/4 7/2/4 6/8/4
