# Blender 5.1.0
# www.blender.org
mtllib Cell01Bottomless.mtl
o Cell01Bottomless
v -1.800000 0.000000 1.500000
v 1.200000 0.000000 1.500000
v -1.800000 0.000000 -2.500000
v 1.200000 0.000000 -2.500000
v 1.200000 0.000000 -0.300000
v 1.200000 0.000000 -0.500000
v 1.100000 0.000000 -0.500000
v 1.000000 0.000000 -0.600000
v 0.900000 0.000000 -0.500000
v 1.100000 0.000000 -0.300000
v 0.200000 0.000000 -2.500000
v 0.200000 0.000000 -1.400000
v 0.300000 0.000000 -1.300000
v 0.200000 0.000000 -1.200000
v 0.000000 0.000000 -1.400000
v 0.000000 0.000000 -2.500000
v -0.400000 0.000000 -2.500000
v -1.400000 0.000000 -2.500000
v -1.800000 0.000000 -0.300000
v -0.400000 0.000000 -2.700000
v -1.400000 0.000000 -2.700000
v -1.800000 3.000000 1.500000
v 1.200000 3.000000 1.500000
v -1.800000 3.000000 -2.500000
v 1.200000 3.000000 -2.500000
v 1.200000 3.000000 -0.300000
v 1.200000 3.000000 -0.500000
v 1.100000 3.000000 -0.500000
v 1.000000 3.000000 -0.600000
v 0.900000 3.000000 -0.500000
v 1.100000 3.000000 -0.300000
v 0.200000 3.000000 -2.500000
v 0.200000 3.000000 -1.400000
v 0.300000 3.000000 -1.300000
v 0.200000 3.000000 -1.200000
v 0.000000 3.000000 -1.400000
v 0.000000 3.000000 -2.500000
v -0.400000 3.000000 -2.500000
v -1.400000 3.000000 -2.500000
v -1.800000 3.000000 -0.300000
v 0.900000 2.000000 -0.500000
v 0.200000 2.000000 -1.200000
v 1.000000 2.000000 -0.600000
v 0.300000 2.000000 -1.300000
v -0.400000 2.000000 -2.500000
v -1.400000 2.000000 -2.500000
v -0.400000 2.000000 -2.700000
v -1.400000 2.000000 -2.700000
v 0.000000 3.000000 -0.300000
v 1.100000 -50.000000 -0.500000
v 1.000000 -50.000000 -0.600000
v 1.200000 -50.000000 -0.500000
v 1.200000 -50.000000 -2.500000
v 1.200000 -50.000000 1.500000
v 1.200000 -50.000000 -0.300000
v 0.900000 -50.000000 -0.500000
v 1.100000 -50.000000 -0.300000
v 0.200000 -50.000000 -2.500000
v 0.200000 -50.000000 -1.400000
v 0.300000 -50.000000 -1.300000
v 0.200000 -50.000000 -1.200000
v 0.000000 -50.000000 -1.400000
v 0.000000 -50.000000 -2.500000
v -0.400000 -50.000000 -2.500000
v -1.800000 -50.000000 -2.500000
v -1.400000 -50.000000 -2.500000
v -1.800000 -50.000000 1.500000
v 0.000000 -50.000000 -0.300000
v -1.800000 -50.000000 -0.300000
vn 1.0000 -0.0000 -0.0000
vn -0.7071 -0.0000 0.7071
vn -1.0000 -0.0000 -0.0000
vn 0.7071 -0.0000 0.7071
vn -0.0000 1.0000 -0.0000
vn 0.7071 -0.0000 -0.7071
vn -0.0000 -0.0000 -1.0000
vn -0.0000 -0.0000 1.0000
vn -0.0000 -1.0000 -0.0000
vn -0.7071 -0.0000 -0.7071
vt -2.000353 22.078882
vt 0.142504 -36.156551
vt 0.142504 22.078882
vt 0.947902 22.078882
vt 1.281236 -36.156551
vt 1.281236 22.078882
vt 0.142504 22.078882
vt -2.000353 -36.156551
vt 1.213933 22.078882
vt 1.332980 -36.156551
vt 1.332980 22.078882
vt 2.761551 22.078882
vt 0.380599 -36.156551
vt 0.380599 22.078882
vt 0.116104 23.737185
vt 1.317160 23.977396
vt 0.116104 23.977396
vt 1.447903 22.078882
vt 2.476707 22.078882
vt 2.781236 -36.156551
vt 2.781236 22.078882
vt 1.452028 22.078882
vt 2.761551 -36.156551
vt 2.614569 -36.156551
vt 2.614569 22.078882
vt 1.286230 22.078882
vt 2.476707 -36.156551
vt -1.094722 22.078882
vt -0.618532 -36.156551
vt -0.618532 22.078882
vt 0.571945 22.078882
vt 1.048135 -36.156551
vt 1.048135 22.078882
vt 2.447902 22.078882
vt 1.452028 -36.156551
vt 1.452028 25.650311
vt 2.476707 25.650311
vt 2.761551 25.650311
vt 0.142504 25.650311
vt -2.000353 25.650311
vt 1.281236 25.650311
vt 2.447902 24.459833
vt 2.447902 25.650311
vt -0.618532 24.459833
vt 0.142504 25.650311
vt 2.781236 25.650311
vt -0.618532 25.650311
vt 0.571945 24.459833
vt 0.571945 25.650311
vt 1.286230 25.650311
vt 0.180019 24.459833
vt 1.346685 25.650311
vt 0.180019 25.650311
vt 1.281236 24.459833
vt 0.947902 25.650311
vt 1.213933 24.459833
vt 1.286230 23.984730
vt 2.238611 23.270445
vt 2.119564 23.151398
vt 0.499647 22.078882
vt 2.614569 24.459833
vt 2.614569 25.650311
vt 1.447903 24.459833
vt 1.447903 25.650311
vt -1.094722 25.650311
vt 1.048135 25.650311
vt -0.618532 25.532351
vt 0.571945 25.770445
vt 0.571945 25.532351
vt 2.761551 24.459833
vt 2.999647 22.078882
vt 2.999647 24.459833
vt 2.476707 22.913303
vt 2.476707 20.770445
vt 2.357659 22.913303
vt -1.094722 20.770445
vt 1.048135 22.913303
vt 1.048135 24.222826
vt -1.094722 22.913303
vt -1.094722 25.532351
vt 1.048135 25.532351
vt 2.357659 23.151398
vt 2.476707 23.151398
vt 2.476707 25.532351
vt 1.405278 24.103781
vt 1.286230 25.532351
vt 1.286230 24.222826
vt -1.094722 -36.156551
vt 0.947902 -36.156551
vt 0.142504 -36.156551
vt 1.213933 -36.156551
vt 1.317160 23.737185
vt 1.447903 -36.156551
vt 1.286230 -36.156551
vt 0.571945 -36.156551
vt 2.447902 -36.156551
vt 0.380599 25.650311
vt 1.346685 24.459833
vt 0.380599 24.459833
vt -0.618532 25.770445
vt 0.571945 -36.155960
vt 0.499647 -36.156551
s 0
usemtl SmoothConcrete
f 51/58/5 61/57/5 56/59/5
f 55/73/5 57/75/5 54/74/5
f 57/75/5 67/76/5 54/74/5
f 57/75/5 56/59/5 68/77/5
f 56/59/5 61/57/5 68/77/5
f 61/57/5 62/78/5 68/77/5
f 67/76/5 57/75/5 68/77/5
f 68/77/5 69/79/5 67/76/5
f 66/67/5 65/80/5 69/79/5
f 68/77/5 62/78/5 69/79/5
f 63/81/5 64/69/5 62/78/5
f 69/79/5 62/78/5 66/67/5
f 62/78/5 64/69/5 66/67/5
f 50/82/5 52/83/5 51/58/5
f 52/83/5 53/84/5 51/58/5
f 51/58/5 53/84/5 60/85/5
f 58/86/5 59/87/5 53/84/5
f 59/87/5 60/85/5 53/84/5
f 51/58/5 60/85/5 61/57/5
usemtl Concrete
f 1/1/1 69/2/1 19/3/1
f 15/4/2 61/5/2 14/6/2
f 5/7/3 54/8/3 2/1/3
f 14/9/4 60/10/4 13/11/4
f 4/12/3 52/13/3 6/14/3
f 18/15/5 20/16/5 21/17/5
f 13/18/6 59/5/6 12/6/6
f 6/19/7 50/20/7 7/21/7
f 12/22/1 58/23/1 11/12/1
f 7/21/6 51/24/6 8/25/6
f 11/26/8 53/27/8 4/19/8
f 3/28/8 66/29/8 18/30/8
f 10/21/8 55/27/8 5/19/8
f 19/3/1 65/23/1 3/12/1
f 17/31/8 63/32/8 16/33/8
f 9/34/2 57/20/2 10/21/2
f 16/12/3 62/35/3 15/22/3
f 11/12/1 33/36/1 12/22/1
f 7/21/7 27/37/7 6/19/7
f 6/14/3 25/38/3 4/12/3
f 2/1/3 26/39/3 5/7/3
f 19/3/1 22/40/1 1/1/1
f 1/28/7 23/37/7 2/19/7
f 15/22/3 37/38/3 16/12/3
f 35/41/2 41/42/2 30/43/2
f 18/30/8 46/44/8 3/28/8
f 3/12/1 40/45/1 19/3/1
f 5/19/8 31/46/8 10/21/8
f 39/47/8 45/48/8 38/49/8
f 4/19/8 32/50/8 11/26/8
f 43/51/6 34/52/6 29/53/6
f 42/54/2 15/4/2 14/6/2
f 35/41/2 36/55/2 42/54/2
f 15/4/2 42/54/2 36/55/2
f 41/42/2 9/34/2 10/21/2
f 10/21/2 31/46/2 41/42/2
f 30/43/2 41/42/2 31/46/2
f 13/11/4 42/56/4 14/9/4
f 42/57/9 43/58/9 41/59/9
f 9/14/10 43/51/10 8/60/10
f 8/25/6 43/61/6 7/21/6
f 7/21/6 43/61/6 28/46/6
f 29/62/6 28/46/6 43/61/6
f 13/18/6 12/6/6 44/63/6
f 12/6/6 33/41/6 44/63/6
f 33/41/6 34/64/6 44/63/6
f 39/47/8 24/65/8 46/44/8
f 3/28/8 46/44/8 24/65/8
f 16/33/8 45/48/8 17/31/8
f 16/33/8 37/66/8 45/48/8
f 38/49/8 45/48/8 37/66/8
f 46/67/9 47/68/9 45/69/9
f 45/70/3 20/71/3 17/12/3
f 48/72/1 18/12/1 21/71/1
f 66/29/8 17/31/8 18/30/8
f 8/60/10 56/13/10 9/14/10
f 2/19/7 67/88/7 1/28/7
f 1/1/1 67/8/1 69/2/1
f 15/4/2 62/89/2 61/5/2
f 5/7/3 55/90/3 54/8/3
f 14/9/4 61/91/4 60/10/4
f 4/12/3 53/23/3 52/13/3
f 18/15/5 17/92/5 20/16/5
f 13/18/6 60/93/6 59/5/6
f 6/19/7 52/27/7 50/20/7
f 12/22/1 59/35/1 58/23/1
f 7/21/6 50/20/6 51/24/6
f 11/26/8 58/94/8 53/27/8
f 3/28/8 65/88/8 66/29/8
f 10/21/8 57/20/8 55/27/8
f 19/3/1 69/2/1 65/23/1
f 17/31/8 64/95/8 63/32/8
f 9/34/2 56/96/2 57/20/2
f 16/12/3 63/23/3 62/35/3
f 11/12/1 32/38/1 33/36/1
f 7/21/7 28/46/7 27/37/7
f 6/14/3 27/97/3 25/38/3
f 2/1/3 23/40/3 26/39/3
f 19/3/1 40/45/1 22/40/1
f 1/28/7 22/65/7 23/37/7
f 15/22/3 36/36/3 37/38/3
f 35/41/2 42/54/2 41/42/2
f 3/12/1 24/38/1 40/45/1
f 5/19/8 26/37/8 31/46/8
f 39/47/8 46/44/8 45/48/8
f 4/19/8 25/37/8 32/50/8
f 43/51/6 44/98/6 34/52/6
f 13/11/4 44/98/4 42/56/4
f 42/57/9 44/85/9 43/58/9
f 9/14/10 41/99/10 43/51/10
f 46/67/9 48/100/9 47/68/9
f 45/70/3 47/72/3 20/71/3
f 48/72/1 46/70/1 18/12/1
f 66/29/8 64/101/8 17/31/8
f 8/60/10 51/102/10 56/13/10
f 2/19/7 54/27/7 67/88/7
usemtl SmoothConcrete
f 26/73/9 23/74/9 31/75/9
f 31/75/9 23/74/9 22/76/9
f 31/75/9 49/77/9 30/59/9
f 30/59/9 49/77/9 35/57/9
f 35/57/9 49/77/9 36/78/9
f 22/76/9 49/77/9 31/75/9
f 49/77/9 22/76/9 40/79/9
f 39/67/9 40/79/9 24/80/9
f 49/77/9 40/79/9 36/78/9
f 37/81/9 36/78/9 38/69/9
f 40/79/9 39/67/9 36/78/9
f 36/78/9 39/67/9 38/69/9
f 28/82/9 29/58/9 27/83/9
f 27/83/9 29/58/9 25/84/9
f 29/58/9 34/85/9 25/84/9
f 32/86/9 25/84/9 33/87/9
f 33/87/9 25/84/9 34/85/9
