# Blender 5.1.0
# www.blender.org
mtllib Cell01.mtl
o Cell01
v -1.800000 0.000000 1.500000
v 1.200000 0.000000 1.500000
v -1.800000 0.000000 -2.500000
v 1.200000 0.000000 -2.500000
v 1.200000 0.000000 -0.300000
v 1.200000 0.000000 -0.500000
v 1.100000 0.000000 -0.500000
v 1.000000 0.000000 -0.600000
v 0.900000 0.000000 -0.500000
v 1.100000 0.000000 -0.300000
v 0.200000 0.000000 -2.500000
v 0.200000 0.000000 -1.400000
v 0.300000 0.000000 -1.300000
v 0.200000 0.000000 -1.200000
v 0.000000 0.000000 -1.400000
v 0.000000 0.000000 -2.500000
v -0.400000 0.000000 -2.500000
v -1.400000 0.000000 -2.500000
v 0.000000 0.000000 -0.300000
v -1.800000 0.000000 -0.300000
v -0.400000 0.000000 -2.700000
v -1.400000 0.000000 -2.700000
v -1.800000 3.000000 1.500000
v 1.200000 3.000000 1.500000
v -1.800000 3.000000 -2.500000
v 1.200000 3.000000 -2.500000
v 1.200000 3.000000 -0.300000
v 1.200000 3.000000 -0.500000
v 1.100000 3.000000 -0.500000
v 1.000000 3.000000 -0.600000
v 0.900000 3.000000 -0.500000
v 1.100000 3.000000 -0.300000
v 0.200000 3.000000 -2.500000
v 0.200000 3.000000 -1.400000
v 0.300000 3.000000 -1.300000
v 0.200000 3.000000 -1.200000
v 0.000000 3.000000 -1.400000
v 0.000000 3.000000 -2.500000
v -0.400000 3.000000 -2.500000
v -1.400000 3.000000 -2.500000
v -1.800000 3.000000 -0.300000
v 0.900000 2.000000 -0.500000
v 0.200000 2.000000 -1.200000
v 1.000000 2.000000 -0.600000
v 0.300000 2.000000 -1.300000
v -0.400000 2.000000 -2.500000
v -1.400000 2.000000 -2.500000
v -0.400000 2.000000 -2.700000
v -1.400000 2.000000 -2.700000
v 0.000000 3.000000 -0.300000
vn -0.0000 1.0000 -0.0000
vn 1.0000 -0.0000 -0.0000
vn -0.0000 -0.0000 -1.0000
vn -1.0000 -0.0000 -0.0000
vn -0.7071 -0.0000 0.7071
vn -0.0000 -0.0000 1.0000
vn 0.7071 -0.0000 -0.7071
vn 0.7071 -0.0000 0.7071
vn -0.0000 -1.0000 -0.0000
vn -0.7071 -0.0000 -0.7071
vt 2.085535 0.499647
vt 1.133154 1.213933
vt 1.966487 0.380599
vt 2.323630 0.142504
vt 2.204583 0.142504
vt 2.323630 -2.000353
vt -1.247798 -2.000353
vt 0.895059 0.142504
vt 0.895059 1.452028
vt -1.247798 0.142504
vt -0.771608 2.761551
vt -1.247798 2.761551
vt 0.895059 2.761551
vt 0.418868 2.761551
vt 2.204583 0.380599
vt 2.323630 0.380599
vt 2.323630 2.761551
vt 1.252202 1.332980
vt 1.133154 2.761551
vt 1.133154 1.452028
vt 0.418868 2.999647
vt -0.771608 2.999647
vt 2.761551 -1.215292
vt 1.452028 2.356137
vt 1.452028 -1.215292
vt 2.781236 -1.215292
vt 2.476707 2.356137
vt 2.476707 -1.215292
vt 0.380599 -1.215292
vt 2.761551 2.356137
vt -2.000353 -1.215292
vt 0.142504 2.356137
vt 0.142504 -1.215292
vt 0.142504 -1.215292
vt -2.000353 2.356137
vt -1.094722 -1.215292
vt 1.281236 2.356137
vt 2.447902 1.165661
vt 2.447902 2.356137
vt -0.618532 -1.215292
vt -0.618532 1.165661
vt 0.142504 2.356137
vt 2.781236 2.356137
vt -0.618532 2.356137
vt 0.571945 1.165661
vt 0.571945 2.356137
vt 1.286230 2.356137
vt 1.286230 -1.215292
vt 0.180019 1.165661
vt 1.346685 2.356137
vt 0.180019 2.356137
vt 1.281236 1.165661
vt 0.947902 -1.215292
vt 1.281236 -1.215292
vt 0.947902 2.356137
vt 2.447902 -1.215292
vt 1.332980 -1.215292
vt 1.213933 1.165661
vt 1.213933 -1.215292
vt 1.286230 0.690558
vt 2.238611 -0.023728
vt 2.119564 -0.142775
vt 0.499647 -1.215292
vt 2.614569 -1.215292
vt 2.614569 1.165661
vt 2.614569 2.356137
vt 1.447903 -1.215292
vt 1.447903 1.165661
vt 1.447903 2.356137
vt -1.094722 2.356137
vt 1.048135 -1.215292
vt 0.571945 -1.215292
vt 1.048135 2.356137
vt -0.618532 2.238177
vt 0.571945 2.476272
vt 0.571945 2.238177
vt 2.761551 1.165661
vt 2.999647 -1.215292
vt 2.999647 1.165661
vt 2.323630 0.237742
vt 2.323630 -1.905115
vt 2.204583 0.237742
vt -1.247798 -1.905115
vt 0.895059 0.237742
vt 1.966487 0.475837
vt 1.133154 1.309171
vt 0.895059 1.547266
vt -1.247798 0.237742
vt -0.771608 2.856790
vt -1.247798 2.856790
vt 0.895059 2.856790
vt 0.418868 2.856790
vt 2.204583 0.475837
vt 2.085535 0.594885
vt 2.323630 0.475837
vt 2.323630 2.856790
vt 1.252202 1.428218
vt 1.133154 2.856790
vt 1.133154 1.547266
vt 0.380599 2.356137
vt 1.346685 1.165661
vt 1.405278 0.809606
vt 0.380599 1.165661
vt -0.618532 2.476272
s 0
usemtl SmoothConcrete
f 8/1/1 14/2/1 9/3/1
f 5/4/1 10/5/1 2/6/1
f 10/5/1 1/7/1 2/6/1
f 10/5/1 9/3/1 19/8/1
f 9/3/1 14/2/1 19/8/1
f 14/2/1 15/9/1 19/8/1
f 1/7/1 10/5/1 19/8/1
f 19/8/1 20/10/1 1/7/1
f 18/11/1 3/12/1 20/10/1
f 19/8/1 15/9/1 20/10/1
f 16/13/1 17/14/1 15/9/1
f 20/10/1 15/9/1 18/11/1
f 15/9/1 17/14/1 18/11/1
f 7/15/1 6/16/1 8/1/1
f 6/16/1 4/17/1 8/1/1
f 8/1/1 4/17/1 13/18/1
f 11/19/1 12/20/1 4/17/1
f 12/20/1 13/18/1 4/17/1
f 18/11/1 21/21/1 22/22/1
f 8/1/1 13/18/1 14/2/1
f 18/11/1 17/14/1 21/21/1
usemtl Concrete
f 11/23/2 34/24/2 12/25/2
f 7/26/3 28/27/3 6/28/3
f 6/29/4 26/30/4 4/23/4
f 2/31/4 27/32/4 5/33/4
f 20/34/2 23/35/2 1/31/2
f 1/36/3 24/27/3 2/28/3
f 15/25/4 38/30/4 16/23/4
f 36/37/5 42/38/5 31/39/5
f 18/40/6 47/41/6 3/36/6
f 3/23/2 41/42/2 20/34/2
f 5/28/6 32/43/6 10/26/6
f 40/44/6 46/45/6 39/46/6
f 4/28/6 33/47/6 11/48/6
f 44/49/7 35/50/7 30/51/7
f 43/52/5 15/53/5 14/54/5
f 36/37/5 37/55/5 43/52/5
f 15/53/5 43/52/5 37/55/5
f 42/38/5 9/56/5 10/26/5
f 10/26/5 32/43/5 42/38/5
f 31/39/5 42/38/5 32/43/5
f 13/57/8 43/58/8 14/59/8
f 43/60/9 44/61/9 42/62/9
f 9/29/10 44/49/10 8/63/10
f 8/64/7 44/65/7 7/26/7
f 7/26/7 44/65/7 29/43/7
f 30/66/7 29/43/7 44/65/7
f 13/67/7 12/54/7 45/68/7
f 12/54/7 34/37/7 45/68/7
f 34/37/7 35/69/7 45/68/7
f 40/44/6 25/70/6 47/41/6
f 3/36/6 47/41/6 25/70/6
f 16/71/6 46/45/6 17/72/6
f 16/71/6 38/73/6 46/45/6
f 39/46/6 46/45/6 38/73/6
f 47/74/9 48/75/9 46/76/9
f 46/77/4 21/78/4 17/23/4
f 49/79/2 18/23/2 22/78/2
f 11/23/2 33/30/2 34/24/2
f 7/26/3 29/43/3 28/27/3
f 6/29/4 28/100/4 26/30/4
f 2/31/4 24/35/4 27/32/4
f 20/34/2 41/42/2 23/35/2
f 1/36/3 23/70/3 24/27/3
f 15/25/4 37/24/4 38/30/4
f 36/37/5 43/52/5 42/38/5
f 3/23/2 25/30/2 41/42/2
f 5/28/6 27/27/6 32/43/6
f 40/44/6 47/41/6 46/45/6
f 4/28/6 26/27/6 33/47/6
f 44/49/7 45/101/7 35/50/7
f 13/57/8 45/101/8 43/58/8
f 43/60/9 45/102/9 44/61/9
f 9/29/10 42/103/10 44/49/10
f 47/74/9 49/104/9 48/75/9
f 46/77/4 48/79/4 21/78/4
f 49/79/2 47/77/2 18/23/2
usemtl SmoothConcrete
f 27/80/9 24/81/9 32/82/9
f 32/82/9 24/81/9 23/83/9
f 32/82/9 50/84/9 31/85/9
f 31/85/9 50/84/9 36/86/9
f 36/86/9 50/84/9 37/87/9
f 23/83/9 50/84/9 32/82/9
f 50/84/9 23/83/9 41/88/9
f 40/89/9 41/88/9 25/90/9
f 50/84/9 41/88/9 37/87/9
f 38/91/9 37/87/9 39/92/9
f 41/88/9 40/89/9 37/87/9
f 37/87/9 40/89/9 39/92/9
f 29/93/9 30/94/9 28/95/9
f 28/95/9 30/94/9 26/96/9
f 30/94/9 35/97/9 26/96/9
f 33/98/9 26/96/9 34/99/9
f 34/99/9 26/96/9 35/97/9
