# Blender 5.0.1
# www.blender.org
mtllib Colliison.mtl
o Colliison
v -13.800000 0.000000 -8.900001
v -13.800000 0.000000 1.500000
v 7.300000 0.000000 -8.900001
v 7.300000 0.000000 1.500000
v 7.300000 3.000000 1.500000
v 7.300000 3.000000 -8.900001
v -13.800000 3.000000 1.500000
v -13.800000 3.000000 -8.900001
v 1.200000 3.000000 1.500000
v 1.200000 0.000000 1.500000
v -1.800000 3.000000 1.500000
v -1.800000 0.000000 1.500000
v -1.800000 3.000000 -2.500000
v -1.800000 0.000000 -2.500000
v 1.200000 3.000000 -0.300000
v 1.200000 0.000000 -0.300000
v 1.100000 3.000000 -0.300000
v 1.100000 0.000000 -0.300000
v -1.400000 2.000000 -2.500000
v -1.400000 0.000000 -2.500000
v -0.400000 2.000000 -2.500000
v -0.400000 0.000000 -2.500000
v 0.000000 0.000000 -2.500000
v 0.000000 3.000000 -2.500000
v -0.400000 3.000000 -2.500000
v -1.400000 3.000000 -2.500000
v 0.000000 0.000000 -1.400000
v 0.000000 3.000000 -1.400000
v 0.200000 0.000000 -1.200000
v 0.200000 3.000000 -1.200000
v 0.900000 3.000000 -0.500000
v 0.900000 0.000000 -0.500000
v 0.900000 2.000000 -0.500000
v 0.200000 2.000000 -1.200000
v 0.300000 0.000000 -1.300000
v 0.300000 2.000000 -1.300000
v 1.000000 0.000000 -0.600000
v 1.000000 2.000000 -0.600000
v 0.300000 3.000000 -1.300000
v 1.000000 3.000000 -0.600000
v 1.100000 0.000000 -0.500000
v 0.200000 0.000000 -1.400000
v 0.200000 3.000000 -1.400000
v 1.100000 3.000000 -0.500000
v 1.200000 0.000000 -0.500000
v 1.200000 3.000000 -0.500000
v 0.200000 0.000000 -2.500000
v 0.200000 3.000000 -2.500000
v 1.200000 0.000000 -2.500000
v 1.200000 3.000000 -2.500000
v -1.400000 2.000000 -2.700000
v -1.400000 0.000000 -2.700000
v -0.400000 2.000000 -2.700000
v -0.400000 0.000000 -2.700000
v -1.400000 3.000000 -2.700000
v -0.400000 3.000000 -2.700000
v -1.800000 3.000000 -2.700000
v 0.000000 3.000000 -2.700000
v 0.000000 0.000000 -2.700000
v -1.800000 0.000000 -2.700000
v 3.100000 3.000000 -2.700000
v 3.100000 0.000000 -2.700000
v -8.350000 3.000000 -2.700000
v -8.350000 0.000000 -2.700000
v 3.100000 0.000000 -3.100000
v 3.100000 2.000000 -3.100000
v 3.100000 3.000000 -3.100000
v 3.100000 3.000000 -4.100000
v 3.100000 2.000000 -4.100000
v 3.100000 3.000000 -4.500000
v 3.100000 0.000000 -4.500000
v 3.100000 0.000000 -4.100000
v 7.300000 3.000000 -5.700000
v 7.300000 0.000000 -5.700000
v 7.300000 3.000000 -2.700000
v 7.300000 0.000000 -2.700000
v 3.300000 3.000000 -2.700000
v 3.300000 0.000000 -2.700000
v 5.500000 3.000000 -5.700000
v 5.500000 0.000000 -5.700000
v 5.500000 3.000000 -5.600000
v 5.500000 0.000000 -5.600000
v 3.300000 2.000000 -3.100000
v 3.300000 0.000000 -3.100000
v 3.300000 2.000000 -4.100000
v 3.300000 0.000000 -4.100000
v 3.300000 0.000000 -4.500000
v 3.300000 3.000000 -4.500000
v 3.300000 3.000000 -4.100000
v 3.300000 3.000000 -3.100000
v 4.400000 0.000000 -4.500000
v 4.400000 3.000000 -4.500000
v 4.600000 0.000000 -4.700000
v 4.600000 3.000000 -4.700000
v 5.300000 3.000000 -5.400000
v 5.300000 0.000000 -5.400000
v 5.300000 2.000000 -5.400000
v 4.600000 2.000000 -4.700000
v 4.500000 0.000000 -4.800000
v 4.500000 2.000000 -4.800000
v 5.200000 0.000000 -5.500000
v 5.200000 2.000000 -5.500000
v 4.500000 3.000000 -4.800000
v 5.200000 3.000000 -5.500000
v 5.300000 0.000000 -5.600000
v 4.400000 0.000000 -4.700000
v 4.400000 3.000000 -4.700000
v 5.300000 3.000000 -5.600000
v 5.300000 0.000000 -5.700000
v 5.300000 3.000000 -5.700000
v 3.300000 0.000000 -4.700000
v 3.300000 3.000000 -4.700000
v 3.300000 0.000000 -5.700000
v 3.300000 3.000000 -5.700000
v 3.100000 3.000000 -8.700000
v 3.100000 0.000000 -8.700000
v -8.350000 3.000000 -4.500000
v -8.350000 0.000000 -4.500000
v -3.100000 2.000000 -4.500000
v -3.100000 0.000000 -4.500000
v -2.100000 2.000000 -4.500000
v -2.100000 0.000000 -4.500000
v 1.300000 3.000000 -4.500000
v 1.300000 0.000000 -4.500000
v 1.300000 3.000000 -7.400000
v 1.300000 3.000000 -8.400001
v 1.300000 0.000000 -8.400001
v 1.300000 3.000000 -8.700000
v 1.300000 0.000000 -8.700000
v -3.400000 3.000000 -4.500000
v -3.400000 0.000000 -4.500000
v -1.800000 3.000000 -4.500000
v -1.800000 0.000000 -4.500000
v -3.100000 3.000000 -4.500000
v -2.100000 3.000000 -4.500000
v 1.300000 3.000000 -7.100000
v 1.300000 0.000000 -7.100000
v 1.300000 2.000000 -7.400000
v 1.300000 0.000000 -7.400000
v 1.300000 2.000000 -8.400001
v 1.300000 0.000000 -8.400001
v 1.100000 0.000000 -7.400000
v 1.100000 2.000000 -7.400000
v 1.100000 2.000000 -8.400001
v 1.100000 0.000000 -8.400001
v -2.100000 2.000000 -4.700000
v -2.100000 0.000000 -4.700000
v -3.100000 2.000000 -4.700000
v -3.100000 0.000000 -4.700000
v 1.100000 0.000000 -7.100000
v 1.100000 0.000000 -8.700000
v 1.100000 3.000000 -7.100000
v 1.100000 3.000000 -8.700000
v 1.100000 3.000000 -8.400001
v 1.100000 3.000000 -7.400000
v 1.100000 0.000000 -4.700000
v 1.100000 3.000000 -4.700000
v -1.800000 0.000000 -4.700000
v -3.400000 0.000000 -4.700000
v -2.100000 3.000000 -4.700000
v -3.100000 3.000000 -4.700000
v -1.800000 3.000000 -4.700000
v -3.400000 3.000000 -4.700000
v 0.095238 3.000000 -7.400000
v 0.095238 3.000000 -8.400001
v 0.095238 0.000000 -8.400001
v 0.095238 3.000000 -8.700000
v 0.095238 0.000000 -8.700000
v 0.095238 3.000000 -7.100000
v 0.095238 0.000000 -7.100000
v 0.095238 2.000000 -7.400000
v 0.095238 0.000000 -7.400000
v 0.095238 2.000000 -8.400001
v 0.095238 0.000000 -8.400001
v -0.104762 0.000000 -7.400000
v -0.104762 2.000000 -7.400000
v -0.104762 2.000000 -8.400001
v -0.104762 0.000000 -8.400001
v -0.104762 0.000000 -7.100000
v -0.104762 3.000000 -7.100000
v -0.104762 3.000000 -8.400001
v -0.104762 3.000000 -7.400000
v 0.095238 3.000000 -5.700000
v 0.095238 0.000000 -5.700000
v -0.104762 0.000000 -5.900000
v -0.104762 3.000000 -5.900000
v -2.100000 3.000000 -5.700000
v -2.100000 0.000000 -5.700000
v -1.900000 0.000000 -5.900000
v -1.900000 3.000000 -5.900000
v -1.900000 0.000000 -8.900001
v -1.900000 3.000000 -8.900001
v -0.100000 0.000000 -8.900001
v -0.100000 3.000000 -8.900001
v -3.100000 3.000000 -5.700000
v -3.100000 0.000000 -5.700000
v -7.200000 3.000000 -5.700000
v -7.200000 0.000000 -5.700000
v -8.250000 0.000000 -4.700000
v -8.250000 3.000000 -4.700000
v -8.250000 0.000000 -5.700000
v -8.250000 3.000000 -5.700000
v -8.300000 2.100000 -4.700000
v -8.300000 2.800000 -5.700000
v 1.200000 2.100000 -4.700000
v 1.200000 2.800000 -5.700000
v -3.100000 2.100000 -9.650000
v -2.100000 2.800000 -9.650000
v -3.100000 2.100000 -0.750000
v -2.100000 2.800000 -0.750000
vn -0.0000 1.0000 -0.0000
vn -0.0000 -1.0000 -0.0000
vn -0.0000 -0.0000 -1.0000
vn 1.0000 -0.0000 -0.0000
vn -1.0000 -0.0000 -0.0000
vn -0.0000 -0.0000 1.0000
vn -0.7071 -0.0000 0.7071
vn 0.7071 -0.0000 0.7071
vn -0.7071 -0.0000 -0.7071
vn 0.7071 -0.0000 -0.7071
vn -1.0000 -0.0000 -0.0095
vn -0.0000 -0.8192 -0.5735
vn 0.5735 -0.8192 -0.0000
vt 0.000000 0.000000
s 0
f 4/1/1 1/1/1 2/1/1
f 8/1/2 5/1/2 7/1/2
f 10/1/3 11/1/3 9/1/3
f 12/1/4 13/1/4 11/1/4
f 9/1/5 16/1/5 10/1/5
f 15/1/6 18/1/6 16/1/6
f 21/1/6 26/1/6 19/1/6
f 26/1/6 13/1/6 19/1/6
f 14/1/6 19/1/6 13/1/6
f 20/1/6 19/1/6 14/1/6
f 22/1/6 23/1/6 21/1/6
f 23/1/6 24/1/6 21/1/6
f 25/1/6 21/1/6 24/1/6
f 23/1/5 28/1/5 24/1/5
f 28/1/7 34/1/7 30/1/7
f 30/1/7 33/1/7 31/1/7
f 31/1/7 33/1/7 17/1/7
f 18/1/7 17/1/7 33/1/7
f 33/1/7 32/1/7 18/1/7
f 29/1/7 34/1/7 27/1/7
f 27/1/7 34/1/7 28/1/7
f 29/1/8 36/1/8 34/1/8
f 33/1/9 37/1/9 32/1/9
f 34/1/2 38/1/2 33/1/2
f 36/1/10 40/1/10 38/1/10
f 38/1/10 40/1/10 44/1/10
f 39/1/10 36/1/10 43/1/10
f 42/1/10 43/1/10 36/1/10
f 36/1/10 35/1/10 42/1/10
f 37/1/10 38/1/10 41/1/10
f 44/1/10 41/1/10 38/1/10
f 45/1/3 44/1/3 46/1/3
f 42/1/4 48/1/4 43/1/4
f 47/1/6 50/1/6 48/1/6
f 46/1/5 49/1/5 45/1/5
f 21/1/5 54/1/5 22/1/5
f 20/1/4 51/1/4 19/1/4
f 19/1/2 53/1/2 21/1/2
f 51/1/3 56/1/3 53/1/3
f 55/1/3 51/1/3 57/1/3
f 51/1/3 52/1/3 60/1/3
f 57/1/3 51/1/3 60/1/3
f 53/1/3 56/1/3 58/1/3
f 59/1/3 53/1/3 58/1/3
f 54/1/3 53/1/3 59/1/3
f 58/1/3 62/1/3 59/1/3
f 60/1/3 63/1/3 57/1/3
f 65/1/5 62/1/5 66/1/5
f 61/1/5 66/1/5 62/1/5
f 66/1/5 61/1/5 67/1/5
f 66/1/5 68/1/5 69/1/5
f 72/1/5 69/1/5 71/1/5
f 71/1/5 69/1/5 70/1/5
f 69/1/5 68/1/5 70/1/5
f 74/1/5 75/1/5 73/1/5
f 76/1/3 77/1/3 75/1/3
f 73/1/6 80/1/6 74/1/6
f 79/1/4 82/1/4 80/1/4
f 85/1/4 90/1/4 83/1/4
f 90/1/4 77/1/4 83/1/4
f 78/1/4 83/1/4 77/1/4
f 84/1/4 83/1/4 78/1/4
f 86/1/4 87/1/4 85/1/4
f 87/1/4 88/1/4 85/1/4
f 89/1/4 85/1/4 88/1/4
f 87/1/6 92/1/6 88/1/6
f 92/1/8 98/1/8 94/1/8
f 94/1/8 97/1/8 95/1/8
f 95/1/8 97/1/8 81/1/8
f 82/1/8 81/1/8 97/1/8
f 97/1/8 96/1/8 82/1/8
f 93/1/8 98/1/8 91/1/8
f 91/1/8 98/1/8 92/1/8
f 93/1/10 100/1/10 98/1/10
f 97/1/7 101/1/7 96/1/7
f 97/1/2 100/1/2 102/1/2
f 100/1/9 104/1/9 102/1/9
f 102/1/9 104/1/9 108/1/9
f 103/1/9 100/1/9 107/1/9
f 106/1/9 107/1/9 100/1/9
f 100/1/9 99/1/9 106/1/9
f 101/1/9 102/1/9 105/1/9
f 108/1/9 105/1/9 102/1/9
f 109/1/5 108/1/5 110/1/5
f 106/1/3 112/1/3 107/1/3
f 111/1/4 114/1/4 112/1/4
f 110/1/6 113/1/6 109/1/6
f 83/1/3 65/1/3 66/1/3
f 85/1/2 66/1/2 69/1/2
f 86/1/6 69/1/6 72/1/6
f 70/1/5 116/1/5 71/1/5
f 123/1/6 133/1/6 124/1/6
f 119/1/6 134/1/6 130/1/6
f 131/1/6 117/1/6 118/1/6
f 137/1/4 123/1/4 124/1/4
f 129/1/1 127/1/1 141/1/1
f 141/1/1 127/1/1 140/1/1
f 121/1/6 134/1/6 119/1/6
f 135/1/6 121/1/6 132/1/6
f 122/1/6 133/1/6 121/1/6
f 120/1/6 119/1/6 131/1/6
f 130/1/6 131/1/6 119/1/6
f 132/1/6 121/1/6 133/1/6
f 137/1/4 139/1/4 138/1/4
f 128/1/4 126/1/4 140/1/4
f 129/1/4 128/1/4 140/1/4
f 140/1/4 125/1/4 138/1/4
f 136/1/4 138/1/4 125/1/4
f 137/1/4 138/1/4 136/1/4
f 118/1/4 63/1/4 64/1/4
f 138/1/3 142/1/3 143/1/3
f 140/1/2 143/1/2 144/1/2
f 140/1/6 145/1/6 141/1/6
f 121/1/5 147/1/5 122/1/5
f 120/1/4 148/1/4 119/1/4
f 148/1/2 121/1/2 119/1/2
f 144/1/5 155/1/5 154/1/5
f 155/1/5 143/1/5 152/1/5
f 152/1/5 143/1/5 150/1/5
f 143/1/5 142/1/5 150/1/5
f 154/1/5 153/1/5 144/1/5
f 153/1/5 151/1/5 144/1/5
f 144/1/5 151/1/5 145/1/5
f 150/1/5 157/1/5 152/1/5
f 148/1/3 160/1/3 146/1/3
f 161/1/3 148/1/3 163/1/3
f 148/1/3 159/1/3 163/1/3
f 149/1/3 159/1/3 148/1/3
f 147/1/3 146/1/3 158/1/3
f 146/1/3 160/1/3 162/1/3
f 158/1/3 146/1/3 162/1/3
f 156/1/3 162/1/3 157/1/3
f 168/1/1 166/1/1 174/1/1
f 174/1/1 166/1/1 173/1/1
f 170/1/4 172/1/4 171/1/4
f 167/1/4 165/1/4 173/1/4
f 168/1/4 167/1/4 173/1/4
f 173/1/4 164/1/4 171/1/4
f 169/1/4 171/1/4 164/1/4
f 170/1/4 171/1/4 169/1/4
f 171/1/3 175/1/3 176/1/3
f 173/1/2 176/1/2 177/1/2
f 173/1/6 178/1/6 174/1/6
f 177/1/5 182/1/5 181/1/5
f 182/1/5 176/1/5 180/1/5
f 180/1/5 176/1/5 179/1/5
f 176/1/5 175/1/5 179/1/5
f 169/1/4 184/1/4 170/1/4
f 179/1/5 186/1/5 180/1/5
f 183/1/6 188/1/6 184/1/6
f 185/1/3 190/1/3 186/1/3
f 189/1/4 192/1/4 190/1/4
f 191/1/6 194/1/6 192/1/6
f 178/1/11 177/1/11 193/1/11
f 193/1/11 177/1/11 194/1/11
f 177/1/11 181/1/11 194/1/11
f 195/1/6 198/1/6 196/1/6
f 159/1/3 200/1/3 163/1/3
f 199/1/4 202/1/4 200/1/4
f 204/1/12 205/1/12 203/1/12
f 208/1/13 209/1/13 207/1/13
f 4/1/1 3/1/1 1/1/1
f 8/1/2 6/1/2 5/1/2
f 10/1/3 12/1/3 11/1/3
f 12/1/4 14/1/4 13/1/4
f 9/1/5 15/1/5 16/1/5
f 15/1/6 17/1/6 18/1/6
f 21/1/6 25/1/6 26/1/6
f 23/1/5 27/1/5 28/1/5
f 30/1/7 34/1/7 33/1/7
f 29/1/8 35/1/8 36/1/8
f 33/1/9 38/1/9 37/1/9
f 34/1/2 36/1/2 38/1/2
f 36/1/10 39/1/10 40/1/10
f 45/1/3 41/1/3 44/1/3
f 42/1/4 47/1/4 48/1/4
f 47/1/6 49/1/6 50/1/6
f 46/1/5 50/1/5 49/1/5
f 21/1/5 53/1/5 54/1/5
f 20/1/4 52/1/4 51/1/4
f 19/1/2 51/1/2 53/1/2
f 51/1/3 55/1/3 56/1/3
f 58/1/3 61/1/3 62/1/3
f 60/1/3 64/1/3 63/1/3
f 66/1/5 67/1/5 68/1/5
f 74/1/5 76/1/5 75/1/5
f 76/1/3 78/1/3 77/1/3
f 73/1/6 79/1/6 80/1/6
f 79/1/4 81/1/4 82/1/4
f 85/1/4 89/1/4 90/1/4
f 87/1/6 91/1/6 92/1/6
f 94/1/8 98/1/8 97/1/8
f 93/1/10 99/1/10 100/1/10
f 97/1/7 102/1/7 101/1/7
f 97/1/2 98/1/2 100/1/2
f 100/1/9 103/1/9 104/1/9
f 109/1/5 105/1/5 108/1/5
f 106/1/3 111/1/3 112/1/3
f 111/1/4 113/1/4 114/1/4
f 110/1/6 114/1/6 113/1/6
f 83/1/3 84/1/3 65/1/3
f 85/1/2 83/1/2 66/1/2
f 86/1/6 85/1/6 69/1/6
f 70/1/5 115/1/5 116/1/5
f 123/1/6 132/1/6 133/1/6
f 131/1/6 130/1/6 117/1/6
f 137/1/4 136/1/4 123/1/4
f 129/1/4 140/1/4 127/1/4
f 121/1/6 135/1/6 134/1/6
f 140/1/4 126/1/4 125/1/4
f 118/1/4 117/1/4 63/1/4
f 138/1/3 139/1/3 142/1/3
f 140/1/2 138/1/2 143/1/2
f 140/1/6 144/1/6 145/1/6
f 121/1/5 146/1/5 147/1/5
f 120/1/4 149/1/4 148/1/4
f 148/1/2 146/1/2 121/1/2
f 144/1/5 143/1/5 155/1/5
f 150/1/5 156/1/5 157/1/5
f 148/1/3 161/1/3 160/1/3
f 156/1/3 158/1/3 162/1/3
f 168/1/4 173/1/4 166/1/4
f 173/1/4 165/1/4 164/1/4
f 171/1/3 172/1/3 175/1/3
f 173/1/2 171/1/2 176/1/2
f 173/1/6 177/1/6 178/1/6
f 177/1/5 176/1/5 182/1/5
f 169/1/4 183/1/4 184/1/4
f 179/1/5 185/1/5 186/1/5
f 183/1/6 187/1/6 188/1/6
f 185/1/3 189/1/3 190/1/3
f 189/1/4 191/1/4 192/1/4
f 191/1/6 193/1/6 194/1/6
f 195/1/6 197/1/6 198/1/6
f 159/1/3 199/1/3 200/1/3
f 199/1/4 201/1/4 202/1/4
f 204/1/12 206/1/12 205/1/12
f 208/1/13 210/1/13 209/1/13
