# Blender 5.0.1
# www.blender.org
mtllib Corridor.mtl
o Corridor
v -8.400001 0.000000 -2.700000
v 1.300000 0.000000 -2.700000
v -8.400001 0.000000 -4.500000
v 1.300000 0.000000 -4.500000
v 3.100000 0.000000 -2.700000
v 3.100000 0.000000 -6.300000
v 1.300000 0.000000 -10.500000
v 3.100000 0.000000 -9.500000
v -1.400000 0.000000 -2.700000
v -0.400000 0.000000 -2.700000
v -2.100000 0.000000 -4.500000
v -3.100000 0.000000 -4.500000
v -3.100000 0.000000 -2.700000
v 1.300000 0.000000 -8.400001
v 1.300000 0.000000 -7.400000
v 3.100000 0.000000 -7.300000
v -7.800000 0.000000 -2.700000
v -6.800000 0.000000 -2.700000
v -4.600000 0.000000 -2.700000
v -3.600000 0.000000 -2.700000
v -6.800000 0.000000 -4.500000
v -4.600000 0.000000 -4.500000
v 1.800000 0.000000 -2.700000
v 2.800000 0.000000 -2.700000
v 3.100000 0.000000 -3.100000
v 3.100000 0.000000 -4.100000
v 3.100000 0.000000 -10.500000
v 3.100000 0.000000 -12.100000
v 1.300000 0.000000 -12.100000
v -8.400001 3.000000 -2.700000
v 1.300000 3.000000 -2.700000
v -8.400001 3.000000 -4.500000
v 1.300000 3.000000 -4.500000
v 3.100000 3.000000 -2.700000
v 3.100000 3.000000 -6.300000
v 1.300000 3.000000 -10.500000
v 3.100000 3.000000 -9.500000
v -1.400000 3.000000 -2.700000
v -0.400000 3.000000 -2.700000
v -2.100000 3.000000 -4.500000
v -3.100000 3.000000 -4.500000
v -3.100000 3.000000 -2.700000
v 1.300000 3.000000 -8.400001
v 1.300000 3.000000 -7.400000
v 3.100000 3.000000 -7.300000
v -7.800000 3.000000 -2.700000
v -6.800000 3.000000 -2.700000
v -4.600000 3.000000 -2.700000
v -3.600000 3.000000 -2.700000
v -6.800000 3.000000 -4.500000
v -4.600000 3.000000 -4.500000
v 1.800000 3.000000 -2.700000
v 2.800000 3.000000 -2.700000
v 3.100000 3.000000 -3.100000
v 3.100000 3.000000 -4.100000
v 3.100000 3.000000 -10.500000
v 3.100000 3.000000 -12.100000
v 1.300000 3.000000 -12.100000
v -1.400000 2.000000 -2.700000
v -0.400000 2.000000 -2.700000
v -2.100000 2.000000 -4.500000
v -3.100000 2.000000 -4.500000
v -4.600000 2.000000 -2.700000
v -3.600000 2.000000 -2.700000
v -7.800000 2.000000 -2.700000
v -6.800000 2.000000 -2.700000
v 1.800000 2.000000 -2.700000
v 2.800000 2.000000 -2.700000
v 3.100000 2.000000 -3.100000
v 3.100000 2.000000 -4.100000
v 3.100000 2.000000 -6.300000
v 3.100000 2.000000 -7.300000
v 3.100000 2.000000 -9.500000
v 3.100000 2.000000 -10.500000
v 1.300000 2.000000 -8.400001
v 1.300000 2.000000 -7.400000
vn -0.0000 1.0000 -0.0000
vn 1.0000 -0.0000 -0.0000
vn -0.0000 -0.0000 -1.0000
vn -0.0000 -0.0000 1.0000
vn -1.0000 -0.0000 -0.0000
vn -0.0000 -1.0000 -0.0000
vt 1.010809 -0.421757
vt 1.010809 0.011974
vt 0.601175 -0.421757
vt 1.010809 1.457743
vt 1.010809 0.951724
vt 1.444540 1.216781
vt 0.191540 0.011974
vt 0.360214 -0.421757
vt -0.049421 0.011974
vt -0.049421 -0.421757
vt 1.444540 0.686666
vt 1.010809 0.710762
vt -1.326517 -0.421757
vt -1.181940 -0.421757
vt -1.326517 0.011974
vt -0.940979 0.011974
vt -0.940979 -0.421757
vt -0.410863 -0.421757
vt -0.410863 0.011974
vt -0.169902 -0.421757
vt 1.444540 -0.421757
vt 1.444540 -0.325372
vt 1.372252 -0.421757
vt 1.131290 -0.421757
vt 1.444540 -0.084411
vt 1.444540 0.445705
vt 1.444540 1.843281
vt 1.010809 1.843281
vt 1.444540 1.457743
vt 1.376640 -0.271528
vt 1.882659 -0.271528
vt 1.376640 0.210395
vt 1.372252 0.451357
vt 1.444540 0.451357
vt 1.372252 0.210395
vt -1.181940 0.451357
vt -1.181940 0.210395
vt -1.326517 0.451357
vt -0.410863 -0.271528
vt -0.940979 0.451357
vt -0.940979 -0.271528
vt 0.360214 0.210395
vt 0.360214 -0.271528
vt -0.049421 -0.271528
vt -0.049421 0.451357
vt -0.169902 0.210395
vt 0.003159 -0.271528
vt 0.099544 0.210395
vt 0.099544 -0.271528
vt 0.340505 0.451357
vt 0.099544 0.451357
vt -0.169902 0.451357
vt -0.410863 0.210395
vt -0.410863 0.451357
vt 1.131290 0.210395
vt 1.131290 0.451357
vt 1.135678 0.451357
vt 1.376640 0.451357
vt 1.111582 0.451357
vt 0.870620 0.210395
vt 0.870620 0.451357
vt 0.191540 0.451357
vt 0.191540 0.210395
vt 1.010809 0.451357
vt 2.268197 -0.271528
vt 1.882659 0.451357
vt -1.326517 -0.271528
vt 1.641697 0.210395
vt 1.641697 0.451357
vt 0.601175 0.451357
vt 0.360214 0.451357
vt 0.601175 0.210395
vt 1.010809 -0.271528
vt 0.601175 -0.271528
vt 0.191540 -0.271528
vt -0.049421 0.210395
vt -0.169902 -0.271528
vt -0.940979 0.210395
vt -1.181940 -0.271528
vt 1.444540 -0.271528
vt 1.372252 -0.271528
vt 1.131290 -0.271528
vt 0.003159 0.451357
vt 0.340505 -0.271528
vt 0.870620 -0.271528
vt 1.641697 -0.271528
vt 1.111582 0.210395
vt 1.882659 0.210395
vt 2.268197 0.451357
vt 0.436890 0.451357
vt 1.135678 0.210395
vt 0.436890 -0.271528
vt 1.135678 -0.271528
vt 0.340505 0.210395
vt 1.111582 -0.271528
s 0
usemtl GridFloor
f 2/1/1 4/2/1 10/3/1
f 7/4/1 14/5/1 8/6/1
f 4/2/1 11/7/1 10/3/1
f 10/3/1 11/7/1 9/8/1
f 11/7/1 12/9/1 13/10/1
f 13/10/1 9/8/1 11/7/1
f 8/6/1 14/5/1 16/11/1
f 14/5/1 15/12/1 16/11/1
f 1/13/1 17/14/1 3/15/1
f 17/14/1 21/16/1 3/15/1
f 18/17/1 21/16/1 17/14/1
f 19/18/1 22/19/1 21/16/1
f 19/18/1 21/16/1 18/17/1
f 12/9/1 20/20/1 13/10/1
f 20/20/1 12/9/1 22/19/1
f 19/18/1 20/20/1 22/19/1
f 5/21/1 25/22/1 24/23/1
f 4/2/1 2/1/1 23/24/1
f 4/2/1 26/25/1 6/26/1
f 23/24/1 26/25/1 4/2/1
f 26/25/1 23/24/1 25/22/1
f 23/24/1 24/23/1 25/22/1
f 16/11/1 15/12/1 6/26/1
f 6/26/1 15/12/1 4/2/1
f 28/27/1 29/28/1 27/29/1
f 7/4/1 8/6/1 27/29/1
f 29/28/1 7/4/1 27/29/1
usemtl GridWalls
f 14/30/2 7/31/2 75/32/2
f 22/39/4 50/40/4 21/41/4
f 44/57/2 75/32/2 43/58/2
f 40/62/4 61/63/4 33/64/4
f 29/65/2 36/66/2 7/31/2
f 21/41/4 32/38/4 3/67/4
f 41/45/4 61/63/4 40/62/4
f 4/73/4 33/64/4 61/63/4
f 4/73/4 61/63/4 11/75/4
f 62/76/4 22/39/4 12/44/4
f 51/54/4 22/39/4 62/76/4
f 41/45/4 51/54/4 62/76/4
f 36/66/2 75/32/2 7/31/2
f 43/58/2 75/32/2 36/66/2
f 44/57/2 33/90/2 76/91/2
f 4/92/2 76/91/2 33/90/2
f 15/93/2 76/91/2 4/92/2
f 22/39/4 51/54/4 50/40/4
f 44/57/2 76/91/2 75/32/2
f 29/65/2 58/89/2 36/66/2
f 21/41/4 50/40/4 32/38/4
f 41/45/4 62/76/4 61/63/4
usemtl GridCeiling
f 50/16/6 46/14/6 32/15/6
f 30/13/6 32/15/6 46/14/6
f 46/14/6 50/16/6 47/17/6
f 47/17/6 50/16/6 48/18/6
f 50/16/6 51/19/6 48/18/6
f 48/18/6 51/19/6 49/20/6
f 51/19/6 41/9/6 49/20/6
f 49/20/6 41/9/6 42/10/6
f 41/9/6 40/7/6 42/10/6
f 42/10/6 40/7/6 38/8/6
f 39/3/6 38/8/6 40/7/6
f 40/7/6 33/2/6 39/3/6
f 39/3/6 33/2/6 31/1/6
f 31/1/6 33/2/6 52/24/6
f 53/23/6 52/24/6 54/22/6
f 34/21/6 53/23/6 54/22/6
f 54/22/6 52/24/6 55/25/6
f 52/24/6 33/2/6 55/25/6
f 55/25/6 33/2/6 35/26/6
f 33/2/6 44/12/6 35/26/6
f 35/26/6 44/12/6 45/11/6
f 44/12/6 43/5/6 45/11/6
f 45/11/6 43/5/6 37/6/6
f 43/5/6 36/4/6 37/6/6
f 37/6/6 36/4/6 56/29/6
f 36/4/6 58/28/6 56/29/6
f 56/29/6 58/28/6 57/27/6
usemtl CorridorWalls
f 53/33/3 34/34/3 68/35/3
f 46/36/3 65/37/3 30/38/3
f 59/42/3 9/43/3 13/44/3
f 42/45/3 13/44/3 64/46/3
f 5/47/5 69/48/5 25/49/5
f 55/50/5 69/48/5 54/51/5
f 49/52/3 63/53/3 48/54/3
f 53/33/3 67/55/3 52/56/3
f 45/59/5 71/60/5 35/61/5
f 56/66/5 73/68/5 37/69/5
f 39/70/3 59/42/3 38/71/3
f 13/44/3 42/45/3 59/42/3
f 38/71/3 59/42/3 42/45/3
f 60/72/3 2/73/3 10/74/3
f 31/64/3 2/73/3 60/72/3
f 39/70/3 31/64/3 60/72/3
f 20/77/3 64/46/3 13/44/3
f 42/45/3 64/46/3 49/52/3
f 48/54/3 66/78/3 47/40/3
f 47/40/3 65/37/3 46/36/3
f 66/78/3 19/39/3 18/41/3
f 30/38/3 65/37/3 1/67/3
f 1/67/3 65/37/3 17/79/3
f 5/80/3 68/35/3 34/34/3
f 24/81/3 68/35/3 5/80/3
f 2/73/3 67/55/3 23/82/3
f 31/64/3 67/55/3 2/73/3
f 52/56/3 67/55/3 31/64/3
f 5/47/5 34/83/5 69/48/5
f 54/51/5 69/48/5 34/83/5
f 71/60/5 55/50/5 35/61/5
f 26/84/5 71/60/5 6/85/5
f 8/86/5 72/87/5 73/68/5
f 73/68/5 45/59/5 37/69/5
f 27/31/5 74/88/5 28/65/5
f 28/65/5 74/88/5 57/89/5
f 56/66/5 57/89/5 74/88/5
f 55/50/5 70/94/5 69/48/5
f 49/52/3 64/46/3 63/53/3
f 53/33/3 68/35/3 67/55/3
f 45/59/5 72/87/5 71/60/5
f 56/66/5 74/88/5 73/68/5
f 39/70/3 60/72/3 59/42/3
f 48/54/3 63/53/3 66/78/3
f 47/40/3 66/78/3 65/37/3
f 66/78/3 63/53/3 19/39/3
f 71/60/5 70/94/5 55/50/5
f 26/84/5 70/94/5 71/60/5
f 8/86/5 16/95/5 72/87/5
f 73/68/5 72/87/5 45/59/5
