# Blender 5.0.1
# www.blender.org
mtllib FakeCell01.mtl
o FakeCell01
v -5.000000 0.000000 1.500000
v -2.000000 0.000000 1.500000
v -2.000000 0.000000 -0.800000
v -3.600000 0.000000 -2.500000
v -4.600000 0.000000 -2.500000
v -5.000000 0.000000 -1.400000
v -3.600000 0.000000 -2.700000
v -4.600000 0.000000 -2.700000
v -5.000000 3.000000 1.500000
v -2.000000 3.000000 1.500000
v -2.000000 3.000000 -0.800000
v -5.000000 3.000000 -1.400000
v -3.600000 2.000000 -2.500000
v -4.600000 2.000000 -2.500000
v -3.600000 2.000000 -2.700000
v -4.600000 2.000000 -2.700000
v -3.200000 0.000000 -1.400000
v -3.200000 0.000000 -2.500000
v -3.200000 3.000000 -1.400000
v -3.200000 3.000000 -2.500000
v -5.000000 0.000000 -2.500000
v -5.000000 3.000000 -2.500000
vn -0.0000 1.0000 -0.0000
vn -1.0000 -0.0000 -0.0000
vn 1.0000 -0.0000 -0.0000
vn -0.0000 -0.0000 -1.0000
vn -0.0000 -1.0000 -0.0000
vt 0.870081 0.367739
vt 0.894129 0.247502
vt 0.894129 0.367739
vt 0.721112 0.848688
vt 0.997658 0.487976
vt 0.997658 0.848688
vt 0.363054 0.351031
vt 0.002342 0.002342
vt 0.363054 0.002342
vt 0.363054 0.848688
vt 0.002342 0.487976
vt 0.363054 0.487976
vt 0.898813 0.247502
vt 0.922861 0.367739
vt 0.898813 0.367739
vt 0.870081 0.002342
vt 0.894129 0.242817
vt 0.870081 0.242817
vt 0.898813 0.002342
vt 0.922861 0.242817
vt 0.898813 0.242817
vt 0.728451 0.002342
vt 0.728451 0.351031
vt 0.367739 0.002342
vt 0.716427 0.848688
vt 0.367739 0.487976
vt 0.644285 0.487976
vt 0.367739 0.848688
vt 0.512024 0.483292
vt 0.728451 0.483292
vt 0.733136 0.363054
vt 0.865397 0.002342
vt 0.865397 0.363054
vt 0.002342 0.483292
vt 0.002342 0.351031
vt 0.367739 0.278888
vt 0.512024 0.351031
vt 0.870081 0.247502
vt 0.721112 0.487976
vt 0.002342 0.848688
vt 0.922861 0.247502
vt 0.894129 0.002342
vt 0.922861 0.002342
vt 0.733136 0.002342
vt 0.363054 0.483292
s 0
usemtl CellFloor
f 5/1/1 7/2/1 8/3/1
f 6/25/1 2/26/1 3/27/1
f 1/28/1 2/26/1 6/25/1
f 5/1/1 4/38/1 7/2/1
usemtl CellWalls
f 2/4/2 11/5/2 3/6/2
f 6/7/3 9/8/3 1/9/3
f 1/10/4 10/11/4 2/12/4
f 14/13/5 15/14/5 13/15/5
f 13/16/2 7/17/2 4/18/2
f 16/19/3 5/20/3 8/21/3
f 17/31/2 20/32/2 18/33/2
f 6/7/3 22/34/3 12/35/3
f 2/4/2 10/39/2 11/5/2
f 6/7/3 12/35/3 9/8/3
f 1/10/4 9/40/4 10/11/4
f 14/13/5 16/41/5 15/14/5
f 13/16/2 15/42/2 7/17/2
f 16/19/3 14/43/3 5/20/3
f 17/31/2 19/44/2 20/32/2
f 6/7/3 21/45/3 22/34/3
usemtl CellCeiling
f 9/22/5 12/23/5 10/24/5
f 20/29/5 12/23/5 22/30/5
f 11/36/5 10/24/5 12/23/5
f 12/23/5 19/37/5 11/36/5
f 20/29/5 19/37/5 12/23/5
