# Blender 5.0.1
# www.blender.org
mtllib FakeCell02.mtl
o FakeCell02
v -8.200000 0.000000 1.500000
v -5.200000 0.000000 1.500000
v -5.200000 0.000000 -0.800000
v -6.800000 0.000000 -2.500000
v -7.800000 0.000000 -2.500000
v -8.200000 0.000000 -1.400000
v -6.800000 0.000000 -2.700000
v -7.800000 0.000000 -2.700000
v -8.200000 3.000000 1.500000
v -5.200000 3.000000 1.500000
v -5.200000 3.000000 -0.800000
v -8.200000 3.000000 -1.400000
v -6.800000 2.000000 -2.500000
v -7.800000 2.000000 -2.500000
v -6.800000 2.000000 -2.700000
v -7.800000 2.000000 -2.700000
v -6.400000 0.000000 -1.400000
v -6.400000 0.000000 -2.500000
v -6.400000 3.000000 -1.400000
v -6.400000 3.000000 -2.500000
v -8.200000 0.000000 -2.500000
v -8.200000 3.000000 -2.500000
vn -0.0000 1.0000 -0.0000
vn -1.0000 -0.0000 -0.0000
vn 1.0000 -0.0000 -0.0000
vn -0.0000 -0.0000 -1.0000
vn -0.0000 -1.0000 -0.0000
vt 0.303175 0.857937
vt 0.541270 0.905556
vt 0.303175 0.905556
vt -0.094444 0.126984
vt 0.453175 0.841270
vt 0.453175 0.126984
vt 0.596032 0.126984
vt -0.094444 0.841270
vt 0.207936 0.126984
vt 0.922222 0.841270
vt 0.922222 0.126984
vt 0.541270 0.857937
vt 0.857937 0.603175
vt 0.905556 0.126984
vt 0.857937 0.126984
vt 0.905556 0.603175
vt 0.207936 -0.094444
vt 0.207936 0.596032
vt 0.922222 -0.094444
vt 0.922222 0.453175
vt 0.636508 0.857937
vt 0.207936 0.857937
vt 0.857937 0.841270
vt 0.596032 0.841270
vt 0.636508 0.596032
vt 0.207936 0.841270
vt 0.303175 0.905556
s 0
usemtl GridFloor
f 5/1/1 7/2/1 8/3/1
f 6/18/1 2/19/1 3/20/1
f 1/17/1 2/19/1 6/18/1
f 5/1/1 4/12/1 7/2/1
usemtl GridWalls
f 2/4/2 11/5/2 3/6/2
f 6/7/3 9/8/3 1/4/3
f 1/9/4 10/10/4 2/11/4
f 14/1/5 15/2/5 13/12/5
f 13/13/2 7/14/2 4/15/2
f 16/16/3 5/15/3 8/14/3
f 17/7/2 20/23/2 18/15/2
f 6/7/3 22/23/3 12/24/3
f 2/4/2 10/8/2 11/5/2
f 6/7/3 12/24/3 9/8/3
f 1/9/4 9/26/4 10/10/4
f 14/1/5 16/27/5 15/2/5
f 13/13/2 15/16/2 7/14/2
f 16/16/3 14/13/3 5/15/3
f 17/7/2 19/24/2 20/23/2
f 6/7/3 21/15/3 22/23/3
usemtl GridCeiling
f 9/17/5 12/18/5 10/19/5
f 20/21/5 12/18/5 22/22/5
f 11/20/5 10/19/5 12/18/5
f 12/18/5 19/25/5 11/20/5
f 20/21/5 19/25/5 12/18/5
