# Blender 5.0.1
# www.blender.org
mtllib Janitor.mtl
o Janitor
v -1.900000 0.000000 -5.900000
v -0.100000 0.000000 -5.900000
v -0.100000 0.000000 -7.400000
v -0.100000 0.000000 -8.400001
v -0.100000 0.000000 -8.900001
v -1.900000 0.000000 -8.900001
v 0.100000 0.000000 -7.400000
v 0.100000 0.000000 -8.400000
vn -0.0000 1.0000 -0.0000
vt 0.000000 0.000000
vt 1.000000 0.000000
vt 1.000000 1.000000
vt 0.000000 1.000000
s 0
usemtl JanitorFloor
f 1/1/1 2/2/1 3/3/1
f 1/1/1 3/2/1 4/3/1
f 5/1/1 6/2/1 4/3/1
f 1/1/1 4/2/1 6/3/1
f 3/2/1 8/4/1 4/1/1
f 3/2/1 7/3/1 8/4/1
