# Blender 5.0.1
# www.blender.org
mtllib SecurityCorridor.mtl
o SecurityCorridor
v 0.100000 0.000000 -4.700000
v 1.100000 0.000000 -4.700000
v 0.100000 0.000000 -5.700000
v 1.100000 0.000000 -5.700000
v 0.100000 0.000000 -7.400000
v 1.100000 0.000000 -7.400000
v -2.100000 0.000000 -4.700000
v -2.100000 0.000000 -5.700000
v -3.100000 0.000000 -4.700000
v -3.100000 0.000000 -5.700000
v -7.200000 0.000000 -4.700000
v -7.200000 0.000000 -5.700000
v -8.200001 0.000000 -4.700000
v -8.200001 0.000000 -5.700000
v 0.100000 0.000000 -8.400001
v 1.100000 0.000000 -8.400001
v 0.100000 0.000000 -8.700000
v 1.100000 0.000000 -8.700000
v -2.100000 0.000000 -8.700000
v -3.100000 0.000000 -8.700000
v -7.200000 0.000000 -8.700000
v -8.200001 0.000000 -8.700000
v -2.100000 0.000000 -4.500000
v -3.100000 0.000000 -4.500000
v 1.300000 0.000000 -7.400000
v 1.300000 0.000000 -8.400000
v 0.100000 3.000000 -4.700000
v 1.100000 3.000000 -4.700000
v 1.100000 3.000000 -5.700000
v 1.100000 3.000000 -7.400000
v -2.100000 3.000000 -4.700000
v -3.100000 3.000000 -4.700000
v -7.200000 3.000000 -4.700000
v -8.200001 3.000000 -4.700000
v 1.100000 3.000000 -8.400001
v 1.100000 3.000000 -8.700000
v 1.100000 2.000000 -7.400000
v 1.100000 2.000000 -8.400001
v -2.100000 2.000000 -4.700000
v -3.100000 2.000000 -4.700000
v -2.100000 2.000000 -4.500000
v -3.100000 2.000000 -4.500000
v 1.300000 2.000000 -7.400000
v 1.300000 2.000000 -8.400001
v 0.100000 3.000000 -5.700000
v -2.100000 3.000000 -5.700000
v -3.100000 3.000000 -5.700000
v -7.200000 3.000000 -5.700000
v -2.100000 3.000000 -8.700000
v -3.100000 3.000000 -8.700000
v 0.100000 2.000000 -7.400000
v 0.100000 2.000000 -8.400001
v 0.100000 3.000000 -7.400000
v 0.100000 3.000000 -8.400001
v 0.100000 3.000000 -8.700000
v -8.200001 3.000000 -5.700000
v -7.200000 3.000000 -8.700000
v -8.200001 3.000000 -8.700000
v 1.200000 2.700000 -5.240000
v -8.300000 2.700000 -5.240000
v 1.200000 2.869706 -5.169706
v -8.300000 2.869706 -5.169706
v 1.200000 2.940000 -5.000000
v -8.300000 2.940000 -5.000000
v 1.200000 2.869706 -4.830295
v -8.300000 2.869706 -4.830295
v 1.200000 2.700000 -4.760000
v -8.300000 2.700000 -4.760000
v 1.200000 2.530294 -4.830295
v -8.300000 2.530295 -4.830295
v 1.200000 2.460000 -5.000000
v -8.300000 2.460000 -5.000000
v 1.200000 2.530294 -5.169706
v -8.300000 2.530295 -5.169706
v 0.034738 2.700000 -5.260538
v -0.034739 2.700000 -5.260538
v 0.034738 2.884228 -5.184228
v -0.034739 2.884228 -5.184228
v 0.034738 2.960537 -5.000000
v -0.034739 2.960537 -5.000000
v 0.034738 2.884228 -4.815772
v -0.034739 2.884228 -4.815772
v 0.034738 2.700000 -4.739462
v -0.034739 2.700000 -4.739462
v 0.034738 2.515772 -4.815772
v -0.034739 2.515773 -4.815772
v 0.034738 2.439462 -5.000000
v -0.034739 2.439463 -5.000000
v 0.034738 2.515772 -5.184228
v -0.034739 2.515773 -5.184228
v -0.965262 2.700000 -5.260538
v -1.034738 2.700000 -5.260538
v -0.965262 2.884228 -5.184228
v -1.034738 2.884228 -5.184228
v -0.965262 2.960537 -5.000000
v -1.034738 2.960537 -5.000000
v -0.965262 2.884228 -4.815772
v -1.034738 2.884228 -4.815772
v -0.965262 2.700000 -4.739462
v -1.034738 2.700000 -4.739462
v -0.965262 2.515772 -4.815772
v -1.034738 2.515773 -4.815772
v -0.965262 2.439462 -5.000000
v -1.034738 2.439463 -5.000000
v -0.965262 2.515772 -5.184228
v -1.034738 2.515773 -5.184228
v -1.965262 2.700000 -5.260538
v -2.034739 2.700000 -5.260538
v -1.965262 2.884228 -5.184228
v -2.034739 2.884228 -5.184228
v -1.965262 2.960537 -5.000000
v -2.034739 2.960537 -5.000000
v -1.965262 2.884228 -4.815772
v -2.034739 2.884228 -4.815772
v -1.965262 2.700000 -4.739462
v -2.034739 2.700000 -4.739462
v -1.965262 2.515772 -4.815772
v -2.034739 2.515773 -4.815772
v -1.965262 2.439462 -5.000000
v -2.034739 2.439463 -5.000000
v -1.965262 2.515772 -5.184228
v -2.034739 2.515773 -5.184228
v -2.965261 2.700000 -5.260538
v -3.034739 2.700000 -5.260538
v -2.965261 2.884228 -5.184228
v -3.034739 2.884228 -5.184228
v -2.965261 2.960537 -5.000000
v -3.034739 2.960537 -5.000000
v -2.965261 2.884228 -4.815772
v -3.034739 2.884228 -4.815772
v -2.965261 2.700000 -4.739462
v -3.034739 2.700000 -4.739462
v -2.965261 2.515772 -4.815772
v -3.034739 2.515773 -4.815772
v -2.965261 2.439462 -5.000000
v -3.034739 2.439463 -5.000000
v -2.965261 2.515772 -5.184228
v -3.034739 2.515773 -5.184228
v -3.965261 2.700000 -5.260538
v -4.034739 2.700000 -5.260538
v -3.965261 2.884228 -5.184228
v -4.034739 2.884228 -5.184228
v -3.965261 2.960537 -5.000000
v -4.034739 2.960537 -5.000000
v -3.965261 2.884228 -4.815772
v -4.034739 2.884228 -4.815772
v -3.965261 2.700000 -4.739462
v -4.034739 2.700000 -4.739462
v -3.965261 2.515772 -4.815772
v -4.034739 2.515773 -4.815772
v -3.965261 2.439462 -5.000000
v -4.034739 2.439463 -5.000000
v -3.965261 2.515772 -5.184228
v -4.034739 2.515773 -5.184228
v -4.965261 2.700000 -5.260538
v -5.034739 2.700000 -5.260538
v -4.965261 2.884228 -5.184228
v -5.034739 2.884228 -5.184228
v -4.965261 2.960537 -5.000000
v -5.034739 2.960537 -5.000000
v -4.965261 2.884228 -4.815772
v -5.034739 2.884228 -4.815772
v -4.965261 2.700000 -4.739462
v -5.034739 2.700000 -4.739462
v -4.965261 2.515772 -4.815772
v -5.034739 2.515773 -4.815772
v -4.965261 2.439462 -5.000000
v -5.034739 2.439463 -5.000000
v -4.965261 2.515772 -5.184228
v -5.034739 2.515773 -5.184228
v -5.965261 2.700000 -5.260538
v -6.034739 2.700000 -5.260538
v -5.965261 2.884228 -5.184228
v -6.034739 2.884228 -5.184228
v -5.965261 2.960537 -5.000000
v -6.034739 2.960537 -5.000000
v -5.965261 2.884228 -4.815772
v -6.034739 2.884228 -4.815772
v -5.965261 2.700000 -4.739462
v -6.034739 2.700000 -4.739462
v -5.965261 2.515772 -4.815772
v -6.034739 2.515773 -4.815772
v -5.965261 2.439462 -5.000000
v -6.034739 2.439463 -5.000000
v -5.965261 2.515772 -5.184228
v -6.034739 2.515773 -5.184228
v -6.965261 2.700000 -5.260538
v -7.034739 2.700000 -5.260538
v -6.965261 2.884228 -5.184228
v -7.034739 2.884228 -5.184228
v -6.965261 2.960537 -5.000000
v -7.034739 2.960537 -5.000000
v -6.965261 2.884228 -4.815772
v -7.034739 2.884228 -4.815772
v -6.965261 2.700000 -4.739462
v -7.034739 2.700000 -4.739462
v -6.965261 2.515772 -4.815772
v -7.034739 2.515773 -4.815772
v -6.965261 2.439462 -5.000000
v -7.034739 2.439463 -5.000000
v -6.965261 2.515772 -5.184228
v -7.034739 2.515773 -5.184228
vn -0.0000 1.0000 -0.0000
vn -1.0000 -0.0000 -0.0000
vn -0.0000 -0.0000 -1.0000
vn -0.0000 -1.0000 -0.0000
vn 1.0000 -0.0000 -0.0000
vn -0.0000 -0.0000 1.0000
vn -0.0000 0.3827 -0.9239
vn -0.0000 0.9239 -0.3827
vn -0.0000 0.9239 0.3827
vn -0.0000 0.3827 0.9239
vn -0.0000 -0.3827 0.9239
vn -0.0000 -0.9239 0.3827
vn -0.0000 -0.9239 -0.3827
vn -0.0000 -0.3827 -0.9239
vt 1.585830 -0.125837
vt 1.345379 0.114614
vt 1.345379 -0.125837
vt 1.585830 0.114614
vt 1.345379 0.523381
vt 0.816387 -0.125837
vt 0.816387 0.114614
vt 0.575936 -0.125837
vt 0.575936 0.114614
vt -0.409913 -0.125837
vt -0.409913 0.114614
vt -0.650364 -0.125837
vt 1.585830 0.523381
vt 1.345379 0.763832
vt 1.585830 0.763832
vt 1.345379 0.835967
vt 0.575936 0.835967
vt -0.650364 0.835967
vt -0.650364 0.114614
vt 0.575936 -0.173927
vt 0.816387 -0.173927
vt 1.633921 0.763832
vt 0.558117 -0.092488
vt 0.798568 0.628865
vt 0.798568 -0.092488
vt 1.345379 -0.092488
vt 1.585830 0.628865
vt 1.585830 -0.092488
vt -0.650364 -0.092488
vt -0.409913 0.628865
vt -0.409913 -0.092488
vt 1.447785 0.628865
vt 1.207334 0.388414
vt 1.207334 0.628865
vt 0.816387 0.388414
vt 0.575936 0.628865
vt 0.816387 0.628865
vt 1.207334 -0.092488
vt 1.447785 0.388414
vt 1.519921 -0.092488
vt 1.447785 -0.092488
vt 1.519921 0.628865
vt 0.816387 -0.092488
vt 1.345379 0.628865
vt 0.575936 -0.092488
vt 0.575936 0.388414
vt 0.510027 0.388414
vt 0.510027 -0.092488
vt 0.558117 0.388414
vt 1.633921 0.523381
vt 1.585830 0.388414
vt 1.633921 -0.092488
vt 1.633921 0.388414
vt 0.364472 0.753098
vt 0.124946 0.034520
vt 0.364472 0.034520
vt 1.083050 0.034520
vt 1.083050 0.753098
vt 0.747740 2.062695
vt 0.685805 -0.662441
vt 0.747740 -0.662441
vt 0.685805 2.062695
vt 0.623870 -0.662441
vt 0.623870 2.062695
vt 0.561935 -0.662441
vt 0.561935 2.062695
vt 0.500000 -0.662441
vt 0.500000 2.062695
vt 0.438065 -0.662441
vt 0.438065 2.062695
vt 0.376130 -0.662441
vt 0.376130 2.062695
vt 0.314195 -0.662441
vt 0.252260 2.062695
vt 0.252260 -0.662441
vt 0.750000 0.718750
vt 0.687500 0.689335
vt 0.750000 0.689335
vt 0.687500 0.718750
vt 0.625000 0.689335
vt 0.625000 0.718750
vt 0.562500 0.689335
vt 0.500000 0.718750
vt 0.500000 0.689335
vt 0.437500 0.718750
vt 0.437500 0.689335
vt 0.375000 0.718750
vt 0.375000 0.689335
vt -0.370000 0.343750
vt -0.250000 0.223750
vt -0.130000 0.343750
vt 0.312500 0.689335
vt 0.312500 0.718750
vt 0.250000 0.689335
vt 0.084853 0.258897
vt -0.084853 0.258897
vt -0.084853 0.428603
vt 0.562500 0.718750
vt 1.585830 0.835967
vt 0.816387 0.835967
vt -0.409913 0.835967
vt 0.558117 0.628865
vt -0.650364 0.628865
vt 1.633921 0.763832
vt 0.124946 0.753098
vt 0.314195 2.062695
vt -0.165147 0.428603
vt -0.250000 0.463750
vt -0.334853 0.428603
vt -0.334853 0.258897
vt -0.165147 0.258897
vt 0.250000 0.718750
vt 0.000000 0.463750
vt 0.084853 0.428603
vt 0.120000 0.343750
vt 0.000000 0.223750
vt -0.120000 0.343750
s 0
usemtl SecurityCorridorFloor
f 2/1/1 3/2/1 1/3/1
f 4/4/1 5/5/1 3/2/1
f 3/2/1 7/6/1 1/3/1
f 8/7/1 9/8/1 7/6/1
f 10/9/1 11/10/1 9/8/1
f 12/11/1 13/12/1 11/10/1
f 6/13/1 15/14/1 5/5/1
f 16/15/1 17/16/1 15/14/1
f 8/7/1 20/17/1 10/9/1
f 12/11/1 22/18/1 14/19/1
f 7/6/1 24/20/1 23/21/1
f 6/13/1 26/22/1 16/15/1
f 2/1/1 4/4/1 3/2/1
f 4/4/1 6/13/1 5/5/1
f 3/2/1 8/7/1 7/6/1
f 8/7/1 10/9/1 9/8/1
f 10/9/1 12/11/1 11/10/1
f 12/11/1 14/19/1 13/12/1
f 6/13/1 16/15/1 15/14/1
f 16/15/1 18/99/1 17/16/1
f 8/7/1 19/100/1 20/17/1
f 12/11/1 21/101/1 22/18/1
f 7/6/1 9/8/1 24/20/1
f 6/13/1 25/50/1 26/22/1
usemtl SecurityCorridorWall
f 2/23/2 29/24/2 4/25/2
f 1/26/3 28/27/3 2/28/3
f 13/29/3 33/30/3 11/31/3
f 35/32/2 37/33/2 30/34/2
f 39/35/3 32/36/3 31/37/3
f 37/33/2 6/38/2 4/25/2
f 4/25/2 29/24/2 37/33/2
f 30/34/2 37/33/2 29/24/2
f 38/39/2 18/40/2 16/41/2
f 36/42/2 38/39/2 35/32/2
f 18/40/2 38/39/2 36/42/2
f 39/35/3 1/26/3 7/43/3
f 31/37/3 27/44/3 39/35/3
f 1/26/3 39/35/3 27/44/3
f 9/45/3 11/31/3 40/46/3
f 11/31/3 33/30/3 40/46/3
f 32/36/3 40/46/3 33/30/3
f 41/21/4 40/8/4 39/6/4
f 9/23/5 42/47/5 24/48/5
f 23/48/2 39/49/2 7/23/2
f 38/15/4 43/50/4 37/13/4
f 37/51/3 25/52/3 6/28/3
f 44/53/6 16/28/6 26/52/6
f 10/25/5 50/42/5 47/24/5
f 19/40/2 46/24/2 49/42/2
f 12/31/6 47/36/6 48/30/6
f 3/26/6 46/37/6 8/43/6
f 52/39/5 53/34/5 51/33/5
f 3/25/5 5/38/5 51/33/5
f 45/24/5 3/25/5 51/33/5
f 51/33/5 53/34/5 45/24/5
f 15/41/5 17/40/5 52/39/5
f 54/32/5 52/39/5 55/42/5
f 52/39/5 17/40/5 55/42/5
f 56/54/5 13/55/5 14/56/5
f 48/54/2 21/57/2 12/56/2
f 58/58/5 14/56/5 22/57/5
f 2/23/2 28/102/2 29/24/2
f 1/26/3 27/44/3 28/27/3
f 13/29/3 34/103/3 33/30/3
f 35/32/2 38/39/2 37/33/2
f 39/35/3 40/46/3 32/36/3
f 41/21/4 42/20/4 40/8/4
f 9/23/5 40/49/5 42/47/5
f 23/48/2 41/47/2 39/49/2
f 38/15/4 44/104/4 43/50/4
f 37/51/3 43/53/3 25/52/3
f 44/53/6 38/51/6 16/28/6
f 10/25/5 20/40/5 50/42/5
f 19/40/2 8/25/2 46/24/2
f 12/31/6 10/45/6 47/36/6
f 3/26/6 45/44/6 46/37/6
f 52/39/5 54/32/5 53/34/5
f 56/54/5 34/105/5 13/55/5
f 48/54/2 57/58/2 21/57/2
f 58/58/5 56/54/5 14/56/5
usemtl SecurityCorridorCeiling
f 45/2/4 28/1/4 27/3/4
f 53/5/4 29/4/4 45/2/4
f 31/6/4 45/2/4 27/3/4
f 32/8/4 46/7/4 31/6/4
f 33/10/4 47/9/4 32/8/4
f 34/12/4 48/11/4 33/10/4
f 54/14/4 30/13/4 53/5/4
f 55/16/4 35/15/4 54/14/4
f 50/17/4 46/7/4 47/9/4
f 58/18/4 48/11/4 56/19/4
f 45/2/4 29/4/4 28/1/4
f 53/5/4 30/13/4 29/4/4
f 31/6/4 46/7/4 45/2/4
f 32/8/4 47/9/4 46/7/4
f 33/10/4 48/11/4 47/9/4
f 34/12/4 56/19/4 48/11/4
f 54/14/4 35/15/4 30/13/4
f 55/16/4 36/99/4 35/15/4
f 50/17/4 49/100/4 46/7/4
f 58/18/4 57/101/4 48/11/4
usemtl SecurityCorridorPipe
f 60/59/7 61/60/7 59/61/7
f 62/62/8 63/63/8 61/60/8
f 64/64/9 65/65/9 63/63/9
f 66/66/10 67/67/10 65/65/10
f 68/68/11 69/69/11 67/67/11
f 70/70/12 71/71/12 69/69/12
f 72/72/13 73/73/13 71/71/13
f 73/73/14 60/74/14 59/75/14
f 76/76/7 77/77/7 75/78/7
f 78/79/8 79/80/8 77/77/8
f 80/81/9 81/82/9 79/80/9
f 81/82/10 84/83/10 83/84/10
f 83/84/11 86/85/11 85/86/11
f 85/86/12 88/87/12 87/88/12
f 88/89/2 84/90/2 80/91/2
f 88/87/13 89/92/13 87/88/13
f 90/93/14 75/94/14 89/92/14
f 81/95/5 85/96/5 89/97/5
f 92/76/7 93/77/7 91/78/7
f 94/79/8 95/80/8 93/77/8
f 96/81/9 97/82/9 95/80/9
f 98/98/10 99/84/10 97/82/10
f 99/84/11 102/85/11 101/86/11
f 101/86/12 104/87/12 103/88/12
f 104/89/2 100/90/2 96/91/2
f 104/87/13 105/92/13 103/88/13
f 106/93/14 91/94/14 105/92/14
f 97/95/5 101/96/5 105/97/5
f 108/76/7 109/77/7 107/78/7
f 110/79/8 111/80/8 109/77/8
f 112/81/9 113/82/9 111/80/9
f 113/82/10 116/83/10 115/84/10
f 115/84/11 118/85/11 117/86/11
f 117/86/12 120/87/12 119/88/12
f 120/89/2 116/90/2 112/91/2
f 120/87/13 121/92/13 119/88/13
f 122/93/14 107/94/14 121/92/14
f 113/95/5 117/96/5 121/97/5
f 124/76/7 125/77/7 123/78/7
f 126/79/8 127/80/8 125/77/8
f 128/81/9 129/82/9 127/80/9
f 130/98/10 131/84/10 129/82/10
f 131/84/11 134/85/11 133/86/11
f 133/86/12 136/87/12 135/88/12
f 136/89/2 132/90/2 128/91/2
f 136/87/13 137/92/13 135/88/13
f 138/93/14 123/94/14 137/92/14
f 129/95/5 133/96/5 137/97/5
f 140/76/7 141/77/7 139/78/7
f 142/79/8 143/80/8 141/77/8
f 144/81/9 145/82/9 143/80/9
f 145/82/10 148/83/10 147/84/10
f 147/84/11 150/85/11 149/86/11
f 149/86/12 152/87/12 151/88/12
f 152/89/2 148/90/2 144/91/2
f 152/87/13 153/92/13 151/88/13
f 154/93/14 139/94/14 153/92/14
f 145/95/5 149/96/5 153/97/5
f 156/76/7 157/77/7 155/78/7
f 158/79/8 159/80/8 157/77/8
f 160/81/9 161/82/9 159/80/9
f 161/82/10 164/83/10 163/84/10
f 163/84/11 166/85/11 165/86/11
f 165/86/12 168/87/12 167/88/12
f 168/89/2 164/90/2 160/91/2
f 168/87/13 169/92/13 167/88/13
f 170/93/14 155/94/14 169/92/14
f 161/95/5 165/96/5 169/97/5
f 172/76/7 173/77/7 171/78/7
f 174/79/8 175/80/8 173/77/8
f 176/81/9 177/82/9 175/80/9
f 178/98/10 179/84/10 177/82/10
f 179/84/11 182/85/11 181/86/11
f 182/85/12 183/88/12 181/86/12
f 184/89/2 180/90/2 176/91/2
f 183/88/13 186/93/13 185/92/13
f 186/93/14 171/94/14 185/92/14
f 177/95/5 181/96/5 185/97/5
f 188/76/7 189/77/7 187/78/7
f 190/79/8 191/80/8 189/77/8
f 192/81/9 193/82/9 191/80/9
f 193/82/10 196/83/10 195/84/10
f 195/84/11 198/85/11 197/86/11
f 198/85/12 199/88/12 197/86/12
f 200/89/2 196/90/2 192/91/2
f 199/88/13 202/93/13 201/92/13
f 202/93/14 187/94/14 201/92/14
f 193/95/5 197/96/5 201/97/5
f 60/59/7 62/62/7 61/60/7
f 62/62/8 64/64/8 63/63/8
f 64/64/9 66/66/9 65/65/9
f 66/66/10 68/68/10 67/67/10
f 68/68/11 70/70/11 69/69/11
f 70/70/12 72/72/12 71/71/12
f 72/72/13 74/106/13 73/73/13
f 73/73/14 74/106/14 60/74/14
f 76/76/7 78/79/7 77/77/7
f 78/79/8 80/81/8 79/80/8
f 80/81/9 82/98/9 81/82/9
f 81/82/10 82/98/10 84/83/10
f 83/84/11 84/83/11 86/85/11
f 85/86/12 86/85/12 88/87/12
f 80/91/2 78/107/2 76/108/2
f 76/108/2 90/109/2 88/89/2
f 88/89/2 86/110/2 84/90/2
f 84/90/2 82/111/2 80/91/2
f 80/91/2 76/108/2 88/89/2
f 88/87/13 90/93/13 89/92/13
f 90/93/14 76/112/14 75/94/14
f 89/97/5 75/113/5 77/114/5
f 77/114/5 79/115/5 81/95/5
f 81/95/5 83/116/5 85/96/5
f 85/96/5 87/117/5 89/97/5
f 89/97/5 77/114/5 81/95/5
f 92/76/7 94/79/7 93/77/7
f 94/79/8 96/81/8 95/80/8
f 96/81/9 98/98/9 97/82/9
f 98/98/10 100/83/10 99/84/10
f 99/84/11 100/83/11 102/85/11
f 101/86/12 102/85/12 104/87/12
f 96/91/2 94/107/2 92/108/2
f 92/108/2 106/109/2 104/89/2
f 104/89/2 102/110/2 100/90/2
f 100/90/2 98/111/2 96/91/2
f 96/91/2 92/108/2 104/89/2
f 104/87/13 106/93/13 105/92/13
f 106/93/14 92/112/14 91/94/14
f 105/97/5 91/113/5 93/114/5
f 93/114/5 95/115/5 97/95/5
f 97/95/5 99/116/5 101/96/5
f 101/96/5 103/117/5 105/97/5
f 105/97/5 93/114/5 97/95/5
f 108/76/7 110/79/7 109/77/7
f 110/79/8 112/81/8 111/80/8
f 112/81/9 114/98/9 113/82/9
f 113/82/10 114/98/10 116/83/10
f 115/84/11 116/83/11 118/85/11
f 117/86/12 118/85/12 120/87/12
f 112/91/2 110/107/2 108/108/2
f 108/108/2 122/109/2 120/89/2
f 120/89/2 118/110/2 116/90/2
f 116/90/2 114/111/2 112/91/2
f 112/91/2 108/108/2 120/89/2
f 120/87/13 122/93/13 121/92/13
f 122/93/14 108/112/14 107/94/14
f 121/97/5 107/113/5 109/114/5
f 109/114/5 111/115/5 113/95/5
f 113/95/5 115/116/5 117/96/5
f 117/96/5 119/117/5 121/97/5
f 121/97/5 109/114/5 113/95/5
f 124/76/7 126/79/7 125/77/7
f 126/79/8 128/81/8 127/80/8
f 128/81/9 130/98/9 129/82/9
f 130/98/10 132/83/10 131/84/10
f 131/84/11 132/83/11 134/85/11
f 133/86/12 134/85/12 136/87/12
f 128/91/2 126/107/2 124/108/2
f 124/108/2 138/109/2 136/89/2
f 136/89/2 134/110/2 132/90/2
f 132/90/2 130/111/2 128/91/2
f 128/91/2 124/108/2 136/89/2
f 136/87/13 138/93/13 137/92/13
f 138/93/14 124/112/14 123/94/14
f 137/97/5 123/113/5 125/114/5
f 125/114/5 127/115/5 129/95/5
f 129/95/5 131/116/5 133/96/5
f 133/96/5 135/117/5 137/97/5
f 137/97/5 125/114/5 129/95/5
f 140/76/7 142/79/7 141/77/7
f 142/79/8 144/81/8 143/80/8
f 144/81/9 146/98/9 145/82/9
f 145/82/10 146/98/10 148/83/10
f 147/84/11 148/83/11 150/85/11
f 149/86/12 150/85/12 152/87/12
f 144/91/2 142/107/2 140/108/2
f 140/108/2 154/109/2 152/89/2
f 152/89/2 150/110/2 148/90/2
f 148/90/2 146/111/2 144/91/2
f 144/91/2 140/108/2 152/89/2
f 152/87/13 154/93/13 153/92/13
f 154/93/14 140/112/14 139/94/14
f 153/97/5 139/113/5 141/114/5
f 141/114/5 143/115/5 145/95/5
f 145/95/5 147/116/5 149/96/5
f 149/96/5 151/117/5 153/97/5
f 153/97/5 141/114/5 145/95/5
f 156/76/7 158/79/7 157/77/7
f 158/79/8 160/81/8 159/80/8
f 160/81/9 162/98/9 161/82/9
f 161/82/10 162/98/10 164/83/10
f 163/84/11 164/83/11 166/85/11
f 165/86/12 166/85/12 168/87/12
f 160/91/2 158/107/2 156/108/2
f 156/108/2 170/109/2 168/89/2
f 168/89/2 166/110/2 164/90/2
f 164/90/2 162/111/2 160/91/2
f 160/91/2 156/108/2 168/89/2
f 168/87/13 170/93/13 169/92/13
f 170/93/14 156/112/14 155/94/14
f 169/97/5 155/113/5 157/114/5
f 157/114/5 159/115/5 161/95/5
f 161/95/5 163/116/5 165/96/5
f 165/96/5 167/117/5 169/97/5
f 169/97/5 157/114/5 161/95/5
f 172/76/7 174/79/7 173/77/7
f 174/79/8 176/81/8 175/80/8
f 176/81/9 178/98/9 177/82/9
f 178/98/10 180/83/10 179/84/10
f 179/84/11 180/83/11 182/85/11
f 182/85/12 184/87/12 183/88/12
f 176/91/2 174/107/2 172/108/2
f 172/108/2 186/109/2 184/89/2
f 184/89/2 182/110/2 180/90/2
f 180/90/2 178/111/2 176/91/2
f 176/91/2 172/108/2 184/89/2
f 183/88/13 184/87/13 186/93/13
f 186/93/14 172/112/14 171/94/14
f 185/97/5 171/113/5 173/114/5
f 173/114/5 175/115/5 177/95/5
f 177/95/5 179/116/5 181/96/5
f 181/96/5 183/117/5 185/97/5
f 185/97/5 173/114/5 177/95/5
f 188/76/7 190/79/7 189/77/7
f 190/79/8 192/81/8 191/80/8
f 192/81/9 194/98/9 193/82/9
f 193/82/10 194/98/10 196/83/10
f 195/84/11 196/83/11 198/85/11
f 198/85/12 200/87/12 199/88/12
f 192/91/2 190/107/2 188/108/2
f 188/108/2 202/109/2 200/89/2
f 200/89/2 198/110/2 196/90/2
f 196/90/2 194/111/2 192/91/2
f 192/91/2 188/108/2 200/89/2
f 199/88/13 200/87/13 202/93/13
f 202/93/14 188/112/14 187/94/14
f 201/97/5 187/113/5 189/114/5
f 189/114/5 191/115/5 193/95/5
f 193/95/5 195/116/5 197/96/5
f 197/96/5 199/117/5 201/97/5
f 201/97/5 189/114/5 193/95/5
