# Blender 5.0.1
# www.blender.org
mtllib DishSoap01.mtl
o DishSoap01
v 0.000000 0.141117 -0.029203
v 0.020650 0.141117 -0.020650
v 0.029203 0.141117 0.000000
v 0.020650 0.141117 0.020650
v 0.000000 0.141117 0.029203
v -0.020650 0.141117 0.020650
v -0.029203 0.141117 0.000000
v -0.020650 0.141117 -0.020650
v 0.004918 0.163061 -0.004918
v 0.000000 0.163061 -0.006955
v 0.006955 0.163061 0.000000
v 0.004918 0.163061 0.004918
v 0.000000 0.163061 0.006955
v -0.004918 0.163061 0.004918
v -0.006955 0.163061 0.000000
v -0.004918 0.163061 -0.004918
v 0.011218 0.162003 -0.011218
v 0.000000 0.162003 -0.015864
v 0.015864 0.162003 0.000000
v 0.011218 0.162003 0.011218
v 0.000000 0.162003 0.015864
v -0.011218 0.162003 0.011218
v -0.015864 0.162003 0.000000
v -0.011218 0.162003 -0.011218
v 0.005591 0.170023 -0.005591
v -0.000000 0.170023 -0.007906
v 0.007906 0.170023 0.000000
v 0.005591 0.170023 0.005591
v -0.000000 0.170023 0.007906
v -0.005591 0.170023 0.005591
v -0.007906 0.170023 0.000000
v -0.005591 0.170023 -0.005591
v 0.002819 0.172581 -0.002819
v -0.000000 0.172581 -0.003987
v 0.003987 0.172581 0.000000
v 0.002819 0.172581 0.002819
v -0.000000 0.172581 0.003987
v -0.002819 0.172581 0.002819
v -0.003987 0.172581 0.000000
v -0.002819 0.172581 -0.002819
v 0.000000 0.070559 -0.027117
v 0.019174 0.070559 -0.019174
v 0.027117 0.070559 0.000000
v 0.019174 0.070559 0.019174
v 0.000000 0.070559 0.027117
v -0.019174 0.070559 0.019174
v -0.027117 0.070559 0.000000
v -0.019174 0.070559 -0.019174
v 0.000000 0.007204 -0.028990
v 0.000000 0.000000 -0.025217
v 0.017831 0.000000 -0.017831
v 0.020499 0.007204 -0.020499
v 0.025217 0.000000 0.000000
v 0.028990 0.007204 0.000000
v 0.017831 0.000000 0.017831
v 0.020499 0.007204 0.020499
v -0.000000 0.000000 0.025217
v 0.000000 0.007204 0.028990
v -0.017831 0.000000 0.017831
v -0.020499 0.007204 0.020499
v -0.025217 0.000000 -0.000000
v -0.028990 0.007204 0.000000
v -0.017831 0.000000 -0.017831
v -0.020499 0.007204 -0.020499
vn 0.3825 -0.0273 -0.9235
vn 0.9235 -0.0273 -0.3825
vn 0.9235 -0.0273 0.3825
vn 0.3825 -0.0273 0.9235
vn -0.3825 -0.0273 0.9235
vn -0.9235 -0.0273 0.3825
vn 0.7957 0.5082 -0.3296
vn -0.9235 -0.0273 -0.3825
vn -0.3825 -0.0273 -0.9235
vn 0.9166 -0.1253 -0.3797
vn 0.3296 0.5082 -0.7957
vn -0.7957 0.5082 -0.3296
vn -0.3296 0.5082 0.7957
vn 0.7957 0.5082 0.3296
vn -0.3296 0.5082 -0.7957
vn -0.7957 0.5082 0.3296
vn 0.3296 0.5082 0.7957
vn 0.0488 0.9918 -0.1178
vn 0.1178 0.9918 -0.0488
vn 0.1178 0.9918 0.0488
vn 0.0488 0.9918 0.1178
vn -0.0488 0.9918 0.1178
vn -0.1178 0.9918 0.0488
vn -0.1178 0.9918 -0.0488
vn -0.0488 0.9918 -0.1178
vn -0.3797 -0.1253 -0.9166
vn -0.9166 -0.1253 -0.3797
vn -0.3797 -0.1253 0.9166
vn 0.9166 -0.1253 0.3797
vn -0.9166 -0.1253 0.3797
vn 0.3797 -0.1253 0.9166
vn 0.5331 0.8167 -0.2208
vn -0.0000 1.0000 -0.0000
vn -0.5331 0.8167 -0.2208
vn -0.2208 0.8167 0.5331
vn 0.5331 0.8167 0.2208
vn 0.2208 0.8167 -0.5331
vn -0.2208 0.8167 -0.5331
vn -0.5331 0.8167 0.2208
vn 0.2208 0.8167 0.5331
vn 0.3797 -0.1253 -0.9166
vn -0.3445 -0.4356 -0.8316
vn -0.8316 -0.4356 -0.3445
vn -0.8316 -0.4356 0.3445
vn -0.3445 -0.4356 0.8316
vn 0.3445 -0.4356 0.8316
vn 0.8316 -0.4356 0.3445
vn 0.8316 -0.4356 -0.3445
vn 0.3445 -0.4356 -0.8316
vn -0.3825 0.0273 -0.9235
vn -0.0000 -1.0000 -0.0000
vn 0.3825 0.0273 -0.9235
vn 0.9235 0.0273 -0.3825
vn 0.9235 0.0273 0.3825
vn 0.3825 0.0273 0.9235
vn -0.3825 0.0273 0.9235
vn -0.9235 0.0273 0.3825
vn -0.9235 0.0273 -0.3825
vt 1.000000 0.500000
vt 0.875000 0.250000
vt 1.000000 0.250000
vt 0.750000 0.500000
vt 0.750000 0.250000
vt 0.625000 0.250000
vt 0.500000 0.500000
vt 0.500000 0.250000
vt 0.375000 0.250000
vt 0.250000 0.500000
vt 0.250000 0.250000
vt 0.875000 0.500000
vt 0.750000 0.625000
vt 0.125000 0.250000
vt 0.000000 0.500000
vt -0.000000 0.250000
vt 0.437500 0.687500
vt 0.375000 0.750000
vt 0.375000 0.687500
vt 0.875000 0.625000
vt 0.125000 0.625000
vt 0.125000 0.500000
vt 0.375000 0.625000
vt 0.375000 0.500000
vt 0.625000 0.625000
vt 0.625000 0.500000
vt -0.000000 0.625000
vt 0.250000 0.625000
vt 0.500000 0.625000
vt 0.875000 0.687500
vt 0.937500 0.625000
vt 0.937500 0.687500
vt 0.750000 0.687500
vt 0.812500 0.625000
vt 0.812500 0.687500
vt 0.625000 0.687500
vt 0.687500 0.625000
vt 0.687500 0.687500
vt 0.500000 0.687500
vt 0.562500 0.625000
vt 0.562500 0.687500
vt 0.437500 0.625000
vt 0.250000 0.687500
vt 0.312500 0.625000
vt 0.312500 0.687500
vt 0.125000 0.687500
vt 0.187500 0.625000
vt 0.187500 0.687500
vt 0.000000 0.687500
vt 0.062500 0.625000
vt 0.062500 0.687500
vt 0.062500 0.750000
vt 0.000000 0.750000
vt 0.125000 0.750000
vt 0.187500 0.750000
vt 0.312500 0.750000
vt 0.250000 0.750000
vt 0.437500 0.750000
vt 0.375000 0.812500
vt 0.062500 0.812500
vt 0.187500 0.875000
vt 0.125000 1.000000
vt 0.125000 0.812500
vt 0.187500 0.812500
vt 0.312500 0.812500
vt 0.500000 0.750000
vt 0.437500 0.812500
vt 0.000000 0.812500
vt 0.250000 0.812500
vt 0.000000 0.025525
vt 0.125000 0.000000
vt 0.125000 0.025525
vt 0.250000 0.000000
vt 0.250000 0.025525
vt 0.375000 0.000000
vt 0.375000 0.025525
vt 0.500000 0.000000
vt 0.500000 0.025525
vt 0.625000 0.000000
vt 0.625000 0.025525
vt 0.750000 0.000000
vt 0.750000 0.025525
vt 0.875000 0.000000
vt 0.875000 0.025525
vt 0.991468 0.000000
vt 1.000000 0.025525
vt 0.823004 0.766248
vt 0.983752 0.823004
vt 0.926996 0.983752
vt 1.000000 0.625000
vt 0.062500 1.000000
vt 0.000000 0.937500
vt 0.000000 0.875000
vt 0.187500 0.937500
vt 0.500000 0.812500
vt 0.008532 0.000000
vt 0.823004 0.983752
vt 0.766248 0.926996
vt 0.766248 0.823004
vt 0.926996 0.766248
vt 0.983752 0.926996
s 0
usemtl 16x16grid
f 1/1/1 42/2/1 41/3/1
f 42/2/2 3/4/2 43/5/2
f 3/4/3 44/6/3 43/5/3
f 44/6/4 5/7/4 45/8/4
f 5/7/5 46/9/5 45/8/5
f 46/9/6 7/10/6 47/11/6
f 2/12/7 19/13/7 3/4/7
f 7/10/8 48/14/8 47/11/8
f 48/14/9 1/15/9 41/16/9
f 25/17/10 11/18/10 9/19/10
f 1/1/11 17/20/11 2/12/11
f 7/10/12 24/21/12 8/22/12
f 5/7/13 22/23/13 6/24/13
f 3/4/14 20/25/14 4/26/14
f 8/22/15 18/27/15 1/15/15
f 6/24/16 23/28/16 7/10/16
f 4/26/17 21/29/17 5/7/17
f 9/30/18 18/31/18 10/32/18
f 11/33/19 17/34/19 9/35/19
f 12/36/20 19/37/20 11/38/20
f 13/39/21 20/40/21 12/41/21
f 14/19/22 21/42/22 13/17/22
f 15/43/23 22/44/23 14/45/23
f 16/46/24 23/47/24 15/48/24
f 10/49/25 24/50/25 16/51/25
f 16/49/26 26/52/26 10/53/26
f 15/51/27 32/54/27 16/52/27
f 29/43/28 14/55/28 13/48/28
f 27/19/29 12/56/29 11/45/29
f 30/48/30 15/54/30 14/46/30
f 28/45/31 13/57/31 12/43/31
f 25/58/32 35/59/32 27/18/32
f 39/60/33 37/61/33 35/62/33
f 32/52/34 39/63/34 40/60/34
f 29/57/35 38/64/35 30/55/35
f 27/18/36 36/65/36 28/56/36
f 26/66/37 33/67/37 25/58/37
f 32/52/38 34/68/38 26/53/38
f 30/55/39 39/63/39 31/54/39
f 28/56/40 37/69/40 29/57/40
f 10/17/41 25/66/41 9/58/41
f 49/70/42 63/71/42 64/72/42
f 64/72/43 61/73/43 62/74/43
f 62/74/44 59/75/44 60/76/44
f 60/76/45 57/77/45 58/78/45
f 58/78/46 55/79/46 56/80/46
f 56/80/47 53/81/47 54/82/47
f 54/82/48 51/83/48 52/84/48
f 52/84/49 50/85/49 49/86/49
f 48/14/50 49/70/50 64/72/50
f 53/87/51 57/88/51 61/89/51
f 41/3/52 52/84/52 49/86/52
f 42/2/53 54/82/53 52/84/53
f 43/5/54 56/80/54 54/82/54
f 44/6/55 58/78/55 56/80/55
f 45/8/56 60/76/56 58/78/56
f 46/9/57 62/74/57 60/76/57
f 47/11/58 64/72/58 62/74/58
f 1/1/1 2/12/1 42/2/1
f 42/2/2 2/12/2 3/4/2
f 3/4/3 4/26/3 44/6/3
f 44/6/4 4/26/4 5/7/4
f 5/7/5 6/24/5 46/9/5
f 46/9/6 6/24/6 7/10/6
f 2/12/7 17/20/7 19/13/7
f 7/10/8 8/22/8 48/14/8
f 48/14/9 8/22/9 1/15/9
f 25/17/10 27/58/10 11/18/10
f 1/1/11 18/90/11 17/20/11
f 7/10/12 23/28/12 24/21/12
f 5/7/13 21/29/13 22/23/13
f 3/4/14 19/13/14 20/25/14
f 8/22/15 24/21/15 18/27/15
f 6/24/16 22/23/16 23/28/16
f 4/26/17 20/25/17 21/29/17
f 9/30/18 17/20/18 18/31/18
f 11/33/19 19/13/19 17/34/19
f 12/36/20 20/25/20 19/37/20
f 13/39/21 21/29/21 20/40/21
f 14/19/22 22/23/22 21/42/22
f 15/43/23 23/28/23 22/44/23
f 16/46/24 24/21/24 23/47/24
f 10/49/25 18/27/25 24/50/25
f 16/49/26 32/51/26 26/52/26
f 15/51/27 31/46/27 32/54/27
f 29/43/28 30/57/28 14/55/28
f 27/19/29 28/18/29 12/56/29
f 30/48/30 31/55/30 15/54/30
f 28/45/31 29/56/31 13/57/31
f 25/58/32 33/67/32 35/59/32
f 35/62/33 33/91/33 34/92/33
f 34/92/33 40/93/33 39/60/33
f 39/60/33 38/63/33 37/61/33
f 37/61/33 36/94/33 35/62/33
f 35/62/33 34/92/33 39/60/33
f 32/52/34 31/54/34 39/63/34
f 29/57/35 37/69/35 38/64/35
f 27/18/36 35/59/36 36/65/36
f 26/66/37 34/95/37 33/67/37
f 32/52/38 40/60/38 34/68/38
f 30/55/39 38/64/39 39/63/39
f 28/56/40 36/65/40 37/69/40
f 10/17/41 26/39/41 25/66/41
f 49/70/42 50/96/42 63/71/42
f 64/72/43 63/71/43 61/73/43
f 62/74/44 61/73/44 59/75/44
f 60/76/45 59/75/45 57/77/45
f 58/78/46 57/77/46 55/79/46
f 56/80/47 55/79/47 53/81/47
f 54/82/48 53/81/48 51/83/48
f 52/84/49 51/83/49 50/85/49
f 48/14/50 41/16/50 49/70/50
f 61/89/51 63/97/51 50/98/51
f 50/98/51 51/99/51 53/87/51
f 53/87/51 55/100/51 57/88/51
f 57/88/51 59/101/51 61/89/51
f 61/89/51 50/98/51 53/87/51
f 41/3/52 42/2/52 52/84/52
f 42/2/53 43/5/53 54/82/53
f 43/5/54 44/6/54 56/80/54
f 44/6/55 45/8/55 58/78/55
f 45/8/56 46/9/56 60/76/56
f 46/9/57 47/11/57 62/74/57
f 47/11/58 48/14/58 64/72/58
