# Blender 5.1.1
# www.blender.org
mtllib ServiceTable.mtl
o ServiceTable
v -0.800000 0.124549 0.400000
v -0.757582 1.000000 0.357582
v -0.800000 0.124549 -0.400000
v -0.800000 1.000000 -0.400000
v 0.800000 0.124549 0.400000
v 0.757582 1.000000 0.357582
v 0.800000 0.124549 -0.400000
v 0.800000 1.000000 -0.400000
v 0.716237 0.000225 0.378222
v 0.716237 0.135063 0.378222
v 0.716237 0.000225 0.318222
v 0.716237 0.135063 0.318222
v 0.776237 0.000225 0.378222
v 0.776237 0.135063 0.378222
v 0.776237 0.000225 0.318222
v 0.776237 0.135063 0.318222
v -0.716237 0.000225 0.378222
v -0.716237 0.135063 0.378222
v -0.716237 0.000225 0.318222
v -0.716237 0.135063 0.318222
v -0.776237 0.000225 0.378222
v -0.776237 0.135063 0.378222
v -0.776237 0.000225 0.318222
v -0.776237 0.135063 0.318222
v 0.716237 0.000225 -0.378222
v 0.716237 0.135063 -0.378222
v 0.716237 0.000225 -0.318222
v 0.716237 0.135063 -0.318222
v 0.776237 0.000225 -0.378222
v 0.776237 0.135063 -0.378222
v 0.776237 0.000225 -0.318222
v 0.776237 0.135063 -0.318222
v -0.716237 0.000225 -0.378222
v -0.716237 0.135063 -0.378222
v -0.716237 0.000225 -0.318222
v -0.716237 0.135063 -0.318222
v -0.776237 0.000225 -0.378222
v -0.776237 0.135063 -0.378222
v -0.776237 0.000225 -0.318222
v -0.776237 0.135063 -0.318222
v -0.800000 0.124549 -0.300701
v -0.757582 1.000000 -0.258190
v 0.800000 0.124549 -0.300701
v 0.757582 1.000000 -0.258190
v -0.800000 1.100000 -0.300608
v -0.800000 1.150000 -0.400000
v 0.800000 1.150000 -0.400000
v 0.800000 1.100000 -0.300608
v 0.800000 1.000000 0.400000
v 0.800000 1.000000 -0.300608
v -0.800000 1.000000 0.400000
v -0.800000 1.000000 -0.300608
v -0.378791 1.000000 0.357582
v 0.000000 1.000000 0.357582
v 0.378791 1.000000 0.357582
v -0.378791 1.000000 -0.258190
v 0.000000 1.000000 -0.258190
v 0.378791 1.000000 -0.258190
v 0.725544 1.013134 -0.226152
v 0.410829 1.013134 -0.226152
v 0.410829 1.013134 0.325544
v 0.725544 1.013134 0.325544
v 0.346753 1.013134 -0.226152
v 0.032038 1.013134 -0.226152
v 0.032038 1.013134 0.325544
v 0.346753 1.013134 0.325544
v -0.032038 1.013134 -0.226152
v -0.346753 1.013134 -0.226152
v -0.346753 1.013134 0.325544
v -0.032038 1.013134 0.325544
v -0.410829 1.013134 -0.226152
v -0.725544 1.013134 -0.226152
v -0.725544 1.013134 0.325544
v -0.410829 1.013134 0.325544
v 0.419354 1.006390 -0.211208
v 0.717019 1.006390 -0.211208
v 0.717019 1.006390 0.310600
v 0.419354 1.006390 0.310600
v 0.040563 1.006390 -0.211208
v 0.338228 1.006390 -0.211208
v 0.338228 1.006390 0.310600
v 0.040563 1.006390 0.310600
v -0.338228 1.006390 -0.211208
v -0.040563 1.006390 -0.211208
v -0.040563 1.006390 0.310600
v -0.338228 1.006390 0.310600
v -0.717019 1.006390 -0.211208
v -0.419354 1.006390 -0.211208
v -0.419354 1.006390 0.310600
v -0.717019 1.006390 0.310600
v 0.419354 0.749981 -0.211208
v 0.717019 0.749981 -0.211208
v 0.717019 0.749981 0.310600
v 0.419354 0.749981 0.310600
v 0.040563 0.749981 -0.211208
v 0.338228 0.749981 -0.211208
v 0.338228 0.749981 0.310600
v 0.040563 0.749981 0.310600
v -0.338228 0.749981 -0.211208
v -0.040563 0.749981 -0.211208
v -0.040563 0.749981 0.310600
v -0.338228 0.749981 0.310600
v -0.717019 0.749981 -0.211208
v -0.419354 0.749981 -0.211208
v -0.419354 0.749981 0.310600
v -0.717019 0.749981 0.310600
v 0.716237 1.098973 -0.378222
v 0.716237 1.404797 -0.378222
v 0.716237 1.098973 -0.318222
v 0.716237 1.404797 -0.268222
v 0.776237 1.098973 -0.378222
v 0.776237 1.404797 -0.378222
v 0.776237 1.098973 -0.318222
v 0.776237 1.404797 -0.268222
v -0.716237 1.098973 -0.378222
v -0.716237 1.404797 -0.378222
v -0.716237 1.098973 -0.318222
v -0.716237 1.404797 -0.268222
v -0.776237 1.098973 -0.378222
v -0.776237 1.404797 -0.378222
v -0.776237 1.098973 -0.318222
v -0.776237 1.404797 -0.268222
v -0.800000 1.460000 -0.050000
v 0.800000 1.460000 -0.050000
v -0.800000 1.460000 -0.400000
v 0.800000 1.460000 -0.400000
v -0.800000 1.400000 -0.050000
v 0.800000 1.400000 -0.050000
v -0.800000 1.400000 -0.400000
v 0.800000 1.400000 -0.400000
v -0.800000 0.940371 -0.300614
v -0.800000 0.940371 -0.400000
v 0.800000 0.940371 -0.400000
v 0.800000 0.940371 -0.300614
v 0.800000 0.940371 0.400000
v -0.800000 0.940371 0.400000
v 0.800000 0.940371 0.500000
v 0.800000 1.000000 0.500000
v -0.800000 1.000000 0.500000
v -0.800000 0.940371 0.500000
vn -1.0000 -0.0000 -0.0000
vn -0.0000 -0.0000 -1.0000
vn 1.0000 -0.0000 -0.0000
vn -0.0000 1.0000 -0.0000
vn -0.0000 -1.0000 -0.0000
vn -0.0000 -0.0000 1.0000
vn -0.0000 0.8933 0.4494
vn -0.0000 0.9115 0.4114
vn -0.0000 0.9115 0.4113
vn -0.6204 0.7843 -0.0000
vn -0.0000 0.9253 -0.3793
vn -0.3793 0.9253 -0.0000
vn -0.0000 0.9253 0.3793
vn 0.3793 0.9253 -0.0000
vn 0.6204 0.7843 -0.0000
vn -0.0000 0.9115 -0.4114
vn -0.0000 0.9115 -0.4113
vn -0.0000 -0.1614 0.9869
vt 0.578850 0.351727
vt 0.593750 0.375000
vt 0.578850 0.375000
vt 0.000000 0.406250
vt 0.375000 0.421150
vt 0.000000 0.421150
vt 0.593750 0.023273
vt 0.578850 0.187500
vt 0.578850 0.023273
vt 0.562500 0.781250
vt 0.937500 0.812500
vt 0.937500 0.781250
vt 0.375000 0.648273
vt 0.000000 0.812500
vt 0.000000 0.648273
vt 1.000000 0.093750
vt 0.968750 0.031250
vt 1.000000 0.031250
vt 0.968750 0.093750
vt 0.937500 0.031250
vt 0.937500 0.093750
vt 0.906250 0.031250
vt 0.906250 0.093750
vt 0.875000 0.031250
vt 0.875000 0.000000
vt 0.906250 0.000000
vt 0.875000 0.093750
vt 0.937500 0.000000
vt 0.968750 0.000000
vt 0.062500 0.937500
vt 0.031250 0.968750
vt 0.062500 0.968750
vt 0.375000 0.625000
vt 0.000000 0.625000
vt 0.593750 0.000000
vt 0.578850 0.000000
vt 0.593750 0.351727
vt -0.000000 0.875000
vt 0.375000 0.843750
vt 0.375000 0.875000
vt 0.031250 0.937500
vt 0.375000 0.812500
vt 0.000000 0.843750
vt 0.375000 0.906250
vt 0.365058 0.228692
vt 0.375000 0.382958
vt 0.365058 0.373016
vt 0.098721 0.228692
vt 0.009942 0.228692
vt 0.375000 0.218750
vt 0.276279 0.373016
vt 0.000000 0.382958
vt 0.009942 0.373016
vt 0.000000 0.218750
vt 0.106230 0.365507
vt 0.179991 0.365507
vt 0.357549 0.365507
vt 0.357549 0.236201
vt 0.195009 0.365507
vt 0.268770 0.365507
vt 0.283788 0.365507
vt 0.276279 0.228692
vt 0.283788 0.236201
vt 0.187500 0.373016
vt 0.187500 0.228692
vt 0.195009 0.236201
vt 0.268770 0.236201
vt 0.098721 0.373016
vt 0.106230 0.236201
vt 0.179991 0.236201
vt 0.091212 0.365507
vt 0.017451 0.365507
vt 0.017451 0.236201
vt 0.091212 0.236201
vt 0.593750 0.562500
vt 0.531250 0.468750
vt 0.593750 0.468750
vt 0.468750 0.625000
vt 0.531250 0.562500
vt 0.531250 0.625000
vt 0.468750 0.562500
vt 0.406250 0.468750
vt 0.406250 0.562500
vt 0.531250 0.406250
vt 0.468750 0.468750
vt 0.468750 0.406250
vt 0.937500 0.125000
vt 0.906250 0.281250
vt 0.906250 0.125000
vt 0.968750 0.125000
vt 0.937500 0.281250
vt 0.875000 0.125000
vt 0.875000 0.281250
vt 1.000000 0.125000
vt 0.968750 0.281250
vt 1.000000 0.218750
vt 0.906250 0.218750
vt 0.937500 0.218750
vt 0.937500 0.875000
vt 0.562500 0.968750
vt 0.562500 0.875000
vt 0.937500 0.968750
vt 0.531250 0.875000
vt 0.531250 0.968750
vt 0.937500 0.843750
vt 0.968750 0.968750
vt 0.562500 0.843750
vt 0.375000 0.187500
vt 0.375000 0.351727
vt 0.375000 0.023273
vt 0.375000 0.000000
vt 0.375000 0.014900
vt 0.375000 0.375000
vt 0.937500 0.750000
vt 0.968750 0.781250
vt 0.531250 0.750000
vt 0.562500 0.750000
vt 0.937500 0.718750
vt 0.562500 0.718750
vt 0.375000 0.406250
vt 0.593750 0.187500
vt 0.562500 0.812500
vt 1.000000 0.000000
vt -0.000000 0.906250
vt 1.000000 0.281250
vt 0.968750 0.218750
vt 0.875000 0.218750
vt 0.968750 0.875000
vt 0.000000 0.014900
vt 0.968750 0.750000
vt 0.531250 0.781250
s 1
usemtl ServiceTable
f 131/1/1 4/2/1 132/3/1
f 4/4/2 133/5/2 132/6/2
f 50/7/3 135/8/3 134/9/3
f 51/10/4 138/11/4 49/12/4
f 43/13/5 1/14/5 41/15/5
f 10/16/1 11/17/1 9/18/1
f 12/19/2 15/20/2 11/17/2
f 16/21/3 13/22/3 15/20/3
f 14/23/6 9/24/6 13/22/6
f 15/22/5 9/25/5 11/26/5
f 19/20/3 18/23/3 17/22/3
f 23/22/2 20/27/2 19/24/2
f 21/18/1 24/19/1 23/17/1
f 17/17/6 22/21/6 21/20/6
f 17/22/5 23/28/5 19/20/5
f 27/20/1 26/23/1 25/22/1
f 31/17/6 28/21/6 27/20/6
f 29/22/3 32/27/3 31/24/3
f 25/18/2 30/19/2 29/17/2
f 25/29/5 31/20/5 27/28/5
f 34/16/3 35/17/3 33/18/3
f 36/23/6 39/24/6 35/22/6
f 40/19/1 37/20/1 39/17/1
f 38/21/2 33/22/2 37/20/2
f 39/29/5 33/18/5 35/17/5
f 8/30/3 48/31/3 50/32/3
f 7/33/5 41/15/5 3/34/5
f 8/35/3 134/9/3 133/36/3
f 136/8/1 52/37/1 131/1/1
f 46/38/7 48/39/7 47/40/7
f 4/32/1 45/41/1 46/31/1
f 50/42/6 45/43/6 52/14/6
f 4/38/2 47/44/2 8/40/2
f 6/45/4 50/46/4 44/47/4
f 53/48/4 2/49/4 49/50/4
f 58/51/4 44/47/4 52/52/4
f 42/53/4 51/54/4 2/49/4
f 68/55/8 84/56/9 67/56/9
f 59/57/10 77/58/10 62/58/10
f 64/59/9 80/60/9 63/60/9
f 60/61/8 76/57/9 59/57/9
f 58/51/11 59/57/11 44/47/11
f 55/62/12 60/61/12 58/51/12
f 6/45/13 61/63/13 55/62/13
f 44/47/14 62/58/14 6/45/14
f 57/64/11 63/60/11 58/51/11
f 54/65/12 64/59/12 57/64/12
f 55/62/13 65/66/13 54/65/13
f 58/51/14 66/67/14 55/62/14
f 56/68/11 67/56/11 57/64/11
f 53/48/12 68/55/12 56/68/12
f 54/65/13 69/69/13 53/48/13
f 57/64/14 70/70/14 54/65/14
f 42/53/11 71/71/11 56/68/11
f 2/49/12 72/72/12 42/53/12
f 53/48/13 73/73/13 2/49/13
f 56/68/14 74/74/14 53/48/14
f 88/75/1 105/76/1 89/77/1
f 80/75/1 97/76/1 81/77/1
f 87/78/6 104/79/6 88/80/6
f 79/78/6 96/79/6 80/80/6
f 63/60/10 81/67/10 66/67/10
f 72/72/8 88/71/9 71/71/9
f 61/63/15 75/61/15 60/61/15
f 67/56/10 85/70/10 70/70/10
f 65/66/15 79/59/15 64/59/15
f 71/71/10 89/74/10 74/74/10
f 62/58/16 78/63/17 61/63/17
f 69/69/15 83/55/15 68/55/15
f 66/67/16 82/66/17 65/66/17
f 73/73/15 87/72/15 72/72/15
f 70/70/17 86/69/17 69/69/17
f 74/74/16 90/73/17 73/73/17
f 91/81/4 93/76/4 92/79/4
f 95/81/4 97/76/4 96/79/4
f 99/81/4 101/76/4 100/79/4
f 103/81/4 105/76/4 104/79/4
f 82/82/3 95/81/3 79/83/3
f 90/82/3 103/81/3 87/83/3
f 81/84/2 98/85/2 82/86/2
f 75/78/6 92/79/6 76/80/6
f 89/84/2 106/85/2 90/86/2
f 83/78/6 100/79/6 84/80/6
f 76/75/1 93/76/1 77/77/1
f 84/75/1 101/76/1 85/77/1
f 78/82/3 91/81/3 75/83/3
f 86/82/3 99/81/3 83/83/3
f 77/84/2 94/85/2 78/86/2
f 85/84/2 102/85/2 86/86/2
f 109/87/1 108/88/1 107/89/1
f 113/90/18 110/91/18 109/87/18
f 113/92/3 112/88/3 114/93/3
f 107/94/2 112/95/2 111/90/2
f 116/96/3 117/90/3 115/94/3
f 118/97/18 121/92/18 117/89/18
f 121/90/1 120/98/1 119/87/1
f 120/98/2 115/89/2 119/87/2
f 124/99/4 125/100/4 123/101/4
f 129/101/5 128/102/5 127/100/5
f 125/103/1 127/100/1 123/104/1
f 123/101/6 128/105/6 124/99/6
f 124/99/3 130/106/3 126/102/3
f 126/105/2 129/101/2 125/107/2
f 1/108/1 131/1/1 41/109/1
f 133/36/3 43/110/3 7/111/3
f 135/112/6 1/54/6 5/50/6
f 134/9/3 5/108/3 43/110/3
f 132/6/2 7/33/2 3/34/2
f 41/109/1 132/3/1 3/113/1
f 138/114/6 140/10/6 137/12/6
f 49/115/3 137/114/3 135/12/3
f 136/116/1 139/10/1 51/117/1
f 135/118/5 140/117/5 136/119/5
f 131/1/1 52/37/1 4/2/1
f 4/4/2 8/120/2 133/5/2
f 50/7/3 49/121/3 135/8/3
f 51/10/4 139/122/4 138/11/4
f 43/13/5 5/42/5 1/14/5
f 10/16/1 12/19/1 11/17/1
f 12/19/2 16/21/2 15/20/2
f 16/21/3 14/23/3 13/22/3
f 14/23/6 10/27/6 9/24/6
f 15/22/5 13/24/5 9/25/5
f 19/20/3 20/21/3 18/23/3
f 23/22/2 24/23/2 20/27/2
f 21/18/1 22/16/1 24/19/1
f 17/17/6 18/19/6 22/21/6
f 17/22/5 21/26/5 23/28/5
f 27/20/1 28/21/1 26/23/1
f 31/17/6 32/19/6 28/21/6
f 29/22/3 30/23/3 32/27/3
f 25/18/2 26/16/2 30/19/2
f 25/29/5 29/17/5 31/20/5
f 34/16/3 36/19/3 35/17/3
f 36/23/6 40/27/6 39/24/6
f 40/19/1 38/21/1 37/20/1
f 38/21/2 34/23/2 33/22/2
f 39/29/5 37/123/5 33/18/5
f 8/30/3 47/41/3 48/31/3
f 7/33/5 43/13/5 41/15/5
f 8/35/3 50/7/3 134/9/3
f 136/8/1 51/121/1 52/37/1
f 46/38/7 45/43/7 48/39/7
f 4/32/1 52/30/1 45/41/1
f 50/42/6 48/39/6 45/43/6
f 4/38/2 46/124/2 47/44/2
f 6/45/4 49/50/4 50/46/4
f 49/50/4 6/45/4 55/62/4
f 49/50/4 55/62/4 54/65/4
f 2/49/4 51/54/4 49/50/4
f 49/50/4 54/65/4 53/48/4
f 52/52/4 42/53/4 56/68/4
f 52/52/4 56/68/4 57/64/4
f 44/47/4 50/46/4 52/52/4
f 52/52/4 57/64/4 58/51/4
f 42/53/4 52/52/4 51/54/4
f 68/55/8 83/55/8 84/56/9
f 59/57/10 76/57/10 77/58/10
f 64/59/9 79/59/9 80/60/9
f 60/61/8 75/61/8 76/57/9
f 58/51/11 60/61/11 59/57/11
f 55/62/12 61/63/12 60/61/12
f 6/45/13 62/58/13 61/63/13
f 44/47/14 59/57/14 62/58/14
f 57/64/11 64/59/11 63/60/11
f 54/65/12 65/66/12 64/59/12
f 55/62/13 66/67/13 65/66/13
f 58/51/14 63/60/14 66/67/14
f 56/68/11 68/55/11 67/56/11
f 53/48/12 69/69/12 68/55/12
f 54/65/13 70/70/13 69/69/13
f 57/64/14 67/56/14 70/70/14
f 42/53/11 72/72/11 71/71/11
f 2/49/12 73/73/12 72/72/12
f 53/48/13 74/74/13 73/73/13
f 56/68/14 71/71/14 74/74/14
f 88/75/1 104/79/1 105/76/1
f 80/75/1 96/79/1 97/76/1
f 87/78/6 103/81/6 104/79/6
f 79/78/6 95/81/6 96/79/6
f 63/60/10 80/60/10 81/67/10
f 72/72/8 87/72/8 88/71/9
f 61/63/15 78/63/15 75/61/15
f 67/56/10 84/56/10 85/70/10
f 65/66/15 82/66/15 79/59/15
f 71/71/10 88/71/10 89/74/10
f 62/58/16 77/58/16 78/63/17
f 69/69/15 86/69/15 83/55/15
f 66/67/16 81/67/16 82/66/17
f 73/73/15 90/73/15 87/72/15
f 70/70/17 85/70/17 86/69/17
f 74/74/16 89/74/16 90/73/17
f 91/81/4 94/85/4 93/76/4
f 95/81/4 98/85/4 97/76/4
f 99/81/4 102/85/4 101/76/4
f 103/81/4 106/85/4 105/76/4
f 82/82/3 98/85/3 95/81/3
f 90/82/3 106/85/3 103/81/3
f 81/84/2 97/76/2 98/85/2
f 75/78/6 91/81/6 92/79/6
f 89/84/2 105/76/2 106/85/2
f 83/78/6 99/81/6 100/79/6
f 76/75/1 92/79/1 93/76/1
f 84/75/1 100/79/1 101/76/1
f 78/82/3 94/85/3 91/81/3
f 86/82/3 102/85/3 99/81/3
f 77/84/2 93/76/2 94/85/2
f 85/84/2 101/76/2 102/85/2
f 109/87/1 110/91/1 108/88/1
f 113/90/18 114/95/18 110/91/18
f 113/92/3 111/89/3 112/88/3
f 107/94/2 108/125/2 112/95/2
f 116/96/3 118/126/3 117/90/3
f 118/97/18 122/127/18 121/92/18
f 121/90/1 122/126/1 120/98/1
f 120/98/2 116/97/2 115/89/2
f 124/99/4 126/102/4 125/100/4
f 129/101/5 130/99/5 128/102/5
f 125/103/1 129/101/1 127/100/1
f 123/101/6 127/107/6 128/105/6
f 124/99/3 128/128/3 130/106/3
f 126/105/2 130/99/2 129/101/2
f 1/108/1 136/8/1 131/1/1
f 133/36/3 134/9/3 43/110/3
f 135/112/6 136/129/6 1/54/6
f 134/9/3 135/8/3 5/108/3
f 132/6/2 133/5/2 7/33/2
f 41/109/1 131/1/1 132/3/1
f 138/114/6 139/117/6 140/10/6
f 49/115/3 138/130/3 137/114/3
f 136/116/1 140/131/1 139/10/1
f 135/118/5 137/114/5 140/117/5
