# Blender 5.1.0
# www.blender.org
mtllib Screwdriver.mtl
o Screwdriver
v -0.009783 0.084098 0.000000
v 0.000000 0.012964 0.004185
v -0.006918 0.084098 -0.006918
v 0.002960 0.012964 0.002960
v -0.000000 0.084098 -0.009783
v 0.004186 0.012964 -0.000000
v 0.006918 0.084098 -0.006918
v 0.002960 0.012964 -0.002960
v 0.009783 0.084098 0.000000
v 0.000000 0.012964 -0.004186
v -0.006918 0.084098 0.006918
v -0.002960 0.012964 -0.002960
v 0.006918 0.084098 0.006918
v -0.004186 0.012964 -0.000000
v -0.000000 0.084098 0.009783
v -0.002960 0.012964 0.002960
v 0.000000 0.188346 0.012181
v -0.000000 0.175635 0.016894
v 0.008614 0.188346 0.008614
v 0.011946 0.175635 0.011946
v 0.012181 0.188346 0.000000
v 0.016894 0.175635 0.000000
v 0.008614 0.188346 -0.008614
v 0.011946 0.175635 -0.011946
v -0.000000 0.188346 -0.012181
v -0.000000 0.175635 -0.016894
v -0.008614 0.188346 -0.008614
v -0.011946 0.175635 -0.011946
v -0.012181 0.188346 0.000000
v -0.016894 0.175635 0.000000
v -0.008614 0.188346 0.008614
v -0.011946 0.175635 0.011946
v -0.010607 0.090780 0.010607
v 0.000000 0.090780 0.015000
v 0.010607 0.090780 0.010607
v 0.015000 0.090780 0.000000
v 0.010607 0.090780 -0.010607
v 0.000000 0.090780 -0.015000
v -0.010607 0.090780 -0.010607
v -0.015000 0.090780 0.000000
v -0.003581 0.084098 0.000000
v -0.002532 0.084098 -0.002532
v 0.000000 0.084098 -0.003581
v 0.002532 0.084098 -0.002532
v 0.003581 0.084098 0.000000
v 0.002532 0.084098 0.002532
v 0.000000 0.084098 0.003581
v -0.002532 0.084098 0.002532
v -0.000000 -0.000805 -0.000000
v -0.000969 0.004639 -0.000969
v -0.004186 0.004639 -0.000000
v 0.000969 0.004639 -0.000969
v 0.000000 0.004639 -0.004186
v -0.000969 0.004639 0.000969
v 0.000969 0.004639 0.000969
v 0.004186 0.004639 -0.000000
v 0.000000 0.004639 0.004185
v 0.009512 0.109981 0.009512
v 0.013452 0.109981 0.000000
v 0.009512 0.109981 -0.009512
v -0.000000 0.109981 -0.013452
v -0.009512 0.109981 -0.009512
v -0.013452 0.109981 0.000000
v -0.009512 0.109981 0.009512
v -0.000000 0.109981 0.013452
v 0.000000 0.018584 0.003581
v -0.002532 0.018584 0.002532
v -0.003581 0.018584 -0.000000
v -0.002532 0.018584 -0.002532
v 0.000000 0.018584 -0.003581
v 0.002532 0.018584 -0.002532
v 0.003581 0.018584 -0.000000
v 0.002532 0.018584 0.002532
vn -0.7493 -0.5850 0.3104
vn -0.9213 0.0743 -0.3816
vn 0.3104 -0.5850 0.7493
vn -0.3104 -0.5850 0.7493
vn 0.7493 -0.5850 0.3104
vn 0.7493 -0.5850 -0.3104
vn -0.2817 -0.2165 -0.9348
vn 0.3104 -0.5850 -0.7493
vn -0.3104 -0.5850 -0.7493
vn -0.7493 -0.5850 -0.3104
vn 0.3620 0.3241 0.8740
vn 0.8740 0.3241 0.3620
vn 0.8740 0.3241 -0.3620
vn 0.3620 0.3241 -0.8740
vn -0.3620 0.3241 -0.8740
vn -0.8740 0.3241 -0.3620
vn -0.8740 0.3241 0.3620
vn -0.3620 0.3241 0.8740
vn -0.0000 1.0000 -0.0000
vn 0.3808 0.0988 0.9194
vn -0.3808 0.0988 0.9194
vn 0.9194 0.0988 0.3808
vn 0.9194 0.0988 -0.3808
vn 0.3808 0.0988 -0.9194
vn -0.3808 0.0988 -0.9194
vn -0.9194 0.0988 -0.3808
vn -0.9194 0.0988 0.3808
vn -0.3816 0.0743 -0.9213
vn 0.3816 0.0743 -0.9213
vn 0.9213 0.0743 -0.3816
vn 0.9213 0.0743 0.3816
vn -0.3816 0.0743 0.9213
vn 0.3816 0.0743 0.9213
vn -0.9213 0.0743 0.3816
vn -0.0000 -1.0000 -0.0000
vn 0.9348 -0.2165 -0.2817
vn -0.2817 -0.2165 0.9348
vn 0.2817 -0.2165 0.9348
vn -0.9348 -0.2165 -0.2817
vn -0.9348 -0.2165 0.2817
vn 0.9348 -0.2165 0.2817
vn 0.2817 -0.2165 -0.9348
vn 0.2885 -0.0000 -0.9575
vn 0.9575 -0.0000 0.2885
vn -0.3653 -0.2982 0.8819
vn -0.9575 -0.0000 -0.2885
vn 0.8819 -0.2982 0.3653
vn -0.2885 -0.0000 0.9575
vn 0.3653 -0.2982 -0.8819
vn -0.8819 -0.2982 -0.3653
vn -0.9228 -0.0484 0.3822
vn 0.3822 -0.0484 0.9228
vn -0.3822 -0.0484 0.9228
vn 0.9228 -0.0484 0.3822
vn 0.9228 -0.0484 -0.3822
vn 0.3822 -0.0484 -0.9228
vn -0.3822 -0.0484 -0.9228
vn -0.9228 -0.0484 -0.3822
vn -0.9239 -0.0000 0.3827
vn -0.9239 -0.0000 -0.3827
vn -0.3827 -0.0000 -0.9239
vn 0.3827 -0.0000 -0.9239
vn 0.9239 -0.0000 -0.3827
vn 0.9239 -0.0000 0.3827
vn -0.3827 -0.0000 0.9239
vn 0.3827 -0.0000 0.9239
vn -0.3653 -0.2982 -0.8819
vn -0.2885 -0.0000 -0.9575
vn 0.9575 -0.0000 -0.2885
vn 0.8819 -0.2982 -0.3653
vn 0.2885 -0.0000 0.9575
vn 0.3653 -0.2982 0.8819
vn -0.9575 -0.0000 0.2885
vn -0.8819 -0.2982 0.3653
vt 0.375000 1.000000
vt 0.437500 0.937500
vt 0.375000 0.937500
vt 0.312500 0.812500
vt 0.375000 0.812500
vt -0.000000 1.000000
vt 0.062500 0.937500
vt -0.000000 0.937500
vt 0.437500 1.000000
vt 0.500000 0.937500
vt 0.062500 1.000000
vt 0.125000 0.937500
vt 0.125000 1.000000
vt 0.187500 0.937500
vt 0.187500 0.125000
vt 0.187500 0.062500
vt 0.250000 0.062500
vt 0.250000 1.000000
vt 0.250000 0.937500
vt 0.312500 0.937500
vt 0.062500 0.500000
vt -0.000000 0.437500
vt -0.000000 0.500000
vt 0.125000 0.437500
vt 0.062500 0.437500
vt 0.187500 0.500000
vt 0.125000 0.500000
vt 0.250000 0.500000
vt 0.187500 0.437500
vt 0.312500 0.500000
vt 0.250000 0.437500
vt 0.375000 0.500000
vt 0.312500 0.437500
vt 0.437500 0.500000
vt 0.375000 0.437500
vt 0.500000 0.500000
vt 0.437500 0.437500
vt 0.669473 0.313130
vt 0.562281 0.357531
vt 0.517880 0.250338
vt 0.500000 0.062500
vt 0.562500 0.125000
vt 0.500000 0.125000
vt 0.937500 0.125000
vt 1.000000 0.062500
vt 1.000000 0.125000
vt 0.562500 0.062500
vt 0.625000 0.125000
vt 0.625000 0.062500
vt 0.687500 0.125000
vt 0.687500 0.062500
vt 0.750000 0.125000
vt 0.750000 0.062500
vt 0.812500 0.125000
vt 0.875000 0.062500
vt 0.875000 0.125000
vt 0.937500 0.062500
vt 0.250000 0.812500
vt 0.187500 0.812500
vt 0.125000 0.812500
vt 0.062500 0.812500
vt 0.437500 0.812500
vt 0.500000 0.812500
vt -0.000000 0.812500
vt 0.855565 0.307099
vt 0.918026 0.310642
vt 0.874897 0.353771
vt 0.833236 0.307099
vt 0.813904 0.353771
vt 0.817448 0.291310
vt 0.770775 0.310642
vt 0.817448 0.268982
vt 0.770775 0.249649
vt 0.833236 0.253193
vt 0.813904 0.206520
vt 0.855565 0.253193
vt 0.874897 0.206520
vt 0.871354 0.291310
vt 0.918026 0.249649
vt 0.871354 0.268982
vt 0.312500 0.125000
vt 0.312500 0.062500
vt 0.375000 0.062500
vt 0.437500 0.125000
vt 0.437500 0.062500
vt 0.375000 0.125000
vt 0.250000 0.125000
vt 0.625000 0.000000
vt 0.687500 0.000000
vt 0.500000 0.000000
vt 0.562500 0.000000
vt 0.937500 0.000000
vt 0.750000 0.000000
vt 0.812500 0.000000
vt 0.875000 0.000000
vt 0.812500 0.062500
vt 0.875000 0.500000
vt 0.937500 1.000000
vt 0.875000 1.000000
vt 0.812500 0.500000
vt 0.812500 1.000000
vt 0.750000 0.500000
vt 0.750000 1.000000
vt 0.687500 0.500000
vt 0.687500 1.000000
vt 0.625000 1.000000
vt 0.562500 0.500000
vt 0.562500 1.000000
vt 0.937500 0.500000
vt 1.000000 1.000000
vt 0.500000 1.000000
vt 1.000000 0.000000
vt 0.187500 1.000000
vt 0.312500 1.000000
vt 0.500000 0.437500
vt 0.562281 0.205938
vt 0.625073 0.205938
vt 0.669473 0.250338
vt 0.625073 0.357531
vt 0.517880 0.313130
vt 0.625000 0.500000
vt 1.000000 0.500000
s 0
usemtl Screwdriver
f 1/1/1 33/2/1 40/3/1
f 62/4/2 40/3/2 63/5/2
f 15/6/3 35/7/3 34/8/3
f 11/9/4 34/10/4 33/2/4
f 13/11/5 36/12/5 35/7/5
f 9/13/6 37/14/6 36/12/6
f 51/15/7 50/16/7 49/17/7
f 37/14/8 5/18/8 38/19/8
f 5/18/9 39/20/9 38/19/9
f 39/20/10 1/1/10 40/3/10
f 20/21/11 17/22/11 18/23/11
f 20/21/12 21/24/12 19/25/12
f 24/26/13 21/24/13 22/27/13
f 26/28/14 23/29/14 24/26/14
f 28/30/15 25/31/15 26/28/15
f 30/32/16 27/33/16 28/30/16
f 32/34/17 29/35/17 30/32/17
f 18/36/18 31/37/18 32/34/18
f 23/38/19 27/39/19 31/40/19
f 2/41/20 73/42/20 66/43/20
f 67/44/21 2/45/21 66/46/21
f 4/47/22 72/48/22 73/42/22
f 6/49/23 71/50/23 72/48/23
f 8/51/24 70/52/24 71/50/24
f 10/53/25 69/54/25 70/52/25
f 69/54/26 14/55/26 68/56/26
f 68/56/27 16/57/27 67/44/27
f 61/58/28 39/20/28 62/4/28
f 37/14/29 61/58/29 60/59/29
f 36/12/30 60/59/30 59/60/30
f 35/7/31 59/60/31 58/61/31
f 64/62/32 34/10/32 65/63/32
f 65/64/33 35/7/33 58/61/33
f 40/3/34 64/62/34 63/5/34
f 41/65/35 11/66/35 1/67/35
f 42/68/35 1/67/35 3/69/35
f 43/70/35 3/69/35 5/71/35
f 44/72/35 5/71/35 7/73/35
f 45/74/35 7/73/35 9/75/35
f 46/76/35 9/75/35 13/77/35
f 48/78/35 15/79/35 11/66/35
f 47/80/35 13/77/35 15/79/35
f 53/81/36 52/82/36 49/83/36
f 54/84/37 51/85/37 49/86/37
f 56/86/38 55/83/38 49/85/38
f 50/86/39 53/83/39 49/81/39
f 57/82/40 54/81/40 49/87/40
f 55/17/41 57/87/41 49/82/41
f 52/87/42 56/17/42 49/15/42
f 6/49/43 56/88/43 52/89/43
f 2/41/44 57/90/44 55/91/44
f 2/45/45 16/57/45 54/92/45
f 10/53/46 53/93/46 50/94/46
f 6/49/47 4/47/47 55/91/47
f 14/55/48 51/95/48 54/92/48
f 10/53/49 8/51/49 52/89/49
f 14/55/50 12/96/50 50/94/50
f 30/32/51 64/62/51 32/34/51
f 18/23/52 58/61/52 20/21/52
f 32/34/53 65/63/53 18/36/53
f 58/61/54 22/27/54 20/21/54
f 59/60/55 24/26/55 22/27/55
f 60/59/56 26/28/56 24/26/56
f 26/28/57 62/4/57 28/30/57
f 28/30/58 63/5/58 30/32/58
f 68/97/59 48/98/59 41/99/59
f 69/100/60 41/99/60 42/101/60
f 70/102/61 42/101/61 43/103/61
f 71/104/62 43/103/62 44/105/62
f 45/106/63 71/104/63 44/105/63
f 73/107/64 45/106/64 46/108/64
f 67/109/65 47/110/65 48/98/65
f 66/36/66 46/108/66 47/111/66
f 12/96/67 10/53/67 50/94/67
f 51/95/68 14/55/68 50/94/68
f 53/93/69 10/53/69 52/89/69
f 8/51/70 6/49/70 52/89/70
f 56/88/71 6/49/71 55/91/71
f 4/47/72 2/41/72 55/91/72
f 57/112/73 2/45/73 54/92/73
f 16/57/74 14/55/74 54/92/74
f 1/1/1 11/9/1 33/2/1
f 62/4/2 39/20/2 40/3/2
f 15/6/3 13/11/3 35/7/3
f 11/9/4 15/111/4 34/10/4
f 13/11/5 9/13/5 36/12/5
f 9/13/6 7/113/6 37/14/6
f 37/14/8 7/113/8 5/18/8
f 5/18/9 3/114/9 39/20/9
f 39/20/10 3/114/10 1/1/10
f 20/21/11 19/25/11 17/22/11
f 20/21/12 22/27/12 21/24/12
f 24/26/13 23/29/13 21/24/13
f 26/28/14 25/31/14 23/29/14
f 28/30/15 27/33/15 25/31/15
f 30/32/16 29/35/16 27/33/16
f 32/34/17 31/37/17 29/35/17
f 18/36/18 17/115/18 31/37/18
f 31/40/19 17/116/19 19/117/19
f 19/117/19 21/118/19 23/38/19
f 23/38/19 25/119/19 27/39/19
f 27/39/19 29/120/19 31/40/19
f 31/40/19 19/117/19 23/38/19
f 2/41/20 4/47/20 73/42/20
f 67/44/21 16/57/21 2/45/21
f 4/47/22 6/49/22 72/48/22
f 6/49/23 8/51/23 71/50/23
f 8/51/24 10/53/24 70/52/24
f 10/53/25 12/96/25 69/54/25
f 69/54/26 12/96/26 14/55/26
f 68/56/27 14/55/27 16/57/27
f 61/58/28 38/19/28 39/20/28
f 37/14/29 38/19/29 61/58/29
f 36/12/30 37/14/30 60/59/30
f 35/7/31 36/12/31 59/60/31
f 64/62/32 33/2/32 34/10/32
f 65/64/33 34/8/33 35/7/33
f 40/3/34 33/2/34 64/62/34
f 41/65/35 48/78/35 11/66/35
f 42/68/35 41/65/35 1/67/35
f 43/70/35 42/68/35 3/69/35
f 44/72/35 43/70/35 5/71/35
f 45/74/35 44/72/35 7/73/35
f 46/76/35 45/74/35 9/75/35
f 48/78/35 47/80/35 15/79/35
f 47/80/35 46/76/35 13/77/35
f 30/32/51 63/5/51 64/62/51
f 18/23/52 65/64/52 58/61/52
f 32/34/53 64/62/53 65/63/53
f 58/61/54 59/60/54 22/27/54
f 59/60/55 60/59/55 24/26/55
f 60/59/56 61/58/56 26/28/56
f 26/28/57 61/58/57 62/4/57
f 28/30/58 62/4/58 63/5/58
f 68/97/59 67/109/59 48/98/59
f 69/100/60 68/97/60 41/99/60
f 70/102/61 69/100/61 42/101/61
f 71/104/62 70/102/62 43/103/62
f 45/106/63 72/121/63 71/104/63
f 73/107/64 72/121/64 45/106/64
f 67/109/65 66/122/65 47/110/65
f 66/36/66 73/107/66 46/108/66
