# Blender 5.0.1
# www.blender.org
mtllib Pillow02.mtl
o Pillow02
v 0.097020 0.146375 -0.075453
v 0.101106 0.145296 0.072167
v -0.102972 0.158709 -0.074126
v -0.098728 0.129567 0.081151
v -0.101992 -0.000209 -0.076880
v -0.098040 -0.011663 0.079506
v 0.100886 -0.014689 -0.073547
v 0.100121 -0.009844 0.079812
v -0.330063 0.075407 0.256381
v -0.336481 0.074254 -0.258130
v 0.337766 0.071146 -0.260821
v 0.339788 0.070993 0.263966
v 0.111822 0.054000 0.233331
v -0.110408 0.053960 0.234032
v 0.337955 0.074578 -0.085831
v 0.340861 0.073786 0.088473
v -0.114891 0.076686 -0.248900
v 0.108198 0.069926 -0.264761
v -0.338384 0.074011 0.085919
v -0.325312 0.072531 -0.083124
v -0.265211 -0.003702 0.199471
v -0.300844 0.019731 0.232817
v -0.267946 0.164803 0.198301
v -0.295909 0.128523 0.230776
v -0.271530 -0.010303 -0.201652
v -0.306549 0.017455 -0.232786
v -0.270290 0.167196 -0.199759
v -0.297207 0.136115 -0.230178
v 0.269943 -0.013948 0.199601
v 0.304076 0.017013 0.237491
v 0.270608 0.162294 0.198302
v 0.302339 0.137688 0.232176
v 0.271116 -0.011630 -0.200852
v 0.301974 0.020715 -0.231594
v 0.265880 0.166689 -0.200512
v 0.302441 0.143414 -0.232194
v -0.272295 -0.003581 -0.077150
v -0.302381 0.022328 -0.075954
v -0.293405 0.033864 0.077241
v -0.268093 0.001524 0.074639
v -0.274596 0.155105 0.078320
v -0.306701 0.126261 0.080158
v -0.291946 0.114748 -0.075043
v -0.270470 0.155058 -0.076422
v 0.102159 -0.005185 -0.202739
v 0.105105 0.026145 -0.238118
v -0.105155 0.032865 -0.224395
v -0.098817 -0.007125 -0.203716
v -0.100729 0.156055 -0.206442
v -0.100948 0.117694 -0.228708
v 0.097531 0.126556 -0.235261
v 0.101847 0.151938 -0.195344
v 0.275637 -0.005707 0.076579
v 0.302236 0.023762 0.074714
v 0.305045 0.028607 -0.076752
v 0.271782 -0.004291 -0.075385
v 0.269931 0.147969 -0.075967
v 0.302894 0.120494 -0.076934
v 0.296096 0.115379 0.074881
v 0.261785 0.145266 0.077520
v -0.102090 0.003835 0.197253
v -0.101237 0.023961 0.235587
v 0.099452 0.026150 0.234321
v 0.099524 0.003165 0.199405
v 0.102102 0.116766 0.197013
v 0.098790 0.084766 0.219979
v -0.101244 0.088828 0.223161
v -0.101323 0.129239 0.196020
vn -0.0780 0.9969 0.0094
vn -0.0698 -0.9950 -0.0711
vn -0.7878 -0.6159 -0.0076
vn -0.8810 0.4709 0.0451
vn -0.0022 -0.4596 -0.8881
vn -0.0926 0.8447 -0.5271
vn 0.7035 -0.7097 0.0378
vn 0.6424 0.7510 -0.1528
vn -0.0842 -0.8324 0.5478
vn 0.1293 0.5530 0.8231
vn -0.6427 -0.7650 0.0409
vn -0.6509 -0.7579 0.0435
vn -0.7710 0.6352 0.0457
vn -0.6674 0.7353 -0.1180
vn 0.0049 -0.6914 -0.7225
vn 0.0105 -0.7490 -0.6624
vn 0.0682 0.6671 -0.7419
vn -0.0509 0.5016 -0.8636
vn 0.6940 -0.7190 -0.0377
vn 0.7413 -0.6707 -0.0251
vn 0.6024 0.7899 0.1149
vn 0.6403 0.7662 0.0545
vn 0.0092 -0.8135 0.5815
vn -0.0079 -0.8853 0.4650
vn -0.2188 0.6805 0.6993
vn 0.0316 0.5806 0.8136
vn -0.6732 -0.7329 -0.0988
vn -0.0761 -0.9963 -0.0399
vn -0.0149 0.0472 0.9988
vn -0.8326 0.5528 0.0361
vn 0.1293 0.3619 0.9232
vn 0.2088 0.9779 0.0075
vn -0.9110 -0.4108 0.0370
vn 0.0728 -0.4744 -0.8773
vn 0.0197 -0.9983 0.0540
vn 0.0648 0.9977 -0.0189
vn 0.0339 0.3935 -0.9187
vn -0.8547 0.5157 0.0596
vn 0.7956 -0.6049 -0.0341
vn -0.0136 0.0415 0.9990
vn -0.0995 -0.9893 0.1071
vn -0.2582 0.9591 -0.1163
vn -0.1505 0.3553 0.9226
vn 0.8692 0.4943 0.0132
vn 0.0139 -0.5205 -0.8537
vn 0.8143 -0.5803 0.0134
vn 0.0598 -0.9956 -0.0726
vn -0.0838 0.9850 0.1508
vn 0.8969 0.4422 -0.0096
vn 0.0139 0.3741 -0.9273
vn -0.9109 -0.4041 0.0838
vn 0.0197 -0.9993 0.0331
vn -0.7767 0.6264 -0.0655
vn 0.1386 0.9740 0.1790
vn -0.0722 -0.5148 -0.8543
vn -0.0720 -0.9960 0.0525
vn -0.0494 0.4547 -0.8893
vn 0.0177 0.9987 0.0471
vn 0.8128 -0.5826 -0.0036
vn 0.0241 -0.9992 0.0317
vn 0.6820 0.7313 -0.0080
vn -0.0004 0.9998 0.0176
vn 0.0057 0.0535 0.9986
vn -0.0047 -0.9915 0.1303
vn 0.0028 0.3991 0.9169
vn -0.0665 0.9726 0.2228
vn 0.0617 0.9813 0.1825
vn 0.0091 -0.9995 0.0316
vn -0.6107 -0.7855 -0.1006
vn -0.8015 0.5882 0.1082
vn 0.0830 -0.6957 -0.7136
vn -0.0542 0.7738 -0.6311
vn 0.7329 -0.6801 0.0201
vn 0.6897 0.7126 -0.1284
vn -0.0438 -0.7539 0.6555
vn 0.1516 0.5918 0.7917
vn -0.6513 -0.7580 0.0369
vn -0.7805 -0.6183 0.0923
vn -0.6689 0.7430 -0.0230
vn -0.8826 0.4695 -0.0237
vn -0.0211 -0.7476 -0.6638
vn -0.0724 -0.4672 -0.8812
vn -0.0011 0.5020 -0.8649
vn 0.0466 0.8406 -0.5396
vn 0.7420 -0.6704 -0.0106
vn 0.7030 -0.7112 -0.0097
vn 0.6391 0.7634 0.0940
vn 0.6582 0.7513 0.0482
vn 0.0472 -0.8848 0.4635
vn 0.0126 -0.8352 0.5498
vn -0.1645 0.5863 0.7932
vn 0.0245 0.5574 0.8299
vn -0.8762 -0.4796 0.0467
vn 0.0475 -0.9901 0.1320
vn 0.0592 -0.3626 0.9301
vn -0.8513 0.5220 0.0532
vn 0.0933 0.2739 0.9572
vn 0.1445 0.9856 -0.0877
vn -0.8929 -0.4471 0.0526
vn 0.0426 -0.3883 -0.9205
vn 0.0190 -0.9983 0.0549
vn -0.0230 0.9949 0.0979
vn 0.0470 0.4284 -0.9024
vn -0.7899 0.6033 0.1099
vn 0.8348 -0.5505 -0.0037
vn -0.0944 -0.3874 0.9171
vn 0.0223 -0.9976 -0.0658
vn -0.0072 0.9748 0.2228
vn -0.1445 0.3418 0.9286
vn 0.6956 0.7069 -0.1279
vn 0.0175 -0.5106 -0.8596
vn 0.8183 -0.5747 0.0104
vn -0.0387 -0.9975 0.0585
vn -0.0091 0.9989 0.0460
vn 0.7998 0.5942 0.0854
vn -0.0244 0.4582 -0.8885
vn -0.6701 -0.7409 -0.0453
vn -0.0751 -0.9946 -0.0710
vn -0.8548 0.5052 -0.1187
vn -0.0218 0.9998 -0.0009
vn -0.0765 -0.4995 -0.8629
vn 0.0100 -0.9973 -0.0733
vn -0.0496 0.4541 -0.8896
vn 0.0614 0.9979 -0.0190
vn 0.7935 -0.6083 -0.0160
vn 0.0606 -0.9981 -0.0108
vn 0.7987 0.5991 0.0560
vn -0.0092 0.9999 0.0076
vn 0.0031 0.0341 0.9994
vn 0.0090 -0.9941 0.1082
vn 0.0211 0.2925 0.9560
vn 0.0612 0.9981 0.0042
vt 0.419077 0.109867
vt 0.338022 0.215133
vt 0.338022 0.109867
vt 0.166711 0.215133
vt 0.085656 0.109867
vt 0.166711 0.109867
vt 0.020515 0.020515
vt 0.085656 0.004600
vt 0.085656 0.020515
vt 0.484218 0.304485
vt 0.419077 0.320400
vt 0.419077 0.304485
vt 0.231852 0.020515
vt 0.247766 0.109867
vt 0.231852 0.109867
vt 0.484218 0.020515
vt 0.500132 0.109867
vt 0.484218 0.109867
vt 0.231852 0.304485
vt 0.166711 0.320400
vt 0.166711 0.304485
vt 0.272881 0.020515
vt 0.338022 0.004600
vt 0.338022 0.020515
vt 0.020515 0.304485
vt 0.004600 0.215133
vt 0.020515 0.215133
vt 0.272881 0.304485
vt 0.256967 0.215133
vt 0.272881 0.215133
vt 0.166711 0.004600
vt 0.247766 0.004600
vt 0.166711 0.020515
vt 0.338022 0.320400
vt 0.256967 0.320400
vt 0.338022 0.304485
vt 0.247766 0.215133
vt 0.247766 0.320400
vt 0.231852 0.215133
vt 0.500132 0.215133
vt 0.500132 0.320400
vt 0.484218 0.215133
vt 0.085656 0.320400
vt 0.004600 0.320400
vt 0.085656 0.304485
vt 0.419077 0.004600
vt 0.500132 0.004600
vt 0.419077 0.020515
vt 0.004600 0.109867
vt 0.004600 0.004600
vt 0.020515 0.109867
vt 0.256967 0.109867
vt 0.256967 0.004600
vt 0.272881 0.109867
vt 0.258253 0.572766
vt 0.234298 0.491711
vt 0.258253 0.491711
vt 0.140327 0.434867
vt 0.164282 0.329600
vt 0.164282 0.434867
vt 0.210343 0.572766
vt 0.234298 0.572766
vt 0.116372 0.329600
vt 0.140327 0.329600
vt 0.234298 0.410656
vt 0.258253 0.329600
vt 0.258253 0.410656
vt 0.070311 0.645400
vt 0.046356 0.540133
vt 0.070311 0.540133
vt 0.419077 0.215133
vt 0.022401 0.645400
vt 0.046356 0.645400
vt 0.210343 0.329600
vt 0.234298 0.329600
vt 0.328268 0.410656
vt 0.352223 0.329600
vt 0.352223 0.410656
vt 0.164282 0.645400
vt 0.140327 0.540133
vt 0.164282 0.540133
vt 0.085656 0.215133
vt 0.116372 0.645400
vt 0.140327 0.645400
vt 0.304314 0.329600
vt 0.328268 0.329600
vt 0.046356 0.434867
vt 0.070311 0.329600
vt 0.070311 0.434867
vt 0.352223 0.572766
vt 0.328268 0.491711
vt 0.352223 0.491711
vt 0.304314 0.572766
vt 0.328268 0.572766
vt 0.022402 0.329600
vt 0.046356 0.329600
vt 0.210343 0.410656
vt 0.022401 0.540133
vt 0.304314 0.410656
vt 0.116372 0.540133
vt 0.210343 0.491711
vt 0.116372 0.434867
vt 0.304314 0.491711
vt 0.022402 0.434867
s 0
usemtl 32x32grid
f 1/1/1 4/2/1 2/3/1
f 7/4/2 6/5/2 5/6/2
f 21/7/3 39/8/3 40/9/3
f 27/10/4 43/11/4 44/12/4
f 25/13/5 47/14/5 48/15/5
f 35/16/6 51/17/6 52/18/6
f 33/19/7 55/20/7 56/21/7
f 31/22/8 59/23/8 60/24/8
f 29/25/9 63/26/9 64/27/9
f 23/28/10 67/29/10 68/30/10
f 25/13/11 38/31/11 26/32/11
f 40/9/12 38/31/12 37/33/12
f 23/28/13 42/34/13 24/35/13
f 41/36/14 43/11/14 42/34/14
f 33/19/15 46/37/15 34/38/15
f 48/15/16 46/37/16 45/39/16
f 27/10/17 50/40/17 28/41/17
f 49/42/18 51/17/18 50/40/18
f 29/25/19 54/43/19 30/44/19
f 56/21/20 54/43/20 53/45/20
f 35/16/21 58/46/21 36/47/21
f 57/48/22 59/23/22 58/46/22
f 21/7/23 62/49/23 22/50/23
f 64/27/24 62/49/24 61/51/24
f 31/22/25 66/52/25 32/53/25
f 68/30/26 66/52/26 65/54/26
f 22/55/27 19/56/27 39/57/27
f 6/5/28 21/7/28 40/9/28
f 14/58/29 22/59/29 62/60/29
f 24/61/30 19/56/30 9/62/30
f 14/58/31 24/63/31 9/64/31
f 4/2/32 23/28/32 68/30/32
f 20/65/33 26/66/33 38/67/33
f 26/68/34 17/69/34 47/70/34
f 25/13/35 5/6/35 37/33/35
f 27/10/36 3/71/36 49/42/36
f 28/72/37 17/69/37 10/73/37
f 20/65/38 28/74/38 10/75/38
f 16/76/39 30/77/39 54/78/39
f 30/79/40 13/80/40 63/81/40
f 8/82/41 29/25/41 64/27/41
f 60/24/42 65/54/42 31/22/42
f 32/83/43 13/80/43 12/84/43
f 16/76/44 32/85/44 12/86/44
f 18/87/45 34/88/45 46/89/45
f 34/90/46 15/91/46 55/92/46
f 45/39/47 56/21/47 7/4/47
f 52/18/48 57/48/48 35/16/48
f 36/93/49 15/91/49 11/94/49
f 18/87/50 36/95/50 11/96/50
f 39/57/51 20/65/51 38/67/51
f 5/6/52 40/9/52 37/33/52
f 19/56/53 43/97/53 20/65/53
f 3/71/54 41/36/54 4/2/54
f 47/70/55 18/87/55 46/89/55
f 48/15/56 7/4/56 5/6/56
f 50/98/57 18/87/57 17/69/57
f 49/42/58 1/1/58 52/18/58
f 15/91/59 54/78/59 55/92/59
f 7/4/60 53/45/60 8/82/60
f 15/91/61 59/99/61 16/76/61
f 57/48/62 2/3/62 60/24/62
f 63/81/63 14/58/63 62/60/63
f 6/5/64 64/27/64 61/51/64
f 66/100/65 14/58/65 13/80/65
f 4/2/66 65/54/66 2/3/66
f 1/1/67 3/71/67 4/2/67
f 7/4/68 8/82/68 6/5/68
f 21/7/69 22/50/69 39/8/69
f 27/10/70 28/41/70 43/11/70
f 25/13/71 26/32/71 47/14/71
f 35/16/72 36/47/72 51/17/72
f 33/19/73 34/38/73 55/20/73
f 31/22/74 32/53/74 59/23/74
f 29/25/75 30/44/75 63/26/75
f 23/28/76 24/35/76 67/29/76
f 25/13/77 37/33/77 38/31/77
f 40/9/78 39/8/78 38/31/78
f 23/28/79 41/36/79 42/34/79
f 41/36/80 44/12/80 43/11/80
f 33/19/81 45/39/81 46/37/81
f 48/15/82 47/14/82 46/37/82
f 27/10/83 49/42/83 50/40/83
f 49/42/84 52/18/84 51/17/84
f 29/25/85 53/45/85 54/43/85
f 56/21/86 55/20/86 54/43/86
f 35/16/87 57/48/87 58/46/87
f 57/48/88 60/24/88 59/23/88
f 21/7/89 61/51/89 62/49/89
f 64/27/90 63/26/90 62/49/90
f 31/22/91 65/54/91 66/52/91
f 68/30/92 67/29/92 66/52/92
f 22/55/93 9/62/93 19/56/93
f 6/5/94 61/51/94 21/7/94
f 14/58/95 9/64/95 22/59/95
f 24/61/96 42/101/96 19/56/96
f 14/58/97 67/102/97 24/63/97
f 4/2/98 41/36/98 23/28/98
f 20/65/99 10/75/99 26/66/99
f 26/68/100 10/73/100 17/69/100
f 25/13/101 48/15/101 5/6/101
f 27/10/102 44/12/102 3/71/102
f 28/72/103 50/98/103 17/69/103
f 20/65/104 43/97/104 28/74/104
f 16/76/105 12/86/105 30/77/105
f 30/79/106 12/84/106 13/80/106
f 8/82/107 53/45/107 29/25/107
f 60/24/108 2/3/108 65/54/108
f 32/83/109 66/100/109 13/80/109
f 16/76/110 59/99/110 32/85/110
f 18/87/111 11/96/111 34/88/111
f 34/90/112 11/94/112 15/91/112
f 45/39/113 33/19/113 56/21/113
f 52/18/114 1/1/114 57/48/114
f 36/93/115 58/103/115 15/91/115
f 18/87/116 51/104/116 36/95/116
f 39/57/117 19/56/117 20/65/117
f 5/6/118 6/5/118 40/9/118
f 19/56/119 42/101/119 43/97/119
f 3/71/120 44/12/120 41/36/120
f 47/70/121 17/69/121 18/87/121
f 48/15/122 45/39/122 7/4/122
f 50/98/123 51/104/123 18/87/123
f 49/42/124 3/71/124 1/1/124
f 15/91/125 16/76/125 54/78/125
f 7/4/126 56/21/126 53/45/126
f 15/91/127 58/103/127 59/99/127
f 57/48/128 1/1/128 2/3/128
f 63/81/129 13/80/129 14/58/129
f 6/5/130 8/82/130 64/27/130
f 66/100/131 67/102/131 14/58/131
f 4/2/132 68/30/132 65/54/132
