# Blender 5.0.1
# www.blender.org
mtllib Toothpaste01.mtl
o Toothpaste01
v -0.000000 0.000000 -0.014520
v -0.000000 0.000000 -0.014520
v -0.000000 0.000000 -0.014520
v -0.010267 0.000000 -0.010267
v -0.010267 0.000000 -0.010267
v -0.010267 0.000000 -0.010267
v -0.014520 0.000000 -0.000000
v -0.014520 0.000000 -0.000000
v -0.014520 0.000000 -0.000000
v -0.010267 0.000000 0.010267
v -0.010267 0.000000 0.010267
v -0.010267 0.000000 0.010267
v -0.000000 0.000000 0.014520
v -0.000000 0.000000 0.014520
v -0.000000 0.000000 0.014520
v 0.010267 0.000000 0.010267
v 0.010267 0.000000 0.010267
v 0.010267 0.000000 0.010267
v 0.014520 0.000000 -0.000000
v 0.014520 0.000000 -0.000000
v 0.014520 0.000000 -0.000000
v 0.010267 0.000000 -0.010267
v 0.010267 0.000000 -0.010267
v 0.010267 0.000000 -0.010267
v -0.010267 0.016500 -0.010267
v -0.010267 0.016500 -0.010267
v -0.010267 0.016500 -0.010267
v -0.010267 0.016500 -0.010267
v -0.000000 0.016500 -0.014520
v -0.000000 0.016500 -0.014520
v -0.000000 0.016500 -0.014520
v -0.000000 0.016500 -0.014520
v -0.014520 0.016500 -0.000000
v -0.014520 0.016500 -0.000000
v -0.014520 0.016500 -0.000000
v -0.014520 0.016500 -0.000000
v -0.010267 0.016500 0.010267
v -0.010267 0.016500 0.010267
v -0.010267 0.016500 0.010267
v -0.010267 0.016500 0.010267
v -0.000000 0.016500 0.014520
v -0.000000 0.016500 0.014520
v -0.000000 0.016500 0.014520
v -0.000000 0.016500 0.014520
v 0.010267 0.016500 0.010267
v 0.010267 0.016500 0.010267
v 0.010267 0.016500 0.010267
v 0.010267 0.016500 0.010267
v 0.014520 0.016500 -0.000000
v 0.014520 0.016500 -0.000000
v 0.014520 0.016500 -0.000000
v 0.014520 0.016500 -0.000000
v 0.010267 0.016500 -0.010267
v 0.010267 0.016500 -0.010267
v 0.010267 0.016500 -0.010267
v 0.010267 0.016500 -0.010267
v -0.010760 0.118509 -0.002042
v -0.010760 0.118509 -0.002042
v -0.010760 0.118509 -0.002042
v -0.010760 0.118509 -0.002042
v -0.010760 0.118509 -0.002042
v -0.000000 0.118509 -0.002540
v -0.000000 0.118509 -0.002540
v -0.000000 0.118509 -0.002540
v -0.000000 0.118509 -0.002540
v -0.015216 0.118509 -0.000000
v -0.015216 0.118509 -0.000000
v -0.015216 0.118509 -0.000000
v -0.015216 0.118509 -0.000000
v -0.010760 0.118509 0.002042
v -0.010760 0.118509 0.002042
v -0.010760 0.118509 0.002042
v -0.010760 0.118509 0.002042
v -0.010760 0.118509 0.002042
v -0.000000 0.118509 0.002540
v -0.000000 0.118509 0.002540
v -0.000000 0.118509 0.002540
v -0.000000 0.118509 0.002540
v 0.010760 0.118509 0.002042
v 0.010760 0.118509 0.002042
v 0.010760 0.118509 0.002042
v 0.010760 0.118509 0.002042
v 0.010760 0.118509 0.002042
v 0.015216 0.118509 -0.000000
v 0.015216 0.118509 -0.000000
v 0.015216 0.118509 -0.000000
v 0.015216 0.118509 -0.000000
v 0.010760 0.118509 -0.002042
v 0.010760 0.118509 -0.002042
v 0.010760 0.118509 -0.002042
v 0.010760 0.118509 -0.002042
v 0.010760 0.118509 -0.002042
v -0.015994 0.124608 -0.000000
v -0.015994 0.124608 -0.000000
v -0.015994 0.124608 -0.000000
v -0.015994 0.124608 -0.000000
v 0.015994 0.124608 -0.000000
v 0.015994 0.124608 -0.000000
v 0.015994 0.124608 -0.000000
v 0.015994 0.124608 -0.000000
v -0.000000 0.124608 -0.000000
v -0.000000 0.124608 -0.000000
v -0.000000 0.124608 -0.000000
v -0.000000 0.124608 -0.000000
v -0.011196 0.124608 -0.000000
v -0.011196 0.124608 -0.000000
v -0.011196 0.124608 -0.000000
v -0.011196 0.124608 -0.000000
v 0.011196 0.124608 -0.000000
v 0.011196 0.124608 -0.000000
v 0.011196 0.124608 -0.000000
v 0.011196 0.124608 -0.000000
v 0.010267 0.104106 -0.005731
v 0.010267 0.104106 -0.005731
v 0.010267 0.104106 -0.005731
v 0.010267 0.104106 -0.005731
v 0.014520 0.104106 -0.000000
v 0.014520 0.104106 -0.000000
v 0.014520 0.104106 -0.000000
v 0.014520 0.104106 -0.000000
v 0.010267 0.104106 0.005731
v 0.010267 0.104106 0.005731
v 0.010267 0.104106 0.005731
v 0.010267 0.104106 0.005731
v -0.000000 0.104106 0.007757
v -0.000000 0.104106 0.007757
v -0.000000 0.104106 0.007757
v -0.000000 0.104106 0.007757
v -0.010267 0.104106 0.005731
v -0.010267 0.104106 0.005731
v -0.010267 0.104106 0.005731
v -0.010267 0.104106 0.005731
v -0.014520 0.104106 -0.000000
v -0.014520 0.104106 -0.000000
v -0.014520 0.104106 -0.000000
v -0.014520 0.104106 -0.000000
v -0.010267 0.104106 -0.005731
v -0.010267 0.104106 -0.005731
v -0.010267 0.104106 -0.005731
v -0.010267 0.104106 -0.005731
v -0.000000 0.104106 -0.007757
v -0.000000 0.104106 -0.007757
v -0.000000 0.104106 -0.007757
v -0.000000 0.104106 -0.007757
v 0.014520 0.056423 -0.000000
v 0.014520 0.056423 -0.000000
v 0.014520 0.056423 -0.000000
v 0.014520 0.056423 -0.000000
v -0.000000 0.056423 0.011887
v -0.000000 0.056423 0.011887
v -0.000000 0.056423 0.011887
v -0.000000 0.056423 0.011887
v -0.014520 0.056423 -0.000000
v -0.014520 0.056423 -0.000000
v -0.014520 0.056423 -0.000000
v -0.014520 0.056423 -0.000000
v -0.000000 0.056423 -0.011887
v -0.000000 0.056423 -0.011887
v -0.000000 0.056423 -0.011887
v -0.000000 0.056423 -0.011887
v 0.010267 0.056423 -0.008761
v 0.010267 0.056423 -0.008761
v 0.010267 0.056423 -0.008761
v 0.010267 0.056423 -0.008761
v 0.010267 0.056423 0.008761
v 0.010267 0.056423 0.008761
v 0.010267 0.056423 0.008761
v 0.010267 0.056423 0.008761
v -0.010267 0.056423 0.008761
v -0.010267 0.056423 0.008761
v -0.010267 0.056423 0.008761
v -0.010267 0.056423 0.008761
v -0.010267 0.056423 -0.008761
v -0.010267 0.056423 -0.008761
v -0.010267 0.056423 -0.008761
v -0.010267 0.056423 -0.008761
vn -0.0000 -1.0000 -0.0000
vn 0.6644 0.0679 -0.7443
vn 0.6643 0.0679 -0.7444
vn -0.3827 -0.0000 0.9239
vn -0.9239 -0.0000 -0.3827
vn 0.9239 -0.0000 -0.3827
vn 0.3827 -0.0000 0.9239
vn -0.9239 -0.0000 0.3827
vn -0.3827 -0.0000 -0.9239
vn 0.3827 -0.0000 -0.9239
vn 0.9239 -0.0000 0.3827
vn 0.4160 -0.0530 0.9078
vn 0.1140 0.2917 0.9497
vn -0.6644 0.0679 0.7443
vn -0.6643 0.0679 0.7444
vn -0.1140 0.2917 -0.9497
vn 0.1140 0.2917 -0.9497
vn 0.6644 0.0679 0.7443
vn 0.6643 0.0679 0.7444
vn -0.1140 0.2917 0.9497
vn -0.6644 0.0679 -0.7443
vn -0.6643 0.0679 -0.7444
vn -0.4160 -0.0530 0.9078
vn -0.4160 -0.0530 -0.9078
vn 0.4160 -0.0530 -0.9078
vn -0.0000 0.3175 0.9483
vn -0.0212 0.3509 0.9362
vn 0.0212 0.3509 0.9362
vn -0.0000 0.3175 -0.9483
vn 0.0212 0.3509 -0.9362
vn -0.0212 0.3509 -0.9362
vn -0.8623 0.0161 -0.5061
vn -0.2427 0.0726 0.9674
vn 0.8623 0.0161 0.5061
vn 0.2427 0.0726 -0.9674
vn -0.2427 0.0726 -0.9674
vn -0.8623 0.0161 0.5061
vn 0.2427 0.0726 0.9674
vn 0.8623 0.0161 -0.5061
vn 0.9129 0.0077 -0.4081
vn 0.3378 0.0487 0.9400
vn -0.9129 0.0077 0.4081
vn -0.3378 0.0487 -0.9400
vn 0.3378 0.0487 -0.9400
vn 0.9129 0.0077 0.4081
vn -0.3378 0.0487 0.9400
vn -0.9129 0.0077 -0.4081
vt 0.625000 0.500000
vt 0.750000 0.562500
vt 0.875000 0.500000
vt 0.937500 0.375000
vt 0.875000 0.250000
vt 0.750000 0.187500
vt 0.625000 0.250000
vt 0.562500 0.375000
vt 0.375000 0.625000
vt 0.437500 0.625000
vt 0.437500 0.750000
vt 0.375000 0.750000
vt 0.375000 0.000000
vt 0.500000 0.000000
vt 0.500000 0.125000
vt 0.375000 0.125000
vt 0.125000 0.000000
vt 0.250000 0.000000
vt 0.250000 0.125000
vt 0.125000 0.125000
vt 0.750000 0.000000
vt 0.875000 0.000000
vt 0.875000 0.125000
vt 0.750000 0.125000
vt 0.625000 0.000000
vt 0.625000 0.125000
vt 0.000000 0.000000
vt 0.000000 0.125000
vt 1.000000 0.000000
vt 1.000000 0.125000
vt 0.312500 0.750000
vt 0.375000 0.812500
vt 0.250000 0.625000
vt 0.312500 0.625000
vt 0.250000 0.750000
vt 0.125000 0.625000
vt 0.187500 0.625000
vt 0.187500 0.750000
vt 0.125000 0.750000
vt 0.000000 0.625000
vt 0.062500 0.625000
vt 0.062500 0.750000
vt 0.000000 0.750000
vt 0.500000 0.625000
vt 0.500000 0.750000
vt 0.125000 0.812500
vt 0.062500 0.812500
vt 0.437500 0.812500
vt 0.187500 0.812500
vt 0.250000 0.812500
vt 0.312500 0.812500
vt 0.500000 0.812500
vt 0.000000 0.812500
vt 0.062500 0.375000
vt 0.125000 0.375000
vt 0.187500 0.375000
vt 0.250000 0.375000
vt 0.312500 0.375000
vt 0.375000 0.375000
vt 0.437500 0.375000
vt 0.500000 0.375000
vt 0.000000 0.375000
vt 0.437500 0.125000
vt 0.312500 0.125000
vt 0.187500 0.125000
vt 0.062500 0.125000
s 0
usemtl Toothpaste01
f 4/1/1 1/2/1 22/3/1
f 22/3/1 19/4/1 16/5/1
f 16/5/1 13/6/1 10/7/1
f 10/7/1 7/8/1 4/1/1
f 4/1/1 22/3/1 16/5/1
f 16/5/1 10/7/1 4/1/1
s 1
f 118/9/2 115/10/2 92/11/3
f 118/9/2 92/11/3 87/12/3
s 0
f 11/13/4 15/14/4 44/15/4
f 11/13/4 44/15/4 38/16/4
f 6/17/5 9/18/5 36/19/5
f 6/17/5 36/19/5 28/20/5
f 21/21/6 24/22/6 56/23/6
f 21/21/6 56/23/6 52/24/6
f 14/14/7 17/25/7 46/26/7
f 14/14/7 46/26/7 42/15/7
f 8/18/8 12/13/8 40/16/8
f 8/18/8 40/16/8 35/19/8
f 3/27/9 5/17/9 26/20/9
f 3/27/9 26/20/9 32/28/9
f 23/22/10 2/29/10 30/30/10
f 23/22/10 30/30/10 54/23/10
f 18/25/11 20/21/11 51/24/11
f 18/25/11 51/24/11 48/26/11
f 82/31/12 84/12/12 99/32/12
s 1
f 125/33/13 121/34/13 81/31/13
f 125/33/13 81/31/13 76/35/13
f 133/36/14 131/37/14 74/38/15
f 133/36/14 74/38/15 68/39/15
f 143/40/16 137/41/16 59/42/16
f 143/40/16 59/42/16 65/43/16
f 113/10/17 141/44/17 63/45/17
f 113/10/17 63/45/17 90/11/17
f 123/34/18 117/9/18 86/12/19
f 123/34/18 86/12/19 83/31/19
f 129/37/20 127/33/20 78/35/20
f 129/37/20 78/35/20 72/38/20
f 139/41/21 134/36/21 69/39/22
f 139/41/21 69/39/22 61/42/22
s 0
f 66/39/23 73/38/23 95/46/23
f 60/39/24 67/42/24 96/47/24
f 85/11/25 91/12/25 100/48/25
f 93/46/26 70/38/26 105/49/26
s 1
f 77/35/27 103/50/27 107/49/27
f 77/35/27 107/49/27 71/38/27
f 80/31/28 111/51/28 101/50/28
f 80/31/28 101/50/28 75/35/28
s 0
f 109/51/26 79/31/26 97/32/26
f 98/48/29 88/12/29 110/32/29
s 1
f 89/45/30 62/11/30 102/48/30
f 89/45/30 102/48/30 112/52/30
f 64/42/31 58/43/31 108/53/31
f 64/42/31 108/53/31 104/47/31
s 0
f 94/47/29 106/46/29 57/39/29
s 1
f 175/54/32 154/55/32 136/36/32
f 175/54/32 136/36/32 140/41/32
f 169/56/33 151/57/33 128/33/33
f 169/56/33 128/33/33 130/37/33
f 167/58/34 145/59/34 119/9/34
f 167/58/34 119/9/34 124/34/34
f 161/60/35 157/61/35 142/44/35
f 161/60/35 142/44/35 114/10/35
f 159/62/36 173/54/36 138/41/36
f 159/62/36 138/41/36 144/40/36
f 153/55/37 171/56/37 132/37/37
f 153/55/37 132/37/37 135/36/37
f 149/57/38 165/58/38 122/34/38
f 149/57/38 122/34/38 126/33/38
f 146/59/39 163/60/39 116/10/39
f 146/59/39 116/10/39 120/9/39
f 50/16/40 55/63/40 164/60/40
f 50/16/40 164/60/40 148/59/40
f 41/19/41 45/64/41 166/58/41
f 41/19/41 166/58/41 150/57/41
f 33/20/42 39/65/42 172/56/42
f 33/20/42 172/56/42 155/55/42
f 31/28/43 25/66/43 174/54/43
f 31/28/43 174/54/43 160/62/43
f 53/63/44 29/15/44 158/61/44
f 53/63/44 158/61/44 162/60/44
f 47/64/45 49/16/45 147/59/45
f 47/64/45 147/59/45 168/58/45
f 37/65/46 43/19/46 152/57/46
f 37/65/46 152/57/46 170/56/46
f 27/66/47 34/20/47 156/55/47
f 27/66/47 156/55/47 176/54/47
