# Blender 5.0.1
# www.blender.org
mtllib NewsPaper01.mtl
o NewsPaper01
v -0.112000 0.000000 0.140000
v -0.112000 0.000000 0.140000
v -0.112000 0.000000 0.140000
v -0.112000 0.010118 0.140000
v -0.112000 0.010118 0.140000
v -0.112000 0.010118 0.140000
v -0.112000 0.000000 -0.140000
v -0.112000 0.000000 -0.140000
v -0.112000 0.000000 -0.140000
v -0.112000 0.010118 -0.140000
v -0.112000 0.010118 -0.140000
v -0.112000 0.010118 -0.140000
v 0.112000 0.000000 0.140000
v 0.112000 0.000000 0.140000
v 0.112000 0.000000 0.140000
v 0.112000 0.010118 0.140000
v 0.112000 0.010118 0.140000
v 0.112000 0.010118 0.140000
v 0.112000 0.000000 -0.140000
v 0.112000 0.000000 -0.140000
v 0.112000 0.000000 -0.140000
v 0.112000 0.010118 -0.140000
v 0.112000 0.010118 -0.140000
v 0.112000 0.010118 -0.140000
vn -1.0000 -0.0000 -0.0000
vn -0.0000 -0.0000 -1.0000
vn 1.0000 -0.0000 -0.0000
vn -0.0000 -0.0000 1.0000
vn -0.0000 -1.0000 -0.0000
vn -0.0000 1.0000 -0.0000
vt 0.125000 0.812500
vt 0.125000 0.875000
vt 0.875000 0.875000
vt 0.875000 0.812500
vt 0.250000 0.937500
vt 0.250000 1.000000
vt 0.750000 1.000000
vt 0.750000 0.937500
vt 0.000000 0.750000
vt 0.500000 0.750000
vt 0.500000 0.000000
vt 0.000000 0.000000
vt 1.000000 0.750000
vt 1.000000 0.000000
s 0
usemtl NewsPaper01
f 3/1/1 6/2/1 12/3/1
f 3/1/1 12/3/1 9/4/1
f 7/5/2 10/6/2 22/7/2
f 7/5/2 22/7/2 19/8/2
f 21/4/3 24/3/3 18/2/3
f 21/4/3 18/2/3 15/1/3
f 13/8/4 16/7/4 4/6/4
f 13/8/4 4/6/4 1/5/4
f 8/9/5 20/10/5 14/11/5
f 8/9/5 14/11/5 2/12/5
f 23/13/6 11/10/6 5/11/6
f 23/13/6 5/11/6 17/14/6
