# Blender 5.0.1
# www.blender.org
mtllib Toothpaste02.mtl
o Toothpaste02
v -0.000000 0.000000 -0.014520
v -0.000000 0.000000 -0.014520
v -0.000000 0.000000 -0.014520
v -0.010267 0.000000 -0.010267
v -0.010267 0.000000 -0.010267
v -0.010267 0.000000 -0.010267
v -0.014520 0.000000 -0.000000
v -0.014520 0.000000 -0.000000
v -0.014520 0.000000 -0.000000
v -0.010267 0.000000 0.010267
v -0.010267 0.000000 0.010267
v -0.010267 0.000000 0.010267
v -0.000000 0.000000 0.014520
v -0.000000 0.000000 0.014520
v -0.000000 0.000000 0.014520
v 0.010267 0.000000 0.010267
v 0.010267 0.000000 0.010267
v 0.010267 0.000000 0.010267
v 0.014520 0.000000 -0.000000
v 0.014520 0.000000 -0.000000
v 0.014520 0.000000 -0.000000
v 0.010267 0.000000 -0.010267
v 0.010267 0.000000 -0.010267
v 0.010267 0.000000 -0.010267
v -0.010267 0.016500 -0.010267
v -0.010267 0.016500 -0.010267
v -0.010267 0.016500 -0.010267
v -0.010267 0.016500 -0.010267
v -0.000000 0.016500 -0.014520
v -0.000000 0.016500 -0.014520
v -0.000000 0.016500 -0.014520
v -0.000000 0.016500 -0.014520
v -0.014520 0.016500 -0.000000
v -0.014520 0.016500 -0.000000
v -0.014520 0.016500 -0.000000
v -0.014520 0.016500 -0.000000
v -0.010267 0.016500 0.010267
v -0.010267 0.016500 0.010267
v -0.010267 0.016500 0.010267
v -0.010267 0.016500 0.010267
v -0.000000 0.016500 0.014520
v -0.000000 0.016500 0.014520
v -0.000000 0.016500 0.014520
v -0.000000 0.016500 0.014520
v 0.010267 0.016500 0.010267
v 0.010267 0.016500 0.010267
v 0.010267 0.016500 0.010267
v 0.010267 0.016500 0.010267
v 0.014520 0.016500 -0.000000
v 0.014520 0.016500 -0.000000
v 0.014520 0.016500 -0.000000
v 0.014520 0.016500 -0.000000
v 0.010267 0.016500 -0.010267
v 0.010267 0.016500 -0.010267
v 0.010267 0.016500 -0.010267
v 0.010267 0.016500 -0.010267
v -0.010760 0.113139 -0.000734
v -0.010760 0.113139 -0.000734
v -0.010760 0.113139 -0.000734
v -0.010760 0.113139 -0.000734
v -0.010760 0.113139 -0.000734
v -0.000000 0.113084 -0.001229
v -0.000000 0.113084 -0.001229
v -0.000000 0.113084 -0.001229
v -0.000000 0.113084 -0.001229
v -0.015216 0.113365 0.001295
v -0.015216 0.113365 0.001295
v -0.015216 0.113365 0.001295
v -0.015216 0.113365 0.001295
v -0.010760 0.113590 0.003325
v -0.010760 0.113590 0.003325
v -0.010760 0.113590 0.003325
v -0.010760 0.113590 0.003325
v -0.010760 0.113590 0.003325
v -0.000000 0.113645 0.003820
v -0.000000 0.113645 0.003820
v -0.000000 0.113645 0.003820
v -0.000000 0.113645 0.003820
v 0.010760 0.113590 0.003325
v 0.010760 0.113590 0.003325
v 0.010760 0.113590 0.003325
v 0.010760 0.113590 0.003325
v 0.010760 0.113590 0.003325
v 0.015216 0.113365 0.001295
v 0.015216 0.113365 0.001295
v 0.015216 0.113365 0.001295
v 0.015216 0.113365 0.001295
v 0.010760 0.113139 -0.000734
v 0.010760 0.113139 -0.000734
v 0.010760 0.113139 -0.000734
v 0.010760 0.113139 -0.000734
v 0.010760 0.113139 -0.000734
v -0.015994 0.119426 0.000622
v -0.015994 0.119426 0.000622
v -0.015994 0.119426 0.000622
v -0.015994 0.119426 0.000622
v 0.015994 0.119426 0.000622
v 0.015994 0.119426 0.000622
v 0.015994 0.119426 0.000622
v 0.015994 0.119426 0.000622
v -0.000000 0.119426 0.000622
v -0.000000 0.119426 0.000622
v -0.000000 0.119426 0.000622
v -0.000000 0.119426 0.000622
v -0.011196 0.119426 0.000622
v -0.011196 0.119426 0.000622
v -0.011196 0.119426 0.000622
v -0.011196 0.119426 0.000622
v 0.011196 0.119426 0.000622
v 0.011196 0.119426 0.000622
v 0.011196 0.119426 0.000622
v 0.011196 0.119426 0.000622
v 0.010267 0.098947 -0.001083
v 0.010267 0.098947 -0.001083
v 0.010267 0.098947 -0.001083
v 0.010267 0.098947 -0.001083
v 0.014520 0.098947 0.001381
v 0.014520 0.098947 0.001381
v 0.014520 0.098947 0.001381
v 0.014520 0.098947 0.001381
v 0.010267 0.098947 0.003845
v 0.010267 0.098947 0.003845
v 0.010267 0.098947 0.003845
v 0.010267 0.098947 0.003845
v -0.000000 0.098947 0.004716
v -0.000000 0.098947 0.004716
v -0.000000 0.098947 0.004716
v -0.000000 0.098947 0.004716
v -0.010267 0.098947 0.003845
v -0.010267 0.098947 0.003845
v -0.010267 0.098947 0.003845
v -0.010267 0.098947 0.003845
v -0.014520 0.098947 0.001381
v -0.014520 0.098947 0.001381
v -0.014520 0.098947 0.001381
v -0.014520 0.098947 0.001381
v -0.010267 0.098947 -0.001083
v -0.010267 0.098947 -0.001083
v -0.010267 0.098947 -0.001083
v -0.010267 0.098947 -0.001083
v -0.000000 0.098947 -0.001954
v -0.000000 0.098947 -0.001954
v -0.000000 0.098947 -0.001954
v -0.000000 0.098947 -0.001954
v 0.014520 0.051265 -0.000000
v 0.014520 0.051265 -0.000000
v 0.014520 0.051265 -0.000000
v 0.014520 0.051265 -0.000000
v -0.000000 0.051265 0.003725
v -0.000000 0.051265 0.003725
v -0.000000 0.051265 0.003725
v -0.000000 0.051265 0.003725
v -0.014520 0.051265 -0.000000
v -0.014520 0.051265 -0.000000
v -0.014520 0.051265 -0.000000
v -0.014520 0.051265 -0.000000
v -0.000000 0.051265 -0.003725
v -0.000000 0.051265 -0.003725
v -0.000000 0.051265 -0.003725
v -0.000000 0.051265 -0.003725
v 0.010267 0.051265 -0.002746
v 0.010267 0.051265 -0.002746
v 0.010267 0.051265 -0.002746
v 0.010267 0.051265 -0.002746
v 0.010267 0.051265 0.002746
v 0.010267 0.051265 0.002746
v 0.010267 0.051265 0.002746
v 0.010267 0.051265 0.002746
v -0.010267 0.051265 0.002746
v -0.010267 0.051265 0.002746
v -0.010267 0.051265 0.002746
v -0.010267 0.051265 0.002746
v -0.010267 0.051265 -0.002746
v -0.010267 0.051265 -0.002746
v -0.010267 0.051265 -0.002746
v -0.010267 0.051265 -0.002746
v 0.010267 0.075106 -0.004351
v 0.010267 0.075106 -0.004351
v 0.010267 0.075106 -0.004351
v 0.010267 0.075106 -0.004351
v 0.010267 0.075106 0.000858
v 0.010267 0.075106 0.000858
v 0.010267 0.075106 0.000858
v 0.010267 0.075106 0.000858
v -0.010267 0.075106 0.000858
v -0.010267 0.075106 0.000858
v -0.010267 0.075106 0.000858
v -0.010267 0.075106 0.000858
v -0.010267 0.075106 -0.004351
v -0.010267 0.075106 -0.004351
v -0.010267 0.075106 -0.004351
v -0.010267 0.075106 -0.004351
v 0.014520 0.075106 -0.001747
v 0.014520 0.075106 -0.001747
v 0.014520 0.075106 -0.001747
v 0.014520 0.075106 -0.001747
v -0.000000 0.075106 0.001784
v -0.000000 0.075106 0.001784
v -0.000000 0.075106 0.001784
v -0.000000 0.075106 0.001784
v -0.014520 0.075106 -0.001747
v -0.014520 0.075106 -0.001747
v -0.014520 0.075106 -0.001747
v -0.014520 0.075106 -0.001747
v -0.000000 0.075106 -0.005277
v -0.000000 0.075106 -0.005277
v -0.000000 0.075106 -0.005277
v -0.000000 0.075106 -0.005277
vn -0.0000 -1.0000 -0.0000
vn 0.4587 -0.0109 -0.8885
vn -0.3827 -0.0000 0.9239
vn -0.9239 -0.0000 -0.3827
vn 0.9239 -0.0000 -0.3827
vn 0.3827 -0.0000 0.9239
vn -0.9239 -0.0000 0.3827
vn -0.3827 -0.0000 -0.9239
vn 0.3827 -0.0000 -0.9239
vn 0.9239 -0.0000 0.3827
vn 0.4160 0.0475 0.9081
vn 0.0649 0.0470 0.9968
vn -0.4585 -0.0002 0.8887
vn -0.0647 0.0367 -0.9972
vn 0.0647 0.0367 -0.9972
vn 0.4585 -0.0002 0.8887
vn -0.0649 0.0470 0.9968
vn -0.4587 -0.0109 -0.8885
vn -0.4160 0.0475 0.9081
vn -0.4160 -0.1529 -0.8964
vn 0.4160 -0.1529 -0.8964
vn -0.0000 0.4202 0.9074
vn -0.0212 0.4521 0.8917
vn 0.0212 0.4521 0.8917
vn -0.0000 0.2109 -0.9775
vn 0.0212 0.2455 -0.9692
vn -0.0212 0.2455 -0.9692
vn -0.5086 0.1145 -0.8534
vn -0.0865 -0.1227 0.9887
vn -0.0864 -0.1227 0.9887
vn 0.5089 -0.1095 0.8538
vn 0.5089 -0.1095 0.8539
vn 0.0864 0.1364 -0.9869
vn 0.0863 0.1364 -0.9869
vn -0.0863 0.1364 -0.9869
vn -0.0862 0.1364 -0.9869
vn -0.5089 -0.1095 0.8538
vn -0.5088 -0.1095 0.8539
vn 0.0865 -0.1227 0.9887
vn 0.0864 -0.1227 0.9887
vn 0.5086 0.1145 -0.8534
vn 0.8356 0.0591 -0.5462
vn 0.8356 0.0591 -0.5461
vn 0.2393 0.2473 0.9389
vn 0.2394 0.2473 0.9389
vn -0.8356 0.0591 0.5462
vn -0.8356 0.0591 0.5461
vn -0.2393 0.2473 -0.9389
vn -0.2394 0.2473 -0.9389
vn 0.2393 0.2473 -0.9389
vn 0.8356 0.0591 0.5461
vn 0.8356 0.0591 0.5462
vn -0.2393 0.2473 0.9389
vn -0.8356 0.0591 -0.5461
vn -0.8356 0.0591 -0.5462
vn 0.5315 -0.0594 -0.8450
vn 0.0921 0.0797 0.9926
vn -0.5314 0.0644 0.8447
vn -0.0921 -0.0658 -0.9936
vn -0.0922 -0.0658 -0.9936
vn 0.0922 -0.0658 -0.9936
vn 0.5314 0.0644 0.8447
vn -0.0922 0.0797 0.9925
vn -0.0921 0.0797 0.9926
vn -0.5315 -0.0594 -0.8450
vt 0.625000 0.500000
vt 0.750000 0.562500
vt 0.875000 0.500000
vt 0.937500 0.375000
vt 0.875000 0.250000
vt 0.750000 0.187500
vt 0.625000 0.250000
vt 0.562500 0.375000
vt 0.375000 0.625000
vt 0.437500 0.625000
vt 0.437500 0.750000
vt 0.375000 0.750000
vt 0.375000 0.000000
vt 0.500000 0.000000
vt 0.500000 0.125000
vt 0.375000 0.125000
vt 0.125000 0.000000
vt 0.250000 0.000000
vt 0.250000 0.125000
vt 0.125000 0.125000
vt 0.750000 0.000000
vt 0.875000 0.000000
vt 0.875000 0.125000
vt 0.750000 0.125000
vt 0.625000 0.000000
vt 0.625000 0.125000
vt 0.000000 0.000000
vt 0.000000 0.125000
vt 1.000000 0.000000
vt 1.000000 0.125000
vt 0.312500 0.750000
vt 0.375000 0.812500
vt 0.250000 0.625000
vt 0.312500 0.625000
vt 0.250000 0.750000
vt 0.125000 0.625000
vt 0.187500 0.625000
vt 0.187500 0.750000
vt 0.125000 0.750000
vt 0.000000 0.625000
vt 0.062500 0.625000
vt 0.062500 0.750000
vt 0.000000 0.750000
vt 0.500000 0.625000
vt 0.500000 0.750000
vt 0.125000 0.812500
vt 0.062500 0.812500
vt 0.437500 0.812500
vt 0.187500 0.812500
vt 0.250000 0.812500
vt 0.312500 0.812500
vt 0.500000 0.812500
vt 0.000000 0.812500
vt 0.062500 0.500000
vt 0.125000 0.500000
vt 0.187500 0.500000
vt 0.250000 0.500000
vt 0.312500 0.500000
vt 0.375000 0.500000
vt 0.437500 0.500000
vt 0.500000 0.500000
vt 0.000000 0.500000
vt 0.437500 0.125000
vt 0.437500 0.375000
vt 0.375000 0.375000
vt 0.312500 0.125000
vt 0.312500 0.375000
vt 0.250000 0.375000
vt 0.187500 0.125000
vt 0.187500 0.375000
vt 0.125000 0.375000
vt 0.062500 0.125000
vt 0.062500 0.375000
vt 0.000000 0.375000
vt 0.500000 0.375000
s 0
usemtl Toothpaste01
f 4/1/1 1/2/1 22/3/1
f 22/3/1 19/4/1 16/5/1
f 16/5/1 13/6/1 10/7/1
f 10/7/1 7/8/1 4/1/1
f 4/1/1 22/3/1 16/5/1
f 16/5/1 10/7/1 4/1/1
s 1
f 118/9/2 115/10/2 92/11/2
f 118/9/2 92/11/2 87/12/2
s 0
f 11/13/3 15/14/3 44/15/3
f 11/13/3 44/15/3 38/16/3
f 6/17/4 9/18/4 36/19/4
f 6/17/4 36/19/4 28/20/4
f 21/21/5 24/22/5 56/23/5
f 21/21/5 56/23/5 52/24/5
f 14/14/6 17/25/6 46/26/6
f 14/14/6 46/26/6 42/15/6
f 8/18/7 12/13/7 40/16/7
f 8/18/7 40/16/7 35/19/7
f 3/27/8 5/17/8 26/20/8
f 3/27/8 26/20/8 32/28/8
f 23/22/9 2/29/9 30/30/9
f 23/22/9 30/30/9 54/23/9
f 18/25/10 20/21/10 51/24/10
f 18/25/10 51/24/10 48/26/10
f 82/31/11 85/12/11 100/32/11
s 1
f 125/33/12 121/34/12 81/31/12
f 125/33/12 81/31/12 76/35/12
f 133/36/13 131/37/13 74/38/13
f 133/36/13 74/38/13 68/39/13
f 143/40/14 137/41/14 59/42/14
f 143/40/14 59/42/14 65/43/14
f 113/10/15 141/44/15 63/45/15
f 113/10/15 63/45/15 90/11/15
f 123/34/16 117/9/16 86/12/16
f 123/34/16 86/12/16 83/31/16
f 129/37/17 127/33/17 78/35/17
f 129/37/17 78/35/17 72/38/17
f 139/41/18 134/36/18 69/39/18
f 139/41/18 69/39/18 61/42/18
s 0
f 67/39/19 73/38/19 96/46/19
f 60/39/20 66/42/20 95/47/20
f 84/11/21 91/12/21 99/48/21
f 94/46/22 70/38/22 106/49/22
s 1
f 77/35/23 104/50/23 108/49/23
f 77/35/23 108/49/23 71/38/23
f 80/31/24 112/51/24 102/50/24
f 80/31/24 102/50/24 75/35/24
s 0
f 110/51/22 79/31/22 98/32/22
f 97/48/25 88/12/25 109/32/25
s 1
f 89/45/26 62/11/26 101/48/26
f 89/45/26 101/48/26 111/52/26
f 64/42/27 58/43/27 107/53/27
f 64/42/27 107/53/27 103/47/27
s 0
f 93/47/25 105/46/25 57/39/25
s 1
f 191/54/28 201/55/28 135/36/28
f 191/54/28 135/36/28 140/41/28
f 185/56/29 199/57/29 128/33/30
f 185/56/29 128/33/30 130/37/29
f 183/58/31 194/59/32 120/9/32
f 183/58/31 120/9/32 124/34/32
f 177/60/33 205/61/34 142/44/34
f 177/60/33 142/44/34 114/10/34
f 207/62/35 189/54/35 138/41/36
f 207/62/35 138/41/36 144/40/35
f 202/55/37 187/56/38 132/37/37
f 202/55/37 132/37/37 136/36/37
f 197/57/39 181/58/39 122/34/40
f 197/57/39 122/34/40 126/33/39
f 193/59/41 179/60/41 116/10/41
f 193/59/41 116/10/41 119/9/41
f 50/16/42 55/63/43 164/64/42
f 50/16/42 164/64/42 148/65/42
f 41/19/44 45/66/45 166/67/44
f 41/19/44 166/67/44 150/68/44
f 33/20/46 39/69/47 172/70/46
f 33/20/46 172/70/46 155/71/46
f 31/28/48 25/72/49 174/73/48
f 31/28/48 174/73/48 160/74/48
f 53/63/50 29/15/50 158/75/50
f 53/63/50 158/75/50 162/64/50
f 47/66/51 49/16/51 147/65/52
f 47/66/51 147/65/52 168/67/52
f 37/69/53 43/19/53 152/68/53
f 37/69/53 152/68/53 170/70/53
f 27/72/54 34/20/54 156/71/55
f 27/72/54 156/71/55 176/73/55
f 146/65/56 163/64/56 180/60/56
f 146/65/56 180/60/56 196/59/56
f 149/68/57 165/67/57 182/58/57
f 149/68/57 182/58/57 198/57/57
f 153/71/58 171/70/58 188/56/58
f 153/71/58 188/56/58 203/55/58
f 159/74/59 173/73/60 190/54/60
f 159/74/59 190/54/60 208/62/59
f 161/64/61 157/75/61 206/61/61
f 161/64/61 206/61/61 178/60/61
f 167/67/62 145/65/62 195/59/62
f 167/67/62 195/59/62 184/58/62
f 169/70/63 151/68/64 200/57/64
f 169/70/63 200/57/64 186/56/64
f 175/73/65 154/71/65 204/55/65
f 175/73/65 204/55/65 192/54/65
