# Blender 5.0.1
# www.blender.org
mtllib Sink03.mtl
o Sink03
v -0.129993 0.915498 0.005564
v -0.129993 0.915498 -0.126964
v 0.129993 0.915498 -0.126964
v 0.129993 0.915498 0.005564
v -0.167960 0.863622 -0.151720
v 0.167960 0.863622 -0.151563
v -0.167960 0.863622 -0.208609
v 0.167960 0.863622 -0.208609
v -0.106440 0.863622 0.060034
v -0.167960 0.863622 -0.002740
v 0.167960 0.863622 -0.002740
v 0.106440 0.863622 0.060034
v -0.163397 0.998251 -0.136978
v 0.163397 0.998251 -0.136978
v -0.163397 0.998251 0.027044
v -0.120186 0.998251 0.077846
v 0.120186 0.998251 0.077846
v 0.163397 0.998251 0.027044
v -0.141971 0.000000 -0.076628
v -0.141971 0.000000 -0.208585
v 0.141971 0.000000 -0.076628
v 0.141971 0.000000 -0.208585
v 0.000000 0.000000 -0.014310
v -0.073702 0.055942 -0.105509
v -0.056490 0.797700 -0.133376
v -0.056490 0.797700 -0.208585
v -0.073702 0.055942 -0.208585
v 0.056490 0.797700 -0.208585
v 0.073702 0.055942 -0.208585
v 0.056490 0.797700 -0.133376
v 0.073702 0.055942 -0.105509
v 0.000000 0.797700 -0.094101
v 0.000000 0.055942 -0.066234
v -0.196332 0.984386 -0.159052
v -0.182924 0.999728 -0.160000
v 0.182924 0.999728 -0.160000
v 0.196332 0.984386 -0.159034
v -0.196330 0.984378 -0.208609
v -0.183727 1.000000 -0.208609
v 0.183727 1.000000 -0.208609
v 0.196330 0.984378 -0.208609
v -0.182909 0.999183 0.033997
v -0.196338 0.984413 0.035193
v -0.134822 0.984431 0.097972
v -0.128583 0.999054 0.089329
v 0.128583 0.999054 0.089329
v 0.134822 0.984431 0.097972
v 0.196338 0.984413 0.035193
v 0.182909 0.999183 0.033997
v 0.032291 0.999356 -0.167314
v 0.032291 1.034774 -0.167314
v 0.032291 0.999356 -0.202731
v 0.032291 1.034774 -0.202731
v 0.067709 0.999356 -0.167314
v 0.067709 1.034774 -0.167314
v 0.067709 0.999356 -0.202731
v 0.067709 1.034774 -0.202731
v -0.067709 0.999356 -0.167314
v -0.067709 1.034774 -0.167314
v -0.067709 0.999356 -0.202731
v -0.067709 1.034774 -0.202731
v -0.032291 0.999356 -0.167314
v -0.032291 1.034774 -0.167314
v -0.032291 0.999356 -0.202731
v -0.032291 1.034774 -0.202731
v -0.000000 0.996895 -0.206954
v -0.023730 0.996895 -0.189713
v -0.014666 0.996895 -0.161816
v 0.014666 0.996895 -0.161816
v 0.023730 0.996895 -0.189713
v -0.000000 1.057179 -0.206954
v -0.023730 1.057179 -0.189713
v -0.014666 1.057179 -0.161816
v 0.014666 1.057179 -0.161816
v 0.023730 1.057179 -0.189713
v -0.014666 1.048927 -0.161816
v 0.014666 1.048927 -0.161816
v -0.014666 1.028929 -0.161816
v 0.014666 1.028929 -0.161816
v -0.014666 1.048927 -0.075230
v 0.014666 1.048927 -0.075230
v -0.014666 1.028929 -0.075230
v 0.014666 1.028929 -0.075230
vn -0.0000 1.0000 -0.0000
vn -0.6879 0.4295 -0.5851
vn 0.6879 0.4295 -0.5851
vn -0.9273 0.3743 -0.0000
vn -0.0000 0.6578 -0.7531
vn -0.0000 0.1201 0.9928
vn 0.9273 0.3743 -0.0000
vn -0.5090 -0.8607 -0.0000
vn 0.5090 -0.8607 -0.0000
vn -0.0000 -1.0000 -0.0000
vn 0.2895 0.6937 0.6595
vn 0.4700 0.0331 0.8820
vn -0.2895 0.6937 0.6595
vn -0.4700 0.0331 0.8820
vn 0.6338 0.7735 -0.0000
vn 0.9997 0.0232 -0.0000
vn -0.6338 0.7735 -0.0000
vn -0.9997 0.0232 -0.0000
vn -0.2410 -0.9413 0.2362
vn 0.2410 -0.9413 0.2362
vn -0.0000 -0.9194 0.3932
vn 0.7782 0.6278 0.0164
vn -0.7530 0.6581 -0.0001
vn -0.5835 0.5768 0.5716
vn 0.5788 0.5836 0.5696
vn -0.7399 0.6727 -0.0001
vn -0.0000 0.5088 0.8609
vn 0.7529 0.6581 0.0019
vn -0.0000 1.0000 0.0056
vn -0.0000 0.9979 0.0640
vn -0.9735 -0.2287 -0.0000
vn 0.0477 0.9989 -0.0000
vn 0.9735 -0.2287 -0.0000
vn -0.0477 0.9989 -0.0000
vn 0.0360 0.9988 -0.0330
vn -0.6659 -0.3614 0.6526
vn -0.0000 -0.2996 0.9541
vn -0.0000 0.9976 -0.0698
vn -0.0360 0.9988 -0.0330
vn 0.6659 -0.3614 0.6526
vn -1.0000 -0.0000 -0.0000
vn -0.0000 -0.0000 -1.0000
vn 1.0000 -0.0000 -0.0000
vn -0.0000 -0.0000 1.0000
vn 0.9511 -0.0000 0.3090
vn -0.9511 -0.0000 0.3090
vn 0.5878 -0.0000 -0.8090
vn -0.5878 -0.0000 -0.8090
vn 0.3638 0.6337 0.6827
vn 0.5703 0.0440 0.8203
vn -0.3638 0.6337 0.6827
vn -0.5703 0.0440 0.8203
vn -0.2054 -0.9330 0.2955
vn 0.2054 -0.9330 0.2955
vn 0.7530 0.6581 -0.0001
vn -0.7782 0.6278 0.0164
vn -0.5788 0.5836 0.5696
vn 0.5835 0.5768 0.5716
vn -0.7529 0.6581 0.0019
vn 0.7399 0.6727 -0.0001
vn 0.0722 0.9974 0.0028
vn -0.0722 0.9974 0.0028
vn 0.0441 0.9983 -0.0375
vn -0.0441 0.9983 -0.0375
vt 0.569388 0.699623
vt 0.690268 0.936761
vt 0.569388 0.936761
vt 0.173886 0.799877
vt 0.098674 0.820796
vt 0.174119 0.755131
vt 0.189581 0.755131
vt 0.265026 0.820796
vt 0.189813 0.799877
vt 0.174119 0.949367
vt 0.098862 0.941583
vt 0.083211 0.755131
vt 0.007731 0.983323
vt 0.007731 0.764076
vt 0.549589 0.947821
vt 0.473760 0.680216
vt 0.549589 0.710683
vt 0.189581 0.949367
vt 0.264838 0.941583
vt 0.350360 0.563080
vt 0.475431 0.664753
vt 0.340376 0.664753
vt 0.282181 0.460029
vt 0.340518 0.358355
vt 0.350360 0.460029
vt 0.282181 0.680216
vt 0.458297 0.809710
vt 0.401804 0.939203
vt 0.070001 0.684743
vt 0.137225 0.739668
vt 0.007731 0.736965
vt 0.137225 0.009435
vt 0.137225 0.686447
vt 0.204449 0.684743
vt 0.266719 0.736965
vt 0.768000 0.955802
vt 0.705730 0.861503
vt 0.768000 0.835444
vt 0.569388 0.684160
vt 0.638758 0.007731
vt 0.663332 0.684160
vt 0.768000 0.725682
vt 0.705730 0.819981
vt 0.705730 0.699623
vt 0.703369 0.007731
vt 0.772739 0.684160
vt 0.678795 0.684160
vt 0.385964 0.511554
vt 0.532337 0.608639
vt 0.475431 0.358355
vt 0.282181 0.563080
vt 0.532337 0.414469
vt 0.912594 0.052473
vt 0.898535 0.007731
vt 0.912697 0.008141
vt 0.788304 0.349568
vt 0.802363 0.304826
vt 0.802202 0.349992
vt 0.801788 0.586459
vt 0.788201 0.526379
vt 0.801576 0.527026
vt 0.899110 0.289364
vt 0.912697 0.229284
vt 0.912378 0.281670
vt 0.801899 0.847867
vt 0.788201 0.607611
vt 0.801899 0.601921
vt 0.898696 0.052913
vt 0.326516 0.342159
vt 0.282181 0.007731
vt 0.326516 0.008464
vt 0.347507 0.324348
vt 0.347507 0.026275
vt 0.912060 0.493818
vt 0.912697 0.306189
vt 0.912521 0.358037
vt 0.503458 0.008478
vt 0.497112 0.026275
vt 0.788838 0.196723
vt 0.788378 0.061085
vt 0.503458 0.342146
vt 0.497112 0.324348
vt 0.788201 0.009094
vt 0.553926 0.058029
vt 0.912288 0.553245
vt 0.910320 0.821979
vt 0.543448 0.065688
vt 0.553926 0.292595
vt 0.543448 0.284935
vt 0.788610 0.256150
vt 0.899322 0.229931
vt 0.928160 0.410191
vt 0.960439 0.442505
vt 0.928160 0.442495
vt 0.928160 0.219123
vt 0.960464 0.251427
vt 0.928160 0.251427
vt 0.928160 0.505753
vt 0.960439 0.538047
vt 0.928160 0.538056
vt 0.931387 0.895634
vt 0.963655 0.863329
vt 0.963655 0.895634
vt 0.928160 0.314657
vt 0.960464 0.346962
vt 0.928160 0.346962
vt 0.928160 0.553519
vt 0.960439 0.585832
vt 0.928160 0.585823
vt 0.928160 0.266890
vt 0.960464 0.299195
vt 0.928160 0.299195
vt 0.928160 0.457977
vt 0.960439 0.490271
vt 0.928160 0.490281
vt 0.931387 0.943401
vt 0.963655 0.911096
vt 0.963655 0.943401
vt 0.928160 0.362424
vt 0.960464 0.394729
vt 0.928160 0.394729
vt 0.928160 0.078118
vt 0.953911 0.133158
vt 0.928160 0.133102
vt 0.928160 0.148676
vt 0.953911 0.203605
vt 0.928160 0.203660
vt 0.809846 0.863329
vt 0.831491 0.918315
vt 0.809846 0.918315
vt 0.928160 0.007731
vt 0.954914 0.062655
vt 0.928160 0.062655
vt 0.788201 0.863329
vt 0.788201 0.918315
vt 0.925782 0.610189
vt 0.966953 0.623565
vt 0.951227 0.645210
vt 0.925782 0.660678
vt 0.944022 0.739588
vt 0.925782 0.739593
vt 0.846953 0.942305
vt 0.873708 0.863329
vt 0.873708 0.942305
vt 0.925782 0.755056
vt 0.944021 0.833977
vt 0.925782 0.833971
vt 0.889170 0.863329
vt 0.915925 0.941822
vt 0.889170 0.941822
vt 0.806421 0.933778
vt 0.788201 0.960532
vt 0.788201 0.933778
vt 0.690268 0.699623
vt 0.083211 0.992269
vt 0.473760 0.978289
vt 0.288805 0.358355
vt 0.282181 0.939203
vt 0.401804 0.680216
vt 0.085700 0.007731
vt 0.188750 0.007731
vt 0.705730 0.955519
vt 0.570212 0.007731
vt 0.768000 0.819698
vt 0.771915 0.007731
vt 0.288805 0.664753
vt 0.788201 0.305236
vt 0.788521 0.578765
vt 0.788201 0.842177
vt 0.282181 0.342892
vt 0.910320 0.627809
vt 0.960439 0.410201
vt 0.960464 0.219123
vt 0.960439 0.505743
vt 0.931387 0.863329
vt 0.960464 0.314657
vt 0.960439 0.553529
vt 0.960464 0.266890
vt 0.960439 0.457967
vt 0.931387 0.911096
vt 0.960464 0.362424
vt 0.953911 0.078173
vt 0.953911 0.148620
vt 0.831491 0.863329
vt 0.954914 0.007731
vt 0.925782 0.636943
vt 0.951227 0.601921
vt 0.944022 0.660673
vt 0.846953 0.863329
vt 0.944021 0.755061
vt 0.915925 0.863329
vt 0.806421 0.960532
s 0
usemtl Porcelain
f 2/1/1 4/2/1 3/3/1
f 18/4/2 4/5/2 17/6/2
f 16/7/3 1/8/3 15/9/3
f 4/5/4 14/10/4 3/11/4
f 4/12/5 16/13/5 17/14/5
f 3/15/6 13/16/6 2/17/6
f 13/18/7 1/8/7 2/19/7
f 25/20/8 10/21/8 5/22/8
f 28/23/9 6/24/9 30/25/9
f 22/26/10 23/27/10 19/28/10
f 31/29/11 23/30/11 21/31/11
f 31/29/12 32/32/12 33/33/12
f 23/30/13 24/34/13 19/35/13
f 32/32/14 24/34/14 33/33/14
f 22/36/15 31/37/15 21/38/15
f 29/39/16 30/40/16 31/41/16
f 24/42/17 20/43/17 19/44/17
f 25/45/18 27/46/18 24/47/18
f 10/21/19 32/48/19 9/49/19
f 30/25/9 6/24/9 11/50/9
f 5/22/8 26/51/8 25/20/8
f 32/48/20 11/50/20 12/52/20
f 12/52/21 9/49/21 32/48/21
f 36/53/22 41/54/22 40/55/22
f 35/56/23 38/57/23 34/58/23
f 44/59/24 42/60/24 43/61/24
f 47/62/25 49/63/25 46/64/25
f 42/60/26 34/58/26 43/61/26
f 47/65/27 45/66/27 44/67/27
f 49/63/28 37/68/28 36/53/28
f 36/69/29 39/70/29 35/71/29
f 14/72/30 35/71/30 13/73/30
f 34/58/31 10/74/31 43/61/31
f 34/58/31 7/75/31 5/76/31
f 13/73/32 42/77/32 15/78/32
f 37/68/33 11/79/33 6/80/33
f 49/81/34 14/72/34 18/82/34
f 37/68/33 8/83/33 41/54/33
f 45/84/35 15/78/35 42/77/35
f 9/85/36 43/61/36 10/74/36
f 44/67/37 12/86/37 47/65/37
f 16/87/38 46/88/38 17/89/38
f 18/82/39 46/88/39 49/81/39
f 12/90/40 48/91/40 47/62/40
f 2/1/1 1/154/1 4/2/1
f 4/5/4 18/4/4 14/10/4
f 4/12/5 1/155/5 16/13/5
f 3/15/6 14/156/6 13/16/6
f 13/18/7 15/9/7 1/8/7
f 28/23/9 8/157/9 6/24/9
f 19/28/10 20/158/10 22/26/10
f 22/26/10 21/159/10 23/27/10
f 31/29/49 33/33/49 23/30/49
f 31/29/50 30/160/50 32/32/50
f 23/30/51 33/33/51 24/34/51
f 32/32/52 25/161/52 24/34/52
f 22/36/15 29/162/15 31/37/15
f 29/39/16 28/163/16 30/40/16
f 24/42/17 27/164/17 20/43/17
f 25/45/18 26/165/18 27/46/18
f 10/21/53 25/20/53 32/48/53
f 5/22/8 7/166/8 26/51/8
f 32/48/54 30/25/54 11/50/54
f 36/53/55 37/68/55 41/54/55
f 35/56/56 39/167/56 38/57/56
f 44/59/57 45/168/57 42/60/57
f 47/62/58 48/91/58 49/63/58
f 42/60/59 35/56/59 34/58/59
f 47/65/27 46/169/27 45/66/27
f 49/63/60 48/91/60 37/68/60
f 36/69/29 40/170/29 39/70/29
f 14/72/30 36/69/30 35/71/30
f 34/58/31 5/76/31 10/74/31
f 34/58/31 38/57/31 7/75/31
f 13/73/61 35/71/61 42/77/61
f 37/68/33 48/91/33 11/79/33
f 49/81/62 36/69/62 14/72/62
f 37/68/33 6/80/33 8/83/33
f 45/84/63 16/87/63 15/78/63
f 9/85/36 44/59/36 43/61/36
f 44/67/37 9/171/37 12/86/37
f 16/87/38 45/84/38 46/88/38
f 18/82/64 17/89/64 46/88/64
f 12/90/40 11/79/40 48/91/40
usemtl Metal
f 51/92/41 52/93/41 50/94/41
f 53/95/42 56/96/42 52/97/42
f 57/98/43 54/99/43 56/100/43
f 55/101/44 50/102/44 54/103/44
f 53/104/1 55/105/1 57/106/1
f 59/107/41 60/108/41 58/109/41
f 61/110/42 64/111/42 60/112/42
f 65/113/43 62/114/43 64/115/43
f 63/116/44 58/117/44 62/118/44
f 61/119/1 63/120/1 65/121/1
f 75/122/45 69/123/45 70/124/45
f 73/125/46 67/126/46 68/127/46
f 71/128/47 70/129/47 66/130/47
f 74/131/44 68/132/44 69/133/44
f 72/134/48 66/130/48 67/135/48
f 73/136/1 75/137/1 71/138/1
f 82/139/41 76/140/41 78/141/41
f 76/142/1 81/143/1 77/144/1
f 81/145/43 79/146/43 77/147/43
f 83/148/10 78/149/10 79/150/10
f 82/151/44 81/152/44 80/153/44
f 51/92/41 53/172/41 52/93/41
f 53/95/42 57/173/42 56/96/42
f 57/98/43 55/174/43 54/99/43
f 55/101/44 51/175/44 50/102/44
f 53/104/1 51/176/1 55/105/1
f 59/107/41 61/177/41 60/108/41
f 61/110/42 65/178/42 64/111/42
f 65/113/43 63/179/43 62/114/43
f 63/116/44 59/180/44 58/117/44
f 61/119/1 59/181/1 63/120/1
f 75/122/45 74/182/45 69/123/45
f 73/125/46 72/183/46 67/126/46
f 71/128/47 75/184/47 70/129/47
f 74/131/44 73/185/44 68/132/44
f 72/134/48 71/128/48 66/130/48
f 71/138/1 72/186/1 73/136/1
f 73/136/1 74/187/1 75/137/1
f 82/139/41 80/188/41 76/140/41
f 76/142/1 80/189/1 81/143/1
f 81/145/43 83/190/43 79/146/43
f 83/148/10 82/191/10 78/149/10
f 82/151/44 83/192/44 81/152/44
