# Blender 5.0.1
# www.blender.org
mtllib NewsPaper02.mtl
o NewsPaper02
v -0.227102 0.006993 0.140000
v -0.227102 0.006993 0.140000
v -0.227102 0.006993 0.140000
v 0.227102 0.006993 0.140000
v 0.227102 0.006993 0.140000
v 0.227102 0.006993 0.140000
v -0.227102 0.006993 -0.140000
v -0.227102 0.006993 -0.140000
v -0.227102 0.006993 -0.140000
v 0.227102 0.006993 -0.140000
v 0.227102 0.006993 -0.140000
v 0.227102 0.006993 -0.140000
v -0.000117 0.016805 0.141115
v -0.000117 0.016805 0.141115
v -0.000117 0.016805 0.141115
v -0.000117 0.016805 0.141115
v -0.000117 0.016805 -0.138885
v -0.000117 0.016805 -0.138885
v -0.000117 0.016805 -0.138885
v -0.000117 0.016805 -0.138885
v -0.226800 0.000000 0.140000
v -0.226800 0.000000 0.140000
v -0.226800 0.000000 0.140000
v 0.226800 0.000000 0.140000
v 0.226800 0.000000 0.140000
v 0.226800 0.000000 0.140000
v -0.226800 0.000000 -0.140000
v -0.226800 0.000000 -0.140000
v -0.226800 0.000000 -0.140000
v 0.226800 0.000000 -0.140000
v 0.226800 0.000000 -0.140000
v 0.226800 0.000000 -0.140000
v -0.000117 0.009805 0.141115
v -0.000117 0.009805 0.141115
v -0.000117 0.009805 0.141115
v -0.000117 0.009805 0.141115
v -0.000117 0.009805 -0.138885
v -0.000117 0.009805 -0.138885
v -0.000117 0.009805 -0.138885
v -0.000117 0.009805 -0.138885
vn 0.0431 0.9991 -0.0000
vn -0.0432 0.9991 -0.0000
vn -0.0432 -0.9991 -0.0000
vn 0.0432 -0.9991 -0.0000
vn -0.9991 -0.0432 -0.0000
vn 0.0049 -0.0000 1.0000
vn 0.0049 -0.0002 1.0000
vn 0.9991 -0.0432 -0.0000
vn 0.0049 -0.0000 -1.0000
vn 0.0049 0.0002 -1.0000
vn -0.0049 -0.0002 1.0000
vn -0.0049 -0.0000 1.0000
vn -0.0049 0.0002 -1.0000
vn -0.0049 -0.0000 -1.0000
vt 0.500000 0.093750
vt 0.750000 0.093750
vt 0.750000 0.468750
vt 0.500000 0.468750
vt 0.250000 0.093750
vt 0.250000 0.468750
vt 0.500000 0.593750
vt 0.500000 0.968750
vt 0.750000 0.968750
vt 0.750000 0.593750
vt 0.250000 0.593750
vt 0.250000 0.968750
vt 0.781250 0.093750
vt 0.781250 0.468750
vt 0.812500 0.468750
vt 0.812500 0.093750
vt 0.750000 0.062500
vt 0.500000 0.062500
vt 0.500000 0.031250
vt 0.750000 0.031250
vt 0.875000 0.468750
vt 0.875000 0.093750
vt 0.843750 0.093750
vt 0.843750 0.468750
vt 0.250000 0.531250
vt 0.500000 0.531250
vt 0.500000 0.500000
vt 0.250000 0.500000
vt 0.250000 0.062500
vt 0.250000 0.031250
vt 0.750000 0.531250
vt 0.750000 0.500000
s 0
usemtl NewsPaper02
f 14/1/1 5/2/1 10/3/1
f 14/1/1 10/3/1 18/4/1
f 2/5/2 16/1/2 20/4/2
f 2/5/2 20/4/2 8/6/2
f 36/7/3 40/8/3 32/9/3
f 36/7/3 32/9/3 26/10/3
f 21/11/4 28/12/4 38/8/4
f 21/11/4 38/8/4 34/7/4
f 3/13/5 9/14/5 29/15/5
f 3/13/5 29/15/5 23/16/5
f 4/17/6 13/18/6 33/19/6
f 4/17/7 33/19/7 24/20/7
f 11/21/8 6/22/8 25/23/8
f 11/21/8 25/23/8 30/24/8
f 7/25/9 17/26/9 37/27/9
f 7/25/10 37/27/10 27/28/10
f 15/18/11 1/29/11 22/30/11
f 15/18/12 22/30/12 35/19/12
f 19/26/13 12/31/13 31/32/13
f 19/26/14 31/32/14 39/27/14
