# Blender 5.0.1
# www.blender.org
mtllib OpenCardboardBox01.mtl
o OpenCardboardBox01
v -0.150000 0.000000 0.150000
v -0.150000 0.300000 0.150000
v -0.150000 0.000000 -0.150000
v -0.150000 0.300000 -0.150000
v 0.150000 0.000000 0.150000
v 0.150000 0.300000 0.150000
v 0.150000 0.000000 -0.150000
v 0.150000 0.300000 -0.150000
v -0.150000 0.000000 0.000000
v -0.150000 0.300000 0.000000
v 0.150000 0.000000 0.000000
v 0.150000 0.300000 0.000000
v -0.180242 0.230132 -0.109263
v -0.180242 0.230132 0.109263
v -0.150000 0.163870 0.212996
v 0.150000 0.163870 0.212996
v 0.182563 0.231184 0.109263
v 0.182563 0.231184 -0.109263
v -0.150000 0.158992 -0.201155
v 0.150000 0.158992 -0.201155
v -0.180242 0.230132 0.000000
v 0.182563 0.231184 0.000000
v -0.144100 0.015989 0.144100
v -0.144100 0.304189 0.144100
v -0.144100 0.015989 -0.144100
v -0.144100 0.304189 -0.144100
v 0.144100 0.015989 0.144100
v 0.144100 0.304189 0.144100
v 0.144100 0.015989 -0.144100
v 0.144100 0.304189 -0.144100
v -0.144100 0.015989 0.000000
v -0.144100 0.304189 0.000000
v 0.144100 0.015989 0.000000
v 0.144100 0.304189 0.000000
v -0.150000 0.302436 0.155265
v -0.150000 0.301978 -0.155453
v 0.150000 0.302436 0.155265
v 0.150000 0.301978 -0.155453
v -0.150000 0.166306 0.218261
v 0.150000 0.166306 0.218261
v -0.150000 0.160971 -0.206609
v 0.150000 0.160971 -0.206609
v -0.154746 0.302054 0.150000
v -0.154746 0.302054 -0.150000
v 0.154675 0.302212 0.150000
v 0.154675 0.302212 -0.150000
v -0.154746 0.302054 0.000000
v 0.154675 0.302212 0.000000
v -0.184988 0.232187 -0.109263
v -0.184988 0.232187 0.109263
v 0.187237 0.233396 0.109263
v 0.187237 0.233396 -0.109263
v -0.184988 0.232187 0.000000
v 0.187237 0.233396 0.000000
vn -1.0000 -0.0000 -0.0000
vn -0.0000 -0.0000 -1.0000
vn 1.0000 -0.0000 -0.0000
vn -0.0000 -0.0000 1.0000
vn -0.0000 -1.0000 -0.0000
vn -0.0000 -0.3410 0.9401
vn -0.9039 -0.4277 -0.0000
vn -0.0000 -0.4200 -0.9075
vn 0.9177 -0.3972 -0.0000
vn -0.0000 1.0000 -0.0000
vn -0.0000 0.3410 -0.9401
vn -0.0000 0.4200 0.9075
vn 0.9039 0.4277 -0.0000
vn -0.9177 0.3972 -0.0000
vn 0.2018 -0.4265 0.8817
vn 0.4277 -0.9039 -0.0000
vn 0.2018 -0.4265 -0.8817
vn -0.0000 -0.9400 -0.3410
vn -0.1874 -0.4330 -0.8817
vn -0.3972 -0.9177 -0.0000
vn -0.1874 -0.4330 0.8817
vn -0.0000 -0.9075 0.4200
vn 0.3946 -0.8339 0.3859
vn -0.3656 -0.8447 0.3909
vn -0.3769 -0.8707 -0.3159
vn 0.4064 -0.8589 -0.3116
vn 0.1838 0.9830 -0.0000
vn -0.1966 0.9805 -0.0000
vn -0.0000 0.9816 -0.1911
vn -0.0000 0.9879 0.1551
vn 0.1391 0.9869 0.0815
vn 0.1086 0.9848 -0.1353
vn -0.1280 0.9839 -0.1251
vn -0.1581 0.9849 0.0711
vn -0.0000 -0.9401 -0.3410
vt 0.156250 0.312500
vt -0.000000 -0.000000
vt 0.156250 0.000000
vt 0.656250 0.656250
vt 0.343750 0.343750
vt 0.656250 0.343750
vt -0.000000 0.312500
vt 0.312500 0.656250
vt 0.000000 0.343750
vt 0.312500 0.343750
vt 0.343750 0.500000
vt 0.656250 0.500000
vt 0.000000 1.000000
vt 0.312500 0.843750
vt 0.312500 1.000000
vt 0.500000 0.468750
vt 0.343750 0.531250
vt 0.343750 0.468750
vt 0.343750 0.656250
vt 0.312500 0.312500
vt 0.312500 0.000000
vt 0.000000 0.843750
vt 0.312500 0.687500
vt 0.656250 0.531250
vt 0.500000 0.531250
vt 0.500000 0.656250
vt 0.500000 0.343750
vt 0.656250 0.468750
vt 0.437500 0.593750
vt 0.468750 0.625000
vt 0.468750 0.593750
vt 0.437500 0.625000
vt 0.000000 0.656250
vt 0.000000 0.687500
s 0
usemtl CardboardBox
f 10/1/1 3/2/1 9/3/1
f 4/4/2 7/5/2 3/6/2
f 11/3/3 6/7/3 5/2/3
f 6/8/4 1/9/4 5/10/4
f 11/11/5 1/6/5 9/12/5
f 4/13/6 20/14/6 8/15/6
f 12/16/7 17/17/7 6/18/7
f 7/19/5 9/12/5 3/4/5
f 8/20/3 11/3/3 7/21/3
f 2/20/1 9/3/1 1/21/1
f 15/22/8 6/23/8 16/14/8
f 12/16/7 18/24/7 22/25/7
f 10/16/9 13/17/9 4/18/9
f 10/16/9 14/24/9 21/25/9
f 25/5/3 32/26/3 31/27/3
f 29/5/4 26/4/4 25/6/4
f 27/5/1 34/26/1 33/27/1
f 23/5/2 28/4/2 27/6/2
f 23/6/10 33/11/10 31/12/10
f 31/12/10 29/19/10 25/4/10
f 33/27/1 30/4/1 29/6/1
f 31/27/3 24/4/3 23/6/3
f 38/4/11 41/11/11 36/19/11
f 40/12/12 35/5/12 39/11/12
f 51/17/13 48/16/13 45/18/13
f 48/16/13 52/24/13 46/28/13
f 49/17/14 47/16/14 44/18/14
f 47/16/14 50/24/14 43/28/14
f 51/29/15 6/30/15 17/31/15
f 54/31/16 17/32/16 22/30/16
f 52/29/16 22/30/16 18/31/16
f 46/31/17 18/32/17 8/30/17
f 42/29/3 8/30/3 20/31/3
f 41/31/18 20/32/18 19/30/18
f 4/31/1 41/32/1 19/30/1
f 49/31/19 4/32/19 13/30/19
f 53/29/20 13/30/20 21/31/20
f 50/31/20 21/32/20 14/30/20
f 43/29/21 14/30/21 2/31/21
f 39/31/1 2/32/1 15/30/1
f 40/29/22 15/30/22 16/31/22
f 6/30/3 40/29/3 16/32/3
f 45/31/23 37/32/23 6/29/23
f 43/32/24 2/30/24 35/31/24
f 36/32/25 4/29/25 44/31/25
f 46/32/26 8/30/26 38/31/26
f 28/31/27 48/32/27 34/30/27
f 48/31/27 30/32/27 34/30/27
f 47/29/28 24/30/28 32/31/28
f 26/30/28 47/29/28 32/32/28
f 38/29/29 26/30/29 30/31/29
f 35/31/30 28/32/30 24/30/30
f 45/29/31 28/32/31 37/31/31
f 46/29/32 38/32/32 30/31/32
f 36/31/33 44/30/33 26/32/33
f 43/30/34 35/32/34 24/31/34
f 10/1/1 4/7/1 3/2/1
f 4/4/2 8/19/2 7/5/2
f 11/3/3 12/1/3 6/7/3
f 6/8/4 2/33/4 1/9/4
f 11/11/5 5/5/5 1/6/5
f 4/13/6 19/22/6 20/14/6
f 12/16/7 22/25/7 17/17/7
f 7/19/5 11/11/5 9/12/5
f 8/20/3 12/1/3 11/3/3
f 2/20/1 10/1/1 9/3/1
f 15/22/8 2/34/8 6/23/8
f 12/16/7 8/28/7 18/24/7
f 10/16/9 21/25/9 13/17/9
f 10/16/9 2/28/9 14/24/9
f 25/5/3 26/19/3 32/26/3
f 29/5/4 30/19/4 26/4/4
f 27/5/1 28/19/1 34/26/1
f 23/5/2 24/19/2 28/4/2
f 23/6/10 27/5/10 33/11/10
f 31/12/10 33/11/10 29/19/10
f 33/27/1 34/26/1 30/4/1
f 31/27/3 32/26/3 24/4/3
f 38/4/11 42/12/11 41/11/11
f 40/12/12 37/6/12 35/5/12
f 51/17/13 54/25/13 48/16/13
f 48/16/13 54/25/13 52/24/13
f 49/17/14 53/25/14 47/16/14
f 47/16/14 53/25/14 50/24/14
f 51/29/15 45/32/15 6/30/15
f 54/31/16 51/29/16 17/32/16
f 52/29/16 54/32/16 22/30/16
f 46/31/17 52/29/17 18/32/17
f 42/29/3 38/32/3 8/30/3
f 41/31/35 42/29/35 20/32/35
f 4/31/1 36/29/1 41/32/1
f 49/31/19 44/29/19 4/32/19
f 53/29/20 49/32/20 13/30/20
f 50/31/20 53/29/20 21/32/20
f 43/29/21 50/32/21 14/30/21
f 39/31/1 35/29/1 2/32/1
f 40/29/22 39/32/22 15/30/22
f 6/30/3 37/31/3 40/29/3
f 28/31/27 45/29/27 48/32/27
f 48/31/27 46/29/27 30/32/27
f 47/29/28 43/32/28 24/30/28
f 26/30/28 44/31/28 47/29/28
f 38/29/29 36/32/29 26/30/29
f 35/31/30 37/29/30 28/32/30
