# Blender 5.0.1
# www.blender.org
mtllib Book01.mtl
o Book01
v -0.072879 0.000000 0.024293
v -0.072879 0.000000 0.024293
v -0.072879 0.000000 0.024293
v -0.072879 0.182197 0.024293
v -0.072879 0.182197 0.024293
v -0.072879 0.182197 0.024293
v -0.072879 0.000000 -0.024293
v -0.072879 0.000000 -0.024293
v -0.072879 0.000000 -0.024293
v -0.072879 0.182197 -0.024293
v -0.072879 0.182197 -0.024293
v -0.072879 0.182197 -0.024293
v 0.072879 0.000000 0.024293
v 0.072879 0.000000 0.024293
v 0.072879 0.000000 0.024293
v 0.072879 0.182197 0.024293
v 0.072879 0.182197 0.024293
v 0.072879 0.182197 0.024293
v 0.072879 0.000000 -0.024293
v 0.072879 0.000000 -0.024293
v 0.072879 0.000000 -0.024293
v 0.072879 0.182197 -0.024293
v 0.072879 0.182197 -0.024293
v 0.072879 0.182197 -0.024293
vn -1.0000 -0.0000 -0.0000
vn -0.0000 -0.0000 -1.0000
vn 1.0000 -0.0000 -0.0000
vn -0.0000 -0.0000 1.0000
vn -0.0000 -1.0000 -0.0000
vn -0.0000 1.0000 -0.0000
vt 0.125000 0.312500
vt 0.125000 0.750000
vt 0.000000 0.750000
vt 0.000000 0.312500
vt 1.000000 0.312500
vt 1.000000 0.750000
vt 0.625000 0.750000
vt 0.625000 0.312500
vt 0.500000 0.750000
vt 0.500000 0.312500
vt 0.125000 0.187500
vt 0.500000 0.187500
vt 0.500000 0.875000
vt 0.125000 0.875000
s 0
usemtl Book01
f 3/1/1 6/2/1 12/3/1
f 3/1/1 12/3/1 9/4/1
f 7/5/2 10/6/2 22/7/2
f 7/5/2 22/7/2 19/8/2
f 21/8/3 24/7/3 18/9/3
f 21/8/3 18/9/3 15/10/3
f 13/10/4 16/9/4 4/2/4
f 13/10/4 4/2/4 1/1/4
f 8/11/5 20/12/5 14/10/5
f 8/11/5 14/10/5 2/1/5
f 23/13/6 11/14/6 5/2/6
f 23/13/6 5/2/6 17/9/6
