# Blender 5.1.1
# www.blender.org
mtllib StaffDoor.mtl
o StaffDoor
v -0.499999 0.000000 0.037523
v -0.499999 2.000000 0.037523
v -0.499999 0.000000 -0.037523
v -0.499999 2.000000 -0.037523
v 0.499999 0.000000 0.037523
v 0.499999 2.000000 0.037523
v 0.499999 0.000000 -0.037523
v 0.499999 2.000000 -0.037523
vn -1.0000 -0.0000 -0.0000
vn -0.0000 -0.0000 -1.0000
vn 1.0000 -0.0000 -0.0000
vn -0.0000 -0.0000 1.0000
vn -0.0000 -1.0000 -0.0000
vn -0.0000 1.0000 -0.0000
vt 0.932547 0.898823
vt 0.898821 0.000000
vt 0.932547 0.000000
vt 0.449411 0.898823
vt 0.000000 -0.000000
vt 0.449411 -0.000000
vt 0.966274 0.898823
vt 0.932547 0.000000
vt 0.966274 0.000000
vt 0.898821 0.898823
vt 0.449411 -0.000000
vt 0.898821 0.000000
vt 0.966274 0.449411
vt 1.000000 0.898821
vt 0.966274 0.898821
vt 1.000000 0.449411
vt 0.966274 -0.000000
vt 1.000000 -0.000000
vt 0.898821 0.898823
vt 0.000000 0.898823
vt 0.932547 0.898823
vt 0.449411 0.898823
s 0
usemtl 32x32grid
f 2/1/1 3/2/1 1/3/1
f 4/4/2 7/5/2 3/6/2
f 8/7/3 5/8/3 7/9/3
f 6/10/4 1/11/4 5/12/4
f 7/13/5 1/14/5 3/15/5
f 4/16/6 6/17/6 8/18/6
f 2/1/1 4/19/1 3/2/1
f 4/4/2 8/20/2 7/5/2
f 8/7/3 6/21/3 5/8/3
f 6/10/4 2/22/4 1/11/4
f 7/13/5 5/16/5 1/14/5
f 4/16/6 2/13/6 6/17/6
