# Blender 5.1.1
# www.blender.org
mtllib StaffDoorPlate.mtl
o StaffDoorPlate
v -0.230000 1.350000 0.039422
v -0.250000 1.370000 0.039422
v 0.250000 1.370000 0.039422
v 0.230000 1.350000 0.039422
v -0.230000 1.650000 0.039422
v -0.250000 1.630000 0.039422
v 0.230000 1.650000 0.039422
v 0.250000 1.630000 0.039422
vn -0.0000 -0.0000 1.0000
vt 1.000000 0.066667
vt 0.960000 1.000000
vt 0.000000 0.933333
vt 0.000000 0.066667
vt 0.040000 0.000000
vt 0.960000 0.000000
vt 1.000000 0.933333
vt 0.040000 1.000000
s 0
usemtl 3x3grid
f 3/1/1 7/2/1 6/3/1
f 6/3/1 2/4/1 1/5/1
f 1/5/1 4/6/1 3/1/1
f 3/1/1 8/7/1 7/2/1
f 7/2/1 5/8/1 6/3/1
f 6/3/1 1/5/1 3/1/1
