# Blender 5.1.1
# www.blender.org
mtllib StaffDoorHandle.mtl
o StaffDoorHandle
v -0.015000 -0.015000 0.101738
v -0.015000 0.015000 0.101738
v -0.015000 -0.015000 -0.101738
v -0.015000 0.015000 -0.101738
v 0.015000 -0.015000 0.080574
v 0.015000 -0.015000 -0.080574
v 0.015000 0.015000 -0.080574
v 0.015000 0.015000 0.080574
v -0.137592 -0.015000 0.080574
v -0.137592 -0.015000 0.101738
v -0.137592 0.015000 0.101738
v -0.137592 0.015000 -0.080574
v -0.137592 0.015000 -0.101738
v -0.137592 -0.015000 -0.101738
v -0.137592 -0.015000 -0.080574
v -0.137592 0.015000 0.080574
v -0.015000 -0.015000 -0.061162
v -0.025595 -0.015000 -0.080574
v -0.025595 -0.015000 0.080574
v -0.015000 -0.015000 0.061162
v -0.015000 0.015000 0.061162
v -0.025595 0.015000 0.080574
v -0.025595 0.015000 -0.080574
v -0.015000 0.015000 -0.061162
vn 1.0000 -0.0000 -0.0000
vn -1.0000 -0.0000 -0.0000
vn -0.0000 -0.0000 -1.0000
vn -0.0000 -0.0000 1.0000
vn -0.0000 -1.0000 -0.0000
vn -0.0000 1.0000 -0.0000
vn -0.8778 -0.0000 -0.4791
vn -0.8778 -0.0000 0.4791
vn 0.5765 -0.0000 0.8171
vn 0.5765 -0.0000 -0.8171
vt 0.062531 0.332053
vt 0.000000 0.667947
vt 0.000000 0.332053
vt 0.169177 0.424120
vt 0.213290 0.486652
vt 0.169177 0.486652
vt 0.169177 0.486652
vt 0.125063 0.424120
vt 0.169177 0.424120
vt 0.000000 0.255528
vt 0.062531 -0.000000
vt 0.062531 0.255528
vt 0.062531 0.744472
vt 0.000000 1.000000
vt 0.000000 0.744472
vt 0.676565 0.044113
vt 0.761181 0.044113
vt 0.698650 0.084574
vt 0.676565 0.380007
vt 0.761181 0.380007
vt 0.698650 0.424120
vt 0.209679 0.380007
vt 0.125063 0.380007
vt 0.187595 0.339546
vt 0.209679 0.044113
vt 0.125063 0.044113
vt 0.187595 -0.000000
vt 0.062532 0.279539
vt 0.125063 0.233443
vt 0.125063 0.279539
vt 0.062531 0.580606
vt 0.125063 0.534511
vt 0.125063 0.580606
vt 0.443122 -0.000000
vt 0.698650 0.000000
vt 0.062531 0.534511
vt 0.698650 0.339546
vt 0.062531 0.814050
vt 0.443122 0.424120
vt 0.443122 0.380007
vt 0.062532 0.233443
vt 0.125063 0.000000
vt 0.443122 0.424120
vt 0.187595 0.424120
vt 0.187595 0.084574
vt 0.443122 0.000000
vt 0.443122 0.044113
vt 0.062531 0.667947
vt 0.213290 0.424120
vt 0.125063 0.486652
vt 0.000000 -0.000000
vt 0.062531 1.000000
vt 0.443122 0.044113
vt 0.125063 0.814050
vt 0.062532 0.000000
vt 0.443122 0.380007
s 0
usemtl 32x32grid.001
f 7/1/1 5/2/1 6/3/1
f 12/4/2 14/5/2 15/6/2
f 11/7/2 9/8/2 10/9/2
f 3/10/3 13/11/3 4/12/3
f 2/13/4 10/14/4 1/15/4
f 18/16/5 6/17/5 17/18/5
f 19/19/5 5/20/5 1/21/5
f 22/22/6 8/23/6 21/24/6
f 23/25/6 7/26/6 4/27/6
f 20/28/7 22/29/7 21/30/7
f 18/31/8 24/32/8 23/33/8
f 5/2/9 2/13/9 1/15/9
f 4/12/10 6/3/10 3/10/10
f 18/16/5 14/34/5 3/35/5
f 21/30/2 17/36/2 20/28/2
f 6/17/5 20/37/5 17/18/5
f 23/33/4 15/38/4 18/31/4
f 19/19/5 10/39/5 9/40/5
f 19/41/3 16/42/3 22/29/3
f 22/22/6 11/43/6 2/44/6
f 24/45/6 8/23/6 7/26/6
f 23/25/6 13/46/6 12/47/6
f 7/1/1 8/48/1 5/2/1
f 12/4/2 13/49/2 14/5/2
f 11/7/2 16/50/2 9/8/2
f 3/10/3 14/51/3 13/11/3
f 2/13/4 11/52/4 10/14/4
f 18/16/5 3/35/5 6/17/5
f 19/19/5 20/37/5 5/20/5
f 22/22/6 2/44/6 8/23/6
f 23/25/6 24/45/6 7/26/6
f 20/28/7 19/41/7 22/29/7
f 18/31/8 17/36/8 24/32/8
f 5/2/9 8/48/9 2/13/9
f 4/12/10 7/1/10 6/3/10
f 18/16/5 15/53/5 14/34/5
f 21/30/2 24/32/2 17/36/2
f 6/17/5 5/20/5 20/37/5
f 23/33/4 12/54/4 15/38/4
f 19/19/5 1/21/5 10/39/5
f 19/41/3 9/55/3 16/42/3
f 22/22/6 16/56/6 11/43/6
f 24/45/6 21/24/6 8/23/6
f 23/25/6 4/27/6 13/46/6
