# Blender 5.0.1
# www.blender.org
mtllib Sink03.mtl
o Sink03
v -0.200000 1.000000 -0.160000
v 0.200000 1.000000 -0.160000
v -0.129993 0.915498 0.005564
v -0.129993 0.915498 -0.126964
v 0.129993 0.915498 -0.126964
v 0.129993 0.915498 0.005564
v -0.167960 0.863622 -0.151720
v 0.167960 0.863622 -0.151563
v -0.200000 1.000000 -0.208609
v 0.200000 1.000000 -0.208609
v -0.167960 0.863622 -0.208609
v 0.167960 0.863622 -0.208609
v -0.010054 1.057187 -0.067025
v 0.010054 1.057187 -0.067025
v -0.010054 1.077185 -0.067025
v 0.010054 1.077185 -0.067025
v -0.000000 0.996895 -0.206954
v -0.023730 0.996895 -0.189713
v -0.014666 0.996895 -0.161816
v 0.014666 0.996895 -0.161816
v 0.023730 0.996895 -0.189713
v -0.000000 1.057179 -0.206954
v -0.023730 1.057179 -0.189713
v -0.014666 1.057179 -0.161816
v 0.014666 1.057179 -0.161816
v 0.023730 1.057179 -0.189713
v -0.010054 1.031988 -0.161816
v 0.010054 1.031988 -0.161816
v -0.010054 1.011990 -0.161816
v 0.010054 1.011990 -0.161816
v -0.010054 1.077185 -0.090664
v 0.010054 1.077185 -0.090664
v -0.010054 1.057187 -0.090664
v 0.010054 1.057187 -0.090664
v -0.200000 1.000000 0.040087
v -0.138479 1.000000 0.102861
v 0.138479 1.000000 0.102861
v 0.200000 1.000000 0.040087
v -0.106440 0.863622 0.060034
v -0.167960 0.863622 -0.002740
v 0.167960 0.863622 -0.002740
v 0.106440 0.863622 0.060034
v -0.163397 0.998251 -0.136978
v 0.163397 0.998251 -0.136978
v -0.163397 0.998251 0.027044
v -0.120186 0.998251 0.077846
v 0.120186 0.998251 0.077846
v 0.163397 0.998251 0.027044
v 0.023730 1.075772 -0.189713
v 0.014666 1.075772 -0.133460
v -0.014666 1.075772 -0.133460
v -0.000000 1.075772 -0.206954
v -0.023730 1.075772 -0.189713
v 0.018965 1.075772 -0.160141
v -0.018965 1.075772 -0.160141
v -0.141971 0.000000 -0.076628
v -0.141971 0.000000 -0.208585
v 0.141971 0.000000 -0.076628
v 0.141971 0.000000 -0.208585
v 0.000000 0.000000 -0.014310
v -0.073702 0.055942 -0.105509
v -0.056490 0.797700 -0.133376
v -0.056490 0.797700 -0.208585
v -0.073702 0.055942 -0.208585
v 0.056490 0.797700 -0.208585
v 0.073702 0.055942 -0.208585
v 0.056490 0.797700 -0.133376
v 0.073702 0.055942 -0.105509
v 0.000000 0.797700 -0.094101
v 0.000000 0.055942 -0.066234
vn -0.0000 1.0000 -0.0000
vn -0.0000 0.9971 0.0758
vn 0.9735 -0.2287 -0.0000
vn -0.0000 -0.0000 -1.0000
vn -0.9735 -0.2287 -0.0000
vn 1.0000 -0.0000 -0.0000
vn -0.0000 -0.0000 1.0000
vn -1.0000 -0.0000 -0.0000
vn -0.0000 -1.0000 -0.0000
vn 0.9511 -0.0000 0.3090
vn -0.9511 -0.0000 0.3090
vn 0.5878 -0.0000 -0.8090
vn -0.5878 -0.0000 -0.8090
vn -0.0000 0.8441 -0.5362
vn -0.0000 -0.8441 0.5362
vn -0.0477 0.9989 -0.0000
vn -0.6879 0.4295 -0.5851
vn 0.6659 -0.3614 0.6526
vn -0.6659 -0.3614 0.6526
vn -0.0000 0.9976 -0.0698
vn 0.0477 0.9989 -0.0000
vn -0.0000 -0.2996 0.9541
vn 0.6879 0.4295 -0.5851
vn 0.0354 0.9988 -0.0347
vn -0.9273 0.3743 -0.0000
vn -0.0000 0.6578 -0.7531
vn -0.0354 0.9988 -0.0347
vn -0.0000 0.1201 0.9928
vn 0.9273 0.3743 -0.0000
vn 0.9594 -0.2358 0.1546
vn -0.0000 -0.8363 0.5483
vn -0.9594 -0.2358 0.1546
vn -0.5090 -0.8607 -0.0000
vn -0.0000 -0.0004 -1.0000
vn 0.5090 -0.8607 -0.0000
vn 0.2895 0.6937 0.6595
vn 0.4700 0.0331 0.8820
vn -0.2895 0.6937 0.6595
vn -0.4700 0.0331 0.8820
vn 0.6338 0.7735 -0.0000
vn 0.9997 0.0232 -0.0000
vn -0.6338 0.7735 -0.0000
vn -0.9997 0.0232 -0.0000
vn -0.2410 -0.9413 0.2362
vn 0.2410 -0.9413 0.2362
vn -0.0000 -0.9194 0.3932
vn 0.0441 0.9983 -0.0375
vn -0.0441 0.9983 -0.0375
vn 0.3638 0.6337 0.6827
vn 0.5703 0.0440 0.8203
vn -0.3638 0.6337 0.6827
vn -0.5703 0.0440 0.8203
vn -0.2054 -0.9330 0.2955
vn 0.2054 -0.9330 0.2955
vt 0.842431 0.540712
vt 0.657569 0.709288
vt 0.657569 0.540712
vt 0.633142 0.510178
vt 0.875000 0.500000
vt 0.866858 0.510178
vt 0.625000 0.500000
vt 0.000000 0.000000
vt 0.624297 0.709812
vt 0.468222 0.532359
vt 0.331725 0.375000
vt 0.670785 0.750000
vt 0.663450 0.750000
vt 0.829215 0.750000
vt 0.875000 0.696415
vt 0.875000 0.685046
vt 0.423081 0.375489
vt 0.656250 0.522312
vt 0.625000 0.685046
vt 0.846162 0.750978
vt 0.541667 0.000000
vt 0.625000 0.000000
vt 0.625000 0.181106
vt 0.625000 0.250000
vt 0.541667 0.500000
vt 0.541667 0.250000
vt 0.625000 0.569274
vt 0.541667 0.750000
vt 0.375000 0.500000
vt 0.250000 0.750000
vt 0.125000 0.750000
vt 0.458333 0.750000
vt 0.375000 0.875000
vt 0.375000 0.750000
vt 0.541667 0.875000
vt 0.458333 0.875000
vt 0.458333 1.000000
vt 0.375000 1.000000
vt 0.458333 0.500000
vt 0.458333 0.250000
vt 0.375000 0.250000
vt 0.458333 0.000000
vt 0.375000 0.000000
vt 0.625000 0.750000
vt 0.842431 0.709288
vt 0.125000 0.500000
vt 0.541667 1.000000
s 0
f 4/1/1 6/2/1 5/3/1
f 44/4/2 1/5/2 43/6/2
f 2/7/3 12/7/3 10/7/3
f 10/7/4 11/5/4 9/5/4
f 1/5/5 11/5/5 7/5/5
f 2/7/1 9/5/1 1/5/1
f 32/8/6 14/8/6 34/8/6
f 13/8/7 16/8/7 15/8/7
f 33/8/8 15/8/8 31/8/8
f 34/8/9 13/8/9 33/8/9
f 26/8/10 20/8/10 21/8/10
f 24/8/11 18/8/11 19/8/11
f 22/8/12 21/8/12 17/8/12
f 25/8/7 19/8/7 20/8/7
f 23/8/13 17/8/13 18/8/13
f 24/8/11 53/8/11 23/8/11
f 33/8/8 27/8/8 29/8/8
f 27/8/14 32/8/14 28/8/14
f 28/8/6 34/8/6 30/8/6
f 34/8/15 29/8/15 30/8/15
f 31/8/1 16/8/1 32/8/1
f 38/9/16 44/4/16 48/10/16
f 48/10/17 6/8/17 47/11/17
f 42/12/18 38/9/18 37/13/18
f 39/14/19 35/15/19 40/16/19
f 1/5/5 40/16/5 35/15/5
f 46/17/20 37/13/20 47/11/20
f 43/6/21 35/15/21 45/18/21
f 37/13/22 39/14/22 42/12/22
f 2/7/3 41/19/3 8/7/3
f 46/17/23 3/8/23 45/18/23
f 36/20/24 45/18/24 35/15/24
f 6/8/25 44/4/25 5/3/25
f 6/8/26 46/17/26 47/11/26
f 48/10/27 37/13/27 38/9/27
f 5/3/28 43/6/28 4/1/28
f 43/6/29 3/8/29 4/1/29
f 25/8/30 49/8/30 54/8/30
f 24/8/31 50/8/31 51/8/31
f 22/8/12 49/8/12 26/8/12
f 23/8/13 52/8/13 22/8/13
f 51/8/1 54/8/1 55/8/1
f 55/8/1 49/8/1 52/8/1
f 51/8/32 55/8/32 24/8/32
f 50/8/30 25/8/30 54/8/30
f 62/21/33 40/22/33 7/23/33
f 11/24/34 65/25/34 63/26/34
f 65/25/35 8/27/35 67/28/35
f 59/29/9 60/30/9 56/31/9
f 68/32/36 60/33/36 58/34/36
f 68/32/37 69/35/37 70/36/37
f 60/33/38 61/37/38 56/38/38
f 69/35/39 61/37/39 70/36/39
f 59/29/40 68/32/40 58/34/40
f 66/39/41 67/28/41 68/32/41
f 64/40/4 59/29/4 57/41/4
f 63/26/4 66/39/4 64/40/4
f 61/42/42 57/41/42 56/43/42
f 62/21/43 64/40/43 61/42/43
f 40/22/44 69/35/44 39/14/44
f 67/28/35 8/27/35 41/44/35
f 7/23/33 63/26/33 62/21/33
f 69/35/45 41/44/45 42/12/45
f 42/12/46 39/14/46 69/35/46
f 4/1/1 3/45/1 6/2/1
f 44/4/2 2/7/2 1/5/2
f 2/7/3 8/7/3 12/7/3
f 10/7/4 12/7/4 11/5/4
f 1/5/5 9/5/5 11/5/5
f 2/7/1 10/7/1 9/5/1
f 32/8/6 16/8/6 14/8/6
f 13/8/7 14/8/7 16/8/7
f 33/8/8 13/8/8 15/8/8
f 34/8/9 14/8/9 13/8/9
f 26/8/10 25/8/10 20/8/10
f 24/8/11 23/8/11 18/8/11
f 22/8/12 26/8/12 21/8/12
f 25/8/7 24/8/7 19/8/7
f 23/8/13 22/8/13 17/8/13
f 24/8/32 55/8/32 53/8/32
f 33/8/8 31/8/8 27/8/8
f 27/8/14 31/8/14 32/8/14
f 28/8/6 32/8/6 34/8/6
f 34/8/15 33/8/15 29/8/15
f 31/8/1 15/8/1 16/8/1
f 38/9/16 2/7/16 44/4/16
f 42/12/18 41/19/18 38/9/18
f 39/14/19 36/20/19 35/15/19
f 1/5/5 7/5/5 40/16/5
f 46/17/20 36/20/20 37/13/20
f 43/6/21 1/5/21 35/15/21
f 37/13/22 36/20/22 39/14/22
f 2/7/3 38/9/3 41/19/3
f 36/20/47 46/17/47 45/18/47
f 6/8/25 48/10/25 44/4/25
f 6/8/26 3/8/26 46/17/26
f 48/10/48 47/11/48 37/13/48
f 5/3/28 44/4/28 43/6/28
f 43/6/29 45/18/29 3/8/29
f 25/8/10 26/8/10 49/8/10
f 24/8/31 25/8/31 50/8/31
f 22/8/12 52/8/12 49/8/12
f 23/8/13 53/8/13 52/8/13
f 51/8/1 50/8/1 54/8/1
f 52/8/1 53/8/1 55/8/1
f 55/8/1 54/8/1 49/8/1
f 11/24/34 12/7/34 65/25/34
f 65/25/35 12/7/35 8/27/35
f 56/31/9 57/46/9 59/29/9
f 59/29/9 58/34/9 60/30/9
f 68/32/49 70/36/49 60/33/49
f 68/32/50 67/28/50 69/35/50
f 60/33/51 70/36/51 61/37/51
f 69/35/52 62/47/52 61/37/52
f 59/29/40 66/39/40 68/32/40
f 66/39/41 65/25/41 67/28/41
f 64/40/4 66/39/4 59/29/4
f 63/26/4 65/25/4 66/39/4
f 61/42/42 64/40/42 57/41/42
f 62/21/43 63/26/43 64/40/43
f 40/22/53 62/21/53 69/35/53
f 7/23/33 11/24/33 63/26/33
f 69/35/54 67/28/54 41/44/54
