# Blender 5.0.1
# www.blender.org
mtllib Sink01.mtl
o Sink01
v -0.200000 1.000000 -0.160000
v 0.200000 1.000000 -0.160000
v -0.129993 0.915498 0.005564
v -0.129993 0.915498 -0.126964
v 0.129993 0.915498 -0.126964
v 0.129993 0.915498 0.005564
v -0.167960 0.863622 -0.151563
v 0.167960 0.863622 -0.151563
v -0.200000 1.000000 -0.208609
v 0.200000 1.000000 -0.208609
v -0.167960 0.863622 -0.208609
v 0.167960 0.863622 -0.208609
v 0.032291 1.000324 -0.167314
v 0.032291 1.035741 -0.167314
v 0.032291 1.000324 -0.202731
v 0.032291 1.035741 -0.202731
v 0.067709 1.000324 -0.167314
v 0.067709 1.035741 -0.167314
v 0.067709 1.000324 -0.202731
v 0.067709 1.035741 -0.202731
v -0.067709 1.000324 -0.167314
v -0.067709 1.035741 -0.167314
v -0.067709 1.000324 -0.202731
v -0.067709 1.035741 -0.202731
v -0.032291 1.000324 -0.167314
v -0.032291 1.035741 -0.167314
v -0.032291 1.000324 -0.202731
v -0.032291 1.035741 -0.202731
v -0.000000 0.996895 -0.206954
v -0.023730 0.996895 -0.189713
v -0.014666 0.996895 -0.161816
v 0.014666 0.996895 -0.161816
v 0.023730 0.996895 -0.189713
v -0.000000 1.057179 -0.206954
v -0.023730 1.057179 -0.189713
v -0.014666 1.057179 -0.161816
v 0.014666 1.057179 -0.161816
v 0.023730 1.057179 -0.189713
v -0.014666 1.048927 -0.161816
v 0.014666 1.048927 -0.161816
v -0.014666 1.028929 -0.161816
v 0.014666 1.028929 -0.161816
v -0.014666 1.048927 -0.075230
v 0.014666 1.048927 -0.075230
v -0.014666 1.028929 -0.075230
v 0.014666 1.028929 -0.075230
v -0.200000 1.000000 0.040087
v -0.138479 1.000000 0.102861
v 0.138479 1.000000 0.102861
v 0.200000 1.000000 0.040087
v -0.106440 0.863622 0.060034
v -0.167960 0.863622 -0.002740
v 0.167960 0.863622 -0.002740
v 0.106440 0.863622 0.060034
vn -0.0000 1.0000 -0.0000
vn -0.0000 0.3641 0.9314
vn 0.9735 -0.2287 -0.0000
vn -0.0000 -0.0000 -1.0000
vn -0.0000 -1.0000 -0.0000
vn -0.9735 -0.2287 -0.0000
vn -1.0000 -0.0000 -0.0000
vn 1.0000 -0.0000 -0.0000
vn -0.0000 -0.0000 1.0000
vn 0.9511 -0.0000 0.3090
vn -0.9511 -0.0000 0.3090
vn 0.5878 -0.0000 -0.8090
vn -0.5878 -0.0000 -0.8090
vn -0.7701 0.6380 -0.0000
vn -0.5368 0.6596 -0.5261
vn 0.6659 -0.3614 0.6526
vn -0.6659 -0.3614 0.6526
vn -0.0000 0.7550 -0.6557
vn 0.7701 0.6380 -0.0000
vn -0.0000 -0.2996 0.9541
vn 0.5368 0.6596 -0.5261
vt 0.842431 0.540712
vt 0.657569 0.709288
vt 0.657569 0.540712
vt 0.875000 0.500000
vt 0.625000 0.500000
vt 0.625000 0.000000
vt 0.375000 0.250000
vt 0.375000 0.000000
vt 0.625000 0.250000
vt 0.375000 0.500000
vt 0.375000 0.750000
vt 0.625000 0.750000
vt 0.375000 1.000000
vt 0.000000 0.000000
vt 0.624297 0.709812
vt 0.663450 0.750000
vt 0.670785 0.750000
vt 0.829215 0.750000
vt 0.875000 0.696415
vt 0.875000 0.685046
vt 0.625000 0.685046
vt 0.846162 0.750978
vt 0.842431 0.709288
vt 0.625000 1.000000
vt 0.875000 0.750000
s 0
f 4/1/1 6/2/1 5/3/1
f 5/3/2 1/4/2 4/1/2
f 2/5/3 12/5/3 10/5/3
f 10/5/4 11/4/4 9/4/4
f 7/4/5 12/5/5 8/5/5
f 1/4/6 11/4/6 7/4/6
f 2/5/1 9/4/1 1/4/1
f 14/6/7 15/7/7 13/8/7
f 16/9/4 19/10/4 15/7/4
f 20/5/8 17/11/8 19/10/8
f 18/12/9 13/13/9 17/11/9
f 16/4/1 18/12/1 20/5/1
f 22/6/7 23/7/7 21/8/7
f 24/9/4 27/10/4 23/7/4
f 28/5/8 25/11/8 27/10/8
f 26/12/9 21/13/9 25/11/9
f 24/4/1 26/12/1 28/5/1
f 38/14/10 32/14/10 33/14/10
f 36/14/11 30/14/11 31/14/11
f 34/14/12 33/14/12 29/14/12
f 37/14/9 31/14/9 32/14/9
f 35/14/13 29/14/13 30/14/13
f 36/14/1 38/14/1 34/14/1
f 45/14/7 39/14/7 41/14/7
f 39/14/1 44/14/1 40/14/1
f 44/14/8 42/14/8 40/14/8
f 46/14/5 41/14/5 42/14/5
f 45/14/9 44/14/9 43/14/9
f 6/14/14 2/5/14 5/3/14
f 50/15/15 6/14/15 49/16/15
f 54/17/16 50/15/16 49/16/16
f 51/18/17 47/19/17 52/20/17
f 1/4/6 52/20/6 47/19/6
f 3/14/18 49/16/18 6/14/18
f 1/4/19 3/14/19 4/1/19
f 49/16/20 51/18/20 54/17/20
f 2/5/3 53/21/3 8/5/3
f 48/22/21 3/14/21 47/19/21
f 52/20/5 8/5/5 54/17/5
f 4/1/1 3/23/1 6/2/1
f 5/3/2 2/5/2 1/4/2
f 2/5/3 8/5/3 12/5/3
f 10/5/4 12/5/4 11/4/4
f 7/4/5 11/4/5 12/5/5
f 1/4/6 9/4/6 11/4/6
f 2/5/1 10/5/1 9/4/1
f 14/6/7 16/9/7 15/7/7
f 16/9/4 20/5/4 19/10/4
f 20/5/8 18/12/8 17/11/8
f 18/12/9 14/24/9 13/13/9
f 16/4/1 14/25/1 18/12/1
f 22/6/7 24/9/7 23/7/7
f 24/9/4 28/5/4 27/10/4
f 28/5/8 26/12/8 25/11/8
f 26/12/9 22/24/9 21/13/9
f 24/4/1 22/25/1 26/12/1
f 38/14/10 37/14/10 32/14/10
f 36/14/11 35/14/11 30/14/11
f 34/14/12 38/14/12 33/14/12
f 37/14/9 36/14/9 31/14/9
f 35/14/13 34/14/13 29/14/13
f 34/14/1 35/14/1 36/14/1
f 36/14/1 37/14/1 38/14/1
f 45/14/7 43/14/7 39/14/7
f 39/14/1 43/14/1 44/14/1
f 44/14/8 46/14/8 42/14/8
f 46/14/5 45/14/5 41/14/5
f 45/14/9 46/14/9 44/14/9
f 6/14/14 50/15/14 2/5/14
f 54/17/16 53/21/16 50/15/16
f 51/18/17 48/22/17 47/19/17
f 1/4/6 7/4/6 52/20/6
f 3/14/18 48/22/18 49/16/18
f 1/4/19 47/19/19 3/14/19
f 49/16/20 48/22/20 51/18/20
f 2/5/3 50/15/3 53/21/3
f 54/17/5 51/18/5 52/20/5
f 52/20/5 7/4/5 8/5/5
f 8/5/5 53/21/5 54/17/5
