# Blender 5.0.1
# www.blender.org
mtllib Sink02.mtl
o Sink02
v -0.200000 1.000000 -0.160000
v 0.200000 1.000000 -0.160000
v -0.129993 0.915498 0.005564
v -0.129993 0.915498 -0.126964
v 0.129993 0.915498 -0.126964
v 0.129993 0.915498 0.005564
v -0.167960 0.863622 -0.151563
v 0.167960 0.863622 -0.151563
v -0.200000 1.000000 -0.208609
v 0.200000 1.000000 -0.208609
v -0.167960 0.863622 -0.208609
v 0.167960 0.863622 -0.208609
v -0.010054 1.057187 -0.067025
v 0.010054 1.057187 -0.067025
v -0.010054 1.077185 -0.067025
v 0.010054 1.077185 -0.067025
v -0.000000 0.996895 -0.206954
v -0.023730 0.996895 -0.189713
v -0.014666 0.996895 -0.161816
v 0.014666 0.996895 -0.161816
v 0.023730 0.996895 -0.189713
v -0.000000 1.057179 -0.206954
v -0.023730 1.057179 -0.189713
v -0.014666 1.057179 -0.161816
v 0.014666 1.057179 -0.161816
v 0.023730 1.057179 -0.189713
v -0.010054 1.031988 -0.161816
v 0.010054 1.031988 -0.161816
v -0.010054 1.011990 -0.161816
v 0.010054 1.011990 -0.161816
v -0.010054 1.077185 -0.090664
v 0.010054 1.077185 -0.090664
v -0.010054 1.057187 -0.090664
v 0.010054 1.057187 -0.090664
v -0.200000 1.000000 0.040087
v -0.138479 1.000000 0.102861
v 0.138479 1.000000 0.102861
v 0.200000 1.000000 0.040087
v -0.106440 0.863622 0.060034
v -0.167960 0.863622 -0.002740
v 0.167960 0.863622 -0.002740
v 0.106440 0.863622 0.060034
v -0.163397 0.998251 -0.136978
v 0.163397 0.998251 -0.136978
v -0.163397 0.998251 0.027044
v -0.120186 0.998251 0.077846
v 0.120186 0.998251 0.077846
v 0.163397 0.998251 0.027044
v 0.023730 1.075772 -0.189713
v 0.014666 1.075772 -0.133460
v -0.014666 1.075772 -0.133460
v -0.000000 1.075772 -0.206954
v -0.023730 1.075772 -0.189713
v 0.018965 1.075772 -0.160141
v -0.018965 1.075772 -0.160141
vn -0.0000 1.0000 -0.0000
vn -0.0000 0.9971 0.0758
vn 0.9735 -0.2287 -0.0000
vn -0.0000 -0.0000 -1.0000
vn -0.0000 -1.0000 -0.0000
vn -0.9735 -0.2287 -0.0000
vn 1.0000 -0.0000 -0.0000
vn -0.0000 -0.0000 1.0000
vn -1.0000 -0.0000 -0.0000
vn 0.9511 -0.0000 0.3090
vn -0.9511 -0.0000 0.3090
vn 0.5878 -0.0000 -0.8090
vn -0.5878 -0.0000 -0.8090
vn -0.0000 0.8441 -0.5362
vn -0.0000 -0.8441 0.5362
vn -0.0477 0.9989 -0.0000
vn -0.6879 0.4295 -0.5851
vn 0.6659 -0.3614 0.6526
vn -0.6659 -0.3614 0.6526
vn -0.0000 0.9976 -0.0698
vn 0.0477 0.9989 -0.0000
vn -0.0000 -0.2996 0.9541
vn 0.6879 0.4295 -0.5851
vn 0.0354 0.9988 -0.0347
vn -0.9273 0.3743 -0.0000
vn -0.0000 0.6578 -0.7531
vn -0.0354 0.9988 -0.0347
vn -0.0000 0.1201 0.9928
vn 0.9273 0.3743 -0.0000
vn 0.9594 -0.2358 0.1546
vn -0.0000 -0.8363 0.5483
vn -0.9594 -0.2358 0.1546
vn 0.0441 0.9983 -0.0375
vn -0.0441 0.9983 -0.0375
vt 0.842431 0.540712
vt 0.657569 0.709288
vt 0.657569 0.540712
vt 0.633142 0.510178
vt 0.875000 0.500000
vt 0.866858 0.510178
vt 0.625000 0.500000
vt 0.000000 0.000000
vt 0.624297 0.709812
vt 0.468222 0.532359
vt 0.331725 0.375000
vt 0.670785 0.750000
vt 0.663450 0.750000
vt 0.829215 0.750000
vt 0.875000 0.696415
vt 0.875000 0.685046
vt 0.423081 0.375489
vt 0.656250 0.522312
vt 0.625000 0.685046
vt 0.846162 0.750978
vt 0.842431 0.709288
s 0
f 4/1/1 6/2/1 5/3/1
f 44/4/2 1/5/2 43/6/2
f 2/7/3 12/7/3 10/7/3
f 10/7/4 11/5/4 9/5/4
f 7/5/5 12/7/5 8/7/5
f 1/5/6 11/5/6 7/5/6
f 2/7/1 9/5/1 1/5/1
f 32/8/7 14/8/7 34/8/7
f 13/8/8 16/8/8 15/8/8
f 33/8/9 15/8/9 31/8/9
f 34/8/5 13/8/5 33/8/5
f 26/8/10 20/8/10 21/8/10
f 24/8/11 18/8/11 19/8/11
f 22/8/12 21/8/12 17/8/12
f 25/8/8 19/8/8 20/8/8
f 23/8/13 17/8/13 18/8/13
f 24/8/11 53/8/11 23/8/11
f 33/8/9 27/8/9 29/8/9
f 27/8/14 32/8/14 28/8/14
f 28/8/7 34/8/7 30/8/7
f 34/8/15 29/8/15 30/8/15
f 31/8/1 16/8/1 32/8/1
f 38/9/16 44/4/16 48/10/16
f 48/10/17 6/8/17 47/11/17
f 42/12/18 38/9/18 37/13/18
f 39/14/19 35/15/19 40/16/19
f 1/5/6 40/16/6 35/15/6
f 46/17/20 37/13/20 47/11/20
f 43/6/21 35/15/21 45/18/21
f 37/13/22 39/14/22 42/12/22
f 2/7/3 41/19/3 8/7/3
f 46/17/23 3/8/23 45/18/23
f 40/16/5 8/7/5 42/12/5
f 36/20/24 45/18/24 35/15/24
f 6/8/25 44/4/25 5/3/25
f 6/8/26 46/17/26 47/11/26
f 48/10/27 37/13/27 38/9/27
f 5/3/28 43/6/28 4/1/28
f 43/6/29 3/8/29 4/1/29
f 25/8/30 49/8/30 54/8/30
f 24/8/31 50/8/31 51/8/31
f 22/8/12 49/8/12 26/8/12
f 23/8/13 52/8/13 22/8/13
f 51/8/1 54/8/1 55/8/1
f 55/8/1 49/8/1 52/8/1
f 51/8/32 55/8/32 24/8/32
f 50/8/30 25/8/30 54/8/30
f 4/1/1 3/21/1 6/2/1
f 44/4/2 2/7/2 1/5/2
f 2/7/3 8/7/3 12/7/3
f 10/7/4 12/7/4 11/5/4
f 7/5/5 11/5/5 12/7/5
f 1/5/6 9/5/6 11/5/6
f 2/7/1 10/7/1 9/5/1
f 32/8/7 16/8/7 14/8/7
f 13/8/8 14/8/8 16/8/8
f 33/8/9 13/8/9 15/8/9
f 34/8/5 14/8/5 13/8/5
f 26/8/10 25/8/10 20/8/10
f 24/8/11 23/8/11 18/8/11
f 22/8/12 26/8/12 21/8/12
f 25/8/8 24/8/8 19/8/8
f 23/8/13 22/8/13 17/8/13
f 24/8/32 55/8/32 53/8/32
f 33/8/9 31/8/9 27/8/9
f 27/8/14 31/8/14 32/8/14
f 28/8/7 32/8/7 34/8/7
f 34/8/15 33/8/15 29/8/15
f 31/8/1 15/8/1 16/8/1
f 38/9/16 2/7/16 44/4/16
f 42/12/18 41/19/18 38/9/18
f 39/14/19 36/20/19 35/15/19
f 1/5/6 7/5/6 40/16/6
f 46/17/20 36/20/20 37/13/20
f 43/6/21 1/5/21 35/15/21
f 37/13/22 36/20/22 39/14/22
f 2/7/3 38/9/3 41/19/3
f 42/12/5 39/14/5 40/16/5
f 40/16/5 7/5/5 8/7/5
f 8/7/5 41/19/5 42/12/5
f 36/20/33 46/17/33 45/18/33
f 6/8/25 48/10/25 44/4/25
f 6/8/26 3/8/26 46/17/26
f 48/10/34 47/11/34 37/13/34
f 5/3/28 44/4/28 43/6/28
f 43/6/29 45/18/29 3/8/29
f 25/8/10 26/8/10 49/8/10
f 24/8/31 25/8/31 50/8/31
f 22/8/12 52/8/12 49/8/12
f 23/8/13 53/8/13 52/8/13
f 51/8/1 50/8/1 54/8/1
f 52/8/1 53/8/1 55/8/1
f 55/8/1 54/8/1 49/8/1
