# Blender 5.1.1
# www.blender.org
mtllib Cafeteria.mtl
o Cafeteria
v -11.400000 0.000000 14.099999
v -11.400000 0.000000 -1.900000
v -23.400000 0.000000 14.099998
v -23.400000 0.000000 -1.900001
v -23.400000 3.000000 14.099998
v -11.400000 3.000000 14.099999
v -11.400000 3.000000 -1.900000
v -23.400000 3.000000 -1.900001
v -23.400000 0.000000 4.899999
v -23.400000 0.000000 7.299999
v -23.400000 3.000000 4.899999
v -23.400000 3.000000 7.299999
v -23.400000 1.800000 4.899999
v -23.400000 1.800000 7.299999
v -23.400000 1.000000 4.899999
v -23.400000 1.000000 7.299999
v -11.400000 0.000000 7.100000
v -11.400000 0.000000 5.100000
v -11.400000 3.000000 7.100000
v -11.400000 3.000000 5.100000
v -11.400000 2.000000 7.100000
v -11.400000 2.000000 5.100000
v -23.299999 0.000000 7.499999
v -23.299999 3.000000 7.499999
v -23.400000 0.000000 7.499999
v -23.400000 3.000000 7.499999
v -23.299999 0.000000 7.299999
v -23.299999 3.000000 7.299999
v -23.400000 0.000000 7.299999
v -23.400000 3.000000 7.299999
v -23.299999 0.000000 4.899999
v -23.299999 3.000000 4.899999
v -23.400000 0.000000 4.899999
v -23.400000 3.000000 4.899999
v -23.299999 0.000000 4.699999
v -23.299999 3.000000 4.699999
v -23.400000 0.000000 4.699999
v -23.400000 3.000000 4.699999
v -11.500000 0.000000 4.700000
v -11.500000 3.000000 4.700000
v -11.400000 0.000000 4.700000
v -11.400000 3.000000 4.700000
v -11.500000 0.000000 4.900000
v -11.500000 3.000000 4.900000
v -11.400000 0.000000 4.900000
v -11.400000 3.000000 4.900000
v -11.500000 0.000000 7.300000
v -11.500000 3.000000 7.300000
v -11.400000 0.000000 7.300000
v -11.400000 3.000000 7.300000
v -11.500000 0.000000 7.500000
v -11.500000 3.000000 7.500000
v -11.400000 0.000000 7.500000
v -11.400000 3.000000 7.500000
v -23.299999 0.000000 14.094442
v -23.299999 3.000000 14.094442
v -23.299999 0.000000 13.999999
v -23.299999 3.000000 13.999999
v -23.400000 0.000000 13.999999
v -23.400000 3.000000 13.999999
v -11.400000 0.000000 14.000000
v -11.400000 3.000000 14.000000
v -11.500000 0.000000 14.000000
v -11.500000 3.000000 14.000000
v -11.500000 0.000000 14.099999
v -11.500000 3.000000 14.099999
v -23.396296 0.000000 -1.800001
v -23.396296 3.000000 -1.800001
v -23.299999 0.000000 -1.800001
v -23.299999 3.000000 -1.800001
v -23.301851 0.000000 -1.900001
v -23.301851 3.000000 -1.900001
v -11.499999 0.000000 -1.900000
v -11.499999 3.000000 -1.900000
v -11.499999 0.000000 -1.795642
v -11.499999 3.000000 -1.795642
v -11.397346 0.000000 -1.800000
v -11.397346 3.000000 -1.800000
v -17.500000 0.000000 7.299999
v -17.500000 3.000000 7.299999
v -17.299999 0.000000 7.299999
v -17.299999 3.000000 7.299999
v -17.500000 0.000000 7.500000
v -17.500000 3.000000 7.500000
v -17.299999 0.000000 7.500000
v -17.299999 3.000000 7.500000
v -17.500000 0.000000 4.799999
v -17.500000 3.000000 4.799999
v -17.299999 0.000000 4.799999
v -17.299999 3.000000 4.799999
v -17.500000 0.000000 5.000000
v -17.500000 3.000000 5.000000
v -17.299999 0.000000 5.000000
v -17.299999 3.000000 5.000000
v -23.400000 0.900000 7.299999
v -23.400000 0.900000 4.899999
v -23.400000 1.000000 4.899999
v -23.400000 1.000000 7.299999
v -23.199999 1.000000 4.899999
v -23.199999 1.000000 7.299999
v -23.199999 0.900000 4.899999
v -23.199999 0.900000 7.299999
v -23.600000 1.800000 4.899999
v -23.600000 1.800000 7.299999
v -23.600000 1.000000 4.899999
v -23.600000 1.000000 7.299999
vn -0.0000 1.0000 -0.0000
vn -0.0000 -1.0000 -0.0000
vn 1.0000 -0.0000 -0.0000
vn -1.0000 -0.0000 -0.0000
vn -0.0000 -0.0000 1.0000
vn -0.0000 -0.0000 -1.0000
vn 0.9998 -0.0000 -0.0185
vn 0.0424 -0.0000 0.9991
vt 11.624997 15.500000
vt -10.875001 15.499999
vt -10.875000 2.749999
vt 4.125000 -4.500000
vt -3.375000 -0.250000
vt -3.375000 -4.500000
vt -3.375000 -4.500000
vt -2.625000 -0.250000
vt -3.375000 -0.250000
vt -0.874999 -0.125000
vt -1.499999 -0.125000
vt -1.500000 -4.500000
vt 0.375001 3.000000
vt 2.250001 -4.500000
vt 2.250001 3.000000
vt 4.125000 -4.500000
vt -3.375000 5.500000
vt -3.375000 1.250000
vt -2.625000 1.250000
vt -2.125000 1.250000
vt -1.500000 -0.250000
vt -1.500000 1.250000
vt -1.499999 5.500000
vt -1.499999 1.125000
vt -0.874999 1.125000
vt 0.375000 -4.500000
vt 0.375001 -0.125000
vt 0.375001 5.500000
vt 0.375001 1.125000
vt -1.500000 -4.500000
vt -2.125000 -0.250000
vt -1.500001 5.500000
vt -10.874999 -14.500000
vt 11.625001 -14.500000
vt -10.875000 -1.750001
vt 11.625001 -1.374999
vt 11.625001 2.375001
vt 4.125000 -0.125000
vt 4.125000 1.125000
vt 4.125000 5.500000
vt -3.375000 5.500000
vt -3.375000 1.250000
vt 0.126139 2.251204
vt 0.001072 -1.500803
vt 0.126139 -1.500803
vt 0.501340 2.251204
vt 0.376273 -1.500803
vt 0.501340 -1.500803
vt 0.376273 2.251204
vt 0.626407 2.251204
vt 0.626407 -1.500803
vt 1.001608 2.251204
vt 0.876541 -1.500803
vt 1.001608 -1.500803
vt 0.876541 2.251204
vt 1.126675 2.251204
vt 1.001608 -1.500803
vt 1.126675 -1.500803
vt 1.501876 2.251204
vt 1.376809 -1.500803
vt 1.501876 -1.500803
vt 1.376809 2.251204
vt 2.874933 2.251205
vt 2.756816 -1.500803
vt 2.874933 -1.500803
vt 1.626942 2.251204
vt 1.501875 -1.500803
vt 1.626942 -1.500803
vt 2.002143 2.251204
vt 1.877076 -1.500803
vt 2.002143 -1.500803
vt 1.877076 2.251204
vt 3.000000 2.251205
vt 3.000000 -1.500803
vt 2.386228 2.251205
vt 2.261160 -1.500803
vt 2.386228 -1.500803
vt 2.511295 2.251205
vt 2.511295 -1.500803
vt 2.631728 2.251205
vt 2.511294 -1.500803
vt 2.631728 -1.500803
vt 2.756816 2.251205
vt 2.756816 -1.500803
vt 2.132659 2.251204
vt 2.002142 -1.500803
vt 2.132659 -1.500803
vt 2.261158 2.251204
vt 2.261158 -1.500803
vt -1.249598 2.251205
vt -1.499732 -1.500803
vt -1.249598 -1.500803
vt -1.749866 2.251204
vt -2.000000 -1.500803
vt -1.749866 -1.500803
vt -0.999464 2.251204
vt -0.999464 -1.500803
vt -1.499732 2.251204
vt 0.001072 2.251204
vt -0.249062 -1.500803
vt 0.001072 -1.500803
vt -0.499196 2.251204
vt -0.749330 -1.500803
vt -0.499196 -1.500803
vt -0.749330 2.251204
vt -0.999464 -1.500803
vt -0.249062 2.251204
vt -0.692856 0.616072
vt 1.621428 0.423214
vt 1.621428 0.616072
vt 1.621428 0.326786
vt -0.692856 0.133928
vt 1.621428 0.133928
vt 1.814286 0.326786
vt -0.692856 0.326786
vt -0.885714 0.423214
vt -0.885714 0.326786
vt -0.692856 0.423214
vt -2.126203 -0.091322
vt -2.624697 0.033302
vt -2.624697 -0.091322
vt -2.126202 -0.465195
vt -3.621684 -0.340571
vt -3.621684 -0.465195
vt -0.693110 0.133260
vt 1.621151 -0.059596
vt 1.621151 0.133260
vt -2.624697 -0.091322
vt -2.126203 -0.215947
vt -2.126203 -0.091323
vt 0.375001 -4.500000
vt 4.125000 3.000000
vt 0.001072 2.251204
vt 1.001608 2.251204
vt 2.756816 2.251205
vt 1.501875 2.251204
vt 2.261160 2.251205
vt 2.511294 2.251205
vt 2.002142 2.251204
vt -2.000000 2.251204
vt -0.999464 2.251204
vt 1.814286 0.423214
vt -2.126203 0.033302
vt -2.126202 -0.340571
vt -0.693110 -0.059596
vt -2.624697 -0.215946
s 0
usemtl Plaster
f 5/7/3 14/8/3 12/9/3
f 22/10/4 20/11/4 7/12/4
f 7/13/5 4/14/5 2/15/5
f 5/16/6 1/15/6 3/14/6
f 8/17/3 11/18/3 13/19/3
f 11/18/3 14/8/3 13/19/3
f 15/20/3 10/21/3 9/22/3
f 6/23/4 19/24/4 21/25/4
f 19/24/4 22/10/4 21/25/4
f 22/10/4 7/12/4 2/26/4
f 18/27/4 22/10/4 2/26/4
f 1/28/4 6/23/4 21/25/4
f 17/29/4 1/28/4 21/25/4
f 14/8/3 3/30/3 16/31/3
f 10/21/3 16/31/3 3/30/3
f 4/32/3 13/19/3 15/20/3
f 9/22/3 4/32/3 15/20/3
f 7/13/5 8/131/5 4/14/5
f 5/16/6 6/132/6 1/15/6
f 11/18/3 12/9/3 14/8/3
f 15/20/3 16/31/3 10/21/3
f 19/24/4 20/11/4 22/10/4
f 14/8/3 5/7/3 3/30/3
f 4/32/3 8/17/3 13/19/3
usemtl CeramicTiles45
f 2/1/1 4/2/1 9/3/1
f 3/33/1 1/34/1 10/35/1
f 1/34/1 17/36/1 10/35/1
f 18/37/1 10/35/1 17/36/1
f 18/37/1 2/1/1 9/3/1
f 18/37/1 9/3/1 10/35/1
usemtl SmoothConcrete
f 7/4/2 11/5/2 8/6/2
f 20/38/2 11/5/2 7/4/2
f 19/39/2 11/5/2 20/38/2
f 6/40/2 5/41/2 12/42/2
f 19/39/2 6/40/2 12/42/2
f 16/119/6 104/120/6 14/121/6
f 14/122/2 103/123/2 13/124/2
f 13/128/5 105/129/5 15/130/5
f 19/39/2 12/42/2 11/5/2
f 16/119/6 106/143/6 104/120/6
f 14/122/2 104/144/2 103/123/2
f 13/128/5 103/146/5 105/129/5
usemtl SmoothConcrete
f 24/43/5 25/44/5 23/45/5
f 30/46/6 27/47/6 29/48/6
f 28/49/3 23/45/3 27/47/3
f 32/50/5 33/48/5 31/51/5
f 38/52/6 35/53/6 37/54/6
f 36/55/3 31/51/3 35/53/3
f 40/56/6 41/57/6 39/58/6
f 46/59/5 43/60/5 45/61/5
f 44/62/4 39/58/4 43/60/4
f 58/63/3 55/64/3 57/65/3
f 48/66/6 49/67/6 47/68/6
f 54/69/5 51/70/5 53/71/5
f 52/72/4 47/68/4 51/70/4
f 60/73/6 57/65/6 59/74/6
f 64/75/6 61/76/6 63/77/6
f 66/78/4 63/77/4 65/79/4
f 70/80/5 67/81/5 69/82/5
f 72/83/7 69/82/7 71/84/7
f 76/85/4 73/86/4 75/87/4
f 78/88/8 75/87/8 77/89/8
f 80/90/6 81/91/6 79/92/6
f 86/93/5 83/94/5 85/95/5
f 84/96/4 79/92/4 83/97/4
f 82/98/3 85/95/3 81/91/3
f 88/99/6 89/100/6 87/101/6
f 94/102/5 91/103/5 93/104/5
f 92/105/4 87/106/4 91/103/4
f 90/107/3 93/104/3 89/100/3
f 24/43/5 26/133/5 25/44/5
f 30/46/6 28/49/6 27/47/6
f 28/49/3 24/43/3 23/45/3
f 32/50/5 34/46/5 33/48/5
f 38/52/6 36/55/6 35/53/6
f 36/55/3 32/50/3 31/51/3
f 40/56/6 42/134/6 41/57/6
f 46/59/5 44/62/5 43/60/5
f 44/62/4 40/56/4 39/58/4
f 58/63/3 56/135/3 55/64/3
f 48/66/6 50/136/6 49/67/6
f 54/69/5 52/72/5 51/70/5
f 52/72/4 48/66/4 47/68/4
f 60/73/6 58/63/6 57/65/6
f 64/75/6 62/137/6 61/76/6
f 66/78/4 64/75/4 63/77/4
f 70/80/5 68/138/5 67/81/5
f 72/83/7 70/80/7 69/82/7
f 76/85/4 74/139/4 73/86/4
f 78/88/8 76/85/8 75/87/8
f 80/90/6 82/98/6 81/91/6
f 86/93/5 84/140/5 83/94/5
f 84/96/4 80/90/4 79/92/4
f 82/98/3 86/93/3 85/95/3
f 88/99/6 90/107/6 89/100/6
f 94/102/5 92/105/5 91/103/5
f 92/105/4 88/141/4 87/106/4
f 90/107/3 94/102/3 93/104/3
usemtl SmoothWood
f 96/108/2 102/109/2 95/110/2
f 100/111/1 97/112/1 98/113/1
f 98/114/5 102/109/5 100/111/5
f 99/115/6 96/116/6 97/117/6
f 100/111/3 101/118/3 99/115/3
f 15/125/1 106/126/1 16/127/1
f 96/108/2 101/118/2 102/109/2
f 100/111/1 99/115/1 97/112/1
f 98/114/5 95/142/5 102/109/5
f 99/115/6 101/118/6 96/116/6
f 100/111/3 102/109/3 101/118/3
f 15/125/1 105/145/1 106/126/1
