# Blender 5.1.1
# www.blender.org
mtllib Kitchen.mtl
o Kitchen
v -27.800001 0.100000 11.900001
v -23.800001 0.100000 11.900001
v -27.800001 0.100000 0.300000
v -23.800001 0.100000 0.300000
v -27.800001 0.100000 0.100000
v -23.800001 0.100000 0.100000
v -27.800001 0.100000 -1.900000
v -23.800001 0.100000 -1.900000
v -26.200001 0.100000 2.100000
v -26.200001 3.100000 2.100000
v -26.200001 0.100000 1.900000
v -26.200001 3.100000 1.900000
v -25.400002 0.100000 2.100000
v -25.400002 3.100000 2.100000
v -25.400002 0.100000 1.900000
v -25.400002 3.100000 1.900000
v -26.200001 0.100000 8.700001
v -26.200001 3.100000 8.700001
v -26.200001 0.100000 8.500000
v -26.200001 3.100000 8.500000
v -25.400002 0.100000 8.700001
v -25.400002 3.100000 8.700001
v -25.400002 0.100000 8.500000
v -25.400002 3.100000 8.500000
v -23.800001 1.900000 4.899999
v -23.800001 1.900000 7.299999
v -23.800001 1.100000 4.899999
v -23.800001 1.100000 7.299999
v -23.800001 0.100000 7.300000
v -23.800001 0.100000 4.900000
v -23.800001 3.100000 4.899999
v -23.800001 3.100000 7.299999
v -23.800001 3.100000 11.900001
v -23.800001 3.100000 0.300000
v -27.800001 3.100000 11.900001
v -27.800001 3.100000 0.300000
v -23.800001 3.100000 0.100000
v -23.800001 3.100000 -1.900000
v -27.800001 3.100000 0.100000
v -27.800001 3.100000 -1.900000
v -25.800001 0.100000 0.300000
v -26.800001 0.100000 0.300000
v -25.800001 2.100000 0.300000
v -26.800001 2.100000 0.300000
v -25.800001 3.100000 0.300000
v -26.800001 3.100000 0.300000
v -26.800001 0.100000 0.100000
v -25.800001 0.100000 0.100000
v -26.800001 2.100000 0.100000
v -25.800001 2.100000 0.100000
v -26.800001 3.100000 0.100000
v -25.800001 3.100000 0.100000
v -25.200001 0.100000 -1.900000
v -24.200001 0.100000 -1.900000
v -25.200001 2.100000 -1.900000
v -24.200001 2.100000 -1.900000
v -25.200001 3.100000 -1.900000
v -24.200001 3.100000 -1.900000
v -23.800001 1.100000 11.900001
v -27.800001 1.100000 11.900001
v -27.800001 1.100000 0.300000
v -23.800001 1.100000 0.300000
v -25.800001 1.100000 0.300000
v -26.800001 1.100000 0.300000
vn -0.0000 1.0000 -0.0000
vn -1.0000 -0.0000 -0.0000
vn -0.0000 -0.0000 -1.0000
vn 1.0000 -0.0000 -0.0000
vn -0.0000 -0.0000 1.0000
vn -0.0000 -1.0000 -0.0000
vt -2.067547 -9.430794
vt 4.025169 -6.781788
vt -2.067547 -6.781787
vt -0.743045 9.112252
vt -2.067547 11.761261
vt -2.067547 9.112252
vt -1.162656 8.008811
vt -3.149411 8.141261
vt -3.149411 8.008811
vt -1.162656 8.141261
vt -3.149411 8.671062
vt -1.162656 8.671062
vt -3.149411 8.803513
vt -1.162656 8.803513
vt -3.149411 9.333313
vt -1.162656 6.684307
vt -3.149411 6.816758
vt -3.149411 6.684307
vt -1.162656 6.816758
vt -3.149411 7.346559
vt -1.162656 7.346559
vt -3.149411 7.479010
vt -1.162656 7.479010
vt -3.149411 8.008810
vt -2.486002 -8.977280
vt -3.810507 -5.798477
vt -3.810506 -8.977282
vt 2.406595 -3.724614
vt 0.817191 -2.929911
vt 0.817191 -3.724614
vt -2.229166 -4.254415
vt 0.817191 -4.254415
vt 5.452953 -2.929911
vt 2.406595 -2.929911
vt -2.486001 -15.069991
vt -2.229166 -2.929911
vt -2.486009 20.956493
vt -3.810512 22.280998
vt -3.810512 20.956493
vt 0.419840 3.692605
vt -0.904663 3.030354
vt 0.419840 2.368104
vt -3.810509 5.592256
vt 7.267703 -8.178805
vt 5.280948 -6.854302
vt 5.280948 -8.178805
vt 7.267703 -6.854302
vt 5.280949 -5.529799
vt 5.280949 -6.854302
vt -3.810503 -17.719002
vt -3.810504 -15.069991
vt -2.229166 3.692605
vt -2.229166 2.368104
vt -1.566915 3.030354
vt -0.904663 2.368104
vt -1.566915 2.368102
vt -0.904663 3.692605
vt -1.566915 3.692605
vt 13.296690 -12.079803
vt 13.296692 -6.781791
vt 7.203977 -6.781788
vt -2.067547 -12.079801
vt -2.067548 -10.755299
vt -3.149411 -7.885231
vt -3.149411 -10.534239
vt -0.103052 -7.885231
vt 4.532709 -9.871987
vt 4.532709 -10.534239
vt 1.486353 -7.885231
vt 4.532709 -7.885232
vt 4.532709 -9.209735
vt -1.738920 1.754970
vt -1.076668 2.417223
vt -1.738920 2.417223
vt -2.401172 1.754971
vt -1.076668 1.754970
vt 0.247835 1.754970
vt 5.194962 -7.620333
vt 4.532709 -7.487883
vt 4.532709 -7.620333
vt 4.532709 -7.885233
vt 5.857213 -7.752783
vt 5.194961 -7.752783
vt 4.532709 -7.487882
vt 5.194962 -7.355432
vt 4.532709 -7.355432
vt 5.857213 -7.620333
vt 4.532709 -7.752783
vt 0.247835 3.741726
vt -1.076668 3.741726
vt -1.738920 3.741725
vt -2.401172 3.741725
vt -0.017065 1.754971
vt -0.679318 1.092719
vt -0.017065 1.092719
vt 0.247835 1.754971
vt 0.247835 -0.231784
vt -0.017065 -0.231784
vt -0.679318 -0.231783
vt -2.401172 -0.231784
vt -2.401172 1.754971
vt -0.679318 1.754971
vt 3.230466 11.761258
vt 2.700667 11.761258
vt 3.230466 9.112252
vt 0.581460 9.112252
vt 1.376161 11.761258
vt -3.149411 4.035298
vt -2.487160 5.359802
vt -3.149411 5.359802
vt -1.427557 4.035298
vt -1.824907 5.359803
vt -0.765305 4.035300
vt -0.500405 5.359803
vt -0.500405 4.035300
vt -2.229167 7.666117
vt 0.419840 6.341614
vt 0.419840 7.666117
vt -2.229166 -1.605407
vt 5.452953 -2.929911
vt 5.452953 -1.605408
vt 5.452953 -4.254415
vt -3.810508 0.294242
vt -2.486003 -5.798474
vt -2.486005 0.294242
vt -2.486006 5.592256
vt -1.162656 9.333313
vt -1.162656 8.008810
vt -2.486009 22.280998
vt 7.267703 -6.854302
vt 7.267703 -5.529799
vt -2.485999 -17.719000
vt 5.194962 -7.487883
vt 5.857213 -7.885233
vt -2.229167 6.341614
vt -2.229166 -2.929910
vt 2.406595 -4.254415
s 0
usemtl CeramicTiles
f 30/25/2 28/26/2 27/27/2
f 27/27/2 4/35/2 30/25/2
f 3/37/5 64/38/5 61/39/5
f 60/43/4 3/37/4 61/39/4
f 63/50/5 4/35/5 62/51/5
f 59/123/2 29/124/2 2/125/2
f 59/123/3 1/126/3 60/43/3
f 30/25/2 29/124/2 28/26/2
f 27/27/2 62/51/2 4/35/2
f 3/37/5 42/129/5 64/38/5
f 60/43/4 1/126/4 3/37/4
f 63/50/5 41/132/5 4/35/5
f 59/123/2 28/26/2 29/124/2
f 59/123/3 2/125/3 1/126/3
usemtl Plaster
f 26/28/2 31/29/2 25/30/2
f 25/30/2 62/31/2 27/32/2
f 33/33/2 32/34/2 26/28/2
f 31/29/2 34/36/2 25/30/2
f 34/40/5 43/41/5 62/42/5
f 36/52/5 61/53/5 44/54/5
f 43/41/5 63/55/5 62/42/5
f 61/53/5 64/56/5 44/54/5
f 45/57/5 44/54/5 43/41/5
f 44/54/5 46/58/5 36/52/5
f 43/41/5 34/40/5 45/57/5
f 33/116/3 60/117/3 35/118/3
f 35/119/4 61/120/4 36/121/4
f 26/28/2 59/122/2 33/33/2
f 26/28/2 32/34/2 31/29/2
f 25/30/2 34/36/2 62/31/2
f 45/57/5 46/58/5 44/54/5
f 33/116/3 59/135/3 60/117/3
f 35/119/4 60/136/4 61/120/4
f 26/28/2 28/137/2 59/122/2
usemtl Plaster
f 37/44/2 8/45/2 6/46/2
f 40/47/4 5/48/4 7/49/4
f 51/72/3 50/73/3 49/74/3
f 49/74/3 39/75/3 51/72/3
f 50/73/3 52/76/3 37/77/3
f 6/89/3 48/90/3 50/73/3
f 37/77/3 6/89/3 50/73/3
f 47/91/3 5/92/3 49/74/3
f 39/75/3 49/74/3 5/92/3
f 58/93/5 55/94/5 56/95/5
f 56/95/5 38/96/5 58/93/5
f 38/96/5 56/95/5 8/97/5
f 54/98/5 8/97/5 56/95/5
f 53/99/5 55/94/5 7/100/5
f 7/100/5 55/94/5 40/101/5
f 55/94/5 57/102/5 40/101/5
f 37/44/2 38/130/2 8/45/2
f 40/47/4 39/131/4 5/48/4
f 51/72/3 52/76/3 50/73/3
f 58/93/5 57/102/5 55/94/5
usemtl CeramicTiles
f 41/1/1 30/2/1 4/3/1
f 47/4/1 7/5/1 5/6/1
f 1/59/1 2/60/1 29/61/1
f 3/62/1 1/59/1 42/63/1
f 42/63/1 1/59/1 29/61/1
f 42/63/1 30/2/1 41/1/1
f 8/103/1 54/104/1 6/105/1
f 6/105/1 54/104/1 48/106/1
f 48/106/1 53/107/1 47/4/1
f 53/107/1 7/5/1 47/4/1
f 42/63/1 29/61/1 30/2/1
f 48/106/1 54/104/1 53/107/1
usemtl SmoothConcrete
f 10/7/2 11/8/2 9/9/2
f 12/10/3 15/11/3 11/8/3
f 16/12/4 13/13/4 15/11/4
f 14/14/5 9/15/5 13/13/5
f 18/16/2 19/17/2 17/18/2
f 20/19/3 23/20/3 19/17/3
f 24/21/4 21/22/4 23/20/4
f 22/23/5 17/24/5 21/22/5
f 33/64/6 35/65/6 32/66/6
f 46/67/6 32/66/6 35/65/6
f 35/65/6 36/68/6 46/67/6
f 46/67/6 31/69/6 32/66/6
f 34/70/6 31/69/6 45/71/6
f 44/78/6 50/79/6 43/80/6
f 47/81/4 44/82/4 64/83/4
f 48/84/1 42/85/1 41/86/1
f 50/87/2 41/88/2 63/83/2
f 40/108/6 51/109/6 39/110/6
f 40/108/6 57/111/6 51/109/6
f 52/112/6 57/111/6 58/113/6
f 37/114/6 58/113/6 38/115/6
f 52/112/6 58/113/6 37/114/6
f 10/7/2 12/10/2 11/8/2
f 12/10/3 16/12/3 15/11/3
f 16/12/4 14/14/4 13/13/4
f 14/14/5 10/127/5 9/15/5
f 18/16/2 20/19/2 19/17/2
f 20/19/3 24/21/3 23/20/3
f 24/21/4 22/23/4 21/22/4
f 22/23/5 18/128/5 17/24/5
f 46/67/6 45/71/6 31/69/6
f 44/78/6 49/133/6 50/79/6
f 64/83/4 42/88/4 47/81/4
f 47/81/4 49/134/4 44/82/4
f 48/84/1 47/133/1 42/85/1
f 63/83/2 43/82/2 50/87/2
f 50/87/2 48/80/2 41/88/2
f 52/112/6 51/109/6 57/111/6
