# Blender 5.1.1
# www.blender.org
mtllib CeilingLightLongOpen02.mtl
o CeilingLightLongOpen02
v 0.275700 -0.027000 0.001800
v 0.275700 -0.036334 0.005666
v 0.275700 -0.040200 0.015000
v 0.275700 -0.036334 0.024334
v 0.275700 -0.027000 0.028200
v 0.282300 -0.036334 0.005666
v 0.282300 -0.027000 0.001800
v 0.282300 -0.040200 0.015000
v 0.282300 -0.036334 0.024334
v 0.282300 -0.027000 0.028200
v -0.282300 -0.012000 0.028200
v -0.282300 -0.012000 0.001800
v -0.275700 -0.027000 0.001800
v -0.275700 -0.036334 0.005666
v -0.275700 -0.040200 0.015000
v -0.275700 -0.036334 0.024334
v -0.275700 -0.027000 0.028200
v -0.275700 -0.012000 0.028200
v -0.275700 -0.012000 0.001800
v 0.282300 -0.012000 0.028200
v -0.282300 -0.027000 0.001800
v -0.282300 -0.036334 0.005666
v -0.282300 -0.040200 0.015000
v -0.282300 -0.036334 0.024334
v -0.282300 -0.027000 0.028200
v 0.282300 -0.012000 0.001800
v 0.275700 -0.012000 0.028200
v 0.275700 -0.012000 0.001800
v 0.275700 -0.027000 -0.001800
v 0.275700 -0.036334 -0.005666
v 0.275700 -0.040200 -0.015000
v 0.275700 -0.036334 -0.024334
v 0.275700 -0.027000 -0.028200
v 0.282300 -0.036334 -0.005666
v 0.282300 -0.027000 -0.001800
v 0.282300 -0.040200 -0.015000
v 0.282300 -0.036334 -0.024334
v 0.282300 -0.027000 -0.028200
v -0.282300 -0.012000 -0.028200
v -0.282300 -0.012000 -0.001800
v -0.275700 -0.027000 -0.001800
v -0.275700 -0.036334 -0.005666
v -0.275700 -0.040200 -0.015000
v -0.275700 -0.036334 -0.024334
v -0.275700 -0.027000 -0.028200
v -0.275700 -0.012000 -0.028200
v -0.275700 -0.012000 -0.001800
v 0.282300 -0.012000 -0.028200
v -0.282300 -0.027000 -0.001800
v -0.282300 -0.036334 -0.005666
v -0.282300 -0.040200 -0.015000
v -0.282300 -0.036334 -0.024334
v -0.282300 -0.027000 -0.028200
v 0.282300 -0.012000 -0.001800
v 0.275700 -0.012000 -0.028200
v 0.275700 -0.012000 -0.001800
v -0.288000 -0.012000 0.032400
v 0.288000 -0.012000 0.032400
v -0.288000 -0.012000 -0.032400
v 0.288000 -0.012000 -0.032400
v -0.288000 0.000000 0.032400
v 0.288000 0.000000 0.032400
v -0.288000 -0.000000 -0.032400
v 0.288000 -0.000000 -0.032400
v -0.282300 -0.027000 0.015000
v -0.282300 -0.027000 -0.015000
v 0.282300 -0.027000 0.015000
v 0.282300 -0.027000 -0.015000
v -0.276000 -0.027000 0.004200
v 0.276000 -0.027000 0.004200
v -0.276000 -0.034637 0.007363
v 0.276000 -0.034637 0.007363
v -0.276000 -0.037800 0.015000
v 0.276000 -0.037800 0.015000
v -0.276000 -0.034637 0.022637
v 0.276000 -0.034637 0.022637
v -0.276000 -0.027000 0.025800
v 0.276000 -0.027000 0.025800
v -0.276000 -0.019363 0.022637
v 0.276000 -0.019363 0.022637
v -0.276000 -0.016200 0.015000
v 0.276000 -0.016200 0.015000
v -0.276000 -0.019363 0.007363
v 0.276000 -0.019363 0.007363
v -0.276000 -0.027000 -0.004200
v 0.276000 -0.027000 -0.004200
v -0.276000 -0.034637 -0.007363
v 0.276000 -0.034637 -0.007363
v -0.276000 -0.037800 -0.015000
v 0.276000 -0.037800 -0.015000
v -0.276000 -0.034637 -0.022637
v 0.276000 -0.034637 -0.022637
v -0.276000 -0.027000 -0.025800
v 0.276000 -0.027000 -0.025800
v -0.276000 -0.019363 -0.022637
v 0.276000 -0.019363 -0.022637
v -0.276000 -0.016200 -0.015000
v 0.276000 -0.016200 -0.015000
v -0.276000 -0.019363 -0.007363
v 0.276000 -0.019363 -0.007363
vn 1.0000 -0.0000 -0.0000
vn -0.0000 -0.0000 -1.0000
vn -0.0000 -0.9239 -0.3827
vn -1.0000 -0.0000 -0.0000
vn -0.0000 -0.9239 0.3827
vn -0.0000 -0.3827 -0.9239
vn -0.0000 -0.3827 0.9239
vn -0.0000 -0.0000 1.0000
vn -0.0000 -1.0000 -0.0000
vn -0.0000 -0.3826 -0.9239
vn -0.0000 -0.9239 -0.3826
vn -0.0000 -0.9239 0.3826
vn -0.0000 -0.3826 0.9239
vn -0.0000 0.3826 0.9239
vn -0.0000 0.9239 0.3826
vn -0.0000 0.9239 -0.3826
vn -0.0000 0.3826 -0.9239
vt 0.062500 0.687500
vt 0.187500 0.687500
vt 0.187500 0.750000
vt 0.937500 0.687500
vt 0.875000 0.750000
vt 0.937500 0.750000
vt 0.312500 0.750000
vt 0.375000 0.687500
vt 0.375000 0.750000
vt 0.750000 0.687500
vt 0.812500 0.750000
vt 0.750000 0.750000
vt 0.312500 0.662109
vt 0.250000 0.750000
vt 0.375000 0.812500
vt 0.250000 0.812500
vt 0.687500 0.750000
vt 0.687500 0.687500
vt 0.875000 0.687500
vt 0.125000 0.750000
vt 0.062500 0.750000
vt 0.625000 0.750000
vt 0.625000 0.687500
vt 0.062500 0.812500
vt 0.187500 0.812500
vt 0.937500 0.562500
vt 0.875000 0.625000
vt 0.937500 0.625000
vt 0.687500 0.625000
vt 0.750000 0.562500
vt 0.750000 0.625000
vt 0.812500 0.625000
vt 0.875000 0.562500
vt 0.812500 0.562500
vt 0.562500 0.750000
vt 0.562500 0.687500
vt 0.625000 0.562500
vt 0.562500 0.625000
vt 0.562500 0.562500
vt 0.625000 0.625000
vt 0.687500 0.562500
vt 0.125000 0.662109
vt 0.250000 0.687500
vt 0.812500 0.687500
vt 0.000000 1.000000
vt 1.000000 0.812500
vt 0.000000 0.812500
vt 0.000000 0.937500
vt 1.000000 1.000000
vt 1.000000 0.937500
vt 0.000000 0.875000
vt 0.500000 0.562500
vt 0.312500 0.625000
vt 0.312500 0.562500
vt 0.250000 0.625000
vt 0.062500 0.562500
vt 0.062500 0.625000
vt 1.000000 0.250000
vt 0.000000 0.312500
vt 0.000000 0.250000
vt 1.000000 0.312500
vt 0.000000 0.375000
vt 1.000000 0.437500
vt 0.000000 0.437500
vt 0.000000 0.500000
vt 1.000000 0.375000
vt 1.000000 0.875000
vt 0.500000 0.625000
vt 0.250000 0.562500
vt 1.000000 0.500000
s 0
usemtl 32x32grid
f 16/1/1 14/2/1 13/3/1
f 1/4/2 26/5/2 7/6/2
f 67/7/1 6/8/1 7/9/1
f 3/10/3 6/11/3 8/12/3
f 3/13/4 5/14/4 1/9/4
f 67/7/1 26/15/1 20/16/1
f 3/10/5 9/17/5 4/18/5
f 2/19/6 7/11/6 6/5/6
f 65/20/4 24/1/4 25/21/4
f 5/14/4 28/15/4 1/9/4
f 4/18/7 10/22/7 5/23/7
f 18/24/1 13/3/1 19/25/1
f 21/26/2 19/27/2 13/28/2
f 21/3/4 65/20/4 11/24/4
f 16/29/5 23/30/5 15/31/5
f 13/32/6 22/33/6 21/34/6
f 5/23/8 20/35/8 27/36/8
f 25/37/8 18/38/8 11/39/8
f 17/40/7 24/41/7 16/29/7
f 14/32/3 23/30/3 22/34/3
f 41/21/1 43/42/1 44/2/1
f 54/35/8 29/23/8 35/22/8
f 34/43/1 68/7/1 35/14/1
f 31/10/5 34/17/5 30/18/5
f 29/14/4 32/8/4 31/13/4
f 48/15/1 35/14/1 68/7/1
f 37/11/3 31/10/3 32/44/3
f 30/18/7 35/22/7 29/23/7
f 52/2/4 66/20/4 53/3/4
f 56/16/4 33/9/4 29/14/4
f 38/11/6 32/19/6 33/44/6
f 41/21/1 46/25/1 47/24/1
f 47/38/8 49/37/8 41/40/8
f 39/25/4 66/20/4 49/21/4
f 51/30/3 44/32/3 43/31/3
f 41/40/7 50/41/7 42/29/7
f 33/4/2 48/5/2 38/6/2
f 53/26/2 46/27/2 45/28/2
f 52/33/6 45/32/6 44/27/6
f 42/29/5 51/30/5 43/31/5
f 59/45/9 58/46/9 57/47/9
f 59/48/2 64/49/2 60/50/2
f 58/46/8 61/51/8 57/47/8
f 60/52/1 62/53/1 58/54/1
f 57/55/4 63/56/4 59/57/4
f 65/20/4 22/2/4 23/42/4
f 66/20/4 50/1/4 49/21/4
f 67/7/1 9/43/1 8/13/1
f 68/7/1 37/8/1 38/9/1
f 13/3/1 17/21/1 16/1/1
f 16/1/1 15/42/1 14/2/1
f 1/4/2 28/19/2 26/5/2
f 67/7/1 8/13/1 6/8/1
f 3/10/3 2/44/3 6/11/3
f 1/9/4 2/8/4 3/13/4
f 3/13/4 4/43/4 5/14/4
f 20/16/1 10/14/1 67/7/1
f 67/7/1 7/9/1 26/15/1
f 3/10/5 8/12/5 9/17/5
f 2/19/6 1/44/6 7/11/6
f 65/20/4 23/42/4 24/1/4
f 5/14/4 27/16/4 28/15/4
f 4/18/7 9/17/7 10/22/7
f 18/24/1 17/21/1 13/3/1
f 21/26/2 12/33/2 19/27/2
f 11/24/4 12/25/4 21/3/4
f 65/20/4 25/21/4 11/24/4
f 16/29/5 24/41/5 23/30/5
f 13/32/6 14/27/6 22/33/6
f 5/23/8 10/22/8 20/35/8
f 25/37/8 17/40/8 18/38/8
f 17/40/7 25/37/7 24/41/7
f 14/32/3 15/31/3 23/30/3
f 44/2/1 45/3/1 41/21/1
f 41/21/1 42/1/1 43/42/1
f 54/35/8 56/36/8 29/23/8
f 34/43/1 36/13/1 68/7/1
f 31/10/5 36/12/5 34/17/5
f 31/13/4 30/43/4 29/14/4
f 29/14/4 33/9/4 32/8/4
f 68/7/1 38/9/1 48/15/1
f 48/15/1 54/16/1 35/14/1
f 37/11/3 36/12/3 31/10/3
f 30/18/7 34/17/7 35/22/7
f 52/2/4 51/42/4 66/20/4
f 56/16/4 55/15/4 33/9/4
f 38/11/6 37/5/6 32/19/6
f 41/21/1 45/3/1 46/25/1
f 47/38/8 40/39/8 49/37/8
f 49/21/4 40/24/4 39/25/4
f 39/25/4 53/3/4 66/20/4
f 51/30/3 52/34/3 44/32/3
f 41/40/7 49/37/7 50/41/7
f 33/4/2 55/19/2 48/5/2
f 53/26/2 39/33/2 46/27/2
f 52/33/6 53/34/6 45/32/6
f 42/29/5 50/41/5 51/30/5
f 59/45/9 60/49/9 58/46/9
f 59/48/2 63/45/2 64/49/2
f 58/46/8 62/67/8 61/51/8
f 60/52/1 64/68/1 62/53/1
f 57/55/4 61/69/4 63/56/4
f 65/20/4 21/3/4 22/2/4
f 66/20/4 51/42/4 50/1/4
f 67/7/1 10/14/1 9/43/1
f 68/7/1 36/13/1 37/8/1
usemtl 32x32grid
f 70/58/10 71/59/10 69/60/10
f 72/61/11 73/62/11 71/59/11
f 73/62/12 76/63/12 75/64/12
f 76/63/13 77/65/13 75/64/13
f 78/58/14 79/59/14 77/60/14
f 79/59/15 82/66/15 81/62/15
f 82/66/16 83/64/16 81/62/16
f 84/63/17 69/65/17 83/64/17
f 87/65/13 86/63/13 85/64/13
f 89/64/12 88/66/12 87/62/12
f 91/62/11 90/61/11 89/59/11
f 93/59/10 92/58/10 91/60/10
f 95/65/17 94/63/17 93/64/17
f 95/62/16 98/63/16 96/66/16
f 99/62/15 98/61/15 97/59/15
f 85/59/14 100/58/14 99/60/14
f 70/58/10 72/61/10 71/59/10
f 72/61/11 74/66/11 73/62/11
f 73/62/12 74/66/12 76/63/12
f 76/63/13 78/70/13 77/65/13
f 78/58/14 80/61/14 79/59/14
f 79/59/15 80/61/15 82/66/15
f 82/66/16 84/63/16 83/64/16
f 84/63/17 70/70/17 69/65/17
f 87/65/13 88/70/13 86/63/13
f 89/64/12 90/63/12 88/66/12
f 91/62/11 92/66/11 90/61/11
f 93/59/10 94/61/10 92/58/10
f 95/65/17 96/70/17 94/63/17
f 95/62/16 97/64/16 98/63/16
f 99/62/15 100/66/15 98/61/15
f 85/59/14 86/61/14 100/58/14
