# Blender 5.0.1
# www.blender.org
mtllib Blanket02.mtl
o Blanket02
v -0.517406 0.035973 0.993133
v -0.512092 0.113681 0.983371
v -0.522126 0.045578 -0.330109
v -0.556219 0.114097 -0.327094
v 0.506366 0.031466 0.983667
v 0.535465 0.079925 0.961430
v 0.488969 0.042190 -0.311051
v 0.516035 0.132107 -0.332202
v -0.484555 0.035804 -0.045419
v -0.493635 0.037661 0.209589
v -0.487765 0.032562 0.461137
v -0.518260 0.031845 0.722264
v -0.537771 0.105329 0.703840
v -0.568406 0.097890 0.454098
v -0.546781 0.100130 0.210275
v -0.525374 0.113448 -0.043426
v 0.306569 0.113159 -0.327671
v 0.099486 0.108779 -0.323401
v -0.128842 0.102349 -0.342917
v -0.309642 0.112352 -0.342862
v -0.351868 0.217219 -0.317954
v -0.082064 0.212824 -0.344192
v 0.104258 0.225818 -0.312712
v 0.327205 0.227997 -0.362481
v 0.490221 0.052692 0.741512
v 0.484911 0.048851 0.474296
v 0.503860 0.044789 0.175817
v 0.510819 0.022414 -0.037157
v 0.555937 0.072447 -0.064595
v 0.531392 0.097628 0.175809
v 0.551253 0.072476 0.464163
v 0.533675 0.089576 0.700368
v -0.263921 0.109182 0.977493
v -0.122019 0.094289 0.988204
v 0.062027 0.106007 1.004808
v 0.353705 0.093408 0.986352
v 0.337008 0.208878 1.004554
v 0.105778 0.193274 0.968155
v -0.102492 0.205701 0.982244
v -0.314503 0.182641 0.989544
v 0.339193 0.203737 -0.088369
v 0.350167 0.180244 0.159608
v 0.380314 0.248259 0.479177
v 0.330640 0.210057 0.705110
v 0.135949 0.202028 -0.068129
v 0.148744 0.209080 0.190005
v 0.097123 0.234542 0.451110
v 0.129293 0.227388 0.729178
v -0.098882 0.204553 -0.095692
v -0.110969 0.194252 0.164832
v -0.117750 0.226618 0.483640
v -0.075510 0.217781 0.702128
v -0.306523 0.193690 -0.065004
v -0.340864 0.189768 0.212998
v -0.333053 0.230716 0.461753
v -0.331665 0.223278 0.687677
v -0.320984 0.110972 -0.088259
v -0.316448 0.097225 0.231317
v -0.321384 0.109054 0.440487
v -0.278382 0.094495 0.696847
v -0.097435 0.117976 -0.074491
v -0.100159 0.112717 0.194592
v -0.114879 0.110973 0.436912
v -0.097622 0.105777 0.685528
v 0.130417 0.098480 -0.054567
v 0.092487 0.108935 0.177935
v 0.106665 0.097606 0.473330
v 0.100942 0.108746 0.752643
v 0.326215 0.100082 -0.075876
v 0.308534 0.093442 0.205409
v 0.351018 0.108796 0.472214
v 0.288215 0.112078 0.724881
v -0.546288 0.085829 0.977146
v -0.552593 0.078000 -0.366733
v 0.524530 0.090982 -0.367962
v 0.498472 0.068267 0.976296
v 0.320606 0.141565 0.970800
v 0.117913 0.125501 1.006206
v -0.125720 0.139390 0.998275
v -0.314685 0.142262 0.993793
v 0.540634 0.044126 -0.096984
v 0.529882 0.074127 0.189854
v 0.532728 0.053675 0.485123
v 0.500836 0.081271 0.703074
v -0.337625 0.156872 -0.380311
v -0.097052 0.163966 -0.381288
v 0.111318 0.156751 -0.363679
v 0.331516 0.155096 -0.377747
v -0.541360 0.064160 0.721419
v -0.531776 0.073940 0.462404
v -0.550295 0.072658 0.200511
v -0.513541 0.082053 -0.072665
vn -0.9618 -0.2405 0.1310
vn 0.2561 0.6639 -0.7026
vn 0.2845 -0.9577 -0.0431
vn -0.0244 -0.1894 0.9816
vn -0.2822 -0.9593 0.0022
vn -0.3301 0.9329 0.1443
vn 0.5106 0.8594 0.0283
vn 0.0860 0.9963 0.0021
vn -0.0642 0.9888 0.1348
vn 0.0189 0.9988 0.0449
vn 0.5054 0.8552 0.1153
vn 0.4181 0.9069 -0.0523
vn 0.7174 0.6966 0.0114
vn 0.7170 0.6970 0.0029
vn 0.0099 0.9961 0.0877
vn 0.0010 0.9955 0.0943
vn 0.1062 0.9705 -0.2166
vn -0.0629 0.9862 0.1529
vn -0.0007 0.9953 0.0969
vn -0.0546 0.9982 -0.0246
vn -0.0464 0.9933 -0.1060
vn -0.0510 0.9982 0.0316
vn 0.0196 0.9992 0.0346
vn -0.0467 0.9982 0.0373
vn -0.0407 0.9940 -0.1018
vn 0.0194 0.9991 0.0367
vn -0.3279 0.9334 0.1456
vn -0.3467 0.9375 -0.0296
vn -0.4844 0.8656 -0.1273
vn -0.4946 0.8686 0.0316
vn 0.2782 -0.9604 0.0138
vn -0.1085 -0.9924 0.0575
vn 0.0270 -0.9990 -0.0357
vn -0.0443 -0.9989 -0.0177
vn 0.3979 -0.9136 -0.0839
vn 0.3166 -0.9484 0.0182
vn 0.3215 -0.9465 -0.0267
vn 0.2553 -0.9665 0.0272
vn -0.0552 -0.9984 -0.0079
vn 0.0640 -0.9970 -0.0438
vn 0.0103 -0.9983 0.0567
vn 0.0083 -0.9983 -0.0581
vn 0.0234 -0.9982 0.0554
vn -0.0213 -0.9996 -0.0198
vn -0.0204 -0.9998 -0.0084
vn -0.0575 -0.9982 -0.0169
vn 0.0203 -0.9990 -0.0406
vn -0.0756 -0.9966 0.0325
vn -0.0671 -0.9971 -0.0350
vn 0.0238 -0.9989 0.0403
vn -0.3609 -0.9324 -0.0203
vn -0.2470 -0.9683 -0.0384
vn -0.4073 -0.9058 0.1170
vn -0.2773 -0.9591 -0.0565
vn -0.1932 -0.4018 0.8951
vn 0.1101 0.5015 0.8581
vn -0.0179 0.2408 0.9704
vn -0.0220 0.1047 0.9943
vn 0.9755 0.2190 -0.0201
vn 0.8304 -0.5501 0.0887
vn 0.6785 -0.7324 -0.0573
vn 0.2543 -0.9541 0.1580
vn -0.2957 0.6927 -0.6578
vn -0.0239 0.7157 -0.6980
vn 0.0884 0.5850 -0.8062
vn -0.0609 0.2011 -0.9777
vn -0.6210 0.7799 -0.0781
vn -0.9968 0.0723 -0.0342
vn -0.9923 0.1022 0.0697
vn -0.9623 -0.2346 -0.1375
vn -0.5240 -0.8516 -0.0125
vn -0.6850 -0.7286 0.0012
vn -0.6839 -0.7249 -0.0819
vn -0.8667 -0.4988 0.0103
vn -0.0022 -0.6427 -0.7661
vn 0.0862 -0.5583 -0.8251
vn -0.0289 -0.5176 -0.8551
vn 0.1363 -0.5862 -0.7987
vn 0.9314 -0.3638 -0.0133
vn 0.7336 -0.6773 0.0558
vn 0.7215 -0.6857 0.0956
vn 0.4470 -0.8889 -0.0998
vn -0.0968 -0.2244 0.9697
vn -0.0735 -0.2231 0.9720
vn 0.0522 -0.2194 0.9742
vn 0.1051 0.2169 0.9705
vn 0.1350 -0.2635 0.9552
vn 0.9786 0.2003 -0.0477
vn -0.2083 -0.6963 -0.6869
vn -0.8682 -0.4865 0.0979
vn -0.8983 -0.4286 0.0967
vn 0.2590 0.2126 -0.9422
vn 0.2421 -0.9695 -0.0375
vn -0.0675 0.1047 0.9922
vn -0.3762 -0.9248 -0.0560
vn -0.4954 0.8684 0.0196
vn 0.5436 0.8393 -0.0083
vn -0.0875 0.9873 0.1323
vn 0.0628 0.9968 0.0490
vn -0.1024 0.9851 0.1384
vn 0.4443 0.8939 0.0597
vn 0.5125 0.8567 0.0585
vn 0.4207 0.8784 -0.2266
vn 0.4984 0.8301 0.2499
vn 0.0013 0.9953 0.0966
vn 0.1366 0.9900 -0.0338
vn -0.0378 0.9938 -0.1044
vn 0.0876 0.9960 0.0155
vn -0.0743 0.9968 0.0282
vn 0.0061 0.9992 0.0398
vn -0.0521 0.9934 -0.1020
vn -0.0298 0.9985 0.0462
vn -0.0374 0.9944 0.0992
vn -0.0170 0.9998 0.0120
vn 0.0354 0.9859 -0.1634
vn 0.0157 0.9993 0.0328
vn -0.4518 0.8907 0.0512
vn -0.3993 0.9167 0.0144
vn -0.3987 0.9167 -0.0269
vn -0.4921 0.8699 0.0344
vn 0.2562 -0.9659 0.0373
vn 0.0602 -0.9976 -0.0330
vn 0.0636 -0.9980 -0.0010
vn 0.0069 -0.9973 -0.0729
vn 0.3002 -0.9538 0.0082
vn 0.4074 -0.9121 -0.0450
vn 0.4232 -0.9040 0.0611
vn 0.4025 -0.9076 -0.1191
vn 0.0279 -0.9981 0.0548
vn 0.0325 -0.9993 -0.0192
vn 0.0710 -0.9975 -0.0029
vn 0.0607 -0.9978 -0.0251
vn -0.0827 -0.9962 -0.0286
vn -0.0879 -0.9957 0.0304
vn -0.0543 -0.9979 -0.0357
vn 0.0015 -0.9992 0.0399
vn 0.0025 -0.9986 -0.0521
vn 0.0057 -0.9997 -0.0232
vn 0.0459 -0.9977 0.0501
vn 0.0458 -0.9987 0.0244
vn -0.3811 -0.9238 -0.0363
vn -0.4012 -0.9123 0.0827
vn -0.2420 -0.9703 -0.0022
vn -0.4088 -0.9124 0.0212
vn 0.3181 0.1781 0.9312
vn -0.1129 -0.4232 0.8989
vn 0.0881 0.4996 0.8618
vn 0.0082 0.2323 0.9726
vn 0.9395 -0.2768 -0.2018
vn 0.9948 -0.0030 0.1019
vn 0.9909 -0.1102 -0.0779
vn 0.7635 -0.6375 0.1030
vn -0.2974 0.6512 -0.6982
vn -0.0663 0.6162 -0.7848
vn 0.0929 0.5973 -0.7966
vn -0.1841 0.5714 -0.7998
vn -0.9885 0.1234 0.0871
vn -0.5596 -0.8235 0.0932
vn -0.5376 -0.8414 -0.0554
vn -0.9854 0.1528 -0.0751
vn -0.8046 -0.5798 -0.1282
vn -0.5299 -0.8471 0.0416
vn -0.8118 -0.5816 -0.0520
vn -0.8135 -0.5806 0.0335
vn -0.0475 -0.7540 -0.6551
vn 0.0418 -0.6485 -0.7601
vn 0.0157 -0.6379 -0.7700
vn 0.1921 -0.6500 -0.7352
vn 0.0691 -0.9884 0.1353
vn 0.1158 -0.9908 -0.0697
vn 0.7086 -0.6985 0.0996
vn 0.6978 -0.6977 -0.1621
vn -0.0281 -0.4762 0.8789
vn -0.0315 0.0186 0.9993
vn 0.1293 0.3841 0.9142
vn 0.1303 0.3847 0.9138
vn -0.1267 0.2356 0.9636
vn 0.9334 -0.3588 -0.0090
vn -0.1911 -0.6830 -0.7050
vn -0.7844 -0.6100 0.1126
vt 0.624792 0.149003
vt 0.578726 0.005288
vt 0.624792 0.005288
vt 0.738072 0.117860
vt 0.692007 0.005288
vt 0.738072 0.005288
vt 0.681432 0.149003
vt 0.635367 0.005288
vt 0.681432 0.005288
vt 0.794712 0.117860
vt 0.748647 0.005288
vt 0.794712 0.005288
vt 0.005288 0.149003
vt 0.117860 0.005288
vt 0.117860 0.149003
vt 0.005288 0.005288
vt 0.455579 0.149003
vt 0.568151 0.005288
vt 0.568151 0.149003
vt 0.343006 0.149003
vt 0.455579 0.005288
vt 0.230433 0.149003
vt 0.343006 0.005288
vt 0.230433 0.005288
vt 0.568151 0.723862
vt 0.455579 0.580147
vt 0.568151 0.580147
vt 0.455579 0.436432
vt 0.568151 0.436432
vt 0.455579 0.292718
vt 0.568151 0.292718
vt 0.343006 0.723862
vt 0.455579 0.723862
vt 0.343006 0.580147
vt 0.343006 0.436432
vt 0.343006 0.292718
vt 0.230433 0.580147
vt 0.230433 0.436432
vt 0.117860 0.723862
vt 0.230433 0.723862
vt 0.117860 0.580147
vt 0.117860 0.436432
vt 0.230433 0.292718
vt 0.005288 0.580147
vt 0.005288 0.292718
vt 0.117860 0.292718
vt 0.005288 0.723862
vt 0.005288 0.436433
vt 0.794712 0.568151
vt 0.748647 0.455579
vt 0.794712 0.455579
vt 0.748647 0.343006
vt 0.794712 0.343006
vt 0.748647 0.230433
vt 0.794712 0.230433
vt 0.748647 0.117860
vt 0.635367 0.723862
vt 0.681432 0.580147
vt 0.681432 0.723862
vt 0.635367 0.580147
vt 0.681432 0.436432
vt 0.635367 0.292717
vt 0.681432 0.292718
vt 0.635367 0.149003
vt 0.692007 0.568151
vt 0.738072 0.455579
vt 0.738072 0.568151
vt 0.692007 0.455579
vt 0.738072 0.343006
vt 0.692007 0.343006
vt 0.738072 0.230433
vt 0.692007 0.117860
vt 0.578726 0.723862
vt 0.624792 0.580147
vt 0.624792 0.723862
vt 0.578726 0.580147
vt 0.624792 0.436432
vt 0.578726 0.292718
vt 0.624792 0.292718
vt 0.578726 0.149003
vt 0.578726 0.292717
vt 0.624792 0.292718
vt 0.578726 0.436432
vt 0.624792 0.436432
vt 0.624792 0.580147
vt 0.578726 0.723862
vt 0.624792 0.723862
vt 0.692007 0.230433
vt 0.738072 0.117860
vt 0.738072 0.230433
vt 0.692007 0.343006
vt 0.738072 0.343006
vt 0.692007 0.455579
vt 0.681432 0.292718
vt 0.681432 0.149003
vt 0.635367 0.436432
vt 0.681432 0.436432
vt 0.635367 0.580147
vt 0.748647 0.230433
vt 0.794712 0.117860
vt 0.748647 0.343006
vt 0.748647 0.568151
vt 0.794712 0.568151
vt 0.748647 0.117860
vt 0.794712 0.005288
vt 0.578726 0.149003
vt 0.624792 0.005288
vt 0.635367 0.436432
vt 0.578726 0.436432
vt 0.578726 0.580147
vt 0.692007 0.568151
vt 0.635367 0.292718
vt 0.578726 0.005288
s 0
usemtl 32x32grid
f 25/13/5 36/14/5 72/15/5
f 12/19/31 33/21/31 1/18/31
f 60/17/32 34/23/32 33/21/32
f 68/22/33 34/23/33 64/20/33
f 68/22/34 36/14/34 35/24/34
f 3/25/35 57/26/35 9/27/35
f 9/27/36 58/28/36 10/29/36
f 58/28/37 11/31/37 10/29/37
f 11/31/38 60/17/38 12/19/38
f 19/32/39 57/26/39 20/33/39
f 57/26/40 62/35/40 58/28/40
f 58/28/41 63/36/41 59/30/41
f 63/36/42 60/17/42 59/30/42
f 18/40/43 61/34/43 19/32/43
f 61/34/44 66/38/44 62/35/44
f 66/38/45 63/36/45 62/35/45
f 67/43/46 64/20/46 63/36/46
f 17/39/47 65/37/47 18/40/47
f 65/37/48 70/42/48 66/38/48
f 70/42/49 67/43/49 66/38/49
f 67/43/50 72/15/50 68/22/50
f 7/47/51 69/41/51 17/39/51
f 69/41/52 27/48/52 70/42/52
f 70/42/53 26/45/53 71/46/53
f 71/46/54 25/13/54 72/15/54
f 91/81/71 9/1/71 10/82/71
f 90/83/72 10/82/72 11/84/72
f 12/85/73 90/83/73 11/84/73
f 73/86/74 12/85/74 1/87/74
f 87/88/75 17/89/75 18/90/75
f 86/91/76 18/90/76 19/92/76
f 20/66/77 86/91/77 19/92/77
f 3/67/78 85/93/78 20/66/78
f 26/94/79 84/64/79 25/95/79
f 82/96/80 26/94/80 27/97/80
f 28/58/81 82/96/81 27/97/81
f 7/59/82 81/98/82 28/58/82
f 79/99/83 33/100/83 34/55/83
f 35/53/84 79/99/84 34/55/84
f 36/51/85 78/101/85 35/53/85
f 76/102/86 36/51/86 5/103/86
f 80/104/87 1/105/87 33/100/87
f 25/95/88 76/8/88 5/9/88
f 88/72/89 7/6/89 17/89/89
f 92/106/90 3/107/90 9/1/90
f 25/13/95 5/16/95 36/14/95
f 12/19/121 60/17/121 33/21/121
f 60/17/122 64/20/122 34/23/122
f 68/22/123 35/24/123 34/23/123
f 68/22/124 72/15/124 36/14/124
f 3/25/125 20/33/125 57/26/125
f 9/27/126 57/26/126 58/28/126
f 58/28/127 59/30/127 11/31/127
f 11/31/128 59/30/128 60/17/128
f 19/32/129 61/34/129 57/26/129
f 57/26/130 61/34/130 62/35/130
f 58/28/131 62/35/131 63/36/131
f 63/36/132 64/20/132 60/17/132
f 18/40/133 65/37/133 61/34/133
f 61/34/134 65/37/134 66/38/134
f 66/38/135 67/43/135 63/36/135
f 67/43/136 68/22/136 64/20/136
f 17/39/137 69/41/137 65/37/137
f 65/37/138 69/41/138 70/42/138
f 70/42/139 71/46/139 67/43/139
f 67/43/140 71/46/140 72/15/140
f 7/47/141 28/44/141 69/41/141
f 69/41/142 28/44/142 27/48/142
f 70/42/143 27/48/143 26/45/143
f 71/46/144 26/45/144 25/13/144
f 91/81/161 92/106/161 9/1/161
f 90/83/162 91/81/162 10/82/162
f 12/85/163 89/110/163 90/83/163
f 73/86/164 89/110/164 12/85/164
f 87/88/165 88/72/165 17/89/165
f 86/91/166 87/88/166 18/90/166
f 20/66/167 85/93/167 86/91/167
f 3/67/168 74/111/168 85/93/168
f 26/94/169 83/112/169 84/64/169
f 82/96/170 83/112/170 26/94/170
f 28/58/171 81/98/171 82/96/171
f 7/59/172 75/57/172 81/98/172
f 79/99/173 80/104/173 33/100/173
f 35/53/174 78/101/174 79/99/174
f 36/51/175 77/50/175 78/101/175
f 76/102/176 77/50/176 36/51/176
f 80/104/177 73/11/177 1/105/177
f 25/95/178 84/64/178 76/8/178
f 88/72/179 75/5/179 7/6/179
f 92/106/180 74/113/180 3/107/180
usemtl 32x32grid
f 92/1/1 4/2/1 74/3/1
f 88/4/2 8/5/2 75/6/2
f 84/7/3 6/8/3 76/9/3
f 80/10/4 2/11/4 73/12/4
f 56/15/6 2/16/6 40/14/6
f 44/17/7 6/18/7 32/19/7
f 48/20/8 37/21/8 44/17/8
f 52/22/9 38/23/9 48/20/9
f 56/15/10 39/24/10 52/22/10
f 8/25/11 41/26/11 29/27/11
f 29/27/12 42/28/12 30/29/12
f 30/29/13 43/30/13 31/31/13
f 43/30/14 32/19/14 31/31/14
f 23/32/15 41/26/15 24/33/15
f 45/34/16 42/28/16 41/26/16
f 46/35/17 43/30/17 42/28/17
f 47/36/18 44/17/18 43/30/18
f 23/32/19 49/37/19 45/34/19
f 45/34/20 50/38/20 46/35/20
f 50/38/21 47/36/21 46/35/21
f 47/36/22 52/22/22 48/20/22
f 21/39/23 49/37/23 22/40/23
f 53/41/24 50/38/24 49/37/24
f 54/42/25 51/43/25 50/38/25
f 51/43/26 56/15/26 52/22/26
f 21/39/27 16/44/27 53/41/27
f 16/44/28 54/42/28 53/41/28
f 54/42/29 14/45/29 55/46/29
f 55/46/30 13/13/30 56/15/30
f 76/49/55 37/50/55 77/51/55
f 77/51/56 38/52/56 78/53/56
f 78/53/57 39/54/57 79/55/57
f 79/55/58 40/56/58 80/10/58
f 8/57/59 81/58/59 75/59/59
f 29/60/60 82/61/60 81/58/60
f 82/61/61 31/62/61 83/63/61
f 83/63/62 32/64/62 84/7/62
f 4/65/63 85/66/63 74/67/63
f 21/68/64 86/69/64 85/66/64
f 22/70/65 87/71/65 86/69/65
f 87/71/66 24/72/66 88/4/66
f 2/73/67 89/74/67 73/75/67
f 13/76/68 90/77/68 89/74/68
f 90/77/69 15/78/69 91/79/69
f 91/79/70 16/80/70 92/1/70
f 92/1/91 16/80/91 4/2/91
f 88/4/92 24/72/92 8/5/92
f 84/7/93 32/64/93 6/8/93
f 80/10/94 40/56/94 2/11/94
f 56/15/96 13/13/96 2/16/96
f 44/17/97 37/21/97 6/18/97
f 48/20/98 38/23/98 37/21/98
f 52/22/99 39/24/99 38/23/99
f 56/15/100 40/14/100 39/24/100
f 8/25/101 24/33/101 41/26/101
f 29/27/102 41/26/102 42/28/102
f 30/29/103 42/28/103 43/30/103
f 43/30/104 44/17/104 32/19/104
f 23/32/105 45/34/105 41/26/105
f 45/34/106 46/35/106 42/28/106
f 46/35/107 47/36/107 43/30/107
f 47/36/108 48/20/108 44/17/108
f 23/32/109 22/40/109 49/37/109
f 45/34/110 49/37/110 50/38/110
f 50/38/111 51/43/111 47/36/111
f 47/36/112 51/43/112 52/22/112
f 21/39/113 53/41/113 49/37/113
f 53/41/114 54/42/114 50/38/114
f 54/42/115 55/46/115 51/43/115
f 51/43/116 55/46/116 56/15/116
f 21/39/117 4/47/117 16/44/117
f 16/44/118 15/48/118 54/42/118
f 54/42/119 15/48/119 14/45/119
f 55/46/120 14/45/120 13/13/120
f 76/49/145 6/102/145 37/50/145
f 77/51/146 37/50/146 38/52/146
f 78/53/147 38/52/147 39/54/147
f 79/55/148 39/54/148 40/56/148
f 8/57/149 29/60/149 81/58/149
f 29/60/150 30/108/150 82/61/150
f 82/61/151 30/108/151 31/62/151
f 83/63/152 31/62/152 32/64/152
f 4/65/153 21/68/153 85/66/153
f 21/68/154 22/70/154 86/69/154
f 22/70/155 23/88/155 87/71/155
f 87/71/156 23/88/156 24/72/156
f 2/73/157 13/76/157 89/74/157
f 13/76/158 14/109/158 90/77/158
f 90/77/159 14/109/159 15/78/159
f 91/79/160 15/78/160 16/80/160
