# Blender 5.0.1
# www.blender.org
mtllib HangingCoat.mtl
o HangingCoat
v 0.000426 0.058818 0.009345
v 0.002015 0.006422 -0.070539
v 0.001447 0.041025 -0.031644
v 0.001531 0.047105 -0.036335
v 0.004988 -0.062740 -0.091515
v 0.005011 -0.172239 -0.109750
v 0.006296 -0.277847 -0.112782
v 0.173575 -0.435729 -0.018432
v -0.167082 -0.437753 -0.019785
v -0.031914 -0.445094 0.018266
v 0.055087 -0.618785 0.012344
v -0.039165 -0.618398 0.029070
v -0.192604 -0.636679 -0.013467
v 0.049443 -0.445510 0.014321
v 0.046609 -0.288730 0.011824
v 0.044811 -0.154855 0.011477
v 0.027711 -0.016524 0.014301
v 0.045822 -0.034256 0.025594
v 0.046758 0.000206 0.022411
v 0.088428 0.045382 0.019029
v 0.192821 -0.630459 -0.027371
v 0.000195 -0.437877 -0.118323
v -0.031293 -0.287102 0.011888
v -0.033229 -0.153420 0.011777
v -0.020127 -0.015995 0.014610
v -0.038165 -0.033279 0.026107
v -0.041206 0.000951 0.022999
v -0.082237 0.045760 0.016959
v 0.061244 0.013242 0.009577
v -0.055807 0.025867 0.002033
v 0.074911 0.011015 0.011525
v -0.072168 0.025047 0.005336
v -0.038910 -0.012205 -0.057165
v 0.049330 -0.024207 -0.053229
v -0.071077 0.012120 -0.025073
v 0.075764 -0.002296 -0.014816
v 0.118609 -0.013812 -0.018183
v -0.116036 -0.003550 -0.024608
v -0.142496 -0.051657 -0.022775
v 0.148829 -0.062866 -0.020220
v 0.120736 -0.034909 0.022422
v 0.121922 -0.041727 -0.054136
v -0.113613 -0.034556 -0.068147
v -0.122064 -0.043287 0.018567
v 0.049293 -0.062081 -0.084236
v -0.039705 -0.059582 -0.084364
v -0.150325 -0.150709 -0.018302
v -0.151666 -0.283742 -0.030889
v 0.152434 -0.165866 -0.014100
v 0.156149 -0.282018 -0.017792
v -0.127508 -0.147146 0.025265
v -0.130533 -0.280168 0.022061
v -0.109171 -0.288630 -0.063927
v -0.108479 -0.152691 -0.063659
v 0.128547 -0.280133 -0.060799
v 0.130061 -0.161734 -0.055252
v 0.121618 -0.158205 0.022873
v 0.133266 -0.279847 0.012072
v -0.030009 -0.174832 -0.096975
v 0.048439 -0.174529 -0.099525
v 0.080468 -0.179607 -0.095326
v -0.065546 -0.177243 -0.104192
v -0.061662 -0.068041 -0.081332
v 0.073994 -0.064311 -0.082388
v 0.101807 -0.166937 -0.058645
v -0.086633 -0.166359 -0.071102
v 0.082518 -0.277321 -0.092828
v -0.063563 -0.274731 -0.101998
v -0.030245 -0.272820 -0.094698
v 0.048072 -0.272658 -0.097079
v -0.087541 -0.272149 -0.065561
v 0.102253 -0.272373 -0.055174
v -0.087660 -0.143393 0.015151
v -0.089403 -0.276449 0.004852
v 0.090988 -0.160281 0.012821
v 0.102060 -0.281928 -0.005303
v 0.028809 -0.016554 -0.003126
v -0.020950 -0.015988 -0.002802
v 0.046546 -0.150238 -0.004567
v -0.034753 -0.148729 -0.004245
v -0.070541 -0.046889 0.010370
v 0.070168 -0.041872 0.010269
v 0.001063 0.052674 0.012416
v 0.037556 0.006464 0.021345
v 0.068122 0.041766 0.018035
v -0.031759 0.007035 0.021815
v -0.063269 0.043158 0.017008
v 0.002066 0.025196 -0.016037
v 0.053843 -0.286165 -0.003132
v -0.036074 -0.284256 -0.003050
v -0.151185 -0.428505 0.025221
v -0.130112 -0.452586 -0.065901
v 0.141432 -0.434885 -0.061312
v 0.150494 -0.447634 0.014827
v 0.090929 -0.433360 -0.094571
v -0.069410 -0.431932 -0.090007
v -0.034469 -0.429720 -0.094478
v 0.052248 -0.428057 -0.097086
v -0.097732 -0.427663 -0.064359
v 0.111757 -0.430123 -0.059575
v -0.101325 -0.440430 0.011024
v 0.116162 -0.462302 0.003009
v 0.063183 -0.439615 -0.000653
v -0.046388 -0.437037 -0.005719
v -0.011273 -0.617904 -0.126910
v -0.185946 -0.617379 0.028512
v -0.154546 -0.647076 -0.066132
v 0.153749 -0.635065 -0.061383
v 0.171196 -0.614289 0.016386
v 0.105815 -0.608448 -0.098502
v -0.086250 -0.609021 -0.078707
v -0.052099 -0.606181 -0.101779
v 0.058792 -0.602415 -0.099227
v -0.122332 -0.602975 -0.062121
v 0.129937 -0.606735 -0.063932
v -0.113666 -0.651494 0.017043
v 0.120786 -0.648302 0.010118
v 0.074090 -0.612267 0.000835
v -0.063762 -0.609665 -0.008964
v 0.115147 -0.738522 -0.000836
v -0.099536 -0.738533 0.008444
v -0.012832 -0.739861 -0.109897
v -0.151851 -0.741766 -0.049431
v 0.151322 -0.730386 -0.047039
v 0.099435 -0.730637 -0.084915
v -0.084230 -0.731679 -0.074704
v -0.050972 -0.729001 -0.088917
v 0.056642 -0.725160 -0.085445
v -0.121822 -0.726351 -0.053255
v 0.122991 -0.728835 -0.056527
v -0.121653 -0.745371 0.004641
v 0.127737 -0.741932 -0.002840
v 0.100634 -0.732898 -0.013747
v -0.091982 -0.731427 -0.022680
v 0.122058 -0.729109 -0.105799
v 0.067152 -0.722898 -0.106535
v -0.114180 -0.732012 -0.093053
v -0.065082 -0.727612 -0.109044
v -0.016170 -0.739864 -0.135805
v 0.150202 -0.727156 -0.067675
v -0.146496 -0.724488 -0.065397
v 0.190339 -0.728955 -0.054239
v -0.193045 -0.742683 -0.059069
v -0.050904 -0.740976 0.039039
v -0.149074 -0.748056 0.025690
v 0.065403 -0.740851 0.020294
v 0.155314 -0.743775 0.017844
v 0.083798 -0.734091 0.002430
v -0.082023 -0.731420 -0.003263
v 0.073935 -0.647196 -0.079402
v 0.043933 -0.642961 -0.079819
v -0.054361 -0.647494 -0.067019
v -0.030931 -0.645548 -0.076170
v -0.004459 -0.653840 -0.092003
v 0.090424 -0.647636 -0.043690
v -0.115746 -0.645494 -0.034541
v 0.135277 -0.648487 -0.041855
v -0.137092 -0.656190 -0.031875
v -0.079892 -0.654760 0.006443
v -0.117321 -0.658722 0.001186
v 0.104949 -0.653130 -0.006320
v 0.122211 -0.655363 -0.006902
v 0.086303 -0.649093 -0.031130
v -0.064364 -0.648659 -0.036010
v -0.033944 -0.383658 -0.097252
v 0.052317 -0.384818 -0.099903
v -0.033944 -0.402784 -0.097252
v 0.052317 -0.403944 -0.099903
v 0.001383 -0.384818 -0.118019
v 0.001383 -0.403944 -0.118019
v 0.092123 -0.384818 -0.094625
v 0.092123 -0.403944 -0.094625
v -0.068501 -0.383658 -0.094679
v -0.068501 -0.402784 -0.094679
v -0.098109 -0.383658 -0.063410
v -0.098109 -0.402784 -0.063410
v 0.112404 -0.384818 -0.057503
v 0.112404 -0.403944 -0.057503
vn -0.3990 0.8858 -0.2368
vn 0.5335 0.8223 -0.1979
vn 0.4529 -0.3565 0.8172
vn -0.4727 0.0380 0.8804
vn 0.2514 -0.5934 -0.7646
vn -0.2926 -0.5815 -0.7591
vn 0.2018 -0.3712 -0.9064
vn -0.1719 -0.4149 -0.8935
vn 0.5886 0.6083 -0.5325
vn -0.4865 0.6492 -0.5847
vn -0.6904 -0.4092 0.5965
vn 0.1362 0.8505 -0.5081
vn 0.5505 -0.5160 0.6563
vn 0.0444 0.8543 -0.5178
vn 0.1843 0.7938 -0.5796
vn 0.1646 0.7864 -0.5954
vn -0.3603 0.4779 0.8011
vn 0.2655 0.8611 0.4335
vn -0.2762 0.7755 -0.5677
vn -0.1195 0.7299 -0.6730
vn 0.1698 0.5086 0.8441
vn -0.2478 0.7298 0.6371
vn 0.8348 0.5052 0.2188
vn 0.8008 0.5066 -0.3196
vn -0.8236 0.4393 -0.3587
vn -0.8268 0.4667 0.3141
vn -0.4017 0.2499 -0.8810
vn 0.1169 0.6291 -0.7685
vn 0.8374 0.0080 0.5465
vn 0.7998 0.0598 -0.5973
vn 0.8416 0.0440 -0.5382
vn 0.7940 0.0061 0.6079
vn -0.7315 0.0715 -0.6780
vn -0.9278 -0.0259 0.3721
vn -0.8999 0.0749 0.4296
vn -0.8323 -0.0571 -0.5514
vn 0.2342 0.1597 -0.9590
vn -0.3486 0.1539 -0.9245
vn 0.1143 0.6292 -0.7688
vn 0.1447 0.6385 -0.7559
vn -0.2985 0.4789 -0.8255
vn 0.0184 0.3908 -0.9203
vn 0.1824 0.1952 -0.9636
vn 0.1475 0.1185 -0.9819
vn 0.1161 0.0171 -0.9931
vn 0.5258 -0.0539 -0.8489
vn 0.8430 0.1065 -0.5272
vn -0.3504 -0.0508 -0.9352
vn -0.2657 -0.0328 -0.9635
vn -0.8115 0.1472 -0.5656
vn 0.1194 -0.0229 -0.9926
vn 0.2005 -0.0232 -0.9794
vn 0.3483 0.0311 -0.9369
vn -0.4412 0.0204 -0.8972
vn 0.8662 -0.0128 -0.4995
vn -0.8462 -0.0206 -0.5325
vn -0.1953 0.0484 -0.9796
vn -0.0771 0.0024 -0.9970
vn 0.2521 -0.0780 0.9645
vn -0.4705 -0.1718 0.8655
vn -0.2662 0.5426 0.7967
vn 0.0038 -0.0103 0.9999
vn 0.9884 -0.0917 -0.1209
vn -0.9830 -0.1186 -0.1405
vn 0.3543 0.4644 0.8117
vn 0.0890 -0.0093 0.9960
vn -0.0757 -0.0133 0.9970
vn 0.1606 0.0551 0.9855
vn 0.2456 0.0045 0.9694
vn -0.2339 0.0019 0.9723
vn -0.3096 -0.0340 0.9503
vn -0.0271 0.0168 0.9995
vn 0.0687 0.0372 0.9969
vn -0.0802 0.1810 0.9802
vn -0.0022 0.4468 0.8946
vn -0.0325 0.1212 0.9921
vn 0.0180 0.1497 0.9886
vn 0.4491 0.1203 0.8854
vn -0.4588 0.0941 0.8835
vn 0.8865 0.4608 -0.0417
vn -0.9111 0.4080 -0.0581
vn 0.1539 -0.7080 0.6892
vn 0.4947 0.5238 0.6934
vn -0.1728 -0.7115 0.6811
vn -0.4932 0.4942 0.7159
vn 0.7785 -0.2501 0.5757
vn -0.7621 -0.3129 0.5668
vn 0.0096 0.3011 0.9536
vn -0.1204 -0.0009 0.9927
vn -0.0288 0.0022 0.9996
vn -0.9909 -0.0545 -0.1229
vn 0.9531 0.0136 -0.3025
vn 0.0041 0.0088 1.0000
vn -0.4844 -0.0354 0.8742
vn -0.2050 0.0150 -0.9787
vn -0.1222 -0.0710 -0.9900
vn 0.0425 0.0066 -0.9991
vn 0.3748 0.0178 -0.9269
vn 0.7938 0.0875 0.6019
vn -0.0459 0.0133 0.9989
vn -0.4424 0.0106 -0.8968
vn -0.9232 0.1362 0.3593
vn -0.1010 0.0405 0.9941
vn -0.6135 0.0045 -0.7897
vn 0.1814 0.0594 0.9816
vn 0.3855 0.0067 0.9227
vn 0.8560 0.0519 -0.5143
vn -0.7319 -0.0241 -0.6810
vn 0.8408 0.0718 -0.5365
vn -0.8326 0.0503 -0.5515
vn 0.9475 -0.0585 -0.3144
vn 0.1229 0.0033 -0.9924
vn 0.1468 -0.0173 -0.9890
vn 0.3633 0.0213 -0.9314
vn -0.5598 0.0004 -0.8286
vn 0.1652 0.0185 0.9861
vn 0.9043 0.0701 0.4210
vn -0.3138 -0.0301 0.9490
vn 0.0669 0.0148 -0.9977
vn 0.7996 0.0494 -0.5984
vn -0.0992 0.0660 0.9929
vn -0.7655 0.0779 -0.6387
vn 0.0515 0.0394 0.9979
vn -0.9388 0.1779 0.2950
vn 0.8154 0.0822 -0.5730
vn -0.5163 -0.0070 -0.8564
vn -0.6620 0.0834 -0.7449
vn 0.8425 -0.0748 -0.5335
vn -0.0554 0.0189 -0.9983
vn -0.5501 0.0893 -0.8303
vn -0.0708 0.0041 0.9975
vn -0.2019 -0.9783 0.0472
vn 0.4428 -0.7475 0.4951
vn -0.3192 0.1810 -0.9302
vn -0.0708 0.0074 0.9975
vn -0.1260 -0.0225 -0.9918
vn -0.2011 0.0985 0.9746
vn 0.3207 0.0561 -0.9455
vn 0.0301 0.0914 0.9954
vn 0.8083 0.1433 -0.5711
vn -0.8351 0.3446 0.4287
vn -0.6728 -0.1046 -0.7324
vn -0.4993 0.1048 -0.8601
vn -0.4009 0.1043 -0.9102
vn 0.8225 0.3544 0.4448
vn 0.8145 -0.1484 -0.5608
vn 0.0234 0.0621 -0.9978
vn 0.1769 0.0603 -0.9824
vn 0.3982 -0.2225 0.8899
vn -0.1079 -0.9762 -0.1883
vn 0.0391 -0.9946 -0.0960
vn 0.2075 -0.9782 -0.0015
vn -0.2277 -0.9733 0.0295
vn 0.0634 -0.9980 0.0044
vn -0.0673 -0.9895 0.1278
vn 0.0076 -0.9879 -0.1550
vn 0.2735 -0.6972 -0.6627
vn 0.2552 -0.9433 0.2121
vn -0.0372 -0.9800 -0.1956
vn -0.1602 -0.9581 -0.2373
vn 0.1593 -0.9313 -0.3276
vn -0.0164 -0.9998 0.0088
vn 0.0420 -0.9955 -0.0849
vn 0.0898 -0.9743 -0.2066
vn -0.0630 -0.9963 -0.0578
vn -0.1720 -0.0571 -0.9834
vn -0.2957 -0.1669 0.9406
vn 0.6713 0.0326 -0.7404
vn 0.4424 -0.2383 0.8646
vn -0.9186 0.2584 -0.2989
vn -0.8697 -0.2921 0.3980
vn 0.0312 -0.1979 -0.9797
vn 0.4568 -0.2330 0.8585
vn 0.8544 -0.0633 -0.5158
vn -0.0435 -0.1730 0.9840
vn -0.9148 -0.1556 -0.3726
vn 0.2404 -0.2347 0.9419
vn -0.0240 -0.0720 0.9971
vn 0.1448 -0.0576 -0.9878
vn -0.1403 -0.9887 0.0526
vn -0.0139 -0.9927 -0.1198
vn -0.0327 -0.9783 -0.2047
vn -0.1301 -0.9895 -0.0632
vn 0.1185 -0.9880 -0.0987
vn -0.0676 -0.9347 -0.3491
vn 0.3963 -0.8665 -0.3034
vn -0.0082 -0.9930 -0.1179
vn 0.0012 -0.9920 -0.1260
vn 0.0552 -0.8436 0.5341
vn 0.0780 -0.9969 -0.0123
vn 0.0320 -0.9982 -0.0507
vn 0.3351 -0.0000 -0.9422
vn -0.5068 -0.0000 -0.8621
vn 0.1315 -0.0000 -0.9913
vn -0.0742 -0.0000 -0.9972
vn -0.7261 -0.0000 -0.6876
vn 0.8776 -0.0000 -0.4794
vn -0.1497 0.4275 -0.8915
vn 0.1323 0.1615 -0.9780
vn 0.3335 0.0777 0.9396
vn -0.6944 -0.5781 0.4286
vn -0.0596 -0.8388 -0.5412
vn -0.0726 -0.8227 -0.5638
vn 0.0779 -0.3412 -0.9368
vn -0.1603 -0.4128 -0.8966
vn 0.6206 0.6161 -0.4851
vn -0.5048 0.6533 -0.5642
vn -0.1028 0.4965 -0.8619
vn 0.4815 0.2733 -0.8327
vn 0.7731 0.0645 0.6310
vn 0.8787 0.0024 -0.4775
vn 0.8790 0.0111 -0.4767
vn 0.7698 0.0171 0.6381
vn -0.6134 0.0047 -0.7897
vn -0.8861 0.0090 0.4633
vn -0.8852 0.0906 0.4562
vn -0.7341 0.0274 -0.6785
vn 0.1588 0.1318 -0.9785
vn -0.1507 0.0950 -0.9840
vn -0.1713 0.0929 -0.9808
vn 0.0859 0.1336 -0.9873
vn 0.1260 -0.0252 -0.9917
vn 0.2149 -0.0176 -0.9765
vn 0.2278 -0.0251 -0.9734
vn -0.3412 -0.0210 -0.9397
vn 0.8853 0.0067 -0.4649
vn -0.8359 -0.0293 -0.5480
vn 0.1250 -0.0321 -0.9916
vn -0.3479 -0.0461 -0.9364
vn 0.3882 -0.0310 0.9211
vn -0.3029 -0.1130 0.9463
vn 0.0064 -0.0115 0.9999
vn 0.9936 -0.1028 -0.0470
vn -0.9895 -0.1306 -0.0621
vn -0.0023 0.4468 0.8946
vn 0.0394 0.3053 0.9514
vn -0.0736 0.1418 0.9872
vn 0.0251 0.1533 0.9879
vn 0.2355 -0.1798 0.9551
vn -0.2391 -0.1894 0.9523
vn 0.0474 -0.0777 0.9958
vn 0.3059 -0.1130 0.9453
vn -0.8993 -0.0132 -0.4372
vn 0.9952 -0.0106 -0.0977
vn 0.0011 0.0106 0.9999
vn -0.3321 0.0175 0.9431
vn -0.0587 -0.0016 -0.9983
vn 0.2144 -0.0071 -0.9767
vn -0.0731 -0.0029 -0.9973
vn 0.3508 0.0095 -0.9364
vn 0.8023 0.0921 0.5897
vn 0.0005 -0.0175 0.9998
vn -0.5580 0.0500 -0.8283
vn -0.9438 0.1168 0.3093
vn -0.1119 0.0455 0.9927
vn -0.7592 0.1047 -0.6423
vn 0.2928 0.0205 0.9560
vn 0.2700 -0.0171 0.9627
vn 0.8802 0.0661 -0.4700
vn -0.8943 -0.0616 -0.4431
vn 0.7976 0.0929 -0.5960
vn -0.6735 -0.0313 -0.7385
vn 0.8523 -0.0244 -0.5225
vn 0.0669 0.0147 -0.9977
vn 0.0642 -0.0218 -0.9977
vn 0.3735 0.0254 -0.9273
vn -0.1301 0.0540 -0.9900
vn 0.2666 -0.0323 0.9633
vn 0.7991 0.1048 0.5920
vn -0.1460 0.0342 0.9887
vn 0.0185 0.0240 -0.9995
vn 0.6467 0.0986 -0.7563
vn -0.1758 0.0383 0.9837
vn -0.7968 0.1008 -0.5957
vn 0.1657 -0.0059 0.9862
vn -0.9868 0.1297 0.0969
vn 0.8509 0.1003 -0.5157
vn -0.7256 -0.0518 -0.6862
vn -0.4201 -0.0180 -0.9073
vn 0.8304 -0.0692 -0.5529
vn 0.1152 0.0074 -0.9933
vn -0.5075 0.0733 -0.8586
vn -0.0465 -0.0141 0.9988
vn -0.3262 -0.8382 0.4371
vn 0.1945 -0.9767 -0.0912
vn -0.5627 0.1092 -0.8194
vn -0.0334 0.0518 0.9981
vn 0.1195 0.0030 -0.9928
vn -0.1433 0.1403 0.9797
vn 0.3507 0.0809 -0.9330
vn 0.0653 0.0703 0.9954
vn 0.7915 0.1516 -0.5921
vn -0.8178 0.3623 0.4472
vn -0.5044 -0.0515 -0.8619
vn -0.4623 0.0830 -0.8829
vn -0.6024 0.2261 -0.7655
vn 0.8190 0.3340 0.4666
vn 0.7856 -0.1245 -0.6061
vn 0.0205 0.0631 -0.9978
vn 0.3191 0.0524 -0.9463
vn 0.3706 -0.2266 0.9007
vn -0.1232 -0.9784 -0.1663
vn 0.0620 -0.9946 -0.0832
vn 0.2085 -0.9777 -0.0267
vn -0.2259 -0.9699 0.0914
vn 0.0712 -0.9975 0.0042
vn -0.1309 -0.9847 0.1149
vn -0.0023 -0.9880 -0.1545
vn 0.1780 -0.6970 -0.6946
vn 0.1022 -0.9655 -0.2395
vn -0.2236 -0.9510 0.2134
vn -0.1720 -0.8496 -0.4986
vn 0.2865 -0.9468 -0.1466
vn -0.0040 -0.9970 -0.0777
vn 0.0326 -0.9959 -0.0846
vn -0.0014 -0.9794 -0.2020
vn -0.0425 -0.0691 -0.9967
vn -0.2216 -0.1006 0.9699
vn 0.8003 0.0125 -0.5994
vn 0.4200 -0.2238 0.8795
vn -0.9582 0.2203 -0.1823
vn -0.7009 -0.3769 0.6055
vn 0.0443 -0.1732 -0.9839
vn 0.4482 -0.2377 0.8618
vn 0.8706 -0.0497 -0.4895
vn -0.3212 -0.1224 0.9391
vn -0.8709 -0.0784 -0.4852
vn 0.2359 -0.2359 0.9427
vn -0.0216 -0.0725 0.9971
vn 0.1837 -0.0483 -0.9818
vt 0.738189 0.560959
vt 0.787320 0.625846
vt 0.725008 0.633569
vt 0.749027 0.716128
vt 0.772234 0.733529
vt 0.759694 0.708851
vt 0.753797 0.539969
vt 0.731125 0.545403
vt 0.737163 0.706911
vt 0.713416 0.634720
vt 0.727967 0.573025
vt 0.744245 0.731236
vt 0.729009 0.761510
vt 0.713416 0.521979
vt 0.285533 0.530551
vt 0.248733 0.478918
vt 0.286661 0.488417
vt 0.318668 0.484234
vt 0.349231 0.529776
vt 0.351985 0.503969
vt 0.394956 0.544582
vt 0.214468 0.523798
vt 0.176338 0.534444
vt 0.213466 0.499072
vt 0.212177 0.459071
vt 0.875621 0.497261
vt 0.900368 0.461062
vt 0.938026 0.461570
vt 0.390796 0.491626
vt 0.882975 0.443951
vt 0.747582 0.457591
vt 0.770399 0.497194
vt 0.705291 0.459943
vt 0.357617 0.463957
vt 0.805060 0.450554
vt 0.765956 0.430297
vt 0.912426 0.428086
vt 0.737206 0.424360
vt 0.286057 0.448770
vt 0.255080 0.448088
vt 0.873055 0.371715
vt 0.950839 0.370531
vt 0.961202 0.278797
vt 0.912128 0.363746
vt 0.914707 0.275979
vt 0.881129 0.277790
vt 0.684655 0.370381
vt 0.721691 0.267940
vt 0.727644 0.362490
vt 0.767948 0.268793
vt 0.771654 0.365972
vt 0.254988 0.392432
vt 0.288829 0.392246
vt 0.316757 0.392859
vt 0.239547 0.445729
vt 0.316940 0.450804
vt 0.331842 0.446994
vt 0.342805 0.393630
vt 0.230564 0.391867
vt 0.981559 0.371671
vt 0.201542 0.406699
vt 0.658227 0.365454
vt 0.368816 0.407934
vt 0.253301 0.337542
vt 0.223429 0.337331
vt 0.323516 0.338995
vt 0.290624 0.333427
vt 0.183721 0.347456
vt 0.390658 0.350738
vt 0.988739 0.286478
vt 0.652766 0.282735
vt 0.674350 0.267681
vt 0.809019 0.272221
vt 0.805489 0.375838
vt 0.843005 0.374562
vt 0.846005 0.275981
vt 0.843279 0.466744
vt 0.557939 0.355623
vt 0.614703 0.434305
vt 0.545364 0.435341
vt 0.610777 0.352341
vt 0.624812 0.435589
vt 0.547356 0.353627
vt 0.535321 0.436685
vt 0.184717 0.491996
vt 0.119554 0.453730
vt 0.461715 0.465491
vt 0.155020 0.428588
vt 0.416388 0.441334
vt 0.766878 0.704833
vt 0.755825 0.565046
vt 0.793620 0.625784
vt 0.784453 0.743038
vt 0.747788 0.562620
vt 0.830461 0.632950
vt 0.829653 0.619091
vt 0.863206 0.643182
vt 0.829653 0.565679
vt 0.830788 0.551836
vt 0.863867 0.542405
vt 0.899216 0.658039
vt 0.862860 0.594057
vt 0.903516 0.593697
vt 0.902614 0.521270
vt 0.443417 0.363307
vt 0.498806 0.375606
vt 0.085076 0.362630
vt 0.538868 0.516425
vt 0.620780 0.516715
vt 0.631232 0.517665
vt 0.882922 0.157559
vt 0.995262 0.157989
vt 0.351248 0.341423
vt 0.335943 0.239487
vt 0.367262 0.241532
vt 0.643106 0.162308
vt 0.669243 0.141031
vt 0.250532 0.237437
vt 0.300578 0.230895
vt 0.918443 0.152173
vt 0.623472 0.611019
vt 0.534468 0.610619
vt 0.759259 0.153565
vt 0.472751 0.252469
vt 0.534110 0.268181
vt 0.720635 0.149575
vt 0.141708 0.351294
vt 0.058101 0.252641
vt 0.116232 0.242000
vt 0.805241 0.142997
vt 0.171425 0.241260
vt 0.215903 0.235096
vt 0.527579 0.517235
vt 0.519758 0.613539
vt 0.965978 0.153951
vt 0.408426 0.249354
vt 0.639331 0.031492
vt 0.660304 0.007772
vt 0.249445 0.116906
vt 0.312022 0.105668
vt 0.351394 0.116368
vt 0.385251 0.115938
vt 0.748239 0.028148
vt 0.809019 0.000354
vt 0.887947 0.027410
vt 0.927924 0.015700
vt 0.848256 0.145054
vt 0.972657 0.009255
vt 0.576311 0.168405
vt 0.713771 0.016279
vt 0.030680 0.151255
vt 0.081598 0.114348
vt 0.164891 0.115107
vt 0.211207 0.111927
vt 0.529903 0.713426
vt 0.514586 0.731260
vt 0.428139 0.122774
vt 0.643046 0.614634
vt 0.626278 0.713294
vt 0.992932 0.019219
vt 0.892626 0.772463
vt 0.831919 0.723261
vt 0.892626 0.668529
vt 0.890132 0.675075
vt 0.831119 0.764494
vt 0.831112 0.711523
vt 0.354545 0.011415
vt 0.392821 0.007414
vt 0.525107 0.801771
vt 0.448335 0.097265
vt 0.435797 0.015983
vt 0.471082 0.000757
vt 0.520007 0.122457
vt 0.615612 0.056918
vt 0.248296 0.014206
vt 0.313242 0.000757
vt 0.000566 0.038926
vt 0.060277 0.029740
vt 0.208087 0.007745
vt 0.551413 0.037530
vt 0.508346 0.805087
vt 0.128309 0.008736
vt 0.146471 0.103855
vt 0.656046 0.731444
vt 0.632049 0.801384
vt 0.159818 0.011429
vt 0.251865 0.797038
vt 0.246032 0.847497
vt 0.232314 0.797635
vt 0.323630 0.616072
vt 0.290710 0.592806
vt 0.347263 0.594819
vt 0.132955 0.630542
vt 0.153504 0.588693
vt 0.167818 0.609677
vt 0.207832 0.589526
vt 0.279538 0.614499
vt 0.204745 0.562866
vt 0.347563 0.667247
vt 0.375897 0.656043
vt 0.093100 0.666899
vt 0.102382 0.604757
vt 0.376609 0.677511
vt 0.416947 0.670549
vt 0.062769 0.671618
vt 0.067651 0.653926
vt 0.116025 0.745935
vt 0.064931 0.780344
vt 0.093350 0.742250
vt 0.337947 0.739470
vt 0.378901 0.776285
vt 0.286218 0.760643
vt 0.338434 0.734228
vt 0.306201 0.737825
vt 0.323417 0.720778
vt 0.116568 0.747768
vt 0.154617 0.744378
vt 0.167705 0.778511
vt 0.143775 0.724600
vt 0.020554 0.661205
vt 0.350861 0.737855
vt 0.093781 0.674649
vt 0.160386 0.628769
vt 0.148346 0.688779
vt 0.407913 0.814873
vt 0.383623 0.858677
vt 0.402807 0.810814
vt 0.309228 0.799827
vt 0.275731 0.841888
vt 0.273181 0.789917
vt 0.015014 0.807244
vt 0.006514 0.861013
vt 0.004458 0.803280
vt 0.260240 0.847063
vt 0.123770 0.806738
vt 0.135769 0.859999
vt 0.111399 0.863098
vt 0.330550 0.797659
vt 0.341888 0.855066
vt 0.317422 0.847515
vt 0.023214 0.864479
vt 0.207976 0.852856
vt 0.206777 0.803921
vt 0.156144 0.806643
vt 0.198056 0.848147
vt 0.174261 0.854669
vt 0.356609 0.805873
vt 0.365457 0.855758
vt 0.371446 0.805774
vt 0.191879 0.796847
vt 0.301927 0.849090
vt 0.147016 0.813759
vt 0.157714 0.863078
vt 0.268710 0.617984
vt 0.301247 0.619464
vt 0.318029 0.670724
vt 0.364792 0.687743
vt 0.312812 0.697420
vt 0.349295 0.723101
vt 0.331492 0.723111
vt 0.131963 0.731539
vt 0.093452 0.725618
vt 0.073233 0.677640
vt 0.215956 0.599032
vt 0.186272 0.613618
vt 0.133367 0.976511
vt 0.228616 0.941233
vt 0.228883 0.975774
vt 0.286892 0.942878
vt 0.287158 0.977419
vt 0.060581 0.942529
vt 0.133101 0.941970
vt 0.348401 0.976947
vt 0.348134 0.942405
vt 0.393908 0.976596
vt 0.060848 0.977071
vt 0.015383 0.942878
vt 0.600141 0.354607
vt 0.763036 0.529808
vt 0.843005 0.000360
vt 0.818489 0.762097
vt 0.890132 0.765112
vt 0.666379 0.805087
vt 0.166099 0.778252
vt 0.287345 0.757064
vt 0.390912 0.863078
vt 0.141772 0.803280
vt 0.393642 0.942054
vt 0.015650 0.977419
s 0
usemtl HangingCoat
f 32/1/1 1/2/1 4/3/1
f 1/2/2 31/4/2 4/3/2
f 19/5/3 31/4/3 20/6/3
f 27/7/4 32/1/4 26/8/4
f 4/3/5 29/9/5 3/10/5
f 30/11/6 4/3/6 3/10/6
f 29/9/7 18/12/7 17/13/7
f 26/8/8 30/11/8 25/14/8
f 3/15/9 34/16/9 2/17/9
f 33/18/10 3/15/10 2/17/10
f 30/19/11 35/20/11 25/21/11
f 33/18/12 35/20/12 30/19/12
f 29/22/13 17/23/13 36/24/13
f 34/16/14 29/22/14 36/24/14
f 42/25/15 34/16/15 36/24/15
f 36/26/16 37/27/16 42/28/16
f 35/20/17 81/29/17 25/21/17
f 37/27/18 36/26/18 41/30/18
f 38/31/19 35/32/19 43/33/19
f 35/20/20 33/18/20 43/34/20
f 81/35/21 35/32/21 44/36/21
f 35/32/22 38/31/22 44/36/22
f 40/37/23 37/27/23 41/30/23
f 40/37/24 42/28/24 37/27/24
f 39/38/25 38/31/25 43/33/25
f 39/38/26 44/36/26 38/31/26
f 5/39/27 33/18/27 2/17/27
f 5/39/28 34/16/28 45/40/28
f 57/41/29 40/37/29 41/30/29
f 40/37/30 56/42/30 42/28/30
f 55/43/31 49/44/31 50/45/31
f 49/44/32 58/46/32 50/45/32
f 54/47/33 48/48/33 47/49/33
f 52/50/34 47/49/34 48/48/34
f 39/38/35 51/51/35 44/36/35
f 54/47/36 39/38/36 43/33/36
f 5/39/37 60/52/37 6/53/37
f 59/54/38 5/39/38 6/53/38
f 45/40/39 34/16/39 64/55/39
f 42/25/40 64/55/40 34/16/40
f 46/56/41 63/57/41 33/18/41
f 43/34/42 33/18/42 63/57/42
f 63/57/43 59/54/43 62/58/43
f 60/52/44 64/55/44 61/59/44
f 56/42/45 65/60/45 42/28/45
f 64/55/46 42/25/46 65/61/46
f 64/55/47 65/61/47 61/59/47
f 54/47/48 43/33/48 66/62/48
f 63/57/49 66/63/49 43/34/49
f 63/57/50 62/58/50 66/63/50
f 70/64/51 61/59/51 67/65/51
f 69/66/52 62/58/52 59/54/52
f 6/53/53 70/64/53 7/67/53
f 69/66/54 6/53/54 7/67/54
f 72/68/55 61/59/55 65/61/55
f 62/58/56 71/69/56 66/63/56
f 72/70/57 56/42/57 55/43/57
f 54/47/58 71/71/58 53/72/58
f 51/51/59 74/73/59 73/74/59
f 58/46/60 75/75/60 76/76/60
f 41/30/61 36/26/61 82/77/61
f 77/78/62 80/79/62 79/80/62
f 80/79/63 25/81/63 24/82/63
f 17/83/64 79/80/64 16/84/64
f 36/24/65 17/23/65 82/85/65
f 17/23/66 16/86/66 82/85/66
f 25/21/67 81/29/67 24/87/67
f 44/36/68 51/51/68 81/35/68
f 51/51/69 73/74/69 81/35/69
f 57/41/70 41/30/70 82/77/70
f 75/75/71 57/41/71 82/77/71
f 75/88/72 82/85/72 16/86/72
f 24/87/73 81/29/73 73/89/73
f 1/2/74 85/90/74 20/6/74
f 1/2/75 87/91/75 83/92/75
f 19/5/76 85/90/76 84/93/76
f 27/7/77 87/91/77 28/94/77
f 25/14/78 27/7/78 26/8/78
f 19/5/79 17/13/79 18/12/79
f 25/95/80 78/96/80 86/97/80
f 77/98/81 17/99/81 84/100/81
f 87/101/82 88/102/82 83/103/82
f 86/97/83 88/102/83 87/101/83
f 85/104/84 83/103/84 88/102/84
f 84/100/85 85/104/85 88/102/85
f 86/97/86 78/96/86 88/102/86
f 84/100/87 88/102/87 77/98/87
f 78/96/88 77/98/88 88/102/88
f 24/87/89 74/105/89 23/106/89
f 15/107/90 75/88/90 16/86/90
f 89/108/91 16/84/91 79/80/91
f 90/109/92 24/82/92 23/110/92
f 90/109/93 79/80/93 80/79/93
f 76/76/94 94/111/94 58/46/94
f 55/43/95 100/112/95 72/70/95
f 68/113/96 97/114/96 96/115/96
f 53/72/97 99/116/97 92/117/97
f 7/67/98 98/118/98 22/119/98
f 58/46/99 8/120/99 50/45/99
f 89/108/100 104/121/100 103/122/100
f 7/67/101 97/114/101 69/66/101
f 48/48/102 91/123/102 52/50/102
f 23/106/103 101/124/103 10/125/103
f 53/72/104 9/126/104 48/48/104
f 76/127/105 14/128/105 102/129/105
f 52/50/106 101/130/106 74/73/106
f 67/65/107 100/131/107 95/132/107
f 15/133/108 103/122/108 14/134/108
f 50/45/109 93/135/109 55/43/109
f 68/113/110 99/136/110 71/69/110
f 23/110/111 104/121/111 90/109/111
f 67/65/112 98/118/112 70/64/112
f 92/117/113 114/137/113 107/138/113
f 22/119/114 113/139/114 105/140/114
f 96/115/115 112/141/115 111/142/115
f 101/130/116 106/143/116 116/144/116
f 8/120/117 109/145/117 21/146/117
f 102/147/118 109/145/118 94/111/118
f 95/132/119 113/139/119 98/118/119
f 8/120/120 108/148/120 93/135/120
f 101/124/121 12/149/121 10/125/121
f 92/117/122 13/150/122 9/126/122
f 102/129/123 11/151/123 117/152/123
f 9/126/124 106/143/124 91/123/124
f 95/132/125 115/153/125 110/154/125
f 14/134/126 118/155/126 11/156/126
f 96/115/127 114/157/127 99/136/127
f 10/158/128 119/159/128 104/121/128
f 93/135/129 115/160/129 100/112/129
f 22/119/130 112/141/130 97/114/130
f 103/122/131 119/159/131 118/155/131
f 116/161/132 13/162/132 107/163/132
f 117/164/133 21/165/133 109/166/133
f 111/142/134 138/167/134 137/168/134
f 119/159/135 148/169/135 118/155/135
f 107/170/136 141/171/136 143/172/136
f 116/173/137 144/174/137 12/149/137
f 105/140/138 136/175/138 139/176/138
f 117/152/139 146/177/139 147/178/139
f 115/153/140 135/179/140 110/154/140
f 107/170/141 145/180/141 116/173/141
f 11/156/142 148/169/142 146/181/142
f 105/140/143 138/167/143 112/141/143
f 111/142/144 141/171/144 114/157/144
f 117/152/145 142/182/145 108/183/145
f 12/184/146 149/185/146 119/159/146
f 110/154/147 136/175/147 113/139/147
f 108/183/148 140/186/148 115/153/148
f 127/187/149 152/188/149 126/189/149
f 125/190/150 136/191/150 135/192/150
f 126/193/151 138/194/151 127/195/151
f 122/196/152 136/191/152 128/197/152
f 122/196/153 138/194/153 139/198/153
f 130/199/154 135/192/154 140/200/154
f 129/201/155 137/202/155 126/193/155
f 124/203/156 140/200/156 142/204/156
f 123/205/157 141/206/157 129/201/157
f 121/207/158 145/208/158 131/209/158
f 120/210/159 147/211/159 146/212/159
f 120/213/160 148/214/160 133/215/160
f 121/216/161 149/217/161 144/218/161
f 134/219/162 148/214/162 149/217/162
f 123/205/163 145/208/163 143/220/163
f 124/203/164 147/211/164 132/221/164
f 156/222/165 152/223/165 164/224/165
f 120/225/166 162/226/166 132/227/166
f 128/228/167 154/229/167 122/230/167
f 133/231/168 161/232/168 120/233/168
f 127/187/169 154/229/169 153/234/169
f 134/235/170 159/236/170 164/237/170
f 125/238/171 155/239/171 150/240/171
f 133/231/172 164/237/172 163/241/172
f 126/189/173 156/242/173 129/243/173
f 131/244/174 158/245/174 160/246/174
f 130/247/175 157/248/175 155/239/175
f 124/249/176 162/226/176 157/248/176
f 129/243/177 158/245/177 123/250/177
f 128/228/178 150/240/178 151/251/178
f 121/252/179 160/246/179 159/253/179
f 151/254/180 150/255/180 155/256/180
f 155/256/181 157/257/181 163/258/181
f 157/257/182 162/259/182 163/258/182
f 162/259/183 161/260/183 163/258/183
f 164/224/184 159/261/184 160/262/184
f 164/224/185 160/262/185 156/222/185
f 160/262/186 158/263/186 156/222/186
f 155/256/187 163/258/187 151/254/187
f 163/258/188 164/224/188 151/254/188
f 154/264/189 151/254/189 153/265/189
f 152/223/190 153/265/190 164/224/190
f 164/224/191 153/265/191 151/254/191
f 166/266/192 170/267/192 169/268/192
f 169/268/193 167/269/193 165/270/193
f 166/266/194 172/271/194 168/272/194
f 167/269/195 173/273/195 165/270/195
f 174/274/196 175/275/196 173/273/196
f 171/276/197 178/277/197 172/271/197
f 32/1/198 28/94/198 1/2/198
f 1/2/199 20/6/199 31/4/199
f 19/5/200 18/12/200 31/4/200
f 27/7/201 28/94/201 32/1/201
f 4/3/202 31/4/202 29/9/202
f 30/11/203 32/1/203 4/3/203
f 29/9/204 31/4/204 18/12/204
f 26/8/205 32/1/205 30/11/205
f 3/15/206 29/22/206 34/16/206
f 33/18/207 30/19/207 3/15/207
f 5/39/208 46/56/208 33/18/208
f 5/39/209 2/17/209 34/16/209
f 57/41/210 49/44/210 40/37/210
f 40/37/211 49/44/211 56/42/211
f 55/43/212 56/42/212 49/44/212
f 49/44/213 57/41/213 58/46/213
f 54/47/214 53/72/214 48/48/214
f 52/50/215 51/51/215 47/49/215
f 39/38/216 47/49/216 51/51/216
f 54/47/217 47/49/217 39/38/217
f 5/39/218 45/40/218 60/52/218
f 59/54/219 46/56/219 5/39/219
f 63/57/220 46/56/220 59/54/220
f 60/52/221 45/40/221 64/55/221
f 70/64/222 60/52/222 61/59/222
f 69/66/223 68/113/223 62/58/223
f 6/53/224 60/52/224 70/64/224
f 69/66/225 59/54/225 6/53/225
f 72/68/226 67/65/226 61/59/226
f 62/58/227 68/113/227 71/69/227
f 72/70/228 65/60/228 56/42/228
f 54/47/229 66/62/229 71/71/229
f 51/51/230 52/50/230 74/73/230
f 58/46/231 57/41/231 75/75/231
f 77/78/232 78/278/232 80/79/232
f 80/79/233 78/278/233 25/81/233
f 17/83/234 77/78/234 79/80/234
f 1/2/235 83/92/235 85/90/235
f 1/2/236 28/94/236 87/91/236
f 19/5/237 20/6/237 85/90/237
f 27/7/238 86/279/238 87/91/238
f 25/14/239 86/279/239 27/7/239
f 19/5/240 84/93/240 17/13/240
f 24/87/241 73/89/241 74/105/241
f 15/107/242 76/127/242 75/88/242
f 89/108/243 15/133/243 16/84/243
f 90/109/244 80/79/244 24/82/244
f 90/109/245 89/108/245 79/80/245
f 76/76/246 102/147/246 94/111/246
f 55/43/247 93/135/247 100/112/247
f 68/113/248 69/66/248 97/114/248
f 53/72/249 71/71/249 99/116/249
f 7/67/250 70/64/250 98/118/250
f 58/46/251 94/111/251 8/120/251
f 89/108/252 90/109/252 104/121/252
f 7/67/253 22/119/253 97/114/253
f 48/48/254 9/126/254 91/123/254
f 23/106/255 74/105/255 101/124/255
f 53/72/256 92/117/256 9/126/256
f 76/127/257 15/107/257 14/128/257
f 52/50/258 91/123/258 101/130/258
f 67/65/259 72/68/259 100/131/259
f 15/133/260 89/108/260 103/122/260
f 50/45/261 8/120/261 93/135/261
f 68/113/262 96/115/262 99/136/262
f 23/110/263 10/158/263 104/121/263
f 67/65/264 95/132/264 98/118/264
f 92/117/265 99/116/265 114/137/265
f 22/119/266 98/118/266 113/139/266
f 96/115/267 97/114/267 112/141/267
f 101/130/268 91/123/268 106/143/268
f 8/120/269 94/111/269 109/145/269
f 102/147/270 117/280/270 109/145/270
f 95/132/271 110/154/271 113/139/271
f 8/120/272 21/146/272 108/148/272
f 101/124/273 116/173/273 12/149/273
f 92/117/274 107/138/274 13/150/274
f 102/129/275 14/128/275 11/151/275
f 9/126/276 13/150/276 106/143/276
f 95/132/277 100/131/277 115/153/277
f 14/134/278 103/122/278 118/155/278
f 96/115/279 111/142/279 114/157/279
f 10/158/280 12/184/280 119/159/280
f 93/135/281 108/148/281 115/160/281
f 22/119/282 105/140/282 112/141/282
f 103/122/283 104/121/283 119/159/283
f 116/161/284 106/281/284 13/162/284
f 117/164/285 108/282/285 21/165/285
f 111/142/286 112/141/286 138/167/286
f 119/159/287 149/185/287 148/169/287
f 107/170/288 114/157/288 141/171/288
f 116/173/289 145/180/289 144/174/289
f 105/140/290 113/139/290 136/175/290
f 117/152/291 11/151/291 146/177/291
f 115/153/292 140/186/292 135/179/292
f 107/170/293 143/172/293 145/180/293
f 11/156/294 118/155/294 148/169/294
f 105/140/295 139/176/295 138/167/295
f 111/142/296 137/168/296 141/171/296
f 117/152/297 147/178/297 142/182/297
f 12/184/298 144/283/298 149/185/298
f 110/154/299 135/179/299 136/175/299
f 108/183/300 142/182/300 140/186/300
f 127/187/301 153/234/301 152/188/301
f 125/190/302 128/197/302 136/191/302
f 126/193/303 137/202/303 138/194/303
f 122/196/304 139/198/304 136/191/304
f 122/196/305 127/195/305 138/194/305
f 130/199/306 125/190/306 135/192/306
f 129/201/307 141/206/307 137/202/307
f 124/203/308 130/199/308 140/200/308
f 123/205/309 143/220/309 141/206/309
f 121/207/310 144/284/310 145/208/310
f 120/210/311 132/221/311 147/211/311
f 120/213/312 146/285/312 148/214/312
f 121/216/313 134/219/313 149/217/313
f 134/219/314 133/215/314 148/214/314
f 123/205/315 131/209/315 145/208/315
f 124/203/316 142/204/316 147/211/316
f 120/225/317 161/286/317 162/226/317
f 128/228/318 151/251/318 154/229/318
f 133/231/319 163/241/319 161/232/319
f 127/187/320 122/230/320 154/229/320
f 134/235/321 121/287/321 159/236/321
f 125/238/322 130/247/322 155/239/322
f 133/231/323 134/235/323 164/237/323
f 126/189/324 152/188/324 156/242/324
f 131/244/325 123/250/325 158/245/325
f 130/247/326 124/249/326 157/248/326
f 124/249/327 132/227/327 162/226/327
f 129/243/328 156/242/328 158/245/328
f 128/228/329 125/238/329 150/240/329
f 121/252/330 131/244/330 160/246/330
f 166/266/192 168/272/192 170/267/192
f 169/268/193 170/267/193 167/269/193
f 166/266/194 171/276/194 172/271/194
f 167/269/195 174/274/195 173/273/195
f 174/274/196 176/288/196 175/275/196
f 171/276/197 177/289/197 178/277/197
