# Blender 5.0.1
# www.blender.org
mtllib OpenSmallWallLight.mtl
o OpenSmallWallLight
v -0.050000 -0.015238 0.005000
v -0.035238 -0.030000 0.005000
v -0.035238 0.030000 0.005000
v -0.050000 0.015238 0.005000
v -0.031995 -0.022171 -0.005000
v -0.042171 -0.011995 -0.005000
v -0.042171 0.011995 -0.005000
v -0.031995 0.022171 -0.005000
v 0.035238 -0.030000 0.005000
v 0.050000 -0.015238 0.005000
v 0.050000 0.015238 0.005000
v 0.035238 0.030000 0.005000
v 0.042171 -0.011995 -0.005000
v 0.031995 -0.022171 -0.005000
v 0.031995 0.022171 -0.005000
v 0.042171 0.011995 -0.005000
v -0.050000 -0.015238 -0.005000
v -0.035238 -0.030000 -0.005000
v -0.035238 0.030000 -0.005000
v -0.050000 0.015238 -0.005000
v 0.035238 -0.030000 -0.005000
v 0.050000 -0.015238 -0.005000
v 0.050000 0.015238 -0.005000
v 0.035238 0.030000 -0.005000
v -0.042171 -0.011995 -0.013718
v -0.034126 -0.008663 -0.021764
v -0.028663 -0.014126 -0.021764
v -0.031995 -0.022171 -0.013718
v -0.031995 0.022171 -0.013718
v -0.028663 0.014126 -0.021764
v -0.034126 0.008663 -0.021764
v -0.042171 0.011995 -0.013718
v 0.031995 -0.022171 -0.013718
v 0.028663 -0.014126 -0.021764
v 0.034126 -0.008663 -0.021764
v 0.042171 -0.011995 -0.013718
v 0.042171 0.011995 -0.013718
v 0.034126 0.008663 -0.021764
v 0.028663 0.014126 -0.021764
v 0.031995 0.022171 -0.013718
vn -0.7071 -0.7071 -0.0000
vn -0.7071 0.7071 -0.0000
vn 0.7071 -0.7071 -0.0000
vn 0.7071 0.7071 -0.0000
vn -0.0000 -1.0000 -0.0000
vn -1.0000 -0.0000 -0.0000
vn -0.0000 1.0000 -0.0000
vn 1.0000 -0.0000 -0.0000
vn -0.0000 -0.0000 -1.0000
vn -0.5000 -0.5000 -0.7071
vn -0.5000 0.5000 -0.7071
vn 0.5000 -0.5000 -0.7071
vn 0.5000 0.5000 -0.7071
vn -0.0000 -0.7071 -0.7071
vn -0.7071 -0.0000 -0.7071
vn -0.0000 0.7071 -0.7071
vn 0.7071 -0.0000 -0.7071
vt 0.140625 0.156250
vt 0.156250 0.125000
vt 0.156250 0.156250
vt 0.156250 0.062500
vt 0.140625 0.093750
vt 0.140625 0.062500
vt 0.156250 0.218750
vt 0.140625 0.250000
vt 0.140625 0.218750
vt 0.140625 0.312500
vt 0.156250 0.281250
vt 0.156250 0.312500
vt 0.140625 0.125000
vt 0.140625 0.000000
vt 0.156250 0.000000
vt 0.156250 0.250000
vt 0.015607 0.018546
vt 0.021869 0.002909
vt 0.024798 0.009708
vt 0.037500 0.009708
vt 0.053761 0.015730
vt 0.046691 0.018546
vt 0.024798 0.083946
vt 0.008536 0.077924
vt 0.015607 0.075108
vt 0.046690 0.075108
vt 0.040429 0.090745
vt 0.037500 0.083946
vt 0.008536 0.015730
vt 0.040429 0.002909
vt 0.046691 0.075108
vt 0.053761 0.077924
vt 0.021869 0.090745
vt 0.105716 0.072313
vt 0.105103 0.086125
vt 0.100996 0.076740
vt 0.085921 0.076754
vt 0.071961 0.075762
vt 0.081526 0.072032
vt 0.101514 0.016988
vt 0.115474 0.017980
vt 0.105908 0.021710
vt 0.081719 0.021429
vt 0.082332 0.007617
vt 0.086438 0.017002
vt 0.115423 0.076285
vt 0.081563 0.085955
vt 0.072011 0.017458
vt 0.105872 0.007787
vt 0.108278 0.093258
vt 0.123087 0.077600
vt 0.079318 0.093363
vt 0.123087 0.016071
vt 0.064348 0.077671
vt 0.064348 0.016142
vt 0.108117 0.000379
vt 0.079157 0.000484
vt 0.156250 0.093750
vt 0.140625 0.281250
vt 0.053761 0.077924
s 0
usemtl 64x64grid
f 2/1/1 17/2/1 18/3/1
f 19/4/2 4/5/2 3/6/2
f 21/7/3 10/8/3 9/9/3
f 12/10/4 23/11/4 24/12/4
f 21/7/5 2/1/5 18/3/5
f 4/5/6 17/2/6 1/13/6
f 19/4/7 12/14/7 24/15/7
f 23/11/8 10/8/8 22/16/8
f 5/17/9 17/18/9 6/19/9
f 7/20/9 19/21/9 8/22/9
f 13/23/9 21/24/9 14/25/9
f 15/26/9 23/27/9 16/28/9
f 5/17/9 21/24/9 18/29/9
f 6/19/9 20/30/9 7/20/9
f 15/31/9 19/21/9 24/32/9
f 16/28/9 22/33/9 13/23/9
f 2/1/1 1/13/1 17/2/1
f 19/4/2 20/58/2 4/5/2
f 21/7/3 22/16/3 10/8/3
f 12/10/4 11/59/4 23/11/4
f 21/7/5 9/9/5 2/1/5
f 4/5/6 20/58/6 17/2/6
f 19/4/7 3/6/7 12/14/7
f 23/11/8 11/59/8 10/8/8
f 5/17/9 18/29/9 17/18/9
f 7/20/9 20/30/9 19/21/9
f 13/23/9 22/33/9 21/24/9
f 15/26/9 24/60/9 23/27/9
f 5/17/9 14/25/9 21/24/9
f 6/19/9 17/18/9 20/30/9
f 15/31/9 8/22/9 19/21/9
f 16/28/9 23/27/9 22/33/9
usemtl 64x64grid
f 27/34/10 25/35/10 26/36/10
f 31/37/11 29/38/11 30/39/11
f 35/40/12 33/41/12 34/42/12
f 39/43/13 37/44/13 38/45/13
f 34/42/14 28/46/14 27/34/14
f 26/36/15 32/47/15 31/37/15
f 30/39/16 40/48/16 39/43/16
f 36/49/17 38/45/17 37/44/17
f 6/50/1 28/46/1 5/51/1
f 30/39/9 38/45/9 34/42/9
f 7/52/6 25/35/6 6/50/6
f 5/51/5 33/41/5 14/53/5
f 8/54/2 32/47/2 7/52/2
f 15/55/7 29/38/7 8/54/7
f 14/53/3 36/49/3 13/56/3
f 13/56/8 37/44/8 16/57/8
f 16/57/4 40/48/4 15/55/4
f 27/34/10 28/46/10 25/35/10
f 31/37/11 32/47/11 29/38/11
f 35/40/12 36/49/12 33/41/12
f 39/43/13 40/48/13 37/44/13
f 34/42/14 33/41/14 28/46/14
f 26/36/15 25/35/15 32/47/15
f 30/39/16 29/38/16 40/48/16
f 36/49/17 35/40/17 38/45/17
f 6/50/1 25/35/1 28/46/1
f 34/42/9 27/34/9 26/36/9
f 26/36/9 31/37/9 30/39/9
f 30/39/9 39/43/9 38/45/9
f 38/45/9 35/40/9 34/42/9
f 34/42/9 26/36/9 30/39/9
f 7/52/6 32/47/6 25/35/6
f 5/51/5 28/46/5 33/41/5
f 8/54/2 29/38/2 32/47/2
f 15/55/7 40/48/7 29/38/7
f 14/53/3 33/41/3 36/49/3
f 13/56/8 36/49/8 37/44/8
f 16/57/4 37/44/4 40/48/4
