# Blender 5.1.1
# www.blender.org
mtllib FryerBasket.mtl
o FryerBasket
v -0.023821 0.174065 0.193224
v 0.023821 0.174065 0.193224
v -0.018352 0.204824 0.367669
v 0.018352 0.204824 0.367669
v 0.028076 0.196834 0.322353
v -0.028076 0.196834 0.322353
v -0.023821 0.163490 0.195089
v 0.023821 0.163490 0.195089
v -0.018352 0.194249 0.369534
v 0.018352 0.194249 0.369534
v 0.028076 0.186259 0.324217
v -0.028076 0.186259 0.324217
v -0.015318 0.241159 0.535411
v -0.023812 0.232794 0.536885
v 0.023812 0.232794 0.536885
v 0.015318 0.241159 0.535411
v -0.023812 0.202880 0.367233
v -0.015318 0.211245 0.365758
v 0.015318 0.211245 0.365758
v 0.023812 0.202880 0.367233
v -0.023812 0.225841 0.538111
v -0.015318 0.217477 0.539586
v 0.015318 0.217477 0.539586
v 0.023812 0.225841 0.538111
v -0.015318 0.187562 0.369934
v -0.023812 0.195927 0.368459
v 0.023812 0.195927 0.368459
v 0.015318 0.187562 0.369934
v -0.090000 0.000000 0.180000
v -0.100000 0.179106 0.200000
v -0.090000 -0.000000 -0.180000
v -0.100000 0.179106 -0.200000
v 0.090000 0.000000 0.180000
v 0.100000 0.179106 0.200000
v 0.090000 -0.000000 -0.180000
v 0.100000 0.179106 -0.200000
v 0.088012 0.179106 -0.188012
v -0.088012 0.179106 -0.188012
v -0.088012 0.179106 0.188012
v 0.088012 0.179106 0.188012
v -0.079211 0.016096 -0.169211
v 0.079211 0.016096 -0.169211
v 0.079211 0.016096 0.169211
v -0.079211 0.016096 0.169211
vn -0.0000 0.9848 -0.1736
vn -0.0000 -0.9848 0.1737
vn -0.0000 -0.9848 0.1736
vn 0.9995 -0.0056 -0.0319
vn -0.9784 0.0359 0.2036
vn 0.9784 0.0359 0.2036
vn -0.9995 -0.0056 -0.0319
vn -0.0000 0.1736 0.9848
vn -0.0000 0.1737 0.9848
vn 1.0000 -0.0000 -0.0000
vn -0.0000 -0.1736 -0.9848
vn -0.7071 0.6964 -0.1228
vn 0.7071 0.6964 -0.1228
vn -0.7071 -0.6964 0.1228
vn 0.7071 -0.6964 0.1228
vn -1.0000 -0.0000 -0.0000
vn -0.9984 -0.0557 -0.0000
vn -0.0000 -0.1110 -0.9938
vn 0.9984 -0.0557 -0.0000
vn -0.0000 -0.1110 0.9938
vn -0.0000 -1.0000 -0.0000
vn -0.0000 0.1146 -0.9934
vn -0.0000 1.0000 -0.0000
vn -0.9985 0.0539 -0.0000
vn 0.9985 0.0539 -0.0000
vn -0.0000 0.1146 0.9934
vn 0.0001 0.1736 0.9848
vn -0.0000 0.1735 0.9848
vn -0.0000 -0.1737 -0.9848
vt 0.875000 0.125000
vt 0.812500 0.250000
vt 0.812500 0.125000
vt 0.812500 0.062500
vt 0.875000 0.250000
vt 0.875000 0.062500
vt 0.937500 0.250000
vt 0.937500 0.062500
vt 0.937500 0.125000
vt 0.879577 0.414354
vt 0.893064 0.387380
vt 0.933524 0.400867
vt 0.625000 0.750000
vt 0.562500 0.937500
vt 0.562500 0.750000
vt 0.687500 0.750000
vt 0.750000 0.937500
vt 0.687500 0.937500
vt 0.879674 0.413961
vt 0.892904 0.387386
vt 0.933295 0.401450
vt 0.875000 0.937500
vt 0.812500 0.750000
vt 0.875000 0.750000
vt 0.500000 0.750000
vt 0.500000 0.937500
vt 0.625000 0.937500
vt 0.375000 0.750000
vt 0.437500 0.937500
vt 0.375000 0.937500
vt 0.750000 0.750000
vt 0.437500 0.750000
vt 0.625000 -0.000000
vt 0.312500 0.625000
vt 0.312500 -0.000000
vt 0.312500 0.937500
vt -0.000000 0.625000
vt -0.000000 0.937500
vt 0.312500 1.000000
vt 0.687500 0.625000
vt 0.625000 0.625000
vt 0.000000 1.000000
vt 0.687500 -0.000000
vt 0.933524 0.414354
vt 0.920037 0.427840
vt 0.893064 0.427840
vt 0.879577 0.400867
vt 0.920037 0.387380
vt 0.933295 0.413961
vt 0.920065 0.428025
vt 0.892904 0.428025
vt 0.879674 0.401450
vt 0.920065 0.387386
vt 0.812500 0.937500
vt 0.000000 0.000000
s 1
usemtl FryerBasket
f 5/1/1 1/2/1 6/3/1
f 3/4/1 5/1/1 6/3/1
f 7/5/2 11/3/3 12/1/3
f 9/6/3 11/3/3 10/4/3
f 5/1/4 8/7/4 2/5/4
f 3/8/5 12/1/5 9/6/5
f 4/6/6 11/9/6 5/1/6
f 1/7/7 12/1/7 6/9/7
f 14/10/8 22/11/9 24/12/8
f 16/13/1 18/14/1 13/15/1
f 15/16/10 27/17/10 20/18/10
f 20/19/11 28/20/11 26/21/11
f 25/22/2 23/23/2 22/24/2
f 14/25/12 18/14/12 17/26/12
f 15/16/13 19/27/13 16/13/13
f 22/28/14 26/29/14 25/30/14
f 23/23/15 27/17/15 24/31/15
f 14/25/16 26/29/16 21/32/16
f 30/33/17 31/34/17 29/35/17
f 32/36/18 35/37/18 31/34/18
f 36/33/19 33/34/19 35/35/19
f 34/36/20 29/37/20 33/34/20
f 35/37/21 29/35/21 31/34/21
f 40/38/22 44/34/22 39/36/22
f 36/39/23 38/38/23 37/36/23
f 30/33/23 38/40/23 32/41/23
f 30/38/23 40/39/23 39/42/23
f 36/40/23 40/33/23 34/43/23
f 41/37/23 43/35/23 42/34/23
f 37/41/24 43/35/24 40/33/24
f 39/41/25 41/35/25 38/33/25
f 38/38/26 42/34/26 37/36/26
f 5/1/1 2/5/1 1/2/1
f 3/4/1 4/6/1 5/1/1
f 7/5/2 8/2/2 11/3/3
f 9/6/3 12/1/3 11/3/3
f 5/1/4 11/9/4 8/7/4
f 3/8/5 6/9/5 12/1/5
f 4/6/6 10/8/6 11/9/6
f 1/7/7 7/5/7 12/1/7
f 24/12/8 15/44/27 16/45/8
f 16/45/8 13/46/28 14/10/8
f 14/10/8 21/47/8 22/11/9
f 22/11/9 23/48/9 24/12/8
f 24/12/8 16/45/8 14/10/8
f 16/13/1 19/27/1 18/14/1
f 15/16/10 24/31/10 27/17/10
f 26/21/11 17/49/11 18/50/11
f 18/50/11 19/51/29 20/19/11
f 20/19/11 27/52/11 28/20/11
f 28/20/11 25/53/29 26/21/11
f 26/21/11 18/50/11 20/19/11
f 25/22/2 28/54/2 23/23/2
f 14/25/12 13/15/12 18/14/12
f 15/16/13 20/18/13 19/27/13
f 22/28/14 21/32/14 26/29/14
f 23/23/15 28/54/15 27/17/15
f 14/25/16 17/26/16 26/29/16
f 30/33/17 32/41/17 31/34/17
f 32/36/18 36/38/18 35/37/18
f 36/33/19 34/41/19 33/34/19
f 34/36/20 30/38/20 29/37/20
f 35/37/21 33/55/21 29/35/21
f 40/38/22 43/37/22 44/34/22
f 36/39/23 32/42/23 38/38/23
f 30/33/23 39/43/23 38/40/23
f 30/38/23 34/36/23 40/39/23
f 36/40/23 37/41/23 40/33/23
f 41/37/23 44/55/23 43/35/23
f 37/41/24 42/34/24 43/35/24
f 39/41/25 44/34/25 41/35/25
f 38/38/26 41/37/26 42/34/26
